/* XPM */
static char *Avance[] = {
/* columns rows colors chars-per-pixel */
"75 75 242 2",
"   c #5A6734",
".  c #5F6B34",
"X  c #646E2D",
"o  c #16295A",
"O  c #555E70",
"+  c #566178",
"@  c #758F6F",
"#  c #76906F",
"$  c #7D986F",
"%  c #748F70",
"&  c #769170",
"*  c #848300",
"=  c #888603",
"-  c #8B8B07",
";  c #848408",
":  c #8B8A0A",
">  c #949400",
",  c #9D9D00",
"<  c #929209",
"1  c #9B9B0D",
"2  c #9D9F1B",
"3  c #9EA01B",
"4  c #A3A305",
"5  c #ABAB06",
"6  c #A3A30B",
"7  c #A9A909",
"8  c #AEB009",
"9  c #B5B504",
"0  c #BDBD00",
"q  c #B3B30A",
"w  c #BCBC0A",
"e  c #A7A918",
"r  c #A5A81D",
"t  c #B0B012",
"y  c #B6B819",
"u  c #9EAA37",
"i  c #A9B22B",
"p  c #A0AC37",
"a  c #C0BF00",
"s  c #C5C500",
"d  c #CCCC00",
"f  c #D6D600",
"g  c #DDDD00",
"h  c #D0D30F",
"j  c #CCCC15",
"k  c #CFCF1A",
"l  c #D0D010",
"z  c #DEDE16",
"x  c #E3E301",
"c  c #EDED03",
"v  c #E1E10F",
"b  c #EDED0C",
"n  c #F2F201",
"m  c #FEFE04",
"M  c #F2F20C",
"N  c #FFFF09",
"B  c #E7E710",
"V  c #EFEF10",
"C  c #EFEF1F",
"Z  c #F4F412",
"A  c #FFFF14",
"S  c #FEFE1B",
"D  c #FEFE25",
"F  c #F4F428",
"G  c #FFFF2A",
"H  c #FFFF33",
"J  c #84A06F",
"K  c #90A76B",
"L  c #93A969",
"P  c #9CB87B",
"I  c #ACC56B",
"U  c #B4CE6B",
"Y  c #BDD86B",
"T  c #21438F",
"R  c #214390",
"E  c #274A97",
"W  c #304D90",
"Q  c #32529D",
"!  c #2C52A8",
"~  c #3756A0",
"^  c #3957A0",
"/  c #3A58A1",
"(  c #3457AE",
")  c #3659AE",
"_  c #395BAF",
"`  c #2B55B3",
"'  c #2F5DBD",
"]  c #325AB5",
"[  c #3D5EB0",
"{  c #3F60B1",
"}  c #4464B3",
"|  c #4867B4",
" . c #4D6BB6",
".. c #345FC3",
"X. c #2F62D1",
"o. c #3265D6",
"O. c #3E6DD4",
"+. c #3366D8",
"@. c #356CE8",
"#. c #3D70E1",
"$. c #3871ED",
"%. c #3B73F7",
"&. c #3E79F6",
"*. c #3D7AFC",
"=. c #476EC5",
"-. c #486EC5",
";. c #406CD4",
":. c #4B74D5",
">. c #5077D5",
",. c #537BD5",
"<. c #597ED7",
"1. c #517EDD",
"2. c #597ED8",
"3. c #4178E6",
"4. c #4C7EE7",
"5. c #467CED",
"6. c #4A7EED",
"7. c #457DF5",
"8. c #427EFE",
"9. c #497FF8",
"0. c #769488",
"q. c #6781BB",
"w. c #6883BF",
"e. c #608BB9",
"r. c #6E97B4",
"t. c #5C80D6",
"y. c #5480DB",
"u. c #5D83D9",
"i. c #6A85C0",
"p. c #778FC3",
"a. c #718DC8",
"s. c #6794C7",
"d. c #6795C8",
"f. c #6896CA",
"g. c #7D97CC",
"h. c #6387DA",
"j. c #658ADA",
"k. c #698BDB",
"l. c #6D91DE",
"z. c #7494D5",
"x. c #7A98D7",
"c. c #4C83E7",
"v. c #4D82ED",
"b. c #5382E4",
"n. c #5384EC",
"m. c #5886EC",
"M. c #5E8AEC",
"N. c #4681F5",
"B. c #4B85F4",
"V. c #4380FF",
"C. c #4A83F9",
"Z. c #4F8DFF",
"A. c #5284F3",
"S. c #548AF4",
"D. c #5A8BF3",
"F. c #5792F2",
"G. c #5594FD",
"H. c #5798FF",
"J. c #599BFF",
"K. c #638EED",
"L. c #6A91E4",
"P. c #6690EC",
"I. c #6C94EC",
"U. c #7699E4",
"Y. c #7299EF",
"T. c #7B9EED",
"R. c #6492F4",
"E. c #6A95F2",
"W. c #739BF1",
"Q. c #799EF0",
"!. c #65A0EB",
"~. c #7DA0EA",
"^. c #76B1E9",
"/. c #6BAAF7",
"(. c #62A2FF",
"). c #7DA0F0",
"_. c #6EB0FF",
"`. c #7EBBF0",
"'. c #72B4FF",
"]. c #87A483",
"[. c #8998B9",
"{. c #8FBCAE",
"}. c #9BA6BB",
"|. c #8599C4",
" X c #859CCB",
".X c #899EC9",
"XX c #849DD2",
"oX c #819EDC",
"OX c #8FA1C7",
"+X c #8DA2CF",
"@X c #96A5C5",
"#X c #9EACCC",
"$X c #85A0D8",
"%X c #8CA6DB",
"&X c #9EB0D7",
"*X c #9DB1DC",
"=X c #A2AEC5",
"-X c #ABB4C7",
";X c #A6B2CA",
":X c #B3BAC7",
">X c #B2BACC",
",X c #B8BFCD",
"<X c #ACB9D5",
"1X c #B3BDD4",
"2X c #B0BEDB",
"3X c #8AA6E1",
"4X c #84A5ED",
"5X c #88A7E8",
"6X c #8BAAEE",
"7X c #93ACE3",
"8X c #95AFEB",
"9X c #9DB3E2",
"0X c #96B1EC",
"qX c #9BB5ED",
"wX c #83A5F2",
"eX c #8CADF4",
"rX c #92AFF0",
"tX c #95B3F2",
"yX c #A6BAE6",
"uX c #BEC1C6",
"iX c #BEC3CD",
"pX c #B9C2D4",
"aX c #B3C1DD",
"sX c #BDCCEA",
"dX c #C2C6CE",
"fX c #C6C9CE",
"gX c #C1C6D1",
"hX c #C4C9D3",
"jX c #CACDD4",
"kX c #CDD0D6",
"lX c #CED2DC",
"zX c #D4D4D6",
"xX c #D2D5DB",
"cX c #D6D8DC",
"vX c #DFDEDD",
"bX c #CCD4E3",
"nX c #C3D0EB",
"mX c #D5D9E3",
"MX c #D8DBE1",
"NX c #D2DBED",
"BX c #C3D2F0",
"VX c #E3E3E4",
/* pixels */
"*XI.Y.Y.E.Y.Y.Y.Y.Y.!.W.W.E.Y.Y.E.E.Y.Y.Y.Y.!.W.W.E.Y.Y.!.W.E.W.Y.Y.!.W.W.E.Y.Y.E.Y.Y.Y.Y.Y.!.!.W.W.W.W.!./.Y.Y.Y.Y.Y.Y.Y.E.Y.Y.W.Y.Y.E.Y.Y.!.E.W.L.[.",
"i.o.*.*.*.*.*.*.*.*.*.*.*.*.*.*.*.*.*.*.*.*.*.*.*.*.*.*.*.*.*.*.*.*.*.*.*.*.*.*.*.*.*.*.*.*.*.*.*.*.*.*.*.*.*.*.*.*.*.8.*.*.*.*.*.*.*.*.*.*.*.*.&.E + ",
"w.` #.V.V.Z.C.V.V.V.Z.V.Z.V.V.Z.C.Z.C.V.V.Z.V.V.Z.V.V.Z.V.Z.V.Z.V.V.Z.V.V.Z.C.V.V.Z.Z.C.V.V.Z.V.V.C.V.V.V.V.Z.V.V.V.C.V.V.V.V.Z.Z.V.V.C.V.Z.V.N.' o O ",
"q.` +.N.J.J.J.J.J.J.H.J.H.J.H.H.J.J.J.J.J.J.J.J.H.J.H.H.J.J.J.J.J.J.H.H.J.J.J.J.H.H.H.J.J.J.H.H.J.J.J.J.J.J.H.(.J.J.J.J.J.J.H.H.J.J.J.J.J.J.H.O.R o O ",
"q.` +.$.G._.'._.'.'.'.'._.'.'.'.'.'.'.'.'.'.'.'._._.'.'.'.'.'.'.'.'._._.'._.'._._._.'.'.'.'._._.'.'.'.'.'.'.'.'.'.'.'.'.'.'.'.'.'.'.'.'._./.3.` R o O ",
"q.` +.$.7.J.'.'.'.'.'.'.'.'.'.'.'.'.'.'.'.'.'.'.'.'.'.'.'.'.'.'.'.'.'._.`.{.^.'.'.'.'.'.'.'.'.'.'.'.'.'.'.'.'.'.'.'.'.'.'.'.'.'.'.'.'.'.'.F.o.` R o O ",
"q.` +.$.*.V.G.(.(.(.(.(.(.(.(.(.(.(.(.(.(.(.(.(.(.(.(.(.(.(.(.(.(.(.(./.Y h $ !.(.(.(.(.(.(.(.(.(.(.(.(.(.(.(.(.(.(.(.(.(.(.(.(.(.(.(.J.B.$.X.` R o O ",
"q.` +.$.*.V.V.Z.Z.Z.Z.Z.Z.Z.Z.Z.Z.Z.Z.Z.Z.Z.Z.G.Z.Z.Z.Z.Z.Z.Z.Z.Z.Z.F.U m x q $ F.Z.Z.Z.Z.G.Z.Z.Z.Z.Z.Z.Z.Z.Z.Z.Z.Z.Z.Z.Z.Z.Z.G.Z.Z.Z.Z.%.@.X.` R o O ",
"e.` o.$.*.V.V.V.V.V.V.V.V.V.V.V.V.V.V.V.V.V.V.V.N.V.V.V.V.V.V.V.V.c.U m m x 0 5 & v.V.V.V.V.V.V.V.V.V.V.V.V.V.V.V.V.V.V.V.V.V.Z.V.V.V.8.%.@.X.` R o O ",
"q.` o.$.*.*.V.V.V.V.V.V.V.V.V.V.V.V.V.V.V.V.V.V.V.V.V.V.V.V.V.8.B.I n m m x s s 8 & v.V.V.V.V.V.V.V.V.V.V.V.V.V.V.V.V.V.V.V.V.V.V.8.V.8.%.@.X.` T o O ",
"q.` o.$.*.V.V.V.V.V.V.V.V.V.V.V.V.V.V.V.V.V.V.V.V.V.V.V.V.V.8.B.I m m m m x s s a 8 @ N.V.V.V.V.V.V.V.V.V.V.V.V.V.V.V.V.V.8.V.V.V.V.8.8.%.@.X.` R o O ",
"q.` o.$.*.V.V.V.V.V.V.V.V.V.V.V.V.V.V.*.V.V.V.V.V.V.V.V.V.V.N.I n m m m m x d d s a 5 # 5.V.V.V.V.V.V.V.V.V.V.V.V.V.V.V.V.V.V.V.8.8.8.*.%.@.X.` R o O ",
"q.` +.$.*.V.V.V.V.V.V.V.V.V.V.V.V.V.V.V.V.V.V.V.V.V.V.V.*.B.I m m m m m m c d d s s a 8 # v.V.V.V.V.V.V.V.V.V.V.V.V.8.V.V.V.V.V.V.V.8.8.%.@.X.` R o O ",
"q.` o.$.*.V.V.8.V.V.V.V.V.V.V.V.V.V.V.V.V.V.V.V.V.V.V.V.v.I m m m m m m A Z g d d d s a 8 % c.8.V.V.V.V.V.V.V.V.V.V.V.V.V.V.V.V.V.V.V.8.%.@.X.` R o O ",
"q.` o.$.*.V.V.V.V.V.V.V.V.V.V.V.V.V.V.V.V.V.V.V.V.V.V.B.I m m m m m m A G S c g d d s s 0 8 # N.V.V.V.V.V.V.V.V.V.V.V.V.V.V.V.8.V.V.8.*.%.@.X.` R o O ",
"q.` +.$.*.V.V.V.V.V.V.V.V.V.V.V.V.V.V.V.V.V.V.V.V.V.v.I m m m m m m N G H S m c g d d d s a 8 # N.V.V.V.V.V.V.V.V.V.V.V.V.V.V.V.8.8.8.*.%.@.X.` T o O ",
"q.` o.$.*.V.V.V.V.V.V.V.V.V.V.V.V.V.V.V.V.V.8.V.*.B.I n m m m m m A G H H S m m c g d d s s a 8 @ 4.V.V.V.V.V.V.V.V.V.V.V.V.V.V.V.V.8.8.%.@.X.` T o O ",
"q.` o.$.*.8.V.V.V.V.V.V.V.V.V.V.V.V.V.V.V.V.V.V.v.I m m m m m m A G H H D A N m m n g d d s s s 8 @ 5.V.V.V.V.V.V.V.V.V.7.V.V.V.V.V.V.8.%.@.X.` T o O ",
"q.` +.$.*.V.V.V.V.V.V.V.V.V.V.8.V.V.8.V.V.V.8.B.I m m m m m m A D H H D A N N N N m n g d d s s a 8 # N.8.V.V.V.V.V.V.V.V.V.V.V.V.V.8.*.%.@.X.` T o O ",
"q.` +.$.*.V.*.V.V.V.V.V.V.V.V.V.V.V.V.V.V.V.B.I m m m m m m N G H H D S N N N N N m m n g d d s s a 5 @ N.V.V.*.V.V.V.V.V.V.V.V.V.8.8.8.%.@.X.` T o O ",
"w.` +.$.*.V.V.V.V.*.V.V.V.V.V.V.V.V.V.V.8.v.I m m m m m m A G H D S N N N m m m m M m m n g d d d s a 8 # N.V.V.V.V.V.V.V.V.V.V.8.V.V.*.%.@.X.` T o O ",
"q.` o.$.*.V.V.V.V.V.V.V.V.V.V.V.V.V.V.8.B.I m m m m m m A F F C Z m N N N m m m m n b b M c g d d s s 0 5 # c.8.V.V.V.V.*.V.V.V.V.V.V.8.%.@.X.` R o O ",
"q.` +.$.*.8.V.V.V.V.V.V.V.V.V.V.V.V.V.B.I m m m m m m V z k j v m N N N m m m m m n g l k j h f d d d s a 8 # N.V.V.V.V.V.V.V.V.V.V.8.*.%.@.X.` R o O ",
"q.` X.$.*.8.V.V.V.V.V.V.V.V.V.V.V.8.B.I n m m m M g 8 1 1 1 w c m m N N N m m m m n g 0 1 1 1 1 6 9 a d s a 8 % 5.V.V.V.V.V.V.V.8.8.8.*.%.@.X.` R o O ",
"q.` o.$.*.V.8.8.V.V.V.V.V.V.V.V.8.B.I m m m x a 7 < : : : 7 f n m N N m m m m m m n g 0 , - : : : - 1 8 0 s a 8 @ 5.V.V.V.V.V.V.V.V.V.8.%.@.X.` R o O ",
"q.` o.$.*.8.V.8.V.V.V.V.V.V.V.V.B.I m n g 9 < : ; ; ; ; 4 f g n m m N N m N m m m n g 0 , > : ; ; ; ; ; : , 9 0 8 # N.V.V.V.V.V.V.V.8.8.%.@.X.` R o O ",
"w.` o.$.*.V.V.V.V.V.V.V.V.V.V.B.I c d 4 : ; ; ; ; ; ; 4 f f g n m m N m N m N m m n g 0 , > > = ; ; ; ; ; ; = < 4 4 & N.V.V.V.V.8.V.8.8.%.@.X.` R o O ",
"q.` o.$.*.8.V.V.V.V.V.V.V.V.B.P k y 3 2 3 3 3 3 3 3 6 s f f x n m N N N m m m m m n g 0 , > > * ; 3 3 3 3 3 3 2 3 e r 0.N.V.V.V.8.8.8.*.%.@.X.` T o O ",
"q.` +.$.*.8.V.V.V.V.V.V.V.V.V.f.s.d.d.d.d.d.d.d.d.r.i d f g g n m m N m m N m m m n g 0 , > > * X e.f.f.d.d.d.d.d.d.s.d.B.V.V.V.V.V.8.8.%.@.X.` R o O ",
"q.` +.$.*.V.V.7.V.V.V.V.V.V.V.*.8.8.8.8.V.V.V.8.V.c.p d f g x n m N N N m m m m m n g 0 , > > *   3.V.V.8.V.V.V.V.V.8.V.V.V.V.V.V.V.V.8.%.@.X.` R o O ",
"q.` +.$.*.V.V.V.V.V.V.V.V.V.V.V.V.V.V.V.V.V.V.V.V.c.p d f g g n m N N m m m m m m n g 0 , > > *   3.V.V.V.V.V.V.V.V.V.V.V.V.V.V.V.V.8.*.%.@.X.` R o O ",
"q.` +.$.*.V.V.V.V.V.V.V.V.V.V.V.V.V.V.V.V.V.V.V.V.c.p d f f g n m m N N N m N m m n g 0 4 > > *   3.V.V.V.V.8.V.V.V.V.V.V.V.V.V.8.8.8.*.%.@.X.` R o O ",
"w.` o.$.*.*.V.V.V.V.V.V.8.V.V.V.8.V.V.V.V.V.V.V.V.c.u f f g x n m N N N m m m m m n g 0 , > > *   3.8.V.V.V.V.8.V.V.V.V.V.V.V.V.V.V.V.8.%.@.X.` T o O ",
"q.` o.$.*.V.V.8.V.V.V.V.C.V.V.V.V.V.V.V.V.V.V.V.V.c.u d f g g n m N N m m m N m m n g 0 4 > > *   3.V.V.V.V.V.V.V.V.V.8.V.V.V.V.V.V.8.8.%.@.X.` T o O ",
"q.` o.$.*.V.V.V.V.V.8.V.8.V.V.V.V.V.V.V.V.8.V.V.8.c.p d f f g n m N N N m N m m m n g 0 , > > *   3.V.V.V.V.V.V.V.V.V.V.V.V.8.V.8.V.8.8.%.@.X.` R o O ",
"q.` o.$.*.V.V.V.V.8.V.V.V.V.V.V.V.V.V.V.V.V.8.V.V.c.u d f g g n m m N m m m m m m n g 0 , > > *   3.V.V.V.V.8.V.V.V.V.V.V.V.V.V.8.8.8.*.%.@.X.` R o O ",
"q.` +.$.*.8.8.V.V.V.V.V.V.V.V.V.V.V.V.V.V.V.V.V.V.c.u d f g g n m N N m m m m m m n g 0 , > > *   3.V.V.V.V.V.V.V.V.V.V.V.V.8.V.8.V.V.8.%.@.X.` R o O ",
"q.` +.$.*.8.V.V.V.V.V.V.V.V.V.8.V.V.V.8.V.V.V.V.V.c.p d f f g n m N N N N m m m m n g 0 , > > *   3.V.V.V.V.V.V.V.V.V.V.V.V.V.V.V.V.V.8.%.@.X.` T o O ",
"q.` +.$.8.8.V.V.V.V.V.V.V.V.V.8.V.V.V.V.V.V.V.V.V.c.p f f g g n m m N m N m N m m n g 0 , > > *   3.V.V.V.8.V.V.V.8.V.V.V.V.V.V.V.V.8.*.%.@.X.` R o O ",
"q.` +.$.8.8.V.V.V.V.V.8.V.V.V.V.V.V.V.V.8.V.V.V.V.c.u d f g x n m N N N m m m m m n g 0 , > > *   3.V.V.V.V.V.V.V.V.8.V.V.V.V.V.8.8.8.*.%.@.X.` R o O ",
"q.` o.$.*.V.V.V.V.V.V.V.V.V.V.V.V.V.V.8.V.V.V.V.V.c.u d g g g n m N N m m m m m m n g 0 , > > * . 3.V.V.V.V.V.V.V.V.V.V.V.V.V.V.V.V.V.8.%.@.X.` R o O ",
"q.` o.$.*.8.V.V.V.V.8.V.V.V.V.V.8.V.V.V.V.V.V.V.V.c.p d f f g n m m N N m N N m m n g 0 , > > *   3.V.V.V.V.8.V.V.V.V.V.V.V.V.8.V.V.8.8.%.@.X.` R o O ",
"q.` o.$.*.V.V.*.V.V.V.8.V.V.V.8.V.V.V.V.V.V.V.V.V.c.u d f g g n m N N m m m m m m n g 0 4 > > *   3.V.V.V.V.V.V.V.V.V.V.V.V.V.V.V.8.8.*.%.@.X.` R o O ",
"q.( o.$.*.V.V.V.V.V.V.V.V.V.8.C.V.V.V.V.V.V.8.V.V.c.p d f g g n m m N N m m m m m n g 0 > > > *   3.V.V.V.V.8.C.V.V.8.V.V.V.V.V.8.8.8.8.%.@.X.` R o O ",
"w.` +.$.*.V.V.V.V.V.V.V.V.V.V.V.V.V.V.V.V.V.V.V.V.c.u f f g g n m N N m m m m m m n g 0 , > > *   3.8.8.V.V.V.8.V.V.8.V.V.C.8.V.V.V.8.8.%.@.X.` T o O ",
"q.` +.$.*.V.V.V.V.V.V.V.V.8.V.V.V.V.V.8.V.V.V.V.V.c.p d f g g n m m N m m m m m m n g 0 4 > > *   3.V.V.V.V.V.V.V.V.V.V.V.8.V.V.V.V.V.8.%.@.X.` R o O ",
"q.` +.$.*.V.V.V.V.V.V.V.V.V.8.V.V.V.V.V.V.V.8.V.V.c.p d f g x n m N m m m m m m m n g 0 , > > * . 3.V.V.V.V.V.V.V.V.V.V.V.V.V.V.V.V.8.*.%.@.X.` R o O ",
"q.` X.$.*.*.V.V.V.8.V.V.V.V.C.8.V.V.V.V.V.V.V.V.V.c.p d f f g n m M M M b M b M M c g 0 , > > *   3.V.V.V.V.8.V.V.V.V.V.V.V.V.8.8.8.8.*.%.@.X.` R o O ",
"q.` o.$.*.V.V.V.V.V.V.V.V.V.V.V.V.V.V.V.V.8.V.V.V.c.p d f g g c B z z z z z z z z B h w 4 > - *   3.8.8.V.V.8.V.V.V.V.V.V.V.V.8.V.V.V.8.%.@.X.` T o O ",
"q.` o.$.*.V.V.8.V.V.V.V.V.V.V.*.V.V.V.V.V.V.8.V.V.b.p d f f f w t t t t t t t t t t t 7 > > > *   3.V.V.V.V.V.V.V.V.V.V.V.V.V.V.V.V.8.8.%.@.X.` T o O ",
"q.` o.$.*.V.V.V.V.V.V.V.V.V.V.V.V.V.V.V.V.V.V.V.8.c.p d f f 7 < < : : < < : < : : : < < < > > *   3.V.V.V.V.V.V.V.V.8.V.V.V.V.V.8.8.8.8.%.@.X.` R o O ",
"q.` o.$.*.V.V.*.V.V.V.V.V.V.V.V.V.8.V.V.V.V.V.V.V.v.p f d 7 : ; : : ; : : : : ; : : ; - : - > *   3.V.V.V.V.V.8.V.V.V.V.V.V.V.V.8.8.8.8.%.@.X.` R o O ",
"q.` o.$.*.V.V.V.V.V.V.V.V.V.V.V.V.V.V.V.V.V.V.V.V.c.u s 4 ; ; ; ; ; ; ; ; ; ; ; ; ; ; ; ; ; ; *   3.V.V.V.V.V.V.8.V.V.V.V.V.V.V.V.V.V.8.%.@.X.` R o O ",
"q.` o.$.*.8.V.V.V.V.*.V.V.V.V.V.V.8.V.V.V.V.V.V.V.c.u 5 - : : : : : : : : : : : : : : : : : : = . 3.V.V.8.V.V.V.V.V.V.V.8.V.V.V.V.V.8.8.%.@.X.` T o O ",
"q.] o.$.*.V.V.V.V.V.V.V.V.V.V.V.V.V.V.V.8.V.V.V.V.c.].L K K K L K K J K L K K L K K K K L L K L 0.5.8.V.V.V.V.V.V.V.V.V.V.8.V.V.8.V.8.*.%.@.X.` R o O ",
"q.` o.$.*.V.V.V.V.V.V.V.V.V.V.V.V.V.V.V.V.V.V.V.V.V.B.C.B.C.B.C.C.B.C.Z.C.B.C.C.B.C.C.C.C.B.C.B.C.8.V.V.V.V.V.V.V.V.V.V.V.V.V.V.8.8.8.*.%.@.X.` R o O ",
"w.` o.$.*.V.V.V.V.V.V.V.V.V.V.V.V.V.V.V.V.V.V.8.V.V.V.V.V.*.V.V.V.V.V.V.V.V.V.8.V.8.V.V.V.8.8.V.V.V.8.V.8.V.V.V.V.V.V.V.V.8.C.8.V.V.8.8.%.@.X.` T o O ",
"q.` o.$.*.V.*.V.V.V.V.V.V.V.V.V.V.V.V.V.8.V.V.V.V.V.V.V.V.V.V.V.V.V.V.V.V.V.V.V.V.V.V.V.V.V.V.V.V.V.V.V.V.V.V.V.V.V.V.V.V.V.V.V.V.8.V.8.%.@.X.` R o O ",
"q.` o.$.*.V.V.V.V.V.V.V.V.V.8.V.8.V.V.V.V.V.V.V.V.V.V.V.V.V.V.V.V.V.V.V.V.V.V.V.V.V.V.V.V.V.V.V.V.V.V.V.V.V.V.V.V.V.V.V.V.V.V.V.8.8.8.8.%.@.X.` R o O ",
"w.` X.$.*.V.V.V.V.V.V.V.V.V.V.v.u.c.V.V.V.V.V.V.V.V.V.V.V.V.V.V.V.V.V.V.V.V.V.V.V.8.V.V.V.V.V.V.V.V.V.V.V.V.V.V.V.8.V.V.V.V.V.8.8.8.8.8.%.@.X.` R o O ",
"q.` o.$.*.V.V.V.V.8.V.V.V.V.C.&XfX@Xv.V.V.V.V.V.V.V.V.V.V.V.V.V.V.V.V.V.V.V.V.V.V.V.V.8.V.V.V.V.V.8.8.V.V.V.V.V.V.V.8.8.V.V.V.V.8.8.C.8.%.@.X.` R o O ",
"q.` o.$.*.8.V.V.V.V.V.V.V.8.D.jXlXhXu.V.V.V.V.v.7.V.8.v.v.V.V.V.v.b.b.v.8.V.V.V.v.N.v.b.5.V.8.V.8.C.n.b.6.8.V.V.9.N.n.b.9.8.V.V.8.8.8.8.%.@.X.` R o O ",
"q.` o.$.*.V.V.V.V.V.V.V.V.8.3XhX%XcXg.9.V.8.S.>Xa.7.A.;X X7.V.P.<XpXpX}.y.V.7.S.-X|.<XiX[.5.8.V.B.XXiXiX@Xv.V.V.n.#X>X,X.X6.8.V.8.8.8.8.%.@.X.` T o O ",
"q.` o.$.*.8.V.V.V.V.V.V.8.B.2X<Xn.sX-X4.V.V.C.BX=X3.P.kXl.*.V.R.~.K.~.xXz.7.8.D.lXpX4XaXkXj.7.8.I.jX9XI.5XN.8.V.*XpXL.T.kXz.9.V.8.8.8.%.%.@.X.` R o O ",
"q.` o.$.*.8.V.V.8.8.V.8.8.I.jX+X4.yXfXh.8.8.8.tXfX2.%XhXn.V.V.7.2.x. XxXoX9.8.M.bXoX7.I.cXz.8.8.8XjXm.8.8.8.8.D.nX:X|.OXcX%X9.8.8.8.8.8.7.@.X.` R o O ",
"q.` o.$.*.V.V.V.9.8.V.V.8.3XzXhXdXkXvX.X9.8.8.E.xX|.<X&X7.V.V.U.,XyX9XMXoX9.8.m.xXoX*.P.lXz.8.8.yXfX1.8.8.8.8.D.bX1X8X0XtXI.8.8.8.8.8.8.%.@.X.` R o O ",
"q.] o.$.*.V.V.V.8.8.8.8.C.2X1XT.W.Q.NX:X4.8.8.9.sXuXjXU.7.V.7.yXiX<.k.cX%X7.8.A.bXx.8.P.jXz.8.8.eXxXp.1.k.n.V.C.BX-X>.4.1.6.8.8.8.V.V.8.%.@.X.` R o O ",
"q.` o.$.*.*.V.V.8.8.8.8.I.mX3X7.*.*.yXcXl.8.8.9.qXVXlXM.*.V.V.).MX>X1XMX7X9.8.6.mX$X7.K.bXx.8.8.D.sXzXgX1Xn.8.V.wXmXiX>XgXI.8.8.9.8.8.8.%.@.X.` R o O ",
"q.` o.$.*.V.7.8.9.8.9.8.9.rX6XD.S.D.4XqXM.7.8.9.Q.yXqXR.V.8.9.E.8X4XL.qXQ.9.9.6.qXY.7.M.rXI.9.7.D.6X6XT.I.A.7.8.Y.6XwX4XY.6.9.8.8.8.9.8.%.@.X.` T o O ",
"q.` o.$.*.7.5.5.5.5.5.5.5.K.wXQ.Q.Q.wXI.5.7.6.6.Q.I.Q.I.6.5.5.K.Q.I.4.wXI.6.6.6.Q.P.5.m.Q.K.5.5.P.wX6.5.6.5.6.6.wX4X4.4.4.6.5.5.5.5.5.7.5.@.X.` T o O ",
"q.` o.$.#.O.;.;.;.;.;.;.;.:.k.t.>.<.k.>.;.;.;.,.L.:.<.k.:.;.;.;.>.2.2.k.2.;.;.:.k.2.;.:.h.<.;.;.<.k.:.;.;.;.;.;.2.k.2.<.k.2.;.;.;.;.;.;.;.;...` T o O ",
"q.` o...( ( ( ( ( ( ( ( ( ( | | ) }  ._ ( ( ( }  ._ [  .[ ( ( ) _ _ {  .} ( ( [  . .[ }  .{ ( ( {  .{ _ [ ) ( _ }  .{ {  .| ( ( ( ( ( ( ( ( ( ! T o O ",
"q.` ( Q Q Q Q Q Q Q Q Q Q Q Q ^ Q / / Q Q Q Q / ~ Q Q / ~ Q Q Q / / / / ~ Q Q Q / / / / / Q Q Q ~ / / / / Q Q Q ~ / ~ ~ / Q Q Q Q Q Q Q Q Q Q Q R o O ",
"i.=.=.=.-.-.-.-.=.=.=.=.=.=.=.-.=.=.=.=.=.=.=.=.=.=.=.=.=.=.=.=.-.-.-.-.=.=.=.=.-.-.-.=.=.=.=.=.=.=.-.-.-.-.=.=.=.=.-.-.-.-.-.=.=.=.=.=.=.=.=.=.=.W O ",
"7XQ.wXwXwXwXwXwXwXwXwXwXwXwXwXwXwXwXwXwXwXwXwXwXwXwXwXwXwXwXwXwXwXwXwXwXwXwXwXwXwXwXwXwXwXwXwXwXwXwXwXwXwXwXwXwXwXwXwXwXwXwXwXwXwXwXwXwXwXwXwXwXwX4X=X"
};
