/* XPM */
static char *broadcast[] = {
/* columns rows colors chars-per-pixel */
"75 75 251 2",
"   c #010101",
".  c #080404",
"X  c #0B0B0B",
"o  c #0E0D0D",
"O  c #170603",
"+  c #0C111B",
"@  c #161616",
"#  c #2A0200",
"$  c #301302",
"%  c #141D30",
"&  c #18243B",
"*  c #29292A",
"=  c #312E30",
"-  c #393939",
";  c #570000",
":  c #710000",
">  c #5E3315",
",  c #5E5528",
"<  c #192743",
"1  c #12234B",
"2  c #1C2D52",
"3  c #343944",
"4  c #263658",
"5  c #163161",
"6  c #1B3875",
"7  c #1D397C",
"8  c #233B6C",
"9  c #3B465D",
"0  c #304876",
"q  c #484847",
"w  c #505151",
"e  c #545454",
"r  c #565758",
"t  c #5C5C5C",
"y  c #6F6755",
"u  c #4F5A6C",
"i  c #5C6476",
"p  c #636465",
"a  c #6A6A6A",
"s  c #72716F",
"d  c #6A6E77",
"f  c #737373",
"g  c #7B7B7B",
"h  c #8D0600",
"j  c #A20005",
"k  c #AD0004",
"l  c #B70103",
"z  c #BE3233",
"x  c #C70000",
"c  c #D60201",
"v  c #E90001",
"b  c #FC0000",
"n  c #DC3F06",
"m  c #9A5106",
"M  c #A24B02",
"N  c #9E760D",
"B  c #DC6915",
"V  c #F66F06",
"C  c #FC7906",
"Z  c #F1772C",
"A  c #88755B",
"S  c #B37B76",
"D  c #C85A4E",
"F  c #A7931C",
"G  c #DA8200",
"H  c #EA8A0E",
"J  c #FD8A05",
"K  c #FA9A08",
"L  c #EA9817",
"P  c #FB9B16",
"I  c #FCA301",
"U  c #FEAB01",
"Y  c #F9A70A",
"T  c #FFB200",
"R  c #FEBB01",
"E  c #FBB80C",
"W  c #EDA811",
"Q  c #F1BA14",
"!  c #D39333",
"~  c #F39327",
"^  c #D8A832",
"/  c #D5B330",
"(  c #EFAF25",
")  c #C8C713",
"_  c #FFC403",
"`  c #FEC906",
"'  c #FBC30C",
"]  c #FCCD09",
"[  c #FED107",
"{  c #FCD40C",
"}  c #FBDA0F",
"|  c #F8C914",
" . c #E8D11E",
".. c #FBD215",
"X. c #FADC11",
"o. c #E4E615",
"O. c #FAE312",
"+. c #F7EA17",
"@. c #F9EB15",
"#. c #F8F217",
"$. c #F8F417",
"%. c #F7F618",
"&. c #F7F819",
"*. c #F5D028",
"=. c #F7E724",
"-. c #8A855D",
";. c #B78D5A",
":. c #9D8B7E",
">. c #A98E6D",
",. c #C38C49",
"<. c #C89646",
"1. c #EC9250",
"2. c #F8B552",
"3. c #EAA86B",
"4. c #FCDE5A",
"5. c #FED367",
"6. c #233F82",
"7. c #2C4A86",
"8. c #314E88",
"9. c #345190",
"0. c #375695",
"q. c #31519D",
"w. c #264EA7",
"e. c #284DA2",
"r. c #3458A4",
"t. c #3457AE",
"y. c #2C55B3",
"u. c #325BB5",
"i. c #3B63BA",
"p. c #485D90",
"a. c #506591",
"s. c #6F7890",
"d. c #4D6EB2",
"f. c #677AA6",
"g. c #2D5CC4",
"h. c #305DC2",
"j. c #3A68C9",
"k. c #3264D5",
"l. c #396BD7",
"z. c #3E70D7",
"x. c #3368E0",
"c. c #366CE6",
"v. c #3D74E6",
"b. c #3870EC",
"n. c #3971F1",
"m. c #3E78F7",
"M. c #3D79FC",
"N. c #476EC5",
"B. c #4B74CC",
"V. c #547BCE",
"C. c #406CD5",
"Z. c #4775D8",
"A. c #4579E5",
"S. c #467AEE",
"D. c #4A7FED",
"F. c #547DE4",
"G. c #447DF5",
"H. c #487EF2",
"J. c #437EFD",
"K. c #79818B",
"L. c #7D87A9",
"P. c #6781BB",
"I. c #7687B7",
"U. c #3F80FF",
"Y. c #5A83DB",
"T. c #6885CA",
"R. c #668AD7",
"E. c #7391D1",
"W. c #7897DB",
"Q. c #74B4DD",
"!. c #4C80ED",
"~. c #5685E9",
"^. c #5A94EA",
"/. c #4B82F4",
"(. c #4D88F4",
"). c #4380FF",
"_. c #4A84FD",
"`. c #4F8DFF",
"'. c #568AF4",
"]. c #548AFC",
"[. c #5A8EFB",
"{. c #599BFF",
"}. c #648EE4",
"|. c #6A93EA",
" X c #769AE6",
".X c #7299EF",
"XX c #608FF0",
"oX c #6897F9",
"OX c #749CF1",
"+X c #71A8E8",
"@X c #62A2FF",
"#X c #69A9FB",
"$X c #7BA2F2",
"%X c #73B4FF",
"&X c #7CC2DF",
"*X c #838382",
"=X c #86878B",
"-X c #8C8C8C",
";X c #958D8A",
":X c #8B8898",
">X c #949494",
",X c #9A9A9A",
"<X c #A28583",
"1X c #8F97AD",
"2X c #95A2B0",
"3X c #A5A5A5",
"4X c #A4A6AB",
"5X c #ABABAB",
"6X c #B1B1AF",
"7X c #ABADB3",
"8X c #B5B5B6",
"9X c #BDBDBD",
"0X c #D5AC98",
"qX c #E7B18C",
"wX c #CCBDB3",
"eX c #FDCC8F",
"rX c #CEC7B8",
"tX c #F3CAAE",
"yX c #879DC9",
"uX c #859ED3",
"iX c #98A9CB",
"pX c #8DA4D5",
"aX c #98ABD2",
"sX c #A1AEC8",
"dX c #A8B4CC",
"fX c #B5BCCB",
"gX c #AAB8D6",
"hX c #B3BDD3",
"jX c #B2BFDA",
"kX c #88A8EA",
"lX c #98B0E4",
"zX c #83A5F2",
"xX c #8DACF1",
"cX c #BBC2CF",
"vX c #BAC4D7",
"bX c #B6C5E4",
"nX c #C3C3C2",
"mX c #CACAC9",
"MX c #C5CBD7",
"NX c #D4D1D1",
"BX c #D5D5D6",
"VX c #E6D5C8",
"CX c #F4DBCD",
"ZX c #F7E5CE",
"AX c #D0D6E5",
"SX c #E3E4E4",
"DX c #EDECED",
"FX c #EFEFF1",
"GX c #F3F3F3",
"HX c #FFFAF5",
"JX c #FEFEFE",
/* pixels */
"lX X.X.X.X.X.X.X.X.X+X.X.X.X.X.X.X.X.X.X.X.X|.+XoX.X.X.X+X.X.X.X.X.X.X.X.X.X.X.X.X.X.X.X.X.X|..X.X.X.X.X+X.X.X.X.X.X.X.X.X.X.X.X.X.X.X.X.X.X+X.X.X.XR.",
"P.k.m.M.M.U.M.M.M.M.U.U.M.M.M.M.M.U.M.M.M.M.U.U.M.M.M.M.U.U.M.M.M.M.U.U.M.M.M.M.U.U.M.M.M.M.U.U.U.M.M.M.U.U.M.M.M.M.U.U.M.M.M.M.M.U.M.M.U.M.U.U.M.x.6 ",
"P.y.c.).)._.).).U.U.U.U.U._.U.U.)._._.).U.U.`.U._._.).).U.U.`.U.U.U._.U.`.U.U.U._.U._.).U.U.`.U.`.U.U.U.U.U.`.U.U.U._.U.U.`.U.U.)._._.).U.U._.U.v.e.1 ",
"P.y.k./.{.{.{.{.{.{.@X{.{.{.{.{.{.{.{.{.{.{.{.{.{.{.{.{.{.{.{.{.{.{.{.{.{.{.{.{.{.{.{.{.{.{.{.{.{.{.{.{.{.{.{.{.{.{.{.{.{.{.{.{.{.{.{.{.{.{.{.(.u.7 1 ",
"P.y.k.b.`.#X%X%X%X%X%X%X%X%X%X%X%X%X%X%X%X%X%X%X%X%X%X%X%X%X%X%X%X%X%X%X%X%X%X%X%X%X%X%X%X%X%X%X%X%X%X%X%X%X%X%X%X%X%X%X%X%X%X%X%X%X%X%X%X%X@Xj.w.7 1 ",
"P.y.k.b.J.{.%X%X%X%X%X%X%X%X%X%X%X%X%X%X%X%X%X%X%X%X%X%X%X%X%X%X%X%X%X%X%X%X%X%X%X%X%X%X%X%X%X%X%X%X%X%X%X%X%X%X%X%X%X%X%X%X%X%X%X%X%X%X%X#XA.g.w.7 1 ",
"P.y.k.b.M.).`.@X@X@X@X@X@X@X@X@X@X@X@X@X@X@X@X@X@X@X@X@X@X@X@X@X@X@X@X@X@X@X@X@X@X@X@X@X@X@X@X@X@X@X@X@X@X@X@X@X@X@X@X@X@X@X@X@X@X@X@X@X{.G.x.g.w.7 1 ",
"P.y.k.b.m.).).`.`.`.`.`.`.`.`.`.`.`.`.`.`.`.`.`.`.`.`.`.`.`.`.`.`.`.`.`.`.`.`.`.].`.`.`.`.`.`.`.`.`.`.`.`.`.`.`.`.`.`.`.`.`.`.`.`.`.`.`.G.b.x.g.w.7 1 ",
"P.y.k.b.M.U.).).U._.).).).).).).).).).).).).).).).).).).).).).).U.U._.U.).).).).).).).).).).).).).).).).).).).).U.U.).).).).)._.).).).).M.n.x.g.w.7 1 ",
"P.y.k.b.M.).U.U.U.U.).).).).).).).).).).).).).).).).).).).).).).U._.U.U.).).).).).).).).).).).).).).).J.).).).J.U._.).).).).).U.).J.).J.M.n.x.g.w.7 1 ",
"P.y.k.b.M.).).).).).).).).).).).).).).).).).).).).).).).).).U.).).).).).).).U.).).).).).J.).).).).).).).).).).).U.).).).).).).).).).).J.M.n.x.g.w.7 1 ",
"P.y.k.b.M.J.).U.).).).).).).).).).).).).).).).).).).).).).).).).).).).).).).).).).).).).).).).J.).).).).).).).).).).).).).).).).).).J.J.M.n.x.g.w.7 1 ",
"P.y.k.b.M.).).).).).).).).).).).).).U.U.H././././.(././.A./.U.).).).).).).).).).).).).).).).).).).).J.).).).U.J.).).).).).).).).J.).).J.M.n.x.g.w.7 1 ",
"P.y.k.b.M.M.).).).).).).).).).).U.~.I.>X<.^ ^ / ^ ^ ^ D Z S !.U.).).).).).).).).).).).).).).).).).).).).).).).).).).).).).).U.).).).).J.M.n.x.g.w.7 1 ",
"P.y.k.b.M.).U.).U.).).).).U.U.~.:X<.E _ ` [ ` [ [ _ K J T Y ,.V._.U.).).).).).).).).).).).).).J.).).).).).).).).).).).).).).).).J.J.J.J.M.n.x.g.w.7 1 ",
"P.y.k.b.M.J.).J.).).).).).M.I.^ T _ ] [ { } X.X.X.K J U P ~ P ( >.Y.U.).).).).).).).).).J.).).).J.).).J.).).).).).).).).).).).).J.J.J.J.M.n.x.g.w.7 1 ",
"P.y.k.b.M.M.).).).).).J./.;XW U K K K J | O.O.@.@.X.] P 0Xs.;X( ` / L.U.U.).).).).).).).).).).).).).).J.U.).).).).).).).).).).).).).).J.M.n.x.g.w.7 1 ",
"P.y.k.b.M.J.).).).).J./.>.U J V C J J I ..#.#.%.%.&.] 3.I.0 0 <.} [ Q :X).).).).).J.).).).J.).).).).).).U.U.).).).).).).).).).).).).).J.M.n.x.g.w.7 1 ",
"P.y.k.b.M.).).U.J.J.J.;XW R J E ' _ _ _ X.#.%.&.%.&.E eXE.- N  .$.#.O.Q :X/.).).).).).J.).J.).).).).J._.(._.).)._.).).).Z.u.r.j.).).J.J.M.n.x.g.w.7 1 ",
"P.y.k.b.M.U.).).J.M.L.W _ _ Y ] [ R K ~ H W +.&.%.%.| tXVX/ =.%.%.$.#.O.| :X).).).J.).).).).).).).U.(.+X+X(.).).(.).).i.= - q & j.).).J.M.n.x.g.w.7 1 ",
"P.y.k.b.M.).).U.).~.! R ` { ] [ _ P qX2Xp.i ! @.&.%...tX5.+.+.K E $.&.%.O.Q L.).).J.).).).).).).).).(.(._.U.).).).).A.4 w a d e 0 G.J.J.M.n.x.g.w.7 1 ",
"P.y.k.b.M.).).).M.-XY _ ] { } [ Y eXAXd.u 5 A X.&.&.=.5.=.+.*.0X1.' &.&.%.} ^ Z.).).).).).).U.).).).).).).).).)._.z.4 - a a a s 3 l.J.J.M.n.x.g.w.7 1 ",
"P.y.k.b.M.).U.).!.<.R ` { { O.` 2.HXAX8.@ 9 -.+.&.&.=.*.&...3.FXCX~ @.%.%.#.' :.J.).J.).U.).^.+X^.).).).).).)./.0.i - p a a a s t p.J.J.M.n.x.g.w.7 1 ",
"P.y.k.b.M.M.).U.T.K _ ] { } O.E tXHXZX>.F /  .@.&.&.&.+.| 3.VXmXf m E &.&.&.O.( Y.U.).).U.^.Q.&X+XU.).).).v.j.a.K.:.w p a a a a a 0 H.J.M.n.x.g.w.7 1 ",
"P.y.k.b.M.).).U.:XU _ ] { X.} 2.ZXeX=.O.#.@.O.+.=.*.( 2.0XBX*X@   $ B $.&.&.#._ ;X).).).).^.(.(.(._.U.v.r.K.>X9X3Xe e a a a a a a i F.J.M.b.x.g.w.7 1 ",
"P.y.k.b.m.).).).;.T _ { } X.X.2.4.@.@.@.] J Z 3.rXVXNXFX9X- .   . . M ] &.&.&.[ <.~.).).).S.m.A.z.r.f.K.7XnXmXnX-Xt t a a a a a s p d.J.M.b.x.g.w.7 1 ",
"P.y.k.b.M.M.).).! T ` { } X.X.*.#.&.@.O.J Z wXBXFXHXGX5X= @         > W &.&.&.O.T f.z.B.d.p.0 s.,X4XrXmXmXcX9X9XK.r a a a a a a f e 0.J.M.n.x.g.w.7 1 ",
"P.y.k.b.M.).)./.! T ` ] { X.O.#.#.&.@...C qXSXSXFXJX8X* o @ .       O V @.o.) F , f =X3X8XrXnXmXmXnX9X9X9X9X9X3X=X= e a a a p a s w 8.J.M.n.x.g.w.7 1 ",
"P.y.k.b.M.).)./.! T ` [ { X.O.@.#.&.+.X.J tXJXJXGXBXq X   X .       . m F , y y K.nXmXnXrX9XcX9X9X9X9X9X9X9X9X,Xg X * a a a a p s e 8.J.M.n.x.g.w.7 1 ",
"P.y.k.b.M.U.M./.,.T ` ] { X.O.@.#.$.%.O.Y 0XJXJXGXr o o       .       $ e 3X5X-X9X9X9X9X9X9X9X9X9X9X9X9X9X9X9X3Xs . @ p a a a a s r 8.J.M.n.x.g.w.7 1 ",
"P.y.k.b.M.).).).:.U _ ] { X.O.O.+.#.&.#.E 3.GXJX3XX   O .   # h ; .   * 3XnX>X,X9X9X9X9X9X9X9X9X9X9X9X9X9X9X9X3Xt X X w a a a a s e 8.J.M.n.x.g.w.7 1 ",
"P.y.k.b.M.).U.U.L.K _ ` { { X.O.O.#.#.&.@.~ VXSX- O : x l j k v v ;   q 6X,X*X3X9X9X9X9X9X9X9X9X9X9X9X9X9X8X5X-Xe X . q p a a a f w 7.J.M.n.x.g.w.7 1 ",
"P.y.k.b.M.U.).U.T.L R ] ] { X.X.@.@.+.%.#.| 1.s.. : b b b b b v b j   q ,X>Xg ,X3X5X8X9X9X9X9X9X9X9X6X5X3X,X,XK.e X X q a a p a f t 0.).J.n.x.g.w.7 1 ",
"P.y.k.b.M.J.U.).G.;.T _ ] { { X.O.@.@.#.#.#.W m O c v c v v c v x ;   * =X,Xg ;X,X,X,X3X3X5X5X5X3X3X3X,X>X,X,X-Xw X @ r a a a a s g d._.M.n.x.g.w.7 1 ",
"P.y.k.b.M.).).U.J.:XK R ] ] { X.X.O.O.@.#.#.O.G h v l k k k # # O     . - s K.*X,X,X,X,X,X,X,X,X,X,X>X>X,X,X,X-Xe X @ a p a a a f a.Y.J.M.n.k.g.w.7 1 ",
"P.y.k.b.M.J.).).J.D.! T _ ] { { X.X.O.@.@.+.@...V c k k k j # .   . - =XB N , e =X>X,X,X>X,X,X,X,X,X,X,X,X,X,X-Xp   - a a a a a s 0 !.J.M.n.c.g.w.7 1 ",
"P.y.k.b.M.).).U.).J.L.K R ` ` [ { X.X.O.@.@.@.@.Q n k k k k : + 3 :XBXwX~ ` W N u d >X,X,X>XK.a g -X,X,X,X,X,X-Xa X e a a a a a a p._.J.M.n.x.g.w.7 1 ",
"P.y.k.b.M.).).).).).J.>.I R ` ] { { } X.X.O.O.@.@.Y n z D D S 7XSXCX3.V Y ] R ! !.j.a *X:.,Xf * t K.p g >X,X,X>Xa - p a a a a s r B.).).M.n.x.g.w.7 1 ",
"P.y.k.b.M.).U.).J.).J.Y.! I _ ] ] [ { { X.X.X.O.@.X.U ! tXSXDXVXqXZ V J R R L I.U.v.a.8XBXDXSX9X>XI.Y.r.u d =X,Xs w a a a a a f w m.J.J.M.n.x.g.w.7 1 ",
"P.y.k.b.M.M.).).).).J.J.T.! I R _ ] ] { { { X.X.X.O...Y ~ 1.1.Z V V J T R I <X).).z.1XGXJXGXDXDXMXK.U.U.U.j.a.i a q t a a a a a p.).J.J.M.n.x.g.w.7 1 ",
"P.y.k.b.M.M.).).J.).).).M.T.! I R ` _ ] ] [ { { } } } } E K J J J I U T I ;.D.).).V.BXJXJXJXFXDXNXI.G.).).).J.v.p.= q a a a f u C.).).J.M.n.x.g.w.7 1 ",
"P.y.k.b.M.J.).).).).).).).).Y.;.K T _ _ ` ] ] ] ] { ] { { [ ] ] _ R U K :.~.M.).A.2XJXJXJXJXGXFXBXf.G.).).).).U.(.j.3 t a g t 0 ).).).).M.n.x.g.w.7 1 ",
"P.y.k.b.M.).).).).).).).).).)./.:X! I T _ _ ] ' ` ` ] ` ] _ ` _ R U L :X).).).).B.NXJXJXJXJXJXDXGX7XA.).).).).).U._.d.* q q 4 U.).).).J.M.n.k.g.w.7 1 ",
"P.y.k.b.M.U.).U.).).).).).).).).).Y.:.! K U R R _ R _ _ _ R T I L >.Y.M.).).).m.E.GXJXJXJXJXFXBXcXK.A.).).).).).U.).!.0 2 < d.(.J.).).J.M.n.x.g.w.7 1 ",
"P.y.k.b.M.).).U.).).).).J.).).)._.U.U.Y.y m G H H W K L L L ;.:XR.M.).).).J.U.v.1XHXJXJXJXJXJXGXHXMXB.).J.).).J.).J.).).U.U._.U.).J.).J.M.n.x.g.w.7 1 ",
"P.y.k.b.M.).).).).).).).).).).).U.U./.).Z.4 o O = s.I.T.F.~.!.U.J.J.).).).).U.z.4XJXJXJXJXJXSX:.7XDXV.U.).).).).).).).)./.U.).U.).).).J.M.n.x.g.w.7 1 ",
"P.y.k.b.M.).U.).).).).).).).).).U.).).).).v.0     < i.).J.).).).J.).).).).).A.1X5XJXJXJXJXHX*X+ 9 L.A.).).).).).).).).).).).).).).).J.J.M.n.x.g.w.7 1 ",
"P.y.k.b.M.M.).).M.).).J.).).).).).).).).).U./.7.X   + 7.A.).).).J.).).).).S.8.,X9XBXJXJXJXcX0.r.z./.).).).J.).).J.).).).).).).).J.J.J.J.M.n.x.g.w.7 1 ",
"P.y.k.b.M.).).).).).).).).).).).J.).).).J.).).J.r.%     & 9.l.A.G.G.z.j.9.< X - 9X6XmXBX4XV.J.).U.).U.).).).J.).).J.).).).).).).).).).M.M.n.x.g.w.7 1 ",
"P.y.k.b.M.).).U.).).).J.J.).J.).).).).).).).).).).j.2       + & 2 < % X         - 3X9X5Xd.m.).).).).).).).).).).).).).J.J.).J.).J.).).J.M.n.x.g.w.7 1 ",
"P.y.k.b.M.).).U.).).).).).).).).).).).).).).).J.).).S.7.+ .                       & p.d.!._.).).).).).).J.).).J.).).).).).).).).).).).J.M.n.x.g.w.7 1 ",
"P.y.k.b.M.M.).).).J.).).).J.).).J.).).).J.).).).).).).).j.5 +               + & 9.Z.).).).).).J.).).).).).).).).).J.).).).J.).).).J.).J.M.n.x.g.w.7 1 ",
"P.y.k.b.M.).U.).).).).).).).).).J.).).J.J.).).).).).).).).J.j.0 4 % % < 8 7.j.G.).).).).J.).).).J.).).).J.).).).).).).).).).).).J.J.J.J.J.n.x.g.w.7 1 ",
"P.y.k.b.M.U.).).).).).).).J.J.).).).).).).).).).).).).J.).).).).G.v.A.S.).).).).).).).).).).).).).).).).).).).).).J.).).).J.J.).J.J.).J.M.n.x.g.w.7 1 ",
"P.y.k.b.M.J.).).).).).).).).).).).).).).).).).).).).).).).J.).).).).).).).).J.).).).).).).).).).).).).J.).).).J.).J.J.).).J.).).J.J.J.J.M.n.x.g.w.7 1 ",
"P.y.k.b.M.).).U.).J.).).).).M.J.J.).).).J.).).).).).).).).).).).).).).).).).).).).J.).(.!.J.).).J.).).).).J.).).).).).).).).).).J.J.J.J.M.n.x.g.w.7 1 ",
"P.y.k.b.M.).).U.).).J./.uXyXpXR.G.).).).).).).).).).).).).J.).J.).).J.J.J.J.).).).).).pXyXm.).J.J.J.J.J.).).).).).).).).).).).).J.J.).H.F.b.x.g.w.7 1 ",
"P.y.k.b.M.U.).).).).J.^.MXaXlXMXR.).).).G.G.S.G.).).)./.D.J.).).).J.D.H.G.J.J.).U./.S.lXiX).).).J.D.H.J.).J.J.!.!.G.).).).J.!.!.J.J.J. XsXZ.k.g.w.7 1 ",
"P.y.k.b.M.).).).J.).M.'.MXT.R.MXW.M.)._.iXiXyXD.J./.W.dXsXyX/.).J.|.sXdXyX/.).J.}.iXsXvXiX).U./.W.dXsX}.J.).kXiXiXyX/.).).uXsXiX~.J.D.gXNXsXB.g.w.7 1 ",
"P.y.k.b.M.U.).).).).).'.MXdXhXfX~.J.J.(.vXgX|./.J.|.MX X XcXR.).).^.}.uXMXR.J._.gXgX$XbXaX/.U.XXvXuX|.^.G.)..X}.uXMXY.M.'.MXyX~.H.J.H.xXMXW.l.g.w.7 1 ",
"P.y.k.b.M.).).M.J.J.J.^.MXW. XvXyX/.U.(.cXW.m.).J.kXcXv.'.vXW.J.J.}.yXpXMXW.M.`.vXW.m.aXaX/.J.$XvXF.M.U.).).R.iXaXMXY.).].lXhXuXD.J.J.OXjXZ.k.g.w.7 1 ",
"P.y.k.b.M.J.).).J.J.J.'.MXE.F.jXgXG.)._.hXW.).).m.kXcXY.~.MXW.).G.vXaXW.vXW.J._.bXyX~.gXaX_.M.$XvXR.D./.).'.jXuXW.BXY.)./.!. XMXE.J.J.OXvXF.k.g.w.7 1 ",
"P.y.k.b.M.J.).).J.).J.'.AXfXhXvX Xm.)._.jXW.).).).'.bXgXhXgX(.).).bXcXaXMX XJ.J.xXMXfXvXjX).U.(.vXcXdX}.U.(.bXgXdXAX}.).].aXaXvX XJ.J.oXAXsXC.g.w.7 1 ",
"P.y.k.b.M.J.).).).J.J.(.kX XXX$X.X).)._.zX|.).).).'.$X X XzX[.J.).$XkX XkXXXJ.).$XkX|. XzX).).].zX$X|.'.).(.kXkX XkX'.)._.|. XxXoXJ.J.H.xXW.k.g.w.7 1 ",
"P.y.k.b.M.M.).)._.J.J.].oX[._.oXoXJ.J._.oX[.J.J.J.oXoXJ.J.oXoXJ.J.[.oX[.OX[.J._.oX[.J.[.oXJ.J.[.oX].J.).).).[.oX[.OX].J.J.[.oXoX_.J.J.].oXS.x.g.w.7 1 ",
"P.y.k.b.M.J.).).J.J.J.].[.[.[.[.].J.J.).[.[.J.J.J._.[.]._.[.].J.J.].J.].[._.).J.[.[.).[.oXJ.J._.[._.).).J.).J._.].oXJ.J.J.[.[._.J.J.J._.].S.x.g.w.7 1 ",
"P.y.k.b.M.).).).J.J.J.J._._._.].).).).).].].H.J.J._._._._._.J.J.J.H.H.H._.J.J._.)._._.].].J.J.J._.].)._.).)._.).J.H.H.J.J.]._._.).)._._.J.G.x.g.w.7 1 ",
"P.y.k.b.M.U.U.).J.J.J.J.J.J.J.J.).J.).J.J.J.J.J.J.J.J.J.).J.J.J.J.H.J.J.J.J.J.J.J.J.J.J.J.J.J.J.J.J.J.J.J.).J.J.H.J.H.J.J.J.J.J.).J.J.J.J.n.x.g.w.7 1 ",
"f.y.k.b.M.J.J.G.H.J.J.J.H.J.J.J.H.J.J.H.J.J.J.J.J.G.J.H.J.J.J.J.J.H.J.H.J.J.H.J.J.H.J.J.H.J.J.H.J.H.J.J.H.J.J.H.J.H.J.H.J.J.H.H.J.J.G.J.G.n.x.g.w.7 1 ",
"T.y.k.b.M.G.S.H.S.S.S.S.S.S.S.H.S.H.S.S.S.D.S.S.S.S.S.S.D.S.S.S.S.S.S.S.S.S.S.D.S.H.S.S.S.S.S.S.S.S.S.S.H.H.S.S.S.S.S.S.S.S.H.S.S.S.S.S.S.S.x.g.w.7 1 ",
"P.y.k.b.v.C.C.C.C.C.C.C.C.C.C.C.C.C.C.C.C.C.C.C.C.C.C.C.C.C.C.C.C.C.C.C.C.C.C.C.C.C.C.C.C.C.C.C.C.C.C.C.C.C.C.C.C.C.C.C.C.C.C.C.C.C.C.C.C.C.C.h.w.6.1 ",
"P.y.k.h.t.t.t.t.t.t.t.t.t.t.t.t.t.t.t.t.t.t.t.t.t.t.t.t.t.t.t.t.t.t.t.t.t.t.t.t.t.t.t.t.t.t.t.t.t.t.t.t.t.t.t.t.t.t.t.t.t.t.t.t.t.t.t.t.t.t.t.t.w.6.1 ",
"P.y.u.r.q.q.q.q.q.q.q.q.q.q.q.q.q.q.q.q.q.q.q.q.q.q.q.q.q.q.q.q.q.q.q.q.q.q.q.q.q.q.q.q.q.q.q.q.q.q.q.q.q.q.q.q.q.q.q.q.q.q.q.q.q.q.q.q.q.q.q.q.q.6.1 ",
"T.i.N.N.N.N.N.N.N.N.N.N.N.N.N.N.N.N.N.N.N.N.N.N.N.N.N.N.N.N.N.N.N.N.N.N.N.N.N.N.N.N.N.N.N.N.N.N.N.N.N.N.N.N.N.N.N.N.N.N.N.N.N.N.N.N.N.N.N.N.N.N.N.i.8 ",
"pXzXzXzXzXzXzXzXzXzXzXzXzXzXzXzXzXzXzXzXzXzXzXzXzXzXzXzXzXzXzXzXzXzXzXzXzXzXzXzXzXzXzXzXzXzXzXzXzXzXzXzXzXzXzXzXzXzXzXzXzXzXzXzXzXzXzXzXzXzXzXzXzXzXuX"
};
