/* XPM */
static char *connect[] = {
/* columns rows colors chars-per-pixel */
"75 75 53 1",
"  c #040404",
". c #0B0505",
"X c #0D0D0D",
"o c #130505",
"O c #1C0404",
"+ c #121212",
"@ c #191919",
"# c #230404",
"$ c #2B0404",
"% c #350404",
"& c #3B0404",
"* c #232323",
"= c #2C2C2C",
"- c #333333",
"; c #3B3B3B",
": c #440303",
"> c #4B0303",
", c #540303",
"< c #5C0303",
"1 c #610303",
"2 c #6D0202",
"3 c #730202",
"4 c #7E0202",
"5 c #444444",
"6 c #4E4E4E",
"7 c #535353",
"8 c #5C5C5C",
"9 c #616161",
"0 c #6B6B6B",
"q c #737373",
"w c #7B7B7B",
"e c #830202",
"r c #8E0101",
"t c #920101",
"y c #9B0101",
"u c #A40101",
"i c #AC0101",
"p c #B30000",
"a c #BC0000",
"s c #C10000",
"d c #CA0101",
"f c #E90000",
"g c #FE0000",
"h c #838383",
"j c #8B8B8B",
"k c #949494",
"l c #9C9C9C",
"z c #A3A3A3",
"x c #ABABAB",
"c c #B3B3B3",
"v c #BABABA",
"b c #C2C2C2",
"n c #CBCBCB",
/* pixels */
"j66666666566666566666566666566666566666566666566666566666566666566666566666",
"6                                                                          ",
"6                                                                          ",
"6   +@@@@@@+@+@@@@@@@@@+@+@@@@@@@@@+@+@@@@@@@@@+@+@@@@@@@@@+@+@@@@@@@@@X   ",
"6   +=------==----------=--=-=------==----------=--=-=------==---=----*    ",
"6    @-------;------------;-;--------;---------;--;-;--------;--;----=X    ",
"6     +*************************************************************@X     ",
"6      X++++++X@++++++++@X++++++++++++X@++++++++@X++++++++++++X@+++XX      ",
"6        .  X  X   X  X    X X   X  X  X  X X     .  X   X  X  X  X        ",
"6               X                                          .     X         ",
"6          X        X   X     X    .             X    X                    ",
"6                          .           X X    X   X                .       ",
"6          XX      X             X           X              X              ",
"6                   X      X X     X              X  X     X               ",
"6                                              .                           ",
"6       X      XX      X             X   X               X     X           ",
"6           X     X               X          X                             ",
"6                       X   X X     X           X      .    X    X         ",
"6       X       X      X                 . X             X                 ",
"6              X                                  X  X        X    .       ",
"6            X       X     XX        XOOX      X    X   X      X           ",
"6         .       X             X    <dd<                                  ",
"6                    X               egg4 .                                ",
"6         X             X      X X   egg4    X   X     X    X              ",
"6              X                     egg4   X             X                ",
"6               .      X             4gg4            X           X         ",
"6       .                 o&<,$. X  Xegg4 X  X&33<$     X     X            ",
"6           X      X X   .3assyO     egg4    otsssy$               .       ",
"6           X     X     X,asss3o     egg4   X >pssse.      X               ",
"6                       OysssyO      4gg4     .2assa:  X     .             ",
"6               X     X <assa>  X    egg4      #usaseo                     ",
"6        X     X       .esssro    X  4gg4X      <sssp#  X     X            ",
"6         X            #usss>        egg4      XOusss,      X              ",
"6                    X %pssp$        4gg4X      .esss3           X         ",
"6           X X    X   %assuO    X  Xegg4        4ssse                     ",
"6                X     :sssyO X      egg4   X    3ssst. X      X   .       ",
"6                      %aasi#        2ff3 X      4ssstX       X            ",
"6       X    X         $psaa%     X  O::O       oyssse   X                 ",
"6                  X   Oysss3.               X  :psss3      X              ",
"6         X            X4sssp:       X         Otsssa>                     ",
"6             X     X   >aaasu:.  X     X     #easssu#                     ",
"6        X  X           otssssp3$o         X#,ysssss4.  X X   X  X         ",
"6                        :passsspt1,&%%%%><4ussssssu$  X                   ",
"6               X     X  X<asssssssspppppasssssassp,               .       ",
"6                         .1pssasssssssssasssssssp<X                       ",
"6         X   X        X  X :yassssssasassasssssy:   X     XX              ",
"6         X     X          X O,ypasassssssssspy1#                          ",
"6                 X            o%<4tuupaiuy41&o          X    .            ",
"6         .                       XoO####OoX   X                           ",
"6              X X   X X  X                X         X  X X   X  X         ",
"6                           X                     X                        ",
"6                                 X                                .       ",
"6         X X            X   .            X   .    X  X                    ",
"6                              X       X         X          X              ",
"6               X++               X .                                      ",
"6              *qxl6 .                                   . *;X             ",
"6        X    Xjc676   @-*+   @+=*X  X@@-@   X@-@X   X*-+ Xqz-X            ",
"6             *b7     =jzzwX +wjzc5  ;kkck@  -lkx;  X0cz7 *xnk*  X         ",
"6          X  ;n5     0x*6c; +ll-zhX ;b97v; Xhl5zhX =c8@*  qx-             ",
"6             -n6    Xjk -c6 Xk0 hhX -x-*x5 +zxwj8  5c=    9z@     .       ",
"6             +zz;;5X wx=9v- Xkq hhX -x-*x5 Xkl=-@  ;b8--  9c-             ",
"6          .   6vvx9X -zxcw@ +j0 qhX *z;@z6  6xkl6  +kvx7  5bj@            ",
"6       X     +65=*@  -6=-7*  5; ;5X @8*@7= X;6;-@X @6;*@  =8=             ",
"6             +;@    X=- +-* X-=X==  +;@+;@  -;===  @;@    *-+             ",
"6             +*+     @*X+*X X@@+@@  X*@+@+ X@@+@@  X*@XX  @@+             ",
"6       .    X X       XXXX   X+XXX   XXXXX   XXXX   XX X  XXX             ",
"6                                                               X          ",
"6         X  X X X XX X   X X X   X X X X X . X  X XX  X X X X X X X       ",
"6      XXXXXXXXX+XXXXXXXXXXXXXXXXXXXXXXXXXXXXXXXXXXXXXXXXXXXXXXXXXXXX      ",
"6    X+++++++++++++++++++++++++++++++++++++++++++++++++++++++++++++XXX     ",
"6   X@++@++@++@+++@@++++@+++++++@++@++@++@+++@+@@++++++@++++++++@++@+@X    ",
"6   XX+X+XXX+X+X+XXXX++XXX+X++X+X+XX+XXXXXX++XXX+XX++X+XX++X+++XXX+XX+XX   ",
"6 XX+X+++X+++++X++X++X++++++X++++X+++++++X++++++++X+X++++X+++++X+++++X++XX ",
"6@***********************************************************************@X",
"w89999999999899999999999999999899999899999998998999999999989999999899999988"
};
