/* XPM */
static char *droite[] = {
/* columns rows colors chars-per-pixel */
"75 75 246 2",
"   c #767702",
".  c #7C7C03",
"X  c #16295A",
"o  c #172C60",
"O  c #1E3469",
"+  c #556645",
"@  c #596945",
"#  c #555D6F",
"$  c #555E70",
"%  c #57627A",
"&  c #807F00",
"*  c #748F70",
"=  c #779376",
"-  c #828101",
";  c #8D8D01",
":  c #858408",
">  c #88870A",
",  c #8A8A09",
"<  c #959500",
"1  c #9B9B01",
"2  c #929209",
"3  c #99990D",
"4  c #9DA31A",
"5  c #A3A305",
"6  c #ACAC01",
"7  c #A0A008",
"8  c #ABAC0B",
"9  c #BABA01",
"0  c #B2B40B",
"q  c #B8B809",
"w  c #A4AA1D",
"e  c #939720",
"r  c #969B25",
"t  c #88933B",
"y  c #9BA62C",
"u  c #9FA834",
"i  c #AEBC3C",
"p  c #C0BF00",
"a  c #BAC224",
"s  c #C6C500",
"d  c #C8C600",
"f  c #CCCC00",
"g  c #D3D300",
"h  c #DADA00",
"j  c #D2D20D",
"k  c #C3C313",
"l  c #C9C916",
"z  c #DBDF11",
"x  c #E0DF00",
"c  c #E3E302",
"v  c #E9E901",
"b  c #E7E708",
"n  c #F4F403",
"m  c #FEFE03",
"M  c #F4F60E",
"N  c #F7F90A",
"B  c #F9FA09",
"V  c #EAEA13",
"C  c #E7EE1E",
"Z  c #ECF117",
"A  c #F6F610",
"S  c #FDFD13",
"D  c #FEFE1C",
"F  c #C7D53B",
"G  c #CFDE3D",
"H  c #D0DE3D",
"J  c #DBE62E",
"K  c #D8E331",
"L  c #E3EB24",
"P  c #F5F522",
"I  c #FFFF2B",
"U  c #FFFF34",
"Y  c #FFFF39",
"T  c #8A9B47",
"R  c #94A65D",
"E  c #99AB59",
"W  c #A4B659",
"Q  c #94A966",
"!  c #9FBE7F",
"~  c #BDD154",
"^  c #B1C764",
"/  c #A8C373",
"(  c #C8D847",
")  c #22438E",
"_  c #214390",
"`  c #2D4F9F",
"'  c #264EA4",
"]  c #3151A0",
"[  c #3857A3",
"{  c #3958A4",
"}  c #3056AE",
"|  c #395BA9",
" . c #2B55B3",
".. c #345BB4",
"X. c #4B6C87",
"o. c #496A8B",
"O. c #5F6D8A",
"+. c #507087",
"@. c #4062B2",
"#. c #315FC8",
"$. c #3460C2",
"%. c #3C63C5",
"&. c #3B66CD",
"*. c #2F62D1",
"=. c #3365D6",
"-. c #3366D8",
";. c #3D73D6",
":. c #386DE5",
">. c #356CE8",
",. c #3871ED",
"<. c #3A73F7",
"1. c #3E78F2",
"2. c #3D7AFC",
"3. c #4167C5",
"4. c #456AC6",
"5. c #496DC7",
"6. c #496FCA",
"7. c #4E71C8",
"8. c #5376CA",
"9. c #5678CB",
"0. c #4F78D5",
"q. c #4D7BDD",
"w. c #5078D6",
"e. c #4576E6",
"r. c #4A7BE5",
"t. c #417AEB",
"y. c #477AEA",
"u. c #527FE5",
"i. c #457CF6",
"p. c #497EF3",
"a. c #417EFE",
"s. c #6C8C88",
"d. c #7A9883",
"f. c #76978F",
"g. c #678B97",
"h. c #5D88B2",
"j. c #6189A5",
"k. c #6781BB",
"l. c #6883BF",
"z. c #709EBE",
"x. c #7EA7AC",
"c. c #78A3B5",
"v. c #5685C8",
"b. c #4D81D7",
"n. c #5183D3",
"m. c #5481DE",
"M. c #5B85DB",
"N. c #5A88D8",
"B. c #738FC9",
"V. c #6290C7",
"C. c #6E9BC4",
"Z. c #6494CC",
"A. c #688CD6",
"S. c #648BDC",
"D. c #6D90DA",
"F. c #7996D3",
"G. c #7396DE",
"H. c #7E9CDD",
"J. c #4C85E5",
"K. c #4D82ED",
"L. c #5482E5",
"P. c #5A85E4",
"I. c #5A89E5",
"U. c #5189EA",
"Y. c #5C8BED",
"T. c #4681F4",
"R. c #4C85F4",
"E. c #4380FF",
"W. c #4A84FB",
"Q. c #4E8CFF",
"!. c #5385F2",
"~. c #5689F3",
"^. c #5B8BF3",
"/. c #5187F8",
"(. c #508FFF",
"). c #5793F4",
"_. c #5594FD",
"`. c #5698FF",
"'. c #589AFF",
"]. c #628BE6",
"[. c #658EEA",
"{. c #688FE8",
"}. c #6C92E3",
"|. c #6C93EB",
" X c #7297E4",
".X c #7499E6",
"XX c #7D9FE5",
"oX c #7097EC",
"OX c #7299EF",
"+X c #7B9EEB",
"@X c #608EF2",
"#X c #6693F3",
"$X c #6B96F4",
"%X c #739BF4",
"&X c #789EF4",
"*X c #7DA1ED",
"=X c #63A3FF",
"-X c #6DAEFE",
";X c #7DA2F5",
":X c #6FB1FF",
">X c #76B7FF",
",X c #97B887",
"<X c #8CB097",
"1X c #8796B9",
"2X c #85ACA0",
"3X c #869AC5",
"4X c #839FDA",
"5X c #98A7C6",
"6X c #8FA8DB",
"7X c #9AABD0",
"8X c #9FB3DF",
"9X c #A1ACC4",
"0X c #A1AFCD",
"qX c #ACB4C6",
"wX c #AAB5CC",
"eX c #B3BBCB",
"rX c #B7BDC9",
"tX c #ABB9D8",
"yX c #B3BDD3",
"uX c #85A4E5",
"iX c #83A5EC",
"pX c #8BABEE",
"aX c #96B2ED",
"sX c #98B3EF",
"dX c #82A6F5",
"fX c #8BABF1",
"gX c #96B3F2",
"hX c #9AB5F0",
"jX c #A1B9EC",
"kX c #BDC2CC",
"lX c #B8C2D7",
"zX c #BBC8E4",
"xX c #CBCCCE",
"cX c #C5CBD6",
"vX c #CACDD2",
"bX c #CDD1D7",
"nX c #D2D3D6",
"mX c #D3D5D9",
"MX c #D7D9DB",
"NX c #D9DBDD",
"BX c #C2CDE4",
"VX c #CFD5E2",
"CX c #CCD6EB",
"ZX c #D1D6E1",
"AX c #D8DBE1",
"SX c #E0E1E5",
/* pixels */
"8XoXoXoX$XOXOXOXOXOXOXOXOXOXOXOXOXOXOX$XOXOXOXOXOXOXOXOX=X.XOXOXOXOX=X.XoXoXOXOX=X.XOXOXOXOXOXOXOXOX=X.X=X.XOXOXOXOXOXOXOX=X.XoXOXOXOX$XOXOXoXOXOX}.z.",
"l.=.2.2.2.2.2.2.2.2.2.2.2.2.2.2.2.2.2.2.2.2.2.2.2.2.2.2.2.2.2.2.2.2.2.2.2.2.2.2.2.2.2.2.2.2.2.2.2.2.2.2.2.2.2.2.2.2.2.2.2.2.2.2.2.2.2.2.2.2.2.2.2.' % ",
"k. .,.W.E.Q.W.E.E.E.Q.E.Q.E.E.E.E.Q.W.E.E.E.Q.E.Q.E.E.E.E.E.Q.E.E.E.Q.E.E.Q.E.E.Q.E.E.E.E.E.Q.E.E.Q.T.E.Q.E.E.E.E.E.E.Q.E.E.E.Q.E.Q.W.E.E.Q.E.E.$.o # ",
"k. .-.T.`.'.'.`.'.'.`.`.'.'.'.'.'.'.'.`.'.'.`.'.'.'.'.'.'.'.'.'.'.'.'.'.'.'.'.'.'.'.'.'.'.'.'.'.'.'.'.'.'.'.'.'.'.'.'.'.'.`.'.`.'.'.'.'.'.'.`.;._ X # ",
"k. .-.,._.-X:X:X:X:X:X:X:X:X:X:X-X:X:X:X:X:X:X:X:X:X:X:X:X:X:X:X:X:X:X:X:X:X:X:X:X:X:X:X:X:X:X:X:X:X:X:X:X:X:X:X:X:X:X:X:X:X:X:X:X:X:X:X-X-XJ. ._ X $ ",
"k. .-.,.i.'.>X>X>X>X>X>X>X>X>X>X>X>X>X>X>X>X>X>X>X>X>X>X>X>X>X>X>X>X>X>X>X>X>X>X>X>X>X>X>X>X>X>X>X>X>X>X>X>X>X>X>X>X>X>X>X>X>X>X>X>X>X>X>X).*. ._ X $ ",
"k. .-.,.2.E.`.=X=X=X=X=X=X=X=X=X=X=X=X=X=X=X=X=X=X=X=X=X=X=X=X=X=X=X=X=X=X=X=X=X=X=X=X=X=X=X=X=X=X=X=X=X=X=X=X=X=X=X=X=X=X=X=X=X=X=X=X=XQ.:.*. ._ X $ ",
"k. .-.,.2.E.E.Q.(.(.(.(.(.(.(.(._.(.(.(.(.(.(._.(.(.(.(.(.(.(.(.(.(.(.(.(.(.(.`.(.(.(.(.'.c.).(.(.(.(.(.(.(.(.(.(.(.(.(.(.(.(.`.(.(.(.W.<.>.*. ._ X $ ",
"h. .=.,.2.E.E.E.E.E.E.E.E.E.E.Q.W.E.E.E.E.W.E.E.W.E.E.E.E.E.E.E.E.E.E.E.E.E.E.E.E.Q.E.E.R.^ ,XR.E.Q.E.E.E.E.E.E.E.E.E.E.Q.E.E.E.W.E.E.a.<.>.*. ._ X $ ",
"l. .=.,.2.E.2.E.E.E.E.E.E.E.E.E.E.E.E.E.E.E.E.E.E.E.E.E.E.E.E.E.E.E.E.E.E.E.E.E.E.E.E.E.W.W z x.E.E.E.E.E.E.E.E.E.E.E.E.a.a.E.E.E.E.E.a.<.>.*. ._ X $ ",
"l. .=.,.2.E.E.E.E.E.E.E.E.E.E.E.E.a.E.E.E.E.E.E.E.E.E.E.E.E.E.E.E.E.E.E.E.E.E.E.E.E.E.E.R.E s C x.a.E.E.E.E.E.E.E.E.E.E.E.E.E.E.a.E.a.a.<.>.*. ._ X $ ",
"l. .=.,.2.E.2.E.E.E.E.E.E.E.E.E.E.E.E.E.E.E.E.E.E.E.E.E.E.E.E.E.E.E.E.E.E.E.E.E.E.a.E.E.R.R 7 n L c.E.E.E.E.E.E.E.E.E.E.E.E.E.E.a.a.a.2.<.>.*. ._ X $ ",
"l. .=.,.2.E.E.E.E.E.E.E.E.E.E.E.E.E.E.E.E.E.E.E.E.E.E.E.E.E.E.E.E.E.E.E.E.E.E.E.E.E.E.E.R.R 2 g m L z.a.E.E.E.E.E.E.E.E.E.E.E.E.E.E.a.a.<.>.*. ._ X $ ",
"k. .=.,.2.a.E.E.E.E.E.E.E.E.E.E.E.E.a.E.E.E.E.E.E.E.E.E.E.E.E.E.E.E.E.E.E.E.E.E.E.E.E.a.R.R > 8 n m J z.a.E.E.E.E.E.E.E.E.E.E.E.E.E.E.a.<.>.*. ._ X $ ",
"k. .=.,.2.E.E.E.E.E.E.E.E.E.E.E.E.E.a.E.E.E.E.E.E.E.E.E.E.E.E.E.E.E.E.E.E.E.E.E.E.a.E.E.R.R , , v m m K Z.a.E.E.E.E.E.E.E.E.E.E.E.E.2.2.<.>.*. ._ X $ ",
"k. .=.,.2.a.E.E.E.E.E.E.E.E.E.E.E.E.E.E.E.E.E.E.E.E.E.E.E.E.E.E.E.E.E.E.E.E.E.E.E.E.E.E.R.E > : d m m m G Z.a.E.E.E.E.E.E.E.E.E.E.E.a.<.<.>.*. ._ X $ ",
"k. .-.,.2.E.E.E.E.E.E.E.a.a.E.E.E.a.E.E.E.E.a.a.E.E.E.a.E.2.E.a.a.E.a.a.a.a.a.E.a.E.E.E.W.R > : 7 n m m m ( N.E.E.E.E.E.E.E.E.E.a.a.a.a.<.>.*. ._ X # ",
"k. .-.,.2.E.a.E.a.E.E.E.I.f.d.d.d.d.d.d.d.d.d.d.d.d.d.d.d.d.d.d.d.d.d.d.d.d.d.d.d.d.d.d.d.u > : , h m m m m ~ U.E.E.E.E.E.E.E.E.W.a.W.a.<.>.*. ._ X $ ",
"k.} -.,.2.a.E.a.E.E.E.E.C.4 9 d s d d d s s s s d d d d d d d d s s d d d d d d d d d d d s 1 > > q m m m m m ^ U.E.E.E.E.E.E.E.a.a.a.a.<.>.*. ._ X $ ",
"k. .-.,.2.a.E.a.E.E.E.a.C.y 1 f g g g g g h g g g g g g g g g h g g h g g g h g g g g g g g f 7 > 3 v m m m m B / R.E.E.E.E.E.E.a.a.a.a.<.>.*. ._ X $ ",
"h. .=.,.2.E.E.E.E.E.E.a.C.e : 1 f h g h h h g h g h h h h h h g h h g h h g h g h h h h h h h f 5 2 j m m m m m N ! T.E.E.E.E.E.E.E.a.a.<.>.*. ._ X $ ",
"l. .=.,.2.E.E.E.E.E.E.a.C.y : : 5 g x h h x h h h h h h h h h h x h h x x h h x h h h h h g h h g 8 k A m m m m m N ,XT.a.E.E.E.E.E.E.a.<.>.*. ._ X $ ",
"l. .=.,.2.E.a.E.E.E.a.a.C.r : : , 8 c v v c v v v v v v v v v v v v v v c v c c c v v v v v v v v h j P D m m m m m M ,XT.E.E.E.a.E.a.2.<.>.*. ._ X $ ",
"k. .=.,.2.a.E.E.E.E.a.a.C.r : : , 3 j n m m m m m m n m m m m m m n m m m m m m m m m m m m m m m m n P I S m m m m m A <XE.a.E.a.a.a.2.<.>.*. ._ X $ ",
"k. .-.,.2.a.E.E.E.E.E.a.C.r : : , 3 l Z m m m m m m m m m m m m m m m m m m m m m m m m m m m m m m m D Y I S m m m m m Z 2XE.a.E.E.a.a.<.>.*. ._ X $ ",
"k. .-.,.2.E.E.E.E.E.E.a.C.r : : , 3 l V B B B m m B m B m B B m m B m m B B B m m B B m B m B m m B m S I D A b v v c c c i J.E.E.E.E.a.<.>.*. ._ X $ ",
"k. .-.,.2.E.E.a.E.E.E.a.C.r : : , 3 l V A D b b v v b v v v v v c v v v v v b v v v v v b v v v v v v n m v h f d f d s w j.E.a.a.E.a.a.<.>.*. ._ X $ ",
"k. .=.,.2.a.a.E.E.E.E.E.C.r : : , 3 l V A I P h g f g g g f g g g f g f f g g g g g g g g g g f g g g b n h g g f f d 8 g.E.E.E.a.a.a.2.<.>.*. ._ X $ ",
"k. .=.,.2.E.E.a.E.E.E.a.C.r : : , 3 l V M I U V 9 6 6 6 6 6 6 6 6 6 6 6 6 6 6 6 6 6 6 6 6 6 6 6 6 6 q b x f f f d d 8 g.a.a.E.E.E.E.E.a.<.>.*. ._ X $ ",
"k. .-.,.2.E.a.E.E.a.E.E.C.r : : , 3 l V M I U D h 5 < 1 1 1 1 1 < 1 1 1 < 1 1 1 1 1 1 < 1 1 1 < < 2 q h g g f f d 0 g.T.E.E.E.E.E.a.a.a.<.>.*. ._ X $ ",
"k. .-.,.2.E.E.E.E.E.E.a.C.r : : , 3 l V M I U D m c 5 < < < < < < < < < < < < < < < < < < < < < , 2 k g f f f d 0 s.E.E.a.E.E.E.E.E.a.2.<.>.*. ._ X $ ",
"k. .-.,.2.E.E.E.E.E.E.a.C.r : : , 3 l V M I U D m m h 1 < ; ; ; ; < ; ; ; ; ; < ; ; ; ; < ; ; , > 2 d g f f d q = T.E.E.E.E.E.E.E.a.a.<.<.>.*. ._ X $ ",
"k. .=.,.2.a.E.E.E.E.E.E.C.r : : > 3 l V A I U D m m m g ;                                 . : : : 5 f f f s q * J.E.E.E.E.E.E.E.a.a.W.a.<.>.*. ._ X $ ",
"k. .=.,.a.a.a.E.E.E.E.E.C.e : : , 3 l V A I U D m m m m a X.o.o.o.o.o.o.o.o.o.o.o.o.o.o.+.t : : > 9 g f d 9 * n.E.E.E.E.E.E.E.E.W.a.a.a.<.>.*. ._ X $ ",
"k. .=.,.2.a.E.E.E.E.E.2.C.r : : > 3 l V A I U D m m m m G R.a.E.E.E.E.E.E.E.E.E.E.E.E.a.R.R > : 3 f f d p T b.a.E.E.E.E.E.E.E.E.a.a.a.a.<.>.*. ._ X $ ",
"k. .-.,.2.a.E.E.E.E.E.E.C.r : : , 3 l V A I U D m m m m G R.E.E.E.E.E.E.E.E.a.E.E.E.E.E.R.R > > 6 f d p T b.E.E.E.E.E.E.E.E.E.E.a.a.a.a.<.>.*. ._ X $ ",
"k. .-.,.2.E.E.E.E.E.E.2.C.r : : , 3 l V M I U D m m m m G R.a.E.E.E.E.E.E.a.E.E.E.E.E.E.R.R > ; p d p y b.a.E.E.E.E.E.E.E.E.E.E.E.E.E.a.<.>.*. ._ X $ ",
"k. .-.,.2.a.E.a.E.E.E.E.C.r : : , 3 l V A I U D m m m m H K.a.E.E.a.E.E.E.E.E.E.E.E.E.E.R.R > 7 d s y v.a.a.E.E.E.E.E.E.E.E.E.E.E.E.a.a.<.>.*. ._ X $ ",
"k. .-.,.2.E.E.a.E.E.E.E.C.r : : , 3 l V A I U D m m m m G R.E.E.E.E.E.E.E.a.E.E.E.E.E.E.R.R > 0 p y v.E.E.E.E.E.E.a.E.E.E.E.E.E.a.a.a.2.<.>.*. ._ X $ ",
"k. .-.,.2.a.a.E.E.E.E.a.C.r : : , 3 l V M I U D m m m m G R.E.E.E.E.E.E.E.E.E.E.E.E.E.E.R.R < 9 y v.E.E.E.E.E.E.E.E.E.E.E.E.E.E.a.a.a.2.<.>.*. ._ X $ ",
"k. .=.,.2.E.E.E.E.E.E.E.C.r : : > 3 l V A I U D m m m m H R.E.E.E.a.E.E.E.E.E.E.E.E.E.E.R.R 5 w k.E.E.E.E.a.E.E.E.E.E.E.E.a.E.E.a.a.E.a.<.>.*. ._ X $ ",
"k. .-.,.2.E.a.E.E.E.E.E.C.r : : , 3 l V A I U D m m m m H K.E.E.E.E.E.E.E.E.E.E.E.a.E.E.R.E w j.T.E.a.E.E.W.a.E.E.E.E.E.E.E.E.E.W.a.E.a.<.>.*. ._ X $ ",
"k. .=.,.2.a.E.E.E.E.E.2.C.r : : , 3 l V A I U D m m m m H R.E.E.E.a.E.E.E.a.a.E.E.E.E.a./.Q s.i.a.E.E.E.E.a.E.E.E.E.a.E.E.a.E.E.a.a.a.a.<.>.*. ._ X $ ",
"k. .=.,.2.a.E.E.E.E.E.E.C.r : : , 3 l V A I U D m m m m H R.E.E.E.E.E.E.E.a.W.E.E.E.E.E.T.V.T.a.E.E.E.E.E.E.E.E.E.E.E.E.E.E.E.E.a.a.a.a.<.>.*. ._ X $ ",
"k. .=.,.2.E.E.E.E.E.E.a.C.r : : > 3 l V M I U I m m m m G R.a.E.E.E.E.E.E.E.E.E.E.a.E.E.E.a.E.E.E.E.E.E.E.E.E.E.E.E.E.E.E.E.E.E.E.E.E.a.<.>.*. ._ X $ ",
"k. .-.,.2.E.E.E.E.E.E.a.C.e : : > 3 l V n A I D m m m m G R.E.E.E.E.a.E.E.E.E.E.a.W.E.E.E.E.a.W.E.E.E.E.E.E.a.E.E.E.E.E.E.E.E.E.E.a.a.a.<.>.*. ._ X $ ",
"k. .=.,.2.a.E.a.E.E.E.a.C.r : > > 3 l h h g V D m m m m G R.E.E.E.E.a.E.E.E.a.E.E.a.E.E.E.E.E.a.E.E.E.E.E.E.a.E.E.a.a.E.E.E.a.E.a.E.a.2.<.>.*. ._ X $ ",
"k. .-.,.2.a.a.E.E.E.E.a.C.r > > > 3 6 9 9 9 9 j m m m m G R.E.E.E.E.W.a.E.E.E.E.E.E.E.E.E.E.E.E.E.E.E.E.E.E.E.E.a.W.E.E.E.E.E.E.a.a.a.2.<.>.*. ._ X $ ",
"k. .-.,.2.E.E.E.E.E.E.a.C.r : : > < 1 5 1 1 1 1 d m m m G R.E.a.E.E.E.E.E.E.E.E.E.E.E.a.a.E.E.E.E.E.E.E.E.E.E.a.E.E.E.E.E.E.a.E.a.E.a.a.<.>.*. .) X $ ",
"k. .=.,.2.a.a.a.E.E.E.a.C.r : , < < < < < < < < < d m m G R.E.E.E.E.E.a.E.E.E.a.E.E.E.E.E.E.E.E.E.E.E.E.E.E.E.E.E.E.E.E.E.E.E.E.W.a.E.a.<.>.*. ._ X $ ",
"k. .=.,.2.E.a.a.E.E.E.a.C.r : ; < < ; < < < < < < < s n K W.E.E.E.E.E.E.E.E.E.E.E.E.E.E.E.E.E.E.E.E.E.E.E.E.E.E.E.E.E.E.a.E.E.E.a.a.a.a.<.>.*. ._ X $ ",
"k. .=.,.2.a.E.E.E.E.E.a.C.e & & - . - - - - . - . & - 9 F R.a.E.a.E.a.W.a.E.E.E.a.E.E.E.E.E.E.E.E.E.E.E.E.a.E.E.E.E.a.E.E.E.E.E.a.a.a.2.<.>.*. ._ X $ ",
"k. .-.,.2.a.E.E.E.E.E.a.Z.* + + + + + + + + + + + + + @ * R.E.E.E.E.E.E.a.E.E.E.E.E.E.E.E.E.E.a.E.E.E.a.E.E.E.E.E.a.E.E.E.E.E.E.a.a.a.a.<.>.*. ._ X $ ",
"k.} -.,.2.E.E.E.E.E.E.E.T.t.:.:.t.t.t.t.t.t.t.t.t.t.t.t.t.E.E.E.E.E.E.E.E.E.E.E.E.E.E.E.E.E.E.E.E.E.E.E.E.E.E.E.E.E.E.E.E.E.E.E.W.a.W.a.<.>.*. ._ X $ ",
"k. .-.,.2.a.E.E.E.E.E.E.E.E.E.E.E.E.E.E.E.E.E.E.a.E.E.E.E.E.E.E.a.E.E.a.a.E.E.E.E.E.E.E.E.E.E.E.a.E.E.E.E.E.E.E.E.E.E.E.a.E.E.a.a.a.a.2.<.>.*. ._ X $ ",
"k. .-.,.2.E.E.E.E.E.E.E.E.E.E.E.E.E.E.E.E.E.E.E.E.a.E.E.E.E.E.E.E.E.a.W.W.a.E.E.E.E.E.a.a.E.E.E.E.E.E.E.E.E.a.E.E.E.E.E.E.E.a.W.a.a.a.2.<.>.*. ._ X $ ",
"l. .=.,.2.a.E.E.E.E.E.E.E.E.E.E.E.E.E.E.E.E.E.E.E.E.E.E.a.E.E.E.E.E.E.E.E.E.a.W.E.E.E.E.E.E.E.E.E.E.E.E.E.E.E.E.E.E.E.E.E.a.E.E.W.a.a.a.<.>.*. ._ X $ ",
"k. .=.,.2.a.E.E.E.E.E.E.E.E.E.E.E.E.E.E.E.E.E.E.E.E.E.a.E.E.E.E.E.E.E.E.E.E.E.a.E.E.E.E.a.E.E.E.E.E.E.E.E.a.E.E.a.E.E.E.E.E.E.E.i.a.W.a.<.>.*. ._ X $ ",
"k. .=.,.2.E.a.E.E.E.E.E.E.E.E.E.E.E.a.a.E.E.E.E.E.E.E.E.E.E.E.E.E.E.E.E.E.E.E.a.E.E.a.a.E.E.E.E.E.E.E.a.E.E.E.E.W.E.E.E.a.E.E.E.a.a.a.a.<.>.*. ._ X $ ",
"k. .=.,.2.E.E.a.a.E.E.E.E.E.E.E.T.M.N.m.r.T.a.E.a.E.E.E.E.E.E.E.E.E.a.E.E.E.E.E.E.!.3XP.E.E.a.a.i.a.E.E.E.E.E.a.a.E.a.E.W.E.E.E.a.a.a.a.<.>.*. ._ X $ ",
"k. .=.,.2.E.E.E.E.a.E.E.E.E.E.2.*XkXkXkXrX3XL.i.E.E.E.a.a.E.E.E.E.E.E.2.a.E.E.E.a.#XBXG.a.E.W.F.A.a.E.E.E.E.E.a.E.E.E.E.a.a.E.E.a.a.a.a.<.>.*. ._ X $ ",
"k. .=.,.2.a.E.a.E.E.E.E.E.E.E.E.pXmXH.|.pXmX9XK.E.E.W.K.T.L.i.E.E.E.K.L.L.i.E.E.E.p.}.K.E.2.Y.lX5Xr.T.a.E.a.R.L.L.i.a.E.E.E.E.E.a.a.a.a.<.>.*. ._ X $ ",
"k. .=.,.2.a.E.E.E.E.E.E.E.E.E.E.pXnXS.2.i.aXnXD.a.a. X9X7XqXN.E.E.G.eXcXkX1Xy.E.a.[.qXn.a.E.jXMXvXqXP.a.E.I.0XeXrXF.p.E.a.E.E.E.a.a.a.a.<.>.*. ._ X $ ",
"k. .=.,.2.a.E.E.E.E.E.E.E.E.E.a.pXnXS.a.E.oXMX4Xi.a.XXnXlXuX~.E.^.kXtX|.sXnXF.E.a.|.nXA.a.E.oXZXyX.XR.E.W.tXyX].uXxXS.a.E.E.E.E.a.a.a.a.<.>.*. ._ X $ ",
"k. .-.,.2.E.E.E.a.E.E.a.W.a.E.a.pXnXD.a.a..XMXH.a.a..XnXD.a.a.a.iXmXG.2.~.VX7Xi.a.[.mXA.a.a.~.BX0Xi.E.a.Y.cXwX3X7XMX4Xa.a.a.E.a.E.E.a.a.<.>.*. ._ X $ ",
"k. .-.,.2.E.E.E.a.W.E.E.E.E.E.a.pXnXS.a.i.6XmX}.a.a.oXnXS.E.E.a.iXmXA.2.!.cX8Xi.a.Y.mXA.a.a.~.BX0X<.E.a.#XMXyXgXhXhX@Xa.a.a.E.E.E.E.a.2.<.>.*. ._ X $ ",
"k. .-.,.2.a.E.E.W.a.a.a.a.E.E.a.fXnXB.M.F.cXzX!.a.a.G.bXS.a.E.a.%XAX3Xu.G.mX4Xa.a.Y.mXD.a.a.!.BXqXw.i.E.~.CX5Xq.r.u.p.a.a.W.a.a.E.E.a.a.<.>.*. ._ X $ ",
"k. .-.,.2.a.E.E.a.a.W.a.E.E.E.a.iXSXvXvXmXzX|.a.a.a. XNXD.a.E.E.p.jXnXkXmXBX^.a.a.Y.ZXH.a.a.a.jXMXeXP.a.E.pXMXkXrXyX].a.a.a.W.a.E.E.W.a.<.>.*. ._ X $ ",
"k. .-.,.2.a.E.E.a.a.a.a.a.a.a.a.$XhX+XOX+XfX%XW.a.a.@XhX^.a.a.a./.dXpXOXiXfX$Xa.a.!.sX|.a.a.a.dXaX+Xp.a.W.;XfX+X%X#Xp.a.a.a.a.a.a.a.a.i.<.>.*. ._ X $ ",
"k. .=.,.2.T.T.2.i.i.p.i.i.i.i.i.^.;X!.i.i.$XdX^.p.i.@X&X~.i.p.p.@XdX@Xi.p.&X%Xp.i.!.&X@Xi.i.p.&X%Xp.p.i./.;X%X~.@Xu.p.i.p.i.p.i.i.i.i.p.i.>.*. ._ X $ ",
"k. .=.,.1.t.e.e.e.e.e.e.e.e.e.e.P.|.u.e.e.u.oXP.e.e.u.|.L.e.e.e.u.oXu.e.e.{.{.e.e.u.|.P.e.e.r.{.].e.e.e.r.{.{.P.].oXu.e.e.e.e.e.e.e.e.e.q.e.*. ._ X $ ",
"k. .=.:.&.%.%.%.%.%.%.%.%.3.%.%.5.9.4.%.%.3.8.5.#.3.5.9.8.3.%.%.3.9.7.%.4.9.7.#.%.3.9.5.3.#.4.8.8.3.%.%.%.8.8.3.5.9.5.#.3.3.3.#.%.3.%.%.#.#.#. ._ X $ ",
"k. .$.} ` ` ` ] ` ] ] ` ] ` ] ] [ { ] ] ] ] [ [ ] ] [ [ { { ] ] ] [ [ [ [ [ ] ] ] ] { ] ] ] [ { { { ] ] ] ] { [ [ [ ] ] ] ] ` ] ] ] ] ] ` ] ] ` ) X $ ",
"k.....| | | | | | | | | | | | | | | | { | | | | | | | | | | | | | | | | | | | | | | | | | | | | | | | | | | | | | | | | | | | | { | | | | | | | ] O $ ",
"B.6.w.w.0.0.0.0.w.w.w.w.w.w.w.w.w.w.w.w.w.w.w.w.w.w.w.w.w.w.w.w.w.w.w.w.w.w.w.w.w.w.w.w.w.w.w.w.w.w.w.w.w.w.w.w.w.w.w.w.w.w.w.w.w.w.w.w.w.w.w.w.w.@.O."
};
