/* XPM */
static char *expulse[] = {
/* columns rows colors chars-per-pixel */
"75 75 251 2",
"   c #050100",
".  c #0C0000",
"X  c #130101",
"o  c #1A0101",
"O  c #191713",
"+  c #230101",
"@  c #2B0101",
"#  c #340101",
"$  c #3B0101",
"%  c #251C0E",
"&  c #34280E",
"*  c #2B2517",
"=  c #3D3219",
"-  c #282825",
";  c #3A3426",
":  c #3C3733",
">  c #430101",
",  c #4C0202",
"<  c #520202",
"1  c #5B0000",
"2  c #640202",
"3  c #6C0202",
"4  c #720202",
"5  c #7B0202",
"6  c #641212",
"7  c #45340F",
"8  c #533D0E",
"9  c #433313",
"0  c #4C3A13",
"q  c #4A3A1A",
"w  c #533F14",
"e  c #523B1A",
"r  c #6F2D16",
"t  c #453C26",
"y  c #443E35",
"u  c #722D2A",
"i  c #5A420F",
"p  c #5C4413",
"a  c #564319",
"s  c #5B451A",
"d  c #64480E",
"f  c #74530F",
"g  c #634A15",
"h  c #694E15",
"j  c #654C19",
"k  c #794919",
"l  c #6E5115",
"z  c #6C521B",
"x  c #735515",
"c  c #7A5614",
"v  c #775817",
"b  c #7C5B15",
"n  c #73561A",
"m  c #76581A",
"M  c #7C5C19",
"N  c #7F601A",
"B  c #4D422A",
"V  c #574827",
"C  c #564A36",
"Z  c #504A3A",
"A  c #654C25",
"S  c #695426",
"D  c #775925",
"F  c #784B30",
"G  c #675737",
"H  c #786439",
"J  c #494846",
"K  c #564D45",
"L  c #59534B",
"P  c #5B5A57",
"I  c #704D4D",
"U  c #794D4D",
"Y  c #6C574A",
"T  c #635B59",
"R  c #765654",
"E  c #5E605E",
"W  c #6A6149",
"Q  c #776A4B",
"!  c #736857",
"~  c #766A58",
"^  c #686866",
"/  c #796A67",
"(  c #73716C",
")  c #727473",
"_  c #797976",
"`  c #830303",
"'  c #8D0202",
"]  c #900000",
"[  c #9C0303",
"{  c #980909",
"}  c #881C11",
"|  c #901212",
" . c #9D1111",
".. c #A50303",
"X. c #AB0404",
"o. c #AE0F0F",
"O. c #B30303",
"+. c #BB0404",
"@. c #B70C0C",
"#. c #BC1919",
"$. c #B4291C",
"%. c #8E2E28",
"&. c #983938",
"*. c #A52C25",
"=. c #B4342C",
"-. c #C40404",
";. c #CB0404",
":. c #C50A0A",
">. c #CB0A0A",
",. c #D40101",
"<. c #DA0404",
"1. c #D30A0A",
"2. c #CB160C",
"3. c #CC1313",
"4. c #CD1D1A",
"5. c #D41313",
"6. c #DB1111",
"7. c #D81B19",
"8. c #E20505",
"9. c #EB0202",
"0. c #E20C0B",
"q. c #EC0C0C",
"w. c #F50404",
"e. c #FF0505",
"r. c #F40B0B",
"t. c #FD0B0B",
"y. c #FA110F",
"u. c #E41211",
"i. c #ED1212",
"p. c #EB1A19",
"a. c #FE1212",
"s. c #F41817",
"d. c #FF1818",
"f. c #CA241D",
"g. c #E32119",
"h. c #C52222",
"j. c #C82C2A",
"k. c #D62928",
"l. c #C63736",
"z. c #D53734",
"x. c #ED2B29",
"c. c #FE2424",
"v. c #F72929",
"b. c #FC2A2A",
"n. c #F0312F",
"m. c #EA3635",
"M. c #F53434",
"N. c #FF3333",
"B. c #F63C3D",
"V. c #8A4E19",
"C. c #825F16",
"Z. c #89571C",
"A. c #805F18",
"S. c #A24113",
"D. c #846016",
"F. c #83621B",
"G. c #97701B",
"H. c #A67B1E",
"J. c #974A25",
"K. c #8D4E32",
"L. c #AD4B31",
"P. c #8C6E32",
"I. c #8D504D",
"U. c #A74746",
"Y. c #BB4F4F",
"T. c #B15751",
"R. c #8A6F4E",
"E. c #A9735B",
"W. c #866665",
"Q. c #9B6A68",
"!. c #897469",
"~. c #887876",
"^. c #977777",
"/. c #A56767",
"(. c #A67878",
"). c #B87777",
"_. c #C74645",
"`. c #D94444",
"'. c #D0504F",
"]. c #C35656",
"[. c #D55A5A",
"{. c #E84746",
"}. c #EF4D4D",
"|. c #F24647",
" X c #E75757",
".X c #F45B5A",
"XX c #D8635E",
"oX c #C76867",
"OX c #D66767",
"+X c #CA726F",
"@X c #C67777",
"#X c #DA7A7A",
"$X c #E96767",
"%X c #F26161",
"&X c #E5797A",
"*X c #7C807E",
"=X c #AE811E",
"-X c #B4851D",
";X c #8C8269",
":X c #86827B",
">X c #978D78",
",X c #847F80",
"<X c #888A88",
"1X c #978483",
"2X c #95948C",
"3X c #8D9493",
"4X c #939594",
"5X c #989B9A",
"6X c #AA8988",
"7X c #BC8786",
"8X c #A49B92",
"9X c #B09B91",
"0X c #A8A494",
"qX c #9BA1A1",
"wX c #A6A7A4",
"eX c #A6ABAB",
"rX c #AAACAB",
"tX c #B5AFAA",
"yX c #ADB2B1",
"uX c #B3B6B4",
"iX c #B5BABA",
"pX c #BABEBD",
"aX c #C88585",
"sX c #D88989",
"dX c #C69796",
"fX c #D59695",
"gX c #C7B7B6",
"hX c #CAB2B1",
"jX c #E8A2A1",
"kX c #C4C5B9",
"lX c #B7BFC0",
"zX c #BDC3C3",
"xX c #C6CAC8",
"cX c #C5CBCB",
"vX c #D2C9C8",
"bX c #CDD4D3",
"nX c #D2D6D5",
"mX c #D6DCDB",
"MX c #DDE0D8",
"NX c #D7DEE0",
"BX c #DCE3E4",
"VX c #DBE7E7",
"CX c #E3EBEB",
"ZX c #E5EAE9",
"AX c #F2EFEF",
"SX c #E6EFF0",
"DX c #EAF2F3",
"FX c #ECF4F5",
"GX c #EEF8F8",
"HX c #F2FBFB",
"JX c #FAFFFF",
/* pixels */
"sX}.}.}.}.}.}.|.}.}.}.}.}.|.}.}.}.}.}.|.}.}.}.}.}.|.}.}.}.}.}.|.}.}.}.}.}.|.}.}.}.}.}.|.}.}.}.}.}.|.}.}.}.}.}.|.}.}.}.}.}.|.}.}.}.}.}.|.}.}.}.}.}.{.).",
"].,.w.e.e.e.e.w.e.e.e.e.e.w.e.e.e.e.e.w.e.e.e.e.e.w.e.e.e.e.e.w.e.e.e.e.e.w.e.e.e.e.e.w.e.e.e.e.e.w.e.e.e.e.e.w.e.e.e.e.e.w.e.e.e.e.e.w.e.e.e.e.w.[ I ",
"Y.O.9.e.e.e.e.e.e.e.e.e.e.e.e.e.e.e.e.e.e.e.e.e.e.e.e.e.e.e.e.e.e.e.e.e.e.e.e.e.e.e.e.e.e.e.e.e.e.e.e.e.e.e.e.e.e.e.e.e.e.e.e.e.e.e.e.e.e.e.e.w.+.1 I ",
"Y.O.,.w.d.d.d.d.d.d.a.d.d.a.d.d.d.d.d.d.d.d.a.d.d.a.d.d.d.d.d.d.d.d.d.a.d.a.d.d.d.d.d.d.d.d.d.a.d.a.d.d.d.d.d.d.d.d.a.d.d.a.d.d.d.d.d.d.d.d.a.1.] 1 I ",
"Y.O.,.w.a.b.N.N.N.N.N.N.b.N.N.N.N.N.N.N.N.N.N.b.b.N.N.N.N.b.N.N.N.N.N.N.b.N.N.N.N.N.b.N.N.N.N.N.b.N.N.N.b.N.N.N.N.N.N.N.b.N.N.N.N.N.b.N.N.b.u.O.] 1 I ",
"Y.O.,.9.e.c.N.N.N.N.N.N.N.N.N.N.N.N.N.N.N.N.N.N.N.N.N.N.N.N.N.N.N.N.N.N.N.N.N.N.N.N.N.N.N.N.N.N.N.N.N.N.N.N.N.N.N.N.N.N.N.N.N.N.N.N.N.N.N.p.,.O.] 1 I ",
"Y.@.,.w.w.e.d.c.c.c.c.c.c.c.c.c.c.c.c.c.c.c.c.x.m.b.c.c.b.c.c.c.c.c.c.c.c.c.c.c.c.c.c.c.c.c.c.c.c.c.c.c.c.c.c.c.c.c.c.c.c.c.c.c.c.c.c.c.a.9.,.O.' 1 I ",
"Y.O.,.9.e.e.e.t.a.a.a.t.a.a.a.d.a.a.a.a.z.*.J.A !.%Xa.a.a.a.a.a.a.a.a.t.a.a.a.d.a.a.a.a.a.a.a.a.d.a.a.a.d.a.a.a.a.a.a.t.a.a.a.d.a.a.a.t.w.9.;.O.] 1 I ",
"Y.O.,.9.e.e.e.e.e.t.t.e.e.t.e.e.e.e.t.k.Z.m a O J #Xa.e.e.e.t.e.e.t.e.e.t.e.t.e.e.t.e.e.t.e.e.t.e.e.t.e.e.e.e.t.e.t.t.e.e.t.e.e.t.e.e.e.w.9.,.O.] 1 I ",
"Y.O.,.9.w.e.e.e.e.e.e.e.e.e.e.e.e.e.p.J.M F.g Z ,XsXd.e.e.e.e.e.e.e.e.e.e.e.e.e.e.e.e.e.e.e.e.e.e.e.e.e.e.e.e.e.e.e.e.e.e.e.e.e.e.e.e.e.w.9.,.O.] 1 I ",
"Y.O.,.w.e.e.e.e.e.e.e.e.e.e.e.e.t.p.J.m N D.f ( &Xd.e.e.e.e.w.e.e.e.e.e.e.e.e.e.t.e.e.e.e.e.e.e.e.e.e.e.e.e.e.e.e.e.e.e.t.e.e.e.e.e.e.e.w.9.;.O.] 1 I ",
"Y.O.,.9.e.e.e.e.e.e.e.e.e.e.e.t.g.J.v m N D.N H OXt.e.e.i._._.x.e.t.e.e.e.e.e.e.e.e.e.e.e.e.e.e.e.e.e.e.e.t.e.e.e.e.e.e.e.e.e.e.e.e.e.e.w.9.;.O.' 1 I ",
"Y.O.<.9.e.e.e.e.e.e.e.e.e.e.e.p.J.N m M C.C.C.S aXd.w.4.U.9XgX.Xe.e.e.e.e.e.e.e.e.e.e.e.e.e.e.e.t.e.e.e.e.e.t.e.e.e.e.e.e.e.e.e.e.e.e.e.w.9.,.O.] 1 I ",
"Y.O.,.9.w.e.e.e.e.e.e.e.e.e.e.j.n D.m x C.C.C.A ,X`.u * - J ~.`.a.e.e.e.e.e.e.e.e.e.t.e.e.e.e.t.e.e.e.e.e.e.e.e.e.e.e.e.e.e.e.e.e.e.e.e.w.9.;.O.] 1 I ",
"Y.O.,.w.e.e.e.e.e.e.e.e.e.d.'.I.A D.M h C.D.h ; K t e w 9 9 = ; I.n.e.e.e.e.e.e.e.e.e.e.e.e.e.e.e.e.e.e.e.e.e.e.e.t.e.e.e.t.e.e.e.e.e.w.w.9.;.O.] 1 I ",
"Y.O.,.9.e.e.e.e.e.e.e.e.e.m.!.Z B b C.h C.c = = p C.C.Z.C.C.v i * W.B.e.e.e.e.t.e.e.e.e.e.e.e.e.t.e.e.e.e.e.e.e.e.e.e.e.e.e.e.e.e.e.e.e.w.9.,.O.] 1 I ",
"Y.O.,.w.w.e.e.e.e.e.e.e.t._.C C * g D.j M a 0 m F.C.C.C.C.C.D.D.l a I.l.d.e.e.e.e.e.e.e.e.e.e.e.e.e.e.e.e.e.e.e.e.e.e.e.e.e.e.e.e.e.e.e.w.9.,.O.' 1 I ",
"Y.O.,.9.e.e.e.e.e.e.e.e.e.z.V B O i F.a A z M D.D.C.C.C.C.C.D.C.N N g t /.b.e.e.e.t.e.e.e.e.e.e.e.e.e.e.e.e.e.e.e.e.e.e.e.e.e.e.e.e.e.e.w.9.,.O.' 1 I ",
"Y.O.<.9.e.e.e.e.e.e.e.a.g.L.: B O p v 0 m D.D.C.C.C.D.D.C.C.C.C.N D.D.x B I.M.e.e.e.e.e.e.e.e.e.e.e.i.2.#.2.g.i.e.e.e.e.e.e.e.e.e.e.e.e.w.9.;.O.] 1 I ",
"Y.O.,.w.w.e.e.e.e.a.=.J.Z.v % * 9 m M n v C.D.C.C.C.D.D.C.C.C.C.D.C.D.D.b V Q.B.b.e.e.e.e.e.e.e.e.i.V.W ! G k %.l.s.t.e.e.e.t.e.e.e.e.e.w.9.;.O.] 1 I ",
"Y.O.,.9.e.e.e.t.4.%.a M n M = q D.D.i & p x D.C.N D.M M N D.C.D.b D.D.N D.b S R W.{.a.a.t.e.e.e.e.s.P._ aXoXE.! Y F *.f.p.r.e.e.e.e.e.e.w.9.,.X.' 1 I ",
"Y.+.,.9.e.r.o.*.K.j a V S m s 0 N l Z S M v F.m j D z s j z v D.D.D.C.C.C.D.F.w Z W.K.u u *.z.s.e.a.XX~ I.z.{. XoX(.~.^ U K.*.$.k.6.0.<.1.3.=.@.] 1 I ",
"Y.O.,.w.p.%.p x j t T ^.(.A x j f G tXP.C.C.C.z q S j n n n M D.b l b C.D.N D.D.b b D s * - J Q.{.e.c.OXR.G F _.m.c.|.$XaX6X>XG v M k r e L 7X#.] 1 I ",
"Y.O.,.r.z.!.W C L ,X Xc.c.I.K A a eXmXP.C.C.D.M m A.N C.D.D.D.b N l i f D.D.D.v x n b F.C.w % ; T ].a.t.B.+X!.C P. Xt.e.a.s.M.oXH a g d % y 6X=.' 1 I ",
"Y.O.<.9.t.|.OX@XOXN.e.e.t._.yXwX2XHXMXP.b C.C.D.D.N M D.D.C.C.C.D.D.x 0 x D.M p 9 s v A.m C.v s 9 T [.r.w.y.|.R.V 7Xc.e.e.e.e.a.[.(.~.~ J ,XaX#.' 1 I ",
"Y.O.,.9.e.e.e.a.e.e.e.e.a.l.uXmXBXHXkXM C.N C.C.b m N D.C.C.C.C.C.N D.x 7 v z m v v C.C.n C.C.C.n t K J.S.S.V.A / #Xa.e.e.e.e.e.t.b.|.}.[.OX7.O.' 1 I ",
"Y.O.,.w.w.e.e.e.e.e.e.e.z.C Q :X2XbXR.b D.D.D.D.M D M D.C.C.D.D.C.C.C.D.g 9 S C.D.D.C.C.A.m M C.C.z = a V Y / >X$Xd.e.e.e.e.e.e.e.e.e.e.e.9.;.O.' 1 I ",
"Y.O.,.9.e.e.e.e.e.e.t.5.Y.y 0 D H Q l v c v b D.D.m m D.C.C.C.M C.C.C.C.D.i 9 v D.C.C.C.C.M n n A.C.9 : ~.). Xb.e.e.e.e.e.e.e.e.e.e.e.e.w.9.;.O.' 1 I ",
"Y.O.,.9.e.e.e.e.e.e.f.Z.n a z C.D.v m j g C = g D.b b D.D.b D.D.C.C.D.C.D.b & x D.C.C.C.C.C.m z M D.w J hX.Xe.r.t.e.e.e.e.e.e.e.e.e.e.e.w.9.;.O.] 1 I ",
"Y.O.,.w.e.e.e.e.e.e.$.q p m D.C.D.D.D.x >XbXkX*Xl D.D.D.D.D.D.b C.C.C.C.D.D.g 8 C.C.C.C.C.A.A.m z M 8 - dX%XOXfX[.a.e.e.e.e.e.e.e.e.e.e.w.9.,.O.] 1 I ",
"Y.O.<.9.w.e.e.e.e.p.%.0 j m A.D.D.D.f W ZXHXJXZXQ b C.M M D.D.D.C.C.D.C.D.D.C.7 x C.C.C.C.C.A.z S M w - ). XxXSXeX#Xc.e.e.e.e.e.e.e.e.e.w.9.,.O.' 1 I ",
"Y.O.,.9.e.e.e.e.e.*.j N A.M D A.D.D.z eXZXnXtX>XH b D.D.D.D.D.C.C.D.D.M D.D.D.i p D.C.C.M C.C.A.D.M s Z aXjXDXGXGXeX7X$XM.t.e.e.e.e.e.w.w.9.,.O.] 1 I ",
"Y.O.,.9.w.t.7.k.s.S.v D.D.>XQ b D.v V R.R.F.v h p v c x l x b D.M b D.D.b D.D.l i D.D.D.b b D.N M D.d * (.dXuXbXmX^ eXBX9X}.e.e.e.e.e.e.w.9.,.O.' 1 I ",
"Y.+.,.9.e.N.dX/ $XJ.b b ;X>XF.N N a a b C.C.D.v g l l g g g h g g x b N D.D.D.f h D.D.N D.b x D.D.D.a E cXkX) ) <X<XdX3X6X.Xe.e.e.e.e.e.w.9.;.O.] 1 I ",
"Y.O.,.9.e.N.gXqX^.D D.H bX;Xf D.d & h D.D.D.D.M a 0 D.D.D.D.D.b x v b b N D.N g x D.C.C.D.b i D.D.b B cXHXHXnX<XtXaX`.oX[.x.`.{.l.x.e.e.w.9.;.O.' 1 I ",
"Y.O.,.9.e.d.).xX_ l D.H nXVX;Xz q l D.C.C.C.C.C.l 0 v D.D.v v D.D R.2X>XQ v x p b D.b F.x & 9 D.D.l 2XBXkXZXGXiXnXnXvXhXhXgXZXAXvX6Xm.e.w.9.,.O.] 1 I ",
"Y.@.,.w.e.e.n.^.W z M M Q mXFX_ p D.D.D.C.D.C.C.v l j D.D.v 0 G uXDXGXGXZX0Xa g b l a p *   7 N b D 2XR.n xXHXmXVXCXGXGXDXGXHXGXGX3X).c.k.7.3.@.] 1 I ",
"T.}  .3.u.k.*.D m N C.D.c C rX~.f D.D.b C.C.C.C.D.b i M D.D.i 3XHXHXGXGXHXFX2X;X:XG = % O ) D C.b v c f f wXGXGXHXCXDXCXDXGXGXGXHX5X~.(.vXvXgX(.&.u / ",
"E.G.j k Z.Z.m m v v v D.x % 9 D D.D.l x D.C.D.D.M D.h h D.b A bXHXGXGXFXSXGXFXDXGXmX) - ^ VX~ x G 0XkX0XH V 5XbXCXHXGXGXGXGXGXGXGXZXBXmXpXNXJXbXzXqX<X",
"Q.H.H.F.F.G.H.=X=XH.M v g g C.c i p l v v C.C.D.D.D.v j m p t xXHXHXGXZXnXFXGXGXGXGXDXuXnXGXxX<XcXHXJXGXbXwXBXCXSXGXGXGXGXGXGXGXGXGXGXJXNXyXFXVX*X*X4X",
"@XP.-X-X-X-XH.H.=X-X=XF.q p V Z J q p b b D.D.b h p x d l 8 H xXFXxXcXcXcXCXGXGXGXFXGXDXCXGXHXDXGXGXGXGXHXDXGXHXGXGXGXGXGXGXGXGXGXGXGXGXHXrX<X*XP ~.1X",
"Y.E.P.H.=XH.F.s G.-XH.g : ! ~.6X5X) L G p p p a : q H W Q 8XkXSXFXmXnXZXxXVXHXGXGXGXGXGXGXGXGXGXGXGXGXGXGXGXGXGXGXGXGXGXGXGXGXGXGXGXGXGXHX4XK !.(.u I ",
"Y.#.I.N G.F.H.m i p x q ~.$XM.sXBXGXDXBXqX4X4XzXBXeXbXSXBXHXHXGXGXGXGXGXGXGXGXGXGXGXGXGXGXGXGXGXGXGXGXGXGXGXGXGXGXGXGXGXGXGXGXGXGXGXGXGXmX^ 1X_.] 2 I ",
"Y.O.z.Q.D F.m ; y j D.j !.c.s.hXHXGXGXHXCXGXHXGXHXSXGXGXFXGXGXGXGXGXGXGXGXGXGXGXGXGXGXGXGXGXGXGXGXGXGXGXGXGXGXGXGXGXGXGXGXGXGXGXGXGXGXSXrXbXBX6X%.1 I ",
"Y.O.,.m.(.W.T _ wXQ b p / M.s.9XFXHXHXHXGXFXGXGXGXGXGXGXGXGXGXGXGXGXGXGXGXGXGXGXGXGXGXGXGXGXGXGXGXGXGXGXHXHXGXGXGXGXGXGXGXGXGXGXGXGXGXDXFXHXZX) /.1 I ",
"Y.O.,.w.v.>X4X5XjX@X!./ aXc.a.oX5XiXxXuX4X<XVXHXGXGXGXGXGXGXGXGXGXGXzXCXGXGXGXGXGXGXGXGXGXGXGXGXZXbXDXDXZXpXbXGXGXGXGXGXGXGXGXGXGXGXGXHXHXHXCXlX6Xu I ",
"Y.O.,.w.e.M.aXfXB.a.B.|.d.e.e.v.oX~.T P _ <XnXHXHXGXGXGXGXGXGXGXGXSX( <XzXFXGXGXGXGXFXGXGXGXHXHXGXbX<X) ) ) BXHXHXGXVXGXGXGXGXFXGXGXHXBXZXGXHXGX4XW.R ",
"Y.O.,.9.w.e.y.d.e.e.e.e.e.e.e.e.t.%XrXcXCXpX<XpXyXqXGXGXGXGXGXGXHXpX^ 7X9XGXGXGXGXGXGXGXGXDXrXcXBXeXE ).+X@XrXlXpXeX<XcXHXHXHXHXHXHXxX5XCXHXHXnXP ~.R ",
"Y.O.<.9.w.e.e.e.e.e.e.e.e.e.e.e.e..XAXHXHXZX) ~.~.~.pXZXHXHXHXSXuXJ ^.B.).bXGXGXGXGXHXHXZX<X^ :X~.( @Xb.a.d.[.^./ W.(.^.eXzXxXzXuX<XJ _ yXiX4XL ^ W.I ",
"Y.O.,.9.e.e.e.e.e.e.e.e.e.e.e.e.e.}.iXVXbX_ E #XN.{.(.<XqXwX3X^ J ^..Xe.m.1XyXNXVXVXVXiX^ ^ OXB. X{.d.e.e.e.t.b.m.M.d.M.).W.T P T / (.).~./ / ~./.6 I ",
"Y.O.,.9.w.e.e.e.e.e.e.e.e.e.e.e.e.d.].&.%.%.].c.e.e.c.'.U.&.&.U.oXM.t.e.t.|.Y.U.U.&.%.%.U. Xd.e.e.e.e.e.e.e.e.e.e.e.e.e.a.v.{. X}.v.d.a.c.m.h.#.] 1 I ",
"Y.O.,.w.e.e.e.e.e.e.e.e.e.e.e.e.e.e.e.e.w.w.e.e.e.e.e.e.e.e.e.e.e.e.e.e.e.e.e.e.e.e.e.e.e.e.e.e.e.e.e.e.e.e.e.e.e.e.e.e.e.e.e.e.e.e.e.e.w.9.,.O.] 1 I ",
"Y.O.,.w.e.e.e.e.e.e.e.e.e.e.e.e.e.e.e.e.e.e.e.e.e.e.e.e.e.e.e.t.e.e.e.e.e.e.e.e.e.e.e.e.e.e.e.e.e.e.e.e.e.e.e.e.e.e.e.e.e.e.e.e.e.e.e.e.w.9.;.O.] 1 I ",
"Y.O.,.9.w.e.e.e.e.e.e.e.t.e.e.e.e.e.e.e.e.e.e.e.e.e.e.e.e.e.e.e.e.e.e.e.e.e.e.e.e.e.e.e.e.e.e.e.e.e.e.e.e.e.t.e.e.e.e.e.e.e.e.e.e.e.e.e.w.9.,.O.] 1 I ",
"Y.O.<.9.e.e.e.e.e.e.e.e.e.e.e.e.t.e.e.e.e.e.e.e.e.e.e.e.e.e.e.e.e.e.e.e.e.e.e.e.e.e.e.e.e.e.e.e.e.e.e.e.e.e.e.e.e.t.e.e.t.e.e.e.e.e.e.e.w.9.,.O.] 1 I ",
"Y.O.,.9.e.e.e.e.e.e.t.e.e.e.e.e.e.e.e.e.e.e.e.e.e.e.e.e.e.e.e.e.e.e.e.e.e.t.e.e.e.e.e.e.e.t.e.e.e.e.e.e.e.e.e.e.e.e.e.e.e.e.e.e.e.e.e.w.w.9.;.O.] 1 I ",
"Y.O.,.9.e.e.e.e.t.e.e.e.e.e.e.t.e.e.e.e.e.t.e.e.e.e.e.e.e.e.e.e.e.e.e.e.e.e.e.e.e.e.e.e.w.;.8.e.e.e.e.e.t.e.e.e.e.e.e.e.e.e.e.e.e.e.e.e.w.9.,.O.] 1 I ",
"Y.O.,.9.w.e.e.e.e.e.8.' 4 4 4 ' 9.e.e.e.e.e.e.e.e.e.e.e.e.e.e.e.e.e.e.e.e.e.e.e.e.e.e.e.;.+ 5 e.e.e.e.e.e.e.e.e.e.e.e.e.e.e.e.e.e.e.e.e.w.9.,.O.' 1 I ",
"Y.O.,.w.e.e.e.e.e.e.-.o . # $ 4 9.e.e.e.e.e.e.e.t.e.e.e.t.e.e.e.e.e.e.e.e.e.t.e.t.e.e.e.<.X 4 e.e.e.e.e.e.e.e.e.e.e.e.e.e.e.e.e.e.e.e.e.w.9.;.O.] 1 I ",
"Y.O.,.9.e.e.e.e.e.e.-.o < 8.w.e.r.e.<.[ <.r.-.X.w.e.e.O.+.+.` ..9.e.t.e.X.-.e.w...;.e.e.<.X 4 e.e.e.-.' ' 1.e.e.e.r.X.` ..q.e.e.e.e.e.e.w.9.;.O.] 1 I ",
"Y.O.<.9.w.e.e.e.e.e.-.X > -.;.8.e.e.:.o 1 ;.# 1 9.e.9., o @ o X ` w.e.8.# 1 r.,.o 5 e.e.,.X 3 e.e.1.@ $ $ 5 e.e.9.3 o > + 1 q.e.e.e.e.e.w.9.,.O.] 1 I ",
"Y.O.,.9.e.e.e.e.e.e.-.o . @ # [ e.e.w.2 . $ X X.e.e.q., . ` O.+ @ <.e.8.@ 1 w.1.X 3 e.e.<.X 3 e.e...  4 1.<.e.e.+.. 3 ;.1 X +.e.e.e.e.e.w.9.,.O.] 1 I ",
"Y.O.,.w.w.e.e.e.e.e.-.o # ..O.<.e.e.e.-.X   < w.e.e.w., @ <.e., X ;.e.8.# < w.;.X 3 e.e.<.o 4 w.e.1.$ X < +.e.e.]   @ > @ X X.e.e.e.e.e.w.9.;.O.' 1 I ",
"Y.O.,.9.e.e.e.e.e.e.-.o < w.e.t.e.e.e....   @ ,.e.e.r., + ;.w., X ;.e.8.@ > 9.-.. 3 w.e.<.+ 2 w.e.e.<.` o # <.e.[   2 ....X.8.e.e.e.e.e.w.8.,.O.] 1 I ",
"Y.O.,.w.w.e.e.e.e.e.-.o @ ` ' ..w.e.<.$ # 3   5 e.e.9.<   1 4 X , 0.e.9.$ X 5 >   2 e.e.<.+ 2 w.e.1.X.+.$ @ 1.e.:.o $ +.O.[ 9.e.e.e.e.e.w.9.;.O.] 1 I ",
"Y.O.,.9.e.e.e.e.e.e.;.@ X + @ < <.e.X.@ ` ;.$ $ <.e.9.,   o X + ] w.e.w.` X X @ o 3 w.e.1.# 3 e.e.O.@ + o 1 9.e.9.2 o + + , ,.e.e.e.e.e.w.9.,.O.] 1 I ",
"Y.O.<.9.e.e.e.e.e.e.8.' ] -.-.1.w.e.8.[ [ @.` O.w.e.9., o ] X.' ..9.e.w...` X.O.` ..r.e.8.' X.r.e.8.:.O.' [ 9.r.8.[ [ +.:.1.w.e.e.e.e.e.w.9.,.O.] 1 I ",
"Y.O.,.w.w.e.e.e.t.t.9.O.:.r.e.e.t.e.t.8.X.X.+.r.t.e.q.< @ 1.t.:.O.q.e.r.@.-.r.w.O.:.e.e.9.O.;.e.e.e.9.1.X.+.w.e.<.X.:.<.<.<.r.e.t.e.t.e.w.9.;.O.' 1 I ",
"Y.O.,.9.e.e.e.t.t.a.q.:.>.0.0.i.t.t.a.0.:.:.>.r.t.t.r.{ ` 0.t.1.:.q.t.r.>.>.r.i.>.1.t.t.q.:.1.y.t.q.>.:.6.q.t.a.0.:.>.1.>.:.0.y.t.a.t.t.w.9.,.O.] 1 I ",
"Y.+.,.9.w.r.i.i.i.i.u.5.3.1.5.6.i.i.i.6.5.5.>.u.i.i.i.5.3.6.u.5.5.u.i.i.5.6.i.i.5.5.i.i.u.5.6.i.i.u.5.6.u.u.i.i.u.5.6.u.6.5.u.i.i.i.i.i.i.0.;.O.] 1 I ",
"Y.O.,.9.0.5.5.5.5.5.3.3.3.5.5.5.5.5.5.3.3.3.3.3.5.5.3.3.3.3.3.3.5.5.5.5.3.3.5.5.3.3.5.5.5.3.3.5.5.5.3.3.3.5.5.5.5.3.3.3.3.3.5.5.5.5.5.5.5.5.;.O.] 1 I ",
"Y.O.,.:.o.o.o.o.o.o.o.o.o.o.o.o.o.o.o.o.o.o.o.o.o.o.o.o.o.o.o.o.o.o.o.o.o.o.o.o.o.o.o.o.o.o.o.o.o.o.o.o.o.o.o.o.o.o.o.o.o.o.o.o.o.o.o.o.o.o.o.X.' 1 I ",
"Y.O.@. . . . . . . . . . . . . . . . . . . . . . . . . . . . . . . . . . . . . . . . . . . . . . . . . . . . . . . . . . . . . . . . . . . . . .{ 1 I ",
"].#.h.h.h.h.h.h.h.h.h.h.h.h.h.h.h.h.h.h.h.h.h.h.h.h.h.h.h.h.h.h.h.h.h.h.h.h.h.h.h.h.h.h.h.h.h.h.h.h.h.h.h.h.h.h.h.h.h.h.h.h.h.h.h.h.h.h.h.h.h.h.h.| U ",
"&X.X%X%X%X%X%X%X%X%X%X%X%X%X%X%X%X%X%X%X%X%X%X%X%X%X%X%X%X%X%X%X%X%X%X%X%X%X%X%X%X%X%X%X%X%X%X%X%X%X%X%X%X%X%X%X%X%X%X%X%X%X%X%X%X%X%X%X%X%X%X%X%X XdX"
};
