/* XPM */
static char *fork[] = {
/* columns rows colors chars-per-pixel */
"75 75 249 2",
"   c #020203",
".  c #080600",
"X  c #0C0A02",
"o  c #02040A",
"O  c #0C0C0C",
"+  c #100E00",
"@  c #141308",
"#  c #040815",
"$  c #090D1D",
"%  c #081111",
"&  c #141414",
"*  c #181616",
"=  c #1B1B1B",
"-  c #211C00",
";  c #2B2606",
":  c #302B0D",
">  c #070F2B",
",  c #0C1223",
"<  c #0A152B",
"1  c #171A27",
"2  c #0A1335",
"3  c #121934",
"4  c #131A39",
"5  c #142727",
"6  c #152929",
"7  c #252525",
"8  c #2C2B2C",
"9  c #30302F",
"0  c #333333",
"q  c #383735",
"w  c #3D3D3D",
"e  c #413906",
"r  c #4B4207",
"t  c #76670C",
"y  c #45432D",
"u  c #655E34",
"i  c #796F30",
"p  c #0E1947",
"a  c #101D51",
"s  c #1B254B",
"d  c #1B2755",
"f  c #212D5A",
"g  c #132365",
"h  c #162975",
"j  c #293768",
"k  c #29397B",
"l  c #374D52",
"z  c #2A5D5D",
"x  c #2E446D",
"c  c #306B6B",
"v  c #3F7070",
"b  c #434343",
"n  c #4C4C4B",
"m  c #52534D",
"M  c #535353",
"N  c #5A5A5A",
"B  c #6C6951",
"V  c #414B65",
"C  c #636363",
"Z  c #6B6B6B",
"A  c #707266",
"S  c #717171",
"D  c #7A7A7A",
"F  c #8D7B14",
"G  c #9B850D",
"H  c #958211",
"J  c #A18A0B",
"K  c #B9A214",
"L  c #9C8D29",
"P  c #A08D21",
"I  c #AC9B2E",
"U  c #C4AA13",
"Y  c #CCB213",
"T  c #C3AE2D",
"R  c #CBB635",
"E  c #A39B5E",
"W  c #B8AC59",
"Q  c #A19A63",
"!  c #A29E75",
"~  c #A9A26A",
"^  c #B2AB6E",
"/  c #BCB26B",
"(  c #A7A378",
")  c #B5AD71",
"_  c #C9BA57",
"`  c #05168A",
"'  c #07198E",
"]  c #091C91",
"[  c #0C2187",
"{  c #152988",
"}  c #1B3188",
"|  c #0C2094",
" . c #132894",
".. c #243780",
"X. c #1A35A7",
"o. c #1E3AB3",
"O. c #3B4A82",
"+. c #25518B",
"@. c #354891",
"#. c #3A4E9C",
"$. c #266792",
"%. c #3E54A7",
"&. c #2644BD",
"*. c #2B4ABC",
"=. c #344EB1",
"-. c #3D63BE",
";. c #445591",
":. c #4158B1",
">. c #445CB9",
",. c #2949C7",
"<. c #314EC1",
"1. c #3A57C7",
"2. c #3553CA",
"3. c #3E5ACB",
"4. c #3757D0",
"5. c #3265C1",
"6. c #435EC9",
"7. c #4A64C8",
"8. c #5870C3",
"9. c #4C69D9",
"0. c #516DDC",
"q. c #6078D2",
"w. c #4C6AE3",
"e. c #516FE4",
"r. c #5472E4",
"t. c #5B78E7",
"y. c #5C7AED",
"u. c #5778F7",
"i. c #5B7BF4",
"p. c #5E7FFE",
"a. c #627CE6",
"s. c #617DEA",
"d. c #38898C",
"f. c #3F8EAA",
"g. c #4997B0",
"h. c #7C8AB2",
"j. c #48A9A9",
"k. c #4EAAB5",
"l. c #4DB3B2",
"z. c #53B9BB",
"x. c #63AFAF",
"c. c #6E81C3",
"v. c #778ACA",
"b. c #7E90C7",
"n. c #6B82D9",
"m. c #768AD6",
"M. c #6896DB",
"N. c #6AB7D2",
"B. c #5B84E7",
"V. c #5D83F2",
"C. c #5F80FE",
"Z. c #6681EC",
"A. c #6A84EA",
"S. c #778DE5",
"D. c #798FE3",
"F. c #738BE9",
"G. c #6598EA",
"H. c #7794EB",
"J. c #6180F4",
"K. c #6A85F4",
"L. c #618BF4",
"P. c #6E8AF5",
"I. c #6081FE",
"U. c #6B87F9",
"Y. c #6F8AFC",
"T. c #728BF3",
"R. c #708CFF",
"E. c #6493F2",
"W. c #679DF0",
"Q. c #7892FD",
"!. c #6AA7E6",
"~. c #69A3EB",
"^. c #7EACE4",
"/. c #71B8E7",
"(. c #5BC4C4",
"). c #68CBCB",
"_. c #79D5D6",
"`. c #73D8D8",
"'. c #75C4E7",
"]. c #7EDBE7",
"[. c #7CD3EB",
"{. c #7CCEF7",
"}. c #7CE3E2",
"|. c #848484",
" X c #8C8C8C",
".X c #8F9286",
"XX c #9C9D87",
"oX c #909090",
"OX c #969A91",
"+X c #959B9A",
"@X c #9B9C9C",
"#X c #9FA08A",
"$X c #9EA193",
"%X c #A6A587",
"&X c #B3AF88",
"*X c #B7B388",
"=X c #A8A897",
"-X c #BCB997",
";X c #8C94A2",
":X c #828FB5",
">X c #99A0AA",
",X c #A1A1A1",
"<X c #A4A8A8",
"1X c #A8A8A8",
"2X c #A8AEBD",
"3X c #B3B3B3",
"4X c #BBBBBB",
"5X c #C3BF9E",
"6X c #C1BEA3",
"7X c #C5C3A6",
"8X c #8392C5",
"9X c #8697D7",
"0X c #9AA7D6",
"qX c #94A3DC",
"wX c #A8B2D3",
"eX c #8699E8",
"rX c #849AF3",
"tX c #8A9FF3",
"yX c #92A4E9",
"uX c #85B8E7",
"iX c #8CA3FF",
"pX c #A1AFE1",
"aX c #A5B3E6",
"sX c #86CEDA",
"dX c #8CD2ED",
"fX c #BCC5EC",
"gX c #8FE5E4",
"hX c #8CECEC",
"jX c #98EBEB",
"kX c #84E3F2",
"lX c #88EDF3",
"zX c #8AF4F6",
"xX c #8CF4F5",
"cX c #8EFAFA",
"vX c #97F3F3",
"bX c #91FFFF",
"nX c #A3F1F1",
"mX c #A9F4F8",
"MX c #ADFCFC",
"NX c #C5C5C5",
"BX c #CBCBCB",
"VX c #D2D2D0",
"CX c #D4D4D4",
"ZX c #DBDBDB",
"AX c #CED4F2",
"SX c #E6E6E6",
"DX c #EBEBEB",
"FX c #F5F5F5",
"GX c #FFFFFF",
/* pixels */
"FXFXFXFXFXFXFXFXFXFXFXFXFXFXFXFXFXFXFXFXFXFXFXFXFXFXFXFXFXFXFXFXFXFXFXFXFXFXFXFXFXFXFXFXFXFXFXFXFXFXFXFXFXFXFXFXFXFXFXFXFXFXFXFXFXFXFXFXFXFXFXFXFXFXDX",
"CXSXFXFXFXFXFXFXFXFXFXFXFXFXFXFXFXFXFXFXFXFXFXFXFXFXFXFXFXFXFXFXFXFXFXFXFXFXFXFXFXFXFXFXFXFXFXFXFXFXFXFXFXFXFXFXFXFXFXFXFXFXFXFXFXFXFXFXDXFXFXFXFXCX@X",
"4XNXFXGXGXGXGXGXGXGXGXGXGXGXFXGXGXGXGXGXGXGXGXGXGXGXFXGXGXGXGXGXGXGXGXGXGXGXFXGXGXGXGXGXGXGXGXGXGXGXFXGXGXGXGXGXGXGXGXGXGXGXFXGXGXGXGXGXGXGXGXGXSXD S ",
"4X3XZXGXGXGXGXGXGXGXGXGXGXGXGXGXGXGXGXGXGXGXGXGXGXGXGXGXGXGXGXGXGXGXGXGXGXGXGXGXGXGXGXGXGXGXGXGXGXGXGXGXGXGXGXGXGXGXGXGXGXGXGXGXGXGXGXGXGXGXGXDX<XN S ",
"4X3XCXFXGXGXGXGXGXGXGXGXGXGXGXGXGXGXGXGXGXGXGXGXGXGXGXGXGXGXGXGXGXGXGXGXGXGXGXGXGXGXGXGXGXGXGXGXGXGXGXGXGXGXGXGXGXGXGXGXGXGXGXGXGXGXGXGXGXGXFXNXoXN S ",
"4X3XZXDXFXGXGXGXGXGXGXGXGXGXGXGXGXGXGXGXGXGXGXGXGXGXGXGXGXGXGXGXGXGXGXGXGXGXGXGXGXGXGXGXGXGXGXGXGXGXGXGXGXGXGXGXGXGXGXGXGXGXGXGXGXGXGXGXGXGXCX3XoXN S ",
"4X3XCXDXGXGXGXGXGXGXGXGXGXGXGXGXGXGXGXGXGXGXGXGXGXGXGXGXFXSXSXDXFXGXGXGXGXGXGXGXGXGXGXGXGXGXGXGXGXGXGXGXGXGXGXGXGXGXGXGXGXGXGXGXGXGXGXGXGXDXVX3XoXN S ",
"4X3XZXDXGXGXGXGXGXGXGXGXGXGXGXGXGXGXGXGXGXGXGXGXGXSX@XZ n q 9 n N |.3XSXGXGXGXGXGXGXGXGXGXGXGXGXGXGXGXGXGXGXGXGXGXGXGXGXGXGXGXGXGXGXGXGXFXSXBX3XoXN S ",
"4X3XCXDXGXGXGXGXGXGXGXGXGXGXGXGXGXGXGXGXGXGXGXDXoX9 o   $ 3 3 , #   O 9 D NXFXGXGXGXGXGXGXGXGXGXGXGXGXGXGXGXGXGXGXGXGXGXGXGXGXGXGXGXGXGXFXSXCX3X XN S ",
"4X3XZXFXFXGXGXGXGXGXGXGXGXGXGXGXGXGXGXGXGXGXZXN X $ j :.7.0.r.9.7.#.f $   * C NXFXGXGXGXGXGXGXGXGXGXGXGXGXGXGXGXGXGXGXGXGXGXGXGXGXGXGXGXFXSXVX3XoXN S ",
"4X3XCXDXGXGXGXGXGXGXGXGXGXGXGXGXGXGXGXGXGXSXn   s 7.p.I.I.p.p.I.I.I.p.0.@.4   & S ZXGXGXGXGXGXGXGXGXGXGXGXGXGXGXGXGXGXGXGXGXGXGXGXGXGXGXFXSXCX3XoXN S ",
"4X3XCXDXGXGXGXGXGXGXGXGXGXGXGXGXGXGXGXGXFXZ   d e.p.I.p.p.p.p.i.i.i.i.i.p.r.#.3   0 <XFXGXGXGXGXGXGXGXGXGXGXGXGXGXGXGXGXGXGXGXGXGXGXGXGXFXDXVX3XoXN S ",
"4X3XCXDXFXGXGXGXGXGXGXGXGXGXGXGXGXGXGXGX3XO 3 0.p.p.p.p.p.p.i.a.a.A.a.a.s.y.p.0.k O O S DXGXGXGXGXGXGXGXGXGXGXGXGXGXGXGXGXGXGXGXGXGXGXGXFXSXCX3XoXN S ",
"4X3XZXDXGXGXGXGXGXGXGXGXGXGXGXGXGXGXGXDXn o %.p.p.p.p.p.p.y.s.R.R.R.R.R.Y.K.s.i.u.:.3 . M CXGXGXGXGXGXGXGXGXGXGXGXGXGXGXGXGXGXGXGXGXGXGXFXSXVX3XoXN S ",
"4X3XCXDXFXGXGXGXGXGXGXGXGXGXGXGXGXGXGX4XO 4 r.p.p.p.p.p.i.s.Y.R.R.R.R.R.Y.R.Y.s.t.I.8.d   q 7XGXGXGXGXGXGXGXGXGXGXGXGXGXGXGXGXGXGXGXGXGXFXDXVX3X XN S ",
"4X3XCXFXGXGXGXGXGXGXGXGXGXGXGXGXGXGXGXS   ..p.I.p.p.p.I.i.Z.R.R.R.R.Y.T.Q.T.P.R.K.m./ .Xj X 9 NXGXGXGXGXGXGXGXGXGXGXGXGXGXGXGXGXGXGXGXGXFXDXVX3XoXN S ",
"4X3XZXDXGXGXGXGXGXGXGXGXGXGXGXGXGXGXSXw # #.p.p.I.p.p.p.i.R.R.R.R.P.F.tXiXeXD.F.Y.9X^ OX~ u . 8 NXGXGXGXGXGXGXGXGXGXGXGXGXGXGXGXGXGXGXGXFXSXVX3XoXN S ",
"4X3XCXDXFXGXGXGXGXGXGXGXGXGXGXGXGXGXBX& 2 =.p.p.p.p.p.p.t.R.R.Y.R.T.rXiXyXAXfXqXA.9X( q.A.h.V o 8 BXGXGXGXGXGXGXGXGXGXGXGXGXGXGXGXGXGXGXFXSXVX3X XN S ",
"4X3XCXDXGXGXGXGXGXGXGXGXGXGXGXGXGXGX3X  a 3.p.p.p.p.p.p.t.R.R.R.Y.T.iXiX0XCXAXaXrX8X~ n.y.p.y.x   n SXGXGXGXGXGXGXGXGXGXGXGXGXGXGXGXGXGXFXSXCX3XoXN S ",
"4X3XCXFXFXGXGXGXGXGXGXGXGXGXGXGXGXGX+X  g 3.p.p.p.p.p.p.s.R.R.R.R.T.iXiX0X7XVX4XqX9X! S.s.i.V.N.z   Z FXGXGXGXGXGXGXGXGXGXGXGXGXGXGXGXGXFXDXVX3XoXN S ",
"4X3XCXFXGXGXGXGXGXGXGXGXGXGXGXGXGXGX|.  h 3.p.p.p.I.p.p.p.Y.R.R.R.R.iXiXpX5XaX2X5X*X) m.U.t.V.lX_.8 O ,XGXGXGXGXGXGXGXGXGXGXGXGXGXGXGXGXFXSXVX3XoXN S ",
"4X3XCXDXGXGXGXGXGXGXGXGXGXGXGXGXGXGXS   } 3.p.p.p.p.p.p.y.Z.R.H.T.P.eXiXpX4XyXiXyXwX=XF.Y.y.!.bXcXx.% 8 CXGXGXGXGXGXGXGXGXGXGXGXGXGXGXGXFXSXVX3XoXN S ",
"4X3XCXDXFXGXGXGXGXGXGXGXGXGXGXGXGXGXS o } 1.p.p.p.p.p.p.i.s.R.*X&X8XH.tXaX6XyXiXiXiXm.P.Y.A.dXbXbXcXv   S FXGXGXGXGXGXGXGXGXGXGXGXGXGXGXFXDXVX3XoXN S ",
"4X3XZXDXGXGXGXGXGXGXGXGXGXGXGXGXGXGXD o } <.p.p.p.p.p.p.p.s.m.*X>X&X=XqXaX-XtXiXiXiXF.U.Y.M.hXbXbXbX_.6 = CXGXGXGXGXGXGXGXGXGXGXGXGXGXGXFXSXVX3X XN S ",
"4X3XZXDXFXGXGXGXGXGXGXGXGXGXGXGXGXGX|.  h 4.u.p.p.v.b.C.p.y.:X( Y.S.>X%X5X-XtXtXiXrXF.Y.T.sXhXbXbXbXvXd.  S GXGXGXGXGXGXGXGXGXGXGXGXGXGXFXSXVX3X XN S ",
"4X3XZXDXGXGXGXGXGXGXGXGXGXGXGXGXGXGX+X  h <.e.C.i.%X_ ;XV.p.;X@XY.R.Y.S.<X=XtXiXrXF.Y.P.dXjXhXbXbXbXbX_.$ 8 ZXGXGXGXGXGXGXGXGXGXGXGXGXGXFXSXVX3XoXN S ",
"4X3XCXDXFXGXGXGXGXGXGXGXGXGXGXGXGXGX,X  s A 8.C.Z.~ ;X%X%Xn..Xb.R.R.Y.R.U.F.Q.Q.T.Y.Y.uXmXvXbXbXbXbXbX[.j . ,XGXGXGXGXGXGXGXGXGXGXGXGXGXFXDXVX3XoXN S ",
"4X3XZXDXGXGXGXGXGXGXGXGXGXGXGXGXGXGX4X  1 L Q Z.A.) q.V.;X/ W h.U.R.R.R.R.R.R.R.Y.K.^.mXmXgXbXbXbXbXbX/.%.o C FXGXGXGXGXGXGXGXGXGXGXGXGXFXDXVX3XoXN S ",
"4X3XCXDXGXGXGXGXGXGXGXGXGXGXGXGXGXGXCX7 ; i S ( :X*Xu.C.p.h.$Xt.y.K.R.R.R.R.R.R.T.^.mXMXjXcXbXbXbXbXxXW.0., 7 SXGXGXGXGXGXGXGXGXGXGXGXGXFXSXVX3XoXN S ",
"4X3XZXDXGXGXGXGXGXGXGXGXGXGXGXGXGXGXDXw + m =..X_ $Xp.p.C.C.p.p.C.t.K.Y.R.R.Y.T.uXmXMXnXhXcXbXbXbXbXdXJ.p.s & NXGXGXGXGXGXGXGXGXGXGXGXGXFXSXVX3XoXN S ",
"4X3XCXDXFXGXGXGXGXGXGXGXGXGXGXGXGXGXGXC   j ,.6.%X;Xp.p.C.C.C.C.C.p.t.t.Z.T.H.dXMXnXjXxXbXbXbXbXcXzX~.p.p.k O @XGXGXGXGXGXGXGXGXGXGXGXGXFXDXVX3X XN S ",
"4X3XZXDXGXGXGXGXGXGXGXGXGXGXGXGXGXGXGX+XX g ,.2.t.Z.p.p.C.C.p.p.p.p.p.V.M.'.sXgXvXvXxXbXbXbXbXcXcX'.V.C.p.#.  D GXGXGXGXGXGXGXGXGXGXGXGXFXSXVX3XoXN S ",
"4X3XCXDXGXGXGXGXGXGXGXGXGXGXGXGXGXGXGXCX* > &.,.w.C.p.p.C.C.p.p.C.V.!.'.xXbXbXcXbXbXbXbXbXbXbXbX[.L.p.p.I.:.  C GXGXGXGXGXGXGXGXGXGXGXGXFXSXVX3X XN S ",
"4X3XZXFXFXGXGXGXGXGXGXGXGXGXGXGXGXGXGXFXm # +.5.-.y.i.V.V.V.E.~.'.kXxXbXbXbXbXbXbXbXbXbXbXbXcXkXE.p.p.p.I.>.  C GXGXGXGXGXGXGXGXGXGXGXGXFXSXVX3XoXN S ",
"4X3XCXDXGXGXGXGXGXGXGXGXGXGXGXGXGXGXGXGXoX  z z.k.z.[.[.[.].lXbXbXbXbXbXbXbXbXbXbXbXbXbXbXcXkXG.p.p.p.p.I.>.  C GXGXGXGXGXGXGXGXGXGXGXGXFXDXVX3XoXN S ",
"4X3XCXDXGXGXGXGXGXGXGXGXGXGXGXGXGXGXGXGXCX7 = j.(.(.hXbXbXbXbXbXbXbXbXbXbXbXbXbXbXbXbXbXbX[.L.p.p.p.p.p.p.%.  S GXGXGXGXGXGXGXGXGXGXGXGXFXDXVX3X XN S ",
"4X3XCXDXFXGXGXGXGXGXGXGXGXGXGXGXGXGXGXGXGXZ   c z.z.).cXbXbXbXbXbXbXbXbXbXbXbXbXbXbXbXlX/.L.p.p.p.p.p.p.p.O.o +XGXGXGXGXGXGXGXGXGXGXGXGXFXDXVX3XoXN S ",
"4X3XZXDXGXGXGXGXGXGXGXGXGXGXGXGXGXGXGXGXGXBX& 5 g.l.(.`.bXbXbXbXbXbXbXbXbXbXbXbXbXcX[.G.p.p.p.p.p.C.p.p.v.y O 4XGXGXGXGXGXGXGXGXGXGXGXGXFXSXVX3XoXN S ",
"4X3XCXDXFXGXGXGXGXGXGXGXGXGXGXGXGXGXGXGXGXFXS   z j.j.(.}.bXbXbXbXbXbXbXbXbXbXzX[.!.J.p.p.p.p.p.p.C.p.A.Q ; 1 ZXGXGXGXGXGXGXGXGXGXGXGXGXFXDXVX3XoXN S ",
"4X3XCXFXGXGXGXGXGXGXGXGXGXGXGXGXGXGXGXGXGXGXZX9 % d.d.l.(.}.bXcXbXbXbXcXxXkX/.W.J.p.p.p.p.p.I.p.p.p.J.#XF X M FXGXGXGXGXGXGXGXGXGXGXGXGXFXSXBX3XoXN S ",
"4X3XZXDXGXGXGXGXGXGXGXGXGXGXGXGXGXGXGXGXGXGXGX<XO < +.$.f.g.N.].kX[.{./.G.J.i.p.p.p.p.p.p.p.p.p.C.i.+XT r . @XGXGXGXGXGXGXGXGXGXGXGXGXGXFXSXVX3XoXN S ",
"4X3XCXDXFXGXGXGXGXGXGXGXGXGXGXGXGXGXGXGXGXGXGXFXZ   p  .[ X.*.-.t.B.i.p.p.p.p.p.p.p.p.p.I.p.p.p.J.+XR H X q ZXGXGXGXGXGXGXGXGXGXGXGXGXGXFXSXVX3XoXN S ",
"4X3XCXDXGXGXGXGXGXGXGXGXGXGXGXGXGXGXGXGXGXGXGXGXSXn   p { ' X.&.2.w.p.p.p.p.p.p.p.p.p.p.p.p.p.A.XXT K e   oXGXGXGXGXGXGXGXGXGXGXGXGXGXGXFXDXCX3XoXN Z ",
"4X3XCXFXFXGXGXGXGXGXGXGXGXGXGXGXGXGXGXGXGXGXGXGXGXCXb   p { ' | o.*.2.w.u.p.p.p.p.I.p.p.p.p.c.E T U t   b SXGXGXGXGXGXGXGXGXGXGXGXGXGXGXFXDXVX3XoXN S ",
"4X3XCXFXGXGXGXGXGXGXGXGXGXGXGXGXGXGXGXGXGXGXGXGXGXGXCXn   2 { ] ` | o.&.4.4.9.u.i.i.y.u.q.D I U U t + = NXGXGXGXGXGXGXGXGXGXGXGXGXGXGXGXFXSXVX3XoXN S ",
"4X3XCXDXGXGXGXGXGXGXGXGXGXGXGXGXGXGXGXGXGXGXGXGXGXGXGXZXN o # g  .] ' | X.o.,.,.*.*.;.A I U Y U t + * 1XGXGXGXGXGXGXGXGXGXGXGXGXGXGXGXGXFXSXVX3XoXN S ",
"4X3XCXDXFXGXGXGXGXGXGXGXGXGXGXGXGXGXGXGXGXGXGXGXGXGXGXGXDX X=   2 h  .] ` ' | k V B P Y Y Y G e X = 1XGXGXGXGXGXGXGXGXGXGXGXGXGXGXGXGXGXFXDXVX3X XN S ",
"4X3XZXDXGXGXGXGXGXGXGXGXGXGXGXGXGXGXGXGXGXGXGXGXGXGXGXGXGXGXNXN O   > d l u i F G J J J F e +   b 4XGXGXGXGXGXGXGXGXGXGXGXGXGXGXGXGXGXGXFXDXCX3XoXN S ",
"4X3XZXDXFXGXGXGXGXGXGXGXGXGXGXGXGXGXGXGXGXGXGXGXGXGXGXGXGXGXGXFX3XN =   + - : : e e ; @ . o q +XSXGXGXGXGXGXGXGXGXGXGXGXGXGXGXGXGXGXGXGXFXDXBX3XoXN S ",
"4X3XZXDXGXGXGXGXGXGXGXGXGXGXGXGXGXGXGXGXGXGXGXGXGXGXGXGXGXGXGXGXGXFXBXoXC 8 * & & & * 0 S 1XSXGXGXGXGXGXGXGXGXGXGXGXGXGXGXGXGXGXGXGXGXGXFXSXCX3XoXN S ",
"4X3XCXDXFXGXGXGXGXGXGXGXGXGXGXGXGXGXGXGXGXGXGXGXGXGXGXGXGXGXGXGXGXGXGXGXFXDXZXCXVXVXZXDXGXGXGXGXGXGXGXGXGXGXGXGXGXGXGXGXGXGXGXGXGXGXGXGXFXDXBX3X XN S ",
"4X3XZXDXGXGXGXGXGXGXGXGXGXGXGXGXGXGXGXGXGXGXGXGXGXGXGXGXGXGXGXGXGXGXGXGXGXGXGXGXGXGXGXGXGXGXGXGXGXGXGXGXGXGXGXGXGXGXGXGXGXGXGXGXGXGXGXGXFXDXCX3XoXN S ",
"4X3XCXDXGXGXGXGXGXGXGXGXGXGXGXGXGXGXGXGXGXGXGXGXGXGXGXGXGXGXGXGXGXGXGXGXGXGXGXGXGXGXGXGXGXGXGXGXGXGXGXGXGXGXGXGXGXGXGXGXGXGXGXGXGXGXGXGXFXDXBX3XoXN S ",
"4X3XZXDXGXGXGXGXGXGXGXGXGXGXGXGXGXGXGXGXGXGXGXGXGXGXGXGXGXGXGXGXGXGXGXGXGXGXGXGXGXGXGXGXGXGXGXGXGXGXGXGXGXGXGXGXGXGXGXGXGXGXGXGXGXGXGXGXFXSXCX3XoXN S ",
"4X3XCXDXFXGXGXGXGXGXGXGXGXGXGXGXGXGXGXGXGXGXGXGXGXGXGXGXGXGXGXGXGXGXGXGXGXGXGXGXGXGXGXGXGXGXGXGXGXGXGXGXGXGXGXGXGXGXGXGXGXGXGXGXGXGXGXGXFXDXCX3XoXN S ",
"4X3XZXDXGXGXGXGXGXGXGXGXGXGXGXGXGXGXGXGXGXGXGXGXGXGXGXGXGXGXGXGXGXGXGXGXGXGXGXGXGXGXGXGXGXGXGXGXGXGXGXGXGXGXGXGXGXGXGXGXGXGXGXGXGXGXGXGXFXSXCX3XoXN S ",
"4X3XCXDXGXGXGXGXGXGXGXGXGXGXGXGXGXGXGXGXGXGXGXGXGXGXGXGXGXGXGXGXGXGXGXGXGXGXGXGXGXGXGXGXGXGXGXGXGXGXGXGXGXGXGXGXGXGXGXGXGXGXGXGXGXGXGXGXFXDXBX3XoXN S ",
"4X3XZXFXFXGXGXGXGXGXGXGXGXGXGXGXGXGXGXGXGXGXFXFXDXDXDXGXGXGXGXGXGXGXGXGXGXGXGXGXGXGXGXGXGXFX,XoXFXGXGXGXGXGXGXGXGXGXGXGXGXGXGXGXGXGXGXGXFXSXCX3XoXN S ",
"4X3XCXDXGXGXGXGXGXGXGXGXGXGXGXGXGXGXGXGXGXGXCXb 8 7 e oXGXGXGXGXGXGXGXGXGXGXGXGXGXGXGXGXGXFXw q SXGXGXGXGXGXGXGXGXGXGXGXGXGXGXGXGXGXGXGXFXDXBX3X XN S ",
"4X3XCXDXGXGXGXGXGXGXGXGXGXGXGXGXGXGXGXGXGXGXNX& 8 S ;.3XFXGXGXGXFXDXDXGXGXGXGXGXFXGXDXFXGXFXw q SXGXFXFXGXGXGXGXGXGXGXGXGXGXGXGXGXGXGXGXFXDXCX3XoXN S ",
"4X3XCXDXFXGXGXGXGXGXGXGXGXGXGXGXGXGXGXGXGXGXNX& M FXGXGXGXGXGXVXD b b  XDXGXGXSXA  Xm ,XGXFXb 9 ZX,Xn NXGXGXGXGXGXGXGXGXGXGXGXGXGXGXGXGXFXSXVX3XoXN S ",
"4X3XZXDXGXGXGXGXGXGXGXGXGXGXGXGXGXGXGXGXGXGXBX* b 3X3XZXGXGXDXM & N b O  XFXGXNX@ @ 9 oXGXFXn 0 +X* w ZXGXGXGXGXGXGXGXGXGXGXGXGXGXGXGXGXFXSXVX3XoXN S ",
"4X3XCXDXFXGXGXGXGXGXGXGXGXGXGXGXGXGXGXGXGXGXBX= O O * @XGXGX3XO Z FXBX= w DXGXBXO f CXFXGXFXn * = 0 NXGXGXGXGXGXGXGXGXGXGXGXGXGXGXGXGXGXFXDXVX3XoXN S ",
"4X3XCXFXGXGXGXGXGXGXGXGXGXGXGXGXGXGXGXGXGXGXBX* b 1XNXSXGXGX=Xo |.GXDX0 8 SXGXCX& C FXGXGXFXn O O 9 VXGXGXGXGXGXGXGXGXGXGXGXGXGXGXGXGXGXFXSXCX3X XN S ",
"4X3XZXDXGXGXGXGXGXGXGXGXGXGXGXGXGXGXGXGXGXGXBX= N FXGXGXGXGX3X& C DXZX7 n DXGXCX& C FXGXGXFXN 7 S O S FXGXGXGXGXGXGXGXGXGXGXGXGXGXGXGXGXFXSXCX3X XN S ",
"4X3XCXDXFXGXGXGXGXGXGXGXGXGXGXGXGXGXGXGXGXGXCX= M FXGXGXGXGXSXb & M q & @XGXGXCX& C FXGXGXFXN 7 NXN * 3XGXGXGXGXGXGXGXGXGXGXGXGXGXGXGXGXFXDXBX3XoXN S ",
"4X3XCXDXGXGXGXGXGXGXGXGXGXGXGXGXGXGXGXGXGXGXVXn S FXGXGXGXGXFX Xb b n C NXGXGXCXM |.FXGXGXDXD N CX@Xw 1XFXGXGXGXGXGXGXGXGXGXGXGXGXGXGXGXFXSXCX3XoXN S ",
"4X3XCXFXFXGXGXGXGXGXGXGXGXGXGXGXGXGXGXGXGXGXSX<X4XFXGXGXGXGXSX<X4XSXSX1X4XDXGXSX1X4XFXGXGXFX4X,XNX<X4XDXGXGXGXGXGXGXGXGXGXGXGXGXGXGXGXGXFXSXCX3XoXN S ",
"4X3XZXDXGXGXGXGXGXGXGXGXGXGXGXGXGXGXGXGXGXGXDX4XNXSXDXFXGXGXSX4XCXGXFXNXNXDXGXDX4XCXFXGXGXFXBX4X3XNXDXGXGXGXGXGXGXGXGXGXGXGXGXGXGXGXGXGXFXDXCX3XoXN S ",
"4X3XCXDXGXFXFXFXFXFXFXFXFXFXFXFXFXFXFXFXFXFXDXBXBXBXVXSXFXFXSXBXZXFXDXCXZXDXFXSXBXCXFXFXFXFXZXNXBXCXDXFXFXFXFXFXFXFXFXFXFXFXFXFXFXFXFXFXFXDXBX3XoXN S ",
"4X3XZXDXFXDXDXDXSXDXSXSXDXSXDXSXDXDXSXDXDXDXSXCXCXZXZXSXSXSXSXCXZXZXZXVXZXSXSXSXCXBXZXZXSXSXZXCXZXCXCXSXDXSXDXSXSXSXSXSXDXSXSXSXDXSXSXSXSXSXCX3X XN S ",
"4X3XCXSXBXNXNXNXNXBXNXBXNXNXNXNXNXNXNXNXNXNXNX4XNXNXBXNXNXNXNXNX4XNX4XNXNXNXNXNXNXNX4XNXNXNXNXNXNXNXNXNXNXNXBXNXNXBXNXBXNXNXNXNXNXNXNXNXNXNXNX3XoXN S ",
"4X3XBX1X,X,X,X,X,X,X,X,X,X,X,X,X,X,X,X,X,X,X,X,X,X,X,X,X,X,X,X,X,X,X,X,X,X,X,X,X,X,X,X,X,X,X,X,X@X,X,X,X,X,X,X,X,X,X,X,X,X,X,X,X,X,X,X,X,X,X,X,X XN S ",
"4X3X3X1X1X1X1X1X<X1X1X1X1X1X1X1X1X1X1X1X1X1X1X1X1X1X1X1X1X1X1X<X1X1X1X1X1X1X1X1X1X1X1X1X1X1X1X1X1X1X1X1X1X1X1X1X1X1X1X<X1X1X<X1X1X1X1X1X1X1X1X1X<XC S ",
"BXBXCXCXCXCXCXCXCXCXCXCXCXCXCXCXCXCXCXCXCXCXCXCXCXCXCXCXCXCXCXCXCXCXCXCXCXCXCXCXCXCXCXCXCXCXCXCXCXCXCXCXCXCXCXCXCXCXCXCXCXCXZXCXCXCXCXCXCXCXCXCXCX3X|."
};
