/* XPM */
static char *gauche[] = {
/* columns rows colors chars-per-pixel */
"75 75 246 2",
"   c #777600",
".  c #7D7C00",
"X  c #16295A",
"o  c #555E70",
"O  c #4A697F",
"+  c #556679",
"@  c #7C9567",
"#  c #718F7B",
"$  c #769171",
"%  c #848407",
"&  c #8E8E01",
"*  c #858509",
"=  c #888709",
"-  c #8A8A0A",
";  c #959401",
":  c #999901",
">  c #93930A",
",  c #99990D",
"<  c #8A8E1C",
"1  c #9EA317",
"2  c #A4A405",
"3  c #ADAD00",
"4  c #A3A309",
"5  c #AEB10D",
"6  c #B4B403",
"7  c #BBBC04",
"8  c #B9B90B",
"9  c #A6AC18",
"0  c #979B24",
"q  c #828B32",
"w  c #9DA626",
"e  c #9AA433",
"r  c #C0BF00",
"t  c #C4C402",
"y  c #CCCC00",
"u  c #C9C90F",
"i  c #D4D400",
"p  c #DCDC00",
"a  c #D6D60E",
"s  c #C1C114",
"d  c #C9C915",
"f  c #E4E401",
"g  c #EBEB01",
"h  c #E5E508",
"j  c #E8E80C",
"k  c #F2F202",
"l  c #FEFE03",
"z  c #F7F70E",
"x  c #F7F909",
"c  c #FCFC0A",
"v  c #EAEA12",
"b  c #E7EE1E",
"n  c #EEF315",
"m  c #F2F410",
"M  c #FEFE12",
"N  c #FFFF1C",
"B  c #D2DB25",
"V  c #CDDB3D",
"C  c #D0DE3D",
"Z  c #D8E32F",
"A  c #E3EB23",
"S  c #F5F522",
"D  c #FFFF23",
"F  c #FFFF2A",
"G  c #FFFF34",
"H  c #FFFF3A",
"J  c #859A56",
"K  c #99A947",
"L  c #96A748",
"P  c #8DA25F",
"I  c #93A55D",
"U  c #98A95A",
"Y  c #A7B850",
"T  c #92A96D",
"R  c #94AF71",
"E  c #A2BE79",
"W  c #BACF5A",
"Q  c #ADC267",
"!  c #A7C275",
"~  c #21438F",
"^  c #214390",
"/  c #274A97",
"(  c #304D90",
")  c #32519D",
"_  c #2C52A8",
"`  c #3756A0",
"'  c #3857A0",
"]  c #3A58A1",
"[  c #3457AE",
"{  c #3659AE",
"}  c #395BAF",
"|  c #2B55B3",
" . c #2F5DBD",
".. c #325AB5",
"X. c #3B5CB0",
"o. c #3F60B1",
"O. c #3D65BF",
"+. c #4A6980",
"@. c #52738D",
"#. c #4464B2",
"$. c #4867B4",
"%. c #4C6AB6",
"&. c #345FC3",
"*. c #3563CB",
"=. c #2F62D1",
"-. c #3265D6",
";. c #3E6DD4",
":. c #3366D8",
">. c #356CE8",
",. c #3D70E1",
"<. c #3871ED",
"1. c #3B73F7",
"2. c #3D79F6",
"3. c #3D7AFC",
"4. c #476EC5",
"5. c #486EC5",
"6. c #406CD4",
"7. c #4771D4",
"8. c #4B74D5",
"9. c #4A79DB",
"0. c #557BD6",
"q. c #597ED7",
"w. c #4579E5",
"e. c #4C7DE3",
"r. c #467AEE",
"t. c #4A7EEC",
"y. c #507FE3",
"u. c #447DF5",
"i. c #487FF0",
"p. c #417EFE",
"a. c #6B8C88",
"s. c #74968F",
"d. c #7A9A89",
"f. c #668A98",
"g. c #5E88AE",
"h. c #5985BB",
"j. c #6189A9",
"k. c #6781BB",
"l. c #6883BF",
"z. c #709EBE",
"x. c #79A4B2",
"c. c #4E82D9",
"v. c #5C83D9",
"b. c #5989DD",
"n. c #6987C5",
"m. c #6E9BC4",
"M. c #6797CC",
"N. c #7491CF",
"B. c #7B95CD",
"V. c #6C8DD3",
"C. c #6386D9",
"Z. c #6589DB",
"A. c #698BDB",
"S. c #7190D1",
"D. c #7795D6",
"F. c #7294DB",
"G. c #4A80E7",
"H. c #4B82EC",
"J. c #5282E5",
"K. c #5986E3",
"L. c #5289E6",
"P. c #5282EC",
"I. c #5986EC",
"U. c #5C8BED",
"Y. c #4580F4",
"T. c #4C85F3",
"R. c #4E88F3",
"E. c #4380FF",
"W. c #4A83FA",
"Q. c #4F8DFF",
"!. c #5487F4",
"~. c #538CF3",
"^. c #5D8DF5",
"/. c #5085F8",
"(. c #5594FD",
"). c #599BFF",
"_. c #628CE6",
"`. c #618CEB",
"'. c #6F95E7",
"]. c #6790ED",
"[. c #6C94EC",
"{. c #7498E9",
"}. c #7299EF",
"|. c #7A9EED",
" X c #6693F3",
".X c #739BF1",
"XX c #799FF3",
"oX c #62A2FF",
"OX c #6CADFD",
"+X c #7FA1F0",
"@X c #6EB0FF",
"#X c #73B4FF",
"$X c #99B986",
"%X c #89AD9A",
"&X c #90B391",
"*X c #8797BA",
"=X c #889DC7",
"-X c #859FD6",
";X c #819EDA",
":X c #8FA2CB",
">X c #9CA9C6",
",X c #8FA4D0",
"<X c #85A2DC",
"1X c #98ACD6",
"2X c #9FB3DF",
"3X c #A3AFC9",
"4X c #A4B0C9",
"5X c #AAB4C9",
"6X c #B8BDC7",
"7X c #B3BCCD",
"8X c #B8BFCD",
"9X c #AAB8D7",
"0X c #B3BCD0",
"qX c #84A3E3",
"wX c #82A3EC",
"eX c #8BA9EC",
"rX c #95AEE4",
"tX c #93AFED",
"yX c #9CB4E5",
"uX c #99B3EF",
"iX c #83A5F2",
"pX c #8DADF2",
"aX c #90AEF2",
"sX c #95B3F2",
"dX c #A2B9E8",
"fX c #BCC1CA",
"gX c #BCC3D3",
"hX c #B8C3DA",
"jX c #AEC0E4",
"kX c #BAC8E4",
"lX c #B2C5EB",
"zX c #B3C7F3",
"xX c #C5C8CF",
"cX c #C2C7D2",
"vX c #C5CAD4",
"bX c #CACDD3",
"nX c #C5CCDA",
"mX c #C9CFD9",
"MX c #CFD1D5",
"NX c #CCD1DD",
"BX c #D5D6D9",
"VX c #D2D6DC",
"CX c #C0CEEA",
"ZX c #CDD4E3",
"AX c #C2D0EC",
"SX c #D9DDE5",
/* pixels */
"2X'.}.}.}.}.}.}.}.}.oX'.}.}.}.}.}.}.}.}.}.}.oX{.'..X}.}..X}.}.}.}.}.oX'..X}.}.}.OX'.}.}.}.}. X.X.X}.}.}.OX'.}.}.}.}.oX'..X'..X}..X}.}.}.}.}.}.}.}._.x.",
"l.-.3.3.3.3.3.3.3.3.3.3.3.3.3.3.3.3.3.3.3.3.3.3.3.3.3.3.3.3.3.3.3.3.3.3.3.3.3.3.3.3.3.3.3.3.3.3.3.3.3.3.3.3.3.3.3.3.3.3.3.3.3.3.3.3.3.3.3.3.3.3.2./ + ",
"k...<.E.Q.E.E.E.E.E.E.Q.Q.E.E.E.E.Q.E.E.E.E.E.Q.Q.E.E.E.E.E.Q.E.E.E.Q.E.E.Q.E.E.E.E.Q.E.E.E.E.Q.E.Q.E.E.E.E.Q.E.E.E.E.Q.E.Q.E.E.E.E.Q.E.E.E.Q.E. .X o ",
"k.| :.Y.).).).).).).).).).).).).).).).).).).).).).).).).).).).).).).).).).).).).).).).).).).).).).).).).).).).).).).).).).).).).).).).).).).(.;.^ X o ",
"k.| -.<.(.@X#X@X#X#X#X#X#X#X#X#X#X#X#X#X#X#X#X#X#X@X#X#X#X#X#X#X#X#X@X#X@X#X#X#X#X#X#X#X#X#X#X#X@X@X#X#X@X#X#X#X#X#X#X#X@X#X#X@X#X#X@X#X#XOXw.| ^ X o ",
"k.| -.<.p.).#X#X#X#X#X#X#X#X#X#X#X#X#X#X#X#X#X#X#X#X#X#X#X#X#X#X#X#X#X#X#X#X#X#X#X#X#X#X#X#X#X#X#X#X#X#X#X#X#X#X#X#X#X#X#X#X#X#X#X#X#X#X#X~.-.| ^ X o ",
"k.| -.<.u.E.(.oXoXoXoXoXoXoXoXoXoXoXoXoXoXoXoXoXoXoXoXoXoXoXoXoXoXoXoXoXoXoXoXoXoXoXoXoXoXoXoXoXoXoXoXoXoXoXoXoXoXoXoXoXoXoXoXoXoXoXoXoXR.>.=.| ^ X + ",
"k.| -.<.3.p.E.Q.Q.Q.Q.Q.Q.Q.Q.Q.Q.Q.Q.Q.Q.(.Q.Q.Q.Q.Q.Q.(.M.~.Q.Q.(.Q.Q.Q.Q.Q.(.Q.Q.Q.Q.Q.Q.Q.Q.(.Q.Q.Q.(.Q.Q.Q.Q.Q.Q.Q.Q.Q.Q.(.Q.Q.(.E.1.>.=.| ^ X o ",
"h.| :.<.3.3.E.E.E.E.E.E.E.E.E.E.E.E.E.E.E.E.E.E.E.E.E.E.f.T R.E.E.E.E.E.E.E.E.E.E.E.E.E.E.E.E.E.E.E.E.E.E.E.E.E.E.E.E.E.E.E.E.E.E.E.E.p.1.>.=.| ^ X o ",
"k.| -.<.3.E.E.3.E.E.E.E.E.E.E.E.E.E.E.E.E.E.E.E.E.E.E.f.1 U R.E.E.E.E.E.E.E.E.E.E.E.E.E.E.E.E.E.E.E.E.E.E.E.E.E.E.E.E.E.E.E.E.E.E.E.E.p.1.>.=.| ^ X o ",
"k...:.<.3.E.E.E.E.E.E.E.E.E.E.E.E.E.E.E.E.E.E.E.E.E.j.9 2 I R.p.E.E.E.E.E.E.E.E.E.E.E.E.E.E.E.E.E.E.E.E.E.E.E.E.E.E.E.E.E.E.E.E.p.E.p.3.1.>.=.| ^ X o ",
"k.| :.<.3.E.E.E.E.E.E.E.E.E.E.E.p.E.E.E.E.E.E.E.E.g.9 7 ; I R.p.E.E.E.E.E.E.E.E.E.E.E.E.E.E.E.E.E.E.E.E.E.E.E.E.E.E.E.E.E.E.E.E.p.p.p.p.1.>.=.| ~ X o ",
"k.| -.<.3.E.E.E.E.E.E.E.E.E.E.E.p.E.E.E.E.E.E.3.h.w t 3 - I R.E.E.E.E.E.E.E.E.E.E.E.E.E.E.E.E.E.E.E.E.E.E.E.E.E.E.E.E.E.E.E.E.E.E.p.E.p.1.>.=.| ^ X o ",
"k.| -.<.3.E.E.E.E.E.E.E.E.E.E.E.E.E.E.E.E.E.p.h.w r y : = I R.E.E.E.E.E.E.E.E.E.E.E.E.E.E.E.E.E.E.E.E.E.E.E.E.E.E.E.E.E.E.E.E.E.E.E.E.p.1.>.=.| ^ X o ",
"k.| -.<.3.E.E.E.E.E.E.E.E.E.E.E.E.E.E.E.E.E.c.e r y r - = I T.E.E.E.E.E.E.E.E.E.E.E.E.E.E.E.E.E.E.E.E.E.E.E.E.E.E.E.E.E.E.E.E.E.E.E.p.3.1.>.=.| ^ X o ",
"k.| -.<.3.E.E.E.E.E.E.E.E.E.E.E.E.E.E.E.E.c.e 7 t y 3 * = I R.E.E.E.E.E.E.E.E.E.E.E.E.E.E.E.E.E.E.E.E.E.E.E.E.E.E.E.E.E.E.E.E.E.p.p.p.3.1.>.=.| ^ X o ",
"k...-.<.3.E.E.E.E.E.E.E.E.E.E.E.p.E.E.E.c.J 7 t y t > % = I Q.E.E.E.E.E.E.E.E.E.E.E.E.E.E.E.E.E.E.E.E.E.E.E.E.E.E.E.E.E.E.E.E.E.E.p.E.p.1.>.=.| ~ X o ",
"k.| -.<.3.E.p.p.E.E.E.E.E.E.E.E.E.E.E.G.J 7 t y y 7 - * = q + +.+.+.+.+.+.+.+.+.+.+.+.+.+.+.+.+.+.+.+.+.+.+.+.+.+.+.+.+.O @.L.E.E.E.E.p.1.>.=.| ~ X o ",
"k.| -.<.3.p.E.p.E.E.E.E.E.E.E.E.E.E.H.@ 7 y y y i 2 = % = .     .                                   .                     < z.E.E.E.p.3.1.>.=.| ~ X o ",
"k.| -.<.3.E.p.E.E.E.E.E.E.E.E.E.E.Y.$ 6 t y y y t > = - & & & & & & & & & & & & & & & & & ; & & & & & & & & & & & & & & % w m.3.p.p.p.p.1.>.=.| ~ X o ",
"k.| :.<.3.E.E.E.E.E.E.E.E.E.E.p.Y.$ 6 t y y y i r > - ; ; ; ; ; ; ; ; ; ; ; ; ; ; ; ; ; ; ; ; ; ; ; ; ; ; ; ; ; ; ; & = % 0 m.3.E.E.E.p.1.>.=.| ~ X o ",
"k.| :.<.3.E.E.E.E.E.E.E.E.E.p.Y.# 6 t y y y i p 8 > > : : : : : : : : : : : : : : : : : : : ; : : : : : : : : ; : : & * % 0 m.E.E.E.p.p.1.>.=.| ~ X o ",
"k.| :.<.3.E.E.E.E.E.E.E.E.E.p.a.5 t y y y i p h 8 3 3 3 3 3 3 3 3 3 3 3 3 3 3 3 3 3 3 3 3 3 3 3 3 3 3 3 3 3 3 3 3 , - * % 0 m.E.p.E.p.3.1.>.=.| ~ X o ",
"k.| :.<.3.E.E.3.p.E.E.E.E.E.f.5 t y y y y p k j i i i i i i i i i i i i i i i y i i i i i i i i i i i i i i i i s , = % % w m.3.p.p.p.3.1.>.=.| ^ X o ",
"k.| -.<.3.E.E.E.E.E.E.E.Y.j.9 t y y y i p g l k g g g k g g k g g g g g g g g g g g g g g g g g g g g g g g g v d , = * * 0 m.3.E.E.p.p.1.>.=.| ~ X o ",
"k.| -.<.3.E.E.E.E.E.E.E.L.Y p f f g f g m N D M l c l l c l l x l c l x l l l l l l l l c l l l l l l l l c z v d , - * * 0 m.E.E.E.E.p.1.>.=.| ^ X o ",
"k.| -.<.3.E.E.E.3.E.E.E.E.x.b l l l l l M F H N l l l c l l l l c c l c l c c l c l c l c l l l c l l c c N z v d , = * . 0 m.E.p.E.p.p.1.>.=.| ^ X o ",
"k.| -.<.3.3.E.E.E.E.E.E.p.E.%Xn l l l l l M F S x x l l x l c x l l l l l l l l l l l l l x l x l l l c F F z v d , - * % w m.E.p.p.p.3.1.>.=.| ^ X o ",
"k.| -.<.3.p.E.E.E.E.E.E.E.E.E.&Xz l l l l l M S u f g g f g g g g g f g f g g f f g g f g g f g f g g N G F m v d , - * % 0 M.p.E.E.p.p.1.>.=.| ^ X o ",
"k...-.<.3.p.E.E.E.E.E.E.E.E.E.Y.$Xx l l l l l M s 4 i p p p p p p p p p p p p p p p p p p p p p p f k N G F z v d , - * % 0 m.E.E.E.E.p.1.>.=.| ^ X o ",
"k.| -.<.3.E.E.p.E.E.E.E.E.E.E.p.T.! x l l l l l a > 4 i p p p p p p p p p p p p p p p p p p p p p k l N G F m v d , = * % 0 m.p.E.E.p.3.1.>.=.| ~ X o ",
"k.| -.<.3.E.E.E.E.E.E.E.E.E.E.E.E.H.E x l l l l k , * , t i i i i i i i i i i i i i i i i i i p k l l N G F z v d , * % % w m.E.p.p.p.3.1.>.=.| ^ X o ",
"k.| -.<.3.E.E.E.E.E.E.E.E.E.p.E.E.p.R.! l l l l l 8 = % , r t t t t t t t t t t t t t t t t y g l l l N G F z v d , - * % 0 m.p.E.E.p.p.1.>.=.| ~ X o ",
"k.| -.<.3.3.E.E.p.E.E.p.E.E.E.E.E.E.p.L.W l l l l p - % = e d.s.s.s.s.s.s.s.s.s.s.s.s.s.s.s.B l l l l N G F z v d , = * % 0 m.p.E.E.E.p.1.>.=.| ~ X o ",
"k.| -.<.3.E.E.E.E.E.p.W.E.E.E.E.E.E.E.p.L.W l l l x 4 * = I T.p.3.E.E.p.E.E.3.E.p.E.E.p.E.T.C l l l l N G F M v d , = * * 0 m.p.p.p.p.p.1.>.=.| ~ X o ",
"k.| -.<.3.E.p.E.E.E.E.E.E.E.E.E.E.E.E.E.E.b.V l l l t = = I R.E.E.E.E.E.E.E.E.E.E.E.E.E.E.T.C l l l l N G F z v d , = = * 0 m.3.p.p.p.p.1.>.=.| ~ X o ",
"k.| :.<.p.p.p.E.E.E.E.E.E.p.E.E.E.E.E.E.E.p.M.Z l l f - = I R.E.E.p.E.E.E.E.E.E.E.E.E.E.E.R.C l l l l N G F z v d , = * * 0 m.p.E.E.E.p.1.>.=.| ~ X o ",
"k.| -.<.3.p.p.p.E.E.p.E.E.E.E.E.E.E.E.E.E.E.p.m.A l x 3 = I R.E.E.E.E.E.E.E.E.E.E.E.E.E.E.H.C l l l l N G F m v d , - * % 0 m.E.E.E.p.p.1.>.=.| ^ X o ",
"k.| -.<.p.p.p.E.E.E.E.E.E.E.E.E.E.E.E.E.E.E.E.p.z.A l i - I R.E.E.E.E.E.p.E.E.E.E.E.E.E.E.T.C l l l l N G F z v d , - * * 0 m.3.p.E.p.3.1.>.=.| ^ X o ",
"k.| -.<.p.E.E.E.E.E.E.E.E.E.E.E.E.E.E.E.E.E.E.p.p.x.b x 4 P R.E.E.E.E.E.E.E.E.E.E.E.E.E.E.T.C l l l l N G F z v d , - * % 0 m.E.p.p.p.3.1.>.=.| ^ X o ",
"k...-.<.p.p.E.E.E.E.E.E.E.E.E.p.E.E.E.E.E.E.E.E.E.E.*Xb t I R.E.E.E.E.p.E.E.E.E.E.E.E.E.E.T.C l l l l N G F z v d , - = * 0 m.3.E.E.p.p.1.>.=.| ^ X o ",
"k.| -.<.3.p.E.E.p.E.E.E.E.E.E.E.E.E.E.E.E.E.E.E.E.E.E.%XB Y R.E.E.E.E.E.E.E.E.p.E.E.E.E.E.T.C l l l c N G F z v d , = * * 0 m.E.E.E.E.p.1.>.=.| ^ X o ",
"k.| -.<.3.E.E.E.E.E.E.E.p.E.E.E.E.E.E.E.E.E.E.p.E.p.p.W.%XQ R.E.E.E.E.E.E.E.p.E.E.E.E.p.E.R.C l l l l N G F z v d , = * * 0 m.p.p.E.p.3.1.>.=.| ^ X o ",
"k.| -.<.3.3.E.E.E.E.E.E.E.E.E.E.E.E.E.E.E.E.E.E.E.E.E.E.Y.M.Y.E.E.E.E.E.E.E.E.E.E.E.E.E.E.H.C l l l l N G F z v d , = * * 0 m.p.p.p.p.p.1.>.=.| ^ X o ",
"k.| :.<.3.E.E.E.E.E.E.E.E.E.p.E.E.E.E.E.E.E.p.E.E.E.p.E.E.p.E.E.p.E.E.E.E.E.E.E.E.E.E.E.p.!.C l l l l N G F z v d , - * % 0 m.p.E.p.E.p.1.>.=.| ^ X o ",
"k.| :.<.3.E.p.E.E.E.p.E.E.E.E.E.p.E.E.E.E.E.E.E.E.E.E.E.E.E.E.E.E.E.E.E.E.E.E.E.E.E.E.E.p.R.C l l l l N F N c v d , = * % 0 m.p.E.E.E.p.1.>.=.| ~ X o ",
"k.| -.<.3.E.E.p.E.E.p.E.E.E.E.E.E.E.E.E.E.E.E.E.E.E.E.p.E.E.p.E.E.E.E.p.E.p.E.E.p.E.E.E.p.T.C l l l l N N c c z d , - % * 0 m.p.E.E.p.3.1.>.=.| ^ X o ",
"k.| -.<.3.p.E.p.E.E.E.E.E.E.E.E.E.E.E.p.E.E.E.E.E.E.E.E.E.E.W.p.E.E.E.E.E.E.E.E.E.E.E.E.E.R.C l l l l x k k g k p 4 - * % 0 m.p.p.p.p.3.1.>.=.| ^ X o ",
"k...=.<.3.E.E.E.E.E.E.E.p.E.E.E.E.E.E.E.E.p.E.E.E.E.E.E.E.E.E.E.E.E.E.E.E.E.E.p.E.E.E.E.E.R.C l l l g f p p p f p t > * % 0 m.p.E.E.E.p.1.>.=.| ~ X o ",
"k.| :.<.3.p.E.E.E.E.E.E.E.E.E.E.E.E.E.E.E.E.p.E.E.E.E.E.E.E.E.E.E.E.E.E.E.E.E.E.E.E.E.E.E.H.C l l g p p p p p p p p t > % 0 m.p.E.p.p.p.1.>.=.| ~ X o ",
"k.| -.<.3.E.E.E.p.E.E.E.E.E.E.E.p.E.E.E.E.E.E.E.E.E.p.E.E.E.E.E.p.E.E.E.E.E.E.E.E.E.E.E.E.T.C l g i i p i p i i p i p r ; 0 m.p.p.p.p.p.1.>.=.| ^ X o ",
"k.| :.<.3.p.E.p.E.E.E.E.E.E.p.E.E.E.E.E.E.E.E.E.E.E.E.E.E.p.E.E.E.E.E.p.E.E.E.E.E.E.E.E.E.T.V f y y y y y y y y y y y y 6 w m.p.p.p.p.p.1.>.=.| ^ X o ",
"k.| -.<.3.E.p.E.E.E.E.E.E.E.E.E.E.p.E.E.E.E.E.E.E.E.E.p.W.p.E.E.E.E.E.E.p.E.E.E.E.p.E.E.E.T.R K L L L L L L L L L L L L L P b.E.p.E.E.p.1.>.=.| ^ X o ",
"k.| -.<.3.E.E.p.E.E.E.E.E.E.E.p.E.E.E.E.E.E.E.p.E.E.E.E.E.E.E.E.E.E.p.E.E.E.E.E.E.E.E.E.E.E.H.H.H.H.H.H.H.H.H.H.H.H.H.H.H.H.E.E.E.E.E.p.1.>.=.| ~ X o ",
"k.| :.<.3.E.E.E.E.E.E.E.E.E.E.E.E.E.E.E.E.E.E.E.p.E.E.E.E.E.E.E.E.E.E.E.E.E.E.E.p.E.E.E.E.E.E.p.E.E.E.E.E.E.E.E.E.E.E.E.E.E.E.E.p.E.p.3.1.>.=.| ^ X o ",
"k.| -.<.3.E.E.E.E.E.E.E.E.E.E.E.E.E.E.E.p.E.E.E.E.E.E.E.E.E.p.E.E.E.E.E.E.E.E.E.E.E.E.E.E.E.E.E.E.E.E.p.E.E.E.E.E.E.E.E.E.E.E.E.p.p.p.3.1.>.=.| ^ X o ",
"k.| :.<.3.E.E.E.E.E.E.E.E.E.E.E.E.E.E.E.E.E.E.E.E.E.E.E.E.E.p.E.E.E.p.E.E.E.E.E.E.E.E.E.E.E.E.E.E.E.E.E.E.E.E.p.E.E.E.E.E.E.E.E.u.W.p.p.1.>.=.| ~ X o ",
"k.| -.<.3.3.E.E.E.E.E.E.E.E.E.E.E.E.p.E.E.E.E.E.E.E.E.E.E.E.E.E.p.E.E.E.E.E.E.E.E.E.E.E.E.E.E.E.E.E.E.E.E.E.E.E.E.E.E.E.E.E.E.E.p.u.E.p.1.>.=.| ~ X o ",
"k.| :.<.3.E.E.E.p.E.E.E.E.E.E.3.p.p.p.E.E.E.p.E.E.p.p.E.E.E.E.E.E.E.E.E.E.E.E.E.E.E.E.E.E.E.E.T.p.E.E.E.E.E.E.E.E.E.E.E.E.E.E.E.p.p.p.p.1.>.=.| ~ X o ",
"k.| :.<.3.E.E.E.E.E.E.E.E.W.H.Z.C.b.i.p.E.E.E.E.E.E.E.E.E.E.E.p.E.E.E.E.E.E.E.p.E.E.E.E.E.p.P.:Xv.p.E.p.E.E.E.E.E.E.E.E.E.E.E.E.p.p.p.p.1.>.=.| ~ X o ",
"k.| -.<.3.E.p.p.E.E.E.p.T.=X8XvXnXxX=Xu.E.E.E.p.E.p.E.p.E.E.E.p.E.E.p.p.E.p.E.E.p.p.p.E.E.p.U.VXS.p.p.E.E.E.E.E.E.p.E.p.E.E.E.E.p.p.p.p.1.>.=.| ^ X o ",
"k.| -.<.3.p.E.E.E.E.E.W.<XMXjX}. X|.qXT.E.E.i.H.K.y.u.E.p.W.T.H.p.p.T.H.p.W.E.p.T.J.G.Y.E.E.U.BXN.H.J.t.p.E.E.E.Y.P.J.t.3.E.E.E.p.p.p.p.1.>.=.| ^ X o ",
"k.| -.<.3.E.E.p.E.E.E.!.nXhXH.3.3.2.u.p.E.W.;XgXcX6XN.u.p.p.-X>Xw.p.2X=Xu.p.p._.4XxXfXS.u.p.U.BX3X8XxX*XY.E.p.W.;X7X8X3Xb.u.E.E.p.p.p.p.1.>.=.| ^ X o ",
"k.| -.<.3.p.p.E.E.E.p.U.NX,XW._.B.B.V.u.p.W.|.}.U.lX8XJ.p.p.dX8Xw.i.9X3Xr.p.T.9XvX{.|.'.p.p.U.BXgX|.lXbXZ.E.3.'.cX<X`.kX>XH.E.E.p.p.p.p.1.>.=.| ^ X o ",
"k.| -.<.3.p.E.E.E.E.p.[.BX,Xu.|.dXNX5Xe.p.E.P.V.B.5XvXK.p.W.yX8Xe.u.dX5Xi.p.^.mX1X1.p.p.E.p.U.VX-X1.|.BXV.p.E.rXbX:X=XcX8Xt.E.E.E.E.p.p.1.>.=.| ~ X o ",
"k...-.<.3.E.E.p.E.E.p.^.SX3Xt.p.!.hX0XH.p./.1XgXyXlXvXK.p.p.yXfXy.i.0X9Xt.p.^.NX,Xu.p.p.E.p.I.mXD.3.}.MXF.3.E.dXbXyXtXsXiXi.p.p.E.E.p.p.1.>.=.| ~ X o ",
"k.| -.<.3.E.E.E.p.E.p.u.dXVX=Xv.C.nX7Xt.p.^.ZX:X9.1XvXK.p.p.sXbXq.D.VX9Xt.p.!.AX5Xq.C.A.p.p.I.mXD.3.[.vXF.p.E.uXMXn.w.y.I.p.p.p.E.E.E.p.1.>.=.| ~ X o ",
"k.| -.<.3.p.E.E.p.W.u.p. XzXVXbXbXSX9XT.p.!.AXbX7XmXNXK.p.p.XXSXMXNXZX0Xi.p.p.aXSXbXmX;Xp.p.I.ZX<Xu.[.NXF.p.p.^.CXbX7X8X1Xp.p.p.p.E.p.p.1.>.=.| ~ X o ",
"k.| -.<.3.p.p.E.p.u.p.u. XpXwX|.wXrXwX/.u./.aXtX[.wXtXI.p.u. XuXeX{.eXeXi.p.u.XXtX|.}.`.i.p.I.sX[.u.`.uX[.u.u.^.aXwX{.}.`.u.p.u.p.p.u.p.u.>.=.| ~ X o ",
"k.| -.<.3.Y.r.w.r.r.r.t.}.|.P.r.t.[.|.t.r.t.}.}.`.[.|.P.r.r.].|.y.r.}.}.t.t.t.|.'.w.r.t.r.r.t.|.`.u.I.+XU.r.r. XwX].I.I.t.r.r.r.r.r.r.r.r.>.=.| ~ X o ",
"k.| -.<.,.6.;.;.6.6.6.8.A.v.6.8.q.A.C.7.6.6.7.0.q.C.A.8.6.6.q.A.8.6.q.q.8.6.7.C.v.6.6.6.6.6.7.A.q.6.8.A.0.;.6.q.A.q.q.C.A.8.6.6.6.6.6.6.6.6.*.| ~ X o ",
"k.| -.&.{ [ [ [ { { { X.%.#.[ X.$.$.#.{ [ [ } } { #.%.X.[ [ #.%.X.} %.%.} [ { %.%.X.{ { { { X.%.%.} #.%.X.[ [ #.%.o.} #.%.} { { [ [ [ [ [ [ [ _ ~ X o ",
"k.| { ) ) ) ) ) ) ) ) ) ] ' ) ) ) ) ) ) ) ) ) ] ` ] ' ) ) ) ) ] ) ) ) ] ) ) ) ) ] ] ] ) ) ) ) ] ] ] ] ] ) ) ) ) ' ' ' ] ) ) ) ) ) ) ) ) ) ) ) ) ^ X o ",
"n.O.5.5.4.4.4.4.4.4.4.4.4.4.4.4.5.5.5.5.5.5.5.5.5.5.5.5.5.5.5.5.5.5.5.5.5.5.5.5.5.5.5.5.5.5.5.5.5.5.5.5.5.5.5.5.5.5.5.5.5.5.5.5.4.4.4.4.4.4.4.4.4.( + ",
"rXiXiXiXiXiXiXiXiXiX+XiXiXiXiXiXiXiXiXiXiXiXiXiXiXiXiXiXiXiXiXiXiXiXiXiXiXiXiXiXiXiXiXiXiXiXiXiXiXiXiXiXiXiXiXiXiXiXiXiXiXiXiXiXiXiXiXiXiXiXiXiXiXwX3X"
};
