/* XPM */
static char *inventaire[] = {
/* columns rows colors chars-per-pixel */
"75 75 250 2",
"   c #131011",
".  c #2E1519",
"X  c #391518",
"o  c #141B26",
"O  c #2B1B26",
"+  c #1C2428",
"@  c #1C2429",
"#  c #1A273A",
"$  c #262428",
"%  c #3A292C",
"&  c #232732",
"*  c #3C2A37",
"=  c #243035",
"-  c #27343C",
";  c #481B1B",
":  c #571B1C",
">  c #73201E",
",  c #462222",
"<  c #4A2121",
"1  c #5D2425",
"2  c #552829",
"3  c #5C2C2C",
"4  c #452A35",
"5  c #532F32",
"6  c #593236",
"7  c #692828",
"8  c #732525",
"9  c #782727",
"0  c #7B2B2B",
"q  c #653131",
"w  c #6B3434",
"e  c #67393C",
"r  c #733737",
"t  c #753A3B",
"y  c #7B3C3C",
"u  c #142443",
"i  c #19284B",
"p  c #182B53",
"a  c #16295A",
"s  c #1D3057",
"d  c #2C2A43",
"f  c #2B3A42",
"g  c #283847",
"h  c #373549",
"j  c #273859",
"k  c #1E3461",
"l  c #273C68",
"z  c #5F3F4F",
"x  c #6C3D45",
"c  c #2E414D",
"v  c #34444D",
"b  c #38444C",
"n  c #394B54",
"m  c #374A58",
"M  c #3C515D",
"N  c #2D4160",
"B  c #364B6A",
"V  c #3D5564",
"C  c #3F5C6A",
"Z  c #294279",
"A  c #334975",
"S  c #5B4258",
"D  c #694348",
"F  c #7A4247",
"G  c #79454A",
"H  c #724858",
"J  c #47466A",
"K  c #574867",
"L  c #455A67",
"P  c #445C6B",
"I  c #464A77",
"U  c #555E70",
"Y  c #625379",
"T  c #4A616E",
"R  c #4B6473",
"E  c #556579",
"W  c #8D2826",
"Q  c #852A2A",
"!  c #8C2B2B",
"~  c #932C2C",
"^  c #9B2F2F",
"/  c #922F30",
"(  c #813F3F",
")  c #8A3838",
"_  c #933434",
"`  c #9E3334",
"'  c #A12F2F",
"]  c #A53232",
"[  c #AD3333",
"{  c #AA3838",
"}  c #B03838",
"|  c #84403F",
" . c #844142",
".. c #8C4445",
"X. c #854749",
"o. c #924747",
"O. c #9B4242",
"+. c #954A4A",
"@. c #9D4C4C",
"#. c #895647",
"$. c #9B544E",
"%. c #845057",
"&. c #A24E4E",
"*. c #AA4848",
"=. c #B44444",
"-. c #B74B4B",
";. c #A2514F",
":. c #A24D50",
">. c #A55151",
",. c #AC5353",
"<. c #AF595A",
"1. c #B25656",
"2. c #BC5656",
"3. c #B55957",
"4. c #B55858",
"5. c #BD5C5C",
"6. c #8A6D4E",
"7. c #C05E5E",
"8. c #948657",
"9. c #A59C63",
"0. c #1F418F",
"q. c #26468B",
"w. c #314D88",
"e. c #355583",
"r. c #214390",
"t. c #274A97",
"y. c #344F93",
"u. c #2E529C",
"i. c #31519C",
"p. c #395598",
"a. c #2C52A8",
"s. c #385BA7",
"d. c #3457AE",
"f. c #2B55B3",
"g. c #2F5DBD",
"h. c #335CB4",
"j. c #3D63AC",
"k. c #3D64B5",
"l. c #3C65BD",
"z. c #505283",
"x. c #48599B",
"c. c #6D5581",
"v. c #42628B",
"b. c #415BA2",
"n. c #525AA2",
"m. c #4960A7",
"M. c #4462AB",
"N. c #4266B7",
"B. c #657FB7",
"V. c #345FC3",
"C. c #2F60CC",
"Z. c #3B67C4",
"A. c #3B6ACA",
"S. c #2F62D1",
"D. c #3265D6",
"F. c #3D6ED2",
"G. c #3869D6",
"H. c #3E70D6",
"J. c #3D71DC",
"K. c #356CE8",
"L. c #3E73E2",
"P. c #3871ED",
"I. c #3F78EE",
"U. c #3B73F7",
"Y. c #3D78F2",
"T. c #3D7AFC",
"R. c #476EC5",
"E. c #4D75CE",
"W. c #406CD5",
"Q. c #517CD9",
"!. c #4578E5",
"~. c #467AEE",
"^. c #4A7EEC",
"/. c #517FE3",
"(. c #477DF3",
"). c #437DF4",
"_. c #427EFD",
"`. c #6781BB",
"'. c #6883BF",
"]. c #738ECA",
"[. c #6A8BD5",
"{. c #7695D6",
"}. c #4C83E4",
"|. c #4E82ED",
" X c #5887E9",
".X c #4883F5",
"XX c #4C82F4",
"oX c #4380FF",
"OX c #4A84FE",
"+X c #4F8DFF",
"@X c #5286F4",
"#X c #548AF4",
"$X c #5B8CF3",
"%X c #538AFC",
"&X c #5A8FFD",
"*X c #5794FC",
"=X c #5D90FD",
"-X c #599BFF",
";X c #628DE6",
":X c #6992E9",
">X c #6B95EC",
",X c #769AE6",
"<X c #7C9EE4",
"1X c #7299EF",
"2X c #6694F4",
"3X c #6E99F2",
"4X c #6394FA",
"5X c #6C9AFB",
"6X c #7EA0E6",
"7X c #7EA1ED",
"8X c #62A2FF",
"9X c #6CADFD",
"0X c #7EA3F1",
"qX c #6EB0FF",
"wX c #73B4FF",
"eX c #879CC7",
"rX c #809AD0",
"tX c #8DA1CB",
"yX c #93A5CB",
"uX c #97A6C9",
"iX c #9CABCB",
"pX c #88A2D8",
"aX c #9BADD2",
"sX c #96ACD8",
"dX c #9EB1DA",
"fX c #A1AFCD",
"gX c #AAB4C9",
"hX c #B5BCCB",
"jX c #ADB9D3",
"kX c #A9B9DC",
"lX c #B3BDD2",
"zX c #8BA8E5",
"xX c #83A5EC",
"cX c #8CABEB",
"vX c #94AEE6",
"bX c #98B2E8",
"nX c #83A5F2",
"mX c #8CADF2",
"MX c #A6BAE5",
"NX c #BCC1CB",
"BX c #BDC5D4",
"VX c #B7C2D8",
"CX c #AEC0E6",
"ZX c #B4C3E2",
"AX c #B7C7E9",
"SX c #C9CBCF",
"DX c #C4C9D4",
"FX c #C7CCD8",
"GX c #CFD2D7",
"HX c #CBD2E0",
/* pixels */
"dX:X1X1X9X>X1X1X1X1X3X1X1X1X1X1X8X1X1X1X1X1X3X3X3X1X1X1X8X>X,X3X1X1X3X3X1X3X3X,X3X3X3X3X1X1X3X3X3X3X3X1X8X>X3X3X3X1X3X3X3X3X3X1X3X3X1X3X1X1X>X3X3X:X'.",
"].S.U.T.T.T.T.T.T.T.T.T.T.T.T.T.T.T.Y.T.T.T.T.oXT.T.T.T.T.T.T.T.T.T.T.T.oXT.T.T.T.oXT.T.T.T.T.oX).T.T.).T.T.).T.T.T.T.T.).T.T.).T.oXT.T.T.T.T.T.Y.t.E ",
"'.f.P.OXOXoXoXoXOXoXoXOXoX+XoXoXOXOXoXOXoXOXOXoXoX+XoXoXoX+XoX+XoXoXoXoXoX+XoXoXOXoXOXoXoXOXoXoXoX+XoXoXoX+XoX+XoXoX+XoXoX+XoXoXoXoXOXOXoX+XoX.Xg.s U ",
"`.f.S..X-X-X-X-X-X-X-X-X-X-X-X-X-X-X-X-X-X-X-X-X-X-X-X-X-X-X-X-X-X-X8X-X-X-X-X-X-X-X-X-X-X-X-X-X-X-X-X-X-X-X-X-X-X-X-X-X-X-X-X-X-X-X-X-X-X-X-XF.q.s U ",
"`.f.D.P.*XqXqXwXwXwXwXwXwXwXwXqXwXwXwXwXwXwXwXwXwXqXwXwXwXwXwXwXwXwXwXwXwXwXwXqXwXwXwXwXwXwXwXwXwXqXwXwXwXwXwXwXwXwXwXwXwXwXwXqXwXwXwXwXqX9X!.f.r.a U ",
"`.f.D.P._.-XwXwXwXwXwXwXwXwXwXwXwXwXwXwXwXwXwXwXwXwXwXwXwXwXwXwXwXwXwXwXwXwXwXwXwXwXwXwXwXwXwXwXwXwXwXwXwXwXwXwXwXwXwXwXwXwXwXwXwXwXwXwXwX#XS.f.r.a U ",
"`.f.G.P.T.oX*X8X8X8X8X8X8X8X8X8X8X8X8X8X8X8X8X8X8X8X8X8X8X8X8X8X8X8X8X8X8X8X8X8X8X8X8X8X8X8X8X8X8X8X8X8X8X8X8X8X8X8X8X8X8X8X8X8X8X8X8X-X+XK.S.f.r.a R ",
"`.f.D.P.T.oXoX+X+X+X+X+X+X+X+X+X+X+X+X+X+X+X+X%X+X+X+X+X+X+X+X+X-X+X+X+X+X#X}.}.#X+X+X+X+X+X+X%X+X+X+X+X+X+X+X+X-X+X+X+X+X+X+X+X+X+X+XOXY.K.S.f.r.a U ",
"'.f.D.P.T.T.oXoXoXoXoXoXoXoXoXoXoXoXoXoXoXoXoXoXoXoXoXoXoXoXoXoXoXoXoXI.p.g p N N F.oXoXoXoXoXoXoXoXoXoXoXoXoXoXoXoXoXoXoXoXoXoXoXoXoX_.U.K.S.f.r.a U ",
"`.f.D.P.T.oXoXT.oXoXoXoXoXoXoXoXoXoXoXoXoXoXoXoXoXoXoXoXoXoXoXoXoXoXoXl.m A e.m M p.oXoXoXoXoXoXoXoXoXoXoXoXoXoXoXoXoXoXoXoXoXoXoXoXoX_.U.K.S.f.r.a U ",
"`.f.D.P.T.oXoXoXoXoXoXoXoXoXoXoXoXoXoXoXoXoXoXoXoXoXoXoXoXoXoXoXoXoXoXk.V j..XA n j.oXoXoXoXoXoXoXoXoXoXoXoXT.oXoXoXoXoXoXoXoXoXoXoXoXT.U.K.S.f.r.a U ",
"`.f.D.P.T.oXoXoXoXoXoXoXoXoXoXoXoXoX_.oXoXoXoXoXoXoXoXoXoXoXoXoX!.L..XA.V v.j.m B L.oXoXoXoXoXoXoXoXoXoXoXoXoXoXoXoXoXoXoXoXoXoXoXoX_._.U.K.S.f.r.a U ",
"`.f.D.P.T.oXoXoXoXoXoXoXoXoXoXoX_.oXoXoXoXoXoXoXoXoXoX_.oXY.l.I S S Y v.J L B n u.Y.I.Y._.oXoXoXoXoXoXoXoXoXoXoXoXoXoXoXoXoXoXoXoXoXoXT.U.K.S.f.r.a U ",
"`.f.D.P.T.oXoXoXoXoXoXoXoXoXoXoXoXoXoXoXoX_.oXoXoXoXoXoXI.z.G @.#.e 3 3 F %.%.D K K K J J e.Z.oXoXoXoXoXoXoXoXoXoXoXoXoXoXoXoXoXoX_._.T.U.K.S.f.r.a U ",
"'.f.D.P.T.oXoXoXoXoXoXoXoXoXoXoXoXoXoX_.oXoXoXoXoXoXoX).I X.5.7.7.3.$.y 3 < 3 y ;.3.3.,.@.X.* h.oXoXoXoXoXoXoXoXoXoXoXoXoXoXoXoXoXoX_.T.U.K.S.f.r.a U ",
"`.f.D.P.T.oXoXoXoXoXoXoXoXoXoXoXoXoXoXoXoXoXoXoXoXoXoXs.F 5.5.5.7.7.7.7.2.,...( | ,.7.7.>.>.Q l T.oXoXoXoXoXoXoXoXoXoXoXoXoXoXoXoXoX_.T.U.K.S.f.r.a U ",
"`.f.D.P.T.oXoXoXoXoXT.oXoXoXoXoXoXoXoXoXoXoXoXoXoXoX!.S <.5.4.,.,.<.4.7.5.5.5.5.5.5.5.:.< ! ] 4 h.F.I.oXoXoXoXoXoXoXoXoXoXoXoXoXoXoXoXT.U.K.S.f.0.a U ",
"'.f.D.P.T.oXoXoXoXoXoXoXoXoXoXoXoXoXoXT.oXoXoXoXoXoXx.o.5.5.+.6.6.6.#.#.<.5.5.5.5.5.4.1 9 [ [ 1 o o s F.oXoXoXoXoXoXoXoXoXoXoXoX_.oX_._.U.K.S.f.0.a U ",
"`.f.D.P.T.oXoXoXoXoXoXoXoXoXoXoXoXoXoXoXoXoXoXoXoXoXK 3.5.5.$.6.8.9.9.8.#.5.5.5.5.5.o.1 [ [ [ x C C - # A.oXoXoXoXoXoXoXoXoXoXoXoXoX_.T.U.K.D.f.0.a U ",
"`.f.D.P.T.oXoXoXoXoXoXoXoXoXoXoXoXoXoXoXoXoXoXoXOXW.H 5.5.5.5.5.1.;.$.X.:.7.5.5.5.5.q W [ [ ] c.C c E c s I.oXoXoXoXoXoXoXoXoXoXoXoXoX_.U.K.S.f.r.a U ",
"'.f.D.P.T.oXoXoXoXoXoXoXoXoXoXoXoXoXoXoXoXoXoXoXoXj.+.7.5.5.5.5.5.5.7.5.5.5.5.5.5.:.1 ' [ [ ' n.L.u c R + k.oXoXoXoXoXoXoXoXoXoXoXoX_.T.U.K.S.f.r.a U ",
"'.f.D.P.T.T.oXoXoXoXoXoXoXoXoXoXoXoXoXoXoXoXoXoXoXz.>.5.5.5.5.5.5.5.5.5.5.5.5.5.5. .9 [ [ [ ^ x.oXk = T = Z oXoXoXT.oXoXoXoXoXoXoXoXoXT.U.K.S.f.r.a U ",
"`.f.D.P.T.T.oXoXoXoXoXoXoXoXoXoXoXoXoXoXoXoXoXoXL.S 3.5.5.5.5.5.5.5.5.5.5.5.5.5.4.3 ^ [ [ [ ~ p.oXZ = C - p oXoXoXoXoXoXoXoXoXoXoXoXT.T.U.K.S.f.r.a U ",
"`.f.D.P.T.oXoXoXoXT.oXoXoXoXoXoXT.oXoXoXoXoXoXoXk.X.5.5.5.5.5.5.5.5.5.5.5.5.5.7.:.7 [ [ [ [ Q p.OXu.f C - i oXoXoXoXoXoXoXoXoXoX_.oX_.T.U.K.C.f.r.a U ",
"`.f.D.P.T.oXoXoXoXoXoXoXoXoXT.oXoXoXoXoXoXoXoX).J >.5.5.5.5.5.5.5.5.5.5.5.5.5.5.( 9 [ [ [ [ 9 b.oXj.c V = k oXoXoXoXoXoX_.oXoXoXoXoX_.T.U.K.S.f.r.a U ",
"`.f.D.P.T.oXoXoXoXoXT.oXoXoXoXoXoXoXoXoXoXoXoXN.X.5.5.5.5.5.5.5.5.5.5.5.5.5.5.5.y ! [ [ [ [ 9 s.oXk.m L + Z oXoXoXoXoXoXoXoXoXoXoXoXoX_.U.K.S.f.r.a U ",
"'.f.D.P.T.oXoXoXoXoXoXoXoXoXoXoXoXoXoXoXoXoX!.S 4.5.5.5.5.5.5.5.5.5.5.5.5.5.5.5.r ~ [ [ [ [ 8 p.oXk.P L + w.oXoXoXoXoXoXoXoXoX_.oXoX_.T.U.K.D.f.r.a U ",
"`.f.D.P.T.oXT.oXoXoXoXoXoXoXoXoXoXoXoXoXoXoXs. .5.5.5.5.<.@.>.3.5.5.5.5.5.5.5.5.r _ } [ [ [ 8 y.OXN.P T + i.OXoXoXoXoXoXoXoXoXoXoXoXoX_.U.K.S.f.r.a U ",
"`.f.D.P.T.oXoXoXoXoXoXoXoXoXoXoXoXoXoXoXoXoXF.S 1.5.5.>.% O $ 5 >.5.5.5.5.5.5.4.w Q -.[ [ [ 8 q.oXk.M R + p.oXoXoXoXoXoXoXoXoXoXoXoXoXT.U.K.S.f.r.a U ",
"`.f.D.P.T.oXoXoXoXoXoXoXoXoXoXoXoXoXoXoXoXoXI.I 3 y ;.q - P C m D 5.5.5.5.5.5.5.7 0 -.[ [ [ Q Z oXk.n R + w.oXoXoXoXoXoXoX_.oXoXoXoX_.T.U.K.S.f.r.a U ",
"`.f.D.P.T.oXoXoXoXoXoXoXoXoXoXoXoXT.oXoXoXoXp.X.>.y q % c c T M e 7.5.4.5.1.,.o.X 0 -.[ [ [ W A oXR.f T + q.oXoX_.oXoX_.oXoXoXoXoX_._.T.U.K.S.f.r.a U ",
"`.f.D.P.T.oXoXoXoXoXoXoXoXoXoXoXoXoXoXoXoXH.S 2.5.5.<.5 - f V c 3 7 1 < < , ; ; : { -.[ [ [ ~ j .XW.# L + l oXoXoXoXoXoXoXoXoX_.oXoX_.T.U.K.S.f.r.a U ",
"`.f.D.P.T.oXoXoXoXoXoXoX_.oXoXoXoXoXoXoXoXm.+.7.5.5.3.+.t e e 6 O.*._ _ ~ ~ ] { =.-.4.} [ [ ^ d !.L.g n + s oXoXoXoXoXoXoXoXoXoXoXoXoXT.U.K.S.f.0.a U ",
"`.f.D.P.T.T.oXT.oXoXoXoXoXoXoXoXoXoXoXoXoXz.3.5.5.5.7.7.7.7.3.1.2.7.5.2.2.2.2.5.5.5.5.} [ [ ] ; A.Y.l v # u oXoXoXoXoXoXoXoXoXoXoX_._._.U.K.S.f.0.a U ",
"`.f.D.P.T.oXoXoX_.oXoX_.oXoXoXoXoXoXoXoX_.I 2.3.3.5.7.7.7.7.7.7.5.7.5.5.5.5.5.5.5.5.5.=.[ [ [ ; i.).A n c # _.oXoXoXoXoXoXoXoXoXoXoX_.T.U.K.D.f.0.a U ",
"'.f.D.P.T.oXoXoXoXoXoXoXoXoX_.oXoXoXoXT..XK 1.y >.$.+...+.>.1.5.4.5.5.5.7.5.5.5.5.5.5.-.[ [ [ 7 l oXA v v u .XoXoXoXoXoXoXoXoXoXoXoXoX_.U.K.S.f.r.a U ",
"`.f.D.P.T.oXoXoXoXoX_.oXoXoXoXoXoXoX_.oX!.K ,.q 4.1.@.o.| w q q r y ( o.&.>.<.5.5.5.5.*.[ [ [ 8 i !.j m n u ).oXoXoXoXoXoXoXoXoXoXoX_.T.U.K.S.f.r.a U ",
"`.f.D.P.T.oXoXoXoXoXoXoX_.oXoXoXoXoXoXoXR.H &.2 5.5.5.7.5.3.3.3.1.&.+.....( < r 5.5.5.&.^ [ [ Q & Z.# n v u ).oXoXoXoX_.oX_.oXoXoXoXoXT.U.K.S.f.r.a U ",
"`.f.D.P.T.oXoXoXoX_.oXoXoXoXoXoXoXoXoXoXs.@.o.w 5.5.5.5.5.5.7.7.5.5.7.7.7.o.  ; 1.5.5.&.~ [ [ ^ O l + L = # T.oXoX_.oXoXoXoXoXoXoXoXT.T.U.K.S.f.r.a U ",
"`.f.D.P.T.T.oXoXoXoXoXoXoXoXoX_.oXoXoXI.K 1.+.3 1.5.7.@.e G <.7.5.5.5.5.5.1 ; 0 1.5.5.@.Q [ [ ] . o f v   Z _._.oXoXoXoXoXoX_.oXoX_._.T.U.K.S.f.r.a U ",
"`.f.D.P.T.oXoXoXoXoXoXoXoXoXoXoXoXoXoXF.x 5.;.y w ( &.y * v G 7.7.7.7.7.1.2 W 8 >.5.7.&.0 [ [ [ X o + o Z L.oX_.oXoX_.oXoXoXoXoX_.oXoXT.U.K.S.f.r.a U ",
"`.f.D.P.T.oXoXoXoXoXoX_.oXoXoXoXoXoXoXp.F 5...,.,. .r 3 2 6 y O.>.,.,.*.r 7 ] 7 >.7.5.,.8 ] [ ] X o Z A.oXoXoXoXoXoXoXoXoXoX_.oXoXoXoX_.U.K.S.f.r.a U ",
"`.f.G.P.T.oXoXoXoXoXoXoXoX_.oXoXoXoXoXw.t 7...+.7.7.4.4.>.+...| ) _ _ 0 9 ` [ 8 ,.5.5.1.7 ] [ [ X y.oXoXoXoXoXoXoXoXoXoXoXoXoXoXoXoX_.T.U.K.D.f.r.a U ",
"`.f.D.P.T.T.oXoX_.oXoXoXoXoXoXoXoXoXoXs.q 5.1.y ,.5.7.5.7.7.7.5.5.5.2.2.7.2.=.Q 1.5.7.,.7 ^ [ ' O l.oXoX_.oXoXoXoX_.oXoXoXoXoXoXoXoXoX_.U.K.C.f.r.a U ",
"`.f.D.P.T.oXoXoXoXoXoXoXoXoXoXoX_.oX_.!.h ,.7.>.y ..,.2.7.7.7.7.7.7.7.7.7.3.*.^ 1.5.5.>.1 ' [ > u ~.oXoXoXoX_.oX_.oXoXoX_.oXoXoXoXoX_.T.U.K.S.f.r.a U ",
"`.f.D.P.T.oXoXoXoXoX_.oX_.oXoXoXoXoXoXoXp.e 5.7.1...r r ( (  . . . . .( ( ( y &.5.5.5.+.: [ ^ . s.oXoXoXoXoXoXoXoXoXoXoXoXoXoXoXoXoXoXT.U.K.S.f.r.a U ",
"`.f.D.P.T.oXT.oXoXoXoXoXoXoX_.oXoXoXoXoX).A r ,.7.5.5.>.+.o. .y y ( o.o.@.1.3.5.5.5.5.r 8 ~ X Z ).oXoXoXoXoXoXoXoXoXoXoXoXoXoX_._.oX_.T.U.K.S.f.r.a U ",
"`.f.D.P.T.oXoXoXoX_.oXoXoXoXoXoXoXoXoX_._.~.Z 4 y 1.5.7.7.7.5.5.7.5.7.7.7.5.7.5.5.7.,.; ; O q.(.oXoXoXoXoXoX_.oXoXoX_.oXoXoXoXoXoXoXoXT.U.K.S.f.r.a U ",
"`.f.D.P.T.oXoXoXoXoXoXoXoXoXoXoXoXoXoX_.oXoX_.l.l * 6  .@.1.5.5.7.7.5.5.7.7.5.5.>...5 o l A._.oXoXoXoXoXoXoXoX_.oXoXoXoX_.oXoXoXoXoX_._.U.K.S.f.0.a U ",
"`.f.D.P.T.oXoXoXoXoXoXoXoXoXoXoXoXoXoXoXoXoXoXoXoXA.u.A h * 6 z G G X. . .x e 4 h A i.H.oXoXoXoXoXoXoXoXoXoXoXoXoXoXoXoXoXoXoXoXoXoXoXT.U.K.S.f.0.a U ",
"'.f.D.P.T.oXoXoXoXoXoXoXoXoXoXoX_.oXoXoXoXoXoXoXoXoX_.).~.J.F.Z.N.N.N.m.b.b.R.J.P.).oXoXoXoXoXoXoXoXoXoX_.oXoXoXoXoX_.oXoXoXoX_.oXoX_._.U.K.S.f.0.a U ",
"`.f.D.P.T.T.oXoXoXoXoXT.oXoXoXoXoXoXoXoXoXoX_.oXoX_.oXoXoXoXoXoXoXoXoXoXoXoXoXoXoXoXoXoXoXoXoXoXoXoXoXoXoXoXoXoXoXoXoXoXoXoXoXoXoX_._.T.U.K.S.f.r.a U ",
"`.f.D.P.T.oXoXoXoXoXoXoXoXoXoXoXoXoXoXoXoXoXoXoXoXoXoXoXoX_.oXoXoX_.oXoXoXoXoXoXoXoXoXoXoXoX_.oXoXoXoXoXoXoXoXoXoXoXoXoXoXoXoXoXoXoX_._.U.K.S.f.r.a U ",
"`.f.D.P.T.oXT.oXoXoXoXoXoXoXoXoXoXoXoX_.oXoXoXoXoXoXoXoXoXoXoXoXoXoXoXoX_.oXoXoXoXoX_.oXoXoXoXoX_.oXoX_.oXoX_.oXoXoX_.oXoX_.oXoXoXoXoXT.U.K.S.f.r.a U ",
"`.f.G.P.T.oXoXoXoXoXoXoXoXoXoXoXoXoXoXoXoXoXoXoXoXoX_.oXoXoXoXoXoXoXoXoXoXoXoXoXoXoXoXoXoXoXoXoXoXoXoXoXoXoXoXoXoXoXoXoXoXoXoXoX_.oX_.T.U.K.S.f.r.a U ",
"`.f.D.P.T.oXoXoXoXoXT.oXoXoXoXoX_.oXoXoXoXoXoXoXoXoXoXoXoXoXoX_.oXoX_.oXoXoXoX_.oXoXoXoXoX_.oXoXoXoXoXoX_.oXoXoX_.^._.oXoXoX_.oX_._._.T.U.K.C.f.r.a U ",
"`.f.D.P.T.oXoXoXoX,X{.T.oXoXoXoXoXoXoXoXoXoXT.oXoX_.oXoXoXoXoXT.oXoXoXoXoXoXoXoXoXoXoXoXXX|.oXoXoXoXoXoXoXoXoXoX$XaX|._._.oXoXoX_._._.T.U.K.D.f.r.a U ",
"`.f.D.P.T.oXoXoXoXbXiXY.oXoXoX).).|.).oXoXoX.XoX_..X).oXoX_..X|._.oXoXoX).).(.^._.oXoXY.sXeX!.oXoXoX).|.^._.oX_.#X{..XoXoX).).^._._._._.~.H.C.f.r.a U ",
"`.f.D.P.T.oXoXT.oXbXiXI.oX_.<XtXiXgX[._._.,XtX).@XiX XoXoX{.iXiX{.(._.oX,XeXuXgX{.).oX XFXNXeX)._.@XsXiXiX[.T.oX$XyX|.oXOXpXyXyX/._._.{.uXuXB.d.r.a U ",
"`.f.D.P.T.oXoXoXoXvXiX.XoXT.dXNX6XAXfX(.T.>XDXQ.6XjX|.T.$XVX{.<XDX}.oX_.cXDXxXMXgX XoX#XAXjX;X_.oX@X7X[.MXiX_._.3XBX/.T._.ZXhX1X@X_.$XDX[.{.hXb.0.a U ",
"`.f.D.P.T.oXoXoXoXvXfX~.oXY.bXfXY.mXjX^.oXOXVX{.dXaX).T.>XSXuXaXVX XT.oXnXlX^.,XVX XT.Y.MXaXY.oXoXXXrXtXVXjX)._.:XBX}._._.ZXpXT._._.xXSXuXyXjXM.0.a U ",
"`.f.D.P.T.oXoXoXoXzXfX~.oXT.vXdX).nXjX|.oX_.bXNXlX:XoXT.3XGX].$X X.XoX_.xXjX|.1XlX XoXT.MXfX!.oXT.xXlX[.kXjX.X_.$XDXQ.oX).ZXpXT._._.1XSX[.Q.R.d.r.a U ",
"`.f.D.P.T.oXoXoXT.zXjX.XoX_.vXkX).7XVX|.oX_.>XHXBX@XoXoXXXMXjXaXaXXXoX_.xXVX|.:XBX#XoXoXmXGXtXoXoX0XFXaXDXMX.X_.$XFX XoX.XCXzX_._._.%XlXjXaXeXb.r.a U ",
"`.f.D.P.T.T.oXoXoX1X6X.XoXoX>X7X.X2XxX.XoXoX2XcXxX$XoXoX%X0XxX,X:XOXoXoX2XxXXX$XcX@XoXoX3XcX:X_.oX4XmX<X7XxXoX_.#XcX#XT._.7X3XoX_._.%XnX,X[.E.f.r.a U ",
"`.f.D.P.T.oXoXoX_.4X5XOX_._.&X5XoX&X5XOX_.OX4X4X4X4X_._.%X5X4X4X4X_._.OX=X5XOX%X5XOX_._.4X4X_._.OXOX4X$X5X5XoX_.&X5X%X_._.5X=X_._.OX%X5X$X/.Q.d.r.a U ",
"'.f.D.P.T.oXoXoX_.&X&X_._.OX%X=XOX%X&XoX_.OX=X%X%X&XOXoXOX=X%X%X4X%X_._.%X=XOX%X&XOX_.OX%X&X_._.OX_.OXOX%X&XoX_._.4X_._._.=X&XOXoX_.OX&X(.!.Q.h.r.a U ",
"`.f.D.P.T.oXoXoX_.OXOX_._.oXOXOXOXOXOX_._.OX%X_._.%X_.oXoXOXoX.X_._._._.OX%XOXOXOXoX_.oX%XOX_._._.OXOXOXOXOXoXoX_.%X_._._.%XOXOXoXoXOX_.~.P.D.f.r.a U ",
"`.f.D.P.T.oXT.oX_._._._._.oX_.oXOXoX_.oX_._._._._._._._.oX_.oX_.(.(.(._._._._._.OX_.oX_.OX_._._._._._._.oX_.oXoX_._._.(._._._._._.oX_._.U.K.C.f.r.a U ",
"`.f.D.P.T.oX_.oX(.(._.(._._.(._._._.(._._.(._._.(.(._._._._.(._.(._.(._._._._._._._.(._._._.(._._._.(._.)._.(._._.(._.(._._.(.(._.(.(._.).K.D.f.r.a U ",
"`.f.D.P.T.).~.~.~.~.(.~.~.~.~.~.~.~.~.~.~.~.~.(.(.~.~.~.^.^.~.~.~.~.(.~.~.~.~.~.~.^.~.~.~.~.~.~.~.~.~.~.(.(.~.~.~.~.~.~.~.(.(.~.~.~.(.~.~.K.C.f.r.a U ",
"`.f.D.K.J.W.F.F.W.W.W.W.W.W.W.W.W.W.W.W.W.W.W.W.W.W.W.W.W.W.W.W.W.W.W.W.W.W.W.W.W.W.W.W.W.W.W.W.W.W.W.W.W.W.W.W.W.W.W.W.W.W.W.W.W.W.W.W.W.F.C.f.r.a U ",
"`.f.D.V.h.d.d.d.d.d.d.d.d.d.d.d.d.d.d.d.d.d.d.d.d.d.d.d.d.d.d.d.d.d.d.d.d.d.d.d.d.d.d.d.d.d.d.d.d.d.d.d.d.d.d.d.d.d.d.d.d.d.d.d.d.d.d.d.d.d.d.a.r.a U ",
"`.f.h.a.i.i.i.i.i.i.i.i.i.i.i.i.i.i.i.i.i.i.i.i.i.i.i.i.i.i.i.i.i.i.i.i.i.i.i.i.i.i.i.i.i.i.i.i.i.i.i.i.i.i.i.i.i.i.i.i.i.i.i.i.i.i.i.i.i.i.i.i.t.a U ",
"'.N.R.R.R.R.R.R.R.R.R.R.R.R.R.R.R.R.R.R.R.R.R.R.R.R.R.R.R.R.R.R.R.R.R.R.R.R.R.R.R.R.R.R.R.R.R.R.R.R.R.R.R.R.R.R.R.R.R.R.R.R.R.R.R.R.R.R.R.R.R.R.R.y.U ",
"bXxXnXnXnXnXnXxXnXnXnXnXnXnXnXnXnXnXnXnXnXnXnXnXnXnXnXnXnXnXnXnXnXnXnXnXnXnXnXnXnXnXnXnXnXnXnXnXnXnXnXnXnXnXnXnXnXnXnXnXnXnXnXnXnXnXnXnXnXnXnXnXnXxXiX"
};
