/* XPM */
static char *level_up[] = {
/* columns rows colors chars-per-pixel */
"75 75 248 2",
"   c #666600",
".  c #6C6C01",
"X  c #6C6C0E",
"o  c #737300",
"O  c #7C7C02",
"+  c #6B6B15",
"@  c #76761B",
"#  c #79792B",
"$  c #7F7F38",
"%  c #0D0D5E",
"&  c #131363",
"*  c #1B1B65",
"=  c #1D1D6A",
"-  c #222269",
";  c #2C2C6D",
":  c #262672",
">  c #2E2E72",
",  c #323272",
"<  c #393974",
"1  c #36367E",
"2  c #3D3D7C",
"3  c #5A5A5A",
"4  c #43437C",
"5  c #707070",
"6  c #797979",
"7  c #838302",
"8  c #8C8C03",
"9  c #848409",
"0  c #8C8C0B",
"q  c #949402",
"w  c #9B9B02",
"e  c #93930B",
"r  c #9D9D0D",
"t  c #838312",
"y  c #898917",
"u  c #939313",
"i  c #9B9B12",
"p  c #98981B",
"a  c #A3A302",
"s  c #ACAC01",
"d  c #ABAB0A",
"f  c #B4B402",
"g  c #BBBB01",
"h  c #B0B00C",
"j  c #A5A517",
"k  c #ACAC15",
"l  c #A5A519",
"z  c #B7B716",
"x  c #B4B41C",
"c  c #89892B",
"v  c #888838",
"b  c #9F9F31",
"n  c #A4A423",
"m  c #B7B722",
"M  c #B2B22C",
"N  c #AAAA30",
"B  c #A2A23E",
"V  c #A9A93B",
"C  c #B8B832",
"Z  c #BABA3C",
"A  c #C5C502",
"S  c #CCCC01",
"D  c #C4C40A",
"F  c #CDCD09",
"G  c #D4D401",
"H  c #DBDB00",
"J  c #DCDC0C",
"K  c #CCCC15",
"L  c #DEDE16",
"P  c #E4E401",
"I  c #ECEC02",
"U  c #E5E50C",
"Y  c #EEEE0C",
"T  c #F3F301",
"R  c #FEFE03",
"E  c #F3F30A",
"W  c #FFFF0B",
"Q  c #E2E215",
"!  c #E4E41A",
"~  c #FFFF13",
"^  c #FEFE1B",
"/  c #C3C324",
"(  c #C5C52A",
")  c #C9C928",
"_  c #C9C936",
"`  c #E4E424",
"'  c #E1E12F",
"]  c #FFFF24",
"[  c #FEFE2D",
"{  c #E7E734",
"}  c #F2F231",
"|  c #FEFE31",
" . c #FFFF3C",
".. c #868645",
"X. c #8A8A4A",
"o. c #96964C",
"O. c #8F8F51",
"+. c #9C9C56",
"@. c #95955B",
"#. c #A3A347",
"$. c #BABA4A",
"%. c #A3A353",
"&. c #B6B658",
"*. c #989865",
"=. c #9E9E6C",
"-. c #AEAE68",
";. c #A9A975",
":. c #A6A678",
">. c #A9A97D",
",. c #C7C743",
"<. c #C5C54B",
"1. c #DCDC4B",
"2. c #C3C357",
"3. c #C9C955",
"4. c #CACA58",
"5. c #E1E143",
"6. c #E5E549",
"7. c #FCFC44",
"8. c #F9F948",
"9. c #E3E35A",
"0. c #EDED5D",
"q. c #FAFA55",
"w. c #CACA66",
"e. c #CCCC6C",
"r. c #D1D163",
"t. c #DDDD65",
"y. c #CBCB72",
"u. c #CFCF7C",
"i. c #DBDB74",
"p. c #D5D57A",
"a. c #E8E866",
"s. c #F9F968",
"d. c #FAFA6B",
"f. c #E9E979",
"g. c #FFFF71",
"h. c #F5F57A",
"j. c #4C4C82",
"k. c #4B4B8D",
"l. c #525285",
"z. c #585886",
"x. c #53538D",
"c. c #595989",
"v. c #555592",
"b. c #5C5C93",
"n. c #626293",
"m. c #6C6C95",
"M. c #65659C",
"N. c #6C6C9C",
"B. c #75759C",
"V. c #6E6EA0",
"C. c #7373A3",
"Z. c #7A7AA7",
"A. c #7B7BAA",
"S. c #8F8F8F",
"D. c #909090",
"F. c #9D9D9D",
"G. c #ABAB81",
"H. c #B1B18F",
"J. c #8686AC",
"K. c #8C8CAC",
"L. c #8282B0",
"P. c #8C8CB2",
"I. c #9494B4",
"U. c #9C9CB7",
"Y. c #9E9EBE",
"T. c #AEAEAE",
"R. c #A4A4BB",
"E. c #ABABBF",
"W. c #B3B3B3",
"Q. c #BBBBBB",
"!. c #C3C384",
"~. c #CBCB84",
"^. c #D6D687",
"/. c #DCDC84",
"(. c #D8D88E",
"). c #C5C595",
"_. c #D8D892",
"`. c #E5E583",
"'. c #E8E884",
"]. c #E3E38A",
"[. c #FBFB88",
"{. c #E6E69A",
"}. c #FDFD96",
"|. c #FDFD9B",
" X c #CDCDA1",
".X c #C3C3A9",
"XX c #C9C9AA",
"oX c #DADAA4",
"OX c #C6C6B2",
"+X c #CBCBB5",
"@X c #D3D3B2",
"#X c #D8D8B9",
"$X c #E4E4A6",
"%X c #EDEDA2",
"&X c #E1E1AC",
"*X c #EDEDAC",
"=X c #F4F4A4",
"-X c #E5E5B4",
";X c #EDEDB2",
":X c #F5F5B6",
">X c #9C9CC0",
",X c #A5A5C2",
"<X c #ACACC4",
"1X c #B3B3C4",
"2X c #B3B3CC",
"3X c #BCBCCA",
"4X c #B5B5D1",
"5X c #BBBBD3",
"6X c #C5C5C5",
"7X c #CACACA",
"8X c #DCDCCC",
"9X c #C2C2D4",
"0X c #CDCDD6",
"qX c #CBCBDB",
"wX c #D4D4D4",
"eX c #DEDED1",
"rX c #D2D2DD",
"tX c #DBDBDB",
"yX c #ECECC4",
"uX c #E1E1CA",
"iX c #ECECCB",
"pX c #F7F7C7",
"aX c #FCFCC2",
"sX c #F3F3C9",
"dX c #E4E4D3",
"fX c #E9E9D2",
"gX c #F4F4D3",
"hX c #FEFED1",
"jX c #F1F1DA",
"kX c #FEFEDD",
"lX c #CFCFE2",
"zX c #D5D5E4",
"xX c #DBDBE5",
"cX c #DDDDEA",
"vX c #E3E3E4",
"bX c #EDEDE6",
"nX c #E4E4EB",
"mX c #ECECED",
"MX c #F5F5E3",
"NX c #FCFCE4",
"BX c #F3F3EB",
"VX c #FCFCEC",
"CX c #E7E7F0",
"ZX c #ECECF1",
"AX c #F4F4F4",
"SX c #FCFCF3",
"DX c #F6F6F8",
"FX c #FFFFFF",
/* pixels */
"tXnXBXmXmXmXAXBXZXBXmXmXZXmXmXBXmXmXAXBXZXBXmXmXZXmXmXBXmXmXAXBXZXBXmXmXZXmXmXBXmXmXAXBXZXBXmXmXZXmXmXBXmXmXAXBXZXBXmXmXZXmXmXBXmXmXAXBXZXBXmXmXZXvXW.",
"6XwXDXFXFXFXDXFXFXFXFXFXFXFXFXFXFXFXDXFXFXFXFXFXFXFXFXFXFXFXDXFXFXFXFXFXFXFXFXFXFXFXDXFXFXFXFXFXFXFXFXFXFXFXDXFXFXFXFXFXFXFXFXFXFXFXDXFXFXFXFXFXAXF.6 ",
"Q.W.nXFXFXFXFXFXFXFXFXFXFXFXFXFXFXFXFXFXFXFXFXFXFXFXFXFXFXFXFXFXFXFXFXFXFXFXFXFXFXFXFXFXFXFXFXFXFXFXFXFXFXFXFXFXFXFXFXFXFXFXFXFXFXFXFXFXFXFXFXSXQ.3 5 ",
"Q.W.tXAXFXFXFXFXFXFXFXFXFXFXFXFXFXFXFXFXFXFXFXFXFXFXFXFXFXFXFXFXFXFXFXFXFXFXFXFXFXFXFXFXFXFXFXFXFXFXFXFXFXFXFXFXFXFXFXFXFXFXFXFXFXFXFXFXFXFXFX0XD.3 5 ",
"Q.W.tXmXSXFXFXFXFXFXFXFXFXFXFXFXFXFXFXFXFXFXFXFXFXFXFXFXFXFXFXFXFXFXFXFXFXFXFXFXFXFXFXFXFXFXFXFXFXFXFXFXFXFXFXFXFXFXFXFXFXFXFXFXFXFXFXFXFXFXvXW.D.3 5 ",
"Q.W.wXmXFXFXFXFXFXFXFXFXFXFXFXFXFXFXFXFXFXFXFXFXFXFXFXFXFXFXFXFXFXFXFXFXFXFXFXFXFXFXFXFXFXFXFXFXFXFXFXFXFXFXFXFXFXFXFXFXFXFXFXFXFXFXFXFXFXBXwXW.D.3 5 ",
"Q.W.wXmXDXFXFXFXFXFXFXFXFXFXFXFXFXFXFXFXFXFXFXFXFXFXFXFXFXFXFXFXFXFXFXFXFXVXSXFXFXFXFXFXFXFXFXFXFXFXFXFXFXFXFXFXFXFXFXFXFXFXFXFXFXFXFXFXAXnXwXT.D.3 5 ",
"Q.W.tXmXFXFXFXFXFXFXFXFXFXFXFXFXFXFXFXFXFXFXFXFXFXFXFXFXFXFXFXFXFXFXFXFXVX[.NXFXFXFXFXFXFXFXFXFXFXFXFXFXFXFXFXFXFXFXFXFXFXFXFXFXFXFXFXFXSXnXwXW.D.3 5 ",
"Q.W.wXmXFXFXFXFXFXFXFXFXFXFXFXFXFXFXFXFXFXFXFXFXFXFXFXFXFXFXFXFXFXFXFXFX:X` aXFXFXFXFXFXFXFXFXFXFXFXFXFXFXFXFXFXFXFXFXFXFXFXFXFXFXFXFXFXAXnXwXT.D.3 5 ",
"Q.W.tXmXDXFXFXFXFXFXFXFXFXFXFXFXFXFXFXFXFXFXFXFXFXFXFXFXFXFXFXFXFXFXFXFXi.F g.FXFXFXFXFXFXFXFXFXFXFXFXFXFXFXFXFXFXFXFXFXFXFXFXFXFXFXFXFXSXnXwXW.D.3 5 ",
"Q.W.tXmXFXFXFXFXFXFXFXFXFXFXFXFXFXFXFXFXFXFXFXFXFXFXFXFXFXFXFXFXFXFXFXNX$.A ] hXFXFXFXFXFXFXFXFXFXFXFXFXFXFXFXFXFXFXFXFXFXFXFXFXFXFXFXFXSXbX0XW.D.3 5 ",
"Q.W.wXZXSXFXFXFXFXFXFXFXFXFXFXFXFXFXFXFXFXFXFXFXFXFXFXFXFXFXFXFXFXFXFX;Xl D R |.FXFXFXFXFXFXFXFXFXFXFXFXFXFXFXFXFXFXFXFXFXFXFXFXFXFXFXFXDXnXwXT.D.3 5 ",
"Q.W.wXmXDXFXFXFXFXFXFXFXFXFXFXFXFXFXFXFXFXFXFXFXFXFXFXFXFXFXFXFXFXFXSXr.0 F R 7.SXFXFXFXFXFXFXFXFXFXFXFXFXFXFXFXFXFXFXFXFXFXFXFXFXFXFXFXAXnXwXW.D.3 5 ",
"Q.W.wXmXFXFXFXFXFXFXFXFXFXFXFXFXFXFXFXSXyXsXSXFXFXFXFXFXFXFXFXFXFXFXpXM 0 s I ~ :XFXFXFXFXFXFXFXFXFXFXFXSXyX-XSXFXFXFXFXFXFXFXFXFXFXFXFXSXbX7XW.S.3 5 ",
"Q.W.tXmXDXFXFXFXFXFXFXFXFXFXFXFXFXFXFXFX$X( 9.*XSXFXFXFXFXFXFXFXFXFX`.0 O O q S d.SXFXFXFXFXFXFXFXFXSX-Xw.( $XFXFXFXFXFXFXFXFXFXFXFXFXFXDXnXwXW.D.3 5 ",
"Q.W.wXmXFXFXFXFXFXFXFXFXFXFXFXFXFXFXFXFXVX&.g U 6.=XVXFXFXFXFXFXFXSX!.X.X.X.X.o.u.VXFXFXFXFXFXFXMX-X2.x A 1.SXFXFXFXFXFXFXFXFXFXFXFXFXFXAXbXwXW.D.3 5 ",
"Q.W.tXmXDXFXFXFXFXFXFXFXFXFXFXFXFXFXFXFXFX#Xe g I Y { f.sXSXFXFXFXFXAXAXAXAXAXAXAXFXFXFXFXSXjX(.Z k f S J *XFXFXFXFXFXFXFXFXFXFXFXFXFXFXAXnXwXT.S.3 5 ",
"Q.W.wXmXFXFXFXFXFXFXFXFXFXFXFXFXFXFXFXFXFXVX&.8 f I I H ) uXFXFXFXFXSXDXSXMXVXSXSXFXFXFXFXfXV r a f G P 1.VXFXFXFXFXFXFXFXFXFXFXFXFXFXFXSXnXwXW.S.3 5 ",
"Q.W.tXmXFXFXFXFXFXFXFXFXFXFXFXFXFXFXFXFXFXFX-Xy 9 g A z ~.BXFXFXjX&Xw.,.C ( ( _ t.%XhXSXFXAX).t O w P Q ;XFXFXFXFXFXFXFXFXFXFXFXFXFXFXFXSXbX0XW.S.3 5 ",
"Q.W.wXmXDXFXFXFXFXFXFXFXFXFXFXFXFXFXFXFXFXFXSX&.7 s k ).SXFXjX^.M d f A A S G H H H ` f.gXFXAX).@ 7 H 1.SXFXFXFXFXFXFXFXFXFXFXFXFXFXFXFXDXnXwXT.S.3 5 ",
"Q.W.tXmXFXFXFXFXFXFXFXFXFXFXFXFXFXFXFXFXFXFXFX-Xi l oXSXFX-XZ d f g A S G G H H I T T R } :XSXFX).y D ;XFXFXFXFXFXFXFXFXFXFXFXFXFXFXFXFXAXbXwXW.S.3 5 ",
"Q.W.wXmXDXFXFXFXFXFXFXFXFXFXFXFXFXFXFXFXFXFXFXVXy.#XFXFX-XM a s f g A S G H P P I T R R R ^ |.SXFX Xe.SXFXFXFXFXFXFXFXFXFXFXFXFXFXFXFXFXAXvXwXW.D.3 5 ",
"Q.W.wXmXFXFXFXFXFXFXFXFXFXFXFXFXFXFXFXFXFXFXFXFXSXFXFX:XM a d f f g S S G H P I T R R R R R ~ =XFXFXSXFXFXFXFXFXFXFXFXFXFXFXFXFXFXFXFXFXAXnXwXT.D.3 5 ",
"Q.W.tXmXDXFXFXFXFXFXFXFXFXFXFXFXFXFXFXFXFXFXFXFXFXFXNX<.r r a s f A G H I T T T R R R R R R R ] hXFXFXFXFXFXFXFXFXFXFXFXFXFXFXFXFXFXFXFXSXmXwXW.S.3 5 ",
"Q.W.wXmXDXFXFXFXFXFXFXFXFXFXFXFXFXFXFXFXFXFXFXFXFXFX].j w w a s g G P T R R R W ~ ~ W R R R R R d.FXFXFXFXFXFXFXFXFXFXFXFXFXFXFXFXFXFXFXAXnXwXT.D.3 5 ",
"Q.W.tXmXFXFXFXFXFXFXFXFXFXFXFXFXFXFXFXFXFXFXSXFXFXkXZ e q w a f S P T R R R ~ ~ ^ ] ] W R R R R ] hXFXFXFXFXFXFXFXFXFXFXFXFXFXFXFXFXFXFXSXnXwXW.D.3 5 ",
"Q.W.wXmXDXFXFXFXFXFXFXFXFXFXFXFXFXFXFXVXiX^.`.VXFX*Xj 8 e w a g H T R R R W W ~ ] [  .] W R R R R |.FXSX`.].sXVXFXFXFXFXFXFXFXFXFXFXFXFXSXbX0XW.D.3 5 ",
"Q.W.tXmXFXFXFXFXFXFXFXFXFXFXFXFXSXiX_.<.x S 8.VXFX/.u 8 8 q d F I R R R W R W W ^ [ 7. .~ R R R R s.SXVX3.A J 6.'.sXSXFXFXFXFXFXFXFXFXFXDXnXwXT.D.3 5 ",
"Q.W.wXmXSXFXFXFXFXFXFXFXFXVXiX(.<.m f f A I 7.VXSXw.y 9 8 e d J E T R R R W R W W ]  .7.^ R R R R q.SXVX3.r H P P ! { `.sXNXFXFXFXFXFXFXAXnXwXW.D.3 5 ",
"Q.W.tXmXFXFXFXFXFXFXFXFXDX@X%.t O 7 8 q g R 7.VXSX3.9 O 9 e x ! E R R R R R R R W ^ [ | ^ R R R R 7.SXVX3.0 d g f s a j B @XAXFXFXFXFXFXSXbX7XW.S.3 5 ",
"Q.W.wXmXDXFXFXFXFXFXFXFXFXAXbX.X:.v +   O S 7.VXSXe.0 9 9 0 k L Y W R R W R R W W ~ ^ ^ W R R R R q.SXVX4.8 q 8 O v *.OXvXSXFXFXFXFXFXFXDXnXwXW.D.3 5 ",
"Q.W.wXmXFXFXFXFXFXFXFXFXFXFXFXFXFXbX+X>.$ y 5.VXFXp.8 9 9 0 i K Q Y R R R R R R W W W W T R R R R h.FXVX$.t c ;.+XvXDXFXFXFXFXFXFXFXFXFXAXbXwXW.D.3 5 ",
"Q.W.wXmXFXFXFXFXFXFXFXFXFXFXFXFXFXFXFXFXAX@XoXSXFX$Xu 9 9 t 0 k K H I E R R R R R R E I I I E T E %XFXSX XOXmXDXFXFXFXFXFXFXFXFXFXFXFXFXAXnXwXT.S.3 5 ",
"Q.W.tXmXDXFXFXFXFXFXFXFXFXFXFXFXFXFXFXFXFXFXFXFXFXBXV O 9 O 9 0 d D G P I I T T T I P H H P P I ' NXFXFXFXFXFXFXFXFXFXFXFXFXFXFXFXFXFXFXSXnXwXW.S.3 5 ",
"Q.W.tXmXFXFXFXFXFXFXFXFXFXFXFXFXFXFXFXFXFXFXFXFXFXFX~.9 O O O 9 8 a f A G H H H G G S S S G H G ].SXFXFXFXFXFXFXFXFXFXFXFXFXFXFXFXFXFXFXSXbX0XW.S.3 5 ",
"Q.W.wXZXSXFXFXFXFXFXFXFXFXFXFXFXFXFXFXFXFXFXFXFXFXFXNX#.o O O O 7 7 q a s f f g f g g A S A A _ BXFXFXFXFXFXFXFXFXFXFXFXFXFXFXFXFXFXFXFXDXnXwXT.S.3 5 ",
"Q.W.wXmXDXFXFXFXFXFXFXFXFXFXFXFXFXFXFXFXFXFXFXFXNXSXFX#Xc O o O O 7 8 8 q w a s s f g g g f C iXFXSXNXFXFXFXFXFXFXFXFXFXFXFXFXFXFXFXFXFXAXbXwXW.S.3 5 ",
"Q.W.wXmXFXFXFXFXFXFXFXFXFXFXFXFXFXFXFXFXFXFXFXVXa.h.VXFX#Xv . o O 7 7 8 q q w a s s s s a N iXFXSX].0.VXFXFXFXFXFXFXFXFXFXFXFXFXFXFXFXFXAXvXwXW.D.3 5 ",
"Q.W.tXmXDXFXFXFXFXFXFXFXFXFXFXFXFXFXFXFXFXFXFX*XK E d.VXFXdX+.X   o O 8 8 q w w w w w p -.fXFXSX/.m Y |.FXFXFXFXFXFXFXFXFXFXFXFXFXFXFXFXAXnXwXT.D.3 5 ",
"Q.W.wXmXFXFXFXFXFXFXFXFXFXFXFXFXFXFXFXFXFXFXVX3.i I R d.NXFXAXXX..+ . . o O O 7 7 t +.XXSXFXNXp.k h R  .VXFXFXFXFXFXFXFXFXFXFXFXFXFXFXFXSXmXwXW.S.3 5 ",
"Q.W.tXmXDXFXFXFXFXFXFXFXFXFXFXFXFXFXFXFXFXFX%Xn w F P I 0.NXFXFXBX8XH.=.@.O.@.=.H.eXAXFXFXVXw.r e s T W }.FXFXFXFXFXFXFXFXFXFXFXFXFXFXFXAXnXwXT.D.3 5 ",
"Q.W.wXmXFXFXFXFXFXFXFXFXFXFXFXFXFXFXFXFXFXNX3.r w w w i o.8XFXFXFXFXFXFXFXAXFXFXFXFXFXFXFXfXo.X   o a T | kXFXFXFXFXFXFXFXFXFXFXFXFXFXFXSXnXwXW.D.3 5 ",
"Q.W.tXmXFXFXFXFXFXFXFXFXFXFXFXFXFXFXFXFXFX%Xk q q y -.+XMXSXFXFXFXSXMXjXjXjXjXjXMXSXFXFXFXFXBX.X=.@   q I [.FXFXFXFXFXFXFXFXFXFXFXFXFXFXSXbX0XW.D.3 5 ",
"Q.W.wXmXDXFXFXFXFXFXFXFXFXFXFXFXFXFXFXFXNX<.8 c ;.8XDXFXFXFXFXFXFXSXw.m / / / ) t.SXFXFXFXFXFXFXDX8X>.# 8 { kXFXFXFXFXFXFXFXFXFXFXFXFXFXDXnXwXT.D.3 5 ",
"Q.W.tXmXFXFXFXFXFXFXFXFXFXFXFXFXFXFXFXFX$X%.).tXFXFXFXFXFXFXFXFXFXFX_.e s G H P '.FXFXFXFXFXFXFXFXFXFXdXG.b {.FXFXFXFXFXFXFXFXFXFXFXFXFXAXnXwXW.D.3 5 ",
"Q.W.wXmXDXFXFXFXFXFXFXFXFXFXFXFXFXFXFXFXjXBXFXFXFXFXFXFXFXFXFXFXFXFXjXn 9 A R ! gXFXFXFXFXFXFXFXFXFXFXFXFXbXjXSXFXFXFXFXFXFXFXFXFXFXFXFXSXbX7XW.S.3 5 ",
"Q.W.wXmXFXFXFXFXFXFXFXFXFXFXFXFXFXFXFXFXFXFXFXFXFXFXFXFXFXFXFXFXFXFXSX2.7 g T a.SXFXFXFXFXFXFXFXFXFXFXFXFXFXFXFXFXFXFXFXFXFXFXFXFXFXFXFXDXnXwXW.D.3 5 ",
"Q.W.tXmXDXFXFXFXFXFXFXFXFXFXFXFXFXFXFXFXFXFXFXFXFXFXFXFXFXFXFXFXFXFXFX$Xu g Y *XFXFXFXFXFXFXFXFXFXFXFXFXFXFXFXFXFXFXFXFXFXFXFXFXFXFXFXFXAXbXwXW.D.3 5 ",
"Q.W.wXmXDXFXFXFXFXFXFXFXFXFXFXFXFXFXFXFXFXFXFXFXFXFXFXFXFXFXFXFXFXFXFXBXV f { VXFXFXFXFXFXFXFXFXFXFXFXFXFXFXFXFXFXFXFXFXFXFXFXFXFXFXFXFXAXnXwXT.S.3 5 ",
"Q.W.tXmXFXFXFXFXFXFXFXFXFXFXFXFXFXFXFXFXFXFXFXFXFXFXFXFXFXFXFXFXFXFXFXFXp.g a.SXFXFXFXFXFXFXFXFXFXFXFXFXFXFXFXFXFXFXFXFXFXFXFXFXFXFXFXFXSXnXwXW.S.3 5 ",
"Q.W.wXmXDXFXFXFXFXFXFXFXFXFXFXFXFXFXFXFXFXFXFXFXFXFXFXFXFXFXFXFXFXFXFXFXiX_ pXFXFXFXFXFXFXFXFXFXFXFXFXFXFXFXFXFXFXFXFXFXFXFXFXFXFXFXFXFXSXbX0XW.S.3 5 ",
"Q.W.tXmXFXFXFXFXFXFXFXFXFXFXFXFXFXFXFXFXFXFXFXFXFXFXFXFXFXFXFXFXFXFXFXFXVX*XVXFXFXFXFXFXFXFXFXFXFXFXFXFXFXFXFXFXFXFXFXFXFXFXFXFXFXFXFXFXDXnXwXT.S.3 5 ",
"Q.W.wXmXSXFXFXFXFXFXFXFXFXFXFXFXFXFXFXFXFXFXFXFXFXFXFXFXFXFXFXFXFXFXFXFXFXSXFXFXFXFXFXFXFXFXFXFXFXFXFXFXFXFXFXFXFXFXFXFXFXFXFXFXFXFXFXFXAXbXwXW.S.3 5 ",
"Q.W.tXmXFXFXFXFXFXFXFXFXFXFXFXFXFXFXFXFXFXFXFXFXFXFXFXFXFXFXFXFXFXFXFXFXFXFXFXFXFXFXFXFXFXFXFXFXFXFXFXFXFXFXFXFXFXFXFXFXFXFXFXFXFXFXFXFXAXvXwXW.D.3 5 ",
"Q.W.wXmXDXFXFXFXFXFXFXFXFXFXFXFXFXFXFXFXFXFXFXFXFXFXFXFXFXFXFXFXFXFXFXFXFXFXFXFXFXFXFXFXFXFXFXFXFXFXFXFXFXFXFXFXFXFXFXFXFXFXFXFXFXFXFXFXAXnXwXT.D.3 5 ",
"Q.W.wXmXFXFXFXFXFXFXFXFXFXFXFXFXFXFXFXFXFXFXFXFXFXFXFXFXFXFXFXFXFXFXFXFXFXFXFXFXFXFXFXFXFXFXFXFXFXFXFXFXFXFXFXFXFXFXFXFXFXFXFXFXFXFXFXFXSXmXwXW.S.3 5 ",
"Q.W.wXmXFXFXFXFXFXFXFXFXFXFXFXFXFXFXFXFXFXFXFXFXFXFXFXFXFXFXFXFXFXFXFXFXFXFXFXFXFXFXFXFXFXFXFXFXFXFXFXFXFXFXFXFXFXFXFXFXFXFXFXFXFXFXFXFXAXnXwXT.S.3 5 ",
"Q.W.tXmXDXFXFXFXFXFXFXFXFXFXFXFXFXFXFXFXFXFXFXFXFXFXFXFXFXFXFXFXFXFXFXFXFXFXFXFXmXqXFXFXFXFXFXFXFXFXFXFXFXFXFXFXFXFXFXFXFXFXFXFXFXFXFXFXSXnXwXW.S.3 5 ",
"Q.W.tXmXFXFXFXFXFXFXFXFX2XK.AXFXFXFXFXFXFXFXFXFXFXFXFXFXFXFXFXFXFXFXFXFXFXFXFXFX<X4 mXFXFXFXFXFXFXFXFXFXFXFXFXFXFXFXFXFXFXFXFXFXFXFXFXFXSXbX0XW.S.3 5 ",
"Q.W.wXZXSXFXFXFXFXFXFXFXB., nXFXFXFXFXDXmXZXFXFXFXDXZXFXFXAXAXFXFXFXmXnXAXFXFXFXY.; nXFXFXFXFXFXDXZXDXFXZXDXFXFXAXDXZXmXFXFXFXFXFXFXFXFXDXnXwXT.S.3 5 ",
"Q.W.wXmXDXFXFXFXFXFXFXFXC., nXFXFXFXmXB.4 z.1XFXFXqXc.rXmXn.U.FXFX<X4 2 B.mXFXFXY.> nXFXFXFXFXFXqXl.xXxXj.0XFXFXK.B.j.< <XFXFXFXFXFXFXFXAXbX0XW.D.3 5 ",
"Q.W.wXmXFXFXFXFXFXFXFXFXC., vXFXFXFX<X= K.x.2 mXFXzX, I.9X= E.FXZX2 c.J.- R.FXFXY.> nXFXFXFXFXFX5X- wXqX= 3XFXDXc.* L.1 < vXFXFXFXFXFXFXAXvXwXW.D.3 5 ",
"Q.W.tXmXDXFXFXFXFXFXFXFXC.; vXFXFXFXZ.& x.1 1 vXFXAXv.l.Z., xXFX9X- 2 x.= K.FXFX,X, xXFXFXFXFXFX5X= 0XrX= 1XFXDXb.l.ZXP.- 0XFXFXFXFXFXFXSXnXwXW.D.3 5 ",
"Q.W.wXmXFXFXFXFXFXFXFXFXC.; wXZXDXFXL.* E.9X9XDXFXFX,X* - N.AXFXqX- m.9X2XxXFXFX,X, xXFXFXFXFXFX5X* <X<X* <XFXDXb.4 xXB.> zXFXFXFXFXFXFXAXbXwXW.S.3 5 ",
"Q.W.tXmXDXFXFXFXFXFXFXFXC.& j.b.rXFX2X= c.m.K.AXFXFXqX: % Y.FXFXZXk., m.m.qXFXFX,X, xXFXFXFXFXFXzX: : > & <XFXDXn.& 4 = b.ZXFXFXFXFXFXFXAXmXwXW.S.3 5 ",
"Q.W.wXmXFXFXFXFXFXFXFXFX<XM.I.<XnXFXzXA.M.V.<XAXFXFXxXC.M.5XFXFXDX>XM.M.P.xXFXFX5XV.cXFXFXFXFXFXnXC.V.P.V.5XFXDXb., Z.M.Y.AXFXFXFXFXFXFXAXnXwXW.S.3 5 ",
"Q.W.tXmXFXFXFXFXFXFXFXDXzX5XZXFXFXFXcX2XqXqXxXDXFXFXcX2X5XqXAXFXZX5X5XqXrXZXFXFXcX4XZXFXFXFXFXFXCX4XnXcX4XcXFXDXn.k.mXzX4XZXFXFXFXFXFXFXAXvX7XW.S.3 5 ",
"Q.W.wXmXDXFXFXFXFXFXFXFXnXzXDXFXFXFXCXlXcXcXzXDXFXDXcXcXZXzXAXFXDXzXcXcXlXCXFXFXZXzXDXFXFXFXFXFXAXlXAXDXzXZXFXFX2X,XAXCXzXDXFXFXFXFXFXFXDXbXwXW.S.3 5 ",
"Q.W.wXBXFXFXSXFXDXSXFXFXZXZXDXDXDXFXDXZXAXZXZXDXFXDXZXAXDXZXAXDXDXZXZXAXZXAXDXFXDXCXAXDXFXDXFXDXDXZXDXAXZXAXFXDXZXZXAXZXZXDXSXDXSXDXSXDXSXbXwXW.S.3 5 ",
"Q.W.wXmXDXAXmXZXmXAXZXmXZXmXBXAXmXmXmXZXmXmXZXZXmXmXmXmXZXZXmXZXAXZXmXmXmXZXBXmXmXmXAXZXZXBXBXmXmXmXmXmXmXmXZXmXmXmXmXmXmXZXAXmXZXAXZXBXZXnX0XW.S.3 5 ",
"Q.W.wXnXvXwXwXwXwXwXwXwXwXwXwXwXwXwXwXwXwXwXwXwXwXwXwXwXwXtXwXwXwXwXwXwXwXwXwXwXwXwXwXwXwXwXwXwXwXwXwXwXtXwXwXwXtXwXwXwXwXwXwXwXwXwXwXwXwXwX7XT.S.3 5 ",
"Q.W.wX6XT.T.T.W.T.T.T.T.T.W.T.T.T.T.T.T.T.T.T.T.T.T.T.T.T.T.T.T.T.T.T.T.T.T.T.T.T.T.T.T.T.T.W.T.T.T.T.T.T.T.T.T.T.T.T.T.T.T.T.T.T.W.T.T.T.T.T.T.S.3 5 ",
"Q.W.W.T.F.F.F.F.F.F.F.F.F.F.F.F.F.F.F.F.F.F.F.F.F.F.F.F.F.F.F.F.F.F.F.F.F.F.F.F.F.F.F.F.F.F.F.F.F.F.F.F.F.F.F.F.F.F.F.F.F.F.F.F.F.F.F.F.F.F.F.F.D.3 5 ",
"6XQ.6XQ.6X6X6X6X6X6X6X6X6X6X6X6X6X6X6X6X6X6X6X6X6X6X6X6X6X6X6X6X6X6X6X6X6X6X6X6X6X6X6X6X6X6X6X6X6X6X6X6X6X6X6X6X6X6X6X6X6X6X6X6X6X6X6X6X6X6X6X6X6XD.6 ",
"vXmXAXAXmXAXAXAXZXAXAXBXBXZXAXAXAXAXAXmXAXAXAXZXAXAXAXAXBXAXmXAXZXAXBXAXAXAXAXmXmXAXAXAXAXAXBXZXAXAXAXAXAXBXAXmXAXAXAXZXAXAXmXAXmXAXAXAXAXmXAXAXAXbX0X"
};
