/* XPM */
static char *poser_p[] = {
/* columns rows colors chars-per-pixel */
"75 75 255 2",
"   c #060600",
".  c #090900",
"X  c #131301",
"o  c #1B1B01",
"O  c #222201",
"+  c #2C2C01",
"@  c #333301",
"#  c #3D3D01",
"$  c #12113D",
"%  c #494901",
"&  c #535302",
"*  c #5A5A00",
"=  c #666603",
"-  c #797902",
";  c #4E4E3C",
":  c #72722B",
">  c #6A6A3A",
",  c #767635",
"<  c #0B0C48",
"1  c #17184C",
"2  c #0A0E55",
"3  c #0C0C5E",
"4  c #0C1056",
"5  c #191A57",
"6  c #12125B",
"7  c #211F56",
"8  c #1F205F",
"9  c #26264F",
"0  c #29294E",
"q  c #383849",
"w  c #272656",
"e  c #362B58",
"r  c #353550",
"t  c #050562",
"y  c #0B0B61",
"u  c #0E186A",
"i  c #161A66",
"p  c #1C226B",
"a  c #1B257A",
"s  c #262968",
"d  c #31316A",
"f  c #242978",
"g  c #2B3578",
"h  c #373978",
"j  c #483770",
"k  c #4C4C46",
"l  c #41414B",
"z  c #555544",
"x  c #6F6F4D",
"c  c #70704D",
"v  c #7A7A4C",
"b  c #49537D",
"n  c #707575",
"m  c #7F8477",
"M  c #828203",
"N  c #8D8D03",
"B  c #909000",
"V  c #9D9D04",
"C  c #99991E",
"Z  c #A2A203",
"A  c #ABAB04",
"S  c #A0A00E",
"D  c #AEAE0B",
"F  c #B3B302",
"G  c #BABA07",
"H  c #A4A41A",
"J  c #A9A918",
"K  c #BEBE12",
"L  c #B6B61A",
"P  c #878729",
"I  c #999928",
"U  c #838331",
"Y  c #A5A525",
"T  c #ACAC23",
"R  c #B0B022",
"E  c #C3C304",
"W  c #CCCC04",
"Q  c #C4C40C",
"!  c #CCCC0C",
"~  c #D4D401",
"^  c #DCDC04",
"/  c #D4D40A",
"(  c #DBDB0C",
")  c #C4C413",
"_  c #CDCD14",
"`  c #C4C41B",
"'  c #CBCB1A",
"]  c #D3D313",
"[  c #DCDC12",
"{  c #E3E304",
"}  c #EBEB02",
"|  c #E3E30D",
" . c #EBEB0B",
".. c #F6F603",
"X. c #FFFF05",
"o. c #F5F50C",
"O. c #F8F70D",
"+. c #FDFD0A",
"@. c #E5E514",
"#. c #E9E91A",
"$. c #F0EF12",
"%. c #FFFF14",
"&. c #F6F61A",
"*. c #DADB26",
"=. c #D5D528",
"-. c #D0D338",
";. c #DEE02B",
":. c #FFFF25",
">. c #F4F628",
",. c #FFFF2F",
"<. c #E9EC31",
"1. c #F3F237",
"2. c #FFFF36",
"3. c #91985A",
"4. c #B4B347",
"5. c #BBBB4F",
"6. c #AAAC55",
"7. c #8D9471",
"8. c #ACB875",
"9. c #B9CB7A",
"0. c #CAD151",
"q. c #DEE948",
"w. c #E3EB49",
"e. c #EEEE4D",
"r. c #F0F04D",
"t. c #E9E756",
"y. c #D2D467",
"u. c #D6D679",
"i. c #E7E96D",
"p. c #151D83",
"a. c #182588",
"s. c #1A2995",
"d. c #1F3493",
"f. c #242D86",
"g. c #293587",
"h. c #363B82",
"j. c #293399",
"k. c #283698",
"l. c #1D32A9",
"z. c #2938A7",
"x. c #303FA0",
"c. c #263CB6",
"v. c #413F89",
"b. c #3C468A",
"n. c #3A479B",
"m. c #364B9A",
"M. c #2E42AA",
"N. c #3648A6",
"B. c #3E53A9",
"V. c #2C47B8",
"C. c #354AB8",
"Z. c #3A56B9",
"A. c #50528A",
"S. c #424C97",
"D. c #48559A",
"F. c #545A9A",
"G. c #6E5D9C",
"H. c #596396",
"J. c #656E92",
"K. c #424BA5",
"L. c #4959A8",
"P. c #525CA7",
"I. c #404FB0",
"U. c #465BB5",
"Y. c #5764AC",
"T. c #4D62B8",
"R. c #5666B7",
"E. c #556DB5",
"W. c #676EAE",
"Q. c #6674AA",
"!. c #666BB3",
"~. c #6876BA",
"^. c #747BB9",
"/. c #2F3EE7",
"(. c #2749C7",
"). c #344BC2",
"_. c #2D52CC",
"`. c #3355CC",
"'. c #3957C9",
"]. c #2D54D2",
"[. c #3659D4",
"{. c #3B5CD3",
"}. c #3C61D6",
"|. c #325EE2",
" X c #3663E4",
".X c #415CC7",
"XX c #4964CA",
"oX c #566AC6",
"OX c #4E72C8",
"+X c #5A74C8",
"@X c #4364D4",
"#X c #486AD8",
"$X c #556DD6",
"%X c #4D73DC",
"&X c #5779D9",
"*X c #6777C7",
"=X c #6D76C5",
"-X c #657BD6",
";X c #4F78E5",
":X c #8F79B0",
">X c #798EAD",
",X c #7584BD",
"<X c #5D81DB",
"1X c #6B85C8",
"2X c #7886C9",
"3X c #6685D5",
"4X c #758FD0",
"5X c #7997D8",
"6X c #5D82E2",
"7X c #5E85F1",
"8X c #6488E5",
"9X c #6C94EF",
"0X c #7698E6",
"qX c #7BA1E6",
"wX c #7AA7F8",
"eX c #9CA496",
"rX c #96A298",
"tX c #9690B7",
"yX c #B3CC9F",
"uX c #CED38A",
"iX c #DAD885",
"pX c #E2DC8B",
"aX c #CEC9B0",
"sX c #CCE1A4",
"dX c #858AC6",
"fX c #8F8DC8",
"gX c #9A97CC",
"hX c #8997D5",
"jX c #979AD4",
"kX c #A69ECB",
"lX c #9BA5D7",
"zX c #89B0D5",
"xX c #ADA3CA",
"cX c #B3A8CC",
"vX c #B5B0CC",
"bX c #A5A6D7",
"nX c #A8B7DC",
"mX c #B8B5D5",
"MX c #88A9E5",
"NX c #97B7E6",
"BX c #88ACF7",
"VX c #91B3F2",
"CX c #A6BEEC",
"ZX c #C2B8D3",
"AX c #A6CADC",
"SX c #AAC7F6",
"DX c #B3CCF3",
"FX c #CCCECC",
"GX c #CEDBEF",
"HX c #C7D9F9",
"JX c #CDE8FD",
"KX c #D9EAFC",
"LX c #E0EAF9",
"PX c #E9F6FE",
"IX c #F5FCFF",
/* pixels */
"iXw.r.e.e.e.e.e.e.e.e.e.e.e.e.e.e.e.e.e.e.e.e.e.e.e.e.e.e.e.e.e.e.e.e.e.e.e.e.e.e.e.e.e.e.e.e.e.e.e.e.e.e.e.e.e.e.e.e.e.e.e.e.e.e.e.e.e.e.e.e.e.r.w.8.",
"0.W ..X.X.X.X.X.X.X.X.X.X.X.X.X.X.X.X.X.X.X.X.X.X.X.X.X.X.X.X.X.X.X.X.X.X.X.X.X.X.X.X.X.X.X.X.X.X.X.X.X.X.X.X.X.X.X.X.X.X.X.X.X.X.X.X.X.X.X.X.X.X.Z v ",
"5.F } X.X.X.X.X.X.X.X...X.X.X.X.X.X.X.X.X.X.X...X.X.X.X.X.X.X.X.X.X.X...X.X.X.X.X.X.X.X.X.X.X...X.X.X.X.X.X.X.X.X.X.X...X.X.X.X.X.X.X.X.X.X.X...E * x ",
"5.F ~ ..%.%.%.%.%.%.%.%.%.%.%.%.%.%.%.%.%.%.%.%.%.%.%.%.%.%.%.%.%.%.%.%.%.%.%.%.%.%.%.%.%.%.%.%.%.%.%.%.%.%.%.%.%.%.%.%.%.%.%.%.%.%.%.%.%.%.o./ V * x ",
"5.F ~ } %.,.,.,.,.,.,.,.,.,.,.,.,.,.,.,.,.,.,.2.,.,.2.,.,.,.,.,.,.,.,.,.,.,.,.,.2.,.,.,.,.,.,.2.,.,.2.,.,.,.,.,.,.,.,.,.,.,.,.,.2.,.,.,.,.,.@.F N * x ",
"5.F ^ } +.%.2.2.2.2.2.2.2.2.2.2.2.2.2.2.2.2.2.2.2.2.2.2.2.2.2.2.2.2.2.2.2.2.2.2.2.2.2.2.2.2.2.2.2.2.2.2.2.2.2.2.2.2.2.2.2.2.2.2.2.2.2.2.2.&.~ F B * x ",
"5.F / } ..X.%.:.:.:.:.:.:.:.:.:.:.:.:.:.:.:.:.:.:.:.:.:.:.:.:.:.:.:.:.:.:.:.:.:.:.:.:.:.:.:.:.:.:.:.:.:.:.:.:.:.:.:.:.:.:.:.:.:.:.:.:.:.&.} W F B * x ",
"5.F ^ } X.X.X.%.%.%.%.%.+.%.%.%.%.%.%.+.%.%.%.%.%.%.+.%.%.+.%.%.+.%.%.%.+.%.%.%.+.%.%.%.%.+.%.%.%.%.+.%.%.+.%.%.+.%.%.%.+.%.%.%.+.%.%.+...} ~ F B * x ",
"5.F ~ } X.X.X.X.X.X.X.X.X.X.X.+.X.X.X.+.X.+.+.X.+.X.+.X.X.X.X.X.X.X.X.X.+.X.X.X.X.X.X.X.+.X.X.X.+.X.X.+.X.X.X.X.X.X.+.X.X.+.X.+.X.X.X.X...} ~ F N * c ",
"5.F ~ } X.X.X.X.X.X.X.X.X.X.X.X.X.X.X.X.X.X.X.X.X.X.X.X.X.X.X.X.X.X.X.X.....X.X.X.X.X.X.X.X.X.X.X.X.X.X.X.X.X.X.X.X.X.X.X.X.X.X.X.X.X.X...} W F B * c ",
"5.F ~ ..X.X.X.X.X.X.X.X.X.X.X.X.X.X.X.X.X.X.X.X.X.X.X.X.X.X.X.X.X...X.%.$.<.w.w.q.q.q.1.>.O.X.X.X.X.X.X.X.X.X.X.X.X.X.X.X.X.X.X.X.X.X.X...{ W F B * c ",
"5.F ~ } ..X.X.X.X.X.X.X.X.X.X.X.X.X.X.X.X.X.X.X.X.X.X.+.X.X.X.+.$.q.uXyXAXzXzXzXNXNXNXAXAXsXuXq.#.+.X.X.X.X.X.X.X.X.X.X.X.X.X.X.X.X.X.X...} ~ F B * c ",
"5.G ~ } ..X.X.X.X.X.+.X.X.X.X.X.X.X.X.X.X.X.X.X.X.X.X.X.X.X.*.6.n Y.3X3Xb.g g g B.OXB.U.1XqXMX4XQ.7.` #.O.X.X.X.X.X.X.X.X.X.X.X.X.X.X.X...} ~ F N * c ",
"5.F ~ ..X.X.X.X.X.X.X.X.X.X.+.X.X.X.X.X.X.X.X.X.X.X.X.+.;.3.Q.+X<XT.F.Y.s 1 u 1 1 $ 9 m.m.H.Y.E.I.b.h n 0.&.X.X.X.X.+.X.X.X.X.X.X.X.X.X...} W F B * c ",
"5.F ~ } ..X.X.X.X.X.X.X.X.X.X.X.X.X.X.X.X.X.X.+.X.X.&.6.J.'.7X<X+XL.b.L.h.1 1 1 u i p L.H.L.~.Q.~.^.R.Z.U.m =.X.X.X.X.X.X.X.+.X.X.+.X.X...} W F B * c ",
"5.G ~ } X.X.X.X.X.X.X.X.X.X.X.X.X.X.X.X.X.X.X.X.X.#.7.S.B.XX<X3XL.B.U.B.T.5 1 1 p p m.<XE.E.1XE.,X,XW.k.k.U.>Xq.X.X.X.X.X.X.X.X.X.X.X.X...} ~ F B * c ",
"5.F ~ } X.X.X.X.+.X.X.X.X.X.X.X.X.X.X.X.X.X.X.X.#.n x.N.,X4XqXBXMXNXCXNX5Xg p p p g m 0.8.>XzX4X~.W.P.L.m.8XwX>X-.+.X.X.X.X.X.X.X.X.X.X...} ~ F B * c ",
"5.F ~ ..X.X.X.X.X.X.X.X.X.X.X.X.X.X.X.X.X.X.X.<.n a.s.D.CXAXDXHXKXPXIXIXDX4XD.g 1 i >X9.iXsXGX9.rX~.L.D.D.,XE.M.J.;.X.X.X.X.X.X.X.X.X.X...} W F N * c ",
"5.G ~ } X.X.X.X.X.X.X.X.X.X.X.X.X.X.X.X.X.X.+.7.j.p.a Q.JXKXKXPXIXIXPXHXDXNXNX1Xm.m..XOX<X0XnXi.&.yXD.7 $ p g P.'.7.&.X.X.X.X.X.X.X.X.X...} W F B * c ",
"5.F ~ } X.X.X.X.X.X.X.X.X.X.+.X.X.X.+.X.X.X.0.P.a.a.f.dXPXPXPXPXPXLXDXzXqX8X8X6X<X<X<X<X}.<X6XMX0.<.Q.d $ b.3.0.1XB.0...X.X.X.X.X.X.X.X...} W F B * c ",
"5.F ~ ..X.X.X.X.+.X.X.X.X.X.X.X.X.X.X.X.X.$.7.c.z.f.f.lXIXPXIXIXPXCX9X&X<X%X%X%X X<X<X<X<X6X9X9X4X8.S.h.s b 8.8.E.C.m O.X.X.X.X.X.X.X.+...} ~ F B * c ",
"5.F ~ } ..X.X.X.X.X.X.X.+.X.X.X.X.X.X.X.X.-.A.i f.f.f.nXPXLXGXCXMX3X$X%X%X#X}.#X}.}.}. X%X#X;X6X+X+Xf.g g k.L.R.5XT.P.;.X.X.X.X.X.X.X.X...} W F N * c ",
"5.F ~ } X.X.X.X.X.X.X.X.X.X.X.X.X.X.X.X.X.3.f.i f a f.=X=XT.j.K.%XOX#X#X}.'._.}.}.].}.}.}.}.}.XXXXoXB.XX$Xx.S.~.GX>XoX0.X.X.X.X.X.X.X.X...} W F B * c ",
"5.F ~ } X.X.X.X.X.X.X.X.X.X.X.X.X.X.X.X.>.J.p.a a f.z.c.s.s.j.@X@X'.{.'.'._.Z.[._._._.].`.[.'.'.XXXX$X&X&Xc.K.W.fXrXR.8.+.X.X.X.X.X.X.X...} ~ F B * c ",
"5.G ~ } X.X.X.X.X.X.X.X.X.X.+.X.X.X.X.X.;.G.i p f g.z.z.l.s.C.$X.X'.).V.).'.`.`.]._.].]._.`.`.`.@X@XoX-X#X/.#X>XD.P.1XeXX.X.X.X.X.X.X.X...} ~ F B * c ",
"5.F ~ } ..X.X.X.X.X.X.X.X.X.X.X.X.X.X.X.-.S.f.f g.M.c.z.)..X@X.X'.).).).`.{.'.`._.].[.[.`.`.[.{.@X@XXX$X)..X0XH.w 8 Y.yX+.X.X.X.X.X.X.X...} W F N * c ",
"5.F ~ ..X.X.X.X.X.X.X.X.X.X.X.X.X.X.X.X.-.U..Xf.f x.c.j..X$X.X.XC.V.V.C.`.[.[.{.|. X|. X;X#X[.[..X@X@X$XL.S.VXb.1 1 b.eXO.X.X.X.X.X.X.X...{ W F B * c ",
"5.F ~ } X.X.X.X.X.X.X.X.X.X.X.X.X.X.X.X.-.A.j.f s h.c.f.f.C..XC.V.V.U.#XV.V.(.(.]. X;XwXBX9X@X#X#X$X;X-X=XK.0XS.w 7 h eX%.X.X.X.X.X.X.X...} ~ F B * c ",
"5.F ^ } ..X.X.X.X.X.X.X.X.X.X.X.X.X.X.X.-.W.g.h d d j.f 6 i x.C.M.V.'.}.c.l.l.c.].VXHXSXBXwXwX7X7X7X8XBXhXK.x.-Xh w h.lXi.%.+.+.X.X.X.X...} ~ F B * c ",
"5.G ~ } X.X.X.X.X.X.X.X.X.X.X.X.X.X.X.X.#.>Xh.j j j j f i y j.z.M.Z.}.}.&XqX%Xc.(.BXSX8XXX&XwXVXBXBXwXBXVX-XoX*XP.W.R.bXFX1.X.X.X.X.X.X...} W F N * c ",
"5.F ~ ..X.X.X.X.X.X.X.X.X.X.X.X.X.X.X.X.O.7.x.D.K.v.j P..Xj.s.x.V.}.6X7XDXJX5Xs.s.c.(.OX+X+X9XwXVXVX-XoX*XK.&XSXKXKXdXxXZXt.X.X.X.+.X.X...} W F B * c ",
"5.F ~ } X.X.X.X.X.X.X.X.X.X.X.X.X.X.X.X.+.4.j d w d v.j f.z.s.z.}.<XM.Z.<X0Xm.2 u a.a.Z.0XMXMX0X6XoXC.j.i f.N.-XCXCXhXxXmXt.X.X.X.X.X.X...} ~ F B * c ",
"5.F ~ } X.X.X.X.X.X.X.X.X.X.X.X.X.X.X.X.X.<.Q.h.j G.:Xe u l.(.].V.'.<XT.m.f.a.p p.d.V.'.3X5X1XlXB.d.C.Z.g.S.f s N.*XgXxXZXt.X.X.X.X.X.X...} ~ F B * c ",
"5.F ~ ..X.X.X.X.X.X.X.X.X.X.X.X.X.X.X.X.X.+.8.=X:X:X:Xj 2 s.(.|.V.(.qXE.a f p i p f.k.k.m.B.k.E.L.f.g.d P.B.B.d h.=XxXcXZXt.X.X.X.X.X.X...} W F N * c ",
"5.F ~ } X.X.X.X.X.X.X.X.X.X.X.X.X.X.X.X.X.X.>.vXfXgXfXF.a g.N.M.(.}.XXm.a.a.a p p a a k.U.E.Z.M.'.Z.b.E.*XR.+XS.L.gXxXcXFX1.X.X.X.X.X.X...} W F B * c ",
"5.F ~ } ..X.X.X.+.X.X.+.X.X.X.+.X.X.X.X.X.X.X.0.kX:XtXW.F.zXGX4X'.}.OX4XgXW.d 7 s a g.Z.6XMXQ.M..XoX2X4X~.*X<X+XfXxXcXZXpX+.X.X.X.X.X.X...} W F B * c ",
"5.G ~ } X.X.X.X.X.X.X.X.X.X.X.X.X.X.X.X.X.X.X.O.y.tXkXfXDXPXGX,XY.U.oXlXGXhXM.p 5 i a M.{..XoX3X2XY.fXGXlXR.R.fXbXcXZXaX1.X.X.X.X.X.X.+...} ~ F B * c ",
"5.F ~ } X.X.X.X.X.X.X.X.X.X.X.X.X.X.X.X.X.X.X.X.o.uXgX!.OXNXhXR.R.Y.T.Y.E.g.u 2 2 4 u g.U.3XMXSXSXlXfXmX0X-XfXxXcXZXaX1.X.X.X.X.X.X.X.X...} W F N * c ",
"5.F ~ ....X.X.X.X.X.X.X.X.X.X.+.X.X.X.X.X.X.+.X.X.e.mX^.U.3X=XY.P.P.Y.P.L.g < < 2 4 3 h.2XDXVXHXHXCXjX=X0XfXkXcXZXaX1.X.X.X.X.X.X.X.X.X...} W F B * c ",
"5.G ~ } X.X.X.X.+.X.X.X.X.X.X.X.X.X.X.X.X.X.X.X.X.+.iXbXdX~.R.U.L.P.L.P.n.b.s 1 < < 4 h.^.LXKXDXNX-XoX=XgXkXcXZXpX>.X.X.X.X.X.X.X.X.X.X...} ~ F B * c ",
"5.F ~ ..X.X.X.X.X.X.X.X.X.+.X.X.X.X.X.X.X.X.X.X.X.X.%.iXnXjX2X~.R.P.D.S.b.h.S.h $ $ d A.W.bXhX4X=X2XhXkXcXvXaXe.%.X.X.X.X.+.X.X.X.X.X.X...} ~ F B * c ",
"5.F ~ } X.X.X.X.X.X.X.X.X.X.X.X.X.X.X.X.X.X.X.X.X.X.X.%.i.FXmXlXhXdX^.Q.H.F.A.A.A.A.^.,X^.dXdXhXjXbXvXaXiXw.%.X.X.X.X.X.X.X.X.X.X.X.X.X...} W F N * c ",
"5.G ~ } X.X.X.X.X.X.+.X.X.X.X.X.X.X.X.X.X.X.+.X.X.X.X.X.X.>.t.uXaXvXcXbXbXlXjXjXjXjXbXbXbXbXvXaXaXu.e.>.X.X.X.X.X.X.X.X.X.X.X.X.X.X.X.X...{ W F B * c ",
"5.F ~ } X.X.X.X.X.X.X.X.X.X.X.X.X.X.X.X.X.X.X.X.X.X.X.+.X.X.X.X.o.>.e.w.y.u.u.u.u.u.u.u.u.t.>.&.O.+.X.X.X.X.X.X.X.X.+.+.X.X.X.X.X.X.X.X...} ~ F B * c ",
"5.F ~ ..X.X.X.X.X.X.X.X.X.X.X.X.X.X.X.X.X.X.X.X.Y > ] X.X.X.X.X...P , ..X.X.X.X.X.X.X.X.X.X.X.X.X.X.X.X.X.X.X.X.X.X.X.X.X.X.X.X.X.X.X.X...} ~ F B * c ",
"5.F ~ } ..X.X.X.X.X.X.X.X.X.X.X.X.X.X.X.X.X.X.X., 3 L X.X.X.X.X. .r w / X.X.X.X.X.X.X.X.X.X.X.X.X.X.X.X.X.X.X.X.X.X.X.X.X.X.X.X.X.X.X.X...} W F N * c ",
"5.F ~ } X.X.X.X.X.X.X.X.X.X.X.o.]  .] ]  .X.X.+.> 6 J ] ] o.X.X.X.Y I ..X.X.[ | [ ] X.X.X.( _ _  .X.X.X.X.[ _ [ O.X.X.X.X.X.X.X.X.+.X.X...} W F B * c ",
"5.F ~ } X.X.X.X.X.X.X.X.X.X.X.T 5 k w y > | X.X., y q 6 6 I ..X.o.k q | X. .k 0 w q ^ X.R r i y z ( X.X.` e y 0 K X.X.X.X.X.X.X.X.X.X.X...} ~ F B * c ",
"5.G ~ } X.X.X.X.X.X.X.X.X.X.X.Y y q H ; 3 H X.X., t ; C w q ^ X...l 0 / X...q 3 > K } X.Y P ' > 3 C X...x 2 C I ) X.X.X.X.X.X.X.X.X.X.X...} ~ F B * c ",
"5.F ~ } ..X.X.X.X.X.X.X.X.X.X.T 6 : X.I y : X.X.> 6 J X.z 0 / X.o.l 0 ( X.o.l 0 W X.X.X. .U z q 3 C X.X.I 3 l I  .X.X.X.X.X.X.X.X.X.X.X...} W F B * c ",
"5.F ~ ..X.X.X.X.X.X.X.X.X.X.X.Y 3 P X.I y : X.X., 6 L X.z 9 / X. .l 0 ( X.o.l q ^ X.X...x 6 ; r 3 C X.X.o.Y l 3 P X.X.X.X.X.X.X.X.X.X.X...{ W F N * c ",
"5.F ~ } X.X.X.X.X.X.X.X.X.X.X.Y 3 q R k 6 H X.X.> 2 L ..z 0 / X.o.l 0 ( X. .q q ( X.X. .q 9 J x 3 C X...Y L I 3 : X.X.X.X.X.X.X.X.X.X.X...} ~ F B * c ",
"5.F ^ } ..X.X.X.X.X.X.X.X.X.X.Y 3 5 3 3 ; ( X.X., 6 J +.z 9 Q X.o.l 9 / X.o.l q ( X.X.X.P 3 3 5 6 P X..., 6 6 5 C O.X.X.X.X.X.X.X.X.X.X...} ~ F B * c ",
"5.G ~ } X.X.X.X.X.X.X.X.X.X.X.Y t ; H I U ) X.X.` , K +.L , ] X.X.Y , ( X.X.Y , ( X.X.X.` , J L , J X.X.( K L P Y +.X.X.X.X.X.X.X.X.X.X...} ~ F N * c ",
"5.F ~ ..X.X.X.X.X.X.X.X.X.X.X.Y 3 : X.o.T K O.X.| T ] X.] T [ X.X.] T | X.X._ T  .X.X.X.[ T ' _ R ` X.X.X. ._ T ` X.X.X.X.X.X.X.X.X.X.X...} W F B * c ",
"5.F ~ } X.X.X.X.X.X.X.X.X.X.X.` z I ..O.' _ X.X. .` | X.| `  .X.X.[ ` ..X.X.[ `  .X.X.X.O.| [ ] ` [ +.X.o.' ` [ ..X.X.X.X.X.X.X.X.X.X.X...{ ~ F B * c ",
"5.F ~ } X.X.X.X.X.X.X.X.X.X.X.+.@.( o.o.( | X.X.o.( @... .[ o.X.X. .[ o.X.X. .[ | o.X.X.O...X...[  .X.X.o.(  .....X.X.X.X.X.X.X.X.X.X.X...} W F B * c ",
"5.F ~ ..X.X.X.X.X.X.X.X.X.X.X.O.o.o.o.o.o.X.X.X...o.o.o.o.o.X.X.X.o.o.X.X.X...o.o.o.X.X.X.o.o.o.o.O.X.X.X.O.O.o.O.X.X.X.X.X.X.X.X.X.X.X...} ~ F B * c ",
"5.F ~ } X.X.X.X.X.X.X.+.X.X.X.X.X.+.X.X.X.~ M - M Z { X.X.X.X.X.X.X.X.X.X.X.X.X.X.X.X.X.X.X.X.X.X.X.X.X.X.X.X.X.X.X.X.X.X.X.X.X.X.X.X.X...} W F N * c ",
"5.F ~ } ..X.X.X.X.X.X.X.X.X.X.X.X.X.X.X.X.V   O O . % { X.X.X.X.X.X.X.X.X.X.X.X.X.X.X.X.X.X.X.X.X.X.X.X.X.X.X.X.X.X.X.X.X.X.X.X.X.X.X.X...} W F B * c ",
"5.G ~ } X.X.X.X.X.X.X.X.X.X.X.X.X.X.X.X.X.B . N ~ % . Z X.X.X./ V N F ..X.X.X.^ V N F ..X.X...G B V ~ X.X.X...A W Z E X.X.X.X.X.X.X.X.X...} ~ F B * c ",
"5.F ~ } X.X.X.X.X.X.X.X.X.X.X.X.X.X.X.X.X.V . Z X.-   Z X.X.F O o o o M ..X.{ & o # & ^ X.X.B o @ o # / X.X.^ O o X * ..X.X.X.X.X.X.X.X...} ~ F B * c ",
"5.F ~ ....X.X.X.X.+.X.X.X.X.X.X.X.X.X.X.X.V   * M o + / X.} % o F / # o W X.W o % W { o.X.{ # % W B   M X.X.{ O X N ! ..X.X.X.X.X.X.X.X...} W F N * c ",
"5.G ~ } X.X.X.X.X.X.X.X.X.X.X.X.X.X.X.X.X.Z   o + % A ..X.{ O # } X.- . F X. .* X + B ..X.E X X # @ X - X.X.^ O % o.X.X.X.X.X.+.X.X.X.X...{ W F B * c ",
"5.F ~ ..X.X.X.X.X.+.X.X.X.X.X.X.X.X.+.X.X.Z . M ~ } X.X.X.{ + @ } X.= o Q X.X.{ Z % . E X.E o % Z F F ~ X.X.{ + * ..X.X.X.X.X.X.X.X.X.X.o.} W F B * c ",
"5.F ~ } X.X.X.X.X.X.X.X.X.X.X.X.X.X.X.X.X.V   V X.X.X.X.X.o.* . = M o % { X.^ B A * . F X.{ # O V Z N / X.X.{ @ & o.X.X.X.X.X.X.X.+.X.X...} ~ F N * c ",
"5.G ~ } X.X.X.X.X.X.X.X.X.X.X.X.X.X.X.X.X.A o Z X.X.X.X.X.X.F + o O + V ..X.W # + O % ( X.X.V + o + + E X.X.^ % = ..X.X.X.X.X.X.X.X.X.X...} W F B * c ",
"5.F ~ } X.X.X.X.X.X.X.X.X.+.X.X.+.X.X.X.X.W N W X.X.X.X.X.o.F V E W Z Z  .X...{ W Z B ^ X. .Z Z E / ^ ..X.X.} V A ..X.X.X.X.X.X.X.X.X.X...} ~ F B * c ",
"5.F ~ } X.X.X.X.X.+.+.+.+.+.+.X.+.+.+.X.+.( A ! | o.O.X.+.o.G Q o.X./ F { +.X. .! G G  .X. .F G W / / { +.X.o.G Q O.X.X.+.+.X.+.+.+.X.X...} W F B * c ",
"5.F ~ ....X.o.o.O.O.O.O.O.O.O.O.o.%.o.%.o.@.Q Q Q Q ( o.o.$.! ! $.o.[ Q @.+.$.! Q /  .$.o. .Q ! ( / Q ( o.&.$.Q ! o.o.%.&.o.o.%.o.%.o.o.o.{ ~ F B * c ",
"5.F ~ } o.$.@.@.@.#.@.@.#.@.@.@.@.@.@.@.@.[ ! ] [ ] _ [ @.@.] _ [ [ / _ [ #.[ _ ] [ @.@.#.@.] ! [ [ _ [ @.@.@._ _ ] [  .@.@.@.@.#.@.@.#.@.| ~ F B * c ",
"5.F ~ { ! ) ) ) ) ) ) ) ) ) ) ) ) ) ) ) ) ` K ) ) ) K ) ) ) ) K K K K ) ) ) ) ` ) K K ) ) ) ` K ` K K ) ) ) ) K K K ` ) ) ) ) ) ) ) ) ) ) ) Q A B * c ",
"5.F Q D S S S S S S S S S S S S S S S S S S V S V S S S S S S S S S S S S S S S S S S S S S S S V S S S S S S S S S S S S S S S V S S S S S S S N * c ",
"5.G L J J H J J J J J J J J J J J J J J J J J J J J J J J J J J J J J J J J J J J J J J J J J J J J J J J J J J J J J J J J J J J J J J J J J J H = c ",
"0.' =.=.=.=.=.=.=.=.=.=.=.=.=.=.=.=.=.=.=.=.=.=.=.=.=.=.=.=.=.=.=.=.=.=.=.=.=.=.=.=.=.=.=.=.=.=.=.=.=.=.=.=.=.=.=.=.=.=.=.=.=.=.=.=.=.=.=.=.=.=.=.J 3."
};
