/* XPM */
static char *poser_d[] = {
/* columns rows colors chars-per-pixel */
"75 75 253 2",
"   c #050500",
".  c #0B0B00",
"X  c #121201",
"o  c #1B1B01",
"O  c #023502",
"+  c #033C03",
"@  c #033F08",
"#  c #232301",
"$  c #2B2B01",
"%  c #333301",
"&  c #3B3B01",
"*  c #034404",
"=  c #034B04",
"-  c #05440B",
";  c #054B0A",
":  c #045306",
">  c #035A05",
",  c #04540B",
"<  c #055B0B",
"1  c #09580A",
"2  c #095C0D",
"3  c #045612",
"4  c #045D13",
"5  c #025D18",
"6  c #026206",
"7  c #04640B",
"8  c #046B0C",
"9  c #0B680C",
"0  c #16680B",
"q  c #0A7707",
"w  c #0C7C00",
"e  c #03740C",
"r  c #047D0D",
"t  c #177B06",
"y  c #046412",
"u  c #046C13",
"i  c #076916",
"p  c #047313",
"a  c #097617",
"s  c #047B14",
"d  c #037C1A",
"f  c #137316",
"g  c #2C6F0A",
"h  c #297905",
"j  c #347906",
"k  c #377C12",
"l  c #066D2A",
"z  c #057722",
"x  c #057C23",
"c  c #03732B",
"v  c #037C2C",
"b  c #047B32",
"n  c #424202",
"m  c #4E4E02",
"M  c #535302",
"N  c #5A5A00",
"B  c #686802",
"V  c #757502",
"C  c #7C7C03",
"Z  c #70704D",
"A  c #79794D",
"S  c #0E8100",
"D  c #03820C",
"F  c #1B8201",
"G  c #1C8B01",
"H  c #16830A",
"J  c #038315",
"K  c #0F8312",
"L  c #058A14",
"P  c #038219",
"I  c #048A1A",
"U  c #06961B",
"Y  c #06931C",
"T  c #218301",
"R  c #2A8501",
"E  c #258A01",
"W  c #2A8A01",
"Q  c #27850F",
"!  c #378404",
"~  c #338B01",
"^  c #3A8D01",
"/  c #269201",
"(  c #389801",
")  c #288916",
"_  c #3B8416",
"`  c #269111",
"'  c #03AB18",
"]  c #39A301",
"[  c #058827",
"{  c #05842B",
"}  c #058C2B",
"|  c #079725",
" . c #05942C",
".. c #049B2E",
"X. c #11972B",
"o. c #048332",
"O. c #048B32",
"+. c #098C36",
"@. c #059334",
"#. c #059C35",
"$. c #06953A",
"%. c #099638",
"&. c #179638",
"*. c #379C2B",
"=. c #239D3C",
"-. c #05A43B",
";. c #0CB230",
":. c #35AB2F",
">. c #38A928",
",. c #38AA35",
"<. c #458A04",
"1. c #499401",
"2. c #449D01",
"3. c #49930D",
"4. c #569B01",
"5. c #689A04",
"6. c #729E0B",
"7. c #43A201",
"8. c #4BA401",
"9. c #56A502",
"0. c #5CAC02",
"q. c #55B102",
"w. c #67A802",
"e. c #72A302",
"r. c #70AA01",
"t. c #6AB302",
"y. c #78BB02",
"u. c #60AD1E",
"i. c #4EB231",
"p. c #57B431",
"a. c #6EBD2B",
"s. c #05C82A",
"d. c #04D82D",
"f. c #05DD31",
"g. c #28C33F",
"h. c #06E52F",
"j. c #05ED35",
"k. c #56CB38",
"l. c #76C029",
"z. c #7ADF33",
"x. c #66EB39",
"c. c #059940",
"v. c #05A746",
"b. c #0EBD43",
"n. c #3CDA44",
"m. c #4DE647",
"M. c #848403",
"N. c #8D8D02",
"B. c #909000",
"V. c #9C9C03",
"C. c #94940A",
"Z. c #909012",
"A. c #9D9D11",
"S. c #89A904",
"D. c #94A900",
"F. c #89B705",
"G. c #97B903",
"H. c #A3A304",
"J. c #A2AE04",
"K. c #ABAC04",
"L. c #ADAD0F",
"P. c #A7B602",
"I. c #B3B302",
"U. c #BABA04",
"Y. c #B7B70A",
"T. c #BFBF13",
"R. c #85C403",
"E. c #8AC203",
"W. c #96C206",
"Q. c #8CC117",
"!. c #A4CB04",
"~. c #AAC906",
"^. c #B4CB02",
"/. c #BACB02",
"(. c #A4D403",
"). c #A9D503",
"_. c #ADDA03",
"`. c #B8D705",
"'. c #BAD50A",
"]. c #A5D81D",
"[. c #B2DB1B",
"{. c #BBE204",
"}. c #83C828",
"|. c #94CF20",
" X c #9AD122",
".X c #91ED33",
"XX c #B3EF24",
"oX c #C4C404",
"OX c #C3CA01",
"+X c #CCCD03",
"@X c #C4C40D",
"#X c #C9C90D",
"$X c #C3D204",
"%X c #C7D405",
"&X c #C4DB04",
"*X c #CCDC04",
"=X c #D3D301",
"-X c #D3DE05",
";X c #DBDB04",
":X c #D8D809",
">X c #C3C312",
",X c #CCCC13",
"<X c #D4D413",
"1X c #DADA11",
"2X c #C3E504",
"3X c #CBE404",
"4X c #CAE406",
"5X c #CCE904",
"6X c #D3E204",
"7X c #DBE404",
"8X c #D5EC04",
"9X c #DBED04",
"0X c #DAE90B",
"qX c #DCF004",
"wX c #C4E618",
"eX c #D6EC12",
"rX c #CCF51C",
"tX c #DDF713",
"yX c #E3E305",
"uX c #E4EB05",
"iX c #EBEB02",
"pX c #E5E80A",
"aX c #E5F205",
"sX c #ECF405",
"dX c #EEF805",
"fX c #E3F20D",
"gX c #E9F009",
"hX c #EBF70C",
"jX c #F5F504",
"kX c #F8F705",
"lX c #F4FA05",
"zX c #FFFF05",
"xX c #F3F50B",
"cX c #F4FB0A",
"vX c #FCFC0B",
"bX c #E5E512",
"nX c #EEEE12",
"mX c #FFFF11",
"MX c #F1F11A",
"NX c #FFFF18",
"BX c #C5C522",
"VX c #FFFF24",
"CX c #FEFE2D",
"ZX c #FFFF33",
"AX c #BBBB4F",
"SX c #B6B677",
"DX c #C0C051",
"FX c #E1E14C",
"GX c #EFEF4D",
"HX c #F0F04D",
"JX c #EBEB5E",
"KX c #F2F261",
"LX c #D4D48E",
/* pixels */
"LXGXGXGXGXGXGXHXGXGXHXHXGXGXGXGXGXGXGXHXGXGXHXHXGXGXGXGXGXGXGXHXGXGXHXHXGXGXGXGXGXGXGXHXGXGXHXHXGXGXGXGXGXGXGXHXGXGXHXHXGXGXGXGXGXGXGXHXGXGXGXGXHXFXSX",
"DX;XkXzXzXzXkXzXzXzXkXzXzXzXzXkXzXzXkXzXzXzXkXzXzXzXzXkXzXzXkXzXzXzXkXzXzXzXzXkXzXzXkXzXzXzXkXzXzXzXzXkXzXzXkXzXzXzXkXzXzXzXzXkXzXzXkXzXzXzXzXzXjXV.A ",
"AXI.iXzXzXzXzXzXzXzXzXzXzXzXzXzXzXzXzXzXzXzXzXzXzXzXzXzXzXzXzXzXzXzXzXzXzXzXzXzXzXzXzXzXzXzXzXzXzXzXzXzXzXzXzXzXzXzXzXzXzXzXzXzXzXzXzXzXzXzXzXkXU.N Z ",
"AXI.=XjXNXNXNXNXmXNXNXNXNXNXNXmXNXNXNXNXmXNXNXNXNXNXNXmXNXNXNXNXmXNXNXNXNXNXNXmXNXNXNXNXmXNXNXNXNXNXNXmXNXNXNXNXmXNXNXNXNXNXNXmXNXNXNXNXmXNXmX+XB.N Z ",
"AXI.=XsXNXCXZXZXZXZXZXZXCXZXZXZXZXZXZXZXZXZXZXZXCXZXZXZXZXCXZXZXZXZXZXZXCXZXZXZXZXZXZXZXZXZXZXZXCXZXZXZXZXCXZXZXZXZXZXZXCXZXZXZXZXZXZXZXCXCXbXI.B.N Z ",
"AXI.=XjXvXNXZXZXZXZXZXZXZXZXZXZXZXZXZXZXZXZXZXZXZXZXZXZXZXZXZXZXZXZXZXZXZXZXZXZXZXZXZXZXZXZXZXZXZXZXZXZXZXZXZXZXZXZXZXZXZXZXZXZXZXZXZXZXZXMX=XI.B.N Z ",
"AXI.=XiXkXzXmXVXVXVXVXVXVXVXVXVXVXVXVXVXVXVXVXVXVXVXVXVXVXVXVXVXVXVXVXVXVXVXVXVXVXVXVXVXVXVXVXVXVXVXVXVXVXVXVXVXVXVXVXVXVXVXVXVXVXVXVXVXMXiX+XI.B.N Z ",
"AXY.=XiXkXzXzXvXmXmXmXmXmXmXmXmXmXmXmXmXmXmXmXNXmXmXmXmXNXmXmXmXmXmXmXmXmXmXmXmXmXmXmXmXmXmXmXNXmXmXmXmXNXmXmXmXmXmXmXmXmXmXmXmXmXmXvXvXjXiX=XI.B.N Z ",
"AXI.=XiXzXzXzXzXzXzXzXzXzXvXzXzXzXzXzXzXzXzXvXzXzXvXzXzXzXzXzXzXzXzXzXzXzXvXzXzXvXzXzXzXzXzXzXzXzXzXzXzXvXzXzXzXzXzXzXzXzXvXzXzXzXzXzXzXjXiX=XI.B.N Z ",
"AXI.;XjXkXzXzXzXzXzXzXzXzXzXzXzXzXzXzXzXzXzXzXzXzXzXzXzXzXzXzXzXzXzXzXzXzXzXzXzXzXzXzXzXzXzXzXzXzXzXzXzXzXzXzXzXzXzXzXzXzXzXzXzXzXzXzXzXjXiX+XI.N.N Z ",
"AXI.=XiXzXzXzXzXzXzXzXzXzXzXzXzXzXzXzXzXzXzXzXzXzXzXzXzXzXzXzXzXzXzXzXzXzXzXzXzXzXzXzXzXzXzXzXzXzXzXzXzXzXzXzXzXzXzXzXzXzXzXzXzXzXzXzXzXjXiX+XI.B.N Z ",
"AXI.;XiXkXzXzXzXzXzXzXzXzXzXzXzXzXzXzXzXzXzXzXzXzXzXzXzXzXzXzXzXzXzXzXzXzXzXzXzXzXzXzXzXzXzXzXzXzXzXvXzXvXzXzXzXzXzXzXzXzXzXzXzXzXzXzXzXjXiX=XI.B.N Z ",
"AXI.=XiXkXzXzXzXzXzXzXzXzXzXzXzXiX-X-X0X4X-X1X%X4X6X&X$X'.'.'.'.'.'.'.'.W.~.~.!.!.~.G.G.W.G.W.Q.F.G.F.S.S.S.[.kXzXzXzXzXzXzXzXzXzXzXzXzXjXiX=XI.B.N Z ",
"AXI.;XiXzXzXzXzXzXzXzXzXzXzXvX'.<.g g _ g g g t ` ) ) Q h 0 t H K t H t K K H H K f 9 0 9 0 q 9 a K a 4 1 a _ '.vXzXzXzXzXzXvXzXzXzXzXzXjXyX=XI.B.N Z ",
"AXI.=XiXkXzXzXzXzXzXzXzXzXzXpX3.< * * = ; ; = 7 p p s u < < 8 e e e r r D D r D D J 7 1 1 2 2 y J J s a ; y a ) '.zXzXzXzXzXzXzXzXzXzXzXkXiX=XI.B.N Z ",
"AXI.=XjXzXzXzXzXzXzXzXzXzXzX~.f < * = 7 y 7 y u p p p u 1 6 > > : : : > < 6 6 6 8 6 1 < y 7 ; y J J J e 4 - , 4 6.vXzXzXzXzXzXzXzXzXzXzXkXyX=XI.N.N Z ",
"AXI.=XiXkXzXzXzXzXzXzXzXzXzX[.f = * = u u u u u p u p 8 8 u 8 6 < > , > > > > < 6 7 9 : = = * 7 J J L s < * ; 3 <.gXzXzXzXzXzXzXzXzXzXzXjXiX=XI.N.N Z ",
"AXI.;XiXzXzXzXzXzXzXzXzXzXzXXX) * 1 a [ I Y U U U U U Y L L L D J s s p p p e p p s K u : * * 7 J 8 7 1 = ; - - j ;XzXzXzXzXzXzXzXzXzXzXjXiX+XI.N.N Z ",
"AXY.=XsXzXzXzXzXzXzXzXzXzXzXtX:.: 2 U s.s.d.h.j.j.j.h.h.s.' ' ' U D D e 8 6 6 6 < 7 7 2 = + ; p s 6 = ; , i 3 @ g yXzXzXzXzXzXzXzXzXzXzXjXiX+XI.N.N Z ",
"AXI.=XiXkXzXzXzXzXzXzXzXzXzXhXk.p 2 I ' ;.s.s.d.f.f.f.f.f.d.d.s.;.' U I J s p e 8 1 * + + = 9 D e < < p y 3 3 < k iXzXzXzXzXzXzXzXzXzXzXjXiX=XI.B.N Z ",
"AXI.=XjXzXzXzXzXzXzXzXzXzXzXcXk.d , s P [ I I Y | I Y s s J J J J J s s s d s s J u 4 , 2 p r D e u i 4 @ @ ; p 3.9XzXzXzXzXzXzXzXzXzXzXjXiX=XI.B.N Z ",
"AXI.=XiXkXzXzXzXzXzXzXzXzXzXvXz.} : u d d d d P P P p 2 + O + O + + + + * * * - : 1 , 2 P L e e u y 1 @ + @ ; ; k pXzXzXzXzXzXzXzXzXzXzXjXiX+XI.B.N Z ",
"AXI.=XiXzXzXzXzXzXzXzXzXzXzXzX.X#.< u d s d P P P d J d 1 @ + + + + + + + * * * * = = u L L s y 6 , * * O O - 3 g fXzXzXzXzXzXzXzXzXzXzXjXiX+XI.B.N Z ",
"AXI.;XiXkXzXzXzXzXzXzXzXzXzXzX.X;.7 8 d d d s J P P d J a 2 1 : : : : : , = : : , 1 y 9 e s u : 7 < * @ O + 3 3 k 0XzXzXvXzXzXzXzXzXzXkXkXyX=XI.B.N Z ",
"AXY.=XiXkXzXzXzXzXzXzXzXzXzXzXXX=.d s s d d s d d d d d s i 6 6 7 7 6 8 8 8 8 8 8 < 6 6 e D 7 = 9 < * * O @ 3 3 k uXzXzXzXzXzXzXzXzXzXzXjXiX=XI.B.N Z ",
"AXI.=XjXzXzXzXzXzXzXzXzXzXzXzXrXg.| J P d p p d p p u p u 6 < > > > > 6 6 6 6 8 e q e 8 J D e 2 e e ; ; + - 5 4 k uXzXzXzXzXzXzXzXzXzXzXjXiX+XI.N.N Z ",
"AXI.=XiXkXzXzXzXzXzXzXzXzXzXzXtXn. .s d u u y u u y y u > : : : > : > > 6 > 6 6 8 e D e r r e 6 s r 2 ; + - 4 5 _ 0XzXzXzXzXzXzXzXzXzXzXjXiX+XI.B.N Z ",
"AXI.;XsXzXzXzXzXzXzXzXzXzXzXzXcXm.#.d u y 4 4 7 7 y , * * * = * = = * = = = : : : > 6 s L 9 : 1 e e 7 * + ; 5 5 k jXzXzXzXzXzXzXzXzXzXzXjXiX=XI.B.N Z ",
"AXI.=XiXkXzXzXzXzXzXzXzXzXzXzXvXx.;.d y 4 4 y u p x i 5 5 4 y < < : : = * * * * * * * : s s 1 : p 9 1 ; ; i i 5 _ gXzXzXzXzXzXzXzXzXzXzXjXiX=XI.B.N Z ",
"AXI.;XiXzXzXzXzXzXzXzXzXzXzXzXzXx.b.d x y y y z O.$.$.O.+.o.o.{ o.{ { v x x x z z p u y a I s u I p : , i d { { :.eXzXzXzXzXzXzXzXzXzXzXjXyX=XI.B.N Z ",
"AXI.=XsXkXzXzXzXzXzXzXzXzXzXzXzX.Xb.[ #.} x } %.@.@.} @.O.{ o.{ b o.b o.o.o.b o.o.o.o.{ } O.{ { { a < : u d .. .>.gXzXzXzXzXzXzXzXzXzXzXkXiX=XI.B.N Z ",
"AXI.=XiXzXzXzXzXzXzXzXzXzXzXzXzXXXb.X. .%.-.-.-.-. .} } { v v v v v v v b b b b c v b c v o.{ c b o.z 3 = 7 [ #.>.fXzXzXzXzXzXzXzXzXzXzXkXyX=XI.N.N Z ",
"AXI.=XiXzXzXzXzXzXzXzXzXzXzXzXzXeXk.-. .{ o.o.{ { } .. .} { { } { [ { { { [ } { [ { { [ x O.%.%.v v b l - ; x ..>.tXzXzXzXzXzXzXzXzXzXzXjXiX=XI.N.N Z ",
"AXI.;XjXkXzXzXzXzXzXzXvXzXzXzXzXvXeXk.%.b c c b {  .@.%.%.X.+.} @.@.%.%.#.#.#.#.........} %.v.v.v.{ z b l i P  .:.fXzXzXzXzXzXzXzXzXzXzXjXiX+XI.N.N Z ",
"AXI.=XiXzXzXzXzXzXzXzXzXzXzXzXzXzXzXeXl.u.*.*.&.X.+.%.%.+.{ o.o.o.o.o.b b b o.O.+.+.%.&.-.-.v.v.v.-. .} o.x { } :.tXzXzXzXzXzXzXzXzXzXzXjXiX+XI.N.N Z ",
"AXI.;XiXkXzXzXzXzXzXzXzXzXzXzXzXzXzXzXkXsXhXeXwX]. Xl.a.i.i.=.=.&.+.&.+.+.+.+.o.b o.o.b %.X.} } +.v.v.@.x { x x i.qXzXzXzXzXzXzXzXzXzXzXjXiX=XI.B.N Z ",
"AXI.=XiXkXzXzXzXzXzXzXzXzXzXzXzXzXzXzXzXzXzXzXzXzXzXzXcXhXfXeXwX[. X}.l.p.i.,.&.&.c.&.c.$.$.+.O.x } v.v.o.d i i u.cXzXzXzXzXzXzXzXzXzXzXjXiX=XI.B.N Z ",
"AXI.;XiXzXzXzXzXzXzXzXzXzXzXzXzXzXzXzXzXzXzXzXzXzXzXzXzXzXzXzXzXzXzXvXvXxXfXbXwX[. X}.a.p.,.,.=.&.X.X.%.c.v a 6.0XzXzXzXzXzXzXzXzXzXzXzXjXiX+XI.B.N Z ",
"AXI.=XiXkXzXzXvXzXzXzXzXzXzXzXzXzXzXzXzXzXzXzXzXzXzXzXzXzXzXzXzXzXzXzXzXzXzXzXzXzXzXzXcXxXfXeXwX[.].|.a.p.i.F.pXzXzXzXzXzXzXzXzXzXzXzXzXjXiX+XI.B.N Z ",
"AXI.=XjXzXzXzXzXzXzXzXzXvXzXzXzXzXzXzXzXzXzXzXzXzXzXzXzXzXzXzXzXzXzXzXzXzXzXzXzXzXzXzXzXzXzXzXzXzXzXzXkXxXxXvXvXzXzXzXzXzXzXzXzXzXzXzXkXkXyX=XI.B.N Z ",
"AXI.=XiXkXzXzXzXzXzXzXzXzXzXzXzXzXzXzXzXzXzXzXzXzXzXzXzXzXzXzXzXzXzXzXzXzXzXzXzXzXzXzXzXzXzXzXzXzXzXzXzXzXzXzXzXzXzXzXzXzXzXzXzXzXzXzXzXjXiX=XI.N.N Z ",
"AXI.;XiXzXzXzXzXzXzXzXzXzXzXzXzXzXzXzXzXzXzXvXzXzXzXzXzXzXzXzXzXzXzXzXzXzXzXzXzXzXzXzXzXzXzXzXzXzXzXzXzXzXzXzXzXzXzXzXzXzXzXzXzXzXzXzXzXjXiX+XI.B.N Z ",
"AXY.=XsXkXzXzXzXzXzXzXzXzXzXzXzXzXzXzXzXzXzXzXzXzXzXzXzXzXzXzXzXzXzXzXzXzXzXzXzXzXzXzXzXzXzXzXzXzXzXzXzXzXzXzXzXzXzXzXzXzXzXzXzXzXzXzXzXjXiX+XI.B.N Z ",
"AXI.=XiXzXzXzXzXzXzXzXzXzXzXzXzXzXzXzXzXzXzXzXzXzXzXzXzXzXzXzXzXzXzXzXzXzXzXzXzXzXzXzXzXzXzXzXzXzXzXzXzXzXzXzXzXzXzXzXzXzXzXzXzXzXzXzXzXjXiX=XI.B.N Z ",
"AXI.;XiXkX~.S.jXzXzXzXzXzXzXzXzXzXzXzXzXzXzXzXzXzXzXzXzXzXzXzXzXzXzXzXzXzXzXzXzXzXzXzXzXzXzXzXzXzXzXzXzXzXzXzXzXzXzXzXzXzXzXzXzXzXzXzXzXjXyX=XI.B.N Z ",
"AXI.=XiXjX0.<.iXzXzXzXzXzXzXzXzXzXzXzXzXzXzXzXzXzXzXzXzXzXzXzXzXzXzXzXzXzXzXzXzXzXzXzXzXzXzXzXzXzXzXzXzXzXzXzXzXzXzXzXzXzXzXzXzXzXzXzXzXkXiX=XI.B.N Z ",
"AXI.OX/.$X9.^ iXzXzXkX-X/.6XkXzXzXzX6X7X%X7XzXzXjX*X/.%XjXzXzXlX*XaXzXaX7XvXzXkX6XpX-X$XiXyX$X7XkXzXzXzX7X/.$XjXzXzXzXuX7X;X*XkXzXzXjX*X/.+X=XI.B.N Z ",
"AXK.<.t T F 1.iXzXkXF.R ^ R ~.zXzXcX1.j T F.zXzXW.W / t S.kXzX9XR P.zXF.1.jXzXaX^ ! T w 1.^ w j -XzXzX'.~ W h 5.xXzXzXF.h W 1.gXzXiXw.R R j P.I.N.N Z ",
"DXN.S r.!./ ^ iXzX9XT w.^.( 1.jXzXlX2.F W.7XzXzX4X`.^.( ! iXzX8XG G.zXy.^ sXzXaX( R !.] w y.y.S G.zXkX9.^ ~.w.F *XzXzXF.w t.&XlXzX).t F.G.F 5.I.N.N Z ",
"AX5.w ^.jX0.~ iXzX`.w ~ 1.E 8.gXzXkX7.1.sXzXzXzX&X5.4.G R 7XzX8XG W.vXy.^ jXzXiX( w.jXy.T uX3XS G.zXuX( T 1.( E &XzXzXE.E *XzXzXzXE.w <.2.G 4.I.N.N Z ",
"AXe.w G.iX2.~ iXzX2XS e.%X&X6XkXzXlX7.4.jXzXzXxX9.^ !.2.R 7XzX9XG e.uX9.~ sXzXaX2.w.kXF.T pX4XF F.zXaX( ^ /.&X&XsXzXzXE.E -XzXzXzXE.w G./.^.U.I.N.N Z ",
"AXS.G h 1.G ~ iXzXaX8.R e.w.G.kXzXkX8.4.jXzXzXaX8.R e.W E 7XzXaX7.t <.F W iXzXsX2.r.kXE.F uX6XG G.zXzXy.F 4.e.e.uXzXzXE.W 4XzXzXzX4X/ <.e.4.D.I.B.N Z ",
"AXK.r.] 7.t.t.uXzXzX).8.( 7.W.lXzXlXy.y.xXzXzXzX(.7.8.9.0.7XzXlXE.] ] t.0.sXzXsXt.E.vX(.8.aX8X0.!.zXzX4Xq.] 2.t.aXzXzX(.0.9XzXzXzXsXR.] ( 2.D.I.B.N Z ",
"AXJ.F.).5X)._.sXzXlX_.{.uXaXaXzXzXzX_.{.lXzXzXkX{._.9X_._.sXzXlX_.{.5X_._.lXzXlX_.{.lX3X(.dXaX(.4XzXzX{._.8XuXqXcXzXzX5X(.sXzXzXzXqX).2X7X*XOXI.B.N Z ",
"AXJ.W.7XkX5X5XlXzXdX{.2X8X8XqXzXzXzX2X5XvXzXzXzXqX2X5X2X3XlXzXlX{.qXvX8X{.lXzXlX2X5XzX8X{.lXdX{.qXzXvX2X2X8X8X9XlXzXzXqX2XdXzXzXzXqX{.5X6X&X/.I.B.N Z ",
"AXK.^.uXkXaXqXlXzXlX8XqXaX8XqXvXzXzXqXqXlXzXzXzXlXlXaXqXqXlXzXvX8XsXzXaX8XzXzXzXqXqXzXaX8XlXlX8XaXzXzXqX8XuXqX8XlXzXzXaX8XdXzXzXzXaX8X9X9X&X/.I.B.N Z ",
"AXI.$XuXlXsXsXzXzXzXdXlXlXdXlXzXzXzXdXhXlXlXzXzXzXkXvXdXdXzXzXzXdXlXzXlXdXzXzXzXsXsXcXdXsXdXsXsXlXzXzXlXdXlXlXdXvXzXzXlXdXdXlXzXzXzXsXlXsX6XOXI.B.N Z ",
"AXI.=XiXlXzXzXzXzXzXzXzXzXvXzXzXzXzXzXzXzXlXiXiXiXsXvXzXzXzXzXzXzXzXzXzXvXzXzXzXzXzXvXzXzXzXzXzXzXzXzXzXzXzXvXzXzXzXzXzXzXvXzXzXzXzXzXzXjXyX=XI.B.N Z ",
"AXI.=XiXzXzXzXzXzXzXzXzXzXzXzXzXzXzXzXzXzXI.& $ $ M I.zXzXzXzXzXzXzXzXzXzXzXzXzXzXzXzXzXzXvXzXzXzXzXzXzXzXzXzXzXzXzXzXzXzXzXzXzXzXzXzXzXkXiX=XI.B.N Z ",
"AXI.;XiXkXzXzXzXzXzXzXzXzXzXzXzXzXzXzXzXzXC.  M B o # oXzXzXzXkXjXiXjXzXzXzXzXzXjXiXjXzXzXzXzXzXiXjXzXzXzXzXzXjXkXjXjXzXzXzXzXzXzXzXzXzXlXiX+XI.N.N Z ",
"AXI.:XiXkXzXzXzXzXzXzXzXzXzXzXzXzXzXzXzXzXB.. V.xXV   B.zXzXiXC.m & B =XzXzXzXU.m & V iXzXkX;XM.m M V.jXzXzXiXB N.m M.jXzXzXzXzXzXzXzXzXjXiX=XI.B.N Z ",
"AXI.=XsXzXzXzXzXzXzXzXzXzXzXzXzXzXzXzXzXzXV.  V.yXN X K.zXkXN.X n N X m yXzX=X% & M.C yXzXjXB o C m o U.zXzX;X# . $ V jXzXzXzXzXzXzXzXzXjXiX+XI.B.N Z ",
"AXI.;XiXkXzXzXzXzXzXzXzXzXzXzXzXzXzXzXzXzXH.  % n X m yXzXiX$ $ ;XxXM X U.zX=X$ % K.pXkXzX+X# & H.C   V vXzX;X# % +XjXzXzXzXzXzXzXzXzXzXjXiX=XI.B.N Z ",
"AXI.;XiXzXzXzXzXzXzXzXzXzXzXzXzXzXzXzXzXzXV.  % M N.;XzXzXyX# n xXzXV   I.zXjXH.% o M yXzXoXo o n n % V.zXzXyX$ N xXzXzXzXzXzXzXzXzXzXkXkXyX=XI.B.N Z ",
"AXI.;XiXkXzXzXzXzXzXzXzXzXzXzXzXzXzXzXzXzXH.. V.xXzXzXzXzXpX& $ :XiXm X #XzXvXiX=XB   I.zX+X# n +X;X=XxXzXzXyX$ N xXzXzXzXzXzXzXzXzXzXzXjXyX=XI.B.N Z ",
"AXI.=XjXzXzXzXzXzXzXzXzXzXzXzXzXzXzXzXzXvXH.  V.zXzXzXzXzXkXM.X n m . B iXzX=XB M.n X oXzXiXM . N V M oXzXzXyX% M jXzXzXzXzXzXzXzXzXzXzXkXiX=XI.B.N Z ",
"AXI.=XiXzXzXzXzXzXzXzXzXzXzXzXzXzXzXzXzXzXI.& K.zXzXzXzXzXzXU.m & n m H.kXzX;XB n n B :XzXxXV.m n n N =XzXzXyXN C jXzXzXzXzXzXzXzXzXzXzXkXyX+XI.N.N Z ",
"AXI.=XiXkXzXzXzXvXzXzXzXvXzXvXzXvXzXvXvXvX=XV.=XzXzXzXvXvXkXI.H.yXiXU.H.pXzXvXiXyXY.V.:XzXiXK.Y.1XpXiXxXzXzXgXH.Y.vXzXzXzXzXvXzXvXzXvXzXjXiX=XI.B.N Z ",
"AXI.;XiXzXzXzXkXmXvXvXmXvXvXmXvXvXmXvXmXvX:XI.@X:XyXxXvXvXxXY.@XxXvX<XI.yXvXxXbX@XY.@XnXzXpXY.Y.@X@X@X:XmXvXnXY.#XxXvXvXvXvXvXmXvXmXvXvXjXiX=XI.N.N Z ",
"AXI.=XiXkXxXnXnXnXnXnXnXnXnXnXMXnXnXnXnXnX1XT.>X>X>X,XbXnXnX,X#XbXnX<XT.bXnXbX,X@X1XbXnXnXbX>X#X:X<X@X1XnXnXbX#X>XbXnXnXnXnXnXnXnXnXnXnXnXpX=XI.N.N Z ",
"AXI.=XiXbX1X<X<X<X<X<X<X<X<X1X<X<X<X<X1X<X,X>X,X<X>XT.,X<X<X,XT.>X,X>X>X,X<X,X>X>X,X,X,X1X<X>X>X<X,XT.,X<X<X<X>XT.T.,X<X<X<X<X<X,X<X1X1X<X<X#XI.N.N Z ",
"AXI.=X@XL.L.L.L.L.L.L.L.L.L.L.L.L.L.L.L.L.L.L.L.L.L.L.L.L.L.L.L.L.L.L.L.L.L.L.L.L.L.L.L.L.L.L.L.L.L.L.L.L.L.L.L.L.L.L.L.L.L.L.L.L.L.L.L.L.L.L.H.N.N Z ",
"AXI.Y.A.A.A.A.A.A.A.A.A.A.A.A.A.A.A.A.A.A.A.A.A.A.A.A.A.A.A.A.A.A.A.A.A.A.A.A.A.A.A.A.A.A.A.A.A.A.A.A.A.A.A.A.A.A.A.A.A.A.A.A.A.A.A.A.A.A.A.A.A.C.N Z ",
"DX>XBXBXBX,XBXBXBXBXBXBXBXBXBXBXBXBXBXBXBXBXBXBXBXBXBXBXBXBXBXBXBXBXBXBXBXBXBXBXBXBXBXBXBXBXBXBXBXBXBXBXBXBXBXBXBXBXBXBXBXBXBXBXBXBXBXBXBXBXBXBXBXZ.A ",
"LXKXKXKXKXKXKXKXKXKXKXKXKXKXKXKXKXKXKXKXKXKXKXKXKXKXKXKXKXKXKXKXKXKXKXKXKXKXKXKXKXKXKXKXKXKXKXKXKXKXJXKXKXKXKXKXKXKXKXKXKXKXKXKXKXKXKXKXKXKXKXKXKXJXLX"
};
