/* XPM */
static char *poser_s[] = {
/* columns rows colors chars-per-pixel */
"75 75 254 2",
"   c #060600",
".  c #0C0C00",
"X  c #111100",
"o  c #1B1B01",
"O  c #390C07",
"+  c #3A140C",
"@  c #242401",
"#  c #2B2B01",
"$  c #353501",
"%  c #3C3C01",
"&  c #4D0705",
"*  c #450B06",
"=  c #4B0B06",
"-  c #420D09",
";  c #4C0E0A",
":  c #5B0707",
">  c #530A06",
",  c #5B0A06",
"<  c #550D09",
"1  c #5C0D09",
"2  c #44170E",
"3  c #4D180E",
"4  c #59130D",
"5  c #51190E",
"6  c #491C12",
"7  c #551B13",
"8  c #5C1C13",
"9  c #630A06",
"0  c #690807",
"q  c #630D0B",
"w  c #6C0C0B",
"e  c #770709",
"r  c #730C0B",
"t  c #700E0F",
"y  c #7C0A0B",
"u  c #68120D",
"i  c #780C15",
"p  c #631D13",
"a  c #661B17",
"s  c #6A1B12",
"d  c #741A14",
"f  c #7C1A13",
"g  c #7C101D",
"h  c #4B2317",
"j  c #582618",
"k  c #5D291A",
"l  c #53311E",
"z  c #632115",
"x  c #692319",
"c  c #632919",
"v  c #6A2A1B",
"b  c #78251A",
"n  c #67311D",
"m  c #73361E",
"M  c #5D3221",
"N  c #6B2F28",
"B  c #742A23",
"V  c #6A3825",
"C  c #793825",
"Z  c #743D28",
"A  c #444402",
"S  c #4B4B01",
"D  c #575702",
"F  c #636302",
"G  c #6C6C02",
"H  c #747402",
"J  c #7C7C00",
"K  c #74740D",
"L  c #6F412E",
"P  c #74422E",
"I  c #794632",
"U  c #830B0A",
"Y  c #8A090B",
"T  c #970A0B",
"R  c #87100F",
"E  c #870D15",
"W  c #970E17",
"Q  c #8D1614",
"!  c #851B17",
"~  c #84131C",
"^  c #8B101D",
"/  c #961719",
"(  c #B3140C",
")  c #A50E16",
"_  c #A3161C",
"`  c #85231C",
"'  c #912B1E",
"]  c #B52B07",
"[  c #861320",
"{  c #8D1323",
"}  c #951224",
"|  c #9C1225",
" . c #941B25",
".. c #9A1B23",
"X. c #9C152A",
"o. c #A31223",
"O. c #AA1223",
"+. c #A2152B",
"@. c #AB172A",
"#. c #A51B2C",
"$. c #B41525",
"%. c #AA1831",
"&. c #892822",
"*. c #982626",
"=. c #8A3628",
"-. c #93362B",
";. c #9D2330",
":. c #A6252B",
">. c #AE2F30",
",. c #CB0500",
"<. c #CC0B00",
"1. c #D40C00",
"2. c #C61700",
"3. c #C32601",
"4. c #D62601",
"5. c #C83C01",
"6. c #D63901",
"7. c #E43001",
"8. c #CF1A30",
"9. c #EF1B3C",
"0. c #CE2635",
"q. c #B85102",
"w. c #B46E0F",
"e. c #8A4528",
"r. c #935328",
"t. c #834534",
"y. c #884937",
"u. c #984738",
"i. c #965B36",
"p. c #A94F35",
"a. c #986623",
"s. c #9B702C",
"d. c #A76D2B",
"f. c #A67832",
"g. c #C44801",
"h. c #DB4E02",
"j. c #D65502",
"k. c #E54B01",
"l. c #E55802",
"z. c #CF6E02",
"x. c #DC7A02",
"c. c #E76802",
"v. c #E47A02",
"b. c #C6512E",
"n. c #EB403A",
"m. c #D16B30",
"M. c #DC3A4D",
"N. c #8F5249",
"B. c #B05450",
"V. c #976258",
"C. c #936959",
"Z. c #A76158",
"A. c #9D6B65",
"S. c #9B776E",
"D. c #A8706C",
"F. c #A87472",
"G. c #D35965",
"H. c #848403",
"J. c #8D8D03",
"K. c #959503",
"L. c #9E9E07",
"P. c #9D9D11",
"I. c #A7A700",
"U. c #ABAB05",
"Y. c #ADAD0F",
"T. c #B3B304",
"R. c #BBBB04",
"E. c #B7B70A",
"W. c #BEBE15",
"Q. c #B48E2B",
"!. c #BCA328",
"~. c #C98A03",
"^. c #D19607",
"/. c #E68803",
"(. c #E49803",
"). c #D6A503",
"_. c #CFB012",
"`. c #ECAE03",
"'. c #CB9527",
"]. c #E39D2C",
"[. c #CCAC27",
"{. c #E0BB21",
"}. c #C4C400",
"|. c #CBCB04",
" X c #C3C30D",
".X c #CCCC0C",
"XX c #D5D501",
"oX c #D9D906",
"OX c #C3C312",
"+X c #CCCC12",
"@X c #DAC51B",
"#X c #D4D413",
"$X c #DBDB11",
"%X c #E3C504",
"&X c #EBD805",
"*X c #F5D604",
"=X c #F1D00B",
"-X c #E2CC1E",
";X c #E9D81A",
":X c #E0E001",
">X c #ECEC02",
",X c #E8E60B",
"<X c #F4E505",
"1X c #F4EA05",
"2X c #F8EA07",
"3X c #F2F203",
"4X c #FAF405",
"5X c #FFFF05",
"6X c #F4F30C",
"7X c #F9F609",
"8X c #FCFC0B",
"9X c #E7E214",
"0X c #EEEE12",
"qX c #F8EA19",
"wX c #F7F413",
"eX c #FFFF11",
"rX c #FFFF18",
"tX c #C5C522",
"yX c #D8C425",
"uX c #E3C325",
"iX c #F0D025",
"pX c #F4EB25",
"aX c #FFFF24",
"sX c #F9F92C",
"dX c #ECE837",
"fX c #FFFF33",
"gX c #B78D5A",
"hX c #BBBB4F",
"jX c #BFBF50",
"kX c #A7827D",
"lX c #D2D24D",
"zX c #DDD65A",
"xX c #E5DE46",
"cX c #E1D954",
"vX c #E8E244",
"bX c #EFEF4D",
"nX c #EFEF53",
"mX c #DBD166",
"MX c #F2F261",
"NX c #E0E07B",
"BX c #DD7891",
"VX c #AA8A86",
"CX c #AF908F",
"ZX c #B3959A",
"AX c #B79799",
"SX c #BCA497",
"DX c #B69DA2",
"FX c #BAA4A4",
"GX c #BAA7A6",
"HX c #D98F93",
"JX c #C6B395",
"KX c #C2AAA3",
"LX c #DEDE8B",
"PX c #FABFD4",
/* pixels */
"LXvXnXbXbXbXbXbXbXbXbXbXbXbXbXbXbXbXbXbXbXbXbXbXbXbXbXbXbXbXbXbXbXbXbXbXbXbXbXbXbXbXbXbXbXbXbXbXbXbXbXbXbXbXbXbXbXbXbXbXbXbXbXbXbXbXbXbXbXbXbXbXbXbXlX",
"hXXX4X5X5X5X4X5X5X5X5X5X4X5X5X5X5X5X4X5X5X5X5X5X4X5X5X5X5X5X4X5X5X5X5X5X4X5X5X5X5X5X4X5X5X5X5X5X4X5X5X5X5X5X4X5X5X5X5X5X4X5X5X5X5X5X4X5X5X5X5X5X5XoXH ",
"hXT.:X5X5X5X5X5X5X5X5X5X5X5X5X5X5X5X5X5X5X5X5X5X5X5X5X5X5X5X5X5X5X5X5X5X5X5X5X5X5X5X5X5X5X5X5X5X5X5X5X5X5X5X5X5X5X5X5X5X5X5X5X5X5X5X5X5X5X5X5X5X>XK.S ",
"hXT.XX3XeXrXrXrXeXrXrXrXrXrXrXeXrXrXrXrXeXrXrXrXrXrXrXeXrXrXrXrXeXrXrXrXrXrXrXeXeXrXrXrXeXrXrXrXrXrXrXeXrXrXrXrXeXrXrXrXrXrXrXeXrXrXrXrXeXrXrX0XR.J S ",
"hXT.XX>XeXfXfXfXfXfXfXfXfXfXfXfXfXfXfXfXfXfXfXfXfXfXfXfXfXfXfXfXfXfXfXfXfXfXfXfXfXfXfXfXfXfXfXfXfXfXfXfXfXfXfXfXfXfXfXfXfXfXfXfXfXfXfXfXfXfXsX.XI.J S ",
"hXT.XX>X5XrXfXfXfXfXfXfXfXfXfXfXfXfXfXfXfXfXfXfXfXfXfXfXfXfXfXfXfXfXfXfXfXfXfXfXfXfXfXfXfXfXfXfXfXfXfXfXfXfXfXfXfXfXfXfXfXfXfXfXfXfXfXfXfXsX,X}.I.J S ",
"hXT.XX>X4X5XeXaXaXaXaXaXaXaXaXaXaXaXaXaXaXaXaXaXaXaXaXaXaXaXaXaXaXaXaXaXaXaXaXaXrXsXaXaXaXaXrXaXaXaXaXaXaXaXaXaXaXaXaXaXaXaXaXaXaXaXaXaXrX3X:X}.I.J S ",
"hXT.XX>X5X5X5X8XeXeXeXeXeXeX8XeXeXeXeXeXeXeXeXeX8XeXeXeXeXeXeXeXeXqXqX-X@X@X_.[.[.W.[.{.uX;XqX8XwXeX8XeXeXeXeXeXeXeXeXeXeXeX8XeXeXeXeXeX8X3X:X}.I.J S ",
"hXT.XX>X5X5X5X5X5X8X5X8X5X5X5X8X8X5X5X5X8X5X8X5X5X5X5X5X4X&X{.].m.b.r.-.e.m n n n k n C e.e.r.a.w.^.-X2X8X5X5X8X5X8X5X8X5X5X5X8X5X5X8X5X5X3X:X}.I.J S ",
"hXT.XX>X4X5X5X5X5X5X5X5X5X5X5X5X5X5X5X5X5X5X5X5X5X5X7X@Xf.a.e.u.B.B.! f d 7 3 3 6 6 6 j 8 8 4 8 v ' ' a.{.qX5X5X5X5X5X5X5X5X5X5X5X5X5X5X5X>X:X}.I.J S ",
"hXT.XX>X5X5X5X5X5X5X5X5X5X5X5X5X5X5X5X5X5X5X5X5X5X6X'.e.=.>.-.>.HXPXBX' f s 6 + + 2 2 3 8 4 8 8 z / s b >.d.-X8X5X5X5X5X5X5X5X5X5X5X5X5X4X>X:X}.I.J S ",
"hXT.XX>X5X5X5X5X5X5X5X5X5X5X5X5X5X5X5X5X5X5X5X5X8X].>.0.` b v m :.M.G.:.f s 5 2 6 3 3 3 5 8 8 8 z ` b f ` #.m.&X5X5X5X5X5X5X5X5X5X5X5X5X5X3X:X}.I.J S ",
"hXT.XX>X4X5X5X5X5X5X5X5X5X5X5X5X5X5X8X5X5X5X5X5X;Xn.( Q p p f b ' T T _ ` 8 5 3 3 3 5 7 4 d x z x ` b p z b $.'.8X5X5X5X5X5X5X5X5X5X5X5X5X>X:X}.I.J S ",
"hXT.XX>X5X5X5X5X5X5X5X5X5X5X5X5X5X5X5X5X5X5X5X5X'._ 1 u s R f R / ' / / R ! 8 7 3 3 6 7 d ! $.:.z 8 z p z z ' p.9X5X5X5X5X5X5X5X5X5X5X5X5X3X:X}.I.J S ",
"hXT.XX>X4X5X5X5X5X5X5X5X8X5X5X5X5X5X5X5X5X5X5XwXm.Q 1 U d s f Q Q _ :. ./ / ! 8 8 8 a a a ! 0.0.b 5 p 8 z p x B @X5X5X5X5X8X5X5X5X5X5X5X4X3X:X}.I.J S ",
"hXT.XX>X5X5X5X5X5X5X5X5X5X5X5X5X5X5X5X5X5X5X8X9Xb.t < 9 9 ! Q Q Q :.*. ... .{ { {  . . .;...:._ / d p z z j v V !.5X5X5X5X5X5X5X5X5X5X5X5X3X:X}.I.J S ",
"hXT.XX>X4X5X5X5X5X5X5X5X5X5X5X5X5X5X5X5X5X5X5XyX*.w > , y Q /  .[ %.%.X.X.X.} { { { { } +.@.:.*.' ..b m C V V C Q.6X5X5X5X8X5X5X5X5X5X5X5X3X:X}.I.J S ",
"hXT.XX>X5X5X5X5X5X5X5X5X5X5X8X5X5X5X5X5X5X5X5X[.! 1 < r y ! ;.;.;.%.%.+.X.} { [ [ [ { } | +.;.;.:.' v -.=.V V =.d.0X5X5X5X5X5X5X5X5X5X5X5X>X:X}.I.J S ",
"hXT.XX>X5X5X5X5X5X5X5X5X5X5X5X5X5X5X5X5X5X5X5XQ.d & = < w ~ ;.;.;.%.+.X.} { { [ g g ^ ^ | | #.:.>.&.' *.-.N V C p.pX5X5X5X5X5X5X5X5X5X5X7X3XoX}.I.J S ",
"hXT.XX>X4X5X5X5X5X8X5X5X5X5X5X5X5X5X5X5X5X5X5Xs.q - - 4 4 R / *.X.X.+.} } } { ~ g g ~ } o.+.+.>.:.:.*.*.&.C Z C i.iX5X5X5X5X5X5X5X5X5X5X5X3X:X}.I.J S ",
"hXT.XX>X5X5X5X5X5X5X5X5X5X5X5X5X5X5X5X5X5X5X8Xa.* O - < t R Q *.X.X.X.} } W ^ ^ g g ^ o.O.O.O.%.*.:.&.*.' &.>.Z p.iX5X5X5X5X5X5X5X5X5X5X5X3X:X}.I.J S ",
"hXT.XX>X5X5X5X5X5X5X5X5X5X5X5X5X5X5X5X5X5X5X8Xa.- O ; U Q U R *.;.X.X.| } } ^ ^ g g } o.O.o.O.+.>.*.` b b v C V y.uX5X5X5X5X5X5X5X5X5X5X5X>X:X}.I.J S ",
"hXT.XX>X5X5X5X5X5X5X5X5X8X5X5X5X5X5X5X5X5X5X6Xr.= + 1 T y r t [ +.X.+.| } } } ^ ^ ^ o.o.| | +. .' v c v v n j l I uX5X5X5X5X5X5X5X5X5X5X5X>X:X}.I.J S ",
"hXT.XX>X4X5X5X5X5X5X5X5X5X5X5X5X5X5X5X5X5X5X6Xa.> * 2 q t u u ~ %.@.@.o.o.o.o.o.W ^ ^ W W | | g c j j v v k k l I uX5X5X5X8X5X5X5X5X5X5X5X>X:X}.I.J S ",
"hXT.XX>X4X5X5X5X5X5X5X5X5X5X5X5X8X5X5X5X5X5X7Xa.; * + < r q u ! %.$.O.o.) $.$.$.) y t i i E [ g c j j z c k k M y.yX5X5X5X5X5X5X5X5X5X5X5X3X:X}.I.J S ",
"hXT.XX>X5X5X5X5X5X5X5X5X5X5X5X5X5X5X5X5X5X5X8Xa.; + + 1 r q w ` @.O.| ) ) ) ) ) T e : : : t g a j j j k c k V V y.@X5X5X5X5X5X5X5X5X5X5X5X>X:X}.I.J S ",
"hXT.XX>X4X5X5X5X5X5X5X5X5X5X5X5X5X5X5X5X5X5X5Xd.; O ; U w q r B :.) _ W E e e U Y e 9 : : : q 7 h j k c c n P Z i.uX5X5X5X5X5X5X5X5X5X5X4X>X:X}.I.J S ",
"hXT.XX>X5X5X5X5X5X5X5X5X5X8X5X5X5X5X5X5X5X5X5Xd.< * , 1 1 q d &.*.O.W E 0 0 e Y T T e 0 0 : : 6 6 j k k m P P V i.$X5X5X5X5X5X5X5X5X5X5X5X3X:X}.I.J S ",
"hXT.XX>X5X5X5X5X5X5X5X5X5X5X5X5X5X5X5X5X5X5X5X!.u 1 , > 1 1 a ! &.! E e e e U T ) ) T 0 0 : < 6 h j j n Z Z Z Z i.;X5X5X5X5X5X5X5X5X5X5X5X>X:X}.I.J S ",
"hXT.XX>X5X5X5X5X5X5X5X5X5X5X5X5X5X5X5X5X5X5X5X[.d , , > > < B =.C [ e 0 e e U T ( ) Y 0 , > 7 7 2 2 5 n V Z Z Z s.9X5X5X5X8X5X5X5X5X5X5X5X3X:X}.I.J S ",
"hXT.XX>X4X5X5X5X5X5X5X5X5X5X5X5X5X5X5X5X5X5X5XyXx , , , < L CXCXCXA.y 0 9 , : : : 9 : > * O j 7 4 = ; < s c V Z s.wX5X5X5X5X5X5X5X5X5X5X4X3X:X}.I.J S ",
"hXT.XX>X5X5X5X5X5X5X5X5X5X5X5X5X5X5X8X5X5X5X5X9Xe.& , x C S.GXGXKXVXa , & & : 0 > > 9 > & 4 v p 8 < = 9 ) w < v Q.8X5X5X5X5X5X5X5X5X5X5X5X3X:X}.I.J S ",
"hXT.XX>X5X5X5X5X5X5X5X5X5X5X5X5X5X5X5X5X5X5X5XwXf.8 N y.y.CXFXFXDXAXx : < 1 r 0 = = = & & x N a 7 ; 1 E 9.8.e x [.5X5X5X5X5X5X5X5X5X5X5X5X3X:X}.I.J S ",
"hXT.XX>X4X5X5X5X5X5X5X5X5X5X5X5X5X5X5X5X5X5X5X8X!.y.y.y.N.AXFXGXGXZXB : : 1 > = = * * & ; V y.B 8 q 0 E 9.8.U C @X5X5X5X5X5X5X5X5X5X5X5X5X>X:X}.I.J S ",
"hXT.XX>X5X5X5X5X5X5X5X8X5X5X5X5X5X5X5X5X5X5X5X5XuXN.I y.A.KXGXGXD.Z B 1 = * * & & = - ; 8 N A.A.N.g r Y $.y s f.0X5X5X5X5X5X5X5X5X5X5X5X7X3XoX}.I.J S ",
"hXT.XX>X5X5X5X5X5X5X5X5X5X5X5X5X5X5X5X5X5X5X5X5X8XQ.y.t.VXHXG.M./ b I M + O O = - - - j Z Z V.F.F.D.N.&.w 7 r.@X5X5X5X5X5X5X5X5X5X5X5X5X5X3X:X}.I.J S ",
"hXT.XX>X4X5X5X5X5X5X5X5X8X5X5X5X5X5X5X5X5X5X5X5X8X;XQ.N.N.>.0.8.! C t.e.>. .> * O O k Z P I y.A.F.F.D.D.N.i.[.5X5X5X5X5X5X5X5X5X5X5X5X5X5X3X:X}.I.J S ",
"hXT.XX>X5X5X5X5X5X5X5X5X5X5X5X5X5X5X5X5X5X5X5X5X5X5X9XQ.y.b / f f -.u.B.p.u.f 9 & j P I I I I V.F.D.D.D.gX-X5X5X5X5X5X5X5X5X5X5X5X5X5X5X5X>X:X}.I.J S ",
"hXT.XX>X4X5X5X5X5X5X5X5X5X5X5X5X5X5X5X5X5X5X5X5X5X5X8X8XyXS.y.=.=.y.u.u.I e.=.s a Z Z Z t.u.y.N.A.S.VXSXdX5X5X5X5X5X5X5X5X5X8X5X5X5X5X5X5X>X:X}.I.J S ",
"hXT.XX>X5X5X5X5X5X5X8X5X5X5X5X5X5X8X5X5X5X5X5X5X5X5X5X5XpXSXCXkXS.A.C.V.N.Z.Z.Z.Z.V.C.C.A.F.F.VXCXZXKXcX8X5X5X5X5X5X5X5X5X5X5X5X5X5X5X5X5X>X:X}.I.J S ",
"hXT.XX>X4X5X5X5X5X5X5X5X5X5X5X5X5X5X5X5X5X5X8X5X5X5X5X5X0XJXGXDXZXZXZXCXCXCXAXAXAXAXZXAXCXSXFXFXKXmXdX8X5X5X5X5X5X8X5X5X5X5X5X5X5X5X5X5X5X3X:X}.I.J S ",
"hXT.XX>X5X5X5X5X5X5X5X5X5X8X5X5X5X5X5X5X5X5X5X5X5X5X5X5X8XmXJXGXGXFXFXDXDXZXDXDXAXKXKXKXJXJXmXvXsX8X5X5X5X5X5X5X5X5X5X5X5X5X5X5X5X5X5X5X5X>X:X}.I.J S ",
"hXT.XX>X5X5X5X5X5X5X5X5X5X5X5X5X5X5X5X5X5X5X5X5X5X5X5X5X5XeXsXvXxXcXzXmXzXmXcXzXcXvXdXpXwXeX5X5X5X8X5X5X5X5X5X5X5X5X5X5X5X5X5X8X5X5X5X5X4X>X:X}.I.J S ",
"hXT.XX>X4X5X5X5X5X5X5X5X5X5X5X5X5X5X5X5X5X5X5X5X5X5X5X5X5X<X%X3X5X5X&X_.1X5X5X5X5X5X5X4X5X5X5X5X5X5X5X5X5X5X5X5X5X5X5X5X5X5X5X5X5X5X5X5X5X3X:X}.I.J S ",
"hXT.XX>X5X5X5X5X8X5X5X5X5X5X5X5X5X5X5X5X5X5X5X5X5X5X5X5X5Xx.] `.5X5Xx.( %X5X5X5X5X5X5X5X5X5X5X5X5X5X5X5X5X5X5X5X5X5X5X5X5X5X5X5X5X5X5X5X5X>X:X}.I.J S ",
"hXT.XX>X5X5X5X5X5X5X5X5X5X5X5X5X5X5X5X5X5X5X5X5X7X7X5X5X5X`.l.*X5X5Xv.2.%X5X5X5X5X5X5X5X5X5X5X5X5X5X5X5X5X5X5X5X5X5X5X5X5X5X5X5X5X5X5X5X5X3X:X}.I.J S ",
"hXT.XX>X5X5X5X5X5X5X5X5X5X5X8X5X5X5X5X5X5X5X1X^.z.z.&X5X5X%X~.<X5X5X/.2.~.z.~.%X5X5X4X).^.4X5X).).5X5X4X^.).~.).7X5X8X5X5X5X5X5X5X5X5X5X4X3X:X}.I.J S ",
"hXT.XX>X4X5X5X5X5X5X5X5X5X5X5X5X5X5X5X5X5X5Xx.2.j.j.`.5X5Xx.] &X5X5X/.,.2.6.2.q.<X5X4Xh.] 1X1X6.q.3X5X<X6.] 2.j.1X5X5X5X5X5X5X5X5X5X5X5X5X3X:X}.I.J S ",
"hXT.XX>X4X5X5X5X5X5X5X5X5X5X5X5X5X5X5X5X5X4Xl.<.).&X4X5X5Xx.3.%X5X5X/.1.x.*Xl.2.).5X7Xk.3.<X2X6.g.3X8X<X6.<.(.&X5X5X5X5X5X5X5X8X5X5X5X5X5X3X:X}.I.J S ",
"hXT.XX>X5X5X5X5X5X5X5X5X5X5X5X5X5X5X5X5X5X5X`.4.2.w.&X5X4X/.2.%X5X5X/.2.`.5X/.<.).5X4Xk.3.1X2X6.g.3X5X<X6.5.3X5X5X5X5X5X5X5X5X5X5X5X5X5X5X>X:X}.I.J S ",
"hXT.XX>X4X5X5X5X5X5X5X5X5X5X5X5X5X5X5X5X5X8X7X*Xc.<.z.3X5X/.] %X5X5X/.<.).3Xc.,.`.5X4Xk.] &X*X4.g.3X5X<X6.5.4X5X5X5X5X5X5X5X5X5X5X5X5X5X7X3XoX}.I.J S ",
"hXT.XX>X5X5X5X5X5X5X5X5X5X5X5X5X5X5X5X5X5X4X).).~.1.z.5X5X/.<.`.5X5X(.<.] w.2.4.&X5X5Xc.<.q.g.1.5.3X5X1Xh.5.4X5X5X5X5X5X5X5X5X5X5X5X5X5X5X3X:X}.I.J S ",
"hXT.XX>X5X5X5X5X5X5X5X5X5X5X5X5X5X5X5X5X5X4X/.4.4.k.=X5X4X`.k.=X5X5X`.h.l.4.7.`.5X5X5X`.k.4.l.c.c.3X5X1Xc.c.7X5X5X5X5X5X5X5X5X5X5X5X5X5X5X3X:X}.I.J S ",
"hXT.XX>X5X5X5X5X5X5X5X8X5X5X5X5X5X5X8X5X5X5X4X*X*X2X5X5X5X2X<X5X5X5X2X2X4X*X2X5X5X5X5X5X2X*X2X2X2X8X5X5X2X1X5X5X5X5X5X5X5X5X5X5X5X5X5X5X5X>X:X}.I.J S ",
"hXT.XX>X4X5X5X5X5X5X5X5X5X5X5X5X5X5X5X5X5X5X5X5X5X5X5X5X5X5X5X5X5X5X5X5X5X5X5X5X5X5X5X5X5X5X5X5X5X5X5X5X5X5X5X5X5X5X5X5X5X8X5X5X5X5X5X5X5X>X:X}.I.J S ",
"hXT.XX>X5X5X5X5X5X5X5X5X5X5X5X5X5X5X5X5X5X5X5X8X5X5X5X5X5X5X5X5X5X5X5X5X5X5X5X5X5X5X5X5X5X5X5X5X5X5X5X5X5X5X5X5X5X5X5X5X5X5X5X5X5X5X5X5X5X>X:X}.I.J S ",
"hXT.XX>X5X5X5X5X5X5X5X5X5X5X5X5X5X5X5X8X5X5X5X5X5X5X5X5X5X5X5X5X5X5X5X5X5X5X5X5X5X5X5X5X5X5X5X5X5X5X5X5X5X5X5X5X5X5X5X5X8X5X5X5X5X5X5X5X5X>X:X}.I.J S ",
"hXT.XX>X4X5X5X5X5X5X5X8X5X5X5X5X5X5X5X5X5X5X7X>X>X>X7X5X5X5X5X5X5X5X5X5X5X5X5X8X5X5X5X5X5X5X5X5X5X5X5X5X5X5X5X5X5X5X5X5X5X5X5X5X5X5X5X5X5X3X:X}.I.J S ",
"hXT.XX>X5X5X5X5X5X5X5X5X5X5X5X5X5X5X5X5X5X>XF # # $ H ,X5X5X5X5X5X8X5X5X5X5X5X5X5X5X5X5X5X5X5X5X5X5X5X5X5X8X5X5X5X5X5X5X5X5X5X5X5X5X5X5X4X3X:X}.I.J S ",
"hXT.XX>X5X5X5X5X5X5X5X5X5X5X5X5X5X5X5X5X5X:X# o H $   H 3X5X5X8X3X>X3X5X5X5X5X5X7X,X3X5X5X5X5X5X>X>X7X5X5X5X5X3X3X7X3X5X5X5X5X5X5X5X5X5X5X>X:X}.I.J S ",
"hXT.XX>X4X5X5X5X5X5X5X5X5X5X8X5X5X5X5X5X5X:X$ $ >X Xo A >X5X5XT.D % D I.7X5X5X|.F % D XX5X5X>XH.S A J ,X5X5X3XH.J F H >X5X5X5X5X5X5X5X5X5X3X:X}.I.J S ",
"hXT.XX>X5X5X5X5X5X5X5X5X5X5X5X5X5X5X5X5X5X,X$ $ :XU.X D 3X8X}.@ @ F # @ R.5X4XF o J J .X5X5XK.X F G . K.5X5X>X% . # F ,X5X5X5X5X5X5X5X5X5X3X:X}.I.J S ",
"hXT.XX>X4X5X5X5X5X8X5X5X5X5X5X5X5X5X5X5X5X,X% X S # o I.5X5XK.. K.7XI.  H 5X4XD X J.XX7X5X7XS @ K.K.X S 4X5X>XA o R.3X5X5X5X8X5X5X5X5X5X3X3X:X}.I.J S ",
"hXT.XX>X5X5X5X5X5X5X5X5X5X5X5X5X5X5X5X5X5X:X% . D G T.3X5X5XH X T.5X}.X G 5X5XR.A o $ }.5X3X% X % A $ H 7X8X3XS % >X5X5X5X5X5X5X5X5X5X5X5X3X:X}.I.J S ",
"hXT.XX>X4X5X5X5X5X5X5X5X5X5X5X5X5X5X5X5X5X>X% $ &X7X5X5X5X5XJ.  K.3XK.  H.5X5X3X:XH.  G 3X3XA @ T.oXXX>X5X5X>XS % >X8X5X5X5X5X5X5X5X5X5X5X3X:X}.I.J S ",
"hXT.XX>X5X5X5X5X5X5X5X5X5X5X5X5X5X5X5X5X5X>XA $ >X5X5X5X5X5X|.@ @ D @ # }.5X3XJ G F . H.5X5XJ.. S H D T.5X5X>XS $ >X5X5X5X8X5X5X5X5X5X5X7X3X:X}.I.J S ",
"hXT.XX>X5X5X5X5X5X5X5X5X8X5X5X5X5X5X5X5X5X,XD F ,X5X5X5X5X5X:XG % S S H ,X5X3XH.A % S R.5X5XE.D A A D T.5X5X6XG F >X5X5X5X5X5X5X5X5X5X5X5X3X:X}.I.J S ",
"hXT.XX>X4X5X5X5X5X8X5X8X5X8X5X8X5X8X5X8X8X3XU.U.3X5X8X5X5X8XoXL..X>XXXL.XX8X8X6X,X|.L.|.5X5XE.I.oX,X,X3X8X5X8XU.U.3X8X8X5X8X5X8X8X5X8X5X5X3XoX}.I.J S ",
"hXT.XX>X5X5X8X7XeX8X8XeX8X8XeXeX8X8X8XeX8X0X XE..X$X,X6X8X8X$XT.,X8X,XE..X7X8X6X.XE.E.,X8X6X XT. X|. XoX8X8X6X XR.6XeX6X8X8X8X8XwX8X8XeX7X>X:X}.I.J S ",
"hXT.XX>X5X3X0X0X0X0X0X0X0X0X0X0X0X0X0XwX0X,X XOX.X X X9X0X0X$XW.$X0X$X X#X0X0X#X X#X9X0X0X0X+X X#X#X X+X0X0X0X X X9X0X0X0X0X0X0X0X0X0X0X0X0X:X}.I.J S ",
"hXT.XX>X,X$X#X#X#X#X#X#X#X#X#X#X#X#X#X#X#X#XOXW.#X+XW.OX#X#X+XOXW.+XOXOX+X#X#XOXOX+X+X+X#X#X+XW.+X+XW.+X#X#X#XOXW.W.+X#X#X#X#X#X#X#X$X#X#X#X#X}.U.J S ",
"hXT.XX XY.Y.Y.Y.Y.Y.Y.Y.Y.Y.Y.Y.Y.Y.Y.Y.Y.Y.Y.Y.Y.Y.Y.Y.Y.Y.Y.Y.Y.Y.Y.Y.Y.Y.Y.Y.Y.Y.Y.Y.Y.Y.Y.Y.Y.Y.Y.Y.Y.Y.Y.Y.Y.Y.Y.Y.Y.Y.Y.Y.Y.Y.Y.Y.Y.Y.Y.Y.L.J S ",
"hXT.E.P.P.P.P.P.P.P.P.P.P.P.P.P.P.P.P.P.P.P.P.P.P.P.P.P.P.P.P.P.P.P.P.P.P.P.P.P.P.P.P.P.P.P.P.P.P.P.P.P.P.P.P.P.P.P.P.P.P.P.P.P.P.P.P.P.P.P.P.P.P.H.S ",
"jXW.tXtXtXOXtXtXtXtXtXtXtXtXtXtXtXtXtXtXtXtXtXtXtXtXtXtXtXtXtXtXtXtXtXtXtXtXtXtXtXtXtXtXtXtXtXtXtXtXtXtXtXtXtXtXtXtXtXtXtXtXtXtXtXtXtXtXtXtXtXtXtXW.K ",
"NXMXMXMXMXMXMXMXMXMXMXMXMXMXMXMXMXMXMXMXMXMXMXMXMXMXMXMXMXMXMXMXMXMXMXMXMXMXMXMXMXMXMXMXMXMXMXMXMXMXMXMXMXMXMXMXMXMXMXMXMXMXMXMXMXMXMXMXMXMXMXMXMXMXzX"
};
