/* XPM */
static char *poser_l[] = {
/* columns rows colors chars-per-pixel */
"75 75 252 2",
"   c #040300",
".  c #0A0201",
"X  c #0C0C01",
"o  c #1A0A02",
"O  c #111100",
"+  c #1B1B01",
"@  c #2A0502",
"#  c #2A1B00",
"$  c #341803",
"%  c #242401",
"&  c #2B2B01",
"*  c #2D250D",
"=  c #30240F",
"-  c #353501",
";  c #3C3C01",
":  c #3B3122",
">  c #4E0D03",
",  c #6F1204",
"<  c #472603",
"1  c #542902",
"2  c #4E3508",
"3  c #72330C",
"4  c #444402",
"5  c #4B4B01",
"6  c #5D4307",
"7  c #545402",
"8  c #5C5C02",
"9  c #664203",
"0  c #774D02",
"q  c #745502",
"w  c #6E5214",
"e  c #636302",
"r  c #6C6C02",
"t  c #7C6B09",
"y  c #747402",
"u  c #7C7C00",
"i  c #74740D",
"p  c #7B6216",
"a  c #6E4F24",
"s  c #655043",
"d  c #892E01",
"f  c #8E2C22",
"g  c #8C4A09",
"h  c #885902",
"j  c #965902",
"k  c #AC5B0B",
"l  c #846A04",
"z  c #996803",
"x  c #887308",
"c  c #997703",
"v  c #927519",
"b  c #A96902",
"n  c #B66803",
"m  c #A87804",
"M  c #B37303",
"N  c #B97702",
"B  c #A96118",
"V  c #AA7B16",
"C  c #9F662F",
"Z  c #B77A2C",
"A  c #C05000",
"S  c #C47502",
"D  c #C27C02",
"F  c #C97C02",
"G  c #D07C02",
"H  c #C57728",
"J  c #9C6E52",
"K  c #848403",
"L  c #8D8B04",
"P  c #9E8707",
"I  c #959503",
"U  c #9E9E07",
"Y  c #9D9D11",
"T  c #A88607",
"R  c #B78907",
"E  c #BC8B03",
"W  c #B99706",
"Q  c #AD8616",
"!  c #B99916",
"~  c #A7A700",
"^  c #ABAB05",
"/  c #A9A00F",
"(  c #ADAD0F",
")  c #B3B304",
"_  c #BCBC02",
"`  c #B4B40A",
"'  c #BCBC0A",
"]  c #BEBE15",
"[  c #9F863B",
"{  c #B69425",
"}  c #AD8C33",
"|  c #B39634",
" . c #BDA42B",
".. c #C38502",
"X. c #CB8402",
"o. c #C58906",
"O. c #CC8B02",
"+. c #D58A03",
"@. c #C8960B",
"#. c #D79703",
"$. c #D28C19",
"%. c #CA9917",
"&. c #E08F00",
"*. c #E69803",
"=. c #CBA30C",
"-. c #D7A705",
";. c #DDA502",
":. c #D1B20D",
">. c #D6B808",
",. c #CAA419",
"<. c #D9A919",
"1. c #E5AA05",
"2. c #F5A801",
"3. c #E5B203",
"4. c #EDBB03",
"5. c #EBB708",
"6. c #F2BA03",
"7. c #E7AB15",
"8. c #E8B516",
"9. c #F5BD19",
"0. c #D69D2B",
"q. c #C99735",
"w. c #D6A725",
"e. c #CCAC33",
"r. c #D5A73A",
"t. c #DAB836",
"y. c #E0AD28",
"u. c #E8BA25",
"i. c #F3BC2C",
"p. c #E8B837",
"a. c #C4C401",
"s. c #CBCB02",
"d. c #C3C30D",
"f. c #CCCC0C",
"g. c #D5D501",
"h. c #DBDB03",
"j. c #D7D70B",
"k. c #C3C312",
"l. c #CCCC12",
"z. c #D4D413",
"x. c #DBDB11",
"c. c #E9C301",
"v. c #F7C703",
"b. c #EED10C",
"n. c #FAD805",
"m. c #E8C518",
"M. c #F7C91D",
"N. c #F4D216",
"B. c #E2E202",
"V. c #ECEC03",
"C. c #E7E70C",
"Z. c #F3F304",
"A. c #FEFE05",
"S. c #F4F40B",
"D. c #FBF00F",
"F. c #FDFD0B",
"G. c #E2E211",
"H. c #EEEE12",
"J. c #F9EB15",
"K. c #F1F111",
"L. c #FFFF12",
"P. c #FFFF18",
"I. c #C5C522",
"U. c #D9C328",
"Y. c #F3CB28",
"T. c #F0D228",
"R. c #EAC839",
"E. c #F5C738",
"W. c #F4D336",
"Q. c #F5E629",
"!. c #FFFF24",
"~. c #FBF729",
"^. c #FEFD2B",
"/. c #F7EA37",
"(. c #FFFF33",
"). c #FBF73B",
"_. c #A79646",
"`. c #B29E42",
"'. c #BDAC4B",
"]. c #BBBB4F",
"[. c #B9A465",
"{. c #C88D57",
"}. c #C5A646",
"|. c #D1AB49",
" X c #CDB248",
".X c #DAB944",
"XX c #C9B759",
"oX c #D9BA5C",
"OX c #E0B942",
"+X c #E2BB58",
"@X c #C69271",
"#X c #C7BB69",
"$X c #D9BC69",
"%X c #DCC455",
"&X c #D9D251",
"*X c #E6C646",
"=X c #F0CC48",
"-X c #F8D747",
";X c #E4C655",
":X c #EBD85B",
">X c #F6DA57",
",X c #E9E44E",
"<X c #EFEF4D",
"1X c #F7E548",
"2X c #FCF642",
"3X c #FBF648",
"4X c #ECE75A",
"5X c #FAE656",
"6X c #FEF855",
"7X c #D7C96E",
"8X c #DACA77",
"9X c #E8CB69",
"0X c #F4D666",
"qX c #F7D768",
"wX c #E9C876",
"eX c #EBD377",
"rX c #F9DA78",
"tX c #FCEA68",
"yX c #F2F261",
"uX c #FDF368",
"iX c #F9E576",
"pX c #F2EC74",
"aX c #AB9A92",
"sX c #C29982",
"dX c #CFB19A",
"fX c #D6C986",
"gX c #DCD58C",
"hX c #D9CA93",
"jX c #EECC81",
"kX c #E8D789",
"lX c #F8DD88",
"zX c #E6D799",
"xX c #F2DD99",
"cX c #ECE388",
"vX c #FAE686",
"bX c #FDF788",
"nX c #F9E89B",
"mX c #FDF298",
"MX c #DBCCAF",
"NX c #E6DBAD",
"BX c #FAE8A7",
"VX c #FBF6A8",
"CX c #FAF4B5",
"ZX c #FDFCB3",
"AX c #DFCFC9",
"SX c #F6EEC4",
"DX c #FDFAC8",
"FX c #F4E8D8",
"GX c #FCFAD6",
"HX c #FCF9E6",
"JX c #FDFBF3",
"KX c #FFFFFE",
/* pixels */
"gX<X<X<X<X<X<X<X<X<X<X<X<X<X<X<X<X<X<X<X<X<X<X<X<X<X<X<X<X<X<X<X<X<X<X<X<X<X<X<X<X<X<X<X<X<X<X<X<X<X<X<X<X<X<X<X<X<X<X<X<X<X<X<X<X<X<X<X<X<X<X<X<X<X&X",
"].g.Z.A.A.A.A.A.A.A.A.A.A.A.A.Z.A.A.A.A.A.A.A.A.A.A.A.Z.A.A.A.A.A.A.A.A.A.A.A.Z.A.A.A.Z.A.A.A.A.A.Z.A.A.A.A.A.A.A.A.A.A.A.A.A.Z.A.A.A.A.A.A.A.A.A.h.y ",
"].) B.A.A.A.A.A.A.A.A.A.A.A.A.A.A.A.A.A.A.A.A.A.A.A.A.A.A.A.A.A.A.A.A.A.A.A.A.A.A.A.A.A.A.A.A.A.A.A.A.A.A.A.A.A.A.A.A.A.A.A.A.A.A.A.A.A.A.A.A.A.V.I 4 ",
"].) g.Z.L.P.P.P.L.P.L.P.P.P.L.L.P.P.P.P.L.P.L.P.P.P.L.L.P.P.P.P.L.P.L.P.P.P.L.L.P.P.P.P.L.P.P.P.P.P.L.L.P.P.P.P.L.P.L.P.P.P.L.L.P.P.P.P.L.P.L.H._ u 5 ",
"].) h.V.L.^.(.(.(.(.(.(.(.(.(.(.(.(.^.(.(.(.(.(.(.(.(.(.(.^.(.(.(.(.(.(.(.(.(.^.~.^.(.^.(.(.(.(.(.(.(.(.^.(.(.(.(.(.(.(.(.(.(.(.(.(.^.(.(.(.!.f.~ u 5 ",
"].) g.V.A.P.(.(.(.(.(.(.(.(.(.(.(.(.(.(.(.(.(.(.(.(.(.(.(.(.(.(.(.(.(.(.(.(.(.(.).).).(.(.(.(.(.(.(.(.(.(.(.(.(.(.(.(.(.(.(.(.(.(.(.(.(.(.~.C.a.~ u 5 ",
"].) g.V.A.A.L.!.!.!.!.!.!.!.!.!.!.!.!.!.^.!.!.!.!.!.!.!.^.!.!.!.!.!.!.^.).).2X2X/././.).(.(.!.!.!.!.!.!.!.!.!.!.!.!.!.!.!.!.!.!.!.!.!.!.!.S.h.a.~ u 5 ",
"].) g.V.Z.A.A.F.L.L.L.L.L.L.L.L.L.L.L.L.L.L.L.L.L.L.L.L.L.L.L.F.P.^.3X1X:X%Xt.q.| Q } | r.*X3X^.L.L.L.L.L.L.L.L.L.L.L.L.L.L.L.L.L.L.L.L.A.V.B.a.~ u 5 ",
"].) g.V.A.A.A.A.A.A.A.A.A.F.A.A.A.F.A.A.F.A.F.A.F.A.A.A.A.A.L.).1X-Xp.u.w.<.=.W E E E z 0 m u.=X).P.A.A.A.A.A.A.A.A.A.A.A.F.A.A.A.A.A.A.A.Z.B.a.~ u 5 ",
"].) g.V.A.A.A.A.A.A.A.A.A.A.A.A.A.A.A.A.A.A.A.A.A.A.A.A.A.(.yX1XN.1.@.%.<.=.=.>.T P m c m -.o.#.E.5XP.A.A.A.A.A.A.A.A.A.A.A.A.A.A.A.A.A.A.V.h.a.~ u 5 ",
"].) g.V.A.A.A.A.A.A.A.A.A.A.A.A.A.A.A.A.A.A.A.A.A.A.A.A.2X9XT.n.5.O.Z '.%.W P E T u c >.D.v.o.#.1.w.5X!.A.A.A.A.A.A.A.A.F.A.A.A.A.A.A.A.A.Z.h.a.~ u 5 ",
"].) g.V.Z.A.A.A.A.A.A.A.A.A.A.A.A.A.A.A.A.A.A.A.A.A.A.).%X! ).Q.=XkXFXFXs $ < 2 q z m @.-.N 0.W.8.1.9.>X).F.A.A.A.A.A.A.A.A.A.A.A.A.A.A.A.V.B.a.~ u 5 ",
"].) g.V.A.A.A.A.A.A.A.F.F.A.A.A.A.A.A.F.A.A.A.A.A.A.3XOXe.7XVXuXiXHXKXAX=     . < g g j b b ..<.5Xu.v.1.*X3XF.A.A.A.A.A.A.A.A.A.A.A.A.A.A.Z.B.a.~ u 5 ",
"].) g.V.A.A.A.A.A.A.A.A.A.A.A.A.A.A.A.A.A.A.A.A.A.2Xr.%.=XVXDXuXnXJXKXaX. # 1 g k S M b M +.X.N t.y.c.4.5.W.6XL.A.A.A.A.A.A.A.A.A.A.A.A.A.Z.B.a.~ u 5 ",
"].) h.V.A.A.A.A.A.A.A.A.A.A.A.A.A.A.A.A.A.A.A.A.)..XM *XbXiXDXtXVXKXHXJ 0 b b n S 4.E N b S X.O.o.3.;.;.#.#.W.3XF.A.A.F.A.A.A.A.A.A.A.A.Z.Z.h.a.~ u 5 ",
"].) g.V.A.A.A.A.A.A.A.A.A.A.A.A.A.A.A.A.A.A.A.P.>Xo.N iXwX=XvX0XGXAX{.q.0.@...#.1.6.#.+.X.F X.2.X.#.#.E >.O.3.*X).A.A.A.A.A.A.A.A.A.A.A.A.Z.B.a.~ u 5 ",
"].) g.V.A.A.A.A.A.A.A.F.A.A.A.A.A.A.A.A.A.A.F.6XY.O.u.=X%.%.r.$X@Xf k W.R./.t.} W #.1.1.O.O.4.3.F D O.o.c l 0 9 %X!.A.A.A.A.A.A.A.A.A.A.A.Z.B.a.~ u 5 ",
"].) g.V.A.A.A.A.A.A.A.A.A.A.A.A.A.A.A.A.A.A.^.6X3...R.@.#.8.v = , > q.5X1X-Xe._.[ <.4.-.#.1.;.O...E #.#.z q 5 $ a ,XF.A.A.A.A.A.A.A.A.A.A.V.h.a.~ u 5 ",
"].) g.V.A.A.A.A.A.A.A.A.A.A.A.A.F.A.A.A.A.A.2X^.4.S N M @.1.3 @ > 3 ;XrXuX>X;XXX'.Y.8.;.1.1.;.;.O.m E &.+.M h 6 8 '.~.A.A.A.A.A.A.A.A.A.A.Z.h.a.~ u 5 ",
"].) g.V.A.A.A.A.A.A.A.A.A.A.A.A.A.A.A.A.A.A.J.m.6.*.S ..E.q.n j d B qXqXiXiXpX7XoX=XY.u.=.;.n.6.o.M T b G b R W 9 a -XA.A.A.A.A.A.A.A.A.A.V.B.a.~ u 5 ",
"].) g.V.A.A.A.A.F.A.A.A.A.A.A.F.A.A.A.A.A.A.m.m 1.2.F O.$.$.w.N.S |.rXrX8X8XvXiX7X%XR.T.*XR.v.v.6.3.6.O.j M b , o < ;XF.A.A.A.A.A.A.A.A.A.Z.B.a.~ u 5 ",
"].) g.V.Z.A.A.A.A.A.A.A.A.A.A.A.A.A.A.A.A.A.U.m T ;.1.*.D t.uX<X@.;XkXcXkX8X8XeXqXoX*X-XCXxXY.Y.E.Q.n.1.h m 0 @ @ Q -X!.A.A.A.A.A.A.A.A.A.Z.B.a.~ u 5 ",
"].) g.V.A.A.A.A.A.A.A.A.A.A.A.A.A.A.A.A.A.A.>.W m.4.n.6.%.>XuX0X{ :XmXGXGXCXkXeXeX#X$X8X8XXX;X-X-XY.Q.N.T j <   o Q /.(.A.A.A.A.A.A.A.A.Z.Z.h.a.~ u 5 ",
"].) g.V.A.A.A.A.A.A.A.A.A.A.A.A.A.A.A.A.A.A.>.R N c >.>.Y.5XpX:Xw t.vXZXZXZXZXnXkXfXfX7X#X#XrX5X5X1XQ.Y.! m $   o c W.(.A.A.A.A.A.A.A.A.A.Z.B.a.~ u 5 ",
"].) g.V.A.A.A.A.A.A.A.A.A.A.A.A.F.A.A.A.A.A.u.W c.c z :.1.y.W. .X p %XcXnXVXVXxXzXhXgXgXfX8XiXiXqX>X2XQ.W Q * . > j R.).A.A.A.A.A.A.A.A.A.Z.B.a.~ u 5 ",
"].) g.V.A.A.A.A.A.A.A.A.A.A.A.A.A.A.A.A.A.A.R.! S.b.W.J.#.+.o.3 - T t.8XgXBXDXZXNXNXzXgXhXkXrXrXqX>X-XJ.W XX`.$   $ }.^.A.A.A.A.A.A.A.A.A.V.h.a.~ u 5 ",
"].) g.V.A.A.A.A.A.A.A.A.A.A.A.A.A.A.A.A.A.A.-Xq.R.1.,.,.X.F n N S v.<.oXkXGXJXZXBXBXNXxXxXnXvXrXrX>XE.m.W zXvXW $ $ %XL.A.A.A.A.A.A.A.A.A.Z.h.a.~ u 5 ",
"].) g.V.A.A.A.A.A.A.A.A.A.A.A.A.A.A.A.A.A.A.).`...+...m #.#.X.+.d F #.t.CXKXGXmXBXBXBXBXBXBXnXrXrXtX-X:.{ CXCXu...! ,XA.A.A.A.A.A.A.A.A.A.V.B.a.~ u 5 ",
"].) g.V.A.A.A.A.A.A.A.A.A.A.A.A.A.A.A.A.A.A.P.XXz N X.O.O.%.R.q., d Z $.iXCXmXlXzXxXBXBXCXVXBXlXrXqXW.M.*XDXZXp.v.~.).A.A.A.A.A.A.A.A.A.A.Z.B.a.~ u 5 ",
"].) h.V.A.A.A.A.A.A.A.A.A.A.A.A.A.A.A.A.A.A.A.3X0.&.p.Q q v XXxXsXC Z g E.0XwXjXjXxXxXBXBXmXnXlXwX9XE.9.iXMX| z R 6X!.A.A.A.A.A.A.A.A.A.A.Z.B.a.~ u 5 ",
"].) g.V.A.A.A.A.A.A.A.A.A.A.A.A.A.A.A.A.A.A.A.!.5X8.Y.@.V q [ fXHXFX@X3 $.E.$XwXjXvXmXnXBXxXlX9X+Xp.w.7.}.: # z a ,XF.A.A.A.A.A.A.A.A.A.Z.Z.h.a.~ u 5 ",
"].) g.V.Z.A.A.A.A.A.A.A.A.A.A.A.F.A.A.A.A.A.A.A.).*Xo.O.8.w.t.eXSXKXKXMX{.0.OX9XwXrXbXmXmXnXlXqXp.7.w.7.z o < #.%X!.A.A.A.A.A.A.A.A.A.A.A.Z.B.a.~ u 5 ",
"].) g.V.A.A.A.A.A.A.A.A.A.A.A.A.A.A.F.A.A.A.A.A.A.2Xp.F *.$.t.6XNXJXKXKXFXC a _.+XrXiXiXmXbX>Xi.E.tXvXu.&.....i.2XA.A.A.A.A.A.A.A.A.A.A.A.Z.B.a.~ u 5 ",
"].) g.V.A.A.A.A.A.F.A.A.A.A.A.A.A.A.A.A.A.A.A.A.A.L.6X|.X.N r.qXlXGXKXKXKXdX> > 3 H =XqXlXlXrXrXVXCXtX@.N 2.9.5XL.A.A.A.A.A.A.A.A.A.A.A.A.V.h.a.~ u 5 ",
"].) g.V.A.A.A.A.A.A.A.A.A.A.A.F.A.A.A.A.A.A.A.A.A.A.F.3Xr.n <.>X9XNXHXJXKXJXJ d F A &.$.r.9XnXZXCXmXY.N 1 8.5X!.A.A.A.A.A.A.A.A.A.A.A.A.A.Z.h.a.~ u 5 ",
"].) g.V.Z.A.A.A.A.A.A.A.A.A.A.A.A.A.A.A.A.A.F.A.A.A.A.F.2X}.D >...V J [.dXMXdXB T.%.z l l ! U.R. .q.6.-.V -X(.A.A.A.A.A.A.A.A.A.A.A.A.A.A.V.B.a.~ u 5 ",
"].) g.V.A.A.A.A.A.A.A.A.A.A.A.A.A.A.A.A.A.A.A.A.A.A.A.A.A.).%X{ b N m h b V |.|  .P x t t t L / W z c.m.>X^.A.A.A.A.F.A.A.A.A.A.A.A.A.A.A.Z.B.a.~ u 5 ",
"].) g.V.A.A.A.A.A.A.A.A.A.A.A.A.A.A.A.A.A.A.A.A.A.A.A.A.A.A.~.4XoXw.@.b m $XrX'.`.L t l x q x h 9 v 1X3XP.A.A.A.A.A.A.A.A.F.A.A.A.A.A.A.A.Z.B.a.~ u 5 ",
"].) h.V.A.A.A.A.A.F.A.A.A.A.A.A.A.A.A.A.A.A.A.A.A.A.A.A.A.A.A.P.2XtXeX|.%XDXtX X_.[ v c c l =.! [ 4X2XF.A.A.A.A.A.A.A.A.A.A.A.A.A.A.A.A.Z.Z.h.a.~ u 5 ",
"].) g.V.A.A.A.A.A.A.A.A.A.A.A.A.A.A.F.A.A.A.A.A.A.A.A.A.A.A.A.A.A.F.^.2X6XuXuX:X7XXX#X%XU. X&X/.^.F.A.A.A.A.A.A.A.A.A.A.A.A.A.A.A.A.A.A.A.Z.B.a.~ u 5 ",
"].) g.V.A.A.A.A.A.A.A.A.A.A.F.A.A.A.A.A.F.A.A.A.A.A.A.A.A.A.A.A.A.A.A.A.A.A.L.L.!.P.~.P.P.L.L.A.A.A.A.A.A.A.A.A.A.A.A.A.A.A.A.A.A.A.A.A.A.Z.B.a.~ u 5 ",
"].) g.V.A.A.A.A.A.A.A.A.A.A.A.A.A.A.A.A.A.A.A.A.A.A.A.A.A.A.A.A.A.A.A.A.A.A.A.A.A.A.A.A.A.A.A.A.A.F.A.A.A.A.A.A.A.A.A.A.A.A.A.A.A.A.A.A.A.V.h.a.~ u 5 ",
"].) g.V.A.A.A.A.A.A.A.A.A.A.A.A.A.A.A.A.A.A.A.A.A.A.A.A.A.A.F.A.A.A.A.A.A.A.A.A.A.A.A.A.A.A.A.A.A.A.A.A.A.A.A.A.A.A.A.F.A.A.A.A.A.A.A.A.A.Z.h.a.~ u 5 ",
"].) g.V.A.A.A.A.A.A.A.A.A.A.A.A.A.A.A.A.A.A.A.A.A.A.A.A.A.A.A.A.A.A.A.A.A.A.A.A.A.A.A.A.A.A.A.A.A.A.A.A.A.A.A.A.A.A.A.A.A.A.A.A.A.A.A.A.A.V.B.a.~ u 5 ",
"].) g.V.A.A.A.A.g.s.A.A.A.B.g.A.A.A.A.A.A.A.A.F.A.A.A.A.A.A.A.A.A.A.A.A.A.A.A.A.A.A.A.A.A.A.A.A.A.A.A.A.A.A.A.A.A.A.A.A.F.A.A.A.A.A.A.A.A.Z.B.a.~ u 5 ",
"].) g.V.Z.A.A.Z.g._ Z.A.F.B.s.Z.A.A.A.A.A.A.A.A.A.A.A.A.A.A.A.A.A.A.A.A.A.A.A.A.A.A.A.A.A.A.A.A.A.A.A.A.A.Z.s.B.A.A.A.A.A.A.A.A.A.A.A.A.A.Z.B.a.~ u 5 ",
"].) g.V.A.A.A.A.h.a.Z.A.A.B.h.A.A.A.V.V.V.h.C.A.A.A.A.S.B.B.S.A.A.A.F.C.V.h.h.Z.B.j.Z.A.A.A.Z.h.h.C.F.A.A.B.a._ C.A.A.A.A.C.h.C.A.A.A.A.Z.Z.h.a.~ u 5 ",
"].) g.V.A.A.A.Z.g.a.F.A.A.s.a.S.A.A.s.) a.a.) V.A.A.V.s.s.a.a.V.A.A.V._ a.s.) _ s._ _ Z.A.A.g.s.s.a.h.A.A.g.s._ a.A.A.A.g.a.s._ g.A.A.A.A.Z.B.a.~ u 5 ",
"].) g.V.A.A.A.Z.g.s.A.A.A.B.a.Z.A.A.g.s.h.V.s.g.A.A.h.a.g.h.a.h.A.A.Z.s.s.V.B.s.B.V._ C.A.A.V.V.h.g.s.A.A.V.g.s.Z.A.A.Z.s.s.h.g.a.Z.A.A.A.Z.B.a.~ u 5 ",
"].) g.V.A.A.A.Z.g.a.Z.A.Z.B.a.Z.A.A.g.a.Z.Z.s.g.A.F.h.a.a.s.h.B.A.A.Z.s.h.Z.h.s.Z.V.s.C.A.A.h.a.s.g.s.Z.A.Z.g.s.A.A.A.Z.g.a.a.g.g.V.A.A.A.V.h.a.~ u 5 ",
"].) g.V.A.A.A.Z.g.s.Z.A.A.B.s.S.A.A.g.a.S.V.g.g.A.A.V._ h.V.V.Z.A.A.Z.g.g.Z.h.s.Z.B.a.V.A.V.s.g.B.g.a.Z.A.Z.g.s.Z.A.A.Z.g.a.C.V.V.A.A.A.A.Z.h.a.~ u 5 ",
"].) g.V.A.A.A.Z.h.s.Z.A.Z.h.s.V.A.A.h.a.Z.V.g.g.A.A.Z.s._ s._ V.A.A.V.g.h.Z.h.g.Z.B.s.V.A.V.h._ s.g.s.A.A.A.h.) a.A.A.Z.B.) a.a.g.A.A.A.A.V.B.a.~ u 5 ",
"].) h.V.A.A.A.A.V.C.A.A.A.V.B.Z.A.A.B.V.Z.Z.B.V.A.A.Z.Z.h.h.B.Z.A.A.Z.V.V.Z.V.B.A.V.V.V.A.Z.Z.h.B.V.B.Z.A.A.Z.V.h.Z.A.A.Z.V.h.B.V.A.A.A.A.Z.B.a.~ u 5 ",
"].) g.V.A.A.A.A.Z.Z.A.A.A.A.Z.A.A.A.Z.A.A.A.Z.Z.A.A.A.Z.A.Z.Z.A.A.A.A.A.A.Z.Z.A.A.Z.Z.A.A.A.A.Z.Z.Z.A.Z.A.A.Z.Z.A.A.A.A.A.Z.Z.Z.Z.A.A.A.A.Z.B.a.~ u 5 ",
"].) g.V.A.A.A.A.A.A.A.A.A.A.A.A.A.A.A.A.A.A.A.A.A.A.A.A.A.A.A.A.A.A.A.A.A.A.A.A.A.A.A.A.A.A.A.A.A.A.A.A.A.A.A.A.A.A.A.A.A.A.A.A.A.A.A.A.Z.Z.h.a.~ u 5 ",
"].) g.V.Z.A.A.A.A.A.A.A.A.A.A.A.A.A.A.A.A.A.A.A.A.A.A.A.A.A.A.Z.A.A.A.A.A.Z.A.A.A.A.A.A.A.A.F.A.A.A.A.A.A.A.A.A.A.A.A.A.A.A.A.A.A.A.A.A.A.Z.B.a.~ u 5 ",
"].) g.V.A.A.A.A.A.A.A.A.A.A.A.A.A.A.A.A.A.A.A.A.A.A.A.A.A.A.A.A.A.A.A.A.A.A.A.A.A.A.A.A.A.A.A.A.A.A.A.A.A.A.A.A.A.A.A.A.A.A.A.A.A.A.A.A.A.Z.B.a.~ u 5 ",
"].) g.V.A.A.A.A.A.A.A.A.A.A.A.A.A.A.A.A.A.A.Z.V.V.V.A.A.A.A.A.A.A.A.A.A.A.A.A.A.A.A.A.A.A.A.A.A.A.A.A.A.A.A.A.A.A.A.A.A.A.A.A.A.A.A.A.A.A.V.h.a.~ u 5 ",
"].) g.V.Z.A.A.A.A.A.A.A.A.A.A.A.A.A.A.A.A.V.e & % - y C.A.A.A.A.A.A.A.A.A.A.A.A.A.A.A.A.A.A.A.A.A.A.A.A.A.A.A.A.A.A.A.A.A.A.A.A.A.A.A.A.A.Z.h.a.~ u 5 ",
"].) g.V.A.A.A.A.A.A.A.A.A.A.A.A.A.A.A.A.A.G.& + y ;   y S.A.A.A.V.V.S.A.A.A.A.A.S.V.Z.A.A.A.A.A.V.V.F.A.A.A.A.S.Z.Z.Z.A.A.A.A.A.A.A.A.A.A.V.B.a.~ u 5 ",
"].) g.V.A.A.A.A.A.A.A.A.A.A.A.A.A.A.A.A.A.B.- - V._ + 5 C.A.A._ 7 ; 7 ^ F.A.A.s.r ; 7 g.A.A.V.K 5 4 u C.A.A.Z.u u e y V.A.A.A.A.A.A.A.A.A.Z.B.a.~ u 5 ",
"].) g.V.A.A.A.A.A.A.A.A.A.A.A.A.A.A.A.A.A.C.; - B.^ O 7 V.A.s.% % e & + _ A.A.e + u u f.A.A.I O e r X I A.A.V.4 X & e C.A.A.A.A.A.A.A.A.A.V.B.a.~ u 5 ",
"].) g.V.A.A.A.A.A.A.A.A.A.A.A.A.A.A.A.A.A.V.; O 5 & + ^ A.A.I X I F.~ X y A.Z.7 X L g.F.A.F.5 % I I O 5 Z.A.V.4 + _ S.A.A.F.A.A.A.A.A.A.A.V.B.a.~ u 5 ",
"].) h.V.A.A.A.A.A.A.A.A.A.A.A.A.A.A.A.A.A.B.; X 7 e ) S.A.A.y X _ A.a.O r F.A._ 4 + - a.A.V.; O ; 4 - y F.A.V.5 ; V.A.A.A.A.A.A.A.A.A.A.A.V.B.a.~ u 5 ",
"].) g.V.A.A.A.A.A.A.A.A.A.A.A.A.A.A.A.A.A.C.4 - B.A.A.A.A.A.L X I S.L   L A.A.Z.B.K   r Z.Z.4 % ) h.g.B.A.A.S.4 - Z.A.A.A.A.A.A.A.A.A.A.A.V.B.a.~ u 5 ",
"].) g.V.A.A.A.A.A.A.A.A.A.A.A.A.A.A.A.A.A.V.; - C.A.A.A.A.A.f.% % 8 & % s.A.Z.u r e X K A.A.L X 5 y 8 ) A.A.Z.5 - Z.A.A.A.A.A.A.A.A.A.A.F.Z.h.a.~ u 5 ",
"].) g.V.A.A.A.A.A.A.A.F.A.A.A.A.A.A.A.A.A.C.e e V.A.A.A.A.A.h.r ; 5 5 y B.A.S.u 5 ; 5 _ A.A._ 7 4 4 7 ) A.A.Z.r 8 V.A.F.A.A.A.A.A.A.A.A.A.Z.B.a.~ u 5 ",
"].) g.V.A.A.A.A.A.A.F.F.A.F.A.F.F.A.F.F.A.S.~ ^ V.A.A.A.A.A.j.U f.V.g.U g.A.F.S.C.s.U f.A.F.` ~ j.V.C.Z.A.A.S.^ ^ S.A.F.A.F.A.F.F.A.F.A.A.Z.B.a.~ u 5 ",
"].) g.V.A.A.A.F.P.F.F.F.F.F.F.S.F.L.F.F.L.H.d.) f.x.C.F.F.L.j.` G.F.C.) f.S.L.V.f.` ' C.F.S.d.` d.s.d.f.L.F.S.' ' S.F.F.F.F.F.F.F.S.L.F.S.V.B.a.~ u 5 ",
"].) g.V.Z.S.H.H.H.H.H.H.H.H.H.K.H.H.H.K.H.C.d.] f.d.d.G.H.H.x.] x.H.G.d.x.H.H.z.d.z.G.H.H.H.f.d.x.x.d.l.H.H.H.l.k.G.H.H.H.H.H.K.H.H.H.K.H.H.B.a.~ u 5 ",
"].) g.V.C.z.z.z.z.z.z.z.z.z.z.z.z.z.z.z.z.z.k.k.z.l.] k.z.z.l.d.k.l.k.] l.z.z.k.] l.l.l.z.z.l.] l.l.] l.z.z.z.k.] k.l.z.z.z.z.z.z.z.z.z.z.z.z.a.~ u 5 ",
"].) g.a.( ( ( ( ( ( ( ( ( ( ( ( ( ( ( ( ( ( ( ( ( ( ( ( ( ( ( ( ( ( ( ( ( ( ( ( ( ( ( ( ( ( ( ( / ( ( ( ( ( ( ( ( / ( ( ( ( ( ( ( ( ( ( ( ( ( ( U i 5 ",
"].) ` Y Y Y Y Y Y Y Y Y Y Y Y Y Y Y Y Y Y Y Y Y Y Y Y Y Y Y Y Y Y Y Y Y Y Y Y Y Y Y Y Y Y Y Y Y Y Y Y Y Y Y Y Y Y Y Y Y Y Y Y Y Y Y Y Y Y Y Y Y Y K 5 ",
"%X` I.I.I.I.I.I.I.I.I.I.I.I.I.I.I.I.I.I.I.I.I.I.I.I.I.I.I.I.I.I.I.I.I.I.I.I.I.I.I.I.I.I.I.I.I.I.I.I.I.I.I.I.I.I.I.I.I.I.I.I.I.I.I.I.I.I.I.I.I.I.I.] i ",
"eXyXyXyXyXyXyXyXyXyXyXyXyXyXyXyXyXyXyXyXyXyXyXyXyXyXyXyXyXyXyXyXyXyXyXyXyXyXyXyXyXyXyXyXyXyXyXyXyXyXyXyXyXyXyXyXyXyXyXyXyXyXyXyXyXyXyXyXyXyXyXyXyXyX:X"
};
