/* XPM */
static char *poser_t[] = {
/* columns rows colors chars-per-pixel */
"75 75 255 2",
"   c #070701",
".  c #0B0B00",
"X  c #121201",
"o  c #1B1B01",
"O  c #282801",
"+  c #333301",
"@  c #3B3B01",
"#  c #38381A",
"$  c #3B3B21",
"%  c #424202",
"&  c #4E4E02",
"*  c #535302",
"=  c #5A5A00",
"-  c #5C5C09",
";  c #575710",
":  c #686802",
">  c #787803",
",  c #494923",
"<  c #46195E",
"1  c #49265D",
"2  c #491A65",
"3  c #4B1A65",
"4  c #531F66",
"5  c #4C236A",
"6  c #52236C",
"7  c #562869",
"8  c #5A2A6D",
"9  c #5C326B",
"0  c #532571",
"q  c #552B74",
"w  c #582876",
"e  c #5C2C74",
"r  c #5B2D79",
"t  c #5B3575",
"y  c #5D337B",
"u  c #663768",
"i  c #642C7A",
"p  c #663775",
"a  c #643B74",
"s  c #62337A",
"d  c #6C3478",
"f  c #643C7C",
"g  c #6A3D7C",
"h  c #70704D",
"j  c #79794D",
"k  c #5A4073",
"l  c #6C4B6B",
"z  c #684679",
"x  c #6C447C",
"c  c #744C79",
"v  c #79547D",
"b  c #8F7753",
"n  c #8E567B",
"m  c #906A78",
"M  c #997676",
"N  c #A57479",
"B  c #898902",
"V  c #909000",
"C  c #9B9B04",
"Z  c #909012",
"A  c #9D9D11",
"S  c #A3A304",
"D  c #ABAB04",
"F  c #ADAD0F",
"G  c #B3B302",
"H  c #BABA06",
"J  c #B4B40C",
"K  c #B7B716",
"L  c #B5B52A",
"P  c #C4B834",
"I  c #C4C40D",
"U  c #C9C908",
"Y  c #D3D301",
"T  c #DBDB04",
"R  c #D6D60A",
"E  c #C3C312",
"W  c #CCCC13",
"Q  c #CDCD1A",
"!  c #D4D413",
"~  c #DADA11",
"^  c #E3E305",
"/  c #EBEB02",
"(  c #E7E70B",
")  c #F6F604",
"_  c #FFFF05",
"`  c #F4F40B",
"'  c #F9F70E",
"]  c #FCFC0B",
"[  c #E5E512",
"{  c #E5E416",
"}  c #EEEE12",
"|  c #F7F315",
" . c #F9F413",
".. c #FCFC13",
"X. c #F6F51B",
"o. c #FFFF18",
"O. c #C5C522",
"+. c #CCCB2B",
"@. c #D2D126",
"#. c #CDCD38",
"$. c #DCD636",
"%. c #E8DB2E",
"&. c #E5DB38",
"*. c #ECE32C",
"=. c #EBEA28",
"-. c #F1EB29",
";. c #F5F522",
":. c #FFFF24",
">. c #F2F12A",
",. c #FEFE2D",
"<. c #E9E336",
"1. c #EEEE36",
"2. c #EEED3A",
"3. c #F2EE32",
"4. c #F0F031",
"5. c #FFFF33",
"6. c #998B40",
"7. c #AD9E44",
"8. c #BBBB4F",
"9. c #BBBB55",
"0. c #9A837B",
"q. c #B5996C",
"w. c #A58E73",
"e. c #B5887B",
"r. c #BA9876",
"t. c #BBA869",
"y. c #B9A373",
"u. c #BBB270",
"i. c #C7B854",
"p. c #C5B667",
"a. c #C6A977",
"s. c #CDB775",
"d. c #D3BB79",
"f. c #CFCF47",
"g. c #CEC74B",
"h. c #DBDA49",
"j. c #DDCA57",
"k. c #DCDB56",
"l. c #E1D351",
"z. c #E2D758",
"x. c #EBEB44",
"c. c #E6E349",
"v. c #EEEE4D",
"b. c #F0F049",
"n. c #E6E654",
"m. c #E8E955",
"M. c #E5E55C",
"N. c #E9E95A",
"B. c #CDC367",
"V. c #D9C867",
"C. c #D4CB6B",
"Z. c #D7D264",
"A. c #DBD464",
"S. c #DEDC64",
"D. c #DBD46B",
"F. c #DEDB69",
"G. c #CFC378",
"H. c #D7C778",
"J. c #DAD476",
"K. c #DEDC74",
"L. c #DAD37B",
"P. c #DEDD7B",
"I. c #E0DB68",
"U. c #DFE06F",
"Y. c #E4E565",
"T. c #E7E866",
"R. c #E4E469",
"E. c #F2F261",
"W. c #E2E274",
"Q. c #E0E07B",
"!. c #771889",
"~. c #7A099B",
"^. c #7D1397",
"/. c #7C2685",
"(. c #693583",
"). c #6B3B83",
"_. c #723B87",
"`. c #7D05A4",
"'. c #6D4483",
"]. c #6A4984",
"[. c #734C84",
"{. c #784886",
"}. c #74448A",
"|. c #744D8A",
" X c #6D5686",
".X c #785587",
"XX c #7C5B8C",
"oX c #7B4992",
"OX c #7C5494",
"+X c #7E5898",
"@X c #7D658C",
"#X c #7C6891",
"$X c #84199B",
"%X c #8B378A",
"&X c #862495",
"*X c #882E90",
"=X c #96379B",
"-X c #840AA8",
";X c #8814A5",
":X c #9215B4",
">X c #962AA5",
",X c #9C37A2",
"<X c #834B89",
"1X c #94498F",
"2X c #83558A",
"3X c #845393",
"4X c #865897",
"5X c #8C5B9B",
"6X c #A54F98",
"7X c #A95895",
"8X c #866689",
"9X c #94728C",
"0X c #896697",
"qX c #8A759A",
"wX c #947996",
"eX c #A96689",
"rX c #A6768E",
"tX c #AD6792",
"yX c #B46C97",
"uX c #B97795",
"iX c #A74AA4",
"pX c #8E6BA0",
"aX c #966EA2",
"sX c #9877A5",
"dX c #C17E95",
"fX c #9C8787",
"gX c #988497",
"hX c #B98883",
"jX c #BC8C97",
"kX c #A79796",
"lX c #B7AB8F",
"zX c #9886A5",
"xX c #9E91AB",
"cX c #A489AC",
"vX c #A595A9",
"bX c #AB8BB3",
"nX c #AB97B4",
"mX c #B39AB8",
"MX c #AFA5A9",
"NX c #B6A6B5",
"BX c #C28D89",
"VX c #C3978B",
"CX c #C18C98",
"ZX c #C39594",
"AX c #CAAA8D",
"SX c #C8B787",
"DX c #D3BD83",
"FX c #C2BE98",
"GX c #C8B8AA",
"HX c #D5C684",
"JX c #DCD983",
"KX c #D0C995",
"LX c #D2C4AA",
"PX c #BC9BC0",
"IX c #C2A7C7",
/* pixels */
"JXn.v.v.v.v.v.v.v.v.v.v.v.v.v.v.v.v.v.v.v.v.v.v.v.v.v.v.v.v.v.v.v.v.v.v.v.v.v.v.v.v.v.v.v.v.v.v.v.v.v.v.v.v.v.v.v.v.v.v.v.v.v.v.v.v.v.v.v.v.v.v.b.c.u.",
"g.Y ) _ _ _ _ _ ) _ _ _ _ _ ) _ _ _ _ _ ) _ _ _ _ _ ) _ _ _ _ _ ) _ _ _ _ _ ) _ _ _ _ _ ) _ _ _ _ _ ) _ _ _ _ _ ) _ _ _ _ _ ) _ _ _ _ _ ) _ _ _ ) C j ",
"8.G / _ _ _ _ _ _ _ _ _ _ _ _ _ _ _ _ _ _ _ _ _ _ _ _ _ _ _ _ _ _ _ _ _ _ _ _ _ _ _ _ _ _ _ _ _ _ _ _ _ _ _ _ _ _ _ _ _ _ _ _ _ _ _ _ _ _ _ _ ) H = h ",
"8.G Y ` o.o.o.o.o.o.o.o.o.o.o.o.o.o.o.o.o.o.o.o.o.o.o.o.o.o.o.o.o.o.o.o.o.o.o.o.o.o.o.o.o.o.o.o.o.o.o.o.o.o.o.o.o.o.o.o.o.o.o.o.o.o.o.o.o.o.o.Y V = h ",
"8.G T / ..,.5.5.5.5.5.5.,.5.,.5.5.5.5.5.5.5.5.5.,.,.5.5.5.,.5.5.5.5.5.,.,.5.,.5.5.5.5.5.5.5.5.5.,.,.5.5.5.,.5.5.5.5.5.5.,.5.,.5.5.,.5.5.5.,.~ H V = h ",
"8.G T / ] o.5.5.5.5.5.5.5.5.5.5.5.5.5.5.5.5.5.5.5.5.5.5.5.5.5.5.5.5.5.5.5.5.5.5.5.5.5.5.5.5.5.5.5.5.5.5.5.5.5.5.5.5.5.5.5.5.5.5.5.5.5.5.5.| Y G V = h ",
"8.G T / _ _ o.:.:.:.:.:.:.:.:.:.:.:.:.:.:.:.:.:.:.:.:.:.:.:.:.:.:.:.o.:.:.:.:.:.:.:.:.:.:.:.:.:.:.:.:.:.:.:.:.o.:.:.:.:.:.:.:.:.:.:.:.:. ./ Y D V = h ",
"8.G Y / ) _ _ ] ] o.] o.] o.] o.] o.] o.] o.] o.o.] o.] o.o.*.&.%.$.$.$.$.$.=.<.<.>.o.] ] o.] o.o.] o.] o.o.] o.] o.] o.] o.] o.o.] o._ ) ^ Y G V = h ",
"8.H Y / _ _ _ _ _ _ _ _ _ _ ] _ _ _ _ _ _ ] _ _ _ _ _  .&.a.rXM m m m m m m M fXkXlXC.3.] ] _ _ _ _ ] _ _ ] _ _ _ _ _ _ _ _ ] _ _ _ _ _ ) / Y D V = h ",
"8.H Y / ) _ _ _ _ _ _ _ _ _ _ _ _ _ _ _ _ _ _ _ _ _ <.a.sX8Xv v c c v .X0XXX.X#XqXcXmXGXI.X._ _ _ _ _ _ _ _ _ _ _ _ _ _ _ _ _ _ _ _ _ _ ) ^ Y G V = h ",
"8.G Y ) _ _ _ _ _ _ _ _ _ _ _ _ _ _ _ _ _ _ _ _ ..z.jX0X2Xn n 2Xv v 8X.XcXcX#X0XaXsXPXIXNXKX1._ _ _ _ _ _ _ _ _ _ _ _ _ _ _ _ _ _ _ _ _ ) / Y G V = h ",
"8.G Y / _ _ _ _ _ _ _ _ _ _ _ _ _ _ _ _ _ _ _  .i.sX5X2X<X<X2X2Xn 4X0X2X0XpX4X+X5XsXbXbXcXIXLX1._ _ _ _ _ _ _ _ _ _ _ _ _ _ _ _ _ _ _ _ ) / Y G V = h ",
"8.G Y / _ _ _ _ _ _ _ _ _ _ _ _ _ _ _ _ _ _ ] i.aX5X5X<X{.2X2X{..X4XpX5X5X4X+XOX3X5XpXqXpXmXIXGX2._ _ _ _ _ ] _ _ _ _ _ _ _ _ _ _ _ _ _ ) ^ Y G V = h ",
"8.G Y / ) _ _ _ _ _ _ _ _ _ _ _ _ _ _ _ _ _ g.9X5X3X<Xn {.3X2X2X2X4X5X5XsX4XOXoXOX4X+X0XqXbXmXcXlX;._ _ _ _ _ _ _ _ _ _ _ _ _ _ _ _ _ _ ) ^ Y G V = h ",
"8.G Y ) ] _ _ _ _ _ _ _ _ ] _ _ _ _ _ _ _ %.rX.X2X5X5X{.oX3X5X5X0X4X4X5X5X}.}.}.+X+X+XOX0XsXmXmXnXJ.o._ _ _ _ _ _ _ _ _ _ ] _ _ _ _ _ _ ) / Y D V = h ",
"8.H Y / _ _ _ _ _ _ _ _ _ _ _ _ _ _ _ _ ` t.4XoX2XsXwX{.<X3X5X3X5X2Xx oX).).'.OX5X|.OX|.XXsXmXbXvXNXx._ _ _ _ _ _ _ _ _ _ _ _ _ _ _ _ _ ) / Y G V = h ",
"8.G Y ) ) _ _ _ _ _ _ _ _ _ _ _ _ ] _ _ &.wX.X2X.X2X[.{.<X4X3X4X3X4X|.'._.s }.oX+X|.|.'.|.#XsXsXsXcXKXo._ _ _ _ _ _ _ _ _ _ _ _ _ _ _ _ ) / Y D V = h ",
"8.G Y / _ _ _ _ _ _ _ _ _ _ _ _ _ _ _ ' u.0X.X2X{.{.[.4X5X<X_.oXoX_.{.<X).7 '.).4X+Xf '.|.+XpX#XqXzXNXx._ _ _ _ _ _ _ _ _ _ _ _ _ _ _ _ ) ^ Y G V = h ",
"8.G Y ) _ _ _ _ _ _ ] _ _ _ _ _ _ _ _ >.kX0XXX.XoX3X<X<X<X(.(._.i w w _.oXs i (._.).s x ].|.+X#XqXgXvXP._ _ _ _ _ _ _ _ _ _ _ _ _ _ _ _ ) / Y G V = h ",
"8.G Y / ) _ _ _ _ _ _ _ _ _ _ _ _ _ _ <.kX8X.X.X3X<Xd d (./.i 6 3 w w OX3XoX(.(.(.w e p ).]. X X#XqXzXKX.._ _ _ _ _ _ _ _ _ _ _ _ _ _ _ ) / Y G V = h ",
"8.G Y ) _ _ _ _ _ _ _ _ _ _ _ _ _ _ _ <.cX8X.X[.}._.i i i i 5 2 < 3 w 3X5XOX(.i 0 4 2 w (.(.]. X#XsXzXlX' _ _ _ _ _ _ _ _ _ _ _ _ _ _ _ ) ^ Y G V * h ",
"8.H Y / _ _ _ _ _ _ _ _ _ _ _ _ _ _ _ &.wX2X.X[.d i i _.d 8 5 2 < 3 w _.5X}.s 0 2 2 2 2 5 (.]. X XqXzXkXX._ _ _ _ _ _ _ _ _ _ _ _ _ _ _ ) ^ Y G V = h ",
"8.G Y ) _ _ _ _ _ _ _ _ _ _ _ _ _ _ _ &.wXXX.X).(.(.(.'.|.'.e 5 2 2 0 (.{.(.w 4 3 < 2 < 5 q ]. X XpXxXkX=._ _ _ _ _ _ _ ] _ _ _ _ _ _ _ ) / Y D V = h ",
"8.G Y / ) _ _ _ _ _ _ _ _ _ _ _ _ _ _ $.wX@Xc g ).|.}.].(.).y 6 2 2 2 (.i i 6 3 2 < 5 2 5 q (.]. X#XxXkX<._ _ _ _ _ _ _ _ _ _ _ _ _ _ _ ) / Y G V = h ",
"8.G Y / ) _ _ _ _ _ _ _ _ _ _ _ _ _ _ $.wX Xc '.|.{.4Xt.9X].q 0 3 (.q s w 8 r 0 2 5 5 5 5 (.q ]. X XzXkX*._ _ _ _ _ _ _ _ _ _ _ _ _ _ _ ) / Y D V = h ",
"8.G Y / _ _ _ _ _ _ _ _ _ _ _ _ _ _ _ $.9X[.z [.'.[.gX<.Z.+Xz y y 5 0 s 6 3 r r (.0 q 0 5 5 k ].]. X#XkX1._ _ _ _ _ ] _ _ _ _ _ _ _ _ _ ) ^ Y G V = h ",
"8.G Y ) ) _ _ _ _ _ _ _ _ _ _ _ _ _ _ *.gX Xa z g '.qXlXr.|.g a y 1 < 5 5 2 0 (.5 5 5 q (.q k k k  X#XlX;._ _ _ _ _ _ _ _ _ _ _ _ _ _ _ ) / Y G V = h ",
"8.G Y / _ _ _ _ _ _ _ _ _ _ _ _ _ _ _ *.gX8Xx a a a x OX+Xa t i r 6 < 1 2 5 0 w 5 (.q q q q q q k #XzXKX.._ _ _ _ _ _ _ _ _ _ _ _ _ _ _ ) / Y G V = h ",
"8.G Y ) _ _ _ _ _ _ _ _ _ _ _ _ _ _ _ 4.kX.Xz z a l d g g y i 8 e 0 5 5 r w w w 0 (.5 q z h q q ].#XxXL.] _ _ _ _ _ _ _ _ _ _ _ _ _ _ _ ) ^ Y G V = h ",
"8.G Y / ) _ _ _ _ _ _ _ _ _ _ _ _ _ _ ..u.@Xa z x u u l a i e e e 0 5 5 r (.0 q (.q 0 ].P @.k 5 k #XvXn._ _ _ _ _ _ _ _ _ _ _ _ _ _ _ _ ) ^ Y G V = h ",
"8.G Y / _ _ _ _ _ _ _ _ _ _ _ _ _ _ _ _ k.wXa t d u u u p i 8 e e 7 q q q q 0 q q q c L ) ] 6.q k zXFX;._ _ _ _ _ _ _ _ _ _ _ _ _ _ _ _ ) / Y D V = h ",
"8.H T / _ _ _ _ _ _ _ _ _ _ _ _ _ _ _ _ X.lXc 9 a l u u u u 8 8 w r q q q q (.q r b @.) _ ] 6.k #XMXS.] _ _ _ _ _ _ _ _ _ ] _ _ _ _ _ _ ) / Y G V = h ",
"8.H Y / _ _ _ _ _ _ _ _ _ _ _ _ _ _ _ _ _ c.gXa u u u u 9 9 i e e s y r y (.y y 6.{ ] _ ` 7.z @XvXKXo._ _ _ _ _ _ _ _ _ _ _ _ ] _ _ _ _ ) / Y D V = h ",
"8.H Y / ) _ _ _ _ _ _ _ _ _ _ _ _ _ _ _ _ ] B.8Xp u 1 7 8 8 8 e e s i y y s y q b } _ } 7.v qXzXNX2._ _ _ _ _ _ _ _ _ _ _ _ _ _ _ _ _ _ ) ^ Y G V = h ",
"8.G Y ) _ _ _ _ _ _ _ _ _ _ _ _ _ _ _ _ _ _ X.u.c 7 4 4 7 7 7 w w e r r r q q q y b P w.wXzXzXMXz._ _ _ ] _ _ _ _ _ _ _ _ _ _ _ _ _ _ _ ) / Y G V = h ",
"8.G Y / _ _ _ _ _ _ _ _ _ _ _ _ _ _ _ _ _ _ _ ;.t.c 7 4 7 8 8 8 e r i e q q q q a XXcXcXNXvXMXk.] _ _ _ _ _ _ _ _ _ _ _ _ _ _ _ _ _ _ _ ) / Y G V = h ",
"8.G Y / _ _ _ _ _ _ _ _ _ _ _ _ _ _ _ _ _ _ _ _ | t.v a 8 q t s a f t f '.y z  X8XzXnXNXnXlXk.o._ _ _ _ _ _ _ _ _ _ _ _ _ _ _ _ _ _ _ _ ) ^ Y G V * h ",
"8.G Y / ) _ _ _ _ _ ] _ _ _ _ _ _ _ _ _ _ _ _ _ _  .f.0.c a a g x x [.z x c v .X@XqXzXvXSX<._ _ _ _ _ _ _ _ _ _ _ _ _ ] _ _ _ _ _ _ _ _ ) ^ Y G V = h ",
"8.G Y ) ] _ _ _ _ _ _ _ _ _ _ _ _ _ _ _ _ _ _ _ _ _ _ =.9.9X.Xx x c l z l v v 8X0XgXlXh.X._ _ _ _ _ _ _ _ _ _ _ _ _ _ _ _ _ _ _ _ _ _ _ ) / U G V = h ",
"8.H Y / _ _ _ _ _ _ ] _ _ ] _ _ _ _ _ _ _ _ _ _ _ _ _ _ _ X.f.t.0.m 9Xm 8X9XfXy.B.<..._ _ _ _ _ _ _ _ _ _ _ _ _ _ _ _ _ _ _ _ _ _ _ _ _ ) / Y G V = h ",
"8.G T / _ _ ] _ _  ...X.X.X...] _ _ _ _ _ _ _ _ _ _ _ _ _ _ _ ] X.=.&.$.$.<.;...] _ _ _ _ _ _ _ _ _ _ _ _ _ _ _ _ _ _ _ _ _ _ _ _ _ _ _ ) / Y G V = h ",
"8.G R ( ` ....X.X.>.4.2.1.1.4.;.o._ _ _ _ _ _ _ _ _ _ _ _ _ _ _ ] ' ........' ] _ _ _ _ _ _ _ _ _ _ _ _ _ _ _ _ _ _ _ _ _ _ _ _ _ _ _ _ ) ^ Y G B = h ",
"8.J ! { =.1.1.1.2.x.v.n.N.N.x.1.X.] _ _ _ _ ] _ _ _ _ _ _ _ _ ..X.>.4.1.1.4.>.X.' _ _ _ _ _ _ _ _ ] _ _ _ ] _ _ ] _ _ _ _ _ _ _ _ _ _ _ ) / Y G V = h ",
"9.K +.h.n.v.n.n.n.M.Y.A.A.Y.M.x.>.X.| ....o.X.X.X...X.X.X...X.;.1.x.m.m.n.n.x.1.;...X.X...X.X.....X...X...X...X.X.o.X...X.o.X.X.X...| ..` ( Y D V = h ",
"9.K #.k.Y.M.S.Y.Y.R.R.N m A.T.n.x.1.1.3.1.1.1.1.1.1.1.1.3.1.3.x.m.m.Y.Y.S.Y.M.v.2.2.1.1.1.1.1.1.2.1.1.1.1.1.1.1.1.1.1.4.1.1.1.1.1.1.1.1.=.{ W G V = h ",
"9.L f.k.Y.r.M R.T.R.R.6X%XC.T.M.M.N.n.m.N.n.n.N.n.v.n.m.m.N.N.z.M.Y.Y.r.M S.T.Y.M.m.m.m.m.N.n.n.m.m.m.N.m.z.m.m.N.m.m.n.m.m.n.N.N.N.N.n.c.%.Q G V = h ",
"9.L f.I.V.1X!.p.S.T.Y.7X&Xp.p.B.R.T.T.V.p.I.Y.S.p.I.T.T.S.p.p.i.R.R.D.eX!.q.Z.T.Y.S.B.t.p.A.Y.Y.T.V.B.Z.p.i.Y.j.p.B.I.Y.Y.Y.T.C.p.p.S.Y.M.h.+.G V = h ",
"u.L f.I.eX-X~.^.e.Y.Y.7X~.*X~.!.q.R.T.e.!.q.R.r.!.r.R.I.N !.&X1XZ.T.hX;X`.^.N R.R.e.&X&X^.n C.Y.T.e./.n $X!.m %X-Xi t.T.Y.Y.a./.&X/.m S.S.h.#.J V = h ",
"9.L k.S.s.,X$XBXG.Y.R.7X-X7XdX:X<XF.T.s.:Xn S.1X$Xp.Y.D.;X1Xs.d.I.T.H.6X-XhXH.R.I.a.BXd.yX~.r.T.T.hX`.1XBX>X`.tXuX-Xn T.T.D.*X=Xd.uX$Xt.z.l.+.K V = h ",
"9.L f.S.I.6X$XD.T.T.R.eX$Xp.I.=X%XD.T.I.6X&Xa.&X6XI.R.D.iX$Xn p.Y.T.I.tX$Xp.R.R.T.Z.q.M 1X`.r.T.T.hX-Xr.R.7X~.B.J.>X%XI.T.d.-X/.n <X-XN T.h.+.F V = h ",
"9.L f.k.F.6X$XC.T.R.R.tX$XC.I.=X%XF.R.R.VX;X%X;Xe.R.R.R.H.uX:X/.p.R.I.yX^.p.R.R.I.eX&X7X6X-Xe.T.T.BX`.r.R.7X^.C.D.>X%XR.T.a.-X%XuXyXuXd.Y.h.+.J V = h ",
"9.K f.k.R.7X^.q.A.R.R.tX&Xp.I.iX*XF.R.Y.V.,X~.&XG.T.R.I.p.C.eX;Xr.T.Y.tX~.w.Z.R.D.>X*Xp.eX`.r.T.Y.e.$Xr.R.tX^.C.D.,X%XI.T.C.>X%Xp.B.t.D.Y.k.#.J V = h ",
"9.K #.S.U.jX:X^.r.K.P.yX>XG.J.iX=XJ.K.W.P.yX-X1XJ.W.W.DX=X&X;X,XH.W.W.ZX:X-XN K.W.yX-X&X>X-XhXW.W.VX-XVXW.yX;XG.J.iX=XK.W.P.dX:X$X&X*Xs.J.k.+.K V = h ",
"9.K f.F.P.HXCXCXHXQ.Q.AXZXL.P.VXjXL.Q.Q.JXtX`.rXJXQ.Q.JXAXZXZXZXHXQ.JXHXCXCXDXP.P.AXCXZXAXCXDXQ.P.DXjXDXP.AXCXH.L.ZXVXL.Q.P.DXZXZXjXSXL.J.Z.#.K V = h ",
"9.K #.k.U.H.DXK.W.W.R.H.d.I.R.H.H.K.W.Q.HX,X;XAXL.Q.W.W.K.H.H.DXL.I.R.L.DXK.W.W.W.H.DXHXH.DXJ.I.R.C.d.I.S.H.H.D.I.H.H.I.R.I.DXHXJ.L.J.K.S.k.+.J V = h ",
"9.F @.h.n.Z.V.M.M.m.c.j.j.c.c.j.j.n.Y.U.H.uXBXH.L.I.T.z.I.V.V.z.n.c.n.I.V.z.M.M.M.z.I.I.j.V.l.v.x.l.j.l.x.j.j.c.c.j.j.c.v.l.V.V.V.V.V.k.c.$.Q J V = h ",
"8.J ! =.3.&.&.<.1.4.>.*.%.*.-.*.*.1.c.M.D.D.I.I.I.n.x.2.c.&.1.1.3.>.>.<.&.<.2.3.1.1.1.1.<.&.-.;.X.-.%.*.-.*.%.*.-.*.*.-.X.>.&.&.<.<.c.*.=.{ U G V = h ",
"8.G T /  .| | |  ...o. . .'  . . .X.4.x.n.c.h.h.$.*.X. . .| | | ..]  .| | |  . ...| | | |  . .] ' '  .`  . .'  . . .' ] ] ]  . .| |  . .` / Y G V = h ",
"8.G Y / _ _ _ _ _ _ _ _ _ _ _ _ _ o...;.;.L , $ # ; D ] _ _ _ _ _ _ _ _ _ ] _ _ _ _ _ _ _ _ _ _ _ _ _ _ _ _ _ _ _ _ _ _ _ _ _ _ _ _ _ _ ) / Y G B = h ",
"9.D Y / _ _ _ _ _ _ _ _ _ _ _ _ _ _ _ ] ] A . - : o O I _ _ _ _ ) / ` _ _ _ _ _ ` / ) _ _ _ _ ) / ) _ _ _ _ _ ) ) ) ) _ _ _ _ _ _ _ _ _ ) ^ Y G V = h ",
"8.G T / ) _ _ _ _ _ _ _ _ _ _ _ _ _ _ _ _ V . C ' :   C _ _ / V & % : Y _ _ _ H * @ > / _ _ T B & * C ) _ _ / : B * B ) _ _ _ _ _ _ _ _ _ ^ Y G V = h ",
"8.G T / _ _ _ _ _ _ _ _ _ _ _ _ _ _ _ _ _ C   C ( = . D _ ] B . % = X & ( _ T O + B > ^ _ ) = o > & o H _ _ T O X O : ) _ _ _ _ _ _ _ _ ) ^ Y G V = h ",
"8.G Y / ) _ _ _ _ _ _ _ _ _ _ _ _ _ _ _ _ S   + % X & / _ / + O T / * . H _ T O @ D ^ _ _ U o @ D >   > ] _ T O + U ` _ _ _ _ _ _ _ _ _ ) ^ Y D V = h ",
"8.G T / _ _ _ _ _ _ _ _ _ _ _ _ _ _ _ _ _ C   + * B T _ _ T O % ` _ >   G _ ] C O o * ^ _ I o o % % + C _ _ ^ O = ] _ _ _ _ _ _ _ _ _ _ ) / Y G V = h ",
"8.G T / _ _ _ _ _ _ _ _ _ _ _ _ _ _ _ _ _ C . C ) _ _ _ _ / + O T / & X U _ ] / T :   G _ U O % U T Y ) _ _ T + = ` _ _ _ _ _ _ _ _ _ _ ) / Y G V = h ",
"9.G T / ) _ _ _ _ _ _ _ _ _ _ _ _ _ _ _ _ S   C _ _ _ _ _ ] B X % & . : / _ Y : > % X I _ / * . = > * U _ _ ^ + = ` _ _ _ _ _ _ _ _ _ _ ) / Y G V = h ",
"8.G T / _ _ _ _ _ _ _ _ _ _ _ _ _ _ _ ] _ G % D _ _ _ _ _ ] H & @ % & S ) _ T : % % : T _ ] C & @ @ - Y _ _ ^ = > ) _ _ _ _ _ _ _ _ _ _ ) ^ Y D V = h ",
"8.G Y / ) _ _ _ _ ] _ _ ] _ ] _ ] _ ] _ ] R C Y _ _ _ _ _ ` H S ^ ( H S ( _ ] / ^ G C T _ / F D ^ / / ` _ _ } S H ` _ _ _ _ _ _ ] _ ] _ ) ^ Y G V = h ",
"8.G Y / _ _ _ ' ..] ] ] ] ] ' ] ] ] ' ] ' T D I R ^ ` ] ' ` H I ` ' R G ^ ] ' ^ I H I } ] ( H H U I I ^ ' ] } H U ' ] ' ] ] ] ' ' ] ] ' ] ^ Y G V = h ",
"8.H T / ) ` } } } } } } } } } | } } } } } ~ E I E I W ( } } W I { } ! E ~ } [ W E ! [ } } [ I I ~ ! H ~ } } [ W I [ } } } } } } } } } | } / Y G V = h ",
"8.G Y / ^ ! ! ! ! ! ! ! ! ! ! ! ! ! ! ! ! Q E W ! E E W ! ! W K E W E E ! ! Q E E W W ! ! ! W E Q W K W ! ! ! I K W W ! ! ! ! ! ! ! ! ! ! ! U G V = h ",
"8.G Y I F F J F J F F F F F F F F F K F F F F F F F F F F F F F F F F F F F F F F F F F F F F F F F F F F F F F F F F F F F F F F F F F F J F S V = h ",
"8.J J A A A A A A A A A A A A A A A A A A A A A A A A A A A A A A A A A A A A A A A A A A A A A A A A A A A A A A A A A A A A A A A A A A A A A C = h ",
"8.E O.O.O.O.O.O.O.O.O.O.O.O.O.O.O.O.O.O.O.O.O.O.O.O.O.O.O.O.O.O.O.O.O.O.O.O.O.O.O.O.O.O.O.O.O.O.O.O.O.O.O.O.O.O.O.O.O.O.O.O.O.O.O.O.O.O.O.O.O.O.O.Z j ",
"Q.E.E.E.E.E.E.E.E.E.E.E.E.E.E.E.E.E.E.E.E.E.E.E.E.E.E.E.E.E.E.E.E.E.E.E.E.E.E.E.E.E.E.E.E.E.E.E.E.E.E.E.E.E.E.E.E.E.E.E.E.E.E.E.E.E.E.E.E.E.E.E.E.M.KX"
};
