/* XPM */
static char *poser_m[] = {
/* columns rows colors chars-per-pixel */
"75 75 251 2",
"   c #050500",
".  c #0B0B00",
"X  c #121201",
"o  c #1B1B01",
"O  c #1D1D1D",
"+  c #232301",
"@  c #2B2B01",
"#  c #333301",
"$  c #3B3B01",
"%  c #232323",
"&  c #2C2C2C",
"*  c #343435",
"=  c #3C3C3C",
"-  c #424202",
";  c #4E4E02",
":  c #535302",
">  c #5A5A00",
",  c #636302",
"<  c #6C6C02",
"1  c #757502",
"2  c #7C7C03",
"3  c #62622E",
"4  c #3F3F40",
"5  c #424242",
"6  c #4C4C4C",
"7  c #535353",
"8  c #555558",
"9  c #5C5C5D",
"0  c #6B6B4D",
"q  c #70704D",
"w  c #79794D",
"e  c #61615B",
"r  c #636363",
"t  c #666668",
"y  c #6C6C6C",
"u  c #7D7D67",
"i  c #737373",
"p  c #7C7C72",
"a  c #7D7D7D",
"s  c #848403",
"d  c #8D8D02",
"f  c #909000",
"g  c #9C9C03",
"h  c #94940A",
"j  c #909012",
"k  c #9D9D11",
"l  c #A3A304",
"z  c #ABAB04",
"x  c #ADAD0F",
"c  c #B3B302",
"v  c #BABA04",
"b  c #B5B50A",
"n  c #BABA09",
"m  c #BFBF13",
"M  c #C4C404",
"N  c #CCCC04",
"B  c #C4C40D",
"V  c #C9C90D",
"C  c #D3D301",
"Z  c #DBDB04",
"A  c #D4D40A",
"S  c #DDDD0B",
"D  c #C3C312",
"F  c #CCCC13",
"G  c #CCCC1F",
"H  c #D4D413",
"J  c #DBDB11",
"K  c #D3D31B",
"L  c #DDDD1C",
"P  c #E3E305",
"I  c #EBEB02",
"U  c #E2E20B",
"Y  c #ECEC0C",
"T  c #F5F504",
"R  c #FFFF05",
"E  c #F4F40B",
"W  c #FDFD0B",
"Q  c #E5E513",
"!  c #EDED12",
"~  c #E3E31B",
"^  c #EEEE1C",
"/  c #F2F213",
"(  c #FEFE12",
")  c #F3F319",
"_  c #FEFE19",
"`  c #C5C522",
"'  c #CFCF25",
"]  c #DCDC22",
"[  c #D3D328",
"{  c #DCDC2A",
"}  c #C7C737",
"|  c #CACA34",
" . c #C8C83C",
".. c #D8D836",
"X. c #D3D33C",
"o. c #DCDC3E",
"O. c #E2E221",
"+. c #EDED23",
"@. c #E5E52F",
"#. c #EAEA2C",
"$. c #F4F423",
"%. c #FEFE24",
"&. c #F3F32A",
"*. c #FDFD2B",
"=. c #E3E333",
"-. c #EAEA32",
";. c #E5E53B",
":. c #EDED3B",
">. c #F5F535",
",. c #FFFF33",
"<. c #F2F23D",
"1. c #FDFD3B",
"2. c #89895B",
"3. c #BBBB4F",
"4. c #BABA59",
"5. c #BBBB64",
"6. c #B6B66E",
"7. c #ACAC79",
"8. c #BDBD76",
"9. c #B3B37B",
"0. c #BDBD7B",
"q. c #CACA43",
"w. c #CACA4C",
"e. c #D3D345",
"r. c #DBDB46",
"t. c #D7D74C",
"y. c #C3C351",
"u. c #C4C45C",
"i. c #D8D855",
"p. c #EBEB43",
"a. c #E3E34B",
"s. c #EFEF4D",
"d. c #F5F545",
"f. c #FDFD43",
"g. c #F1F14D",
"h. c #FCFC4D",
"j. c #E4E453",
"k. c #EBEB53",
"l. c #E4E45C",
"z. c #ECEC5C",
"x. c #F2F253",
"c. c #FEFE54",
"v. c #F2F25C",
"b. c #FBFB5D",
"n. c #C9C967",
"m. c #CDCD6D",
"M. c #D5D56F",
"N. c #C7C776",
"B. c #CACA7A",
"V. c #DDDD75",
"C. c #D2D27D",
"Z. c #E3E362",
"A. c #EDED65",
"S. c #E5E56B",
"D. c #ECEC6C",
"F. c #F2F261",
"G. c #F2F26D",
"H. c #FBFB69",
"J. c #E2E274",
"K. c #ECEC75",
"L. c #E6E67C",
"P. c #ECEC7F",
"I. c #F4F474",
"U. c #FDFD74",
"Y. c #F2F27B",
"T. c #FDFD7B",
"R. c #858585",
"E. c #8D8D8D",
"W. c #939393",
"Q. c #9C9C9C",
"!. c #ACAC83",
"~. c #AEAE8A",
"^. c #B8B887",
"/. c #AAAA92",
"(. c #BABA98",
"). c #A3A3A3",
"_. c #A7A7A9",
"`. c #AAAAAA",
"'. c #BCBCA3",
"]. c #B6B6A9",
"[. c #B4B4B4",
"{. c #BCBCB3",
"}. c #BCBCBC",
"|. c #C7C784",
" X c #C9C983",
".X c #C3C38D",
"XX c #D6D68A",
"oX c #DCDC8D",
"OX c #C7C792",
"+X c #C4C49B",
"@X c #CCCC9D",
"#X c #D8D895",
"$X c #E6E68D",
"%X c #FEFE82",
"&X c #F3F389",
"*X c #FFFF8C",
"=X c #E3E39B",
"-X c #EAEA9D",
";X c #FDFD95",
":X c #C4C4A6",
">X c #CACAA2",
",X c #C4C4AB",
"<X c #CACAAB",
"1X c #D4D4A4",
"2X c #D6D6AD",
"3X c #DBDBA8",
"4X c #C4C4B5",
"5X c #C3C3BC",
"6X c #CACABE",
"7X c #D5D5B5",
"8X c #DADAB4",
"9X c #D2D2B9",
"0X c #DADABD",
"qX c #E6E6A3",
"wX c #EAEAA9",
"eX c #FEFEA3",
"rX c #F6F6A9",
"tX c #E6E6B6",
"yX c #E1E1BC",
"uX c #F3F3B2",
"iX c #FCFCB3",
"pX c #FAFAB9",
"aX c #BFBFC0",
"sX c #C4C4C4",
"dX c #CDCDC4",
"fX c #CDCDCC",
"gX c #D0D0C4",
"hX c #DCDCC5",
"jX c #D3D3CB",
"kX c #DCDCCB",
"lX c #D3D3D3",
"zX c #DBDBD4",
"xX c #D7D7D9",
"cX c #DBDBDB",
"vX c #E0E0C5",
"bX c #E2E2CB",
"nX c #F5F5CC",
"mX c #FDFDCC",
"MX c #EAEAD9",
"NX c #FDFDD7",
"BX c #FDFDDC",
"VX c #E3E3E3",
"CX c #EEEEE0",
"ZX c #ECECEC",
"AX c #F9F9E5",
"SX c #FCFCEE",
"DX c #EFEFF1",
"FX c #F4F4F4",
"GX c #FEFEF4",
"HX c #F7F7F8",
"JX c #FEFEFE",
/* pixels */
"oXp.k.g.s.s.s.g.g.s.s.s.s.g.g.s.s.s.s.g.g.s.s.s.s.g.g.s.s.s.s.g.g.s.s.s.s.g.g.s.s.s.s.g.g.s.s.s.s.g.g.s.s.s.s.g.g.s.s.s.s.g.g.s.s.s.s.g.g.s.s.s.s.a.9.",
"y.C T R R R R T T R R R R T R R R R R T T R R R R T R R R R R T T R R R R T R R R R R T T R R R R T R R R R R T T R R R R T R R R R R T T R R R T g w ",
"3.c I R R R R R R R R R R R R R R R R R R R R R R R R R R R R R R R R R R R R R R R R R R R R R R R R R R R R R R R R R R R R R R R R R R R R T v > q ",
"3.c C T _ _ _ _ _ ( _ _ _ _ _ ( _ _ _ _ _ ( _ _ _ _ _ ( _ _ _ _ _ ( _ _ _ _ _ ( _ _ _ _ _ ( _ _ _ _ _ ( _ _ _ _ _ ( _ _ _ _ _ ( _ _ _ _ _ ( _ A f > q ",
"3.c C I _ *.,.*.*.,.*.,.*.,.,.*.,.,.,.,.,.,.,.,.*.*.,.,.*.,.,.,.*.,.*.,.*.,.,.*.,.,.,.,.,.*.*.,.*.*.,.,.*.,.,.,.*.,.*.,.*.,.,.*.,.,.,.,.,.%.Q c f > q ",
"3.b C T W _ ,.,.,.1.,.,.,.,.1.,.,.,.,.,.,.,.,.,.1.,.,.,.,.,.,.,.,.1.,.,.,.,.1.,.,.,.,.,.,.1.,.,.1.,.,.,.,.,.,.,.,.1.,.,.,.,.1.,.,.,.,.,.,.^ C c f > q ",
"3.c Z I R R _ %.%.%.%.%.%.%.%.%.%.%.%.%.%.%.%.%.%.%.%.%.%.%.%.%.%.%.%.%.%.%.%.%.%.%.%.%.%.%.%.%.%.%.%.%.%.%.%.%.%.%.%.%.%.%.%.%.%.%.%.%._ I C c f > q ",
"3.c C I T R R W ( ( ( ( ( ( ( ( ( ( ( ( ( ( ( ( ( ( ( ( _ ( ( ( ( ( ( ( ( ( ( ( ( ( ( ( ( ( ( ( ( ( ( ( _ ( ( ( ( ( ( ( ( ( ( ( ( ( W W T P N c f > q ",
"3.c C I R R R R W R W R R W R R W R R W R R R R R R W R W R R W W R R R R R W R R W R R W R R W W R R W R R W R W R W R R W R R R W R R T I C c f > q ",
"3.v C I T R R R R R R R R R R R R R R R R R R R R R R R R R R R R R R R R R R R R R R R R R R R R R R R R R R R R R R R R R R R R R R R T I N c f > q ",
"3.c C T R R R R R R R R R R R R R R R R R R R R R R R R R R R R R R R R R R R R R R R R R R R R R R R R R R R R R R R R R R R R R R R R T I N c f > q ",
"3.c C I R R R R R R R R R R R R R R R R R R R W R R R R R R R R R R W R R R R R R R R R R R R R R R R R R R R R R R R R R R R R R R R R T I C c f > q ",
"3.b C I T R R R R W R R R R W R R R R R R R R R R R R R R R R R R R R R R R R R R W R R R R R R R R R R R R R R R R R R R W R R R R R R T I N c f > q ",
"3.c C T R R R R R R R R R R R R R R R R R R R R R W R R R R R R R R R R R R R R R R R R R R R R R R R R R R W R R W R R R R R R R R R R T I C c f > q ",
"3.c C I T R R R R R R R R R R R R R R R R R R R R R R R R R R R R R R R R R R W R R R R R R R R R R R R R R R R R R R R R R R R R R R R T I C c d > q ",
"3.c C T R R R R R R R R R R R R W R R R R R R R R R R R W _ c.U.U.U.T.T.T.T.%X%X%XH.,.( R R R R R R R R R R R R R R R R R R R R R R R T T I C c f > q ",
"3.c C T T R R R R R R R R R R R R R R W R R R R R W %.c.*XmXSXJXJXJXJXJXJXJXJXJXJXGXAXiX%Xh.%.( R R R R R R R R R R R R R R R R R R R R T I C c d > q ",
"3.c C I R R R R R R R R R R R R R R R R R R ( *.b.*XmXSXJXJXJXJXJXJXJXJXJXJXJXJXJXJXJXJXJXGXmXeXH.1._ R R R R R R R R R R R R R R R R R T I C c d > q ",
"3.b C I R R R R R R W R R W R R R R R R R _ %XNXGXJXJXJXJXJXJXJXJXJXJXJXJXJXJXJXJXJXJXJXJXJXJXJXGXAXeXf.W R R R W R R R R R R R R R R R T I N c f > q ",
"3.c C T T R R R R R R R R R R R R R R R %.;XGXJXJXJXJXJXJXJXJXJXJXJXJXJXJXJXJXJXJXJXJXJXJXJXJXJXJXJXJXBXI.%.R ( ( W R R W R R R R R R R T I N c f > q ",
"3.c C T R R R R R R R R R R R R R R R %.eXGXHXHXJXJXJXJXJXJXJXJXJXJXJXJXJXJXJXJXJXJXJXJXJXJXJXJXJXJXJXJXHXrXh._ W R R R R R R R R R R R T I C c f > q ",
"3.c C I R R R R R R R R R R R R R W 1.rXcXDXHXHXHXJXJXJXJXJXJXJXJXJXJXJXJXJXJXJXJXJXJXJXJXJXJXJXJXJXJXJXJXHXbXK.( R W R R R R R R R R R T I N c f > q ",
"3.c C T R R R R R R R R R W R R R f.pX[.9 [.ZXVXVXHXJXJXJXJXJXJXJXJXJXJXJXJXJXJXJXJXJXJXJXJXJXJXJXJXJXJXJXVX`.9Xh.R R R R R R R R R R R T I C c f > q ",
"3.c C I T R R R R R R R R R R R c.mX[.= = ).lXlXlXHXJXJXHXJXJXJXJXJXJXJXJXJXJXJXJXJXJXJXJXJXJXJXJXJXHXHXVXlXW.`.=X_ R R R R R R R R R T T I N c d > q ",
"3.b C T T R R R R R R R R R R _ iX[.4 & 9 sXcXlXfXZXJXHXZXHXJXJXJXJXJXHXJXJXJXJXJXJXJXHXHXJXJXJXJXHXDXVX[.Q.Q.W.4Xv.R R R R R R R R R R T I C c f > q ",
"3.c C I R R R R R R R R R R R 1.<X8 = 9 `.ZXVXcXcXVXHXFXZXHXJXJXJXJXZX{.sXfXcXZXJXJXFXZXZXHXJXVX5XsXfX}.W.i R.E._.qX%.R R R R R R R R R T I C c f > q ",
"3.c C T T R R R R R R R R R R r.e 5 5 7 ).VXcXlXlXlXZXZXFXJXJXJXJXJXHXcXsXsXlXVXFXHXFXFXJXJXHX[.a r t i i R.W.a E.}.D.R R R R R R R R R T I N c f > q ",
"3.c C I R R R R R R R R R R R q.= % % = a _.`.lXlXjXVXZXHXJXJXHXHXFXHXHXDXZXFXHXHXDXHXJXJXHXfXW.i 7 6 r i R.`.[.Q.Q.2X*.R R R R R R R R T I N c f > q ",
"3.c C T R R R R R R R R R R R  .= % % * R.Q.R.`.lXlXxXZXJXJXHXFXVXcXZXHXZXVXlXVXDXFXHXJXJXcX`.E.i 6 5 r E.).sXVXW.Q.5XJ.W R R R R R R R T I N c f > q ",
"3.c C I T R R R R R R R R R R L 3 % O 8 W.W.a E.}.lXsXlXJXHXDXZXcXfXVXZXlXsX[.).sXZXJXJXZX}.W.a y 6 5 t W.}.ZXZXR.a }.<X#.R R R R R R R T I C c f > q ",
"3.b C I R R R R R R R R R R R W ' 0 * 9 W.Q.Q.[.lXVXa E.ZXHXZXcXfX}.lXcXsX[.).E.`.MXHXHXfX).a r r 7 6 y ).sXVXcXW.t ).].@.R R R R R R R T I C c d > q ",
"3.c C T R R R R R R R R R R R R R a.u t [.lXcXVXVX}.7 i [.cXVXfXsX[.[.lX[.).W.E.}.DXHXHXsXE.t 5 5 r 9 R.[.sXfXsX).y a 8./ R R R R R R T T I C c f > q ",
"3.c C I R R R R R R R R R R R R R W X.2.a `.MXZXVXi 6 i R.Q.fXsX[.Q./.aX_.W.a E.lXHXFXHXZX).7 & = i R.[.xXVXVXlX[.E.p q.R R R R R R R R T I C c d > q ",
"3.v C I T R R R R R R R R R R R R R R $.n.p y `.).6 r R.a 9 R.[._.W.E.[.W.R.i `.ZXHXHXJXHXMXQ.6 9 `.sXlXVXHXHXcXaX/.w./ R R R R R R R R T I C c d > q ",
"3.c C T R R R R R R R R R W R R R R R R ) G.~.i W.W.W.Q.E.4 * i W.R.R.[.E.i a lXHXHXHXHXZXVXfX`.[.cXxXsX[.sXcX5X^.o.R R R R W R R R R R T I N c f > q ",
"3.c C I R R R R R R R R R R R R R R R R R W f.-XMXcXlXfX}.E.t 6 i R.W.}.W.y _.FXHXHXHXHXFXZXVXxXlXcXxXaX`.Q./.u.^ R R R R R R R R R R R T I N c f > q ",
"3.b C I T R R R R R R R R R R R R R R R W R R %.Y.MXZXVXVXVXxXsX}.}.lXZXfXsXDXHXHXFXZXZXFXZXZXZXFXZXxX}.(.n...( R R R R R R R R R R R R T I C c f > q ",
"3.c C T R R R R R W R R R W R R R R R W R R R R W c.uXZXZXZXFXHXFXZXFXJXHXFXFXDXVXcXsX5XVXDXZXVXjX[.!.3.~ E R R R R R R R R R R R R R R T I N c f > q ",
"3.c C I T R R R R R R R R R R R R R R R R R R R R R %.&XMXDXZXDXHXHXJXJXJXHXHXJXHXHXHXFXHXDXlX4X0. .Q W R R R R R R R R R W R R R R R R T I C c f > q ",
"3.c C T R R R R R R R R R R R R R R R R R R R R R R R ( c.uXCXDXHXHXJXJXJXJXHXHXJXJXJXJXZX9XC.;.) W R R R R R R R R R R R R R R R R R T T I N c d > q ",
"3.c C T T R R R R R R R R R R R R R R R R R R R R R R R R _ b.pXSXHXJXJXJXJXJXHXHXFXSXnXV.-.( R R R R R R R R R R R R R R R R R R R R R T I C c f > q ",
"3.c C I R R R R R R R R W R R R R R R R R R R R R R R R R R R _ b.uXAXZXVXzX9X@XoXJ.x.>.W R R R R R R R R R R R R R R R R R R R R R R R T I C c d > q ",
"3.b C I R R R R R R R R R R R R R R R W R R R R R R R R W R R R R _ H.&XS.p.#.! T W R R R R R R R R R R R R R R W R R R R R R W R R R R T I N c f > q ",
"3.c C T T R R R R R R R R R R R R R R R R R R R R R R R R R R R R R R W W E T R R R R R R R R R R R R R R R R R R R R R R R R R R R R R T I N c f > q ",
"3.c C I R R R R R R R R R R R R R R R R W R R R R R R R R R R R R R R R +.8.] R R ^ u.{ R R R R R R R R R R R R R R R R R R R R R R R R T I C c f > q ",
"3.c C T R R R R R R R R R R R R R R R R R R R R R R R R R R R R R R R R ;.dXX.R R -.8Xt.R R R R R R R R R R R R R R R R R R R R W R R R T I C c f > q ",
"3.c V J E Q Q T / L ~ W R R R R E ~ ~ Y R R R R ! ! ! ~ ! T R R R W ~ L o.dX .R R / o.! R R W ! ~ ] Q W R R W ^ E ! L ! R R R R R Q O.U I I N c f > q ",
"3.c  .~.5.<X`.4.N.4X~.| R R R +. X:X:X6.! R T _ B.8..X{.9.L R R W w.'.].^.dXe.R R @.(.[ R R ^ OX4X4X~.[ R R / +X6.+X{.7.L R R W e.:X,X(.} P C c f > q ",
"3.c q.dX@Xk.tXdXXXA.bX^.W R W C.<X=.z.dXw.T R ( =X4XV.P.jXu.T R +.9X1Xk.qXfXq.R R ;.gX..R R $.Z.<.s.hXn.T R ) 9X4XZ.$XlXw.R R #.4XV.#.-X(.H C c d > q ",
"3.c  .dXr.T K.fX{ Y =X>XW R ) 2X(.5.8.jXm.T R / qX.XY ^ hXm.R R j.dXr.T p.jXe.R R -.gXX.R R T O.w.u.6X|.T R ) 7X XT -.kXn.R R l.dX8.5.+X6X' C c d > q ",
"3.c  .dXr.R S.sX] E oX>XE R ^ 0X>XK.K.I.-.R R ( qX.XY ) 0Xm.W R k.dXX.R ;.dXe.R R #.gXr.R R @.,X#XL.hX XY R ) 7XN.T #.hXn.T R S.dXXXK.K.A.S C c f > q ",
"3.c  .dXr.R Z.6X] E oX>XW R ( wX(.G Q ~ ! R R W =X.XY / 8Xm.T R >.kX6.[ B.jXt.R R #.gXr.R T D.dX| { 7X XT R ! 1XN.T &.8Xn.T R x.kX4.J Q L Z C c d > q ",
"3.c | hXa.R l.jX{ E oX3XE R R v.kX,X+X,Xo.T R W -X@X! ! yXV.W R W wXjX4X2XvXi.R R #.vXj.W R g.bX:X@XkXoXE R ) 2XC.E +.tXM.W R ) -XdX'.:X XJ C c f > q ",
"3.c ' $X>.R d.Y.&.W v.I.W R W f.G.k.s.:.) R R W v.F.W ) G.v.W R _ F.I.g.k.Y.d.R R $.Y.<.R W &.Y.z.:.D.z.( R _ K.k.W ) G.d.W R _ H.v.s.p.#.P N c f > q ",
"3.c K x.%.R *.h._ W 1.c.W R ( f.h.%.%.%.( R R W f.f.W ( h.1.W R ) c.*.R %.h.*.R R _ c.*.R R %.c.>.%.c.f.W R ( h.1.W _ h.,.W R *.c.>.%.) ) U N c f > q ",
"3.c H <.) R %.1.) W *.,.W R W >.f.%.&.1.%.W R R ,.,.W ( ,.*.R R ) 1._ R ) 1.%.R R _ 1.%.R R R _ %.*.1.,.W R W 1.%.W ( 1.%.W R _ f.,.*.,.>.! C c f > q ",
"3.c A $._ W _ %._ ( _ %.W R W _ %.W ( %._ R R R _ %.( ( %._ W R W %._ W _ %._ R R ( %._ R R R W W ( %._ R R W %.%._ _ %._ R R W %._ W _ $.Y C c f > q ",
"3.c Z Y ( ( ( W ( ( _ W R R R W ( W W ( R W Y Y ! / ( ( ( W R R W W ( ( _ ( W R R W ( W R R W W W W ( W R R W ( ( ( ( ( R R R W W ( W ( E I N c d > q ",
"3.c C T W R R R R R R R R R R R W R R R R c $ @ @ : c W R R R R R W R R R R R R R R R R R R R R R R W R R R R R R R R R R R R R R R R R T I N c f > q ",
"3.c C I T R R R R R R R R R R R R R R R R f   : < o + M R R R R T I T R R R R R T I T R R R R W Y T R R R R R T W I T R R R R R R R R R T I C c f > q ",
"3.c C I T R R R R R R R R R R R R R R R R f   l T <   h R R I f ; - < A R R R v ; $ 1 Y R R P s ; : g T R R I < d ; s T R R R R R R R R T I N c f > q ",
"3.b C I R R R R R R R R R R R R R R R R R g   g P > . z R W d . - > . ; P R Z # $ s 2 P R T , o 2 ; o v R R Z + . @ 1 T R R R R R R R R T I C c f > q ",
"3.c C T T R R R R R R R R R R R R W R R R l   # - X : P R I @ @ Z Y : X v R A @ # z P R R N o $ l s   1 W R Z + # N T W R R R R R R R R T I C c f > q ",
"3.c C I R R R R W R R R R R R W R R R R R g   # : d Z R R P + - T R 1   c R T g # o : P R v o o - $ # g R R P @ > T R R R W R R R R R T T I C c d > q ",
"3.c C T T R R R R R R R R R R R R R R R R l   g W T R R R I # @ Z I ; o M R W I C <   c R N + - N C Z Y R R P @ > T W R R R R R R R R R T I N c f > q ",
"3.c C I R R R R R R R R R R R R R R R R R l   g R R R R R W d . - ; . , T R C , 2 - o M R Y : . > 2 : M R R P # : T R R R R R R R R R R T I C c f > q ",
"3.c Z T R R R R R R R R R R R R R R R R R c $ z R R R R R R v ; $ - ; l T R Z < - - , Z R T g ; $ - > C R R P > 2 T R R R R R R R R R R T I N c f > q ",
"3.b C I T R R R W R W W W W R W R W R W R A g A R R W R W E c l Z Y v l U W R Y U c g A R Y z c U I Y E R R Y l c W R W W R W R W W R R T I C c f > q ",
"3.c C I R R R W W W W W W W W W W W ( W W J b B A S Y W W Y n B E W A b U W W U B c B Y W Y b n B B B S W W Y n B E W W W W W W W W W W T I C c f > q ",
"3.v C I T E ! ! ! ) ! ! ! ! ! / ! ! ! ! ! J n B F B H ! / ! V B Q ! H D J ! Q V F J Q ! ! Q D F J A B H ! ! Q F F Q ! ! ! ! ! ! ! ! ! ) ! U C c d > q ",
"3.c C I U J H H H H H H H H H H H H H J H F m F F F m F H H F D D F D D H H F D D F F F H H D D F F m F H H H D m D F H H H H H H H H H H H V c f > q ",
"3.c C B x x x x x x x x x x x x x x x x x x x x x x x x x x x x x x x x x x x x x x x x x b x x x x x x x x x x x x x x x x x x x x x x x b x l d > q ",
"3.b b k k k k k k k k k k k k k k k k k k k k k k k k k k k k k k k k k k k k k k k k k k k k k k k k k k k k k k k k k k k k k k k k k k k k k h > q ",
"y.D ` ` ` ` ` ` ` ` ` ` ` ` ` ` ` ` ` ` ` ` ` ` ` ` ` ` ` ` ` ` ` ` ` ` ` ` ` ` ` ` ` ` ` ` ` ` ` ` ` ` ` ` ` ` ` ` ` ` ` ` ` ` ` ` ` ` ` ` ` ` ` j w ",
"L.A.F.F.F.F.F.F.F.F.F.F.F.F.F.F.F.F.F.F.F.F.F.F.A.v.F.F.F.F.F.F.F.F.F.F.F.F.F.F.F.F.F.F.F.F.F.F.F.F.F.F.F.F.F.F.F.F.F.F.F.F.F.F.F.F.F.F.F.F.F.F.F.z.OX"
};
