/* XPM */
static char *poser_f[] = {
/* columns rows colors chars-per-pixel */
"75 75 253 2",
"   c #030300",
".  c #0B0B00",
"X  c #131300",
"o  c #1C1C01",
"O  c #232301",
"+  c #2A2A01",
"@  c #333301",
"#  c #3B3B01",
"$  c #731800",
"%  c #7A1E00",
"&  c #742701",
"*  c #7C2201",
"=  c #6A3902",
"-  c #317003",
";  c #444401",
":  c #535302",
">  c #545303",
",  c #5A5A00",
"<  c #6B4202",
"1  c #636302",
"2  c #6B6B02",
"3  c #737302",
"4  c #7C7C03",
"5  c #6F6F4D",
"6  c #70704D",
"7  c #7A7A4C",
"8  c #831F00",
"9  c #A8130B",
"0  c #BA180D",
"q  c #852903",
"w  c #8F3201",
"e  c #9A3701",
"r  c #A03A00",
"t  c #BF3312",
"y  c #CF110A",
"u  c #C5180C",
"i  c #E90601",
"p  c #E31307",
"a  c #CB2510",
"s  c #F13210",
"d  c #914A03",
"f  c #A74601",
"g  c #A55A01",
"h  c #B85B03",
"j  c #BE4118",
"k  c #977302",
"l  c #A56501",
"z  c #B96A02",
"x  c #B97700",
"c  c #C35B04",
"v  c #CF481B",
"b  c #EA4514",
"n  c #F65A1D",
"m  c #C46705",
"M  c #CD7906",
"N  c #D67B06",
"B  c #F3661E",
"V  c #D65523",
"C  c #EB5D23",
"Z  c #D36D29",
"A  c #E56826",
"S  c #E5762A",
"D  c #F47127",
"F  c #158903",
"G  c #089703",
"H  c #0D9C03",
"J  c #139B02",
"K  c #2B9402",
"L  c #0DA104",
"P  c #17A403",
"I  c #1CB201",
"U  c #2FAF07",
"Y  c #27B302",
"T  c #4C9503",
"R  c #649802",
"E  c #5CBA04",
"W  c #51B111",
"Q  c #68A702",
"!  c #6FB006",
"~  c #61B028",
"^  c #38C601",
"/  c #3DD300",
"(  c #46C903",
")  c #59C707",
"_  c #4CD500",
"`  c #56D900",
"'  c #6AD607",
"]  c #6CE900",
"[  c #75E902",
"{  c #7AF301",
"}  c #848403",
"|  c #8C8C03",
" . c #909000",
".. c #9C9C03",
"X. c #9F9F0B",
"o. c #A4A403",
"O. c #ACAC04",
"+. c #A0A00E",
"@. c #AEAE0B",
"#. c #B3B302",
"$. c #BABA04",
"%. c #B2B20A",
"&. c #A3A315",
"*. c #A9A918",
"=. c #BEBE12",
"-. c #B3B319",
";. c #809F20",
":. c #85B72F",
">. c #ABB429",
",. c #C98F00",
"<. c #D98906",
"1. c #D58509",
"2. c #D99705",
"3. c #DE9509",
"4. c #E5990A",
"5. c #E99411",
"6. c #E79A17",
"7. c #EA9B19",
"8. c #D7A603",
"9. c #E8AB0D",
"0. c #F6A90A",
"q. c #E6B808",
"w. c #F9B70B",
"e. c #EBA917",
"r. c #F4AC13",
"t. c #F3AC1A",
"y. c #E9B615",
"u. c #F7BA16",
"i. c #F3B31B",
"p. c #DC8A36",
"a. c #F58629",
"s. c #E89A28",
"d. c #EB8937",
"f. c #E89638",
"g. c #CAB231",
"h. c #EAA828",
"j. c #F1AC26",
"k. c #EEB427",
"l. c #F3B32C",
"z. c #F5BA28",
"x. c #EBA735",
"c. c #EDAA34",
"v. c #F5AC36",
"b. c #EAB634",
"n. c #F5BA37",
"m. c #86CB05",
"M. c #91D016",
"N. c #88E703",
"B. c #8CED0B",
"V. c #97F704",
"C. c #A5EB0E",
"Z. c #BDEB06",
"A. c #92CF2B",
"S. c #ADD937",
"D. c #BAE236",
"F. c #C3C304",
"G. c #CCCC04",
"H. c #C4C40C",
"J. c #CBCB0C",
"K. c #D4D401",
"L. c #DBDB04",
"P. c #D3D309",
"I. c #DBDB0C",
"U. c #C4C412",
"Y. c #CDCD12",
"T. c #CCCC1E",
"R. c #D4D413",
"E. c #DBDB13",
"W. c #ECC705",
"Q. c #EBCC0A",
"!. c #F9C70A",
"~. c #FAD80A",
"^. c #F9C515",
"/. c #F7C817",
"(. c #FAC51E",
"). c #F8D717",
"_. c #D0F105",
"`. c #E4E404",
"'. c #EBEB02",
"]. c #E3E30B",
"[. c #EDED0F",
"{. c #FCE707",
"}. c #FCE30B",
"|. c #FDEC0A",
" X c #EAF505",
".X c #F6F603",
"XX c #F9F407",
"oX c #FDF506",
"OX c #FFFF05",
"+X c #F6F60E",
"@X c #FEFE0A",
"#X c #E5E514",
"$X c #EAEA11",
"%X c #FCE817",
"&X c #FFFF15",
"*X c #FEF51B",
"=X c #D5D528",
"-X c #CBC737",
";X c #F8C627",
":X c #F4D728",
">X c #F7C737",
",X c #FBCC3C",
"<X c #FAD438",
"1X c #FAE826",
"2X c #FFFF25",
"3X c #FFF02A",
"4X c #FFFF2F",
"5X c #FBE836",
"6X c #FFFF36",
"7X c #FFF739",
"8X c #BBBB4F",
"9X c #A2A265",
"0X c #ECAD44",
"qX c #EFB548",
"wX c #F4B843",
"eX c #F0B152",
"rX c #F2BD52",
"tX c #B9DC42",
"yX c #CFD34F",
"uX c #D5DD5A",
"iX c #F7C845",
"pX c #FBDA45",
"aX c #FBD749",
"sX c #FAD54E",
"dX c #EACA55",
"fX c #F5CA57",
"gX c #F3C55A",
"hX c #FAD557",
"jX c #FDD654",
"kX c #FBDB5B",
"lX c #E4E44C",
"zX c #EEEE4D",
"xX c #FCE747",
"cX c #FFF641",
"vX c #FCF54A",
"bX c #FFFC4C",
"nX c #FEE15C",
"mX c #FFFD51",
"MX c #F6CC65",
"NX c #E9D76E",
"BX c #FBD865",
"VX c #FDDE6C",
"CX c #FADA73",
"ZX c #FEE364",
"AX c #FEE46C",
"SX c #FEE374",
"DX c #FFE875",
"FX c #FEE479",
"GX c #FFEB7C",
"HX c #DFDF8B",
"JX c #FDE688",
"KX c #FEEB98",
"LX c #FFEDA1",
/* pixels */
"HXzXzXzXzXzXzXzXzXzXzXzXzXzXzXzXzXzXzXzXzXzXzXzXzXzXzXzXzXzXzXzXzXzXzXzXzXzXzXzXzXzXzXzXzXzXzXzXzXzXzXzXzXzXzXzXzXzXzXzXzXzXzXzXzXzXzXzXzXzXzXzXzXlX8X",
"8XK..XOXOXOX.XOXOXOX.XOXOXOX.XOXOXOX.XOXOXOX.XOXOXOX.XOXOXOX.XOXOXOX.XOXOXOX.XOXOXOX.XOXOXOX.XOXOXOX.XOXOXOX.XOXOXOX.XOXOXOX.XOXOXOX.XOXOXOXOXOX.Xo.7 ",
"8X#.'.OXOXOXOXOXOXOXOXOXOXOXOXOXOXOXOXOXOXOXOXOXOXOXOXOXOXOXOXOXOXOXOXOXOXOXOXOXOXOXOXOXOXOXOXOXOXOXOXOXOXOXOXOXOXOXOXOXOXOXOXOX@XOXOXOXOXOXOX.XU.1 5 ",
"8X#.K..X&X&X&X&X&X&X&X&X&X&X&X&X&X&X&X&X&X&X&X&X&X&X&X&X&X&X&X&X&X&X&X&X&X&X&X&X&X&X&X&X&X&X&X&X&X&X&X&X&X&X&X&X&X&X&X&X&X&X&X&X&X&X&X&X&X&X&XP. ., 5 ",
"8X#.K.'.&X4X4X4X4X4X4X4X4X4X4X4X4X4X4X4X4X4X4X4X4X4X6X4X4X4X4X4X4X4X4X4X4X4X4X4X4X4X4X4X4X4X4X4X4X4X6X4X4X4X4X4X4X4X4X4X4X4X4X4X4X4X4X4X4X4X#X#.| , 6 ",
"8X#.K..X@X&X6X6X6X6X6X6X6X6X6X6X6X6X6X6X6X6X6X6X6X6X6X6X6X6X6X6X6X6X6X6X6X6X6X6X6X6X6X6X6X6X6X6X6X6X6X6X6X6X6X6X6X6X6X6X6X6X6X6X6X6X6X6X6X*XK.#. ., 6 ",
"8X#.L.'.OXOX&X2X2X2X2X2X2X2X2X2X2X2X2X2X2X2X2X2X2X2X2X2X2X2X2X2X2X2X2X2X2X2X2X2X2X2X2X2X2X2X2X2X2X2X2X2X2X2X2X2X2X2X2X2X2X2X2X2X2X2X2X2X+X`.G.#. ., 6 ",
"8X%.K.'..XOXOX&X&X&X&X&X@X&X&X&X&X&X&X&X@X&X&X&X&X&X@X&X&X@X&X&X&X&X&X&X@X&X&X&X&X&X&X@X&X&X&X&X&X&X@X&X&X@X&X&X&X&X&X&X@X&X&X&X&X&X&X@X.X'.K.#. ., 6 ",
"8X#.K.'.OXOXOXOXOXOXOXOX@XOXOX@XOXOX@XOXOX@X@XOX@XOX@XOX@XOXOXOXOXOXOXOXOXOX@XOXOX@XOXOX@XOX@XOX@XOXOX@XOX@XOX@XOXOXOXOX@XOXOX@XOXOXOXOX.X'.G.#. ., 6 ",
"8X#.L.'..XOXOXOXOXOXOXOXOXOXOXOXOXOXOXOXOXOXOXOXOXOXOXOXOXOXOXOXOXOXOXOXOXOXOXOXOXOXOXOXOXOXOXOXOXOXOXOXOXOXOXOXOXOXOXOXOXOXOXOXOXOXOXOX.X`.K.#.| , 6 ",
"8X#.K..XOXOXOXOXOXOXOXOXOXOXOXOXOXOXOXOXOXOXOXOXOXOXOXOXOXOXOXOXOXOXOXOXOXOXOXOX@XOXOXOXOXOXOXOXOXOXOXOXOXOXOXOXOXOXOXOXOXOXOXOXOXOXOXOX.X'.G.#. ., 6 ",
"8X#.K.'.OXOXOXOXOXOXOXOXOXOXOXOXOXOXOXOXOXOXOXOXOXOXOXOXOXOXOXOXOXOXOXOXOXOXOXOXOXOXOXOXOXOXOXOXOXOXOXOXOXOXOXOXOXOXOXOXOXOXOXOXOXOXOXOX.X'.K.#. ., 6 ",
"8X#.K.'..XOXOXOXOXOXOXOXOXOXOXOXOXOXOXOXOXOXOXOXOXOXOXOXOXOXOX@XoX|.{.}.}.~.}.}.{.|.oX@XOXOXOXOXOXOXOXOXOXOXOXOXOXOXOXOXOXOXOXOXOXOXOXOX.X'.K.#. ., 6 ",
"8X#.L.'.OXOXOXOXOXOXOXOXOXOXOXOXOXOXOXOXOXOXOXOXOXOXOX@X|.~.!.!.w.w.u.>Xz.z.r.u.n.w.u.;X!.}.oXOXOXOXOXOXOXOXOXOXOXOXOXOXOXOXOXOXOXOXOXOX.X'.G.#. ., 6 ",
"8X#.K.'..XOXOXOXOXOXOXOXOX@XOXOXOXOXOXOXOXOXOXOXOX|.~.!.;Xi.w.n.j.0.z.k.r.l.j.r.l.0.r.i.r.n.i.w.}.@XOXOXOXOXOXOXOXOXOXOXOX@XOXOXOXOXOXOX.X`.G.#. ., 6 ",
"8X#.K..XOXOXOXOXOXOXOXOXOXOXOXOXOXOXOXOXOXOXOXoX~.w.w.w.z.z.(.w.!.^.>Xu.;Xw.>Xi.z.j.0.0.l.t.t.0.0.!.|.OXOX@XOXOXOXOXOXOXOXOXOXOXOXOXOXOX.X'.K.#. ., 6 ",
"8X#.K..X.XOXOXOXOXOXOXOXOXOXOXOXOXOXOXOXOX@X%X(.w.>Xu.;X;X(.;X!.^.:X/.;XiXw.>Xk.w.>X0.w.n.j.b.r.n.s.r.).OXOXOXOXOXOXOXOXOXOXOXOXOXOXOXOX.X'.G.#. ., 6 ",
"8X#.L.'.OXOXOXOXOXOXOXOXOXOXOXOXOXOXOXOX@X~.;Xz.^.iX;X/./.>XiX!.^.;X!.).<X^.u.;Xw.u.u.u.b.0.r.r.v.e.5.7.!.OXOXOXOXOXOXOXOXOXOXOXOXOXOXOX.X`.K.#. ., 6 ",
"8X%.K.'.OXOXOXOXOXOX@XOXOXOXOXOXOXOXOXOX).;XiX;X<XdX;XaX;X:X;X:XkX<X<XpX/.)./.>Xi.;XiXy.>Xi.n.h.l.c.0.s.5.!.@XOXOXOXOXOXOXOXOXOXOXOXOXOX.X'.G.#.| , 6 ",
"8X#.L.'..XOXOXOXOXOXOXOXOXOX@XOXOXOXOX%X,XiXfXiX<X>X:XpX<XhX>XaXJXZXnXpX<XpX,X(.;Xu.u.;X,Xn.i.t.r.r.j.s.5.0.}.OXOXOXOXOXOXOXOXOXOXOXOXOX.X'.K.#. ., 6 ",
"8X#.K.'.OXOXOXOXOXOXOXOXOXOXOXOXOXOXoX<XjXsXsXkXaXpXaXsXpXpXsXAXKXKXJXSXAXkXaX,X,X>X;XsX>Xz.,XiXz.n.x.6.6.7.^.@XOXOXOXOXOXOXOXOXOXOXOXOX.X'.G.#. ., 6 ",
"8X#.K..X.XOXOXOXOXOXOXOXOXOXOXOXOXOX%XkXBXBXZXkXhXnXZXBXsXkXkXhXJXLXLXKXJXVXsXhXfXiXaXiXiX,XiXiXn.l.s.s.s.s.j.|.OXOXOXOXOXOXOXOXOXOXOXOX.X`.K.#. ., 6 ",
"8X#.K.'.OXOXOXOXOXOXOXOX@XOXOXOX@XOX%XAXFXVXAXAXAXAXZXZXZXZXZXZXZXAXSXDXVXkXkXhXjXsXjXjXkXjXjXiXn.c.c.v.v.v.l.|.OXOXOXOXOX@XOXOXOXOXOXOX.X'.K.#. ., 6 ",
"8X#.L.'..XOXOXOXOXOXOXOXOXOXOXOXOXOXoX<XCXGXGXDXGXDXDXDXDXSXSXDXSXAXAXVXVXVXVXVXVXVXVXVXBXhXiXqX0X0X0XqX0Xn.).oXOXOXOXOXOXOXOXOXOXOXOXOX.X`.K.#. ., 6 ",
"8X%.L.'..XOXOXOXOXOXOXOX@XOXOXOXOX@X&X7.V f.MXJXFXJXJXGXGXGXDXGXDXFXFXFXFXFXFXFXSXCXBXMXfXrXdXrXrXrXqXf.S /.OXOXOXOXOXOXOXOXOXOXOXOXOXOX.X'.G.#. ., 6 ",
"8X#.L.'.OXOXOXOXOXOXOXOXOXOXOX&X2X6XbXpXv y a V S eXgXBXVXCXFXCXFXDXFXCXCXCXVXMXgXgXgXgXfXrXqX0Xp.Z j a A 5X2X&X@XOXOXOXOXOXOXOXOXOXOXOX.X`.K.#.| , 6 ",
"8X#.K.'..XOXOXOXOXOXOXOXOX*X7XvXmXmXbXbXxXf.s p i i s s B a.s.f.d.d.d.f.f.f.f.p.d.p.p.Z V j t 0 9 9 v f.xXbXmXbX6X&XOXOXOXOXOXOXOXOXOXOX.X'.G.#. ., 6 ",
"8X#.K..XOXOXOXOXOXOXOXOXOX&X2X*X*X*X1X:X5XxXzXn.a.n b s n D D n s i i p u u a u 0 0 0 0 0 a v Z p.iXvXmXmXbXmXbXmXbX&XOXOX@XOXOXOXOXOXOX.X'.K.#. ., 6 ",
"8X#.K.'.OXOXOXOXOXOXOXOXOXOXOXOX@XoX8.1.4.3.4.y.:X5XpXpXiXiXwXv.a.n n n C A A S S d.f.c.iXaXzXvXbXvX7X7X5X1X1X%X%X*XoXOXOXOXOXOXOXOXOXOX.X'.K.#. ., 6 ",
"8X#.L.'.OXOXOXOXOXOXOXOXOXOXOXOXOX@X2.1.3.4.<.1.N <.8.:X3XcXbXbXmXbXbXbXmXvXbXmXbXmXbXbXbX7X3X:X).q.8.,.x g l Q.OXOXOXOXOXOXOXOXOXOXOXOX.X'.G.#. ., 6 ",
"8X#.K.'..XOXOXOXOXOXOXOXOXOXOX_.Z._...N <.4.4.3.4.<.N M <.q.).1X7XmXmXmXbXbXmXmXcX7X3X).W.8.,.g d w & * $ $ d '.OX X X@XOXOXOXOXOXOXOXOX.X`.G.#. ., 6 ",
"8X#.L.'.OXOXOXOXOXOXOXOXOXOX.XN.[ ] Q z N <.3.4.3.3.3.3.1.M M 2.W.%X3XcXbXcX7X%X~.q.,.z g w q q * * % * % & - E ' U m.OXOXOXOXOXOXOXOXOX.X'.K.#. ., 6 ",
"8X#.K.'.OXOXOXOX@XOXOXOXOXOX.X_.C.[ { E k m m N 1.<.1.1.1.1.M m m ,.W.{.}.{.W.,.z r e e w q 8 % % % 8 * = - G H G L M.OXOXOXOXOXOXOXOXOX.X'.G.#. ., 6 ",
"8X#.L.'..XOXOXOXOXOXOXOXOXOX@XOX_.{ ] ^ ^ ! | k h h c h c c m m c h f m 8.M r e e e r w 8 8 q * & = ; - F L L L E '  XOXOXOXOXOXOXOXOXOX.X`.K.#. ., 6 ",
"8X#.K..XOXOXOXOXOXOXOXOXOXOXOX XN.{ { ] _ _ ] ) m. .} k k g g f f f f r e w e r d e w = < < , - - F H H H H G W [.OXOXOXOXOXOXOXOXOXOXOX.X'.G.#.| , 6 ",
"8X#.K.'.OXOXOXOXOXOXOXOXOXOXOXOX_.Z.{ B.A.{ C.A.V.] ] ` ' N.E E Q Q Q Q R R R R T K K K J J H P J G J P L W ~ M.@XOXOX@XOXOXOXOXOXOXOXOX.X'.K.#. ., 6 ",
"8X#.K.'..XOXOXOXOXOXOXOXOXOXOXOXOX.XZ.yXNXS.uXyXV.C.V.B.tXV.] ` ` ( ` [ _ U / ^ Y Y Y ^ Y P H I Y U W P L :.gX%XOXOXOXOXOXOXOXOXOXOXOXOX.X'.G.#. ., 6 ",
"8X#.L.'.OXOXOXOXOXOXOXOXOXOXOXOXOXOXoX1XrXMXHXNXuXuXC.uXFXD.B.V.N.[ [ S.M._ ` ' ) ( ( ) :.:.W Y I ~ dX>.;.g.;XoXOXOXOXOXOXOXOXOXOXOXOXOX.X`.K.#. ., 6 ",
"8X#.K.'..XOXOX@XOXOXOXOXOXOXOXOX@XOXOXOX%X:XdXeXgXdXNXMXBXdX-XyX-XB.A.dXdXM.A.g.b.-XA.g.,Xn.b.>.Q ;.h.h.l.~.@XOXOXOXOXOXOXOXOXOXOXOXOXOX.X'.K.#. ., 6 ",
"8X#.K..XOXOXOXOXOXOXOXOXOXOXOX@XOXOXOXOXOXOX{.E.;Xk.x.x.c.c.c.x.x.h.h.j.h.j.j.j.j.j.7.s.e.7.6.6.e.y.~.}.*XOXOXOXOXOXOXOXOXOXOXOXOXOXOXOX.X`.K.#. ., 6 ",
"8X#.K..X.XOXOXOX@XOXOXOXOXOXOXOXOXOXOXOXOXOXOXOXOXoXXX}.~.Q.W.y.9.9.y.9.9.9.9.9.9.9.q.q.W.~.~.|.oXOXOXOXOXOXOXOXOXOXOXOXOXOX@XOXOXOXOXOX.X'.G.#. ., 6 ",
"8X#.L.'.OXOXOXOXOXOXOXOXOXOXOXOXOXOXOXOXOXOXOXOXOXOX@XOXOX@XOXOX@X+XoXoXoXoXoXoX@X@XOXOXOXOXOXOXOXOXOXOXOXOX@XOXOXOXOXOXOXOXOXOXOXOXOXOX.X`.K.#.| , 6 ",
"8X%.K.'.OXOXOXOXOXOXOXOXOXOXOXOXOXOXOXOXOXOXOX@XOXOXOXOX@XOXOXOXOXOXOXOXOXOXOXOXOXOXOXOXOXOXOXOXOXOXOXOXOXOXOXOXOXOXOXOXOXOXOXOXOXOXOXOX.X'.G.#. ., 6 ",
"8X#.L.'..XOXOXOXOXOXOXOXOXOXOXOXOXOXOXOXOXOXOXOXOXOXOXOXOXOXOXOXOXOXOXOXOXOXOXOXOXOXOXOXOX@XOXOX@XOXOXOXOXOXOXOXOXOXOXOXOXOXOXOXOXOXOXOX.X'.K.#. ., 6 ",
"8X#.K.'.OXOXOXOXOXOXOXOXOXOXOXOXOXOXOXOXOXOXOXOX@XOXOXOXOXOXOXOXOXOXOXOXOXOXOXOXOXOXOXOXOXOXOXOXOX'..XOXOXOXOXOXOXOXOXOXOXOXOXOXOXOXOXOX.X'.K.#. ., 6 ",
"8X#.K..X.XOXOXOXOXOXOXOXOXOXOXOXOXOXOXOXOXF.| } } #.OXOXOXOXOXOXOXOXOXOXOXOXOX@XOXOXOXOXOXOXOXOX`.: } XXOXOXOXOXOXOXOXOXOXOXOXOXOXOXOXOX.X'.G.#. ., 6 ",
"8X#.K.'.OXOXOXOXOXOXOXOXOXOXOXOXOX@XOXOXOX2   O # 4 .XOXOX@X@XOXOXOXOXOXOXOXOXOXOXOXOXOXOXOXOXOXL.+ 2 OXOXOXOX@XOXOXOXOXOXOXOXOXOXOXOXOX.X`.G.#. ., 6 ",
"8X#.L.'..XOXOXOXOXOX@XOXOXOXOXOXOXOXOXOX.X2 X $..X.XOXOXOX`. .2 4 K.@XOXOX.X..3 2 O.OXOXOXOXo.2 4 O 2 .XOXOXOXOXOXOXOXOXOXOXOX@XOXOXOXOX.X'.K.#. ., 6 ",
"8X%.L.'..XOXOXOXOXOXOXOXOXOXOXOXOXOXOXOX@X2 .  .F.L.OXOX'., o : O # L.OXOX} o ; @ o #.OXOXo.X @ + . 2 OXOXOXOXOXOXOXOXOXOXOXOXOXOXOXOXOX.X'.G.#. ., 6 ",
"8X#.L.'.OXOXOXOXOXOXOXOXOXOXOXOXOXOXOXOXOX3   X + | OXOXF.X } XX| X o.OX`.@ : '.F.o 4 OX.X2 o P.$.o 2 .XOXOXOXOXOXOX@XOXOXOXOXOXOXOXOXOX.X`.K.#. ., 6 ",
"8X#.K.'..XOXOXOXOXOXOXOXOXOXOXOXOXOXOXOXOX3 X ..K.`.OXOX#.. O.OXO.X  .@XK.O 2 OX`.+ 1 XX'.: + '.L.+ 1 OXOX@XOXOXOXOXOXOXOXOXOXOXOXOXOXOX.X'.G.#.| , 6 ",
"8X#.K..XOXOXOXOXOXOXOXOXOXOXOXOXOXOXOXOXOX3 X F.@XOXOXOXG.X 2 L.3 X $.@X'.# @ G...X | OX.X3 X o. .. 1 .XOXOXOXOXOXOXOXOXOXOXOXOXOXOXOXOX.X'.K.#. ., 6 ",
"8X#.K.'.OXOXOXOX@XOXOXOXOXOXOXOXOXOXOXOX@X} O G.OXOXOXOX.X2 o + O 3 '.OX.X .O + X , L.@XOX$.O X ; @ 2 OXOXOXOXOX@XOXOXOXOX@XOXOXOXOXOXOX.X'.G.#. ., 6 ",
"8X#.L.'.OXOXOXOXOXOXOXOXOXOXOXOXOXOXOXOXOX`.$. XOXOXOXOX@X'.F.#.F..XOXOXOXOXP.O.$.`.OXOX@XOXP.#.P.L.P.OXOXOXOXOXOXOXOXOXOXOXOXOXOXOXOXOX.X`.K.#. ., 6 ",
"8X#.K.'..XOXOXOXOXOXOXOXOXOXOXOXOXOXOXOXOXOXOXOXOXOXOXOXOXOXOXOXOXOX@XOX@XOXOXOXOXOXOXOXOXOXOXOXOXOXOXOXOXOXOXOXOXOXOXOXOXOXOXOXOXOXOXOX.X'.K.#. ., 6 ",
"8X#.L.'.OXOXOXOXOXOXOXOXOXOXOXOXOXOXOXOXOXOXOXOXOXOXOX@XOXOXOXOXOXOXOXOXOXOXOXOXOXOXOXOXOXOXOXOXOXOXOXOXOXOXOXOXOXOXOXOXOXOXOXOXOXOXOXOX.X`.K.#. ., 6 ",
"8X#.K.'.OXOXOXOXOXOXOXOX@XOXOXOXOXOXOXOXOXOXOXOXOXOXOXOXOXOXOXOXOXOX@XOXOXOXOXOXOXOXOXOXOXOXOXOXOXOXOXOXOXOXOXOXOXOXOXOX@XOXOXOXOXOXOXOX.X'.G.#. ., 6 ",
"8X#.L.'..XOXOXOXOXOXOXOXOXOXOXOXOXOXOXOXOXOXOXOXOXOXOXOX@XOXOXOXOXOXOXOXOXOXOXOXOXOXOXOXOX@XOXOXOX@XOXOXOXOXOXOXOXOXOXOXOXOXOXOXOXOXOXOX.X`.K.#. ., 6 ",
"8X#.K..XOXOXOXOXOXOXOXOXOXOXOXOXOXOXOXOXOXG.} 4 } #.'.@XOXOXOXOXOXOXOXOXOXOXOXOXOXOXOXOXOXOXOXOXOXOXOXOXOXOXOXOXOXOXOXOXOXOXOXOXOXOXOXOX.X'.G.#. ., 6 ",
"8X#.K.'.OXOXOXOXOXOXOXOXOXOXOXOXOXOXOXOXOX3   O O . 2 .XOXOXOXOXOXOXOXOXOXOXOXOXOXOXOXOXOXOXOXOXOXOXOXOXOXOXOXOXOXOXOXOXOXOXOXOXOXOXOXOX.X'.K.#. ., 6 ",
"8X#.K.'..XOXOXOXOXOXOXOXOXOXOXOXOXOXOXOXoXR . o.P.@ X F.OXOXXXF. . .F..XOX@XOXF. . .K.@XOX@X`.o.| #.'.@XOXOXP.#.F.O.'.OXOXOXOXOXOXOXOXOX.X'.G.#. ., 6 ",
"8X#.L.'.OXOXOXOXOXOXOXOXOXOX@XOXOXOXOXOXoX4 . $..X: X F.OXOX..O O o o o.OXOXG.O O # } XXOX'., X @ O } .XOXOX} o O O #.OXOXOXOX@XOXOXOXOX.X`.K.#. ., 6 ",
"8X#.K.'..XOXOXOXOX@XOXOXOXOXOXOXOXOXOX@XOXk   1 4 X ; '.OX`.O @ L.$.o ; '.OX..  4 I.'.OXOXO.X 4 G.; o G.OXOX|   : #.`.OXOXOXOXOXOXOXOXOX.X'.K.#.| , 6 ",
"8X#.K..XOXOXOXOXOXOXOXOXOXOXOXOXOXOXOXOX@XR   o + : $.OXOXG.X 3 @X'.; + L.OXP.# o : $.OXOX}   + # o O G.OX@X .. #.@XOXOXOXOXOXOXOXOXOXOX.X`.K.#. ., 6 ",
"8X#.K..X.XOXOXOXOXOXOXOXOXOXOXOX@XOXOXOXOX| . ..L..XOXOX@XG.X 1 @X`.@ # `.OX@XK.} o # `.OX} . 4 O.O.$. X@XOX .X $.OXOXOX@XOX@XOXOXOXOXOX.X`.K.#.| , 6 ",
"8X#.L.'.OXOXOXOXOXOXOXOXOX@XOXOXOXOXOXOXOX|   #.@XOXOXOXOX'.# O | 4 . 3 .XOXF.| o.O # `.OX#.X > o.o....XOXOX .X #.OXOXOXOXOXOXOXOXOXOXOX.X'.K.#. ., 6 ",
"8X%.K.'.OXOXOXOXOXOXOXOXOXOXOXOXOXOXOXOXOX| o #.OXOXOXOXOXOX .+ O o ; F.OXOX..O + o 3 .XOX`.1 o + + , '.OXOX..O $.@XOXOXOXOXOXOXOXOXOXOX.X'.G.#. ., 6 ",
"8X#.L.'..XOXOXOXOXOXOXOXOXOXOXOX@XOXOXOXOXF.| L.OXOXOXOXOX+Xo.o.G.F...$.OXOX XP.F...o.'.@XL...$.G.G.]..XOX@XF.| K.OXOXOXOXOXOXOXOXOXOXOX.X`.K.#. ., 6 ",
"8X#.L.'.OXOXOXOX@X@X@X@X@X@X@X@X@X@X@X@X@XP.O.P.[. X@X@XXXXX%.J.@XXXH.$..X@XXX].H.%.J.@X@XP.O.G.P.P.L.+X@X@XK.%.].@X@X@X@X@X@X@X@X@X@X@X.X`.K.#. ., 6 ",
"8X#.K.'.OX.X+X+X+X+X&X+X*X+X+X+X+X+X+X&X+XI.H.H.H.H.I.+X+X[.H.P.+X[.J.J.$X&X$XH.J.I.[.+X+X].H.R.I.J.H.].&X+XI.H.I.+X+X+X+X+X+X&X+X+X&X+X+X'.K.#. ., 6 ",
"8X#.L.'..X[.#X#X$X#X#X#X#X#X#X#X#X#X#X#X#XR.U.E.E.Y.Y.#X#X#XR.Y.E.E.Y.R.#X#XE.Y.R.].].#X#XE.Y.R.E.R.R.#X#X#XE.U.R.E.#X#X#X#X#X#X#X#X#X#X#X].G.#.| , 5 ",
"8X#.K.`.Y.U.U.U.U.U.U.U.U.U.U.U.U.U.U.U.U.U.U.U.U.U.=.U.U.U.U.=.=.=.=.U.U.U.U.=.g.F.=.U.U.U.U.=.=.=.U.U.U.U.U.=.=.=.U.U.U.U.U.U.U.U.U.U.U.U.H.#.| , 5 ",
"8X#.G.@.+.+.+.+.+.+.+.+.+.+.+.+.+.+.+.+.+.+.+.+.X.+.+.+.+.+.+.+.+.+.+.+.+.+.+.+.+.+.+.+.+.+.+.+.+.+.+.+.+.+.+.+.+.+.+.+.+.+.+.+.+.+.+.+.+.+.+.X.| , 5 ",
"8X%.-.*.*.&.*.*.*.*.*.*.*.*.*.*.*.*.*.*.*.*.*.*.*.*.*.*.*.*.*.*.*.*.*.*.*.*.*.*.*.*.*.*.*.*.*.*.*.*.*.*.*.*.*.*.*.*.*.*.*.*.*.*.*.*.*.*.*.*.*.*.&.2 5 ",
"yXT.=X=X=X=X=X=X=X=X=X=X=X=X=X=X=X=X=X=X=X=X=X=X=X=X=X=X=X=X=X=X=X=X=X=X=X=X=X=X=X=X=X=X=X=X=X=X=X=X=X=X=X=X=X=X=X=X=X=X=X=X=X=X=X=X=X=X=X=X=X=X=X&.9X"
};
