/* XPM */
static char *prendre_m[] = {
/* columns rows colors chars-per-pixel */
"75 75 253 2",
"   c #000400",
".  c #000C00",
"X  c #011301",
"o  c #011A01",
"O  c #1C1C1C",
"+  c #012301",
"@  c #012B01",
"#  c #013401",
"$  c #003E00",
"%  c #232323",
"&  c #282728",
"*  c #2A292A",
"=  c #333333",
"-  c #3C3C3C",
";  c #024302",
":  c #024C02",
">  c #025302",
",  c #035C03",
"<  c #006500",
"1  c #036C03",
"2  c #0A6B0A",
"3  c #047304",
"4  c #027E02",
"5  c #0F7D0F",
"6  c #126B12",
"7  c #117511",
"8  c #325032",
"9  c #434443",
"0  c #484748",
"q  c #4C4C4C",
"w  c #415141",
"e  c #545454",
"r  c #5C5B5C",
"t  c #4D654D",
"y  c #4D6C4D",
"u  c #5E735E",
"i  c #656565",
"p  c #636E63",
"a  c #6B6B6B",
"s  c #737373",
"d  c #737C73",
"f  c #7B7B7B",
"g  c #048304",
"h  c #048D04",
"j  c #0A840A",
"k  c #0D8C0D",
"l  c #019401",
"z  c #049B04",
"x  c #0C930C",
"c  c #0B9A0B",
"v  c #128B12",
"b  c #129412",
"n  c #139A13",
"m  c #1E9F1E",
"M  c #02A502",
"N  c #04AD04",
"B  c #0BA30B",
"V  c #0CAD0C",
"C  c #04B404",
"Z  c #04BC04",
"A  c #0CB40C",
"S  c #0ABC0A",
"D  c #11A611",
"F  c #12AD12",
"G  c #18A618",
"H  c #1BAB1B",
"J  c #11B511",
"K  c #14BB14",
"L  c #1BB41B",
"P  c #1ABB1A",
"I  c #229622",
"U  c #259C25",
"Y  c #2E9A2E",
"T  c #319F31",
"R  c #3C9F3C",
"E  c #25A625",
"W  c #22AC22",
"Q  c #23BB23",
"!  c #2AB42A",
"~  c #2CBC2C",
"^  c #33AF33",
"/  c #3AA43A",
"(  c #3AAB3A",
")  c #34B234",
"_  c #34BC34",
"`  c #3CB23C",
"'  c #3ABC3A",
"]  c #05C005",
"[  c #0BC10B",
"{  c #09C909",
"}  c #14C214",
"|  c #11CE11",
" . c #1AC41A",
".. c #16D416",
"X. c #16DA16",
"o. c #18DC18",
"O. c #23C623",
"+. c #25C825",
"@. c #2BC42B",
"#. c #2DC92D",
"$. c #31C631",
"%. c #33CA33",
"&. c #39C539",
"*. c #3BCC3B",
"=. c #24E324",
"-. c #2DEE2D",
";. c #2EF12E",
":. c #33F533",
">. c #4F9B4F",
",. c #539E53",
"<. c #43A243",
"1. c #44AE44",
"2. c #4AA44A",
"3. c #4DAB4D",
"4. c #45B445",
"5. c #42BD42",
"6. c #4BB44B",
"7. c #4BBD4B",
"8. c #52A552",
"9. c #55AC55",
"0. c #5BA45B",
"q. c #5BAD5B",
"w. c #53B353",
"e. c #5CB55C",
"r. c #5BBB5B",
"t. c #639D63",
"y. c #6C9B6C",
"u. c #7D8F7D",
"i. c #64A664",
"p. c #63AB63",
"a. c #6AA26A",
"s. c #6DAB6D",
"d. c #65B365",
"f. c #67BA67",
"g. c #6CB36C",
"h. c #74A574",
"j. c #72AA72",
"k. c #7FA67F",
"l. c #7AAC7A",
"z. c #76B276",
"x. c #71B871",
"c. c #7AB67A",
"v. c #78BF78",
"b. c #42CD42",
"n. c #4DC04D",
"m. c #49CE49",
"M. c #47D047",
"N. c #4BD04B",
"B. c #54C254",
"V. c #55CA55",
"C. c #5DC25D",
"Z. c #5DCB5D",
"A. c #53D253",
"S. c #5BD45B",
"D. c #62C462",
"F. c #61C861",
"G. c #68C268",
"H. c #6CCA6C",
"J. c #60D660",
"K. c #68D668",
"L. c #73C673",
"P. c #72CA72",
"I. c #7DC67D",
"U. c #7BCC7B",
"Y. c #73D373",
"T. c #71DB71",
"R. c #7CD47C",
"E. c #7CDC7C",
"W. c #838383",
"Q. c #888788",
"!. c #8C8C8C",
"~. c #949494",
"^. c #9C9C9C",
"/. c #82A982",
"(. c #8AAD8A",
"). c #83B383",
"_. c #87BA87",
"`. c #8DB48D",
"'. c #99A999",
"]. c #92B692",
"[. c #91BA91",
"{. c #98B298",
"}. c #9BBD9B",
"|. c #A4A4A4",
" X c #A3A9A3",
".X c #ABABAB",
"XX c #A3B9A3",
"oX c #A8B1A8",
"OX c #B4B4B4",
"+X c #B3BBB3",
"@X c #BCBCBC",
"#X c #83CC83",
"$X c #8EC58E",
"%X c #8ACC8A",
"&X c #87D187",
"*X c #8ED28E",
"=X c #96C096",
"-X c #92CB92",
";X c #9CC39C",
":X c #9BCE9B",
">X c #93D393",
",X c #94DC94",
"<X c #9CD29C",
"1X c #9CDA9C",
"2X c #8BE08B",
"3X c #90E390",
"4X c #9EE79E",
"5X c #A2C3A2",
"6X c #A3CCA3",
"7X c #ABC2AB",
"8X c #ACCBAC",
"9X c #A2D4A2",
"0X c #A1DEA1",
"qX c #AAD3AA",
"wX c #A9DCA9",
"eX c #B3C3B3",
"rX c #B6CCB6",
"tX c #BCC4BC",
"yX c #BBCDBB",
"uX c #B4D1B4",
"iX c #B3DBB3",
"pX c #BBD2BB",
"aX c #B9D9B9",
"sX c #A3E7A3",
"dX c #B3EBB3",
"fX c #C3C4C3",
"gX c #C4CBC4",
"hX c #CCCCCC",
"jX c #C5D2C5",
"kX c #C4DBC4",
"lX c #CBD3CB",
"zX c #C8D9C8",
"xX c #D3D3D3",
"cX c #D2DAD2",
"vX c #DCDCDC",
"bX c #C5E7C5",
"nX c #CAEACA",
"mX c #C9F1C9",
"MX c #DFEADF",
"NX c #D7F4D7",
"BX c #DCF4DC",
"VX c #E4E4E4",
"CX c #E4EBE4",
"ZX c #EBEBEB",
"AX c #E5F2E5",
"SX c #E6F8E6",
"DX c #EFF3EF",
"FX c #EDFAED",
"GX c #F0EFF0",
"HX c #F4F4F4",
"JX c #F3FBF3",
"KX c #F9F7F9",
"LX c #FEFEFE",
/* pixels */
"$X7.n.n.n.n.n.7.7.n.n.n.n.n.n.n.n.n.n.n.n.n.n.n.n.n.n.n.n.n.n.n.n.n.n.n.n.n.n.n.n.n.n.n.n.n.n.n.n.n.n.n.n.n.n.n.n.n.n.n.n.n.n.n.n.n.n.7.7.n.n.n.n.6.h.",
">.l C Z Z Z Z Z C Z Z Z Z C C Z Z Z Z C C Z Z Z Z C C Z Z Z Z C C Z Z Z Z C C Z Z ] Z C C Z Z Z Z C C Z Z Z Z C C Z Z Z Z C C Z Z Z Z Z C Z C Z C 1 y ",
">.g N ] ] ] ] { ] ] { { { { ] ] ] ] { { ] ] { { { { ] ] { { { { ] ] { { { { ] ] ] ] { { ] ] { { { { ] ] { { { { ] ] { { { { ] ] ] ] ] { ] ] { ] h ; t ",
">.g l ] o.o.o.o.o.o.X.X.X.o.o.o.o.o.o.o.o.o.X.X.X.o.o.o.o.X.X.o.o.o.X.X.X.o.o.o.o.o.o.o.o.o.X.X.X.o.o.o.o.X.X.o.o.o.X.X.X.o.o.o.o.o.o.o.o.o.X.N < $ t ",
">.4 l N ..;.:.:.:.:.:.:.;.:.:.;.:.:.:.:.:.:.:.:.;.;.:.:.:.:.:.:.:.:.:.:.;.:.:.;.:.:.;.:.:.:.;.;.;.;.:.:.:.:.:.:.:.:.:.:.;.:.:.;.:.:.:.:.;.-.K g < $ t ",
",.4 l M C o.:.:.:.:.:.:.:.:.:.:.:.:.:.:.:.:.:.:.:.:.:.:.:.:.:.:.:.:.:.:.:.:.:.:.:.:.:.:.:.:.:.:.:.:.:.:.:.:.:.:.:.:.:.:.:.:.:.:.:.:.:.:.:. .l 4 < $ t ",
">.4 l M C [ ..=.=.=.=.=.=.=.=.=.=.=.=.=.=.=.=.=.=.=.=.=.=.=.=.=.=.=.=.=.=.=.=.=.=.=.=.=.=.=.=.=.=.=.=.=.=.=.=.=.=.=.=.=.=.=.=.=.=.=.=.=.| M h 4 < $ t ",
">.4 l N C Z ] { | | | | | | | | | | | | | | | | | | | | | | | | | | | | | | | | | | | | | ..| ..| | | | | | | | | | | | | | | | | | | [ N M l 4 < $ t ",
">.g l M C Z Z ] { ] ] ] { ] ] ] ] [ ] ] ] [ ] ] ] ] ] [ ] ] [ ] { ] { ] ] ] ] ] ] ] ] [ ] ] ] [ [ ] ] [ ] ] ] [ { ] ] ] { ] ] ] ] ] [ C N M l 4 < $ t ",
">.g l M C Z Z ] ] ] ] ] Z ] ] ] ] ] ] ] ] ] ] ] ] ] ] Z ] ] ] ] ] ] ] ] ] ] ] ] ] ] ] ] ] Z ] ] ] ] ] ] ] ] ] ] ] ] ] ] Z ] ] ] ] ] ] S N M h 4 < $ t ",
">.4 l N C Z ] ] ] ] ] ] ] ] ] ] ] ] ] ] ] ] ] ] ] ] ] ] ] ] Z ] ] ] ] ] ] ] ] ] Z ] ] ] ] ] ] ] ] ] ] ] ] ] ] ] ] ] ] ] Z ] ] ] ] Z ] C N M l 4 < $ t ",
">.g l N C Z Z ] ] ] ] ] Z ] ] ] ] Z ] ] ] ] Z ] ] ] ] ] ] ] ] ] ] ] Z ] ] ] ] ] ] ] ] ] ] ] ] ] ] ] ] Z ] ] ] ] ] ] ] ] ] ] ] ] ] ] ] Z N M l 4 < $ t ",
">.4 l N C Z ] Z ] ] ] [ ] ] ] ] ] Z [ ] ] ] ] ] ] ] ] Z ] ] ] ] ] ] ] ] ] ] ] ] ] ] ] ] ] ] ] Z ] ] ] ] ] ] ] Z ] ] ] ] ] ] ] ] ] ] Z C N M l 4 < $ t ",
">.4 l M C Z ] ] ] ] ] ] ] ] ] ] ] ] ] ] ] ] Z ] ] ] ] ] ] ] ] ] ] ] ] ] ] ] ] ] ] ] ] ] ] ] ] ] Z ] ] ] ] ] ] ] Z ] ] ] ] ] ] ] ] ] ] S N M h 4 < ; t ",
">.4 l N C Z Z ] Z ] ] Z ] ] ] Z ] ] ] Z ] ] ] ] ] Z ] ] ] ] ] ] Z ] ] ] ] ] ] ] ] ] ] ] ] ] ] ] ] ] ] ] ] ] ] ] ] ] Z [ ] ] Z ] ] ] Z Z N M l 4 < $ t ",
">.g l M C Z Z ] ] ] ] ] ] ] ] ] ] ] ] ] ] ] ] ] ] ] ] ] ] [ %.N.N.A.N.A.N.A.S.S.S.b. .] ] Z ] ] ] ] Z ] Z ] ] ] ] ] ] ] ] ] ] ] ] ] Z C N M l 4 < $ t ",
">.4 l N C Z ] ] ] ] ] ] ] ] ] ] ] Z ] ] ] ] Z ] ] ] [ *.J.sXNXFXFXJXFXJXJXJXJXJXJXSXmX3XS.%. .] ] ] ] ] ] ] ] ] ] ] Z ] ] ] ] ] ] ] ] Z N M h 4 < $ t ",
",.4 l M C Z ] Z ] ] ] Z ] ] ] ] ] ] ] ] ] ] ]  .*.K.sXNXJXLXLXLXLXLXLXLXLXLXLXLXLXLXLXLXJXNXdXE.M.O.] Z ] ] ] ] ] Z ] ] ] ] ] ] ] ] Z S N M l 4 < $ t ",
">.4 l M C Z Z ] ] ] ] ] ] ] Z ] ] ] ] ] ] [ S.dXBXKXLXLXLXLXLXLXLXLXLXLXLXLXLXLXLXLXLXLXLXLXLXLXFXmX2X%.] Z ] ] ] ] ] ] ] ] Z ] ] Z ] C N M h 4 < $ t ",
">.4 l N C Z Z ] ] Z ] ] ] ] [ ] ] ] ] Z } T.SXLXLXLXLXLXLXLXLXLXLXLXLXLXLXLXLXLXLXLXLXLXLXLXLXLXLXLXLXbXS.} ] [  .] ] ] ] ] ] ] ] ] ] Z N M l 4 < $ t ",
">.g l M C Z ] ] Z ] ] ] ] ] ] ] ] ] ] } E.SXLXKXLXLXLXLXLXLXLXLXLXLXLXLXLXLXLXLXLXLXLXLXLXLXLXLXLXLXLXLXAX,X%. .[ ] ] ] ] ] ] ] ] Z ] C N M l 4 < $ t ",
">.g l N C Z Z ] ] ] ] ] ] ] ] ] ] ]  .3XMXHXKXKXKXKXLXLXLXLXLXLXLXLXLXLXLXLXLXLXLXLXLXLXLXLXLXLXLXLXLXLXLXKXbXZ.} ] ] Z ] Z ] ] ] ] ] S N M h 4 < ; t ",
">.4 l M C ] ] ] ] ] [ Z ] ] ] ] ] +.4XgXs @XDXZXZXKXKXLXLXLXLXLXLXLXLXLXLXLXLXLXLXLXLXLXLXLXLXLXLXLXLXLXLXZX@XyXb.] ] ] ] [ ] ] ] ] Z Z N M l 4 < $ t ",
",.4 l N C Z Z Z ] ] ] ] ] ] ] ] %.dXhXe - ^.xXlXcXHXLXLXLXLXLXLXLXLXLXLXLXLXLXLXLXLXLXLXLXLXLXLXLXLXLXKXZXvX~..X>X .] ] ] Z ] ] ] ] Z C N M h 4 < $ t ",
">.4 l M C Z ] Z ] ] ] ] ] ] ] [ 4XxXe % 0 @XxXhXxXZXLXKXZXKXLXLXLXLXLXLXLXLXLXLXLXLXLXLXLXLXLXLXLXKXHXVXfX.X^.~.tXV.] ] ] Z ] ] ] ] Z Z N M l 4 < $ t ",
">.4 l N C Z ] ] ] ] ] ] ] ] Z #.uXa = e ~.VXVXvXxXVXLXHXZXKXLXLXLXLXHXgXxXvXVXHXLXLXKXZXZXHXLXHXvXxXvXhX^.s Q.~..X<XO.] ] ] ] ] ] ] ] S N M l 4 < $ t ",
">.4 l M C Z ] Z ] ] ] ] ] ] ] 5.d 0 q r .XZXvXvXxXxXHXGXHXLXLXLXLXLXKXhXOX@XhXvXHXKXHXHXKXLXKXtXW.a f W.f W.!.f !.@XF.S ] Z ] ] ] ] ] C N z l 4 < $ t ",
">.4 l N C Z Z ] ] ] ] Z ] ] ] ( - % % - f OXOXxXxXxXVXZXHXLXLXLXKXHXKXLXZXZXHXHXHXHXKXKXLXLXvX^.s r q r a W.|..X^.^.9X+.] ] ] ] ] ] Z Z N M l 4 < $ t ",
">.g l N C Z ] ] ] ] Z ] ] ] ] ( 8 & % = W.^.Q.OXxXhXvXZXKXLXKXHXZXVXGXHXGXVXvXZXKXHXHXLXLXZXOX!.s e 9 r Q.^.OXvX|.~.tXH.[ ] ] ] ] ] ] C N M l 4 < $ t ",
",.4 l M C Z Z ] ] ] ] ] ] ] ] W 8 % O q !.^.f !.@XxXhXvXLXKXHXZXvXhXVXGXvXhXOXOXlXZXLXLXHXfX^.W.s q - i ~.OXvXHX!.W.@X7X~ ] ] ] Z ] ] S N M h 4 < ; t ",
">.4 l M C Z Z Z Z ] ] ] ] ] ] Z I w * r ~.^.!.|.fXvX^.~.ZXHXZXvXhXfXxXVXhXOX|.~.|.vXLXKXxX.XQ.a i e 0 a ^.fXZXVX~.i |.+X) ] ] ] ] ] Z Z N M l 4 < $ t ",
">.4 l N C Z ] ] ] ] ] ] ] ] Z ] A w.p r .XfXhXvXZXhXr a @XZXZXxXfXOX@XhX@X.X~.!.OXZXKXHXfX~.a 0 0 r r f .XfXhXfX|.a W.(.P ] ] ] ] ] Z C N M l 4 < $ t ",
">.g l M C Z Z Z ] ] ] ] ] ] ] [ ] } <.u Q.fXZXZXZX!.q a !..XhXhXOX|.|.fX.X^.W.Q.hXHXHXKXVX^.e = - a f |.hXvXvXxXOXQ.a 0.S ] ] ] ] ] Z C N M l 4 < $ t ",
">.g l M C Z ] ] ] ] Z ] ] ] ] Z ] ] [ ' y.s f tXOXq r f W.a ~.@X.X^.!.@X^.!.s ^.VXJXKXLXKXvX~.- 0 ~.@XhXZXHXKXvXfX'.t.P ] ] ] ] ] ] ] S N M h 4 < $ t ",
">.4 l N C Z ] ] ] ] ] ] ] Z ] ] ] ] ] ] O.L.u.a !.W.W.~.W.9 9 f ^.!.f .X~.f s fXHXKXKXKXDXvXxX^.^.xXvXhX@XhXZXhX'.6.K ] Z ] ] ] ] ] Z Z N M l 4 < $ t ",
",.4 l N C Z Z ] ] ] ] ] ] ] ] ] ] ] ] ] Z [ S.6XhXxXhXfXOXf q 9 s W.Q.OX~.i ~.ZXKXKXKXHXHXCXvXxXhXvXxX@X.X^. Xl.) S Z [ ] ] ] ] ] ] Z C N M l 4 < $ t ",
">.4 l N C Z ] ] ] ] ] ] Z ] ] ] Z ] ] ] ] ] ] %.4XVXVXVXvXvXhX.X|..XfXZXfX.XVXHXHXKXHXHXHXZXGXZXHXZXVXfXoX/.3.P Z ] ] ] ] ] ] ] ] ] ] Z N M h 4 < $ t ",
">.4 l M C Z Z ] Z ] ] ] ] ] ] ] ] ] ] ] ] ] ] Z } K.nXZXZXZXHXHXHXVXZXKXHXZXHXHXVXvXhXfXVXHXZXZXvXhX'.a.( P Z ] ] ] ] ] ] ] ] ] ] ] Z S N M l 4 < $ t ",
">.4 l N C Z ] Z ] ] ] ] ] ] ] ] ] ] ] ] ] ] ] ] ] ] *.sXCXZXZXHXHXKXLXLXLXHXKXKXKXHXZXCXHXHXvXtX'.,.^ A Z ] ] ] ] ] Z ] ] ] Z ] ] Z ] C N M l 4 < $ t ",
">.g l M C Z Z ] ] [ Z ] ] ] ] Z ] ] ] Z ] Z ] ] ] Z Z  .Y.nXCXGXHXLXLXLXLXLXKXLXLXLXLXLXHXxX}.e.Q S Z Z ] ] ] ] ] ] ] ] ] ] ] ] ] ] ] C N M l 4 < ; t ",
">.4 l N C Z ] ] ] ] ] ] ] ] ] ] ] ] ] ] ] ] ] ] ] Z ] ] [ #.E.nXKXLXKXLXLXLXLXKXKXKXLXAX:X7.P [ ] ] ] ] ] ] ] ] ] ] Z ] ] ] ] ] ] ] ] Z N M h 4 < $ t ",
",.4 l M C Z ] Z ] ] Z [ ] ] ] ] ] ] Z ] ] ] Z ] ] ] ] ] Z ] [ #.E.mXHXHXZXVXcXjXuX<XR.A. .Z ] ] ] ] ] ] ] Z ] ] ] ] ] ] ] ] ] ] ] ] Z S N M l 4 < $ t ",
">.4 l M C Z Z ] ] ] ] ] ] ] ] ] Z ] ] ] ] ] ] ] ] ] ] Z ] ] ] Z [ +.E.wX>Xf.4.! L S Z ] ] ] ] ] ] Z Z ] ] ] ] ] ] ] ] ] ] ] Z ] ] Z ] C N M h 4 < ; t ",
">.4 l N C Z Z ] ] ] Z ] ] Z ] ] [ ] ] ] ] ] ] ] ] ] ] ] ] ] ] ] ] Z [ } [ ] Z ] ] ] ] ] ] ] ] Z ] [ ] ] ] ] ] ] Z [ ] ] ] ] ] ] ] ] ] Z N M l 4 < $ t ",
">.g l M C Z ] ] ] ] ] ] ] ] ] ] ] ] ] Z ] ] ] ] ] ] ] ] ] ] ] ] ] ] ] ] P q.H ] ] K ( L Z Z ] ] ] ] ] ] ] ] ] ] ] ] ] ] ] ] ] ] ] ] ] C N M l 4 < $ t ",
">.g l M C Z ] ] ] ] ] ] Z ] ] ] ] ] ] Z Z ] ] ] ] Z ] ] ] ] ] ] ] ] ] Z ' tX( Z ] 7.gX6.Z ] ] Z ] ] ] ] ] ] Z ] ] ] ] ] ] Z ] ] Z { ] Z N M h 4 < $ t ",
">.4 l B N A A Z Z J A S ] ] ] ] Z J A S ] ] ] Z S S S A S Z ] ] ] Z A A ` gX( Z ] P 7.P Z ] ] S J J S Z ] ] ] A Z A J A ] ] ] ] Z A J N N M l 4 < $ t ",
">.4 Y i.>.).k.R 9.`.a.E ] ] Z J e.].`.2.S ] Z } d.8.s.`.t.H Z ] Z ` ).(.l.gX1.Z ] P j.W ] ] K d.].`.a.H ] ] K j.2.x.(.,.J ] ] Z ) ).].s.U z l 4 < $ t ",
">.4 2.tXXX%XzX+X5X*XlXj.Z ] S f.eXr.R.+X( Z ] } 6X+X-XwXlX2.Z ] P ;XpX&XrXgX1.Z Z ' gX( ] Z ~ -XD.P.lXp.S Z P yX+X$XiXfX( Z ] Q XX$Xr.qX/.c h 4 < $ t ",
">.4 <.hXe.C &XxX) J qX}.S ] K 8X{./ 9.gXg.Z Z } 9X}.L ~ kXg.S ] 7.hXr.C n.hX6.] ] ~ gX` Z ] Z A W ` pX).S ] K pX[.A ' lXe.Z Z B.yX0./ =X+XU l 4 < $ t ",
">.4 R gX4.Z H.fXW S -X5XS ] P jXeX-X-X9XC.Z Z } 0X`.A L pXz.Z Z B.gX` Z ' gX1.Z ] ~ gX4.Z ] L ).[.$XlX_.C ] K yXz.Z ~ pXd.Z Z G.gX}.$X:X-XU l 4 < $ t ",
">.4 R yX4.Z G.tXW S -XXXS Z K iX`.L P P K Z ] S 9X`.A A uXx.S ] n.lX0.A d.hX4.] Z ~ jX4.Z ] D.fX` Q uX_.A ] K 8Xz.Z @.pXd.Z ] Z.hX3.J J H M l 4 < $ t ",
">.4 R gX6.Z G.gXW S %X7XS Z Z Y.jXl.p.l.) Z ] S <X[.A J aXv.Z ]  .aXeX`.rXxXw.Z Z ~ jX7.Z ] F.lXh.z.jX_.A ] K 8Xc.C Q aXg.S Z O.aXXXi.j.s.z l 4 < ; t ",
">.4 T <X' Z B.1X_ S P.&X[ ] S b.1X>X%XL.~ ] ] S R.U.K K >XH.S ] [ Y.wX%XU.1Xn.] ] ~ 0Xn.Z ] *.1X-XL.>XU.S ] K *XG.S O.>XD.Z Z  .Y.>X-X#Xw.B h 4 < $ t ",
">.5 m C.~ Z %.A.O.[ b.A.[ ] K N.N.P K K S [ ] [ m.m.S } N.M.] ]  .S.&.S @.S.%.] Z O.S.#.] ] +.S.@. .A.m.} ] } S.*.[  .A.*.S ] @.S.$.K J V M l 4 < $ t ",
">.4 n 5.P Z @.b. .[ #.M.S ] [ *.M.*.*.*.+.] ] [ *.*.[ } *.*.] ]  .b.O.]  .b.+.Z ]  .m.+.S ] } %.*.*.m.%.[ Z [ b.%.S } *.#.] ] O.N.b.%.&.' D l 4 < $ t ",
",.4 c ) P S O.#. .S O.+.] ] [ +.#.} } @. .[ ] [ +.+.[ [ +.O.] ] [ %. .[  .+. .] ] } #. .] ] ] S [  .#.+.[ ] [ +.@.[ } +. .] ] } #. .} O.! B h 4 < $ t ",
">.g c J P } }  . . . . .] ] Z } } } }  .[ ] ] ]  . . . . .} ] ] [ }  .}  . .} ] ] [  .} ] ] [ } } S G D ] ] [  . . . . .} ] ] [ }  .[ K J B l 4 < $ t ",
">.4 l N C S [ ] ] ] [ ] [ l < , < j C [ [ ] ] ] [ ] [ [ [ ] Z ] ] ] [ [ [ ] ] ] Z ] [ ] ] ] ] Z [ C @ 2 Z ] ] [ ] ] [ ] ] ] Z ] Z [ Z S C M h 4 < ; t ",
",.4 l M C Z Z ] ] ] ] ] Z ,   o o   > A ] ] ] ] ] { ] ] ] ] { ] ] ] ] ] ] ] ] { { ] ] ] ] Z ] { ] N . > Z ] ] ] { ] ] ] ] Z ] { { ] Z Z N M l 4 < $ t ",
">.4 l M C Z ] ] ] ] Z ] Z , . 4 l @ X l ] Z l l g g S Z [ M 3 3 h Z ] ] Z l h l 1 4 C Z ] Z C g 1 4 . > Z ] C g c 3 l ] ] Z l 3 3 z ] C N M l 4 < $ t ",
">.4 l M C Z Z ] ] ] ] ] Z , . h A $ X l { V # o X $ N ] l + + + X g ] ] S ; X + X . < S ] S < . X o   : S ] M X X . > Z ] g o + o + l S N z l 4 < $ t ",
">.g l N C Z Z ] ] ] ] ] Z >   : , . @ N ] N # . < z Z Z : X g l o $ S Z S ; . , g X @ N ] M o @ x <   : S ] N X . 1 M Z C # + h g . > C N M l 4 < $ t ",
">.g l M C Z ] Z ] ] ] Z Z 2   o o ; l Z ] C # + N ] Z C @   + + . $ C Z Z : o z Z @ @ N { h . : Z N . : Z ] M o # S ] [ M o X @ @ . : C N M l 4 < $ t ",
">.4 l N C Z Z ] ] ] ] ] Z < . 3 M C ] ] ] C # @ C ] ] C # X 1 g g z Z ] S : o z ] # + N ] l X ; S z . : S ] M o ; C [ ] M + + 3 k g M C N M h 4 < $ t ",
",.4 l M C Z Z ] ] ] ] ] Z 2 . h [ Z ] ] ] C # @ C ] ] Z , . , g 3 h [ ] Z : o z Z $ @ B ] N @ X , $   ; S Z N + $ C ] ] C $ X < g 1 l C C M l 4 < $ t ",
">.4 l M C Z ] ] ] ] ] ] Z < o h ] ] ] ] Z C ; $ C ] ] Z l @ o o o < Z ] Z , @ M Z ; $ N ] S < X X + + : S ] M # : C ] ] S g + X + + 4 Z N M l 4 < $ t ",
">.4 l N C Z Z Z S S Z S C h 2 M S Z S S S A 4 3 A Z S S h 3 h z M V Z [ C g 1 V S 4 3 A S N 5 3 z l 2 4 S Z V 3 g S S Z A g 4 l z c C A N M h 4 < $ t ",
">.4 l N C Z S A A A A A A x 5 x B V A A A A k j A A A A k 5 h x x B A A A x j B A k k V S B 5 l A A j k A A V j x A A A V j g x c x B A N M l 4 < ; t ",
">.g l M C A F F H J J F F c k k v k n F H F b k D F V H n v b c k b D F V n k D D x v D F D v b F D k b V D D k k G F F D b k n c k b H F B l 4 < $ t ",
">.4 l M D n n n n n n n n b v b b v v n n b v v b n n n v v b n v v n n n v v v b v v n n n v v b b v v n n n v v v n n n v v b n v v n n n x 4 < $ t ",
",.4 l k 5 j 5 j 5 5 j 5 5 5 5 5 j 5 5 5 5 j 5 5 7 5 5 5 5 5 5 5 5 5 5 5 5 5 5 5 5 5 5 5 j 5 5 5 7 5 7 5 5 j 5 5 5 5 5 5 5 j 5 5 5 7 5 j 5 5 j 3 < $ t ",
">.4 j 7 7 7 7 7 7 7 7 7 7 7 7 7 7 7 7 7 7 7 7 7 7 7 7 7 7 7 7 7 7 7 7 7 7 7 7 7 7 7 7 7 7 7 7 7 7 7 7 7 7 7 7 7 7 7 7 7 7 7 7 7 7 7 7 7 7 7 7 7 2 ; t ",
",.v I I I I I I I I I I I I I I I I I I I I I I I I I I I I I I I I I I I I I I I I I I I I I I I I I I I I I I I I I I I I I I I I I I I I I I I 6 y ",
"I.Z.F.G.F.F.F.D.F.F.F.F.F.F.F.F.F.F.F.F.F.F.F.F.D.F.F.F.F.F.F.F.F.F.F.F.F.F.F.F.F.F.F.F.F.F.F.F.F.F.D.F.F.F.F.F.F.F.F.F.F.F.F.F.F.F.D.F.F.F.F.F.F.C.`."
};
