/* XPM */
static char *prendre_l[] = {
/* columns rows colors chars-per-pixel */
"75 75 252 2",
"   c #010400",
".  c #0B0301",
"X  c #000B00",
"o  c #1A0A02",
"O  c #011401",
"+  c #011B01",
"@  c #2A0F01",
"#  c #351903",
"$  c #012301",
"%  c #012C01",
"&  c #013401",
"*  c #023C02",
"=  c #2F240E",
"-  c #3B3122",
";  c #4E0D03",
":  c #6F1204",
">  c #482703",
",  c #512F05",
"<  c #72330C",
"1  c #024302",
"2  c #024C02",
"3  c #005500",
"4  c #035B03",
"5  c #0D550D",
"6  c #036303",
"7  c #036C03",
"8  c #017501",
"9  c #047F04",
"0  c #0F740F",
"q  c #0F7E0F",
"w  c #117511",
"e  c #6D4905",
"r  c #765402",
"t  c #6B5F1E",
"y  c #7A670B",
"u  c #6A4E24",
"i  c #892E01",
"p  c #8E2C22",
"a  c #885902",
"s  c #915106",
"d  c #856B04",
"f  c #986803",
"g  c #9A7703",
"h  c #8E7411",
"j  c #A96903",
"k  c #AF6D0E",
"l  c #A87804",
"z  c #B77502",
"x  c #AA6924",
"c  c #C27C02",
"v  c #C87A02",
"b  c #D07C02",
"n  c #C46A1B",
"m  c #9C6E52",
"M  c #048304",
"N  c #018B01",
"B  c #0A840A",
"V  c #0D8D0D",
"C  c #029602",
"Z  c #029D02",
"A  c #0B970B",
"S  c #128D12",
"D  c #1E8C1E",
"F  c #129412",
"G  c #139B13",
"H  c #02A502",
"J  c #03AA03",
"K  c #0BA70B",
"L  c #1BAE04",
"P  c #04B404",
"I  c #04BD04",
"U  c #0BBE05",
"Y  c #0DB50D",
"T  c #08BC08",
"R  c #14BD04",
"E  c #11A411",
"W  c #12AD12",
"Q  c #27B904",
"!  c #229622",
"~  c #5BA31B",
"^  c #05C005",
"/  c #0CC105",
"(  c #07C308",
")  c #0AC20B",
"_  c #13C205",
"`  c #1CC305",
"'  c #0FCE10",
"]  c #17C416",
"[  c #11CE11",
"{  c #15D515",
"}  c #18DC18",
"|  c #23C504",
" . c #2BC504",
".. c #2BC804",
"X. c #32C404",
"o. c #39C604",
"O. c #33C904",
"+. c #3CCB04",
"@. c #22C41D",
"#. c #29C826",
"$. c #34D02E",
"%. c #3BC932",
"&. c #24E324",
"*. c #2CE72D",
"=. c #34E733",
"-. c #33F533",
";. c #34F835",
":. c #46C504",
">. c #42CC04",
",. c #4DCC03",
"<. c #52CC03",
"1. c #5BCF03",
"2. c #49D004",
"3. c #57D203",
"4. c #68CA0A",
"5. c #65D303",
"6. c #78D503",
"7. c #46CC3B",
"8. c #4FD23A",
"9. c #49E13D",
"0. c #4F9B4F",
"q. c #509E50",
"w. c #52B552",
"e. c #78BA42",
"r. c #4ECD41",
"t. c #4DC04D",
"y. c #5BC943",
"u. c #6DCD4F",
"i. c #77D849",
"p. c #61C861",
"a. c #7BC27B",
"s. c #998508",
"d. c #A98607",
"f. c #BA8A05",
"g. c #B99706",
"h. c #B38F16",
"j. c #9C8834",
"k. c #AF922F",
"l. c #B8A933",
"z. c #C78604",
"x. c #CC8B02",
"c. c #D58A03",
"v. c #C9960B",
"b. c #D79703",
"n. c #D28C19",
"m. c #CB9917",
"M. c #E08F00",
"N. c #E59804",
"B. c #CFAC0E",
"V. c #DAA604",
"C. c #D7A819",
"Z. c #E5AA05",
"A. c #E9B704",
"S. c #F2BA03",
"D. c #E8B516",
"F. c #F0B111",
"G. c #CE992F",
"H. c #D7A825",
"J. c #CFA636",
"K. c #DBB935",
"L. c #E8BA25",
"P. c #E5B732",
"I. c #84CE02",
"U. c #89D902",
"Y. c #98DD02",
"T. c #A5DB01",
"R. c #88E003",
"E. c #97E002",
"W. c #A5E402",
"Q. c #ABE402",
"!. c #B9EA01",
"~. c #DFC30A",
"^. c #F7C703",
"/. c #FAD805",
"(. c #EFC814",
"). c #C4E901",
"_. c #CCED01",
"`. c #D7ED01",
"'. c #CDF001",
"]. c #D5F101",
"[. c #DBF201",
"{. c #E4F400",
"}. c #E9F500",
"|. c #EBF800",
" X c #F7FA02",
".X c #FBEC13",
"XX c #D5CC34",
"oX c #F4CA27",
"OX c #F0D327",
"+X c #EAC939",
"@X c #F6C737",
"#X c #F3D436",
"$X c #F8EC30",
"%X c #AA9A45",
"&X c #93AA51",
"*X c #B3B250",
"=X c #B49D6B",
"-X c #B4B061",
";X c #CAB646",
":X c #CBB04E",
">X c #D9BB5E",
",X c #E1BA4A",
"<X c #C78F64",
"1X c #D1BB6B",
"2X c #91CC50",
"3X c #AFCE55",
"4X c #9BD066",
"5X c #B8CD67",
"6X c #93E270",
"7X c #CCCC50",
"8X c #E8C643",
"9X c #EBCD4F",
"0X c #FAD745",
"qX c #F8D959",
"wX c #D1E951",
"eX c #FAE449",
"rX c #FBE459",
"tX c #D5C772",
"yX c #DACA77",
"uX c #E8CA69",
"iX c #F7D768",
"pX c #ECCD75",
"aX c #F9DA78",
"sX c #FDE968",
"dX c #F9EF6E",
"fX c #F9E576",
"gX c #AB9A92",
"hX c #CAA992",
"jX c #8BC68B",
"kX c #D8CB8C",
"lX c #EECC81",
"zX c #E8D789",
"xX c #F8DD88",
"cX c #E6D799",
"vX c #F2DD99",
"bX c #FAE686",
"nX c #F7F088",
"mX c #F9E89B",
"MX c #FDF298",
"NX c #DBCCAF",
"BX c #E6DBAD",
"VX c #FAE8A7",
"CX c #FBF6A8",
"ZX c #F3E9B1",
"AX c #FBF8B4",
"SX c #DFCFC9",
"DX c #FDFAC8",
"FX c #F5E9D4",
"GX c #FCFAD6",
"HX c #FCF9E6",
"JX c #FDFBF3",
"KX c #FFFFFE",
/* pixels */
"jXw.t.t.t.t.t.t.t.t.t.t.t.t.t.t.t.t.t.w.t.t.t.t.t.w.t.t.t.t.t.w.t.t.t.t.t.t.t.t.t.t.t.w.t.t.t.t.t.t.t.t.t.t.t.w.t.t.t.t.t.w.t.t.t.t.t.w.t.t.t.t.t.t.w.",
"0.C P I I ^ I P P I I ^ I P P I I ^ I I I I I ^ I I I I ^ ^ I I I I I ^ I P P I I ^ I I I I I ^ I P P I ^ ^ I I I I I ^ I I I I I ^ I I I I I ^ I Z 2 ",
"0.9 J ^ ^ ( ^ ( ^ ^ ( ( ( ( ^ ^ ( ( ^ ^ ^ ^ ^ ( ( ^ ^ ^ ( ( ( ^ ^ ^ ( ( ( ( ^ ^ ( ( ^ ( ^ ^ ^ ( ( ( ^ ^ ( ( ( ( ^ ^ ^ ( ( ^ ^ ^ ( ( ^ ( ^ ^ ^ ( P 7 & ",
"0.M C I } } } { } } } } } } } } } } } } } } } } } } } } } } } } } } } } } } } } } } } { } } } } } } } } } } } } } } } } } } } } } } } { } } } ' N 3 & ",
"0.9 C J [ *.-.-.-.-.-.-.-.-.-.-.-.-.-.-.*.-.-.-.-.-.-.-.-.-.-.-.-.-.-.-.-.-.-.-.;.-.-.-.-.-.-.-.-.-.-.-.-.-.-.-.-.-.-.-.-.-.-.-.-.-.-.-.-.-.&.A 8 3 & ",
"0.9 C H P } -.-.-.;.;.;.-.-.-.-.;.;.-.-.;.;.;.;.-.-.;.;.-.-.;.;.-.;.;.;.-.-.-.-.;.;.;.;.-.-.-.-.-.-.;.-.-.-.;.;.-.;.;.;.-.-.-.-.;.;.-.-.;.*.Y N 8 3 & ",
"0.9 C H P ^ { &.&.&.&.&.&.&.&.&.&.&.&.&.&.&.&.&.&.&.&.&.&.&.&.&.&.&.&.&.=.=.9.9.9.$.9.=.=.*.&.&.&.&.&.&.&.&.&.&.&.&.&.&.&.&.&.&.&.&.&.&.} Y Z N 8 3 & ",
"0.M C H P I I ' ' ' ' ' ' ' ' ' [ [ [ [ [ [ [ [ ' ' ' ' ' ' ' ' [ $.i.4X7X7XJ.l.k.s.j.j.l.&Xi.$.' ' ' ' ' ' ' ' [ ' ' ' ' ' ' ' [ [ [ [ T J Z N 8 3 & ",
"0.M C J P I I I / ^ / ^ ^ ( ^ ^ ( ^ ( ^ ( ^ ( ^ ( ^ ( ^ ^ ^ ] 7.2XXX+XP.H.C.B.g.g.f.f.f r l L.3Xr.] ^ ^ ( ^ ( ^ / ^ ^ / ( ^ ^ ( ( ^ ^ T P J Z N 9 3 & ",
"0.9 C H P I ^ ^ ^ ^ ^ ^ ^ ^ ^ ^ ^ I I ^ ^ U ^ ^ U ^ I I ^ %.4XwX(.Z.v.m.D.m.v.B.d.d.l g g V.x.b.XX2X] I U ^ ^ ^ ^ ^ ^ ^ ^ ^ ^ ^ I ^ ^ I P J Z N 8 3 & ",
"0.9 C H P I ^ U ^ ^ ^ ^ ^ ^ ^ ^ I ( ^ ^ ^ ^ I ^ ^ ^ ^ ( 8.5X$X/.A.v.x :Xl.f.d.f.d.d g A..X^.z.b.Z.H.3X$.^ I ^ I ^ ^ ^ ^ ^ ^ ^ ^ ^ ^ ^ U P J Z N 8 3 & ",
"0.9 C H P I I ^ ^ ^ ^ ^ ^ ^ ^ ^ ^ ^ ^ ^ ^ ^ ^ ^ ^ ^ / 8.*Xm.$X$X+XvXFXFXu # > , r f g g.V.v G.#X(.N.D.7X7.( ^ ^ ^ ^ ^ ^ ^ ^ ^ ^ ^ ^ ^ I P J Z N 8 3 & ",
"0.9 C H P I I I ^ ^ I ^ ^ ^ ^ ^ ^ ^ ^ ^ I ( ^ ^ I ^ y.;XH.yXCXdXnXGXKXSX=   . . > s s s j j v C.rXoX^.V.7Xy.( I ^ ^ ^ ^ I ^ ^ ^ ^ ^ ^ I P J Z N 8 3 & ",
"0.9 C H P I I ^ ^ ^ ^ ^ ^ ^ ^ I ^ ^ I ^ ( I ^ ^ ( y.l.v.8XCXDXsXmXJXKXgXo @ , s j c z j z c.x.z K.H.S.A.A.+Xi.] I ^ ^ ^ ^ ^ ^ ^ I ^ ^ I P J Z N 8 3 & ",
"0.M C J P I I I ^ ^ ^ ^ ^ ^ ^ ^ ^ ^ ^ ^ I ^ ) I 7.*Xz 8XnXdXDXsXCXKXHXm e j j j v S.f.z j v b x.f.Z.V.V.V.b.OXi.( ^ I ^ ^ ^ ^ I ^ ^ ^ I P J Z N 9 3 & ",
"0.9 C H P I ^ ^ ^ I ^ ^ U ^ ^ ^ ^ I ^ ^ ^ ^ T R 3Xz.c bXpX9XnXuXFXSX<XG.H.v.f.b.Z.Z.b.c.x.v v A.c.b.V.z.V.z.Z.7X8.I ^ ^ ^ ^ ^ ^ ^ ^ ^ I P J C N 8 3 & ",
"0.9 C J P I I I I ^ ^ ^ ^ ^ I ^ ^ ^ I ( I ^ ( i.OXz.L.8Xm.m.J.1X<Xp k @X8X$XK.k.h.V.Z.Z.x.x.A.Z.c z.x.f.d.d e e &X{ I ( I I ^ ^ ^ ^ ^ I P J Z N 8 3 & ",
"0.9 C H P I I ^ ^ ^ ^ ^ I ^ ^ ^ ^ ^ ^ ^ ^ ^ $.wXZ.v +Xv.b.D.x > : : k.qXeX#X:X%Xk.B.S.V.b.Z.V.b.z.z b.b.f r , = u u.) I ^ ^ ^ ^ ^ ^ ^ I P J Z N 8 3 & ",
"0.9 C H P I I ^ ^ ^ ^ ^ ( ^ ^ ^ ^ U ^ ^ ( T i.$XA.b z l v.Z.< @ ; < 9XaXdXqX9X-X*XP.D.V.Z.Z.V.V.x.l f.N.b z d , r %X#.I I ( ^ ^ ^ ^ ^ U P J Z N 8 3 & ",
"0.9 C H P I I ^ ^ ^ I ^ I ^ ^ ^ ^ ^ ^ ^ I ( 4.~.S.N.v z.@XG.j s i x iXiXfXdXdXyX>X0XoXD.m.V./.S.x.l z j b j f.f.e u u.P ^ I ^ ^ I ^ ^ I P J Z N 8 3 & ",
"0.9 C H P I I ^ ^ ^ U ^ ^ ^ ^ ^ ^ ^ ^ ^ ^ ( ~ g Z.N.b x.m.n.H.(.z G.aXaXtXyXfXfXuXuX+X(.K.@X^.^.S.A.^.x.s z j < @ > &X_ ^ ^ ^ I ^ ^ ^ I P J Z N 8 3 & ",
"0.M C H P I I I ^ ^ ^ ^ I ^ ^ ^ I ^ ^ ^ ^ ( ~ g d.Z.A.N.c K.dXeXv.uXpXmXzXyXyXpXiX>X,X0XAXmX#XoX#XOX/.A.a l < @ @ s.7X@.^ ^ ^ ^ ^ ^ ^ I P J Z N 8 3 & ",
"0.9 C J P I ^ ^ ^ ^ ^ ^ ^ ^ I ^ ^ ^ I ^ I U ~ v.(.A./.A.m.0XdXsXk.9XCXGXGXAXzXzXpX1XtXtXtX-X9X0X0X#X.X(.d.f >   o k wX$.I ^ ^ ^ ^ ^ ^ I P J Z N 8 3 & ",
"0.9 C H P I I I ^ I ^ ^ ^ ^ ^ ^ ^ ^ ^ ^ ^ I ~ f.l s.B.A.oXsXdX9Xt K.fXAXAXAXAXMXzXtXkX1X1X1XpXrXrXeX#XoXg.l #   o g OX%.^ ^ ^ ^ ^ I ^ I P J Z N 8 3 & ",
"0.9 C H P I I I ^ ^ ^ ^ ^ U ^ ^ ^ ^ I ^ ^ ( ~ v.~.g f B.Z.H.0Xl.. y 9XzXZXCXCXmXcXkXkXkXyXyXfXfXiXqX$XOXg.s.=   ; f K.%.I ^ ^ ^ ^ I ^ I P J Z N 8 3 & ",
"0.M C H P I I ^ ^ ^ ^ ^ ^ ^ ^ ^ ^ ^ ^ ^ I ( w.m. X^.#X.Xb.c.z.< = d.K.yXzXvXDXAXVXBXcXcXkXzXxXfXiXqXeX$Xm.:X%X# . # &X$.^ ^ I ^ ^ ^ ^ I P J Z N 8 3 & ",
"0.9 C H P I I I ^ ^ ^ I ^ ^ I ^ ^ U ^ ^ U I y.%X+XV.C.m.x.v k z v /.B.>XzXGXJXAXVXZXBXvXvXmXbXaXfXqX#X(.g.cXbXv.# # &X] ^ ^ ^ ^ ^ ^ ^ U P J Z N 8 3 & ",
"0.M C H P I ^ ^ ^ ^ ^ ^ ^ ^ ^ ^ ^ ^ ^ ^ T P %.j.x.x.z.l b.b.x.c.i x.c.K.ZXKXGXMXvXVXVXVXZXVXmXaXaXsX#XD.k.AXAXD.z.h.u.) ^ ^ ^ ^ ^ ^ ^ I P J Z N 8 3 & ",
"0.9 C H P I I ^ I ^ ^ ^ ^ ^ ^ ^ ^ ^ ^ ^ ^ ^ @.&Xj z b x.z.H.8XG.: p n G.fXAXMXxXcXvXVXVXCXCXVXxXaXiX@XoX8XDXAXK.^.$X8.^ I ^ ^ ^ ^ I ^ I P J Z N 8 3 & ",
"0.9 C H P I I ^ ^ ^ ^ ^ ^ U ^ ^ ^ ^ I ^ ^ ^ ) y.G.c.P.h.r h :XvXgXx x p @XiXpXlXlXvXvXVXVXVXmXxXpXuX@XF.fXNXk.h d.wX#.^ ^ ^ ^ ^ ^ ^ ^ I P J Z N 8 3 & ",
"0.9 C H P I I ^ ^ ^ I ^ ^ ^ ^ ^ I ^ ^ ^ ^ ^ ^ ] 7XF.(.v.l e j.kXGXFX<X< n.,X>XyXlXxXMXmXVXvXxXuX,X,XC.F.:X- # f u u.) ^ ^ ^ ^ I ^ ^ ^ I P J Z N 9 3 & ",
"0.M C H P I ^ I ^ ^ ^ ^ ^ ^ I ^ ^ ^ ^ ^ ^ I ^ ^ 7.3Xv.z.D.J.P.pXFXKXJXNX:XH.,XuXpXbXnXMXMXMXxXiXP.F.H.C.f o > v.*X@.I ^ ^ ^ ^ ^ ^ ^ ^ I P J C N 8 3 & ",
"0.M C J P I I U ^ ^ ^ I I ^ ^ ^ ^ ^ ^ ^ ^ ^ ^ I ( y.;Xz.N.n.XXsXmXHXKXKXFXm u k.>XiXdXnXMXnXiXL.@XsXbXL.M.z.v +Xy.( I ^ ^ ^ ^ ^ ^ ^ ^ I P J Z N 8 3 & ",
"0.9 C H P I ^ ^ ^ ^ ^ ^ ( ^ ^ ^ ^ ^ I ^ ^ ^ ^ ^ ^ Y u.J.v v J.iXxXHXKXKXKXhX; ; p n 8XiXxXaXiXbXVXAXsXb.j S.F.2X) ^ ^ ^ ^ ^ I ^ U ^ ^ I P J Z N 8 3 & ",
"0.9 C H P I I ^ U ^ ^ ^ I ^ ^ ^ ^ ^ ^ ^ ^ ^ ^ ^ ^ ^ ) u.J.k H.eXuXBXHXKXKXJXm i b j N.n.J.pXmXCXAXMXoXz , F.7X#.^ ^ ^ ^ ^ ^ ( I ^ ^ ^ I P J Z N 8 3 & ",
"0.9 C H P I I ^ ^ ^ ^ ^ ^ ^ I ^ ^ ^ ^ ^ ^ I ^ ^ ^ ^ I ( y.%Xz.B.z.k j.=XkXNXhXx OXv.f d f h.XXXX*XG.S.V.h.7X%.I ( I ^ ^ ^ ^ ^ ^ ^ ^ ^ I P J Z N 8 3 & ",
"0.9 C H P I I I ^ ( I ^ ^ ^ ^ ^ U ^ ^ ^ ^ ^ I ^ ^ ^ ^ ^ ( %.*Xh.j z j r f k :Xk.l.d.y y y y s.g.g.f ~.(.3X#.^ ^ ^ ^ ^ ^ ^ ^ ^ ^ ^ ^ ^ I P J C N 8 3 & ",
"0.9 C H P I I ^ ^ I ^ ^ ^ I ^ ^ ^ ^ I ^ ^ ^ ^ ^ ^ ^ ^ ^ ^ ^ #.4X>XP.v.j k 1XaX:Xk.h y h y y h a < h eX2X] I ^ ^ ^ ^ ^ ^ U ^ ^ ^ ^ ^ ^ I P J Z N 8 3 & ",
"0.M C J P I I ( ^ I ^ ^ ^ ^ ^ ^ ^ ^ ( I ^ ^ ^ ^ ^ ^ ^ ^ ^ ^ ^ ] r.4X5X:XtXAXsX;X%X%Xs.s.s.y v.h.~ 4X8.T ^ ^ ^ ^ I ^ ( I ^ ^ I ^ ^ ^ ^ I P J Z N 8 3 & ",
"0.9 C H P I I I ^ ^ ^ ^ ^ ^ ^ I ^ ^ ^ ^ ^ ^ I ^ ^ ^ ^ I I ^ ^ ^ I ) #.8.u.6X5X5X-X4X-Xl.l.&Xe.8.%.W U I ^ ^ ^ ^ ^ ^ I ^ ^ ^ ^ ^ ^ ^ ^ I P J Z N 9 3 & ",
"0.9 C J P I I I ( I ( ^ ^ ^ I ( ^ ^ ^ ^ ^ I ^ ^ U ^ ^ ^ ^ ^ ^ ^ ^ ^ ^ I I ) ] ] ] @.#.@.@.] ( ^ ^ ^ U ^ ^ ^ ^ ^ ^ ^ I ^ ^ ^ ^ ^ ^ ^ ^ I P J Z N 8 3 & ",
"0.9 C H P I I ^ I ^ I ^ ^ ^ ^ ^ ^ I ^ ^ ^ ^ ^ ^ ^ ^ ^ ^ ^ I I ( ^ ^ ^ ^ ^ ^ ^ ^ I ^ I U ^ I ^ I ^ I ( ^ ^ ^ ^ I ^ ^ ( I ^ ^ I ^ ^ ^ ^ I P J Z N 8 3 & ",
"0.9 C H P I I ^ ^ ^ ^ ^ ^ I ^ ^ ^ ^ I ^ ^ ^ ^ ^ ^ ^ I ( ^ ^ ^ I I ^ ^ ^ ^ ^ ^ ^ ^ ^ ^ ^ ^ ^ ^ ^ ^ I ^ ^ ^ I ^ ^ ^ ^ ^ ^ ^ ^ ^ ^ ^ ^ ^ I P J Z N 8 3 & ",
"0.9 C H P I I ^ ^ ^ I I I ( ^ ^ ^ ^ ( I ^ U ^ ^ ^ ^ ^ I ^ ^ ^ ^ ^ ^ ^ ^ ^ ^ I ^ ^ ^ I ^ ^ ^ ^ ^ ^ ^ ^ ^ ^ ^ I ( U ^ ^ ^ ^ ^ ^ ^ I ( ^ I P J Z N 8 3 & ",
"0.9 C H P I I ^ ^ ^ ..Y.O.^ I T L U ^ ^ ^ ^ ^ ^ ^ ^ ^ ^ ^ ^ ^ ^ ^ ^ ^ ^ ^ ^ ^ ^ ^ ^ ^ ^ ^ ^ ^ I ^ ^ ^ ^ ^ ^ ^ I I I ^ ^ I ^ ^ ^ ^ ^ ^ I P J Z N 9 3 & ",
"0.M C H P I I I ^ I ,.}.1.I ^ ,.`.1.^ ^ I ^ ^ I I I ^ ^ ^ ^ ^ ^ ^ ^ ^ ^ ^ I ^ I I ^ I I ^ ^ ^ ^ ^ I I ^ ^ ^ ^ ` <. .I ^ ( I ^ I I I ^ I P J Z N 8 3 & ",
"0.9 C J P I ^ ^ I I ,.{.1.^ I ..6...I ^ _ ..` X.| I ^ I I ^ ..X.| I ^ ^ ^ ..`  . .R ..X.U I I ^ `  . .Q ^ ^ ^ ,.{.Y.| U ^ ^ U  .X...U I P J Z N 8 3 & ",
"0.9 C H P I I I ( I ,.{.1.I I ,.[.<.^ ( 1.[.).|.[.:.^ ^ R U.{.|._.,.I ^ O.[.).{.{.T.[.|.I.U ^ _ W.|.|._.Q I ` !. X X!._ ^ U 6.[.{.].1.I P J Z N 8 3 & ",
"0.9 C H P I I I ^ ^ <.{.1.I I ,.{.1.I I 1. XY.<.{.U.T ( ,.{.E.6.].!./ ^ X.}.!.<.[.[.,.!.`.R ( _ 6.6.R.|.6.P T ,.{.Y.| ^ ^ +.{.W.6.)._._ P J Z N 8 3 & ",
"0.M C H P I I ^ ^ I ,.{.1.I I ,.{.1.I I 5.{.:.` _.Y.I I 6. X|.{.{.Q._ I O.{.6.R _.T.U R.[.L ^ _ W.|.|. X6.I I  .[.6.I ( I 1. X}.[.|.!.| P J Z N 8 3 & ",
"0.9 C H P I I I ^ ^ ,.{.<.^ ^ ,.{.1.^ I 5.{.:.` ].Y.I I 5. X5.` +.2.^ ^ O.}.6.R _.T.U U.[.Q I +.{.6.2.|.I.I I X.[.U.I I ^ <. X6.| O.3.U P J Z N 9 3 & ",
"0.M C H P I ^ ^ ^ I ,.}.1.^ I ,.{.1.^ ^ 5.{.:.| _.Y.T I X._.[.!.'.U.^ ^ X.}.6._ _.T.U U.`.Q I O.].].'. X6.I ^ _ !.}.E._ ^ | !.[.!.'.Y.U P J Z N 8 3 & ",
"0.9 C H P I I ^ ^ ^ o.W.>.I ^ +.W.>.I I >.Q.o._ Y.6.I ^ / 5.Q.W.Y.Q ^ ^ | Q.1._ U.U.U 3.Q. .^ U 6.Q.Y.Q.5.U ^ U 6.!.U._ ^ I 1.Q.W.Y.:.I P J Z N 8 3 & ",
"0.9 C H P I I ^ ^ I | 3.| I ^ ` 3.| I ^ | <.| U >.2.^ ^ ` 5. ._ _ _ ^ ^ / 3. .^ +.3.^ ` 1.| ^ / 3.+._ 3.>.I I _ 3.+./ ^ ^ _ 1.O.U _ R I P J Z N 8 3 & ",
"0.9 C H P I I ^ I ( _ >._ ^ ^ _ +._ ^ ^ ` +.` ^ +.O.( ^ ` 2.O...O.| ^ ^ / >.| ^ ..+.^ ` >.` ^ ^ ..+...>...U ^ _ +.| ^ ^ ( ` 2.O...O.| I P J Z N 8 3 & ",
"0.M C H P I ^ I ^ I _ .._ I ( _ ../ I ^ _ .._ U | | ^ ^ _ ..` _ ..| ^ ^ / | | ( | ..^ _ .._ ^ ^ U ^ _ ..| ^ ^ ^ ..` ^ ^ ^ / ..` _ ..| I P J Z N 8 3 & ",
"0.9 C H P I I U ^ ^ ^ _ ^ ( ^ ^ _ ) I ^ / _ _ / _ / ^ ^ ^ _ _ / _ ^ ^ ^ ^ _ _ _ _ _ _ _ _ ^ ^ ^ / / ^ _ _ ^ ^ / _ / / ^ ^ ^ _ _ / _ / T P J Z N 9 3 & ",
"0.M C H P I I ^ ^ ^ ^ ^ U P P P P T ^ ^ ^ ^ ( I ^ ^ ^ ^ ^ ^ I I ^ ^ ^ ^ ^ ^ ^ ^ ^ ^ ( I ^ ^ I I ( M 7 Y ^ ^ I ^ ^ ( ^ ^ ^ ^ I ^ ^ I ^ I P J Z N 8 3 & ",
"0.9 C J P I I ^ I ^ ^ ^ A & + + & 8 P ^ ^ I ^ I ^ ^ ^ I ^ ^ I ( ^ ^ ^ I ^ I ^ ^ ^ ^ ^ ^ ^ ^ ^ ( ^ 2 + H ^ ^ I ^ ^ I ^ ^ ^ ^ ^ ^ ^ ^ ^ T P J Z N 8 3 & ",
"0.9 C H P I I ^ ^ ^ ^ ^ N X % 4 $ X 9 ^ ^ I U I P I ^ ^ T I P T ^ ^ ^ ^ I T I P P I ^ ^ ^ ^ I P I 1 + H ^ ^ I I I I I ^ ^ ^ P P I ^ ^ I P J Z N 8 3 & ",
"0.M C H P I I ^ ^ ^ ^ ^ N X 3 I 9   3 I ^ M 2 4 1 A ( ^ C 1 % 1 C ^ ^ ^ C 1 8 1 & 9 T ^ U P 6 % 2 % + Z ( ^ 7 4 3 2 J ^ I B 1 & 3 Z ( I P J C N 8 3 & ",
"0.9 C H P I ^ I ^ ^ ^ ^ V O 3 P 7   7 I ^ 6   O & N ^ H % % 6 + % J ^ ^ 9   O % O O C T T 9 X % &   + Z ( I 1   O * H ^ N + & 3 O 1 P U P J Z N 8 3 & ",
"0.9 C H P I I ^ ^ ^ ^ ^ N X + & O $ A ^ ^ 7   4 P I ^ 8 X 2 M &   C ( ^ M   3 K 4 X M ^ I 1 O C J & + H ^ I 2 X 9 Y U I 3 X 6 9 $ O H I P J H N 8 3 & ",
"0.M C H P I I I ^ ^ ^ ^ A O + * 4 Z ^ ^ ^ 7 X N T ^ ^ 6   $ & $ % C ^ ^ M   8 ( 8 X M ^ P & + J ^ 2 + A ^ ( 2 O C I I T 3   % & % & H ^ P J Z N 8 3 & ",
"0.9 C H P I I ^ U ^ ^ ^ C O 3 P T ^ ^ I I 8 X V ^ ^ ( 8   4 H H H T T ^ M X 7 ( 8 X M ( P * O C H % O Z ( I 3 O C ( T I 4 X 8 H H H I T P J Z N 8 3 & ",
"0.9 C H P I I ^ ^ ^ ^ ^ C O 3 I T ^ ^ ^ T 8   N ^ ^ T H $ $ 4 2 3 J T ^ N X 8 ^ 8 X M ^ U 7 X $ & X + Z ( I 4 O C ^ ^ ^ N O $ 4 2 4 P I P J Z N 8 3 & ",
"0.M C H P I I ^ ^ ^ ^ ( A & 7 I ^ ^ ^ ^ I 9 % A ( ^ ^ J 4 & & & 4 P ^ ^ N % M ^ B & C ( I C 1 % 1 1 * H ^ I 7 * H ( ^ ^ K 2 & % * 7 I I P J Z N 8 3 & ",
"0.9 C H P I I I T T T ) H 8 V T T T T T I A 8 H I U T H 9 C K K J T T ( K 8 A T Z 7 H T T V 8 Z K B 8 K T T B 9 J T T T C 8 A K K Y U T P J Z N 8 3 & ",
"0.9 C H P I U Y Y Y Y Y K B B A K K Y Y Y A B K Y Y Y A B B V A V K Y Y K B A Y K B K Y Y B B Y Y A B K Y Y V B K Y Y Y A B V V V V K Y Y J Z N 8 3 & ",
"0.M C H P Y W W W W W W E F V F V F E W W E V G W W W E S F G A S E W W E V G W G S E W W G V E W G V E W W G V G W W W G V A G A F E W W K H N 8 3 & ",
"0.9 C H K G G G G G G G F S F G F S F G G S S S F G G F S S G F S G G G F S S S S S F G G F S F F S S F G G F S S F G G F F S G S F G G G G G M 9 3 & ",
"0.9 C N q q q q q q q B q q q q q q q q S q q q q q q q q q q q q q q q q q q q q q S 0 q q q 0 0 q q q q q q q q q q q q q q q q q q q q S q q 7 3 & ",
"0.9 B w w w w w w w w w w w w w w w w w w w w w w w w w w w w w w w w w w w w w w w w w w w w w q w w w w w w w w w w w w w w w w w w w w w w w w 4 & ",
"q.S ! ! ! ! ! ! ! ! ! ! ! ! ! ! ! ! ! ! ! ! ! ! ! ! ! ! ! ! ! ! ! ! ! ! ! ! ! ! ! ! ! ! ! ! ! ! ! ! ! ! ! ! ! ! ! ! ! ! ! ! ! ! ! ! ! ! ! ! ! ! ! D 5 ",
"a.p.p.p.p.p.p.p.p.p.p.p.p.p.p.p.p.p.p.p.p.p.p.p.p.p.p.p.p.p.p.p.p.p.p.p.p.p.p.p.p.p.p.p.p.p.p.p.p.p.p.p.p.p.p.p.p.p.p.p.p.p.p.p.p.p.p.p.p.p.p.p.p.p.w."
};
