/* XPM */
static char *prendre_f[] = {
/* columns rows colors chars-per-pixel */
"75 75 255 2",
"   c #000500",
".  c #000C00",
"X  c #011401",
"o  c #011B01",
"O  c #012301",
"+  c #012B01",
"@  c #013401",
"#  c #003E00",
"$  c #741900",
"%  c #7A1E00",
"&  c #7A2401",
"*  c #6A3902",
"=  c #024402",
"-  c #024D02",
";  c #025302",
":  c #025B02",
">  c #006500",
",  c #036C03",
"<  c #037403",
"1  c #027E02",
"2  c #0E750E",
"3  c #0B7E0B",
"4  c #157A15",
"5  c #187F18",
"6  c #2D6D04",
"7  c #327203",
"8  c #555103",
"9  c #6B4202",
"0  c #4D654D",
"q  c #4C6C4C",
"w  c #537953",
"e  c #831F00",
"r  c #A8130B",
"t  c #BA180D",
"y  c #852903",
"u  c #8F3201",
"i  c #9A3701",
"p  c #A03A00",
"a  c #CF110A",
"s  c #C5180C",
"d  c #E90601",
"f  c #E31307",
"g  c #CB2510",
"h  c #F13210",
"j  c #954D02",
"k  c #A74601",
"l  c #A55A01",
"z  c #B85B03",
"x  c #BE4118",
"c  c #977302",
"v  c #A56601",
"b  c #B96A02",
"n  c #B97700",
"m  c #CA5011",
"M  c #EA4514",
"N  c #F65A1D",
"B  c #C46705",
"V  c #CD7906",
"C  c #D67C06",
"Z  c #F3661E",
"A  c #D55523",
"S  c #EB5D23",
"D  c #D86725",
"F  c #D5712B",
"G  c #EA7129",
"H  c #048404",
"J  c #058C05",
"K  c #0C8C0C",
"L  c #158903",
"P  c #019501",
"I  c #0B9202",
"U  c #049C04",
"Y  c #0C9D03",
"T  c #0C930C",
"R  c #0B9B0B",
"E  c #139B02",
"W  c #128C12",
"Q  c #198619",
"!  c #129212",
"~  c #139B13",
"^  c #1E991E",
"/  c #2B9402",
"(  c #02A402",
")  c #0CA607",
"_  c #03AE03",
"`  c #0CAD0C",
"'  c #17A502",
"]  c #02B502",
"[  c #0AB206",
"{  c #05BD05",
"}  c #0CBE05",
"|  c #0DB30D",
" . c #09BA09",
".. c #13BD06",
"X. c #1ABB06",
"o. c #14A414",
"O. c #14A814",
"+. c #15BE15",
"@. c #2FAE0D",
"#. c #27B806",
"$. c #37BA08",
"%. c #28A328",
"&. c #4C9503",
"*. c #6A9007",
"=. c #5BAD09",
"-. c #46B708",
";. c #5AB80A",
":. c #4FAE13",
">. c #56B815",
",. c #68A705",
"<. c #79A907",
"1. c #65B706",
"2. c #74B313",
"3. c #54B020",
"4. c #6FB62B",
"5. c #05C005",
"6. c #0AC005",
"7. c #0CC50C",
"8. c #1CC407",
"9. c #12CF12",
"0. c #1DCF1D",
"q. c #17DC17",
"w. c #19D519",
"e. c #28C604",
"r. c #38C802",
"t. c #2FCA13",
"y. c #25E525",
"u. c #2DEF2D",
"i. c #2FF32F",
"p. c #32F432",
"a. c #36F836",
"s. c #44C906",
"d. c #59C707",
"f. c #4CD500",
"g. c #55DA01",
"h. c #4AC517",
"j. c #6AD607",
"k. c #6BE801",
"l. c #75EA02",
"z. c #79F201",
"x. c #55D426",
"c. c #7ADC35",
"v. c #4F9B4F",
"b. c #4CB74C",
"n. c #4DBF4D",
"m. c #54A454",
"M. c #77A677",
"N. c #4DC04D",
"B. c #8E9208",
"V. c #AA9C0D",
"C. c #A99C11",
"Z. c #93AE0D",
"A. c #89A516",
"S. c #B0AF0E",
"D. c #8BAE2F",
"F. c #87B628",
"G. c #AEB228",
"H. c #D88A05",
"J. c #D58509",
"K. c #DA9807",
"L. c #D1940E",
"P. c #DE9509",
"I. c #E49909",
"U. c #E99211",
"Y. c #E79A19",
"T. c #D1AD10",
"R. c #E1A70C",
"E. c #F7AA09",
"W. c #E4B608",
"Q. c #F8B70B",
"!. c #EDA419",
"~. c #F4AC13",
"^. c #F5AD1A",
"/. c #ECB316",
"(. c #F5B917",
"). c #DC8A36",
"_. c #F58629",
"`. c #E99A28",
"'. c #EB8937",
"]. c #E89638",
"[. c #CFA92C",
"{. c #EAA829",
"}. c #F2AB26",
"|. c #ECB627",
" X c #F3B729",
".X c #EAA836",
"XX c #F3AB35",
"oX c #E7B734",
"OX c #F4BA36",
"+X c #8CCF15",
"@X c #9BD71C",
"#X c #8EE80D",
"$X c #97F704",
"%X c #A1F40B",
"&X c #A1E61A",
"*X c #93CF2E",
"=X c #B4D533",
"-X c #94E23D",
";X c #BAE236",
":X c #ECC704",
">X c #F9C50B",
",X c #F7DD0D",
"<X c #F9C619",
"1X c #F7D218",
"2X c #D0E515",
"3X c #F6E60E",
"4X c #FCE617",
"5X c #CBC737",
"6X c #F7C627",
"7X c #EDC931",
"8X c #F8C939",
"9X c #FAD437",
"0X c #FAE827",
"qX c #FFF02A",
"wX c #FBE836",
"eX c #FFF537",
"rX c #D6A546",
"tX c #ECAD44",
"yX c #EFB348",
"uX c #F5B843",
"iX c #EBB454",
"pX c #F1BD51",
"aX c #B9DC42",
"sX c #D0D14F",
"dX c #F7C845",
"fX c #EDD746",
"gX c #FBD749",
"hX c #EACA55",
"jX c #F4C859",
"kX c #FAD656",
"lX c #FBDB5B",
"zX c #D3E74F",
"xX c #CAF04A",
"cX c #FCE747",
"vX c #FFF646",
"bX c #FFFC4D",
"nX c #FEE15C",
"mX c #F5F951",
"MX c #FFFE51",
"NX c #D7DA63",
"BX c #F6CA64",
"VX c #EAD76E",
"CX c #FAD865",
"ZX c #FDDE6C",
"AX c #FBDB73",
"SX c #FEE364",
"DX c #FEE46C",
"FX c #FEE374",
"GX c #FFE875",
"HX c #FEE479",
"JX c #FFEB7C",
"KX c #8BC78B",
"LX c #FDE688",
"PX c #FEEB98",
"IX c #FFEDA1",
/* pixels */
"KXn.n.n.N.N.N.N.N.N.N.N.N.N.N.N.N.N.N.N.N.N.N.N.N.N.N.n.N.N.N.N.N.n.N.N.N.N.N.N.N.N.N.N.N.N.N.N.N.N.N.N.N.N.N.N.N.n.N.N.N.N.N.N.N.N.N.N.N.N.N.N.N.b.M.",
"v.P ] ] 5.5.] { ] ] 5.5.{ ] ] ] 5.5.{ ] ] ] 5.5.{ { ] ] 5.5.5.{ ] ] 5.5.{ ] ] ] 5.5.{ ] ] ] 5.5.{ ] ] ] 5.5.5.{ ] ] 5.5.{ ] ] ] { 5.] ] ] ] { { ] < q ",
"v.H _ 5.5.5.5.5.5.5.5.5.5.5.5.5.5.5.5.5.5.5.5.5.5.5.5.5.5.5.5.5.5.5.5.5.5.5.5.5.5.5.5.5.5.5.5.5.5.5.5.5.5.5.5.5.5.5.5.5.5.5.5.5.5.5.5.5.5.5.5.5.P = 0 ",
"v.H P 5.q.q.q.q.q.q.q.q.q.q.q.q.q.q.q.q.q.q.q.q.q.q.q.q.q.q.q.q.q.q.q.q.q.q.q.q.q.q.q.q.q.q.q.q.q.q.q.q.q.q.q.q.q.q.q.q.q.q.q.q.q.q.q.q.q.q.q.] > # 0 ",
"v.1 U _ 9.i.i.i.i.i.i.i.i.i.i.i.i.i.i.i.i.i.i.p.i.i.i.i.i.i.i.i.i.i.i.i.i.i.i.i.i.i.i.i.i.i.i.p.i.i.i.i.i.i.i.i.i.i.i.i.i.i.i.i.p.p.i.i.i.u.+.H > # 0 ",
"v.1 P (  .w.a.a.a.a.a.a.a.a.a.a.a.a.a.a.a.a.a.a.a.a.a.a.a.a.a.a.a.a.a.a.a.a.a.a.a.a.a.a.a.a.a.a.a.a.a.a.a.a.a.a.a.a.a.a.a.a.a.a.a.a.a.a.p.0.P 1 > # 0 ",
"v.1 U ( ] { w.y.y.y.y.y.y.y.y.y.y.y.y.y.y.y.y.y.y.y.y.y.y.y.y.y.y.y.y.y.y.y.y.y.y.y.y.y.y.y.y.y.y.y.y.y.y.y.y.y.y.y.y.y.y.y.y.y.y.y.y.y.9.( J 1 > # 0 ",
"v.1 P ( ] { { 7.9.9.9.9.9.9.9.9.9.9.9.9.9.9.9.9.9.9.9.9.9.9.9.9.9.9.9.9.9.9.9.9.9.9.9.9.9.9.9.9.9.9.9.9.9.9.9.9.9.9.9.9.9.9.9.9.9.9.9.7._ ( P H > = 0 ",
"v.H P _ ] { { 5.5.5.5.5.5.5.7.5.5.5.5.5.5.5.6.5.6.5.5.5.7.5.5.5.5.5.5.5.5.5.5.5.5.5.5.7.5.5.5.5.7.5.5.6.5.5.6.5.5.5.5.5.5.5.7.5.5.6.5.] ] ( P < > # 0 ",
"v.H P ( ] { { 5.5.5.5.5.5.5.5.5.{ 5.5.5.5.5.5.5.5.5.5.5.5.5.5.5.5.5.5.5.5.5.5.5.5.5.5.5.5.5.5.5.5.5.5.5.5.5.5.5.5.5.5.5.5.5.5.5.5.5.5. ._ ( P 1 > # 0 ",
"v.1 P ( ] { { 5.5.5.5.5.5.5.5.5.5.5.5.{ 5.5.5.5.5.5.5.5.5.5.5.5.5.5.5.5.5.{ 5.5.5.5.5.5.5.5.5.5.5.5.5.5.5.5.5.5.5.5.5.5.5.5.5.5.5.5.5.] _ ( J 1 > = 0 ",
"v.1 P ( ] { { 5.5.5.5.5.5.5.5.5.5.5.5.5.5.5.5.5.5.5.5.5.5.5.5.5.5.5.5.5.5.5.5.5.5.5.5.5.5.5.{ 5.5.5.5.5.5.5.{ 5.5.5.5.5.5.5.5.5.5.5.{ { _ ( P 1 > # 0 ",
"v.1 U ( ] { { 5.5.5.5.5.5.5.5.5.5.5.5.5.5.5.5.5.5.5.5.5.5.5.5.7.e.$.-.>.1.1.;.;.-.$.#.7.} { 5.5.5.5.5.5.5.5.5.5.5.{ 5.5.5.5.5.5.5.{ 5.] _ ( P 1 > # 0 ",
"v.1 P ( ] { { { 5.{ 5.5.5.5.5.5.{ 5.5.5.5.5.5.5.5.5.5.8.$.1.Z.T.T.W./.7X|. X~.(.oXW.T.G.Z.>.#.[ 5.{ 5.5.{ 5.5.5.5.5.5.5.5.5.5.5.5.5.5. ._ U P 1 > # 0 ",
"v.1 P ( ] { { 5.5.5.5.5.5.5.5.5.5.5.5.5.5.5.5.5.6.#.2.S.|.(.Q.OX^.E.OX X/.}.}.~. X~.~.^.~.OXT.Z.-.} 5.5.5.5.5.5.5.5.5.5.5.5.5.5.5.5.5.] _ ( P 1 > # 0 ",
"v.H P _ ] { { { 5.5.5.5.5.5.5.5.5.5.5.5.5.5.5.e.Z.W.Q.Q. X X<X>X>X<X7XQ.6X(.7X XOX/.E.E.|.!.}.E.K.Z.$.{ 5.5.5.{ 5.5.5.5.5.5.5.5.5.5.5.] _ ( P 1 > # 0 ",
"v.H P ( ] 5.{ 5.5.5.5.5.{ 5.5.5.{ 6.5.5.5.6.d.[.Q.8X<X6X6X<X6X>X1X6X<X6X8X(.8X XQ.6X~.Q.OX/.XX~.uXY.T.3.} 5.5.5.5.{ 5.5.5.5.5.5.5.5.{ ] _ ( P < > # 0 ",
"v.1 P ( ] 5.{ 5.5.{ 5.5.5.5.5.5.5.5.5.5.6.2.7X6X(.dX6X<X<X8XgX>X>X6X>X1X9X>X(. X(.(.(.(.OX!.~.~. X}.U.Y.<.7.5.5.5.5.5.5.{ 5.5.5.5.5.5. ._ ( P 1 > = 0 ",
"v.1 P ( ] { 5.5.5.5.5.5.5.5.{ 5.5.5.5.6.2.6XdX6X9XdX6XgX6X6X6X6XlX9X9XcX1X1X1X8X/.6XdX(.6X XOX}.XX{.E.`.U.,.5.{ 5.5.5.5.5.5.{ 5.5.5.{ { _ ( P H > # 0 ",
"v.1 U ( ] { { { 5.5.5.{ 5.5.5.5.5.5.{ >.dXdXjX8X9X9X9XfX9XkX9XgXLXSXnXgX9XgXdX<X X<X(.6X8XOX(.^.^.^.}.`.Y.K.-.5.5.5.{ 5.5.5.5.5.5.{ { { _ ( P < > # 0 ",
"v.H P ( ] { { { 5.5.5.5.5.6.5.5.5.5.X.=XkXkXgXlXgXgXgXgXgXfXgXAXPXPXLXFXDXnXgX8X9X8X6XkX8X6X8XpX XOX.XU.Y.Y.S. .5.5.5.5.{ 5.5.5.5.5.{ ] _ ( P 1 > = 0 ",
"v.H P _ ] { { 5.{ 5.5.5.5.{ 5.5.5.5.3.lXCXlXCXlXkXnXSXCXgXnXlXkXLXIXIXPXLXAXgXkXjXdXgXdXdX9XdXdXOX X`.`.`.`.[.$.5.{ 5.5.5.5.5.5.5.5.5. ._ U P H > # 0 ",
"v.1 P ( ] { { 5.5.5.5.{ 5.5.5.5.5.{ h.VXFXFXDXDXDXDXSXSXSXSXSXnXSXDXGXGXZXlXkXkXkXkXgXkXkXgXkXdXOX.X.XXXXXXX.X$.5.5.5.5.5.5.{ 6.5.5.5.] _ ( P < > # 0 ",
"v.H P ( ] { { 5.5.5.5.5.5.5.5.5.5.5.8.D.ZXJXJXGXGXJXGXGXGXGXGXFXFXDXDXZXZXZXZXZXZXZXSXCXCXkXjXyXyXtXtXuXtXoX2.5.5.5.{ 5.5.5.5.5.5.5.5.] _ ( P H > # 0 ",
"v.1 P ( ] ] 5.{ 5.5.5.5.5.5.5.{ 5.5.7.8 A '.BXHXLXLXJXJXJXJXJXJXJXHXHXHXHXHXHXHXGXAXCXBXjXpXpXpXpXpXiX].F =.5.{ 5.{ 5.5.5.5.{ 5.5.{ 5.] _ ( P < > # 0 ",
"v.1 P ( ] { 5.5.5.5.{ 5.6.7.6.0.x.-XzXmXA s g A G iXBXCXZXFXFXFXHXGXHXAXAXAXCXCXBXjXjXjXpXjXiXtX).F g g S *Xx.0.5.5.{ 5.5.5.5.5.5.5.5. ._ ( P 1 > # 0 ",
"v.H P _ ] { { 5.5.5.5.5.5.t.-XzXmXbXMXMXcX].h f d d f M Z _._.].'.'.'.].rX].].).).).F F A x x t r r m ].cXMXmXxXc.t.{ 5.5.5.5.5.5.5.5.] _ ( P H > = 0 ",
"v.H P ( ] { { 5.{ 5.5.5.6.h.&X@X@X&X=X9XwXcXcXOX_.N h M N G G N h d d f a s s s s t t t t g m D ].dXmXMXMXMXMXmXMXxXt.{ 5.{ 5.5.5.5.{ { _ ( P < > # 0 ",
"v.1 P ( ] 5.{ 5.5.5.5.{ 5.5.6.5.5.} *.C H.I.I./.9XwXgX9XgX8XOXXX_.N N N S S G F F '.`.XXdXgXcXvXmXbXeXeXwX0X0X3X2X2Xr.5.5.5.{ 5.5.{ 5.] _ ( P 1 > # 0 ",
"v.1 U ( ] { { 5.5.5.5.5.5.5.5.5.{ { B.H.H.I.H.C C H.R.1XwXvXbXbXbXbXbXbXbXbXbXMXbXbXMXMXbXeXwX1X1XW.T.L.n v j -.e.8.7.5.5.5.5.5.5.5.5. ._ ( J 1 > # 0 ",
"v.H P ( ] { { 5.5.{ 5.5.5.5.5.e.e.8.*.J.P.I.I.I.I.P.C V H.W.1XqXvXbXbXbXbXbXMXMXvXeXqX3X:XK.V.l j u & & $ $ 8 [ {  . .5.5.5.5.5.5.5.5.] _ ( P 1 > # 0 ",
"v.1 P ( ] { { 5.5.5.5.5.5.{ } f.l.k.,.b C H.P.I.P.P.K.P.J.V V K.:X4XqXvXbXvXeX4X3XW.J.b k j y y & & & $ $ & 6 ) ) ) ` 5.5.{ 5.5.5.5.5.] _ ( P 1 > # 0 ",
"v.1 P ( ] { { { 5.5.{ 5.5.5.{ e.r.k.z.1.c B B C C J.J.J.C V V B B K.:X,X3X3X:XK.z p i i u y % % e & % & * 6 P Y U ) [ { 5.5.5.{ 5.5.{ ] _ ( P < > # 0 ",
"v.H U _ ] { 5.5.5.5.5.5.5.5.5.{ e.z.k.e.s.,.B.v z z z z B B B B z z k B R.V p u u i p u e y e y & * 8 6 L Y ) Y ) )  .5.5.5.5.5.5.5.5. ._ ( P 1 > = 0 ",
"v.1 P ( ] ] { 5.5.5.5.5.5.5.5.} g.z.z.k.r.g.k.g.+XA.B.c v l l k k k k i i u i k k j y * * 9 8 7 7 L I I R ) U _ { 5.5.5.5.{ 5.5.5.5.{ { _ ( P H > # 0 ",
"v.H P ( ] 5.{ 5.5.{ 5.5.5.{ 5.{ 8.t.z.#X*Xz.#X*X$Xk.k.f.j.#Xd.;.,.,.,.,.*.*.*.&.&./ / / E E ) ' ' I Y ' R 3.4.@.5.5.5.5.5.5.5.5.5.{ { { _ ( P < > # 0 ",
"v.1 P ( ]  .{ 5.5.5.5.5.{ 5.5.5.5.5.r.sXVX-XNXsX$X%X$X#XaX$Xk.g.g.f.g.l.f.r.r.r.e.#.#.r.#.' I @.#.@.3.o.' D.iX>.5.5.5.5.5.5.5.{ 5.5.{ ] _ ( P 1 > = 0 ",
"v.1 P ( ] { { 5.5.5.5.{ 5.5.5.5.5.5.5.4.iXAXLXVXNXsX&XzXHX;X$X#X#Xl.j.=X+Xf.g.j.d.s.s.d.*X4.:.#.' >.hXG.D.G.F...5.5.5.{ 5.5.5.5.5.5.5. ._ U P H > # 0 ",
"v.H P _ ] { { 5.{ 5.5.5.5.5.{ 5.5.5.5.6.$.D.rXiXiXBXBXBXCXhX5XsX5X#X@XhXsX+X*XoXoX[.*X[.OXdXoXG.2.A.`.[.C.:.} 5.5.{ 5.5.5.{ 5.5.5.5.5.] _ ( P < > # 0 ",
"v.H P ( ] { { 5.5.5.5.5.5.5.5.5.5.5.5.5.5.5.#.3.4.G.[.[.{..X.X.X.X{.}.}.}.{.}.{.}.}.^.!.Y.Y.L.L.C.A.,.@.| { 5.{ 5.5.5.5.5.5.5.5.5.5.5.] _ ( P H > # 0 ",
"v.1 P ( ] { 5.5.{ 5.5.5.5.{ 5.5.5.5.5.5.5.5.5.5.} } #.$.:.2.<.A.Z.C.C.V.V.V.V.V.V.B.Z.<.,.=.-.#...} 5.5.5.5.{ 5.5.5.5.5.5.5.{ 5.5.{ 5.] _ ( P < > # 0 ",
"v.1 U ( ] 5.{ 5.5.5.5.5.5.6.5.5.5.5.5.5.5.5.5.5.5.5.5.5.5.] 5.} } ....X.X...X.X...}  . .5.5.{ { { 5.5.5.5.5.5.5.5.5.5.{ 5.5.5.5.5.5.5. ._ ( P 1 > = 0 ",
"v.H P ( ] { { 5.5.5.{ 5.5.5.5.5.5.5.5.5.5.5.5.5.5.5.5.5.5.5.5.5.5.5.{ { 5.5.5.5.5.5.{ 5.5.5.6.5.5.5.5.5.5.5.5.5.5.5.5.5.5.5.5.5.5.5.{ { _ ( P H > # 0 ",
"v.1 P ( ] { { 5.5.5.5.5.5.5.5.{ 5.5.5.5.5.5.5.5.5.5.{ 5.{ 5.5.5.5.5.5.{ 5.5.5.5.5.5.5.{ { 5.5.5.5.5.5.5.5.{ 5.5.{ 5.5.5.5.{ 5.5.5.{ { { _ ( P < > # 0 ",
"v.H P _ ] { 5.5.{ 5.5.5.{ 5.5.5.5.5.5.5.5.5.5.5. .5.5.5.5.5.5.5.5.{ 5.5.5.5. .5.5.5.5.5.{ 5.5.5.{ _ [ 5.5.5.5.5.5.5.5.5.5.5.{ 5.5.5.{ ] _ ( P 1 > # 0 ",
"v.H P ( ] ] { 5.5.5.5.5.5.5.5.5.{ 5.5.5.5.P > > > H 5.5.5.5.5.5.5.5.{ 5.5.5.5.5.5.5.5.5.5.5.5.5._ = > { 5.5.5.{ 5.5.5.{ 5.5.5.6.5.5.5. ._ U P H > # 0 ",
"v.1 P ( ] { { 5.5.5.{ 5.5.5.{ 5.5.5.5.5.{ -   o + >  .5.5.5.6. .5.5.{ 5.5.5.5.{ { 5.5.5.5.{ 5.5.U O ; { 5.5.5.5.{ 5.5.5.5.5.5.5.5.5.5.] _ ( P < > # 0 ",
"v.1 P ( ] { { 5.5.5.5.5.5.5.5.5.5.5.5.5.{ - X J { ] { 5.5._ , ; : ( 5.5.5.] < : ; H { { 5.{ 1 ; : o ;  .5.{ 5.5.5.5.5.5.5.{ 5.5.5.5.5.] _ ( P 1 > = 0 ",
"v.1 P ( ] { { { 5.5.5.{ 5.5.5.5.{ 5.5.5.{ ; . , J ( 5.5.] = X # o + _ 5. ., X @ O X J 5.5.1 . O O   ; { 5.5.5.5.5.{ 5.5.5.5.5.5.5.5.{ ] ] ( J 1 > = 0 ",
"v.H P ( ] { { 5.5.5.5.5.5.5.5.{ 5.5.5.5. .:   X O > 5.5.T . > ] , . 1 5._ O # ] P X : 5. .- X U J X ; { 5.{ 5.5.5.5.5.5.{ 5.5.5.5.5.5. .( ( P 1 > # 0 ",
"v.H P _ ] { { 5.5.{ 5.5.{ 5.5.5.5.5.{ 5.{ ; . < ( _ 5.5.J   1 5.H . < 5.( X - 5._ o - { ] # O ] ( o -  .5.5.5.5.5.5.5.5.5.5.5. .5.5.5.] _ ( J 1 > # 0 ",
"v.H P ( ] { { { 5.5.5.5.5.5.5.5.5.5.5.5.{ : X P 5.7.5.5.P X ; ( ; . J 5._ + + U < X > {  .: X < < . - { 5.5.5.5.5.5.{ 5.5.5.5.5.{ 5.5.{ ] ( P 1 > # 0 ",
"v.1 U ( ] 5.5.5.5.5.5.{ 5.5.5.5.5.5.5.5.} > o U 5.5.5.5.] ; X O o : ] 5.] < o o X = ( } 5.J o X + O - { { 5.{ 5.5.5.5.5.5.5.5.5.5.5.{ ] _ ( P 1 > # 0 ",
"v.1 P ( ] { { { 5.5.5.5.5.5.5.{ { 5.5.5. ._ J ] 5.5.5.5.7._ P J J  .5.5.5.{ U H J _ 5. .5.{ U J ( ( ( 5.5.5.5.5.5.{ 5.5.5.5.5.5.5.5.5. ._ U P H > # 0 ",
"v.1 U ( ] { { 5.5.{ 5.5.{ 5.5.5.5.5.5.{ 5.5.5.5.5.5.5.5.5.5.5.5.5.5.5.5.5.5.5.5.5.5.5.5.5.5.5.5.} 5.5.5.5.{ 5.5.5.5.5.5.5.5.{ 5.5.5.5.] _ ( P < > # 0 ",
"v.1 P ( ] { { 5.5.5.5.5.5.5.5.5.5.5.5.5.5.5.5.5.5.5.5.{ 5.5.5.5.5.5. .5.5.5.5.5.5.5.5.5.5.5.5.5.5. .5.5.5.5.5.5.{ 5.5.{ 5.5.5.5.5.5.5.] _ ( P H > # 0 ",
"v.H P _ ] { { 5.5.5.5.5.5.5.5.5.5.5.5.5.5.5.5.5.5.5.5.5.5.5.{ 5.5.5.5.5.5.5.5.5.5.5.5.5.5.5.5.5.5.5.5.5.5.{ 5.5.5.5.5.5.5.{ 5.5.5.5.5.{ _ ( P < > # 0 ",
"v.H P ( ] { { 5.5.5.5.6.{ { { 5.5.5.{ 5.5.5.5.5.5.5.5.5.5.5.5.5.5.5.5.5.5.{ 5.5.5.5.{ 5.5.5.5.5.( ( { 5.5.5.5.5.5.5.5.5.5.5.5.5.5.5.{ ] _ ( P 1 > # 0 ",
"v.1 P ( ] { { 5.5.5.5.( > : > 1 _ { 5.5.5.5.5.5.5.5.5.5.5.5.5.5.5.5.5.5.5.5.5.5.5.5.{ 5.5.5.5.] @ ;  .5.5.5.5.5.5.5.5.{ 5.5.5.5.5.5.5.] _ ( P H > # 0 ",
"v.1 P ( ] { { 5.{ 5.5.>   o o   # ] 5.5.5.5.5.5.5.5.5.5.5.5.5.5.5.5.5.5.5.5.5.5.5.5.5.5.5.5.5. .o # ] 5.5.5.5.5.5.5.5.5.5.5.5.5.5.5.5. ._ ( P < > # 0 ",
"v.H P ( ] { { { { 5.5.,   < U # . H 5.{ U J J H ] 5.5._ 1 < J  .5.5.{ U J U < < _ { 5.5. .J , H o = [ 5. .H U 1 J  .6.{ U < < P 5.5.5.{ _ U P 1 > # 0 ",
"v.1 P ( ] { { 5.5.5.5.,   3 { -   H 5. .= X X + U 6.( + o O X , { 5.{ : X O X   ;  .5.{ , . X o   @ [ 5._ O X . = ] 5.P + o o O H 6. .] _ ( P H > = 0 ",
"v.H P ( ] { 5.5.5.5.{ ,   = : X O ( 5.] = . : P ] 5.:   < U O + ] 5.{ :   ; H O o ) 5._ O o J < . # ] 5.] O   > U {  .= o H J X # ] 5.] _ ( P < > # 0 ",
"v.H P _ ] { {  .5.5.{ <   X O # H { 5. .= X ) 5.5. .#   O + X + _ 5.{ : X J 5.= o ( 5.( X # ] | o # ] 5.[ + O _ 5.5._ + . O + X = ] 5.] _ ( P 1 > # 0 ",
"v.1 U ( ] { 5.5.5.5.5.<   > ( _ 6.5.5. .= o _ 5.5.{ = . > H H P  .5.{ : X J 5.= o U 5.( o + _ [ o @ [ 5.] + @ ] 5.5.] + o < H H T { 5. ._ ( P 1 > # 0 ",
"v.1 P ( ] { { 5.5.5.5.<   1 5.5.5.5.5.] - X _  .5.5., . ; H < H { 5.{ > . P { - o ( 5.[ # . : =   @ _ 5.[ @ + ` 5.5.{ - . : H < P 5.5.{ _ ( P 1 > = 0 ",
"v.1 P ( ] { { 5.5.5.5.< o 1  .5.5.5.5. .; + _ 5.5.5.U @ o o o : { 5.5.> O P } : + ( 5.5.< X X O O # _ 5.] # # _ 5.5.5.J O o O o , { 5.] ( ( J 1 > # 0 ",
"v.1 U ( ] { 5.{ { 5.5.T , U 5.5.{ 5.5.{ H < | 5.{  .U < J R U _ { 5.{ J , _  .J < ] 5.[ H < U U < <  .5.| < 1 [ { { { J < T U ( _  .5.] ] ( P 1 > # 0 ",
"v.H U ( ] { ] {  . . .( H T ) `  . . . .J K [ {  . .T H J R U U  . . .R H )  .T H ` { | H J  . .J K |  ._ J J  .|  .| T H U U R )  . . ._ ( P 1 > # 0 ",
"v.H P ( ]  .| | | | | ~ K K T K ~ | | | R K O.| | | R K R ~ ! T O.| | ~ T ` | ! T O.| O.T ! O.` T T | | | ! T O.| | | T K ~ R T T | | | ` ( P 1 > # 0 ",
"v.1 P ( ] O.O.O.O.O.O.~ ! o.o.~ ! O.O.O.~ ! ~ ~ o.O.o.! ~ o.~ ! O.O.O.~ ! ~ ~ ~ ~ O.O.O.~ ! o.~ ! ! O.O.O.! ! ~ o.O.O.~ ! o.~ ! ~ O.O.o.O.o.P < > # 0 ",
"v.1 P ( ! W ! ! ! ! ! W W W W W W W W ! W W W W W W W W W W W ! W ! W W W W W W W W ! W ! W W W W W W ! W W W W W ! W W W W W W W W ! W ! ! K 1 > # 0 ",
"v.1 J 3 2 2 2 2 2 2 2 2 2 2 2 2 2 2 2 2 2 2 2 2 2 2 2 2 2 2 2 2 2 2 2 2 2 2 2 2 2 2 2 2 2 2 2 2 2 2 2 2 2 2 2 2 2 2 2 2 2 2 2 2 2 2 2 2 2 2 2 2 > # 0 ",
"v.H Q 5 5 5 5 5 5 5 5 5 5 5 5 5 5 5 5 5 5 5 5 5 5 Q 5 5 5 5 5 5 5 5 5 5 5 5 5 5 5 5 5 5 5 5 5 5 Q 5 5 5 5 5 5 5 5 5 5 5 5 5 5 5 5 5 5 5 5 5 5 5 4 - 0 ",
"m.^ %.%.%.%.%.%.%.%.%.%.%.%.%.%.%.%.%.%.%.%.%.%.%.%.%.%.%.%.%.%.%.%.%.%.%.%.%.%.%.%.%.%.%.%.%.%.%.%.%.%.%.%.%.%.%.%.%.%.%.%.%.%.%.%.%.%.%.%.%.%.%.Q w "
};
