/* XPM */
static char *prendre_d[] = {
/* columns rows colors chars-per-pixel */
"75 75 206 2",
"   c #000500",
".  c #000B00",
"X  c #011301",
"o  c #011B01",
"O  c #012401",
"+  c #012B01",
"@  c #023302",
"#  c #013E01",
"$  c #034403",
"%  c #034B03",
"&  c #04460A",
"*  c #08460C",
"=  c #054B0A",
"-  c #035305",
";  c #035B04",
":  c #05540A",
">  c #08530E",
",  c #055B0B",
"<  c #085B0D",
"1  c #055511",
"2  c #045C13",
"3  c #025D18",
"4  c #016401",
"5  c #026D03",
"6  c #05640B",
"7  c #09630C",
"8  c #056A0C",
"9  c #096B0C",
"0  c #027402",
"q  c #027E02",
"w  c #04730C",
"e  c #09760E",
"r  c #057C0D",
"t  c #0F7E0F",
"y  c #056412",
"u  c #086210",
"i  c #046C12",
"p  c #086F11",
"a  c #06631A",
"s  c #066D19",
"d  c #126B12",
"f  c #047314",
"g  c #087515",
"h  c #047C14",
"j  c #087C13",
"k  c #05741C",
"l  c #08731A",
"z  c #037C19",
"x  c #087C1A",
"c  c #117511",
"v  c #066F2B",
"b  c #057622",
"n  c #067D23",
"m  c #03742B",
"M  c #09762A",
"N  c #037C2C",
"B  c #047B32",
"V  c #4D654D",
"C  c #4D6C4D",
"Z  c #028302",
"A  c #028B02",
"S  c #05820D",
"D  c #0A830A",
"F  c #0B8D0B",
"G  c #019401",
"H  c #039C03",
"J  c #079309",
"K  c #0D920D",
"L  c #069A08",
"P  c #0A9B0B",
"I  c #048415",
"U  c #0B8613",
"Y  c #058A14",
"T  c #088A12",
"R  c #038219",
"E  c #08841C",
"W  c #058B1A",
"Q  c #128D12",
"!  c #07921C",
"~  c #09921C",
"^  c #059A1D",
"/  c #089B1D",
"(  c #129312",
")  c #139A13",
"_  c #02A402",
"`  c #04AD04",
"'  c #07A409",
"]  c #09A30B",
"[  c #06AC09",
"{  c #0AAB0B",
"}  c #04B404",
"|  c #04BC04",
" . c #07B408",
".. c #0CB40C",
"X. c #07BC0B",
"o. c #08BC0A",
"O. c #03A115",
"+. c #03AA18",
"@. c #09AD1D",
"#. c #11A611",
"$. c #12AD12",
"%. c #0AB514",
"&. c #09BA12",
"*. c #04B61C",
"=. c #0AB21C",
"-. c #09B918",
";. c #13B913",
":. c #058526",
">. c #048925",
",. c #05842B",
"<. c #08812E",
"1. c #058C2B",
"2. c #088F2C",
"3. c #059424",
"4. c #079A26",
"5. c #099E26",
"6. c #06952C",
"7. c #09902E",
"8. c #049C2D",
"9. c #0A9B2C",
"0. c #13992F",
"q. c #038332",
"w. c #088535",
"e. c #048C32",
"r. c #098C31",
"t. c #0A8738",
"y. c #058F38",
"u. c #0A8E3C",
"i. c #059334",
"p. c #099234",
"a. c #059B34",
"s. c #0A9C35",
"d. c #06943A",
"f. c #0A943C",
"g. c #069A3A",
"h. c #0D993B",
"j. c #229622",
"k. c #0BA424",
"l. c #05A923",
"z. c #0AAC22",
"x. c #0AA42B",
"c. c #0BA829",
"v. c #04B623",
"b. c #05BE28",
"n. c #05A335",
"m. c #0CA331",
"M. c #0CAD35",
"N. c #04A43C",
"B. c #09A13D",
"V. c #05A93D",
"C. c #09AE3A",
"Z. c #11A832",
"A. c #06B63B",
"S. c #0BB73A",
"D. c #0BBD3E",
"F. c #05C005",
"G. c #05C805",
"H. c #07C10A",
"J. c #09C20C",
"K. c #0ECA0E",
"L. c #08C411",
"P. c #0AC31A",
"I. c #13C713",
"U. c #11CE11",
"Y. c #1AC91A",
"T. c #16D416",
"R. c #16DA16",
"E. c #18DC18",
"W. c #04C524",
"Q. c #0DC425",
"!. c #05C32A",
"~. c #06CC2B",
"^. c #0CC82B",
"/. c #05D42C",
"(. c #03DB2E",
"). c #11C631",
"_. c #16CE33",
"`. c #0AD333",
"'. c #05DD31",
"]. c #06E52F",
"[. c #04EC34",
"{. c #07ED38",
"}. c #24E324",
"|. c #2DEE2D",
" X c #2EF12E",
".X c #33F533",
"XX c #079340",
"oX c #05A343",
"OX c #09A747",
"+X c #04AD44",
"@X c #07A348",
"#X c #03AC4C",
"$X c #0BBB42",
"%X c #4F9B4F",
"&X c #519F51",
"*X c #4CB64C",
"=X c #4CBC4C",
"-X c #77A377",
";X c #07C544",
":X c #0FD645",
">X c #4DC04D",
",X c #5EC35E",
"<X c #61C861",
"1X c #7DC67D",
"2X c #90B890",
"3X c #8BC78B",
/* pixels */
"3X=X>X>X=X>X>X>X>X>X>X>X>X>X=X>X>X>X>X>X>X>X>X>X>X>X>X>X>X>X>X>X>X>X=X>X>X>X>X>X=X>X>X=X>X>X>X>X>X>X>X>X>X>X>X>X>X>X>X>X=X>X>X>X>X>X>X>X>X>X=X>X>X*X-X",
"%XG } | | } | } } | } | | } } | } } | } } | } | | } } | } | | } } | } | | } } | | | | } } | } | | } } | } | | } } | } | | } } | } | | } } | } | } 5 C ",
"&XZ ` G.G.G.G.G.G.G.G.G.G.G.G.G.G.G.G.G.G.G.G.G.G.G.G.G.G.G.G.G.G.G.G.G.G.G.G.G.G.G.G.F.G.G.G.G.G.G.G.G.G.G.G.G.G.G.G.G.G.G.G.G.G.G.G.F.G.G.G.F.A $ V ",
"%XZ G | R.E.E.E.E.E.R.E.E.E.R.E.E.E.E.E.E.E.R.E.E.E.E.R.E.E.E.E.E.E.R.E.E.E.E.R.E.E.E.E.E.E.R.E.E.E.E.R.E.E.E.E.E.E.R.E.E.E.E.R.E.E.E.E.E.E.R._ 4 $ V ",
"%Xq G ` T. X.X.X.X.X.X X X.X X.X.X.X.X.X.X.X.X.X X X.X.X.X X.X.X.X.X.X X X.X X.X.X.X.X.X.X.X.X.X X X.X.X.X X.X.X.X.X.X X X.X X.X.X.X.X.X X|.;.Z 4 # V ",
"&Xq H _  .E..X.X.X.X.X.X.X.X.X.X.X.X.X.X.X.X.X.X.X.X.X.X.X.X.X.X.X.X.X.X.X.X.X.X.X.X.X.X.X.X.X.X.X.X.X.X.X.X.X.X.X.X.X.X.X.X.X.X.X.X.X.X.XY.G q 4 # V ",
"%Xq J _ } F.T.}.}.}.}.}.}.}.}.}.}.}.}.}.}.}.}.}.}.}.}.}.}.}.}.}.}.}.}.}.}.}.}.}.}.}.}.}.}.}.}.}.}.}.}.}.}.}.}.}.}.}.}.}.}.}.}.}.}.}.}.}.I._ G q 4 # V ",
"%Xq G _ } | F.K.U.T.U.U.U.K.T.T.U.U.U.U.U.U.U.U.T.T.K.K.T.T.K.U.U.T.U.U.U.K.T.T.U.U.U.U.U.U.U.U.T.T.K.K.T.T.K.U.U.T.U.U.U.K.T.T.U.U.U.J.` _ G q 4 $ V ",
"&XZ G ` } F.| F.F.F.F.F.F.F.H.F.F.F.F.F.F.F.F.J.F.F.F.F.F.F.F.F.F.F.F.F.F.F.F.F.J.F.F.F.F.F.H.F.F.F.H.F.H.F.F.H.F.F.F.F.F.F.H.F.F.F.F.| } _ A q 4 # V ",
"%XZ G _ } | | F.F.F.F.F.F.F.F.F.F.F.F.F.F.F.F.F.F.F.F.F.F.F.F.| F.F.F.F.| F.F.F.F.F.F.F.F.F.F.F.F.F.F.F.F.F.F.F.F.F.F.F.F.F.F.F.F.| F. ._ _ G q 4 # V ",
"%Xq H _ } | | F.F.F.F.F.F.F.F.F.F.F.F.F.F.F.F.F.F.F.F.F.F.F.F.F.F.F.F.F.F.F.F.F.F.F.F.F.F.F.| H.F.F.F.F.F.| F.F.F.F.F.F.F.F.F.F.F.F.| | } _ G q 4 $ V ",
"&XZ G _ } | F.| F.F.F.F.F.| F.F.F.F.F.F.F.F.F.F.F.F.F.F.F.F.F.F.F.F.F.F.F.F.F.| F.F.F.F.F.F.F.| F.| F.F.| F.F.F.F.F.F.F.F.F.| F.F.F.F.| ` _ G q 4 # V ",
"%Xq J _ } | F.F.F.F.F.| F.F.F.F.o.[ [ } [ ` ` [ .. .` ' ] ' [ [ [ ' [ ' ] ' ' ' ] L G J L L ] ] J L J A Z K { F.F.F.F.F.F.F.F.| F.F.F.| ` H G q 4 $ V ",
"%Xq G _ } | F.F.F.F.F.F.F.F.F.{ e 4 9 e w 7 7 j U D D e 9 9 e r r r r j e S r S S r 9 6 6 9 8 9 g U j < > g x ] o.F.F.F.F.F.F.F.F.F.|  .` _ G q 4 # V ",
"&XZ G ` } | | F.F.F.F.F.F.F. .U < $ $ % % = % , f f h p ; ; 8 w e q w r r r S S D j 7 < - < < 7 R S r g > 1 f x ] | F.F.F.F.F.F.F.| | | } _ G q 4 # V ",
"%XZ G _ } | F.F.| F.F.F.F.F.' 7 , % $ , 6 7 6 i f f k p , 6 ; ; - - ; ; ; 4 4 6 5 6 ; < 7 6 = y R R I g 6 & : 2 U | F.F.| F.F.F.F.F.F.| _ _ G q 4 # V ",
"%Xq G ` } F.| F.F.F.F.F.F.F.-.g = % % 6 i i i i f i i w 8 p 8 6 , ; ; , ; ; ; ; 4 6 7 - $ % $ 6 Y R R h , $ = > w  .F.F.F.F.F.| F.F.| | } _ A q 4 # V ",
"&Xq G ` } | | F.F.F.| F.F.F.-.E % : g W ! ! ! 4./ ~ ! ! Y Y Y T R h h f f f w f f j E p - $ $ 6 I 5 6 , % = & * ; ' F.F.F.F.F.F.F.F.F. ._ _ G q 4 $ V ",
"&Xq J _ } | F.F.F.F.F.F.F.F.H.x., , / !.~./.(.{.[.[.[.].~.*.+.O.J Y r w 8 4 4 6 4 6 7 < = $ % i h 6 % % 1 s 1 # ; [ | F.F.F.F.F.F.F.| | } _ G q 4 # V ",
"%Xq G _ } | | F.F.F.| F.F.F.H.S.g : R k.b.!.~./.(.'.(.(.(.(.~.W.v.l.^ W R h f w 8 , & # # $ 8 h r , , f y 1 1 < w ..F.F.| F.F.F.F.F.| } ` _ G q 4 # V ",
"%Xq G ` } | F.F.F.F.F.F.F.F.H.).:.: f R R W W 3.3.! ! R R U I W R R R h x x h x x p < > < w r S w 8 y 2 $ # = g D  .F.F.F.F.F.F.F.F.| | ` _ G q 4 $ V ",
"%XZ H _ } F.F.| | F.F.F.F.| H.).1.: i z z z z z R z g < # @ @ @ # @ # # # & $ % - > : < z W r w i y 1 & @ & & = 6  .F.F.F.F.F.F.F.F.F.| ` _ G q 4 # V ",
"%XZ G _ } | | F.F.F.F.F.F.F.H.).s.; i z z z R R R R h x < # # # # # @ $ # $ $ $ $ % % i Y Y h y 6 ; & & @ @ * 1 8 [ F.F.F.F.F.| F.F.F.} ` _ A q 4 $ V ",
"&Xq H _ } | | F.F.F.F.F.| F.F.^.C.i 8 z h h h R R R R R x < : - > - - - - = : - - > 6 i w j g % 6 , $ # @ # 1 3 p [ F.F.F.F.F.F.F.F.| | ` _ G q 4 # V ",
"&Xq J _ } F.| F.F.| F.F.F.F.| P.A.h g h z z z z R z z z z p 6 6 6 6 6 8 6 9 9 8 8 ; 6 4 w I 8 % 6 6 & # @ # 1 1 i ` F.F.F.F.F.F.F.F.F.} ` _ G q 4 $ V ",
"%Xq G _ } | F.F.F.F.F.F.F.F.F.P.D.>.R R h k f z f f i f 8 6 ; ; ; ; ; 4 4 4 8 8 w w w 9 r S w < e w > = # & 2 2 i  .F.F.F.| F.F.F.F.F.| ` _ G q 4 # V ",
"&XZ G ` } | | F.F.| F.F.F.F.F.L.:X6.R h f y y i i y y i , - - - - ; ; ; ; 6 4 6 8 w S r S h w 6 w h 7 = # & 2 3 f  .| F.F.F.F.F.F.| F.} ` _ G q 4 # V ",
"%XZ G _ } | F.F.F.F.F.F.F.F.F.H.:Xn.z i y 2 2 6 6 y , $ # $ % % $ % $ $ % % % % - - 4 h Y 5 - , w w y = @ & 3 3 i  .F.F.F.| F.F.F.F.F.| ` _ G q 4 # V ",
"%Xq G _ | | | F.F.F.F.F.F.| F.F.`.A.z y 2 3 y i k b a 3 3 2 2 , , : : % $ & $ $ $ $ $ % j j < - w 8 < = = y a 3 l  .F.F.F.F.F.F.F.F.F.} ` _ G q 4 # V ",
"&Xq H _ } | | F.F.F.F.F.F.F.F.F./.;Xz b y y i k e.i.i.i.y.e.q.,.,.,.N N n n b b b s i i f W h i I h - > s z 1.:.9.%.F.F.F.F.F.| | F.F.| ` _ A q 4 $ V ",
"&Xq J _ } | F.F.F.| F.F.F.F.F.| _.$X:.a.1.b ,.i.i.i.i.e.q.q.,.q.q.B B q.q.B q.q.q.q.q.,.1.e.,.N 1.f , - 8 k 6.8.9.X.F.F.F.F.F.F.F.F.F.} ` _ G q 4 # V ",
"%Xq G _ } F.| F.F.F.F.F.F.F.F.F.Q.$Xa.6.a.N.V.N.n.6.>.1.>.N N N N N N N B B B B m N B m N q.,.m q.<.M 1 % y >.8.9...F.| F.F.F.F.F.F.F.| ` _ G Z 4 # V ",
"%XZ H _ } | | F.F.F.F.F.| F.F.F.L.S.V.6.N ,.e.<.,.1.6.7.2.2.>.,.,.:.,.:.>.,.>.,.>.,.,.:.N q.i.i.<.B B m & = x 8.x...F.F.F.F.| F.F.F.F.| ` _ G q 4 # V ",
"%XZ G _ } | F.F.F.F.F.| F.F.F.F.o.&.M.a.B v m m ,.e.a.a.r.p.r.r.i.i.d.a.g.a.n.a.a.8.9.8.6.p.OX#XXX1.m B v u n 6.m.&.F.F.F.F.F.F.F.| F. .` _ G q 4 # V ",
"%Xq G ` } | | F.F.F.F.F.F.F.F.F.F.F.&.k.5.6.7.p.1.r.s.p.t.2.,.w.q.<.<.<.<.q.q.w.t.i.g.g.N.B.B.+X#XN.4.>.q.<.:.>.x.&.F.F.| F.F.F.F.F.F.} ` _ A q 4 # V ",
"&XZ G _ } F.| F.F.| F.F.F.F.F.o.F.F.F.F. .X.&.-.=.z.c.Z.m.s.h.f.f.u.u.u.t.t.w.w.B w.N q.7.a.2.2.y.@XoXa.:.M n k 5.X.| F.F.F.F.F.F.F.F.| } _ G q 4 $ V ",
"%Xq J _ } | F.F.F.F.F.F.F.F.F.F.F.F.| F.F.F.F.F.F.F.| o.o.X.%.%.=.z.c.x.x.s.g.d.f.f.f.f.f.p.r.r.n 1.oX@Xe.b s s ~ X.F.F.F.F.F.F.F.F.F.} _ _ G q 4 # V ",
"%Xq G _ } F.| F.F.F.F.F.F.F.F.F.F.F.F.F.F.F.F.F.H.F.F.F.F.F.F.F.F.F.F.F.X.X.X.%.@.@.k.x.m.B.s.h.p.6.9.i.XXN g U %.F.F.F.F.F.F.F.| F.F.| } _ G q 4 # V ",
"%XZ H _ } | | F.F.F.| F.| F.F.F.| F.F.F.F.F.F.F.F.F.F.F.F.F.| F.F.F.F.| F.F.o.F.F.F.F.o.o.o.&.-.@.@.z.k.0.s./  .F.F.| F.F.F.| F.F.F.| | ` _ G q 4 # V ",
"%XZ H _ } | F.| F.F.F.F.F.F.F.F.F.F.F.F.F.F.| F.F.F.F.F.F.F.F.F.F.| F.F.F.F.F.F.F.F.F.F.F.o.F.F.| F.F.H.o.o.F.F.F.| F.F.F.F.F.F.F.F.F.} ` _ G q 4 $ V ",
"%Xq G _ | | F.F.F.F.F.F.F.F.F.F.F.F.F.F.F.F.F.F.F.F.F.F.F.F.F.F.F.F.F.F.F.F.F.F.F.F.F.F.F.| F.F.F.F.F.F.F.F.F.F.F.F.F.F.F.F.F.F.F.F.F.| } _ A q 4 $ V ",
"&Xq H _ } | | F.F.| F.F.F.| F.| F.F.F.F.F.| F.F.F.F.F.| F.F.F.F.F.F.F.F.F.F.F.F.| F.F.F.F.F.F.F.F.| F.F.F.F.F.F.F.F.F.F.F.| F.F.F.F.|  .` _ G q 4 # V ",
"&Xq J _ } | F.F.F.F.F.F.F.F.F.F.F.F.| F.F.F.F.F.F.F.F.F.F.F.| F.F.F.| F.F.| F.F.F.F.F.F.F.F.F.| F.F.F.F.F.F.F.| F.F.| F.F.F.F.F.F.| F.} ` _ G q 4 # V ",
"%Xq G _ } | | | F.F.F.F.F.F.F.F.F.F.F.F.F.| F.F.F.| F.F.F.F.F.F.F.F.F.F.F.F.F.F.F.F.| F.F.F.F.F.F.F.F.F.F.| F.F.F.F.F.F.F.| F.F.F.F.F.| ` _ G q 4 # V ",
"&XZ G _ } G G  .F.F.F.F.F.F.F.F.F.F.F.F.F.F.F.F.F.F.F.F.F.F.F.F.F.F.F.| F.F.F.F.F.F.F.F.F.F.F.F.F.o.F.F.F.F.F.F.F.F.F.F.F.F.F.F.F.F.F.} ` _ G q 4 # V ",
"%XZ G _ } A q } F.F.F.F.F.F.F.F.F.F.F.F.F.F.F.F.F.| F.F.F.F.F.F.F.F.F.F.F.F.F.F.F.F.F.F.F.F.F.F.F.F.F.F.F.| F.F.F.F.F.F.F.F.F.F.F.F.F.| ` _ A q 4 $ V ",
"%Xq A G G A q } F.F.} ` H [ | F.F.| ` ` ' [ | F.o.` H _ } F.F.F.` } F.} [ F.F.F.` } ` H } ` _ ` | F.F.| [ _ _ } F.F.F.} ` ` ' | | F. ._ G G G q 4 $ V ",
"&Xq 0 0 q q q } F.| G q Z 0 H F.F.| Z 0 q G | F.H q Z q A | F.} 0 G F.H Z } F. .q 0 q 0 q q q 5 ` F.F._ q Z 0 Z } F.| H 0 q Z } F.| Z q q 5 Z q 4 # V ",
"%X0 q A H A q } | } q A H Z Z | F.| A q H } F.F.} _ _ A q } F.} Z H } _ Z  .G.} A q _ G q H H q G F.| A Z H G q ` | F._ 0 G `  .F._ q G A q 0 q 4 # V ",
"%X0 0 G } A q } F._ q q Z Z G } F.F.G Z } o.F.F.` Z Z Z 0 ` F.} Z G F.H Z } F.} A G  .G 0 } ` q G o.} A 0 Z Z Z ` F.F.H q ` F.G.F.H 0 q Z Z q q 4 # V ",
"%Xq 0 A _ A q } F. .q A ` [ ` | F.| A Z } F.F.| A Z _ A q ` G.} Z A } A Z } F.} A A | H q ` ` Z G F.| A q _ ` `  .F.F.H q ` F.F.F._ 0 A G G A q 4 # V ",
"%Xq Z 5 q Z q } F.| G 0 Z Z G | F.| A A | F.F.} G q Z q Z ` F.} G 0 q Z Z } G.| A G } H q } ` Z G o.| _ q Z Z Z } F.F._ Z ` F.F.| } A q Z q q q 4 $ V ",
"%Xq A G A G G } F.F.` G G G H | F.| H H | F.F.| ` G A G G } G.| _ G G G G } F. .H _ | _ G | } H _ F.F.} H G A H } F.F.` G } F.F.F. ._ G A A Z q 4 # V ",
"&Xq G H _ ` ` | F.| } } } }  .F.F.F.} } | F.F.F.} ` } } }  .F.| } ` } } } F.F.| } }  .} ` |  .` } F.F.} ` } } | | F.F.} } } F.F.| | } ` _ G G q 4 $ V ",
"&Xq G _ | } } | F.| } } | } | F.F.o.| } | F.F.| } } } } } | F.| | } | } } F.F.| } } F.| } | | } | F.| } } | } | F.F.F.| } | F.F.| | } } _ _ G q 4 # V ",
"%Xq G _ } } | | F.| | } | | } | F.| | | | F.F.F.F.| | | } F.F.F.| | F.F.} F.F.| | | | | } | | | o.| F.| } } | } | F.F.F.} | F.F.F.| } } _ _ G q 4 # V ",
"%Xq G _ } | | F.F.F.| | | | | F.o.| | | | F.F.F.| | o.| | | F.F. .F.| | F.| F.F.| | | | | o.| | F.F.F.F.| | | | F.F.F.F.| | | F.F.F.| } } _ G q 4 # V ",
"%XZ H ` } | | | F.F.F.F.F.o. .} } | F.F.F.F.F.| F.F.F.F.F.F.F.| F.F.F.F.F.F.F.F.F.F.F.F.F.F.F.F.F.} 5 Z F.F.F.F.F.F.F.F.F.F.F.F.F.F.F.} ` _ A q 4 # V ",
"%XZ G _ } | F.F.F.F.F.F.| 5 O o O $ G o.F.F.F.o.F.F.F.F.F.F.| F.F.F.F.F.F.F.F.F.F.F.F.F.F.F.F.| F.` . - | F.F.F.F.F.F.F.F.F.F.F.F.F.F.| ` _ G q 4 $ V ",
"&Xq G _ } | | F.F.F.| F.| -   % % . + _ F.F.| | | } F.F.F.F.}  .| F.F.F.F.|  .|  .} F.F.F.F.F.| } ' X - | F.o.| | }  .F.F.F.| } } F.F.} ` _ G q 4 # V ",
"&Xq J _ } | F.F.F.F.F.F.F.; . A  .$ . A G.} 4 ; % ; } F.} 0 @ @ ; ` F.F.| 0 - 4 @ $ H | F.F.G % @ ; . % } G.` % 5 @ 0 F.F.} 4 @ # 5  .| ` H G q 4 # V ",
"%Xq G _ } | | F.| F.F.F.| ; . A _ @ o L F.[ +   o - ` F.q X % ; . ; | F.} $   O @   $ } F.} $ . @ O   % | F._ X . O ; o.| ; . ; # . 0  .` _ G q 4 # V ",
"%XZ G _ } F.F.| F.F.F.F.o.;   + @ . - } F.} @ o A } | } # X 5 5 X + } G. .$ X q _ O O ` G.H X $ [ A . $ o.F._ o + ' } F.[ O O q 4   % } } _ G q 4 # V ",
"%XZ G ` } | | F.F.F.F.| | 4   + $ 5 ` F.| } @ +  .F.F.} + . + @ + % } G.| % o H o.@ + [ G.A X - F.` X % | | [ o $ } F.F.H O X + @ O ; } ` _ G q 4 $ V ",
"%XZ H _ | | F.F.F.F.F.F.o.4 . A o.| F.F.F.} # +  .o.F.| @ X A ] ] ` o.F.| % o L | @ O ` F.L X # { A . $ } F.` O # | o.F.` O + J _ H ` } ` _ G q 4 $ V ",
"&Xq G _ } | F.| F.F.F.F.o.4 . A | F.F.F.F.} # O } F.F.| 0 X @ ; $ 5 F.F.| % o H F.# O ` F.` #   + O . $ | F.` O # | F.F.| -   # ; $ A | } ' G q 4 # V ",
"&Xq J _ } | | F.F.F.F.F.o.5 @ L F.F.F.F.F.} % % } o.F.o.J % @ @ # q o.F.| 4 # ' | - %  .F.| 5 + @ $ @ ; } F.' $ ; | F.G.| Z # + @ $ A } ` _ A q 4 # V ",
"%Xq G _ } | F.| o.F.o.F.| J 0 ] o.o.o.o.o.} D Z | o.o.| A 0 L  .`  .o.F...A q { o.D q  .F.{ Z D { ' 0 F o.o.[ q D | o.F...A q ] { ` ..| ` _ G q 4 $ V ",
"&XZ G _ } | o...;.........L D F P ] ........F F ........K D F F F P ......K D { ..F F $...{ D J ....D K ......D F ......$.F D F J F P ..[ _ G q 4 # V ",
"%XZ G _ }  .$.$.$.$.$.$.$.) Q ( K Q ) $.$.#.( Q #.$.$.$.) F ) P Q ) #.$.#.) K #.$.K K $.$.#.Q ) $.#.F ( $.$.#.K K #.$.$.$.K ( ) ) Q ) $.$.[ G q 4 # V ",
"%Xq G _ #.) ) ) ) ) ) ) ) ( Q ( ) Q Q ) ) ) Q Q Q ) ) ) Q Q ) ) Q Q ) ) ) ( Q Q ( Q Q ) ) ) Q Q ( Q Q Q ) ) ) Q Q Q ( ) ) ( Q ( ( Q ( ) ) ) F q 4 # V ",
"&Xq G F t t U D t t D t t t t t t t t t D t t t t t t t t t t t t t D t t t t t t t t t D t t t t t t t t D t t t t t t t t t t t t t t t t t q 4 $ V ",
"&Xr D c c c c c c c c c c c c c c c c c c c c c d c c c c c c c c c c c c c c c c c c c c c c c c c c c c c c c c c c c c c c c c c c c c c c c 9 $ V ",
"&XQ j.j.j.j.j.j.j.j.j.j.j.j.j.j.j.j.j.j.j.j.j.j.j.j.j.j.j.j.j.j.j.j.j.j.j.j.j.j.j.j.j.j.j.j.j.j.j.j.j.j.j.j.j.j.j.j.j.j.j.j.j.j.j.j.j.j.j.j.j.j.j.d C ",
"1X,X<X<X<X<X<X<X<X<X<X<X<X<X<X<X<X<X<X<X<X<X<X<X<X<X<X<X<X<X<X<X<X<X<X<X<X<X<X<X<X<X<X<X<X<X<X<X<X<X<X<X<X<X<X<X<X<X<X<X<X<X<X<X<X<X<X<X<X<X<X<X<X=X2X"
};
