/* XPM */
static char *prendre_p[] = {
/* columns rows colors chars-per-pixel */
"75 75 253 2",
"   c #000500",
".  c #000B00",
"X  c #001200",
"o  c #011D01",
"O  c #012301",
"+  c #012C01",
"@  c #023202",
"#  c #003E00",
"$  c #0C0B38",
"%  c #023C3D",
"&  c #024402",
"*  c #024B02",
"=  c #025302",
"-  c #025C02",
";  c #006400",
":  c #026B02",
">  c #0A6B0A",
",  c #047404",
"<  c #027E02",
"1  c #0F7E0F",
"2  c #067619",
"3  c #117511",
"4  c #02542F",
"5  c #024C34",
"6  c #02463B",
"7  c #025833",
"8  c #02543A",
"9  c #036629",
"0  c #037C25",
"q  c #037529",
"w  c #036432",
"e  c #08124C",
"r  c #18184D",
"t  c #070C58",
"y  c #000B5D",
"u  c #041457",
"i  c #01135B",
"p  c #171A59",
"a  c #211F52",
"s  c #012B49",
"d  c #013646",
"f  c #012352",
"g  c #1E235F",
"h  c #2A2859",
"j  c #000562",
"k  c #0D176B",
"l  c #171C66",
"z  c #161E77",
"x  c #1C2267",
"c  c #1C2477",
"v  c #26296A",
"b  c #36306B",
"n  c #242A78",
"m  c #2D3479",
"M  c #363879",
"N  c #4C3A75",
"B  c #024341",
"V  c #24546C",
"C  c #317971",
"Z  c #4D654D",
"A  c #4D6C4D",
"S  c #048304",
"D  c #038A03",
"F  c #0A830A",
"G  c #0C8D0C",
"H  c #019501",
"J  c #049B04",
"K  c #0D920D",
"L  c #099A0B",
"P  c #038716",
"I  c #048C1C",
"U  c #128D12",
"Y  c #049D15",
"T  c #049519",
"R  c #129312",
"E  c #139B13",
"W  c #02A502",
"Q  c #04AD04",
"!  c #09A70C",
"~  c #04AD0C",
"^  c #04B404",
"/  c #04BC04",
"(  c #05B30B",
")  c #0DB50D",
"_  c #05B908",
"`  c #09BD0A",
"'  c #04A312",
"]  c #06A712",
"[  c #11A411",
"{  c #12AD12",
"}  c #0DBC14",
"|  c #15BB1B",
" . c #048522",
".. c #229622",
"X. c #19B326",
"o. c #1BA437",
"O. c #25B535",
"+. c #05C005",
"@. c #08C408",
"#. c #0BC10C",
"$. c #0CC011",
"%. c #11CE11",
"&. c #16C219",
"*. c #16D516",
"=. c #18DC18",
"-. c #1EC121",
";. c #2BC132",
":. c #24E324",
">. c #2EF12E",
",. c #33F533",
"<. c #2D8D52",
"1. c #2BB54C",
"2. c #338B6C",
"3. c #3FA76F",
"4. c #4F9B4F",
"5. c #519F51",
"6. c #4ABC52",
"7. c #61B470",
"8. c #38C245",
"9. c #45C24C",
"0. c #4DC04D",
"q. c #4AC451",
"w. c #56C25C",
"e. c #44C46B",
"r. c #61C861",
"t. c #61C169",
"y. c #7DC67D",
"u. c #161C81",
"i. c #1C2888",
"p. c #1A2A98",
"a. c #1A319C",
"s. c #222B86",
"d. c #2A3588",
"f. c #383A84",
"g. c #29389A",
"h. c #323C97",
"j. c #1C32A8",
"k. c #2A3AA9",
"l. c #2A3BAE",
"z. c #384C8C",
"x. c #3A489A",
"c. c #3C719D",
"v. c #2F43A5",
"b. c #3749A6",
"n. c #3D53AB",
"m. c #2B45B6",
"M. c #3448B6",
"N. c #3954B8",
"B. c #464B88",
"V. c #444A98",
"C. c #4F5790",
"Z. c #48549A",
"A. c #4B6896",
"S. c #6A6C9B",
"D. c #4A59A7",
"F. c #4E58A9",
"G. c #4558B6",
"H. c #4A65A7",
"J. c #5665AB",
"K. c #4B6BB2",
"L. c #5867B6",
"P. c #5875B8",
"I. c #636CAD",
"U. c #6B6CB0",
"Y. c #6574B9",
"T. c #747AB7",
"R. c #273DCE",
"E. c #2F4DC1",
"W. c #2D52CD",
"Q. c #3451C4",
"!. c #3A57C6",
"~. c #3455CB",
"^. c #3B5ACD",
"/. c #2C53D3",
"(. c #3458D4",
"). c #3C5DD2",
"_. c #3C62D8",
"`. c #3555E3",
"'. c #3A66E6",
"]. c #445BC9",
"[. c #4259D2",
"{. c #4863CB",
"}. c #556BC7",
"|. c #5974CA",
" X c #4264D3",
".X c #496BD6",
"XX c #556DD5",
"oX c #4D72DB",
"OX c #5577D9",
"+X c #6376C6",
"@X c #6D7CCF",
"#X c #527BE6",
"$X c #607FE6",
"%X c #937AB0",
"&X c #2F9580",
"*X c #45918E",
"=X c #6C9F8F",
"-X c #51AB8C",
";X c #76B490",
":X c #5290A6",
">X c #6A8AB0",
",X c #54B4A3",
"<X c #69B5B0",
"1X c #6FC798",
"2X c #5C82D6",
"3X c #6783CB",
"4X c #7986C8",
"5X c #6788D8",
"6X c #748DD8",
"7X c #7798DA",
"8X c #6AB0CA",
"9X c #5C84E7",
"0X c #668AE7",
"qX c #6C93E8",
"wX c #6F94EF",
"eX c #7498E3",
"rX c #78A4F7",
"tX c #6DC1C0",
"yX c #88BA94",
"uX c #8684BC",
"iX c #89B5A7",
"pX c #8AB1B5",
"aX c #98B6B8",
"sX c #9FC4AA",
"dX c #96C3B1",
"fX c #858BC7",
"gX c #988BC4",
"hX c #8A95CD",
"jX c #8797D3",
"kX c #979AD4",
"lX c #A49CCB",
"zX c #93AAD4",
"xX c #ABA2CA",
"cX c #B2A7CB",
"vX c #A5A6D6",
"bX c #B6ACD1",
"nX c #AEB7D3",
"mX c #BCB6D4",
"MX c #879DE5",
"NX c #87A9E6",
"BX c #8FB1EE",
"VX c #89B5FB",
"CX c #95B6F5",
"ZX c #A5BAE6",
"AX c #B0C7D4",
"SX c #9DC6E9",
"DX c #B2CCF4",
"FX c #B7CCFA",
"GX c #C6D4F1",
"HX c #C7E3FD",
"JX c #D9E8FB",
"KX c #E9F6FF",
"LX c #F8FDFF",
/* pixels */
"yX6.0.0.9.6.0.9.0.6.9.0.0.6.6.0.9.0.0.6.0.0.9.0.0.6.0.0.9.9.0.0.0.0.9.0.0.6.0.0.9.9.0.6.0.0.9.0.0.6.0.0.9.9.0.0.0.0.9.0.0.6.0.0.9.0.0.6.0.0.9.0.0.6.7.",
"5.J ^ / / +./ ^ ^ / / +./ / ^ / / +./ ^ ^ / / +./ / ^ / +.+./ ^ ^ / / +./ / ^ / +.+./ / ^ / / +./ / ^ / +.+./ ^ ^ / / +./ / ^ / / +./ ^ ^ / / +.^ : Z ",
"4.S Q +.+.+.@.@.@.+.+.@.@.+.+.+.@.@.@.@.+.+.+.@.@.+.+.+.@.@.@.+.+.+.+.@.@.+.+.+.@.@.@.+.+.+.+.@.@.+.+.+.@.@.@.+.+.+.+.@.@.+.+.+.@.+.@.@.+.+.+.+.D & Z ",
"4.< J +.=.=.=.=.=.=.=.=.=.=.=.=.=.=.=.=.=.=.=.=.=.=.=.=.=.=.=.=.=.=.=.=.=.=.=.=.=.=.=.=.=.=.=.=.=.=.=.=.=.=.=.=.=.=.=.=.=.=.=.=.=.=.=.=.=.=.=.W : @ Z ",
"4.< J W *.>.,.>.,.,.,.,.>.,.,.>.,.,.,.,.,.,.,.,.>.>.,.,.,.>.,.,.,.,.,.,.>.,.,.>.,.,.,.,.,.,.,.,.>.>.,.,.,.>.,.,.,.,.,.,.>.,.,.>.,.,.,.,.,.>.} < ; # Z ",
"4.< J W _ =.,.,.,.,.,.,.,.,.,.,.,.,.,.,.,.,.,.,.,.,.,.,.,.,.,.,.,.,.,.,.,.,.,.,.,.,.,.,.,.,.,.,.,.,.,.,.,.,.,.,.,.,.,.,.,.,.,.,.,.,.,.,.,.&.H < ; # Z ",
"4.< H W ^ / *.:.:.:.:.:.:.:.:.:.:.:.:.:.:.:.:.:.:.:.:.:.:.:.:.:.:.:.:.:.:.:.:.:.:.:.:.:.:.:.:.:.:.:.:.:.:.:.:.:.:.:.:.:.:.:.:.:.:.:.:.:.&.W H , ; # Z ",
"4.S H W ^ / / %.%.%.%.%.%.%.%.*.%.%.%.%.%.%.%.%.*.%.%.%.*.%.%.%.%.%.%.%.%.%.%.*.%.%.%.%.%.%.%.%.*.%.%.%.*.%.%.%.%.%.%.%.%.%.%.*.%.%.%.@.Q W H < ; # Z ",
"4.< J W ^ / / +.+.@.+.+.@.+.+.+.+.+.+.+.@.+.+.+./ @./ @.+.@.+.+.+.+.+.@.+.+.+.+.+.+.+.+.+.+.@.+.@.+.+.+.+.+.+.+.+.@.+.+.+.+.+.@.+.+.@._ Q W H < ; # Z ",
"4.< J W ^ / +./ +.+.+.+.+.+.+.+./ +.+.+.+.+./ +.+.+.+.+./ +.+.+.+.+.+.+.+.%.%.$.$.$.$.$.@.+.+.+.` +.+.+.+.+.+.+.+.+.+.+.+.+.+.+.+.+./ / Q W H < ; # Z ",
"4.< J W ^ / +.+.+.+.+.+.+./ +.+.+.+.+.+.+.+.+.+.+.+.+.+.+.+./ +.@.$.;.8.-X,XtXtXtXtXtXtX1Xe.O.| +.+./ / +.` +.+.+.+.+.+.+./ +.+.+.+./ / Q J H < ; # Z ",
"4.< J W ^ / / +.+.+.+.+.+.+.+.+.+.+.` +.+.` +.+.+.+.+.+.+.+.( X.<.c.8XwXP.K.K.J.2XqX3X3XeXSXBX<X2.o.} +.+.+.+.+.+.+.+.+.+.+.+.+.+.+./ ^ Q W H < ; # Z ",
"4.S H W ^ / +./ +.+./ +.+.+.+.+./ +.+.+./ +.+.+./ +.+.+./ o.C H.{.D.L.J.v r p e g g x b.Z.I.Y.|.M.x.V q X.+.+.+.+.+./ +.+.+.+./ +.+./ _ W W H < ; # Z ",
"4.< J W ^ / +.+.+.+.+.+.+.+.+./ +.+.+.+.+.+.+.+.@./ @.o.C H.9X0X0XK.Z.Z.m r r r r r a Z.H.Z.I.I.L.J.F.F.:X<.) +.+.+.+.+.+.+.+.+.+.+.+./ ^ J H < ; & Z ",
"4.< H W ^ / / +.+.+.+.+./ +.+.+.+.+./ +.+.+.+.+./ _ <.A.D.^.9X}.D.x.x.n.Z.p r r c c g.|.L.K.Y.I.T.4XY.h.g.b.C } +.+.+.+./ +.+.+.+.+./ / Q W H < ; # Z ",
"4.S J W ^ / / +.` +.+.+.+.+.+.+.+.+.+.+.+.+./ +._ <.z.z.P.|.qXwX3X3X7X5X3Xc p x x v c.&X:XP.7X@XT.Y.L.V.v.2XwX,X| +.+.+.+.+.+.+.+.+./ ^ Q W H < ; # Z ",
"4.< J W ^ / +.+.+.+.+.+./ +.+.+.+./ +.+./ +.+.` <.s.g.x.zXZXSXDXFXJXKXJXZXJ.m x x n 2.1.1.1XSX<X>XI.F.D.H.7X3XN.C _ +.+.+.+.+.+.+.+./ _ Q W D < ; # Z ",
"4.< J W ^ / / +.` +.+.+.+.+.+.+.+.+.+.+.+.+./ 3.h.u.z J.GXHXJXKXLXLXLXKXFXSXzXK.n c n.2X8XBXSX8.1.:XZ.m g z.z.v.K.2.$.+.+./ +.+.+.+.+./ Q W H < ; # Z ",
"4.< H W ^ / / +.+.+.+.+.+.+./ +.+.+.+.+.+./ X.A.p.i.s.>XJXKXKXKXLXKXGXSXNX7XeX0X|.OXOXXX.X.X9XdXO.1.A.h $ x V 2.!.D.O./ +.+.+.+.+.+./ / W W H < ; # Z ",
"4.S H W ^ / / +.+.+.+./ +.+.+.+.+.+.` +.+.` 2.l.a.s.g.hXKXKXKXLXLXFXrX7X5X9XOX#XOXOXOX2X9X0X0XwX:X1.c.z.x z.1.1.:XQ.2.@.+.+.+./ +.+./ ^ ^ W H < ; # Z ",
"4.< J W ^ / +.+.+.+.+.+.+.+.+.+.+.+./ +.+.O.C.s.g.s.s.nXLXLXKXJXDXeXOXoXoXoX.X.X_..XoX#X2XoX9X0X6XP.n n n m A.P.|.G.z.X.+.+.+.+.+./ +._ Q J H < ; # Z ",
"4.< J W ^ / / +.+./ +.+.+.` +.+.+.+.+.+.+.<.f.p n n d.hXZXjXU.L.OX|..X.X.X).~._._.).(._._._..X.X}.}.h.b.G.v.x.I.DXP.K.1.+.+.+.+.+.+.+./ Q W D < ; # Z ",
"4.< J W ^ / +.+.+.+.+.+.+.+.+.+.+.+.+.+.| C s.l n s.g.l.k.p.i.!..X{. X).(.~.Q.(.(.W./.(.~._.).!.].{.XX$X0Xk.V.U.AXiXK.3.+.+./ +.+.+./ ^ Q W H < ; # Z ",
"4.< J W ^ / / / +.+.+.+./ +.+./ +./ / / X.C.n n s.s.k.l.p.i.l.XX).!.Q.Q.N.Q.~.~.W.W.W.(.~.~.~.~.^.{.XX@XoXR.[.T.C.T.3X*X` +.+.+.+.+.+./ Q W H < ; & Z ",
"4.< H W ^ / +.+.+.+.+./ +.+.+.+.+.+.+.+.o.z.c v d.g.l.k.l.l.{.[.!.Q.E.E.Q.^.~.~././././.W.~.~.).[.{.XX+X[.`.0XS.N n +X-X) +.+.+.+.+./ _ Q W D < ; # Z ",
"4.S J W ^ / / +.+.+.+.+.+.+.+.+.+.+.+.+.o.G.!.n n v.l.g.[.XX.X[.Q.M.m.M.^.).^.^.(./._.'._.).(.).[.[.[.XXx.n.VXB.r r B.-X#.+.+./ +.+.+./ Q W H < ; # Z ",
"4.< J W ^ / / / +./ +.+.+./ +.+.+.+.+.+.o.Z.M.n v s.Q.s.k.[.].N.M.m.N.^.E.W././.`.'.'.#XwX0X_._..X.XXXXXL.V.BXx.a a M *X` +.+.+.+.+./ / Q W H < ; # Z ",
"4.< J W ^ / +.+.+.+.+.+.+.+.+.+.+.+.+.+.o.V.m v v f.l.u.l s.G.M.m.M.G.oXl.p.j.R./.wXCXFXCXrX0X9X9X$X$XwX$XV.G.P.b a M fXq.+.+.+.+.+./ ^ Q W H < ; # Z ",
"4.< J W ^ / +.+.+.+./ +.+.+.+./ +.+.+.+.O.I.f.M N b N z l t g.k.v.m.).).Q..XQ.R./.SXHXwXOX0XVXrXrXrXrXVXCX}.b.@Xf.M D.vXsX-.+.+.+.+./ _ W W H < ; & Z ",
"4.< J W ^ / / +.+.+.+.+.+.+.+.+./ +./ +.%.A.V.Z.V.N N V.g.z g.k.l.W.9X9XSXHXeXa.j._.9X|.L.}.qXVXVXVXMX$XMX+XXXvXnXGX6XlXmXq.+.+.+.+.+./ ^ J H < ; # Z ",
"4.< H W ^ / +./ +.+.+.+.+.+.+.+.+.+.+.+.@.<.N M b b N C.G.l.p.k._.oXN.XXVXSXP.i k a.a.!.0X7XMXrXrXeXG.h.n c ].BXJXHXjXxXmX6.+.+.+.+./ / Q W H < ; # Z ",
"4.S H W ^ / +.+.+./ +.+.+./ +.+.+.+.+.+.+.o.Z.b h N U.h j p.l.l.N._.G.b.n.b.i.k k p.a.N.7XNX7XjXG.k.M.M.n h.s.h.}.eXkXcXmXw.+.+.+.+./ ^ Q W H < ; # Z ",
"4.< J W ^ / / +.` +.+.+.+./ +.+.+.+.+./ / } *XJ.S.%X%XN u j.`.'.W.m.BX|.d.s.z l c g.m.b.K.P.b.hXF.i.v.m V.V.z.h n +XlXcXmX0.@.+.+.+./ _ Q W H , ; # Z ",
"4.< J W ^ / / +.+.+.+.+.+.+.+.+.+.+.+.+.` ` 1.kXgXgX%XB.x i.j.l.m.W. Xx.z c x l l c i.s.v.v.g.b.G.x.m D.+XF.{.z.x.gXxXbXmX8.+.+.+.+.+./ Q W H < ; # Z ",
"4.< J W ^ / / +.+.+./ +.+.+.+.+.+./ +.+./ +.@.-XgXgXuXS.z.P.zX+X(.'.{.Y.F.x.v v v n s.n.2XNXY.k. X{.L.@XY.+X2XG.T.lXcXmXsX-.+.+.+.+./ / W W H < ; # Z ",
"4.< J W ^ / +./ +.+.+.+.+.+./ +.+.+.+.+.+.+.+.| =XgXxXfXzXJXJX4XK.K.}.ZXJXvXd.v p z s.M.'.OXL.F.L.F.hXGXhXL.|.4XxXcXbXmX9.+.+.+.+.+./ ^ ^ W H < ; # Z ",
"4.< H W ^ / / +.+.+.+.+.` +.+.+.+.+.+./ +.+.+.+.X.=XlX@X7XHXZXI.L.F.L.Y.4XH.i.k t t l g.G.}.6XCXZX4XuXGXNX}.T.lXcXbXmXt.@./ +.+.+.+./ _ Q J H < ; # Z ",
"4.S J W ^ / / +.+./ +.+.+.+.+.+.+.+.+.+.+./ +.+.^ 6.vXU.n.6X3XL.L.J.F.J.F.v e e r t l f.Y.BXBXFXFXFXkX@XqXfXlXcXmXmXt.` +.+.+.+.+.+.+./ Q W D < ; # Z ",
"4.< J W ^ / / +.+.+.+.+.+.+./ +.` +.+.+.+.+.+.+.+.&.iXkXT.|.+XJ.F.F.F.F.V.f.g e e e t m 4XJXGXHXFXMX+XU.gXlXxXmXsXw.#.+.+.+.+.+.+.+.+.^ Q W H < ; # Z ",
"4.< J W _ / +./ +.+.+./ +.+.+.+.+.+.+.+.+.+.+.+.+.+.O.AXvX@XY.L.F.F.D.Z.V.f.M v e $ a z.U.GXDXMX@X+X4XkXvXbXbX;X;.#.+.+.+./ +.+.+.+./ / Q W H < ; & Z ",
"4.< J W ^ / +.+.` +.+.+.+./ +.+.+.+.+.+.+.+.+.+.+.+.+.;.dXnXzXhX4XU.S.C.C.B.N B.N h S.J.U.>X@X4XhXlXbXbXaX;X8.#./ +.+./ +.+.+.+.+.+./ _ Q W D < ; # Z ",
"4.< J W ^ / / +.+.+.+.+.+.+.+.+.+.+./ +.+.+.+./ +.+.+.+.&.q.yXzXzXvXkXkXfXfXuX>XuXfXhXkXkXkXvXbXxXaX;X6.-.#./ +.+.+.+.+.+.+./ +.+.+.+./ Q W H < ; # Z ",
"4.S H W ^ / / +.+.+.+./ +.+.+.+.+.+.+.+./ #.+.+.+.+.+./ +.+.$.-.O.e.;X;XiXpXpXpXpXpXpXaXaXyXt.1.;.-.#.+.@.+.+.+.+.+.` +.+.+.+.+.+.+./ / Q W H < ; # Z ",
"4.< H W ^ / / +.+.+.+.+.+.+./ +./ +.+.+.+.+.+.+.+.~ I ! +.+.+.+.@.+.] T | &.| | | &.| | -.$.+.+.+.+.+.+.+.+.+.+.+.+.+.+.+.+.+.+.+.+./ ^ Q W H < ; # Z ",
"4.< J W ^ / +.+.+.+.+.+.+.` +.+.+.+.+.+.+.+.+.+.+. .y 9 / +.+.+.#./ 8 j P / +.+.+.+.+./ +.+.+.+.+.+.+.+.+.+.+.+.+.+.+.+./ +.+.+.+.+./ _ W W H < ; # Z ",
"4.< J W ^ / / +./ +.+.+.+.+.+.+.+./ +.+./ +.+.+.+.0 y 9 / / +./ +.+.0 6 Y +.+./ +./ / / +.+.+.+.+.+.+.+.+.+.+./ / +.+./ +.+.+.+.+.+.+./ ^ J H < ; & Z ",
"4.< J W ^ / / +.+.+.+.+.+.+.+.+.] B 9 8 s 9 ( +.+.0 y 6 B d 0 / +.+.q B Y +./ q 8 8 d Y +.( 9 s s 7 ~ +.+._ w d d K ` +.+.+./ +.+.+./ / Q W H < ; # Z ",
"4.< J W ^ / / +.+.+.+./ +.+.+.+.' i y d s t 9 / +.0 j u % i f L +.+.8 y P +.+.8 j u 5 L +.I s 8 d y 9 / @. .y d B 9 / +.+.+.+.+.+.+./ ^ Q W H < ; # Z ",
"4.< H W ^ / +.+.+.+.+.+.+.+.+.+.Y i % W I i % ^ +.0 y 4 ^ 7 u P +.+.7 y P +.+.8 y 2 ^ / +.( I I 9 j 8 / +.0 j 5 I ~ / +.+.+./ +.+.+./ _ Q W H , ; # Z ",
"4.S J W ^ / / +.+.+./ +.+.+.+.+.Y i % / Y i % Q +.0 y 9 +.w u 2 +./ 8 y P +.+.8 u P +.+.+.T f y i j 5 ^ +.( w i i q / +.+.+.+.+.+.+.+./ Q W H < ; # Z ",
"4.< J W ^ / / +./ +.+.+.+.+.+.+.Y u s ! 0 j 5 / +.0 y 9 +.w i 2 +.+.8 y P +.+.8 u P +.+.` 8 y 2 q y 4 ^ +.] ' T u s Q +.+.+.+.+.+.+./ / W W H < ; # Z ",
"4.< J W ^ / +./ +.+.+.+.+.+.+.+.Y i y f i u 2 +.+.0 y 4 / w y P +.+.8 y P +./ 8 u P +.+./ q y f u y 5 _ @.q f s y 5 Q +.+./ +.+.+.+./ ^ ^ W H < ; # Z ",
"4.< J W ^ / +.+.+.+.+.+.+.+.+.+.Y i f 6 d 5 I / +.Y d 9 +.I d 2 / +.0 d P +.+.0 % P / / +.' B % 4 6 4 ( +.' 5 5 6 9 ( +.+.+.` +.+.+./ _ Q J H < ; # Z ",
"4.< J W ^ / / +./ +.+.+.+.+.+.+.Y y s J ^  . ._ +.( 0 I / ~ 0 T +.+.! q Y +.+.] q Y +.+./ ~ 0 T (  . ._ +./ / ~ P 0 ~ +.+.+.+.+.+.+.+./ Q W D < ; # Z ",
"4.S H W ^ / +./ +.+./ +.+.+.+.+.Y f 6 ( +.Y I ( +.( I Y / (  .' / +.~ I ] / +.~ I ' +.+.+.` Y T T I T _ +./ ] I I ' ` +.+.+.+.+.+.+.+.^ Q W H < ; # Z ",
"4.< H W ^ / +.+.+.+.+.+.+.+.+.+./ T T ( / ' ' ` +./ ' ] / ( Y ( +.+.( Y ( +.+.( Y ~ / / +./ ` _ _ ' ' / +./ ' ' ( / +.+.+./ +.+.+.+./ / Q W H < ; & Z ",
"4.< J W ^ / / +.+.+.+.+.+.+.+.+./ ) ( ( ( ( ( +.+./ ( ~ ( ( ~ ` +.+._ ( _ +.+._ ( ( ( _ +./ _ _ _ ( ) +.+./ ( ) ` _ / +.+.+.+.+.+.+.+./ Q W D < ; # Z ",
"4.S H W ^ / +./ / +.+./ +.+./ ^ Q ) _ / ` / / +.+.+.` / +.` / +.+.+.+.` / +.+.+./ / ` / +.+./ ` / / +., , _ +./ / / +.+.+.+.+./ +.+./ / Q J H < ; # Z ",
"4.< J W ^ / +.+.+.+.+.+.+.+.D + o o @ < / +./ +.+.+./ @.+.+.+.+.+./ / +.+.+.+.+.+.+.+.+.+.+.+.+.+.+./ @ + Q +.+.+.+.+./ / +.+.+./ +./ / Q W H < ; # Z ",
"4.< J W ^ / / +.+.+.+.+.+.+.,   # = o X D +.+./ _ / / / +.+.+.^ ^ / +.+.+./ / _ / ^ _ +.+.+.+.+./ ^ _ @ + Q +./ _ / _ _ +.+.+.+.^ ^ / / ^ W H < ; & Z ",
"4.< H ! ^ / / / +.+.+./ +.+.< . : / ;   : +.+., = - * W +./ D # + * J / +.+.D * : # @ F / +./ Q - + = o + Q / / - ; * = _ +./ , # @ - J Q W H < ; # Z ",
"4.S J W ^ / +.+.+.+.+.+.+.+.<   ; ) = . < +./ =   . @ J / L o # ; X # _ +./ :   o + X O ! @./ ; . + @   O Q #./ @   o * Q +.< X & = . = W J H < ; # Z ",
"4.< H W ^ / / +.+.+.+.+.+.+.< . O @ X @ ! / / -   , ( / +.; . - < O . W +.+.:   ; Q * . H +.Q @ o W ! O + Q +./ # . D ^ / _ & X : , X O J W H < ; # Z ",
"4.S J W _ / / / @./ / @.+./ S . o # ; W / / / - . J +.+./ *   O @ + @ ! +.+.: . S +.- X H @.Q O + _ / + O Q +.) # o W +./ _ # . + @ + & J W H < ; # Z ",
"4.< J W ^ / / +.+.+.+.+./ +.S . : ^ / +.+.+./ - X J +.+./ -   : ! W ! / ` +., . S +.- X D @.Q @ o J W o O Q / / # o W +.+.^ * X S W J J Q W H < ; # Z ",
"4.< J W ^ / / +.+.+.+.+.+.+.S . : ` +.+.+.+./ ; . J +.+.+.J o + = * - ^ +.+., . S +.; X J +.^ - . + + . O ! +.) * o ! +.+.+., . + - * : Q W H < ; # Z ",
"4.< J W ^ / +.+.+./ +.#.+.+.D + < ` +.+.+.+./ : @ W +.+.#.W = @ @ # ; ^ +./ S + D +., @ J +./ D @ + & # & Q +.^ - & Q +.+./ J * + + # , W W H < ; # Z ",
"4.< H W ^ / / / ` ` ` ` ` ` W , J / ` ` / ` ` K , ) ` ` ` J , L ! Q ! / ` ` J , ! ` L , Q ` ) S < ! ! < < ^ #.^ F < ^ ` ` ` D < L ) ! Q Q J H < ; # Z ",
"4.< J W ^ / / ) ) } ) ) ) ) ! F G K L ) ) ) ) K F { ) ) ) L F D G G K ) ) ) L F ! ) K F ! ) { G F ) ) G F { ) ) F F ) ) ) ) G F D K G K Q W H < ; # Z ",
"4.S H W ^ ) { { { { { { { { [ U R K G R { { { E G [ { { { E G E [ R K [ { { E U E { E G { { { R K [ { K R { { { E G [ { { ) E U E E K R [ ! H < ; # Z ",
"4.< H W [ E E E E E E E E E R U R E R U R E E R U U R R E R U R E U U E E E R U G R U U E E E R U R U U U E E E U U U R R E R U R E U R E E G < ; # Z ",
"4.S H G 1 1 F 1 1 1 1 F 1 1 1 1 1 1 1 1 1 F 1 1 1 1 1 1 1 1 1 1 1 3 1 F 1 F 1 1 1 1 1 1 F 1 1 1 1 1 1 1 1 1 1 1 1 1 1 1 1 1 1 1 1 1 1 1 1 1 F , ; # Z ",
"4.< F 3 3 3 3 3 3 3 3 3 3 3 3 3 3 3 3 3 3 3 3 3 3 3 3 3 3 3 3 3 3 3 3 3 3 3 3 3 3 3 3 3 3 3 3 3 3 3 3 3 3 3 3 3 3 3 3 3 3 3 3 3 3 3 3 3 3 3 3 3 > # Z ",
"5.U ..............................................................................................................................................> A ",
"y.r.t.r.r.r.r.r.r.r.r.r.r.r.r.r.r.r.r.r.r.r.r.r.r.r.r.r.r.r.r.r.r.r.r.r.r.r.r.r.r.r.r.r.r.r.r.r.r.r.r.r.r.r.r.r.r.r.r.r.r.r.r.r.r.r.r.r.r.r.r.r.r.r.yX"
};
