/* XPM */
static char *prendre_t[] = {
/* columns rows colors chars-per-pixel */
"75 75 255 2",
"   c #000500",
".  c #000B00",
"X  c #011301",
"o  c #011B01",
"O  c #012401",
"+  c #012B01",
"@  c #023302",
"#  c #003E00",
"$  c #024302",
"%  c #024B02",
"&  c #0D470D",
"*  c #025302",
"=  c #025B02",
"-  c #006500",
";  c #036D03",
":  c #0B6B0B",
">  c #037303",
",  c #037E03",
"<  c #0F7E0F",
"1  c #146D14",
"2  c #117511",
"3  c #1F731F",
"4  c #287728",
"5  c #327B32",
"6  c #44185D",
"7  c #501E5F",
"8  c #49265D",
"9  c #461862",
"0  c #4B1A65",
"q  c #4C1D6A",
"w  c #531F66",
"e  c #4C2567",
"r  c #4D216C",
"t  c #52236C",
"y  c #552869",
"u  c #5A2A6D",
"i  c #5C326B",
"p  c #532571",
"a  c #5A2473",
"s  c #552B74",
"d  c #5C2C74",
"f  c #562C79",
"g  c #5B2D79",
"h  c #5A3476",
"j  c #5D337A",
"k  c #663768",
"l  c #642C7A",
"z  c #643276",
"x  c #633B74",
"c  c #693D74",
"v  c #62337A",
"b  c #6C3478",
"n  c #653C7C",
"m  c #6A3D7C",
"M  c #366C48",
"N  c #4D664D",
"B  c #4D6C4D",
"V  c #426655",
"C  c #554B6D",
"Z  c #6B416D",
"A  c #674779",
"S  c #6C447C",
"D  c #754C7A",
"F  c #655977",
"G  c #79547D",
"H  c #546165",
"J  c #62776D",
"K  c #666875",
"L  c #77677A",
"P  c #6A7679",
"I  c #74777A",
"U  c #81537F",
"Y  c #048204",
"T  c #048B04",
"R  c #0B830B",
"E  c #0B8D0B",
"W  c #019501",
"Q  c #049B04",
"!  c #0D920D",
"~  c #0B9B0B",
"^  c #148514",
"/  c #128D12",
"(  c #129312",
")  c #139A13",
"_  c #02A502",
"`  c #04AD04",
"'  c #0BA80B",
"]  c #04B404",
"[  c #04BC04",
"{  c #0CB40C",
"}  c #07BB08",
"|  c #0BBE0B",
" . c #12A612",
".. c #12AD12",
"X. c #0EB710",
"o. c #15B216",
"O. c #12BD13",
"+. c #1BBE1B",
"@. c #1D9E23",
"#. c #229622",
"$. c #209A20",
"%. c #2D8F31",
"&. c #2CA82E",
"*. c #23BF23",
"=. c #2CB62C",
"-. c #2BBD2C",
";. c #36AB37",
":. c #36AE3A",
">. c #2FB632",
",. c #34B536",
"<. c #33BC34",
"1. c #36B239",
"2. c #3ABA3B",
"3. c #05C005",
"4. c #0BC00B",
"5. c #0BCA0B",
"6. c #13C113",
"7. c #11CE11",
"8. c #1BC41B",
"9. c #16D516",
"0. c #18DC18",
"q. c #24C024",
"w. c #2BC12B",
"e. c #33C033",
"r. c #3CC03C",
"t. c #24E324",
"y. c #2DEE2D",
"u. c #2EF12E",
"i. c #33F533",
"p. c #388B43",
"a. c #479747",
"s. c #4F9B4F",
"d. c #569D57",
"f. c #46A648",
"g. c #47B947",
"h. c #57AA5A",
"j. c #4FB751",
"k. c #55B857",
"l. c #5DBB5E",
"z. c #5D926E",
"x. c #65896D",
"c. c #65986A",
"v. c #698774",
"b. c #728A7F",
"n. c #6C9774",
"m. c #739679",
"M. c #5EA866",
"N. c #5EB761",
"B. c #61AC65",
"V. c #65A769",
"C. c #62B264",
"Z. c #66BC66",
"A. c #6AB46C",
"S. c #67BC68",
"D. c #69BC6A",
"F. c #6DAF72",
"G. c #78AA7D",
"H. c #73BA75",
"J. c #76B37A",
"K. c #79B37C",
"L. c #77BB79",
"P. c #3FC240",
"I. c #45C145",
"U. c #48C247",
"Y. c #4CC04C",
"T. c #4FC051",
"R. c #53C253",
"E. c #5BC35C",
"W. c #63C463",
"Q. c #68C767",
"!. c #61C861",
"~. c #68C867",
"^. c #67C168",
"/. c #68C568",
"(. c #68C868",
"). c #73C573",
"_. c #74C874",
"`. c #7DC57D",
"'. c #6F1F8F",
"]. c #77099D",
"[. c #761599",
"{. c #6D2889",
"}. c #6A3383",
"|. c #6B3687",
" X c #6B3B83",
".X c #72398A",
"XX c #782B98",
"oX c #7C379A",
"OX c #7D06A5",
"+X c #7B0BA2",
"@X c #7E19A3",
"#X c #7E25A1",
"$X c #6D4483",
"%X c #6B4A84",
"&X c #774785",
"*X c #734C84",
"=X c #73448B",
"-X c #744D8B",
";X c #7C4B8A",
":X c #6D5884",
">X c #7A5A84",
",X c #775488",
"<X c #7C5B8C",
"1X c #7A4A94",
"2X c #7C5494",
"3X c #7D5C94",
"4X c #7C5698",
"5X c #7A6788",
"6X c #6C7181",
"7X c #747985",
"8X c #7C6592",
"9X c #8112A8",
"0X c #8329A6",
"qX c #8837AA",
"wX c #814D8A",
"eX c #845789",
"rX c #82548C",
"tX c #824C99",
"yX c #845393",
"uX c #855897",
"iX c #8C5B9B",
"pX c #905D9B",
"aX c #83668B",
"sX c #896797",
"dX c #8C7093",
"fX c #897797",
"gX c #94769B",
"hX c #864DA4",
"jX c #8E6BA0",
"kX c #9878A5",
"lX c #728481",
"zX c #799786",
"xX c #7BA583",
"cX c #7BAC81",
"vX c #7FB783",
"bX c #7EBB81",
"nX c #819E85",
"mX c #849A8E",
"MX c #8C8990",
"NX c #8B8894",
"BX c #94859C",
"VX c #899593",
"CX c #83A689",
"ZX c #8AAC8F",
"AX c #94B896",
"SX c #9A87A5",
"DX c #A68AAD",
"FX c #A397AB",
"GX c #AB8BB3",
"HX c #AC98B4",
"JX c #B39AB8",
"KX c #ACAAAF",
"LX c #8BC78B",
"PX c #BC9BC0",
"IX c #C4A8C7",
/* pixels */
"LXg.Y.Y.U.Y.Y.U.g.T.U.U.Y.g.Y.Y.g.Y.Y.g.Y.Y.U.U.g.g.Y.T.U.U.Y.g.Y.Y.U.Y.Y.g.Y.Y.U.U.Y.g.Y.Y.U.Y.Y.g.Y.Y.U.U.Y.U.g.R.U.U.g.g.T.Y.U.Y.Y.U.g.T.U.g.Y.g.G.",
"s.W ] [ [ [ [ ] ] [ [ 3.[ ] [ [ [ [ [ [ ] [ [ 3.[ [ ] [ [ [ ] [ [ [ [ 3.[ [ ] [ [ 3.[ ] [ [ [ 3.[ [ ] [ [ 3.[ ] ] [ [ 3.[ [ ] [ [ 3.[ ] [ [ ] [ ] > N ",
"s.Y ` 3.5.3.3.3.3.3.3.5.3.3.3.3.3.5.3.5.3.3.3.5.5.3.3.3.5.5.3.3.3.3.3.3.5.3.3.3.3.5.3.5.3.3.3.3.5.3.3.3.5.3.3.5.3.3.3.5.5.3.3.3.5.3.3.3.3.3.3.3.T # N ",
"s.Y W 3.0.0.0.9.0.0.0.0.0.0.0.0.0.0.0.0.0.0.0.0.0.0.0.0.0.0.0.0.0.0.0.0.0.0.0.0.0.0.0.0.0.0.0.0.0.0.0.0.0.0.0.0.0.0.0.0.0.0.0.0.0.0.0.0.0.0.0.` - # N ",
"s.Y Q ` 9.y.i.i.i.i.i.i.i.i.i.u.i.i.i.i.i.i.i.i.u.u.i.i.i.u.i.i.i.i.u.i.u.i.i.u.i.i.i.i.i.i.i.i.u.u.i.i.i.u.i.i.i.i.i.i.u.i.i.u.i.i.i.i.i.y.| Y - # N ",
"s., W _ } 0.i.i.i.i.i.i.i.i.i.i.i.i.i.i.i.i.i.i.i.i.i.i.i.i.i.i.i.i.i.i.i.i.i.i.i.i.i.i.i.i.i.i.i.i.i.i.i.i.i.i.i.i.i.i.i.i.i.i.i.i.i.i.i.8.W , - $ N ",
"s.Y W _ ] [ 9.t.t.t.t.t.t.t.t.t.t.t.t.t.t.t.t.t.t.t.t.t.t.t.t.t.t.t.t.t.t.t.t.t.t.t.t.t.t.t.t.t.t.t.t.t.t.t.t.t.t.t.t.t.t.t.t.t.t.t.t.t.6._ T , - # N ",
"s., W _ ] [ [ 7.7.7.7.7.7.7.7.9.7.7.7.7.7.7.7.7.9.7.7.7.7.9.e.<.=.,.=.<.1.<.w.w.P.w.7.7.7.7.7.7.7.7.9.7.7.7.7.7.7.7.7.7.7.7.7.9.7.7.7.4.` _ W , - # N ",
"s.Y W ` ] [ [ 3.3.3.3.3.3.3.3.4.3.3.4.3.3.3.3.3.4.4.4.6.;.m.MXU L L L L 5XL L MXMXZXF.<.4.3.3.3.3.3.4.3.3.3.4.3.3.3.3.3.3.3.3.4.3.3.3.] ` _ W , - # N ",
"s.Y W _ ] [ 3.3.3.3.3.3.3.3.3.3.3.3.3.3.3.3.3.[ 3.| ,.m.gXaXU U G D G U dXeXG aXdXDXJXKXS.q.3.3.3.3.3.3.3.3.3.3.3.3.3.3.3.3.3.3.3.3.3.} ` _ W , - # N ",
"s.Y Q _ ] [ [ 3.3.3.3.3.3.3.3.3.3.[ 3.3.3.3.3.3.| h.BXpXpXU U eXG eXaX>XDXDXaXsXjXkXPXIXJXAX<.} 3.3.3.3.3.3.3.3.3.3.3.3.3.3.3.3.3.3.[ [ ` _ W , - $ N ",
"s., W _ ] [ [ 3.3.3.3.3.3.3.3.3.3.3.3.3.3.3.3.O.h.kXpXwXU U eXeXU eXsXeXsXjX3X3XpXkXGXGXFXIXKXP.3.3.3.3.[ 3.3.3.3.3.3.3.3.3.3.3.3.3.[ } ` _ T , - # N ",
"s., W _ ] [ 3.3.3.3.3.3.3.3.3.3.3.3.3.3.3.3.| d.gXpXpXwXwXeXeX>X;XaXjXpXiX4X4X2XyXpXjXjXkXJXIXAX<.[ [ 3.3.3.3.3.3.3.3.3.3.3.3.3.3.3.[ ] _ _ T , - # N ",
"s., W _ ] 3.[ 3.3.3.3.3.3.3.3.3.3.3.[ 3.3.3.a.dXeXyXwXwX*XeXwXwXeXuXpXpXkX4X2X1X2XuX3XsXjXDXJXDXZX*.3.3.3.3.3.[ [ 3.3.3.3.3.3.3.3.3.3.[ ` _ W , - # N ",
"s.Y Q _ ] [ [ 3.[ 3.[ 3.3.3.3.[ 3.3.3.3.3.=.fXeXwXyXpXU wXyXiXiXpXiXyXiXiX=X=X=XuX4X4X3XsXDXHXJXHXJ.6.3.3.3.3.3.3.3.[ 3.3.3.3.[ 3.3.[ } ] _ W , - $ N ",
"s.Y W _ ] [ [ 3.3.3.3.3.3.3.3.3.3.[ 3.3.| x.eXwXwXkXgXwXwXtXiXyXiXyXD =X.X|.$X4XiX-X,X-X<XkXGXDXHXKXU.3.[ 3.3.3.3.3.3.3.3.3.3.3.3.3.[ [ _ _ W , - # N ",
"s.Y W _ [ [ 3.3.3.3.[ 3.3.3.3.[ 3.3.[ 3.:.dX<XrXwX,X*X;XwXyXtXiXyXuX*X$X=Xv =X2X4X-X%X$X-XsXkXkXgXDXAX6.3.3.3.3.3.3.3.3.3.3.3.3.3.3.3.[ ` _ W , - # N ",
"s.Y Q _ ] [ 3.[ 3.3.3.3.3.3.3.3.3.3.[ | c.dX<XrX&X;X;XyXiXwX.XwX1X.X=X;X Xt $X XuX4X X$X-X3X8XsXgXSXKXI.3.3.3.[ 3.3.3.3.[ 3.3.3.3.3.[ } _ _ W , - # N ",
"s., W _ ] [ [ 3.3.3.[ 3.3.3.3.3.3.3.3.*.NXsX<X,X;XyXwXwXwX.X}.}.l a t ;X;Xv l l .X$Xz S %X-X<XsXgXgXFX`.4.3.3.3.3.3.[ 3.3.3.3.3.3.[ [ } ] _ T , - # N ",
"s., W _ ] [ [ 3.3.3.3.3.[ 3.3.3.3.3.3.2.SXaX>X*XtXwXb b b {.l a 9 a l 1XtX1X}.}.|.a d v S %X%X2X8XfXSXAX6.3.3.3.3.3.3.3.3.3.[ 3.3.3.3.] ` _ W , - # N ",
"s.Y W ` ] [ 3.3.3.3.3.3.3.3.[ 3.3.3.3.1.BXaX>X&X;X}.l l l a t 9 9 q a tXiX2X Xl r t q d j A %X:X8XBXkXxX6.4.3.3.3.3.3.3.3.3.[ 3.3.3.[ [ ` _ W , - # N ",
"s.Y W _ ] 3.3.[ [ 3.3.3.3.3.3.3.3.[ 3.1.BX5X<X&Xb l b .X Xu t 0 6 q a 1XiX=Xv p 0 0 9 6 s j %X2X:XfXSXVX+.4.3.3.3.3.[ 3.3.3.3.3.3.3.3.} ` _ T , - # N ",
"s.Y Q _ ] [ [ 3.3.3.3.3.3.3.3.3.3.3.3.,.fX<X,Xm v |.}.$X-X$Xs r 9 0 q }.&X}.g w 0 6 0 6 e f %X%X-X8XGXVX>.3.3.3.3.3.3.3.3.[ 3.3.3.3.[ [ ` _ W , - # N ",
"s., W _ ] [ [ 3.3.3.3.[ 3.3.3.3.3.3.3.&.fX5X*Xb  X-X$X-X X Xj t 9 r q g l l a 0 6 6 t q r s f %X:X8XFXVX>.3.3.3.3.3.3.3.3.3.3.3.[ 3.3.[ _ _ W , - # N ",
"s., W _ ] [ 3.3.3.3.[ 3.3.3.3.3.3.3.3.&.fXG A S -X&X8Xz.6X$Xf p a f f g d a g p r p p r r s  X%X:X:XBXBX=.3.3.3.[ 3.3.3.3.[ 3.3.3.3.[ [ ` _ T , - # N ",
"s., W _ ] 3.[ 3.3.3.3.3.3.3.[ 3.[ 3.3.1.fX*XA *X$X&X8X>.h.3X$Xj n t t v t 0 g g f s p s s f  XC %X:X8XVX-.3.3.3.3.3.3.3.3.3.3.3.3.3.3.} _ _ W , - # N ",
"s.Y Q _ ] [ 3.[ [ 3.3.3.3.3.3.3.3.3.3.=.fX,Xc c n $XfXzXb.-Xc n h 8 8 r r 0 p }.s r r s s s C h %X:XfXZXq.3.3.3.3.3.3.3.3.3.3.3.3.3.[ [ ` _ T , - $ N ",
"s.Y W _ ] [ [ 3.3.3.3.3.3.3.[ 3.3.3.3.>.NX8XS c c A %X4X4Xm d z d y 6 8 r q p f r f f e h s s s C 8XSXZX6.3.3.[ 3.3.[ 3.3.} 3.3.[ 3.3.] ] _ W , - # N ",
"s.Y W _ [ [ 3.3.3.3.3.3.3.[ 3.3.3.3.3.-.BX5XA A c c c m  Xj l u l u e e f j f a f f f }.C C s s  X8XSXL.3.3.3.3.[ 3.3.3.3.3.3.3.3.3.[ [ _ _ T , - # N ",
"s.Y Q _ ] [ [ 3.3.3.3.3.3.3.3.3.[ 3.3.| xX5Xx x c Z k Z x d u u u t t y s g p f f s f C @. .C r A 8XFXT.3.3.3.3.3.3.3.3.3.3.[ 3.3.3.3.} ` _ W , - # N ",
"s., W _ ] [ 3.[ 3.[ 3.3.3.3.3.3.3.3.3.3.j.fXk x c k k k c z u l u t s s f s p f f s C %.4.3.M e %XBXAXq.3.3.3.3.3.3.3.3.3.3.3.3.3.3.3.] ` _ W , - $ N ",
"s., W _ ] [ 3.3.3.3.3.3.3.3.3.[ 3.3.3.3.+.nX,Xi x Z k k k z u u d g f s s f f s f C @.3.3.X.M C 8XKXl.5.3.3.} 3.3.3.3.[ 3.3.3.3.3.3.[ [ ` _ W , - # N ",
"s.Y Q _ ] [ [ 3.3.3.[ 3.3.3.3.3.3.3.3.3.3.g.NXZ c k k k i i z d g v j g f }.j j V ..[ 3.} M A 5XFXAX8.3.3.3.3.3.3.3.3.3.3.3.3.3.3.3.3.[ ` _ W , - # N ",
"s.Y W _ ] [ 3.3.3.3.3.3.3.3.3.3.3.[ 3.3.3.4.V.aXx k 7 k u u d d d g g }.n v j f M X.3.{ p.K fXSXKXr.3.3.3.} 3.3.[ 3.[ 3.3.3.3.[ 3.3.[ } _ _ W , - # N ",
"s.Y Q _ ] [ [ 3.3.3.3.3.3.[ 3.[ 3.3.3.3.3.3.+.m.D 7 7 7 y u y a d d g a f s s p f V ;.J gXSXSXKXR.3.3.3.3.3.3.3.3.3.3.3.3.3.3.3.[ 3.[ } ` _ T , - # N ",
"s., W _ ] [ [ 3.3.3.3.3.3.3.3.3.3.3.3.3.3.[ 3.+.n.D w w y y y s d g v d f s s h c uXkXFXJXFXFXk.4.3.3.3.3.3.3.3.3.3.3.3.} 3.3.3.3.3.3.] ] _ W , - # N ",
"s.Y W _ ] [ 3.3.[ 3.3.3.3.3.3.3.3.3.3.3.3.3.3.3.+.c.F k u u d z v x x h n j A :XaXSXHXJXFXFXj.4.3.3.3.3.3.3.3.[ 3.3.3.3.3.3.3.3.3.3.[ [ ` _ W , - # N ",
"s., W _ ] 3.[ 3.3.3.3.3.} 3.3.3.[ 3.3.3.3.3.[ 3.[ O.h.I *Xz n S S %XD D S D G >X>XgXSXFXCX<.3.3.3.3.3.[ 3.3.3.3.3.3.3.3.3.3.3.3.3.3.3.} ` _ T , - # N ",
"s.Y W _ ] [ 3.3.3.3.3.[ 3.3.3.3.3.3.3.3.3.3.3.3.3.3.3.-.d.I ,XD S D G D Z D G aXdXBXxXj.6.3.3.3.3.3.3.3.3.3.3.3.3.[ 3.[ 3.3.3.3.3.3.[ [ ` _ W , - # N ",
"s.Y W ` ] [ [ } 3.3.3.3.3.3.4.4.6.O.6.| 4.3.[ 3.3.3.[ 3.| +.f.c.v.L U b.U aXMXm.V.2.6.3.3.3.} 3.3.3.3.3.3.[ 3.3.3.3.3.3.3.3.3.[ 3.3.[ [ _ _ W Y - # N ",
"s., W _ [ [ 3.3.3.4.O.| 4.O.+.-.-.e.e.w.+.4.3.3.3.3.3.3.3.3.3.4.+.=.,.;.1.>.*.+.O.4.4.3.3.3.3.3.3.3.3.3.3.3.3.3.3.3.3.3.3.3.3.3.3.3.3.] ` _ W > - # N ",
"s., Q _ ] [ 3.[ 4.*.q.w.w.e.r.Y.R.R.R.Y.e.*.+.| 4.4.| 4.4.| 4.| | | 4.4.4.O.*.*.-.q.*.6.4.4.4.4.| 4.| 3.| 4.4.4.4.4.| | | 4.4.4.[ | | | ' ' W , - # N ",
"s., W _ ] [ [ 6.-.P.Y.Y.T.R.E.!.W.~.W.E.R.r.w.*.q.q.*.q.q.*.q.*.q.*.*.q.*.e.P.Y.T.U.I.<.-.*.q.q.q.*.+.+.+.q.q.q.*.*.*.*.*.*.+.6.8.+.*.*.o. .! , - # N ",
"s.Y W _ ] [ | *.P.R.!.W.W.W.W.Q.D.x.S.Q.W.R.U.I.I.I.I.g.I.I.I.U.U.I.I.I.U.Y.E.W.W.!.E.T.U.U.I.g.U.P.r.P.P.I.I.I.U.U.U.U.I.P.r.r.r.I.I.g.g.&.$.R : $ N ",
"s.Y W _ ] | 6.<.T.!.D.V.^./.(.~.n.[.c.Q.Q.Q.E.W.E.W.W.!.!.W.E.W.W.E.W.W.W.W.W.Z.V.S.Q.W.E.W.W.W.E.E.E.E.E.W.E.W.W.E.W.W.!.E.E.E.E.E.E.l.l.j.a.#.: # N ",
"s.Y W ` ] [ 8.r.E.(.v.'.c.(.(.~.b.+Xx.Z.Z.Q.^.Q.Q.^.Q.^.S.S./.Q.Q.S.C.S.Q.Q.^.b.{.c.Q.Q.Q.Q.^.C.Z.Q.^.Q.~.^.^.^.^.^.^.C.Z.^.^.W.^.^.S.S.Z.C.f.a.3 & N ",
"s.Y W _ ] | +.2.E.A..X+X{.J ~.~.n.+Xn }.n V.Q.Q.6XA B.S.F K ^.Q.c.%X|.F Z.(.A..X].}.v.Q.Q.A.%X|.v K D.Q.^.K F %X}.H K }.A V.(.(.D.P  X XK C.B.a.4 & N ",
"s., W _ ] [ +.r.E.A.1XOX1Xn.~.~.n.OXXXtX@XA ^.Q.lX+Xx.F.XX:XQ.D.-X[.7XlXS.Q.F.2XOX1Xv.Q.Q.n.8X7X1X].V.(.^.=X].2X0XOXXX1XOXK Q.(.v.'.5XeX'.J C.d.5 & N ",
"s.Y W _ ] | 6.r.R.~.b.[.x.~.(.(.n.+XP D.oX.XS.(.F.#X:XP [.n.(.^.3X].C M.Q.Q.W.lX].c.(./.Q.D.c.P =X+Xv.~.^.1XXXA.lXOXv.A.#X$X^.(.,X[.F %XOX6XC.d.5 & N ",
"s., W _ ] [ O.w.R.!.7X@Xv.(.(.~.n.+Xv.^.1XXXS.(.Q.3X'.{.XXA.(.Q.A.8X0X{.V.(.(.7X].n.(./.Q.v.'.-X1X+Xv.(.^.2X.XN.zX+Xn.D.oX$X^.(.1X[.,X5X8Xn.B.s.5 & N ",
"s.Y W _ ] [ | q.Y.!.b.@XF C.(.(.n.[.v.^.1XXX^.!.^.m.@XOX6XQ.(.^.c.c.-X].n.(.Q.lX+XK C./.Q.8X+Xx.:X+Xv.!./.4X.XS.n.+Xn.A.oX%X^.(.7X@XH c.J V.B.d.5 & N ",
"s.Y W ` ] [ | -.R.(.G.qX9X7X).).xX0XlX).8XoXH.).).H.oXOXlX)._.H.3XXX0X4XH.).).J.hX9X6X).).zXqXXXoX#Xm.)._.4X1XL.xX#XzXD.4X4X).).K.hX9XXXXXn.A.d.5 & N ",
"s., W _ [ [ | -.R.).bXmXVXxX`.`.vXmXCX`.CXmX`.`.`.bXoX#XxX`.`.`.CXmXVXCXbX`.`.`.VXNXCX`.`.ZXmXzXCXmXvX`.`.xXmXbXbXVXbXbXzXmX`.`.vXmXVXmXmXK.J.d.%.& N ",
"s.Y Q _ ] [ | *.g.E.H.cXL.)._._.L.cXL.).cXK.L._.).xX0X3XvX`.)._._.L.cXxXH./.).H.xXK._._.).K.cXK.vXxXbX_.).cXcX_.bXxXL._.cXcX).).L.cXL.L.J.A.B.a.5 # N ",
"s., W _ ] [ 3.8.w.r.k.M.N.E.E.E.N.B.N.E.B.C.W.Q.).cXzXJ.J.D.W.E.N.B.M.l.R.Y.T.k.M.N.E.E.E.E.N.N.B.B.N.E.E.N.B.N.N.M.N.l.N.B.E.T.h.M.B.B.c.h.f.%.1 # N ",
"s., W _ ] [ 3.4.6.q.>.1.,.<.e.e.,.1.1.,.1.1.2.U.E.S.S.^.Z.k.P.<.,.1.,.>.w.q.q.>.1.<.e.e.e.<.,.<.,.:.,.e.e.:.:.,.<.:.,.,.:.1.w.w.-.;.1.;.&.&.#.^ : # N ",
"s.Y W ` ] [ [ 3.4.4.O.O.O.O.6.6.O.O.X.O.O.O.+.q.e.g.U.I.g.<.*.6.O.O.O.O.4.4.6.O.O.O.O.6.6.6.O.O.O.O.6.6.6.O.O.O.O.O.O.O.O.O.6.4.6.O.O.X...' W , - # N ",
"s.Y W _ ] [ 3.3.3.3.3.3.} } ] ] { | [ 4.[ | 4.4.8.*.*.q.8.+.4.3.3.3.3.} 3.3.3.3.3.| } 3.3.3.4.3.} } ; T 3.3.} 3.3.} 3.3.| } 3.3.3.3.[ } ` Q W , - # N ",
"s.Y Q _ ] [ [ 3.3.3.3.[ } ; O o O $ W [ 3.3.3.[ | 4.4.4.3.4.4.3.3.3.3.3.3.[ 3.3.[ 3.3.3.3.3.3.[ 3.` . * } 3.} 3.3.3.3.3.3.3.3.3.3.3.3.] ` _ W , - $ N ",
"s., W _ ] [ [ 3.3.3.3.3.[ *   % % . + _ 3.3.} } ] [ 3.3.3.[ ] ] [ 3.3.3.3.[ } [ ] } 3.[ [ 3.3.} ] _ X * [ 3.[ } } ] } 3.3.3.} ] ] [ 3.[ ` _ T , - # N ",
"s., W _ ] [ 3.3.3.3.3.3.[ = . T } # . T 3.} - = % = ] 3.] > @ @ = ` 3.3.[ ; * ; @ $ Q [ 3.} Q % + * . % } 3.] % ; @ > 4.3.] - @ # ; ] } _ _ T , - # N ",
"s., W _ ] 3.[ 3.[ 3.3.3.3.= . T _ @ o ~ 3.` +   o % ` 3., X % * . = 3.3.] $   O @ . $ } 3.] $ . @ O   % [ 3._ X . O - [ [ = X * $ . > } ] _ W , - $ N ",
"s.Y Q _ ] [ [ 3.3.3.3.3.} =   + + . * ] 3.] @ o T ] [ } # X ; > X + } [ } $ . Y _ O + ` 3.Q X $ ] T . % [ 3.' o O _ ] 3.' O O , -   % ] ` _ W , - # N ",
"s.Y W _ ] [ [ 3.3.3.[ 3.[ -   + $ > ` 3.3.` @ + ] 3.[ ] + . + @ O % ] 3.[ % o Q } + + ` 3.W X * [ ' X % } [ _ o # } 3.[ _ o X @ @ O = ] _ _ W , - # N ",
"s.Y W _ [ [ 3.3.3.3.3.3.[ - . T } [ 3.3.3.] @ + ] [ 3.} # X T _ _ ` } 3.} % o Q 3.@ + ' 3.Q X # ' T . $ } 3.` o # } [ 3.` + + W _ ~ ` ] ` _ W , - # N ",
"s.Y Q _ ] [ 3.[ [ 3.3.3.| - . T 3.3.3.3.[ ] # + ] 3.3.[ > X # * % > [ 3.[ % o Q [ # + ` 3.` #   @ O   $ } 3.` O # ] 3.3.} *   # = $ T } ` _ W , - $ N ",
"s., W _ ] [ [ 3.3.3.3.3.[ ; @ Q [ 3.3.3.[ } % % } [ 3.[ Q $ @ @ # > 3.3.} = # _ [ * $ ] 3.} > + @ $ @ - } [ _ $ = } 3.3.[ Y # + + $ T ] _ _ T , - # N ",
"s., W _ ] 3.[ [ [ | | [ | T > ' | | [ [ } } Y Y { } [ } T , ~ ' ' ] | 3.} T , ' | R , ] 4.` , Y ` ' > Y } } { , T | [ 3.] R , ' ` { } ] ] _ W , - # N ",
"s.Y W _ ] } } { X.{ { X.{ ~ R E ~ ' { { { { T E { X.{ { E R T ! T ~ { X.{ ! R ' { E R { { ' R ! { { T ! { { ' T ! { { { { T R T ! E ~ X.` _ W , - # N ",
"s.Y W _ ] } ......o.......) E ( ! / )  .....( (  ..... .( ( ) ) ( /  .....) !  ...( ! .... .E ( .. ./ ( .... .( (  ..... .( ( ) ~ / ( ....' T , - # N ",
"s.Y W _ ' ) ) ) ) ) ) ) ) ( / ( ) / / ) ) ) / ^ / ( ) ) ( / ( ( / ( ) ) ) / E / ( / / ) ) ) / / / / ^ ( ) ) ) / ^ ( ( ) ) ( / ) ( / ( ) ) ) W , - $ N ",
"s., W E < < < < < < R < < < < R < < < < R < < < < < < < < < < R < < < R < < < < < < < < R ^ < < < < < < < < < < < < < < < < < < < < < ^ < < R > - $ N ",
"s.R R 2 2 2 2 2 2 2 2 2 2 2 2 2 2 2 2 2 2 2 2 2 2 2 2 2 2 2 2 2 2 2 2 2 2 2 2 2 2 2 2 2 2 2 2 2 2 2 2 2 2 2 2 2 2 2 2 2 2 2 2 2 2 2 2 2 2 2 2 2 : $ N ",
"s./ #.#.#.#.#.#.#.#.#.#.#.#.#.#.#.#.#.#.#.#.#.#.#.#.#.#.#.#.#.#.#.#.#.#.#.#.#.#.#.#.#.#.#.#.#.#.#.#.#.#.#.#.#.#.#.#.#.#.#.#.#.#.#.#.#.#.#.#.#.#.#.1 B ",
"`.E.!.!.!.!.!.!.!.!.!.!.!.!.!.!.!.!.!.!.!.!.!.!.!.!.!.!.!.!.!.!.!.!.!.!.!.!.!.!.!.!.!.!.!.!.!.!.!.!.!.!.!.!.!.!.!.!.!.!.!.E.!.!.!.!.!.!.!.!.!.!.!.E.ZX"
};
