/* XPM */
static char *prendre_s[] = {
/* columns rows colors chars-per-pixel */
"75 75 255 2",
"   c #000500",
".  c #000B00",
"X  c #011301",
"o  c #011B01",
"O  c #390C07",
"+  c #3A140C",
"@  c #012401",
"#  c #012B01",
"$  c #013401",
"%  c #023B02",
"&  c #450B06",
"*  c #4C0B06",
"=  c #420D09",
"-  c #4B0D09",
";  c #5B0707",
":  c #530A06",
">  c #5B0A06",
",  c #550D09",
"<  c #5C0D09",
"1  c #44170E",
"2  c #4D180E",
"3  c #58130C",
"4  c #51190E",
"5  c #4A1C12",
"6  c #551B13",
"7  c #5C1C13",
"8  c #630A06",
"9  c #690807",
"0  c #630D0B",
"q  c #6C0C0B",
"w  c #770709",
"e  c #730C0B",
"r  c #700E0F",
"t  c #7C0A0B",
"y  c #67120D",
"u  c #780C15",
"i  c #631D13",
"p  c #671B17",
"a  c #6A1B12",
"s  c #751914",
"d  c #7C1A13",
"f  c #7C101D",
"g  c #4B2317",
"h  c #582618",
"j  c #5D2A1B",
"k  c #54311E",
"l  c #6E390B",
"z  c #793902",
"x  c #632115",
"c  c #692319",
"v  c #632919",
"b  c #6B2A1B",
"n  c #77251A",
"m  c #66311E",
"M  c #5D3221",
"N  c #6B2F28",
"B  c #742A23",
"V  c #6B3825",
"C  c #733B24",
"Z  c #7A3826",
"A  c #743E28",
"S  c #024302",
"D  c #024B02",
"F  c #005500",
"G  c #035B03",
"H  c #0D550D",
"J  c #036303",
"K  c #036C03",
"L  c #007500",
"P  c #047F04",
"I  c #0F740F",
"U  c #0F7E0F",
"Y  c #117511",
"T  c #3C6E03",
"R  c #387403",
"E  c #4E5D02",
"W  c #565702",
"Q  c #694802",
"!  c #754702",
"~  c #665302",
"^  c #745702",
"/  c #466503",
"(  c #567109",
")  c #5E6012",
"_  c #76452D",
"`  c #665624",
"'  c #78552D",
"]  c #794732",
"[  c #577123",
"{  c #6F702E",
"}  c #830B0A",
"|  c #8A090B",
" . c #970A0B",
".. c #87100F",
"X. c #9A140C",
"o. c #860D15",
"O. c #8D1514",
"+. c #851A17",
"@. c #84131C",
"#. c #8B101D",
"$. c #961719",
"%. c #BC0A00",
"&. c #AA1801",
"*. c #B81601",
"=. c #A50E16",
"-. c #AE0D11",
";. c #A3161C",
":. c #8C2701",
">. c #972901",
",. c #983801",
"<. c #8C2F10",
"1. c #85231B",
"2. c #A42701",
"3. c #B1250A",
"4. c #A13001",
"5. c #861320",
"6. c #8D1323",
"7. c #951224",
"8. c #9C1225",
"9. c #941B25",
"0. c #9A1B23",
"q. c #9C152A",
"w. c #9D1D2A",
"e. c #A31223",
"r. c #AA1223",
"t. c #A2152B",
"y. c #AB172A",
"u. c #A51B2C",
"i. c #B41525",
"p. c #AA1831",
"a. c #892822",
"s. c #932522",
"d. c #9A2628",
"f. c #8A3529",
"g. c #94362B",
"h. c #9D2330",
"j. c #A6252B",
"k. c #B02F30",
"l. c #C70700",
"z. c #C31901",
"x. c #CF1A30",
"c. c #EF1B3C",
"v. c #D42B38",
"b. c #8A4302",
"n. c #914202",
"m. c #854529",
"M. c #8A572F",
"N. c #834534",
"B. c #894837",
"V. c #994738",
"C. c #955538",
"Z. c #B04D39",
"A. c #8E6232",
"S. c #DC3A4D",
"D. c #8D4F49",
"F. c #915748",
"G. c #B15450",
"H. c #976258",
"J. c #916859",
"K. c #A76158",
"L. c #9D6B65",
"P. c #9B776E",
"I. c #A8716C",
"U. c #A87472",
"Y. c #D35965",
"T. c #058305",
"R. c #018A01",
"E. c #0A840A",
"W. c #0C8D0C",
"Q. c #019601",
"!. c #019D01",
"~. c #0D920D",
"^. c #0A9B0A",
"/. c #1C9A04",
"(. c #128D12",
"). c #1E8C1E",
"_. c #129312",
"`. c #139A13",
"'. c #278603",
"]. c #358C04",
"[. c #269804",
"{. c #3A991C",
"}. c #02A602",
"|. c #03AA03",
" X c #0CAA09",
".X c #1AA406",
"XX c #13AD05",
"oX c #19AA04",
"OX c #04B404",
"+X c #0BB505",
"@X c #04BC04",
"#X c #08BA05",
"$X c #0CB40C",
"%X c #09BD08",
"&X c #11B105",
"*X c #1AB60E",
"=X c #12BC0C",
"-X c #13A711",
";X c #12AD12",
":X c #1ABC13",
">X c #22A104",
",X c #29AE16",
"<X c #39A61C",
"1X c #26B516",
"2X c #34B61B",
"3X c #229622",
"4X c #33B425",
"5X c #429C1E",
"6X c #46A11F",
"7X c #489C23",
"8X c #529026",
"9X c #69842C",
"0X c #4AAC2F",
"qX c #05C005",
"wX c #0CC10B",
"eX c #08C508",
"rX c #0FCF10",
"tX c #11CE11",
"yX c #18CB14",
"uX c #13D314",
"iX c #18DC18",
"pX c #24C618",
"aX c #33C02F",
"sX c #24E424",
"dX c #2DE92D",
"fX c #2DF02D",
"gX c #33F533",
"hX c #36F836",
"jX c #4F9B4F",
"kX c #509E50",
"lX c #4CBA46",
"zX c #50B449",
"xX c #5CB655",
"cX c #64B75C",
"vX c #71B666",
"bX c #4DC04D",
"nX c #61C861",
"mX c #7BC27B",
"MX c #94845A",
"NX c #A7827D",
"BX c #DD7891",
"VX c #AA8A86",
"CX c #B0938F",
"ZX c #B79799",
"AX c #B4969A",
"SX c #8FAF80",
"DX c #ABAA98",
"FX c #AFA99A",
"GX c #B99EA2",
"HX c #B9A5A4",
"JX c #B8A8A5",
"KX c #D98F93",
"LX c #C2A4A4",
"PX c #8BC68B",
"IX c #FABFD4",
/* pixels */
"PXlXbXbXlXbXbXlXbXbXbXbXbXbXbXbXbXbXbXlXbXbXlXbXbXbXbXbXbXbXbXbXbXbXbXbXbXbXbXbXbXbXbXlXbXbXlXbXbXbXbXbXbXbXbXbXbXbXbXbXbXbXbXbXlXbXbXbXbXbXlXbXbXlXzX",
"jXQ.OX@X@X@X@X@XOX@X@XqX@XOXOX@X@X@X@XOX@X@X@X@X@XOXOX@X@XqX@XOXOX@X@XqX@XOXOX@XqXqX@X@XOX@X@X@X@XOXOX@X@XqX@XOXOX@X@XqX@XOXOX@X@X@X@XOXOX@X@X@X@X}.D ",
"jXT.}.qXqXeXeXqXqXeXeXqXqXeXqXeXeXeXeXqXqXeXeXeXqXeXqXeXeXqXeXeXqXeXeXqXeXeXeXeXqXeXqXeXeXeXeXeXeXeXeXeXeXqXeXqXqXeXeXqXqXeXqXeXeXeXeXqXqXeXeXeXOXK $ ",
"jXT.Q.@XiXiXiXiXiXiXiXiXiXiXiXiXiXiXiXiXiXiXiXiXiXiXiXiXiXiXiXiXiXiXiXiXiXiXiXiXiXiXiXiXiXiXiXiXiXiXiXiXiXiXiXiXiXiXiXiXiXiXiXiXiXiXiXiXiXiXiXrXR.F $ ",
"jXP Q.}.tXfXgXfXgXfXgXgXfXfXgXgXfXgXgXgXfXgXfXgXfXgXgXfXgXgXgXfXgXgXgXgXfXfXgXfXfXgXfXgXgXgXgXgXfXfXgXfXgXgXfXgXgXfXgXgXfXfXgXgXfXgXfXgXdXgXsX^.L F $ ",
"jXP Q.}.OXiXgXhXhXhXhXhXhXhXhXgXhXhXgXhXhXhXhXhXhXgXhXhXhXgXhXhXgXgXgXgXgXhXhXhXgXgXhXhXgXgXgXgXhXhXhXhXhXgXhXhXhXhXhXhXhXhXhXgXhXhXhXhXhXdX$XR.L F $ ",
"jXP Q.}.OX@XuXsXsXsXsXsXsXsXsXsXsXsXsXsXsXsXsXsXsXsXsXsXsXsXsXsXsXsXsXsXsXsXsXsXsXsXsXsXsXsXsXsXsXsXsXsXsXsXsXsXsXsXsXsXsXsXsXsXsXsXsXsXsX+X!.R.L F $ ",
"jXP Q.}.OX@X@XtXrXrXrXrXrXrXrXrXtXtXrXrXrXyXrXyXrXrXrXrXrXrXrXrXyXpX2X2X<X{.5X<X{.{.5X6X6X2XaXpXrXrXrXrXrXrXrXrXrXrXrXrXrXrXrXrXtXtXtXtX%X|.!.R.L F $ ",
"jXT.Q.}.OX@X@XqXqXqXqXqXqXeXqXeXqXqXqXeX%XqXqXqXqXqXqXqXwXoX5X{ M.V.b._ Z V v m j j m C C C m.) ) 8X{.*XeXqXqXeXqXqXqXqXqXqXeXqXwXqXqXqXOX|.!.R.L F % ",
"jXT.Q.}.OX@X@XqXqXqX@XqXqXqX%X@XqXqXqXqXqXqXqXqXqXqXwX{.[ m.m.Z.G.G.1.s s 6 5 5 5 5 5 g 7 7 7 7 i s.<.' 9X2XqXeXqXqXqXqXqXqXqX%XqXqXqX@XOX|.!.R.L F $ ",
"jXT.Q.}.OX@XqX@X@XqXqXqXqXqXqXqXqXqX@XqXqXqXqXqXqX=X9XN.g.k.g.g.KXIXBXd.d a 1 + + + 1 4 7 7 7 7 i 2.a n k.A.2XeXqXqXqXqXqXqXqXqXqXqXqX@XOX|.!.R.L F $ ",
"jXP Q.}.OX@X@XqXqXqXqXqX@XqXqXqXqXqXqXqX@XqXqXqXwX9Xv.i.<.n b B j.S.Y.j.d a 4 1 2 2 2 2 4 7 7 7 x d n n 1.4.Z.2XqXqX@XqXqX@XqXqXqXqXqX@XOX|.!.R.L F $ ",
"jXP Q.}.OX@X@X@XqXqXqXqXqXqXqXqXqXqXqXqXqXqXqXqX<Xv.3.O.i i d n <.O.X.;.+.7 4 2 2 2 2 4 7 s a x c 1.n a i n i.{ %XqXqXqXqXqXqXqXqXqXqX@XOX|.!.R.L F $ ",
"jXP Q.}.OX@XqXqXqXqXqXqXqXqXqXqXqX@XqXqXqXqXqXeX9X;.0 y a ..d ..$.$.$.$.+.d i 4 2 4 5 6 s $.k.j.i 7 i h c x s.m.*XqXqXqXqXqXqX@XqXqXqX@XOX}.!.R.L F $ ",
"jXP Q.}.OX@X@XqX%XqXqX@XqXqXqX@XqXqXqXqXqXqX@X*XA.O.< t s a d O.$.d.0.9.$.;.d 7 h i p c p +.v.x.s 4 i 7 i x c n {.qXqXqXqXqXqXqXqX@XqX@XOX|.!.R.L F $ ",
"jXT.Q.}.OX@XqX@XqXqXqXqXqXqXqXqXqXqXqXqXqX@X@X2XZ.e : 8 0 +.O.O.O.j.u.9.9.9.9.6.6.6.9.9.w.9.0.;.$.n i i x h b Z 8XeXqX%XqXqXqXqXqXqXqX@X@X}.}.R.L F $ ",
"jXP Q.}.OX@X@XqXqXqXqXqXqXqXqXqXqX%XqXqXqXqXqX<Xd.q - 8 w O.9.$.5.p.p.q.q.q.7.6.5.6.6.7.t.t.j.d.j.d.n Z f.M C f.{ qXqXqXqX@XqXqXqXqXqX@XOX|.!.R.L F $ ",
"jXP Q.}.OX@X@XqXqXqX@XqXqXqXqXqXqXqXqXqXqXqX@X8X+.8 , e e @.j.h.h.p.p.t.q.7.6.6.6.5.6.7.8.t.h.h.d.1.b g.f.M V Z { 1XqXqXqXqXqXqXqXqXqX@XOX|.!.R.L F $ ",
"jXP Q.}.OX@X@XqXqXqXqXqXqX@XqXqXqXqXqXqXqX@X%X[ s - - < r O.d.h.h.p.t.q.7.6.6.f f @.5.6.8.t.u.j.k.s.s.s.g.N V Z C.<XeXqXqX@XqXqXqXqXqX%XOX}.!.R.L F % ",
"jXT.Q.}.OX@X@XqX%XqXqXqXqXqXqXqXqXqXqX@XqXqX@X[ 0 & & 3 3 ..+.h.q.q.q.7.7.q.7.@.f f @.7.e.e.y.j.j.d.d.d.g.Z V A C.0XqXeXqXqXqXqXqXqXqX@XOX|.!.R.L F $ ",
"jXT.Q.}.OX@XqXqXqXqX@XqXqXqXqXqXqXqXqXqXqXqX%X` & O - - r ..O.s.h.q.q.7.7.7.#.o.u f 6.8.r.r.y.u.d.g.s.s.<.f.k.f.C.8XqXqXqXqXqXqXqXqXqX@XOX|.!.R.L F $ ",
"jXT.Q.}.OX@X@X@XqXqXqXqX%XqXqXqX@XqXqXqXqXqXwX` = O - } O...o.s.q.q.8.8.7.7.#.#.f f 7.r.r.=.r.u.k.d.1.n n b Z V M.7XqXqXqXqX@XqXqXqXqX@X@X}.!.R.L F $ ",
"jXP Q.}.OX@XqXqXqXqXqXqXqXqXqXqXqXqXqXqXqX@X:X` * + < X.} e r 6.t.q.q.q.8.7.7.#.#.#.e.e.8.8.8.q.s.b v b b b k k ] 7XqXqXqXqXqXqX@XqXqX@XOX}.!.R.L F $ ",
"jXP Q.}.OX@XqX@XqX@XqXqXqXqX@XqXqXqX@XqXqX%X:X` : - = < e y y @.p.y.y.r.e.8.=.e.7.#. .#.7.8.8.f x j h b b v h g N.0XqXqXqXqXqXqXqXqXqX@X@X}.!.R.L F $ ",
"jXP Q.}.OX@X@XqXqXqXqXqXqXqXqXqXqXqXqX%XqXqX=X` 4 = + , e 0 y +.p.i.e.e.r.i.i.i.=.t r u u o.5.f v h h v v j j k M.7XqXqXqXqXqXqXqXqXqX@XOX|.!.R.L F $ ",
"jXP Q.}.OX@XqX@XqXqX@XqXqXqXqXqXqXqXqXqXqXqX=X` , + + < e 0 q 1.y.r.=.=.=.=.=.=. .w ; ; ; r f p h h h x v j V _ N.{.qXqXqXqXqXqXqXqXqX%XOX}.Q.R.L F $ ",
"jXP Q.}.OX@X@XqXqXqXqXqXqX@XqXqX@XqXqXqXqXqXeX` - O & } q 0 q a.j.r.=.7.| w w w | w 8 ; ; ; 0 6 g h j v v V A V C.6XqXqXqXqXqXqXqXqXqX@XOX|.!.R.L F % ",
"jXT.Q.}.OX@XqX@XqXqXqXqXqXqXqXqXqXqXqXqXqXqXeX[ 3 & > 0 < 0 a B d.;.$.} 9 9 w |  . .w 9 9 ; ; 5 g g j v m C A A M.<XqXqXqXqXqXqXqXqXqX@XOX|.}.R.L F $ ",
"jXP Q.}.OX@XqXqX@XqXqXqXqXqXqXqXqXqXqXqXqXqXqX[ y > > : < < p 9.a.#.o.w w t }  .=.-.| 9 8 ; , 5 g h j m C _ A A M.,XqXqXqXqXqXqXqXqXqX@XOX|.!.R.L F $ ",
"jXT.Q.}.OX@X@XqXqXqXqXqX@XqX@XqXqXqXqXqXqX%X@X8Xs 8 > > : , B f.Z +.w 9 w w }  .-.-.| 9 ; : 6 6 1 = 4 m V C A A ' *XqXqXqXqXqX@XqXqXqX@XOX}.!.R.L F $ ",
"jXP Q.}.OX@X@X@XqXqX@XqXqXqXqXqXqXqX@XqXqXqXqX<Xc > 8 > , A VXCXCXL.u q 8 ; ; ; 8 ; ; : & O h 6 3 * * < i v C _ { :XqXqXqXqXqXqXqX@XqX@XOX|.!.R.L F $ ",
"jXP Q.}.OX@XqXqXqXqXqXqXqXqXqXqXqXqXqXqXqXqXqX,XC * , c A P.JXJXLXVXy > * * ; 9 * ; 8 : * 3 b a 7 , * 8 =.q : N { %XqX@XqXqXqXqXqXqXqX@X@X}.}.R.L F $ ",
"kXT.Q.}.OX@X@XqXqXqXqXqXqX%XqXqXqXqXqXqXqXqXqX:X{ p A ] B.CXHXHXHXAXB ; : > e 9 * & * * : p N p 6 , , } c.x.w c 8X%XqXqXqX@XqXqXqXqXqX@XOX|.!.R.L F $ ",
"jXT.Q.}.OX@XqX@X@XqXqXqXqXqXqXqXqXqX@XqXqXqXqXwX9XN.D.B.F.ZXHXHXHXCXN ; ; ; * * * & * * - N D.N 7 0 q o.c.x.} Z <XqXqXqXqXqXqXqXqXqXqX@XOX|.!.R.L F $ ",
"jXP Q.}.OX@XqXqXqXqX@XqXqXqXqXqXqXqXqXqXqX@XqXqX{.F.N.N.L.LXJXHXI.A B < * & & : * & - = h N L.L.D.B u | i.t r { *XqXqXqXqX@XqXqXqXqXqX%XOX}.!.R.L F % ",
"jXP Q.}.OX@X@XqXqXqXqXqXqXqXqXqXqXqXqXqXqXqX@XqXwX{ B.N.VXKXY.S.$.n ] M O O O * & = = h A Z F.U.I.L.D.s.q y ' <X@XqX@XqXqXqXqXqXqXqXqX@XOX|.!.R.L F $ ",
"jXP Q.}.OX@X@X@XqXqX@XqXqXqXqX@XqXqXqXqXqXqXqXqXqX1X{ F.F.k.v.x.d Z N.B.g.d.> * O & h A _ A D.L.I.I.U.I.D.' 7X#XqXqXqXqXqXqXqXqXqXqXqX@X@X|.!.R.L F $ ",
"jXP Q.}.OX@XqXqXqXqXqXqXqXqXqXqX@XqXqXqXqXqXqXqXqXqX*X9XN.n @.d d V.V.Z.G.g.d 9 : h A ] ] _ ] H.U.I.I.U.MX<X#XqXqXqXqXqXqXqX@XqXqXqXqX@XOX}.!.R.L F $ ",
"jXP Q.}.OX@X@X@X%XqXqXqXqXqXqXqXqXqXqXqX@XqXqXqXqXqX%X$X0XL.B.f.f.N.V.V._ m.f.a p A _ _ f.D.B.F.L.I.VXCXlXqXqXqX%XqXqXqXqXqXqXqX@XqXqX@XOX}.!.R.L F $ ",
"jXT.Q.}.OX@XqXqXqXqXqXqX@XqXqXqXqXqX@XqXqXqXqXqXqX@XqXqX4XDXCXNXP.J.H.H.F.K.K.K.K.H.J.J.L.I.U.VXCXGXJXxXwXqXqXqXqXqX@XqXqXqXqXqXqXqXqX@X@X}.!.R.L F $ ",
"jXP Q.}.OX@X@X@XqXqXqXqXqXqXqXqXqXqXqX%XqXqXqXqXqXqXqXqX1XDXJXAXAXAXAXAXAXCXZXZXZXZXZXGXAXGXHXHXJXMX4XwXqXqXqX@XqXqXqX@XqXqXqXqXqXqXqX@XOX}.!.R.L F $ ",
"jXT.Q.}.OX@X@XqX@XqXqXqXqX@XqX%XqXqXqXqXqXqXqXqXqXqXqXqXwXcXDXJXJXHXHXAXGXZXGXZXGXZXZXFXDXSXvXlXdXwXeXqXqXqXqXqXqXqXqXqXqXqXqXqXqXqXqX%XOX|.!.R.L F $ ",
"jXP Q.}.OX@XqX@XqXqXqX%XqXqXqXqXqXqXqXqXqXqX@XqXqXqXqXqXqXwXaXlXzXxXcXvXvXcXxXxXxXlX0XaX:XwX@XqXeXeXqXqXqXqXqXqXqXqXqXqXqXqXqX%XqXqXqX@XOX|.}.R.L F $ ",
"jXP Q.}.OX@X@XqXqXqXqXqXqXqXqXqX@XqXqXqXqXqXqXqXqXqXqXqXqX.X XqXqXOX[./.@XqX@XqXqXqXqXqXqXqXqXqXqXqXqXqX@XqXqXqX@XqXqXqXqXqXqXqXqXqXqX@XOX|.Q.R.L F $ ",
"jXT.Q.}.OX@XqXqXqXqXqXqXqXqXqX%XqXqXqXqXqX@XqXqXqXqXqXqX.X:.Q +XqX&X:.l @XqXqXqXqXqXqXqXqXqXqXqXqXqXqXqXqXqXqXqXqXqX%XqXqXqXqXqXqXqXqX@X@X}.!.R.L F % ",
"jXT.Q.}.OX@XqX@XqX@XqXqXqXqXqXqX@XqXqXqXqXqXqXqXqXqXqXqXXX^ ( @XqX&X4.:.OXqX@X@XqXqXqXqXqXqXqXqXqXqXqXqXqXqX@XqXqXqXqXqXqX@XqXqXqXqXqX@XOX|.!.R.L F $ ",
"jXP Q.}.OX@X@XqXqXqXqXqXqXqXqXqXqXqXqXqX@X#X[.W Q R qXqX+X/ '.@XqX&X4.:.T W R +XqXqX@XT [.@XXX/ [.qXqX$X/ './ '.@XqXqXqXqXqXqXqXqXqXqX@XOX}.!.R.L F $ ",
"jXP Q.}.OX@X@XqXqXqXqXqXqX@XqXqXqXqX@XqXqX/.>.2.n.~ +XqX>X>.Q @XqX&X,.%.&.*.%./ @XqXoX&.W OX[.*.E @XqX[.*.X.*.~ qXqXqXqXqX@XqXqXqXqXqX@XOX|.!.R.L F $ ",
"jXP Q.}.OX@X@X@XqXqXqXqXqXqXqXqXqXqXqXqXqX].l.Q /.XX@X@XoX2.z OXqX&X>.*.( ].z.:.&XqXoX*.Q @X[.*.W @XqX[.z.&.].XX@XqXqXqXqXqXqXqXqXqXqX@XOX|.!.R.L F $ ",
"jXP Q.}.OX@XqXqXqXqXqXqXqX@XqXqXqXqX@XqXqXXX,.l.O.R @XqXoX2.z @XqXXX4.:.+X+X,.&.oXqXoX*.! %X[.%.W @XqX.X*.! OXqX@XqX@XqXqXqX@XqXqXqXqX@XOX|.!.R.L F $ ",
"jXP Q.}.OX@X@XqXqXqX@XqXqXqXqXqXqXqXqXqXqX@XXX( *.&.[.qXXX2.z @XqX+X,.>. X&X4.2.XXqXoX*.z OX].%.W @XeX.X*.! @XqXqXqXqXqXqXqXqXqXqXqXqX@XOX|.!.R.L F $ ",
"jXT.Q.}.OX@XqX@XqXqXqXqXqX@XqXqXqXqX@XqXqX.XE '.,.*./.qXXX4.z OXqX+X,.%.l l l.! @XqXXX3.&.W ,.l.~ %X@X.X&.! @XqXqXqXqXqXqXqXqXqXqXqXqX@XOX|.!.R.L F $ ",
"jXT.Q.}.OX@XqXqX@XqXqXqXqXqXqXqXqXqXqXqXeX].4.&.>.( +XqX&Xb.^ +XqX+X^ b.,.*.,.[.@XqX@X( 3.3.! n.) @XqXoXn.( @XqXqXqXqXqXqXqXqXqXqXqXqX%X@X}.!.R.L F $ ",
"jXP Q.}.OX@X@X@XqXqXqXqXqXqXqX@XqXqXqXqXqX%XoX[..X+XqXqXqXXX&XqXqXqXXX+XXX>X&XqX@XqXqXqX>X>X&X&X&XqXqX@XoX+X@XqXqXqXqX@X@XqXqXqXqXqXqX@XOX}.!.R.L F $ ",
"jXP Q.}.OX@XqXqXqXqXqXqXqXqXqXqXqXqXqXqXqXqXqXqXqXqXqXqXqXqXqXqXqXqXqXqXqXqXqXqXqXqXqXqXqXqXqXqXqXqXqXqX@XqXqXqXqXqXqXqXqXqXqXqXqX@XqX@XOX}.!.R.L F % ",
"jXP Q.}.OX@X@XqXqXqXqX@XqXqXqXqXqXqXqXqXqXqXqXqXqXqXqXqXqXqXqXqXqXqXqX@XqXqXqXqXqXqXqXqXqXqXqXqXqXqXqXqX@XqXqXqXqX@XqXqXqXqX%XqXqXqXqX@X@X}.!.R.L F $ ",
"jXT.Q.}.OX@X@X@XqXqXqXqXqX@XqXqX@XqXqX@XqXqXqXqXqXqXqXqXqXqX@XqXqXqXqXqXqXqXqXqXqXqXqXqXqXqXqXqXqXqXqXqXqXqXqXqXqXqXqXqX@XqXqXqXqX@XqX@XOX|.!.R.L F $ ",
"jXT.Q.}.OX@XqXqXqX@XqXqXqX@X+XOXOX@XqXqXqXqXqX@XqX@XqXqXqXqXqXqXqXqXqXqXqX@XqXqXqXqXqX@XqXqXqXqXqXOXK T.@XqXqXqXqXqXqXqXqXqXqXqXqXwXqX@XOX|.!.R.L F $ ",
"jXP Q.}.OX@X@XqXqXqXqX%X@XK @ o @ S W.@XqXqXqX@XqXqXqXqXqXqX%XqXqXqX@XqX@X@XqXqXqXqXqXqXqXqXqXqXqX X. F @XwXqXqXqXqXqXqXqXqXqXqXqXqXqXqXOX}.}.R.L F $ ",
"jXP Q.}.OX@XqX@XqXqXqXqX@XF   D D . # |.qXqX%X@XOX%XqXqXqX@XOXOX@XqXqXqXqX@X@X%XOXOXqXqXqXqXqXOXOX|.X F @XqX@XOX@X+X%X@XqXqX@XOXOXqXqX@XOX|.!.R.L F $ ",
"jXP Q.}.OX@XqXqXqXqX@XqX%XG . R.OX% . R.eXOXG G D G OXqXOXT.$ # J  XqXqX%XK F K $ S ^.@XqXqX^.D $ F . D @XqXOXD K % K @XqXOXJ $ $ L OX@XOX|.!.R.L F $ ",
"jXP Q.}.OX@X@XqXqXqXqXqX@XG . T.|.$ o ^.qX|.$   o D |.qXL o D F . G @XqXOXS   @ $   S OXqXOXS . $ @   D OXqX|.X . @ J @X@XG . F S . L %XOX}.!.R.L F % ",
"jXT.Q.}.OX@XqX@XqXwXqXqX@XG   # # . F OXqXOX$ o R.OXqX@X% X K K . # @XqX@XS . T.|.@ # |.qX^.o % OXR.. D %X@X|.o # }.OXqX X@ # T.J   D @XOX|.!.R.L F $ ",
"jXT.Q.}.OX@X@XqX@XqXqXqXqXJ   # S L  XqX@XOX$ # OXwX@XOX# . # $ # D OXqX+XD o !.@X# # |.qXQ.. F @X X. D %X@X|.o % $X@X@X}.o X # $ # F @XOX|.!.R.L F $ ",
"jXP Q.}.OX@XqX@XqXqX@XqX@XJ . T.@XqXqXqXqXOX% # OXqXqX%X% o T.|.^.OX@XqX@XD o Q.@X$ @  XqX^.X % |.R.. S @XqX|.@ % @XqXqX|.@ # W.}.}.|.@XOX|.!.R.L F $ ",
"jXP Q.}.OX@X@XqXqXqXqXqX%XJ . R.wXqXqXqXqXOX% @ OXqXqX@XL . % F D K @XqX@XD o ^.qX% # |.qX|.%   $ @   S %X@X|.@ % OXqXqX%XG . % G % R.@XOX|.!.R.L F $ ",
"jXP Q.}.OX@XqXqXqXqXqXqX@XK $ Q.qXqX@XqXqXOXD D OXqXqX@XQ.S $ $ % P @X@X@XJ % |.%XF D OXqX@XL # $ D $ G @X@X|.S G @XqXqX@XT.% # $ % Q.@XOX|.!.R.L F $ ",
"jXP Q.}.OX@X@X@X@X%X%XwX%XQ.Y |.%X%X@X%X@X$XT.P $X@X%X%XW.P ^. X|.$X@X%X$XR.P  X%XE.P OXwX XP T. X}.K W.%X%X XP W.%X%X@X$XT.P }. XOX$X%XOX|.!.R.L F $ ",
"jXP Q.}.OX@X%X$X$X$X$X=X$X^.E.W.^. X$X$X$X$XW.W.$X$X$X$XW.E.W.W.W.^.$X$X$X~.W. X$XW.E.$X$X XE.~.$X$XE.~.$X$X XW.~.$X$X$X XW.E.W.~.W.`.$X$X X!.R.L F $ ",
"jXT.Q.}.OX+X;X;X;X;X;X;X;X`.W._.~.(.`.;X;X;X_.~.-X;X;X;X~.~.`.`.~._.;X;X;X_.~.`.;X~._.;X;X-X~._.;X-X~._.;X;X-X~.~.-X;X;X;X_.~.`.`.W.`.;X;X;X!.R.L F $ ",
"jXP Q.}.-X`.`.`.`.`.`.`.`._.(._._.(.(.`.`.`.(.(.(._.`.`._.(.~.`.(._.`.`.`.~.(.(.(.(.(.`.`.`.(.(.(.(.(._.`.`._.(.(.(._.`.`._.(._._.(._.`.`.`.`.R.L G $ ",
"jXP Q.R.U U U E.U U U E.U U U U U U U U U U U U U U U U U U U U U U U U U U U U U U U U E.U U U U U Y U E.U U U U U U U U U U U U U U U E.U U U L G $ ",
"jXP E.Y Y Y Y Y Y Y Y Y Y Y Y Y Y Y Y Y Y Y Y Y Y Y Y Y Y Y Y Y Y Y Y Y Y Y Y Y Y Y Y Y Y Y Y Y Y Y Y Y Y Y Y Y Y Y Y Y Y Y Y Y Y Y Y Y Y Y Y Y I G $ ",
"kX(.3X3X3X3X3X3X3X3X3X3X3X3X3X3X3X3X3X3X3X3X3X3X3X3X3X3X3X3X3X3X3X3X3X3X3X3X3X3X3X3X3X3X3X3X3X3X3X3X3X3X3X3X3X3X3X3X3X3X3X3X3X3X3X3X3X3X3X3X3X3X3X).H ",
"mXnXnXnXnXnXnXnXnXnXnXnXnXnXnXnXnXnXnXnXnXnXnXnXnXnXnXnXnXnXnXnXnXnXnXnXnXnXnXnXnXnXnXnXnXnXnXnXnXnXnXnXnXnXnXnXnXnXnXnXnXnXnXnXnXnXnXnXnXnXnXnXnXnXxX"
};
