/* XPM */
static char *voir[] = {
/* columns rows colors chars-per-pixel */
"75 75 254 2",
"   c #020202",
".  c #0C0C0C",
"X  c #110D0D",
"o  c #0E1514",
"O  c #141212",
"+  c #181616",
"@  c #1C1C1C",
"#  c #122625",
"$  c #183534",
"%  c #212121",
"&  c #2B2B2B",
"*  c #282C35",
"=  c #2E3035",
"-  c #343434",
";  c #343539",
":  c #3C3C3C",
">  c #12234B",
",  c #0F3C56",
"<  c #143D55",
"1  c #212D45",
"2  c #313744",
"3  c #213357",
"4  c #1B3875",
"5  c #1D397C",
"6  c #243A68",
"7  c #233D74",
"8  c #1E4444",
"9  c #16435C",
"0  c #2C4A53",
"q  c #0F4160",
"w  c #134462",
"e  c #164867",
"r  c #164E72",
"t  c #195378",
"y  c #274B63",
"u  c #365769",
"i  c #2F4974",
"p  c #2F7372",
"a  c #434343",
"s  c #4B4A4B",
"d  c #4D5051",
"f  c #565555",
"g  c #5D5A5B",
"h  c #62605F",
"j  c #4B556C",
"k  c #635D60",
"l  c #486777",
"z  c #596977",
"x  c #546B7B",
"c  c #696565",
"v  c #736A6D",
"b  c #6F6F71",
"n  c #786D72",
"m  c #7C7376",
"M  c #7A7576",
"N  c #83757C",
"B  c #233F82",
"V  c #1D5A83",
"C  c #264588",
"Z  c #284C96",
"A  c #2B5494",
"S  c #31519D",
"D  c #24628D",
"F  c #286995",
"G  c #264EA7",
"H  c #284DA2",
"J  c #2C54A8",
"K  c #3457A3",
"L  c #3457AE",
"P  c #3558AE",
"I  c #2C55B3",
"U  c #2E58B1",
"Y  c #315BB5",
"T  c #315EBC",
"R  c #2E73A2",
"E  c #357AA9",
"W  c #357CAC",
"Q  c #3C64BF",
"!  c #415889",
"~  c #546D8B",
"^  c #6D7485",
"/  c #657C88",
"(  c #4A6BB2",
")  c #647DB2",
"_  c #2D5CC4",
"`  c #305DC2",
"'  c #3361C3",
"]  c #3667CD",
"[  c #3264D5",
"{  c #386AD4",
"}  c #3A6EDB",
"|  c #3368E0",
" . c #386EE8",
".. c #3C72E3",
"X. c #3971EC",
"o. c #3F78EE",
"O. c #3871F1",
"+. c #3F79F1",
"@. c #3D79FC",
"#. c #476EC5",
"$. c #486EC6",
"%. c #406CD5",
"&. c #4572D7",
"*. c #4A73D6",
"=. c #527CD2",
"-. c #4579E5",
";. c #467AEE",
":. c #4B7DED",
">. c #427CF5",
",. c #427EFD",
"<. c #487FF9",
"1. c #897780",
"2. c #8C7B83",
"3. c #927E88",
"4. c #368787",
"5. c #3F9F9F",
"6. c #3A81AF",
"7. c #3C85B3",
"8. c #728B94",
"9. c #778998",
"0. c #428DBA",
"q. c #4491BD",
"w. c #4B97BB",
"e. c #5198BA",
"r. c #7788AE",
"t. c #6781BB",
"y. c #43A9A8",
"u. c #46B5B5",
"i. c #578ECF",
"p. c #4695C1",
"a. c #4B9CC4",
"s. c #7491CE",
"d. c #6A8DD6",
"f. c #7796D8",
"g. c #56A8C9",
"h. c #57ACCB",
"j. c #5DB6D3",
"k. c #62B7CE",
"l. c #72B2CB",
"z. c #65BBD6",
"x. c #62BCD4",
"c. c #4F82EF",
"v. c #5584EA",
"b. c #5C8AEE",
"n. c #4A82F5",
"m. c #4380FF",
"M. c #4B83FC",
"N. c #4F8DFF",
"B. c #568AF8",
"V. c #5893FC",
"C. c #599BFF",
"Z. c #628DEB",
"A. c #6A94E7",
"S. c #769BE7",
"D. c #7299EF",
"F. c #608FF9",
"G. c #6996F7",
"H. c #6493F9",
"J. c #729CF5",
"K. c #62A2FF",
"L. c #69A9FB",
"P. c #7CA3F3",
"I. c #73B4FF",
"U. c #54C7CE",
"Y. c #59D6DA",
"T. c #67C6DB",
"R. c #71CCDA",
"E. c #69CEE1",
"W. c #68D8E6",
"Q. c #5CE5E8",
"!. c #5FF1F6",
"~. c #64E5EB",
"^. c #63ECF3",
"/. c #68E9F2",
"(. c #66F2F7",
"). c #75F2F4",
"_. c #878686",
"`. c #95828B",
"'. c #908892",
"]. c #86929B",
"[. c #989898",
"{. c #A48A98",
"}. c #AA929E",
"|. c #879CA7",
" X c #919CB2",
".X c #AF90A0",
"XX c #B394A4",
"oX c #BE9BAD",
"OX c #96A6B0",
"+X c #A7A6A8",
"@X c #B1AFAF",
"#X c #A8B4BA",
"$X c #B4B6B7",
"%X c #C9A4B7",
"&X c #D1AABE",
"*X c #8399C6",
"=X c #88A3DB",
"-X c #97AFD2",
";X c #ACB4C7",
":X c #B2BAC5",
">X c #AAB7D2",
",X c #85A6EB",
"<X c #97B3ED",
"1X c #98B2EA",
"2X c #83A5F2",
"3X c #87ABF6",
"4X c #A5BCEC",
"5X c #D5ADC1",
"6X c #D8AEC3",
"7X c #DCB3C7",
"8X c #E2B8CD",
"9X c #E6BCD1",
"0X c #E8BED3",
"qX c #9BC0D4",
"wX c #BAC4C9",
"eX c #A8CED9",
"rX c #B9C3D7",
"tX c #8EDBE5",
"yX c #AFC6ED",
"uX c #8EE9EE",
"iX c #A9E8EC",
"pX c #CCC4CC",
"aX c #C7CDD7",
"sX c #CDD2D9",
"dX c #D2D5D9",
"fX c #EBC3D6",
"gX c #ECC8D9",
"hX c #F0C5DA",
"jX c #F4C9DE",
"kX c #EBD3DD",
"lX c #E3D9DD",
"zX c #C8D2E5",
"xX c #D5DAE2",
"cX c #F7CDE1",
"vX c #EBD7E0",
"bX c #ECDCE3",
"nX c #F9D4E5",
"mX c #F9DBE9",
"MX c #D6E2E3",
"NX c #CAF6F6",
"BX c #ECE2E6",
"VX c #E2E6E9",
"CX c #EDE5E9",
"ZX c #EEEBED",
"AX c #FAE4EE",
"SX c #F0EEEF",
"DX c #F0EFF0",
"FX c #FBEAF1",
"GX c #EEF0F2",
"HX c #F2F2F2",
"JX c #FBF2F6",
"KX c #FCF6F9",
"LX c #F6F8F9",
"PX c #FEFEFE",
/* pixels */
"1XA.D.D.D.D.D.D.D.D.L.D.D.D.D.A.D.D.D.D.D.D.L.D.D.A.D.D.L.S.D.D.D.D.D.D.D.D.D.D.A.L.D.D.D.D.D.D.D.D.D.D.D.D.D.D.D.D.L.A.D.D.D.D.D.D.D.D.D.D.A.L.S.D.d.",
"t.] @.>.@.,.@.@.@.@.@.@.@.@.@.@.@.,.@.@.@.@.@.@.@.@.@.@.@.@.@.@.@.@.@.m.@.@.@.@.@.@.@.@.@.@.@.@.@.@.@.@.@.m.@.@.@.@.@.@.@.@.@.@.@.@.@.@.@.@.@.@.@.| 4 ",
"t.U  .m.m.m.m.m.m.m.N.m.N.m.m.m.m.m.N.m.m.m.N.m.m.N.m.m.m.m.N.m.m.m.m.m.m.m.m.N.m.N.M.m.m.m.m.N.N.m.m.m.m.m.m.m.m.m.N.m.m.m.m.N.m.N.m.m.m.N.m.m.X.Z > ",
"t.U [ >.C.C.C.C.C.C.C.C.C.C.C.K.C.C.C.C.C.C.C.C.C.C.C.C.C.C.C.C.C.C.C.C.C.C.C.C.C.C.C.C.C.C.C.C.C.C.C.C.C.C.K.C.C.C.C.C.C.C.C.C.C.C.C.C.C.C.C.N.Y r > ",
"t.I [ X.N.L.I.I.I.I.I.I.I.I.I.I.I.I.I.I.I.I.I.I.I.I.I.I.I.I.I.I.I.I.I.I.E.I.I.I.I.I.I.I.I.I.I.I.I.I.I.I.I.I.I.I.I.I.I.I.I.I.I.I.I.I.I.I.I.I.G.{ G 5 > ",
"t.I [ X.,.C.I.I.I.I.I.I.I.I.I.I.I.I.I.I.I.I.I.I.I.I.I.E.I.I.I.I.I.I.I.E.I.I.I.I.I.I.I.I.I.I.I.I.I.E.I.I.I.I.I.I.I.I.I.I.E.I.I.I.I.I.I.I.I.L.-._ G 5 > ",
"t.I [ X.@.,.N.K.K.K.K.K.K.K.K.K.K.K.K.K.K.K.K.K.K.K.K.K.H.K.K.K.K.K.K.K.K.K.K.K.K.K.K.K.K.K.K.K.C.K.K.K.K.K.K.K.K.K.K.K.K.K.K.K.K.K.K.K.C.n.| _ G 5 > ",
"t.I [ X.@.,.m.N.N.N.N.N.N.N.N.N.N.N.N.N.N.N.N.N.N.N.N.N.N.N.N.N.V.H.A.S.A.d.A.Z.b.B.N.N.N.N.N.N.N.N.N.N.N.N.N.N.N.N.N.N.N.N.N.N.N.N.N.N.m.O.| _ G 5 > ",
"t.I [ X.@.m.m.m.m.m.m.m.m.m.m.m.m.m.m.M.m.m.m.m.m.m.m.m.<.V.J.-X-XOX[.[.'.'.]._.9.9.) =.-.<.,.m.m.m.m.m.m.m.m.m.,.m.m.m.m.m.m.m.m.m.m.m.,.O.| _ G 5 > ",
"t.I [ X.@.m.m.@.m.m.m.m.m.m.m.m.,.m.m.m.m.m.m.m.m.,.M.G.1X:X+X_.M n m M n N n v v c c b ^ ( &.>.,.,.m.,.m.m.m.m.m.,.m.m.m.m.m.m.m.m.m.,.@.O.| _ G 5 > ",
"t.I [ X.@.m.m.m.m.m.m.m.m.m.m.m.m.m.m.m.m.m.m.m.m.H.<X:X[.M N `.XX%X6X7X8X7X7X&X%X}.3.v k k z ~ &.+.>.,.m.m.m.m.m.m.m.m.m.m.m.m.m.m.m.,.@.O.[ _ G 5 > ",
"t.I [ X.@.m.m.m.m.m.m.m.m.m.m.m.m.m.,.m.m.m.,.M.3XrX+XM 2.XX&XfXfXgXkXvXbXlXkXkXgXfX9X5X.Xn g g j ( -.,.,.m.m.m.m.m.m.m.m.m.m.m.,.m.m.,.@.O.| _ G 5 > ",
"t.I [ X.@.,.m.m.m.m.m.m.m.m.m.m.m.m.,.m.,.,.N.4XwX_.m XX8XfXkXlXCXCXZXZXSXSXZXZXZXBXBXkXfX7X.Xv g f S } >.<.,.,.m.m.m.m.m.m.m.m.,.m.m.,.@.O.| _ G 5 > ",
"t.I [ X.@.m.m.@.m.m.m.m.m.m.m.m.m.m.m.m.,.B.yX$XM `.6XhXkXBXZXZXZXGXDXDXDXDXHXZXDXZXZXZXBXkXfX&X2.g f ! ] ;.,.,.m.m.,.m.m.m.m.m.,.,.m.,.@.O.| _ G 5 > ",
"t.I [ X.@.,.m.m.m.,.m.m.m.m.m.m.m.m.m.,.N.yX@Xb .X8XgXbXZXSXDXHXHXLXHXDXZXZXDXHXLXHXHXHXZXZXlXgX8X}.h d i %.o.,.m.m.m.m.m.m.m.m.,.,.,.,.@.O.| _ G 5 > ",
"t.I [ X.@.,.m.m.m.m.m.m.m.m.m.m.m.m.,.M.4X$Xn XX9XkXCXDXDXHXHXHXVX#X]./ x x x 8.OXpXZXHXDXDXSXCXkXkX+Xg d i ] +.,.,.m.m.m.m.m.m.,.,.,.,.@.O.| _ G 5 > ",
"t.I [  .@.@.m.m.m.m.m.m.m.m.m.m.m.,.,.3XpXN .X9XkXZXZXDXHXHXdX].u 9 9 r r t r 9 q y x #XZXHXDXDXSXBXbX}.f s A { +.,.m.m.m.m.,.m.m.m.,.,.@.O.| _ G 5 > ",
"t.I [ O.@.@.m.m.m.m.m.,.m.m.m.m.m.,.H.aX8.`.9XkXCXDXDXHXGX+X0 9 t F E 7.0.7.7.6.R D e < x dXHXHXSXZXBXlX`.d a K ..>.,.m.m.m.m.m.m.m.m.,.@.O.| _ G 5 > ",
"t.I [  .@.m.m.m.m.,.m.m.m.m.m.m.m.M.yX+XN &XgXBXDXDXHXVX8.< r R 7.w.e.e.e.u.e.e.w.7.6.F w x dXKXDXSXSXBX8Xv s y T o.,.m.m.m.m.m.m.m.m.,.@.O.| _ G 5 > ",
"t.I [ O.@.m.m.m.m.m.m.,.m.,.m.m.,.L.rXm oXfXBXZXDXDXZX8.9 D 6.0.e.g.k.k.k.T.T.k.k.e.e.7.e.|.OXdXHXSXSXBXhXXXf 2 Z ] +.,.m.m.,.m.m.,.m.,.,.O.| _ G 5 > ",
"e.I [ X.@.m.m.m.m.m.m.m.,.m.m.m.M.yX+XN 9XkXSXSXHXHX].9 D W e.g.k.U.T.Y.Y.Y.Y.Y.Y.k.h.l.-XqXOXOXlXHXZXZXlX8XN : 3 Y ..,.m.m.m.m.,.m.m.,.@.O.| _ G 5 > ",
"t.I [ X.@.m.m.@.m.,.m.m.m.m.m.,.H.wXN oXgXBXSXSXHX:X9 t 0.e.g.R.tXiXuX~.Y.Y.Q.~.~.Y.R.eXeXeX=Xp / ZXHXZXBXfX.Xf 2 Z [ +.,.m.m.m.,.,.m.,.@.O.| _ G 5 > ",
"t.I [ X.@.m.m.m.m.m.m.,.m.m.m.m.3X@XN &XkXZXSXHXZXx e E 0.l.R.iXNXNXzX8.8 $ $ p u./.iXiXeXl.0.F 9 #XHXHXZXkX&Xv a i T o.,.m.m.,.,.,.,.,.,.O.| _ G 5 > ",
"t.I [ O.@.@.m.m.m.m.m.m.m.m.,.n.4X_.{.fXBXSXDXJX$X9 F q.e.k.tXNXNXwX$X[.& X X . : OXiXuXY.k.e.6.e l ZXZXSXlXfX3.a 3 J } <.m.m.m.,.,.,.,.@.O.| _ G 5 > ",
"t.I [  .@.m.m.m.m.m.m.m.m.m.m.V.wXM oXgXCXDXHXDX8.q W a.x.W.uXNX:X+X@X+X: @ % : b a p Q./.R.h.q.F 9 wXHXSXBXfXXXs = Z ] ;.m.m.m.m.m.m.,.@.O.| _ G 5 > ",
"t.I [ O.@.m.m.m.m.m.m.m.m.m.m.G.$Xm &XvXZXDXHXVXu V q.k.E.~.).eX@X$X$X_.+ o @ : & O . 5.!.W.T.a.W w OXHXSXZXkX%Xg = C ` X.,.m.m.m.m.,.,.@.O.| _ G 5 > ",
"t.I [  .@.m.m.m.m.m.m.m.m.m.m.P.+XN 7XvXZXHXPXsXy F p.j.E.^.Y.d _.[.b %       . @ % . 8 Q.~.T.g.0.r 8.HXLXSXvX6Xc = 7 Y ..,.m.m.m.m.m.,.@.O.| _ G 5 > ",
"t.I [ O.@.@.m.@.m.m.m.m.m.m.m.S.[.1.8XbXLXPXPXwXw E a.z.W.(.y.. @ % .     o     X @ + # U.^.T.j.q.V x HXPXLXbX7Xv - 6 U ..,.m.,.,.m.m.,.@.O.| _ G 5 > ",
"t.I [ O.@.,.m.m.@.m.m.m.m.m.m.P.[.2.fXAXPXPXPXwXw E a.z.W.(.4.X @ @     & M s     % @ o u.^.E.h.q.V l GXPXPXAX9Xn - 6 J } ,.m.m.,.<.m.,.@.O.| _ G 5 > ",
"t.I [  .@.,.m.m.m.m.m.m.m.m.m.S.[.3.hXFXPXPXPXwXw E g.z.W.(.4.. % %     : [.c   . % @ o u.!.E.j.p.V l GXPXPXFXhXm = 6 J } >.m.m.,.,.m.,.@.O.| _ G 5 > ",
"t.I [ O.@.,.,.,.m.m.m.m.m.m.m.S.[.`.gXFXPXPXPXaX9 R a.x.W.(.y.. + % .   . - @   . % O # U.Q.E.g.7.t ~ HXPXPXAX0Xm - 6 G } >.m.m.,.,.,.,.@.O.| _ G 5 > ",
"t.I [  .@.,.m.m.m.m.m.m.m.m.m.A.[.1.fXAXPXPXPXxXy F a.k.E.^.Y.$ . % + .       . @ % . 9 Q.W.E.j.7.r 8.PXPXPXAX9Xv = 6 J } ,.m.,.,.,.,.,.@.O.| _ G 5 > ",
"t.I [  .@.,.m.m.m.m.,.m.m.m.,.Z.+XM 8XmXPXPXPXHXl t 0.h.R.W.^.4.. + % @ O o O @ # + O y.(.W.j.a.W w ;XPXPXKXAX&Xh = 7 J } ,.,.,.m.m.m.,.,.O.| _ G 5 > ",
"t.I [ O.@.,.m.m.m.m.m.m.m.m.m.B. XM &XmXKXPXPXPX|.4 W a.j.E./.Q.y . + @ % % % % o . p ^.W.E.h.p.F y MXPXPXJXnX%Xd * C U ..,.m.m.m.m.m.,.@.O.| _ G 5 > ",
"t.I [ X.@.m.,.m.m.,.m.m.m.m.,.M.*XM XXcXFXPXPXPXMXy D p.h.E.W./.Q.p o . X o X . # 4.~.^.E.z.a.7.e 8.LXPXPXFXjX{.a 1 C T o.,.m.m.,.m.m.,.@.O.| _ G 5 > ",
"t.I [ X.@.,.,.,.m.m.m.m.m.,.m.m.s._.2.hXAXPXPXPXPX9., E a.h.T.W.^.Q.U.p 8 8 0 4.U.^.~.W.j.h.q.V y dXPXPXKXAXfXn - 3 Z ' o.m.m.,.m.m.m.,.@.O.| _ G 5 > ",
"t.I [ O.@.m.m.,.m.m.,.m.m.,.M.m.b.[.n 5XnXKXPXPXPXVXl r 7.a.j.T.W.W.^.(.!.Q.~.(.^.W.E.j.h.q.F , OXLXPXPXJXnX%Xf * 7 G ] >.m.m.m.,.m.m.,.@.O.| _ G 5 > ",
"t.I [  .@.,.m.,.m.m.m.m.m.m.,.,.n.r.M '.jXAXPXPXPXPXwXy t 7.a.h.j.R.E.W.Q.~.~.W.E.T.j.a.q.R q 8.HXPXPXLXAXhX`.: 1 C Y ..,.,.m.,.m.m.m.,.@.O.| _ G 5 > ",
"t.I [ X.@.m.m.m.m.m.m.m.m.m.m.m.,.i._.v 5XnXJXPXPXPXLXwXy t W q.a.j.j.x.j.T.T.k.j.h.a.7.F q / VXPXPXPXJXnX%Xg & 6 Z ' o.,.m.m.m.,.,.,.,.@.O.| _ G 5 > ",
"t.I [ O.@.,.,.m.m.m.,.m.m.m.,.m.,.<.r.b 3.fXAXKXPXPXPXPXwXu w D 7.q.a.a.g.g.g.e.p.7.W t 9 9.ZXPXPXPXKXmX0XN : > C I } ,.m.m.m.m.,.,.,.,.@.O.| _ G 5 > ",
"t.I [ X.@.,.m.m.m.m.m.m.m.m.m.m.,.,.=.^ v XXcXAXPXPXPXPXPXVX9.y q t R E W 6.W R D r q u :XLXPXPXPXKXAXjX{.s * i Z ' o.m.m.m.m.m.m.m.m.,.@.O.| _ G 5 > ",
"t.I [ X.@.@.m.m.m.m.,.m.m.m.m.,.,.,.,.) b v %XnXAXPXPXPXPXPXPXsXr.l y 9 w e e e u / #XGXPXPXPXPXKXAXjXoXg * 3 C U } >.m.m.m.m.m.m.m.m.,.@.O.| _ G 5 > ",
"t.I [ O.@.@.@.m.,.m.m.m.m.m.m.m.,.,.m.;.~ c n &XcXAXKXPXPXPXPXPXPXGXdXwX#X#X:XwXVXLXPXPXPXPXPXKXFXcX%Xk - > C H ] +.m.m.m.m.m.,.,.m.m.,.@.O.| _ G 5 > ",
"t.I [ X.@.m.m.m.m.m.m.m.,.m.m.m.,.,.m.m.-.~ h b %XcXAXJXPXPXPXPXPXPXPXPXPXPXPXPXPXPXPXPXPXPXJXmXjXoXc ; 1 i Z ' X.m.m.m.m.m.m.m.m.m.m.,.@.O.| _ G 5 > ",
"t.I [ X.@.m.m.m.m.m.m.,.m.,.m.m.,.m.m.m.<.*.~ k v XXhXnXAXKXKXKXPXPXPXPXPXPXPXPXPXPXPXPXKXAXnXfX}.g - 1 7 Z T ..,.m.,.m.,.m.m.m.,.M.,.,.@.O.| _ G 5 > ",
"t.I [ X.@.m.m.m.m.m.m.m.m.m.m.m.m.m.m.,.<.,.*.! g c `.5XcXmXFXJXKXLXPXPXPXPXPXPXPXKXFXAXmXjX&XN d - 1 7 Z Y ..@.,.m.m.m.m.m.,.m.,.,.,.,.@.O.| _ G 5 > ",
"t.I [ X.@.m.m.m.m.,.m.m.m.m.,.m.m.m.m.m.,.,.M.-.! j f v {.5X0XnXmXAXFXFXFXFXFXFXAXmXnXfX&X`.k : * 3 C S T ..>.,.,.m.m.m.,.m.m.m.,.,.,.,.@.O.| _ G 5 > ",
"t.I [ X.@.@.m.m.m.m.m.,.m.m.m.m.m.m.m.m.,.,.,.,.;.Q j d f c 2.oX5X9XgXhXcXjXjXgX8X&XXXN g a = 1 4 Z J ' ..,.m.m.m.m.m.m.m.m.m.m.,.,.,.,.@.O.| _ G 5 > ",
"t.I [ O.@.m.m.m.m.m.m.m.m.m.m.m.M.,.,.m.m.m.m.,.,.>.} S j s d g k v N 3.3.`.3.N v g s : = 1 6 C Z T { o.,.,.m.m.,.m.m.,.m.m.m.m.m.,.m.,.,.O.| _ G 5 > ",
"t.I [ X.@.m.m.@.m.m.m.m.m.m.m.m.,.m.m.m.m.,.m.m.m.,.n.;.] K i 0 2 a a a a a a : ; = 1 3 7 Z H Y ] ..>.,.m.m.m.m.m.m.m.m.m.m.m.,.m.m.m.,.@.O.| _ G 5 > ",
"t.I [ X.@.m.m.m.m.m.m.m.m.m.m.m.m.m.,.m.m.m.m.m.m.m.m.,.,.o.} T P A i i 6 6 6 6 i C Z H U T ] ..>.,.,.,.m.,.m.m.m.,.m.m.m.,.m.m.m.m.m.,.@.O.| _ G 5 > ",
"t.I [ X.@.@.m.m.m.m.m.m.m.m.m.m.m.m.m.m.m.m.,.m.m.m.m.m.,.,.>.>.-.%.{ ' ' Q T T T ` ] { ..o.>.,.,.m.m.m.m.m.m.m.m.m.m.m.m.m.m.m.m.,.m.,.@.O.| _ G 5 > ",
"t.I [  .@.@.m.m.m.m.m.m.m.m.m.m.m.,.m.m.m.m.m.,.m.m.m.m.m.m.m.m.,.,.>.+.o.o...o.o.+.+.@.,.,.m.m.,.m.m.m.m.,.m.,.m.m.,.,.m.m.m.,.,.m.m.,.@.O.| _ G 5 > ",
"t.I [ X.@.@.m.m.m.m.m.m.m.m.m.m.m.m.m.m.m.m.m.m.m.m.m.,.m.m.m.m.,.,.,.,.m.,.m.,.m.m.m.m.m.m.m.m.m.,.m.m.m.m.m.m.m.m.m.M.m.m.m.m.,.,.m.,.@.O.| _ G 5 > ",
"t.I [ X.@.m.m.m.m.m.m.m.m.m.m.m.m.m.m.m.,.m.m.m.m.m.m.m.,.m.m.,.m.,.,.m.m.m.m.m.m.m.m.m.m.m.m.m.m.m.m.m.m.m.,.m.,.m.m.,.m.m.m.m.,.,.,.,.@.O.| _ G 5 > ",
"t.I [ X.@.m.m.m.m.m.@.m.m.m.m.m.m.m.,.m.m.m.m.m.,.m.m.m.m.m.m.m.m.m.m.m.m.m.m.m.m.m.m.m.m.m.m.m.m.m.,.m.m.m.m.m.m.m.m.m.m.,.m.m.,.,.,.,.@.O.| _ G 5 > ",
"e.I [ X.@.@.m.m.m.m.@.m.m.m.m.m.m.m.m.m.,.m.m.,.m.m.m.m.,.<.m.,.m.m.m.m.m.m.m.m.m.m.m.m.m.m.m.m.m.m.m.,.m.m.m.m.m.m.m.m.m.m.m.m.m.m.,.,.@.O.| _ G 5 > ",
") I [ X.@.m.m.m.m.m.m.m.m.m.m.m.m.,.m.m.m.m.M.v.:.m.m.m.n.v.<.,.m.m.m.m.m.m.,.m.m.M.s.v.m.m.m.m.m.m.m.m.m.m.,.m.m.m.m.m.m.,.m.m.m.m.m.,.@.O.| _ G 5 > ",
"t.I [ X.@.m.m.m.m.m.m.m.m.m.m.m.m.m.m.,.m.,.G.>Xs.:.m.m.S.:Xb.,.,.m.m.m.m.m.m.m.m.Z.aXf.@.m.m.m.,.m.,.m.m.m.m.m.,.m.m.,.m.m.m.,.m.m.,.,.,.O.| _ G 5 > ",
"t.I [ O.@.m.m.m.m.m.m.m.m.m.m.m.m.m.m.m.m.,.n.zX;X:.m.M.>XrX:.,.m.,.<.:.:.>.,.m.@.n.S.c.m.m.m.n.<.:.<.m.m.,.m.m.m.m.m.m.m.m.m.m.,.,.,.,.@.O.| _ G 5 > ",
"t.I [ X.@.m.m.m.m.m.m.m.m.m.m.m.,.m.m.m.,.,.,.<XaXi.,.Z.aX=X<.,.<.A.-XwX:Xs.-.m.m.v.;X=.,.,.B.;X*X$Xs.@.m.m.m.,.,.,.m.m.m.m.m.m.,.,.,.,.@.O.| _ G 5 > ",
"t.I [ O.@.m.m.m.m.m.m.m.m.m.m.m.m.m.m.m.,.,.,.Z.sX*X+.,XaXA.,.,.B.:XrXS.4XdXs.,.m.H.sXd.,.@.b.sXaX4XZ.,.m.m.m.m.m.M.,.m.,.m.m.m.,.,.<.,.@.O.| _ G 5 > ",
") I [ O.@.m.m.m.m.m.m.m.m.m.m.m.m.m.m.m.,.m.,.<.yX;X:.>X>XB.,.,.,XsXS.@.B.xX-X;.@.b.sXs.,.,.b.sX-Xn.>.m.m.,.m.m.m.m.m.m.m.m.,.m.,.,.,.,.@.O.| _ G 5 > ",
"i.I [  .@.@.m.m.m.m.m.m.m.@.m.m.m.m.,.m.m.m.,.,.,XaXs.aX=X>.,.,.,XsXd.@.b.sX-X+.m.b.dXd.m.@.b.sX=X>.m.m.m.m.m.,.m.m.m.m.,.m.m.m.,.,.,.,.@.O.| _ G 5 > ",
") L [ O.@.,.,.,.<.,.,.,.,.m.m.m.m.m.m.m.m.m.m.,.b.xX:XsXZ.,.,.,.G.xX*X-.f.dX=X>.,.b.sXs.,.,.v.aX=X@.m.m.m.,.m.m.<.,.,.,.m.m.m.m.m.,.m.,.@.O.| _ G 5 > ",
") I [  .@.,.,.,.,.,.,.,.M.,.m.m.,.m.m.m.,.,.m.,.<.yXxXrXv.,.,.,.<.zXdX:XpXzXZ.,.,.b.xXf.,.,.b.zX=X@.m.m.m.m.m.m.,.,.,.,.m.,.m.m.m.m.m.,.@.O.| _ G 5 > ",
") I [ O.@.,.,.,.,.,.,.<.,.m.m.m.m.,.,.m.,.<.,.,.n.3X4X<XB.,.m.m.M.3X1X2X3X<XH.,.m.B.4XG.,.,.M.4XS.,.m.m.m.m.m.m.,.,.,.,.m.,.,.m.m.,.,.,.@.O.| _ G 5 > ",
"s.I [  .@.,.,.,.,.,.<.,.,.,.,.m.,.,.,.M.,.,.,.,.B.3XG.3XH.m.,.,.B.2XF.<.<.J.G.<.,.B.P.F.,.<.B.J.G.,.,.,.,.m.,.<.,.,.<.<.M.,.m.,.,.M.m.,.,.O.| _ G 5 > ",
") I [ X.@.m.,.<.<.>.,.,.,.<.,.<.<.,.,.,.<.>.<.<.F.G.B.H.H.<.,.<.<.J.F.<.<.G.H.<.,.B.J.B.<.,.<.J.F.<.>.<.<.,.<.,.<.>.,.,.,.<.,.<.,.<.>.,.>.O.| _ G 5 > ",
") I [ X.@.>.;.;.;.;.;.;.;.;.;.;.;.;.;.;.;.;.;.:.b.b.;.v.b.:.;.;.:.Z.:.:.:.Z.:.:.;.:.Z.v.;.;.:.b.b.:.;.;.;.;.;.;.;.;.;.;.;.;.;.;.;.;.;.;.;.;.| _ G 5 > ",
"s.I [  ...%.{ %.%.%.%.%.%.%.%.%.%.%.%.%.%.%.%.%.*.*.%.%.*.%.%.%.*.*.*.*.*.*.%.%.%.%.*.%.%.%.%.*.*.*.&.%.%.%.%.%.%.%.%.%.%.%.%.%.%.%.%.%.%.%.%.` G 5 > ",
") I [ ' L P P P L L L L L L L L P P P P L L L L P L P P P P L L P P P P P P L L L L P P L L L L L L P L L L L P L L L L L L L L L L L L L L L L H 5 > ",
") L Y S S S S S S S S S S S S S S S S S S S S S S S S S S S S S S S S S S S S S S S S S S S S S S S S S S S S S S S S S S S S S S S S S S S S S S B > ",
"d.T $.$.$.$.$.$.$.$.#.$.#.#.#.#.#.#.#.#.#.#.#.#.$.$.$.$.$.$.#.#.#.#.#.#.#.#.#.#.#.#.#.#.#.#.#.#.$.$.$.$.$.$.$.$.#.#.#.#.#.#.#.#.#.#.#.#.#.#.#.#.#.Q 7 ",
"=X2X2X2X2X2X2X3X2X2X2X2X2X2X2X2X2X2X2X2X2X2X2X2X2X2X2X2X2X2X2X2X2X2X2X2X2X2X2X2X2X2X2X2X2X2X2X2X2X2X2X2X2X2X2X2X2X2X2X2X2X2X2X2X2X2X2X2X2X2X2X2X2X2X=X"
};
