/* XPM */
static char *field_void[] = {
/* columns rows colors chars-per-pixel */
"100 100 77 1",
"  c #7E563A",
". c #935A2E",
"X c #80583D",
"o c #965E34",
"O c #985F34",
"+ c #976036",
"@ c #996135",
"# c #9C653A",
"$ c #9E6A3D",
"% c #A0673C",
"& c #A26B3E",
"* c #875F43",
"= c #8F674C",
"- c #9E6942",
"; c #926B4E",
": c #956E52",
"> c #967154",
", c #997355",
"< c #9D775A",
"1 c #9E795C",
"2 c #A46E42",
"3 c #A86F44",
"4 c #A67144",
"5 c #AA7445",
"6 c #A77249",
"7 c #AC7649",
"8 c #AE794C",
"9 c #B0774C",
"0 c #B37C4D",
"q c #B87F4F",
"w c #AF7A51",
"e c #A27B5D",
"r c #B47E51",
"t c #B87F53",
"y c #997F6E",
"u c #A47E61",
"i c #B68153",
"p c #BA8455",
"a c #B78259",
"s c #BC8659",
"d c #BE895B",
"f c #9D8473",
"g c #A68164",
"h c #AA8365",
"j c #AC8669",
"k c #AE896B",
"l c #BE8B60",
"z c #B28B6D",
"x c #A58C7B",
"c c #B48E71",
"v c #B69073",
"b c #BA9375",
"n c #BC9679",
"m c #C08757",
"M c #C0875C",
"N c #C28B5D",
"B c #C98F5F",
"V c #C48E61",
"C c #C88F63",
"Z c #C69163",
"A c #CA9365",
"S c #C79468",
"D c #CC9669",
"F c #CE996B",
"G c #D09767",
"H c #D0976B",
"J c #D29B6C",
"K c #C0997B",
"L c #D49E71",
"P c #D89F74",
"I c #D6A173",
"U c #DAA374",
"Y c #DBA679",
"T c #DCA97A",
"R c #E2AB7C",
"E c #E4AF80",
"W c #E5B081",
/* pixels */
"fzvKbjehvj=,euuuggggggxzjjgggggzzbKvigkve=euuuyeukuukvcgy,hg1gzvKKjehbk::euu<<ujkygcvkj>ggggjkbKbhgg",
"gBJJANNpNBMtVGtCZiiliiiipiipldZpGIGAdpNdVttGVtHt3Nd7apisisZdZZNFJGmBpNNNtNHtVFw7Vq8dridwlZdZdZIJGmpg",
"empqmBmBVCMsVC9tZiiZ4iiidiilddlppi8BNNBVCstCttsVall9wadaisdsVNpsipBmNBCMtMHtidliSrr8adiadddZppi0NNph",
"ji5BiBNNpCCV9AVtllSSiiiiZSlpddpdiimpVddpDZspHttVNLVid8iSVdssiNm&NpNNmmNAC9CCrddVJpad5VSlddiiZi5BiNNh",
",qpAiGppAtALVMVsidiiZZdddpiillii0VBmAiNBsLHdZdadd8sSNdddiadZNi8iApANiApdPCtCMssa8lZddddiddZi00mBiFig",
"hBBmqZpGPMtCtCstSl$iZlSIliiii$dlBA0mmNJJttCaSipFw$dlVFLs&wi67dBBB7ApZUViMVMVrVS26SdSIF82ii4iNBBmiBdz",
"zJBq&piGLC99CLstSdidSilZliiiilSFGN&qpmJLt9tHHrdS08SVsZSVi8iiZGFAp&iiGJGi9MLCrVV7aZddZSs88iiAAFB04ppc",
"nGJGi59GLHMO#SPSid4iFSIFdZidISFIGGBi&pJLCr.9LJlda4SZSIVlliDIAIJFGm55BJJN2oMPFtlr8FSFLllsdIFFTFFAq50l",
"bGZGNqpJMLA50NAmilliiIIZZJddJJJJZAGp0AABUp5iBBadddidIFZZFidJIJJZGBiiGBGI55dAlidlaaZYZZJZiFFFIABGd0db",
"zmNGBmBNMCN%qBmNliddSISZTJidFJUBpBJsBNNmF55mBsddiddIIZFTliAGIJddGZpBNdBA$iBddldddZIFdUTipFFTZmBFNdBg",
"hBN7iZNiNLBpBZpZlIlIZldiZZdIFJANAi7mAppZJpmBdNZZSFFddpdSdZIFIBBB5iBBidGGiBddZdSZLSdlpdAdFFFFNZm5pAdi",
"eNsidBFFMACAZrrpiiZi$li4pdddpdsiBisNGFANABFN0ididZ44Z88ddVdpdpddidBGGNZABGiiidiZp$pd4iddNdddqZmpdAFz",
"e0NJi0sBBpmABppiiiFi88Bii4idpiZiiGBq0BBddBANpiiadF84ddi85ddidBipGdipBBpdZBdpiiiZl87lsi5iNd8ZiqBF00dl",
"e0mUBNBABJNNBr0pZlSlZ4iZi4dFDDFp0AGBsABAGpNNqqdZlZSd4dd58ZFFFBiiIAmmGmIBdBp8iZlZlS8wlp&pFFFFm0NIBdZz",
"605BGAJLNANABsABdZdiddZdiNqZdZNq5iGGGLGNZNApNGNNZgddpZdpNiZpGp55dGGGUBAdBBpGZlZlidsdZidpdNNAq88BFGJn",
"eB0pppBGDBNIZ05&4dZ4idZdZddBidpBpiippGGGNGIN7&&8ZiiiNNNBpNB8BiBipppdFFAdJFp5$4iZ8isldSddBmiNiZqqppZz",
"kJGiq5pdiiii5ii8ZpZZdZZZJNGBZBpGFB0i5BiqipiiiisdiZldZdFABGNBNNJGmq70Bqiii&iiidplZldAdJBGBBGpBFGii4dg",
"jAGiBiidipdiipd5iiSFZSiiNJUBmppBFBiB8di8Bp5ipi4adFFSZiddTFBpppBGpNN0N8iSiipd4iiZJZFdiBBUBdpiBABiBiph",
"zGpNAApZZFFJAddpZFdiSFdpALABmAZGNdBFNdAZFSJZddaLZidIZddGGAdNFBIpNAApNZDFGGdddlIlilFdpBJGGdAAGZpBGBpk",
"hdsABsBApFSNJpiddddpiiZSNZNpGJZZiBZdNNApIdSSiiZddiiipABBAddIZBNpAZpBZNZJdIdipZiddiidFdBBpBIAdddGddBz",
"e5mBBdpJZZsiNNSPSdd+444Zpp50BUN08NBNddIBNidNNFIddi i$idd85pGFd5pBZNpDAZdiddZIFdl$$i$ppp08dIBi5dBBddb",
"zBpRTVpLU0iZdSZliidii4iiN05qpGGGNBWJpBUG8NNdASdsiiii48dd58pdUBGpJRApFUdrZdBFZpidii&iidp&0pBIBBdTTdpv",
"zBNRJBNppNApidstlddSd$iiBpBBLGLJpGEANdidNNipdpiVdlSi4ipZpBGGJJBdRUBNppmZdipdiddlll$iiBmmBIGIGBBRGBdi",
"emmUANiirdFirZCVdpdFS4i8NAJBm7mpqGIAd8ipZF8dVVVailTiii8NGGBqqppiUGAii0sAd0BBZdidFI4iidBJGm5ppqBIGdqg",
"emBAAN7pqr5ptHLViiiiDdSdFGApqmimBBGAp0pq99tVHHp8iilZNZAAGBiipimBCAB0itt5ttDLSwriiSdZdJAGdqppqBBGAd5h",
"jqGUAdqN&%sHPVtVii,iFSUsdmGpippmiIJApqd.6VPLVMars5lSJJidBBidpmiBUGB0m9OtDYVddria4SSTlpdAd0NpN8JIAd0h",
"zmppBBpqo7DCSVtVdidiVdZdBNp0dFBZpipAdd5@tHCCttSrdipZdZdVBi0BBAmdqBCmi@2ZCDNpaZrlilldNNNdqpGdBdppBdpi",
"hG7qiNpp7MDNSttCSldiDliliiZNJUVBA4ppdpi8ACVCttDSZssSpididBBIIBBp5iNmp0pSVCdidAVSilSippiBdGTGBG5iidig",
",B&m5mmBZLHCMttSSISdSpdispFAABmtB&p5pNBGPCVtrVSFIlSddpipNGANBid0q9qqCCHPVMtsVSLFdFpdidiGGABd0N5p5ppk",
"hBmmpp5BHCtMVCCCSIdppSSiBmqAB7iBmBim5pBGCwCVVVSFFiasLdiZppGp8dBdMqm5VCHttCVVSSLVislFpdmidA0iNBBqpiik",
"vAmAUm9BCVowCCVCIIlSSIIIp058i8VJBNIU&pBG9OMSVVSYSSlLLIBp&iiiiGGdBPA3VVC%6CCVlLYZZlILIpp&8i8dJBNFUi0j",
"kAIRJmmmDV39tCttdillipFlVd8NdsNZGUTGdpZAt3tsVrdadlsiZFZNipdpdBBGRPCtMCC99tCtidilZaiFSZNidBpdBAJTJdpi",
"eNZBBNNpMVMdDA8ZliiSi4iiiiilZNZiBBmGmdmmVMsPttFs6dd88i8i8alZZVpABNBNpNVNsCL9lFr6Sw88wi8iZllFpNZBAmme",
"hp0ppBNCVCspiNiidldFiiiildddppdNiipNNNANVttMVriVlSVwasdZsdliplpiipNNBBVds9Ct8sVdFiidiZdsddiddp8pmBBh",
"gq5ZiZmmdVFFiAVpddZZiiiidSddNNiN&pBpBpddDLNdDdadNZddd8wZlddlppp5BpBNpdNDJtCZpddVZdda5iZlddZid00ZpBmg",
",qBAqGpmJrNJNsVipd44ZSSSdi8ddpi0pGddBiAAtCJtMMpds$iSZSZl7isdpiidGiAmpJssFDtCsadw4VZZFZa7ilii0iZZpAih",
"zGNi3CmHPV9tBFpiFZ$iSiSFZi4i8$ZZBm&pdNJJp9VVD8lF86lddSJd4ii48ZGNp&ApGIAitVDV7CS3iSiZFSi7q0$dZGd08Bpv",
"zGGm500GLCt3pGZdZiilFllSZdiiZAFFJGp0ipJIpq3CLllZr8SSVSZVi7sBFDFJN7q5AGGi79HHdVl9iLllSZl88ZZFFJFp5qiz",
"KJGGm30JGJVO$BIZidiiZSTSdSilIFJTGGG5&NJGG0.5FJpda7dZJIVdSdSUDULGGB&7GGJA%OpJDtlr7llTFdZZdIJJTGGGp&pb",
"zZBGVmMGmJD3pBdpdphidIFZFFiiFJJGBBJNmBBNUp7sBdpdldaZISSIS5NSIGANGGNpGsAU3tNBadsVasIIlFIs8AFJGBBFBmNz",
"jmBBmNBpdFd4pBpBllaSFSSZUJpFFIIdmNBpZmmNG75mBdVViZFFFdFTZdJFTJddBNmBpNZZ&iBmBllpZFFZdIUdZFJTBdBBmBNh",
"hAN&pANmdIBdGdpddFZZidiidZdFZAZNA00NANNBIdAAppdZSZZidi8dZlAZZdBB&iAAdNGGdFVpddSSSasd5dZdFZZBdAq5pANe",
",mNNpNGJddBFBiiiiiZi$di4iiddiiN0NNNiZFAdBZGsiipiiS$4Z8iiiddidppdmdpZGNdNGBiiidids$il5iipZpiN0mdBpBGb",
"e0NUi7pNBBpBBpiipdSdi4Zdi&pBNpFi0GAq5NBBNmZBiiisZSii8Zp55dAddBipUpiiBBBdBBpiiidSls4sdi&iZZiZd0BIi5mh",
"e0iJGGGJBJBBdpdlSlddZiiZiiiFGGGi0NJGAJAAGNNspslSZdZdipN8idGAJB8iGGGGJBJBNNppiZlllSiils5pFFFFp0mJGGGb",
"eq5mABGJBBdFZddiildidiZdpBidiNmi50BBZJGZBBJpmNipZiiddZidBiB8Gip5pBBAJABdSGpBiidZiplldpZppipB0q5mABGb",
"eGmp0rNZBpdFd84$iiZiiilZJpABsNpABN0itZVNiZDi5&&pZiiiddFBpFBpdpGdd8iiFBiiJBi&$iiZiaildJdVFdmdmGdiq0Bj",
"zJJip5ps8id85iiilaSFSSddAAJBNNpALBqi3Bq8si5ipipddSSlFpABJABBpdGIpp5idiidi5ipiddlFlSZdGBJZdBpBIAip4me",
"jBBpAZiBidSdpdd8adZdSFaiNJIAmmmAdBpFpddiAZdpVs4llllIZipBUFBdddBBmBAqBipFddpdiiddZZFd9BAUAsNmNBNiFNiz",
"zGpBZBpBZFSJIdpdZFdiZZZVAFBNNGAGZdAZBpAZFZUGsadFSiiZZBBFABdBBAJdZZVNNZFSFUdpdlSd8ZZZZAGBBNGZFGmAZBph",
"e0pZNpBJsFFiFppZdadr87iZpNpiJIBpidBpBdFpIddSppFiddi45BdmdidIJdiiZBpBAVVJpFddlSida788ApBmiBUAs8NBsNBv",
"gqmJJNiJLpipdBFISdi#884ppi&7mImmiBUZpBIGipddSFLVd4$i&0dd54iBJd0iAJBqFLdipddFIFdd#484ppp&5pGZpqmLGmpn",
"zGmRUBpAJipBpNZpasldi2rpGiipNJJJdBRImNJAiBddVNiailhi4idB5pBmUGJpJRGmZJpsZddZdpilda48iZp0pNAUGAmRUBmz",
"zmBRGBNqidFiiddilsdSZ2i0mmGAINGBiGRBBN5pdZiddaddllIi4ipdBGGGBGBpRUNNp7dDdidpddalZL2iqpNAAUNAGpARGNNe",
"epmGAB5tpdpiiFFZsadSZ6drBGGB9qiipZGGp5pBpd4dFDlaiiFiipiFGGp0qipiJAA9qtVsp5GJZdialF7aqNGGBq7pqiNGAB5e",
"hmBJANqN8&idZZFd4wwwJSFZANGppmpmBGGBsiN&&iAZSDt6iiZSSSSdBBpmpdmBGGNtpt33dAZZZ5ii7LlLBGmGmpNpmBAJAmqg",
"k0BGAN9M$&VFUVpdida8FZIipBBq0NpNiGGBpiiO9CPHVwstd8dFFF8BBd8ppBpdJGB0p5#mDUCdssal7ZSIdpZVp9NpB0GAAm0g",
"zBi0NCm0oiDNSprNZadildiZNpppAUZZZ&pBBp&#VCVVttFldpiZisZsdimIJBBd5NBNp@6ZVCdtaSiVillidBppiZUAZB0iNBme",
"eA9q7mmMpDFNCtpSSFZaFdddppGZGJVNA&p8pdddHDVVtsCSFddSdsd0BAAGGpBp90tmNpVJVVsrZSFSaFldssiSZGJApA5i7pme",
",N0m5mqBGFZNMssVSLVaZad8NiBJZptrdip0psGGHMMMsVCHLsVsdiispAJdpipim9qqBAHHMNdpNSLFilalispNGGpi0N0p7ppz",
"zABpBt9MCV3MSCCALIllsLIdNm0iN7NGBNmA&pNGt9CCVDFYSsslIFsVi5dp0AGBMmB&MVC9tACCFJYllaFIBsN0rV0pGBBpA9qh",
"bBNURM9BHVo9VVtMZFVSZFLLpr5qrrNGNBRUiiBG9OtCVplSSSlFFIFa5iiiiBAdJRG3CCH%2MVVaVFlSlFFIdp&rr9dGBBURpqj",
"hBUUHBMaCMtwVCtVl8aVwwVaVsrVVdBNGUJANpBNV9tVVtSiwll8slpdipZdZBBJPJBMtCVtwtCtsSwrSr8ZpdNiVVdZNAUIGmmw",
"emmqMMVMVCVtCC9VVarS88wsrwilNNZiNmiAmNBNVVtHtrZlwdd87aiiislpZNpNtmCMMCCMMVHwsVs7Sr88di8idldApdmiBNNg",
"zp&BpNNNdZNd9Ad9dNZIias8DZlppppl8ipdNNNsAdipCttdVFZisiaSdddiidd4dpNNddNBd9ZN0sdZIaasilZldppiZi&ZpNNh",
",qiAiGspBNGLNVVssdsalZaisdpdlZppimNpGidBBIGdVVaddaaZdipddiZZdii8ZpBBpBdFIZNZdpddidZsiplpdZlaiipZpApg",
"emBBiApBLipAddMtdd$8ZlSLS47ii4ppmGppmmGGrmDiVsaVi$dZSFLs$iiiiidZA0BpdIdiBNpBidV44ZlDJSi$ii4ipmZNiBpj",
"zJNq&mpJJB7iCLarFd6dZaVFZi8iiiSFGm&ipNIJt7pFF8sF88VdpZSl8ii5iZFZp$NiFJF88VLB8SZ6iSpdSZiiiiilGGpi5Nmb",
"bJJBi75GJAs#&GIAdd7aFSFSldidFFFLGGB8&pGIVrOtLGNVa4SFZFZld0ZIGJJJBp8&BIFd&&BJSddi8FSSFlZiiJFFJGJB0&pz",
"KGAGm5mIBIA&5dGdalaisFYZdSddLFLIAGGiiZGALt%0AAaddiplIIlZFdZFFIIBGB0iJBJG&&dGliddisZYFlZSdFFJUGAGm0mS",
"zmNJBNmBpGB#pAdpdalaZIFZTIiiFJIZmBJmmBBpJ95mApddsdpFIZFTZ5BAUGNdGGdNBdBG#iBddlplalILlITiiZGUApBJmmNz",
"jmNqpBmiBGmidAdZVSlISVldFFdJFIJdBpipApdAJptNBNVZzSISldlLZZIFUANBiiNBidFAipZdZlFlLSZldDFdFJIJBBdiiAme",
"eBp0dZAANGAAGiipdddi4di4ddNBddddBiidAABdJdFNiilpZd88Zi&dddddBdNN0mBGANGGBGdiidddd4dd4qBdlddNdBp8mAGj",
"eiNGtqBANpdGBpppiiFi4iZii5pdi0ZqpBBipBBddBGdpipipF44dsiiipdipd0dBpidANpdZZppiiiBd$8Zqi50dd8BiiBAiiBz",
"eqmUNpmABGdBBp8iddZZZ4pdi4dAAZFpqGJmiBBZAdBNiiilZZZs4dd4iBAZGAqiUBdiABGNdBdiiddSZZ88dp4iFFZFd0BImpNk",
"e50GGGJLNANZmdBBSZdiZiddiiiABFZ05dGGGIGBGNBpNNZlZpldiVdippFdGm88BGGGUNABBNpBZZSdiZidNdipdZZFp5iFGGIn",
"em5iNmAJGZVIAii&4dZiidddNNpZ8ddmp8dddGFFNAImi5&iZa8sdlsBdpB5ZiB5impBGGZdGGp054iSiiiZdNBddpiBqp8pNsAz",
"jJAp70pNp0pZi558lddiddZZJmGBZBpAGB808Zpiidpii5idddasZlJAdFBBddFGdii5BpiiBp884dddiddZdJdZANBdBJBq08Nh",
"lGGiB0im8pl5ipd8iiSFZFdpBFIBmppBJBpB5di8Bp5idi8pdFFSSiVdTGddidAFidpiNiiZiiid8iiZISSliBBTBNdiNGGiB5pg",
"kZpmAApZNAFSdddilSliFFdqZIFAmANFddpJmdZdFBAddpiFlsdIZapGJGBdABGpmBGpBZpFlZddppFdiZIdiBJGGdBBABpdGApk",
"jFdAZdNAdFFZIs8sZZdiidZZZSBpAGBANBSdNdANJZJSiilllisaNAZZAsmJZZApAGsNVVZFZUdiiZSdiiiZGBABdBFBAZdGNmNk",
"g&sBmmdGdZBiVdVLZil$4$idpp80GIdi5NBdNNFNFppZdZIpdi$8&pmNqqmJJN5tNNsmAZZAiZddFFil44i4Npd80BUAi5dNNNmn",
"jmmUTBiLUiiNdSDDlii4iiiid848pJABmBRJiNUJ8ddlFFSdd84i78pm&5imUNNmJRAiJId8ddZFZlss$ii4idp48pBGBddTUmsn",
"zGmTIBNmZpZdidstldlSi+iiFidBGFIFNGRGNNNNdZpddarddVV84aNZqNAGLJGmUTANdZsBdpddadsldd$ipBppdGGUGBBRJBNg",
"hpmRGNsqipJptVVldipIS4iipBJGBqBdtGUCNp7tBA0sNNlsddTw8i0NAJAmiBmiUJBmt7dDdisdddadSI4iiiNFGBqmBiBTANmw",
"emmBAB5pppiiwHLViiigZiZpGGGpqpqimBAGp5dMii0NJFsraiZdpNNFGBqipqmmBGB0rpm9piFJSitaiSidiZGGm0piidmBAN&j",
"hpGIDs0B&$iZLVVliiiiFZIZmdGdpdpdpLLBm0MO&sJFVNi8a6lFJJNmBAimpmiCIFmiN9@0ZIBNV8rigFZTZNdABpdpmpJUAmqg",
"zpNNBBii@5AZHVtliidiZZFimBp0iBmBpNNAmp7OiGFSNrVidiaZZApBNi7NNZmNNBBpp#&ZAFBsalil4dZSddZd00BdGidBBNie",
"jGiipBpp2tDVCttCSdliSdilppBdJTBBA&mNNp93VCVCtrFVVssSiiZiddZUUNBp&NNpp&0GVCMtsFlVildidNidpGTGBA5imBme",
"eB&p&mmNCHHVVttCSLSdFssappJBAAdpB&m5pmVCLDVtrVSFLdSldsaiBGAZAiB00iipBNGJVVttCCLSsFddppiJGGBBiB&p&pmh",
"eBpmip0BHCtMVVMCSLliplliBppGB0idmN0mqpAGCtVVlVCFLassAsiNpNJp0pmpmip0NDGBtCVMCSLSissSipppBGi0pBdpqqqz",
"cBmBJp5NCV2tCCCCUIlZZIISpi80p0BJNNBL&mNG92CCVVFTSldFIINp50riqGGNNGB&VMD&9ACCCPYlSlIUJsp&8p8dJBmBU7qj",
"zAJUUmpmHV%7sZiadlZlilFFliidpidGAJRJttCDw2wMVrdslSddZLSdiwdipNAGPRC0mDS32tVMipllZsdFFldipdidABJTUmqj",
"gBGAGmBmNVMtCA0ZZ7iZi4iiiiilBdSpAJAAVtVMCtaHdiFs4dd8rira8dZdZBsGGABBpNVNpVL9lFi7Zi8iiipilldFdBGGANme",
"gmiisBmBVCssMViidlsSiiiididdddddpq0BNMCVCttCs0aVdZd8iaddidladdsp0pVMVCVMsiSiidldFiiidlipddpddpiiNNNj",
"ai5ZiBNmpCDC0DVillZFidiilZdddppB5qCpBMVtGGMMDsaldFVis8iSZdddsds4NmNNMtVAA0ZZipllFiaa5dSZdddpmi5BpBme",
":ipGiGppGiVLVMVptdr9VSlVdirdZda0qZNpGqBCtHHtVVtds4pSVdllwadZdr8pGtANtGmVLCtCMtdt6dSNVdd8slNd00NBiApg",
"hABp0BpGUNtNMCtrSV#rSsSLS67rw-dZZB0dmNJLarCMA9dHw2dVVFLs48i66NABN5ApGPC9MVVC9CD26SsSLF86wi-iBANpiBmz",
"zGAp&piGJC09CLVtSl9tSdVSZs7idVSFGB59qmJLt00GLtdS99CCsSSVi8apAFFGm&q0BLGq7MHCtVV7aFllSSd8wadFGJA05ipz",
"ccbkg>:knzu**zbcuu>uckvcgj1gnkcnbzz<;ezbkeX:bbjuy:kcknjgg1knkbbvzh,;uKvj=XuKcuj>>vkcvgjugbvkbvvke>>j"
};
