/* XPM */
static char *field_fog[] = {
/* columns rows colors chars-per-pixel */
"100 100 91 1",
"  c #251D16",
". c #2A1F17",
"X c #261F19",
"o c #281F18",
"O c #262017",
"+ c #282217",
"@ c #27211B",
"# c #2B241D",
"$ c #2E281E",
"% c #31251E",
"& c #312A1F",
"* c #2E2621",
"= c #2E2922",
"- c #26282A",
"; c #2B2A2C",
": c #322622",
"> c #332B24",
", c #392D26",
"< c #362E29",
"1 c #392F2A",
"2 c #363126",
"3 c #393227",
"4 c #373129",
"5 c #3B332C",
"6 c #3E392E",
"7 c #2D2E32",
"8 c #302F32",
"9 c #392F30",
"0 c #2E3234",
"q c #29313C",
"w c #333335",
"e c #3E3631",
"r c #3E3932",
"t c #363639",
"y c #38373A",
"u c #373A3D",
"i c #3B3B3C",
"p c #41352E",
"a c #413A2F",
"s c #413632",
"d c #433B34",
"f c #493D36",
"g c #463E39",
"h c #493F39",
"j c #3E403E",
"k c #464036",
"l c #494237",
"z c #47413A",
"x c #4B433C",
"c c #4D493E",
"v c #51453D",
"b c #51493F",
"n c #333A43",
"m c #3E3E41",
"M c #403F42",
"N c #4C3F40",
"B c #3D4143",
"V c #434245",
"C c #4E4641",
"Z c #4E4841",
"A c #464649",
"S c #49474A",
"D c #46484C",
"F c #4A4A4D",
"G c #514642",
"H c #534B44",
"J c #594C44",
"K c #544748",
"L c #564D49",
"P c #584E49",
"I c #555146",
"U c #585447",
"Y c #565048",
"T c #5B534C",
"R c #5D5A4E",
"E c #494750",
"W c #4E4E51",
"Q c #474D59",
"! c #504F54",
"~ c #535255",
"^ c #5E5650",
"/ c #5F5A51",
"( c #56555A",
") c #58575A",
"_ c #59595B",
"` c #605752",
"' c #625A53",
"] c #675E58",
"[ c #685F58",
"{ c #646255",
"} c #5E5E61",
/* pixels */
"nwywmAt-tEF~!M8--wuiW}WiV_DVimtwttwAM87mWF(Fi;--uwD~_AiW~VmiiwwtwyAm;7FW!~Aw--0itE_)im)FVyiywwtwmAwq",
"idxcxCe*1GGgd6$##*><xGcdxGdd561pdcxvx>*dKxfd<##@>=dxLkfZxgr665phcvxh*>hGggp&@*#=>xcLdzLgg6d46dxvxv57",
"8fPThxe1eNKr1<>=@*:<gd6cI562<r5,G^Hhh99sHh6<<==#=*5krdLx55>2d>dLTxhd99NKd5><=**:=ddrxY664>6s:vTTgxet",
"ifhce4>*:ese>===#*>4dd556$$$<6>phll51::<se1:$>##>>5kd364$&$61>flcd4<*:9d5<::=#*><rk52a&$$:6<5lhx51>7",
"Mfffap1dhxchd6::>:>564>>&+$2ar1sdff5e1fhGxhd,:>:=<563>>$+>4d55dfhf54shxGxdp::,:>2652<:##>6d1pdfxs5<M",
"w,shdxzh1GTKxg1,>>:2a33>s3<3g65<4ffdgVs5TPchs,1,<=653<<d226k5<,5fdfzl4hTGxfp,,>>2623>e5><lr4<,dfdxhA",
"A6slhxch>HPsPhfNhr5dr<4<d4>6cJcdpfxxgK64`hhPfhcd56d4433d><fbHcssxxhhG<l`dHCdNhs1dd<5:66>4lJHl6dxhxCF",
"FfdGLlCh1x'9GNJv14>r536<rg33ddkcddPHxZs1^K9KNJp<<<d<533ka33gdxxsxPCcC<s[dgSGJ11,462636k536gdcdrJLlCF",
"~x4sxxx1:rTGcrvp#<<rg5>rll5#>>fLd1glcd>:xTChdv,%1<dd4<glk&$:4CG56xxc1:<YHcdhf#>44g6>5gla#:>6Ll,dxxxy",
"w:,ghdf5s1cTCrf,#edggedCIg4+O>d::6xdfssr5PPgsa%>dgggrgGGd>X#65:>gfdg5d4gTGddp$4gxgdsxLx5#+$d<*4hdfdi",
"y>>>4p56d45Gdsfp*ddedNe<f6<:O$<<>><5p5rr<dC6gf<>deegd15d52$o:,<>:45prdr<Ch6fa:5dydhe<dd4<+#<,>>>5p5m",
"ya6gx1dg=ed4>65:=rdegd#@<66<$<55r6xd4kr>d6<<r<=<grsg6##665>$4166dx5ph><d5<4p>>4gedg>+:rp4&:54rrzg1dA",
"0rgkvphd=e4<,5>X*<>ed4&:4dd<>dz>gdxxsx5:6<,46#X*<<gr>&<pdr2>cr4ggcsdx=26<,44X*;<9g6>&4sg5<5x2rzzv5lA",
";4xclg6>5z5>>>:>9>*5d3&<61x44rr#dxxls5:dd<>:>*11**sr<$546g45d<:xclhs<<zr<:>>:9>#1s4>:s,d6<6d*exxlf5t",
"As6gx5,<rxrCd,1wd*<1:<::1pf15zxkrrcd5,1gzic6,1ey*5>:>:,1gd45xxd6fxa4<4xrzx,,ed>:5:>>:<6f51dzzr5xh5,t",
"}T55rdxxGzdTHe>:g<r6&=*%%,1>>zY'C<5dfhcvdz`k1:9d<d4*:#%%,1:4Z^/d<sdgxGxrLTp,:y56s>=*#%%p>>dL'P55ddhA",
"Axz5r>*>LLk54rkkHxg:**XX%>>><fzxxr55:$rTcf44dgcHxs*$#X+%>,:5zlxx5r>=:CTzr45kkGZx<### %&<>>dhxxg46::w",
"Vgd5e>#4IRr$#4gdx65rr5&:p<,>#4dkgre5#$g/L4#*6gdk4ser,%1r<,:%ddgd5r4@2G/x:+2ddzd4srr:%p4<1+<ddzrer:+y",
"~l4#$*#4dkg<:$:><+*dCg:5xr5<,xxHd=#=#=6rgd>*$><=X1gC5>dh55>6cGG5*#$$<rdz6*==:<##eCx>,fd51>zcLz>#$*$t",
"i4<=54<6d6Gxg446=O<g5p>56gb6gfd54=>54<krfGgd<55#+ree5>p6xxpgdr2<*4142k6xCg6<6<+$de6<,ddvdddr6<>>44<i",
"t%>6ggsdYzd656sx5o>r5gdp>4Lxfdf<%4dgg6xY6r566df=#11rgdp%kHxgg6*:4ggd6Ic6r456x6#$e1ddpp>Glxdg4$<sggdm",
"Fdsld64dL6$=<46hs*>xcsff$>GGZbYx6hfd54cZ>$=45ax1#rxxshp+rHGxYJf6cdd,rLk$:>55gg=:dCggf&%lHHlTvpdld6<B",
"Ahgdsr5CUc22:>>,1<dPLphf>3T`YLGxgh6d5dHUj2>><,,,>CTCehp>d``JHcxgf6d4zYH5>>2<>3<5LPedv2<G'^HHxfx6d65F",
"y5x:dx6zc{I65511<>1hPPGf<:6Gcp44ds:cdalU{l5511,>>eC^KJp:>kHf544g<5G5gc{R655<1,<>dP^Kx2:5vGs5<6g:hh6A",
"w5z:sx::2kla451f1:44gGxr44sg3  <dd>xp:&3xg644sd,>5<Ccx544gd: +4g>,c1:&axd551d5:21eZcd44pg6+ *rg%dg>w",
"i4p555>>2kcd>zgh,4d<rzxzrdpxd4<44p45<>26xc44lhd>rr>dlVgdpdf6<4<6p35>>2dcg>dgl52d41zxVdspfd5<4<d454<w",
"i45ld5>:5Gx65xrr56g+:dZCd%$gdrr54rzd,&$kGgesldr4d5X5zZx4#<xdre54gg6>&>cGd5hdd65z=#eZCg>#sxrd555zd5&w",
"t65YLd>5cKh54drr45d =y1;>#lGfd<,5dTG5>dGKs16ssr<d< <s;<#>vvdr>e4GTg<4hPhr<sed54k@#ew*<#pHhd4<5eTHp>i",
"w4sfxr5Chsd4:<ee26ao>dggg5LggJx>4dzg5sGgsd>*4r5<f2O4gggddJsCY5<5fxg4xNgse$>5e25d#*eggg5GxdHC,1shxreW",
"ipdG`45K9hGg6<=4rdr#4gzd4:dlLl5ppgYL=cN,CCg5>=rrd2#dzV5<:xGHd6psl`d>K9sHhs1*4rrd*<gzd5:6xHGpp6dHT>s(",
"i:6lT54g1LLHx1$>:>4$dCi4+><gc5<<<pLP:d9dTHHd>*>*4>>xxr*$>5lx<<>4gTh>h1CTHC6*=>=5#5Gdy#>>dca><>5xT<6V",
"y154gx5X1CCKcs$ O:44H^L5xThg55<<16ehg:@eCCLx5OOO4>dL`z5LLks64<,55shy@*xGGHd>XX$4>CTT6dTxg56<<164fx>7",
"ygHPCCe>sKCds5:=**:<kxxkcgd65d65xPLcx11hKxds<==#**ezxgxxdd56d5rGYGvg>9CKgse>==*=>gkxkchdd4d65hPPCCew",
"whJPdde<<gh6>*2:X*><dd5xJ34&:51,vLvpd1;9xd5::>@#>:rdr6Hl24$<6:dHPhds>1sxr>:>=O*=>rd6dI64>&46:lJJsd1t",
"ghflr<::1sde1>::#=24dr3>=+$$6r<dlhf5>::sgs5<>:$*=2ed62>$+$&d5,ffld1>:1sds4<::$=>1rd52>+#$2d<shhl51:w",
"i5dfsdrghGYCgd::>=$363><<=:3dr15pgfddshhHLxg5:>:=>552><<=26d515dfddrghNPGhg::>::>r42>2>:<6d45pdfsdsA",
"i1dfdxxg:KYxGhpse1>5d<2>d5>3xgd44gfdxC44^CxZsps54<r43<5d2>axdr16lfgxx>z^xZNsps5>3d24>r6:2lkd54dfdxxA",
"AddvCxCx>H^eLChJgr5d5352r4<6xJbkpxGchHs5`CdPfJcd56g<532d,4abHvdsxGlxC<h'sCGhJhs5da<a<56<3lLbxpgGGxCF",
"Fx6xLxZd:g^exNbf#>>er43,fl3255dHg6GGCCe>JP9GNJ3%<>d55,4lk3<54xcsdLCZg15/ggCGv%>><d4436xa>546Gx6xHCcM",
"Fd<dhNg1>5TPvpfp*<rdge5lcl3+$>gx54ggxe1>d`Hhsf&>65gd46vxf&o$6xg1rgxx1><LTCrgp%,srxs1dcl6+$:dxd,dhhdu",
"w#<drddpz4dYcdd,$5dddydgGd4$ >6#%5dpdadd<cPdds&:egsdedxc6:+O54#>rdddpfr5YGsd5#<dgrsddHg5*X#s:$1dsddg",
"i,>25456555z5rhe>dgehN1*5641+*,54<4516655sh4dd1<xesxd:>d53:#>15<>5455555gr5gd>6g5gNe*1s44$$>44<<615m",
"wddxG1fx$5r<>p<#*5red6$#>dd,:4d4ddGk4vr=r6>,e*#:ders5#:5d6:=d56dzG5dZ>2r4<55+$<d5de:#>6d4:>d4ddcx5hF",
"w5zgvdd6:d4<>4>X*>*eg5:>66g41dg=ghlxpg<1r<<,1**>>*gd<=4pdd24z5<hfxffd:e5<,11o*>*5g6>>55g5<6x>rggvsfi",
"84gcls1%6xr4>>:9e:*1<3:>5,f44dd$rxch5>&fg4>>:<e5*>5<<$446g45g4:zcxd4:4xr<>>>9y<$<5<:=6,fs4rg$4zcxs<w",
")x4dxsrdgzrYK1>1i>4r=>::,pg,4zGYd4xdssdfdzRd1<wr*r<*>::1dr>5xYH55xssddxrGI5,>d><r=>**>pf3<dcYx1ggpsm",
")Ys1p56dLxdHx5>1xsd1#**X%%,:<zLTH5456dhLzzLd4<5hrd>$*X.%:,:6cYTz<556dGZgcH6,<gdde=#*o#%:>>gGTJ6456dM",
"Vggrd>#>YTk>=rccPxg<==#+><<>:addzdrr##s`L6=>gcGLgr>:*.%>,,:<dddxrd<#$b/x2:4xxLCg1:>*o:,,>:5dggg6r:#8",
"Fhr><=+5GIr$o:6<6:<dgd&3f54,#dgxd5>2#*dIG4#+<515*edh5&pg45%&gxxd4<=@<xYz>+=5<6>:egf>,dr<1#4gxgr><$+i",
"Fl<#==*466xd4>><>O=dNd:5gdd,sxxbr=#:==65gh6<:>1$X4dN4>pfdp2gxcx1##>=>r5zd5>><<+$sgg>,ddd55xxGg>+=::t",
"w$>>rr6rZdcxg5rs>+<s4r4p5dLfhrr::>4rr5zxgcgd5rr#+ry5p,p5xGgdd4$:>r6d5Zkxxgr5d<+=g4p55p6Hffd6>$<<rr6i",
"V,4dfg6rYg4134dxr#:reggp&>Zzlgcs:rggd6cY43<46gC>+15fdfp#rZxgxx3<dgdsrIx42<5rxd**ergfd>:xxcdcg>4dhd6B",
"Agdldp<gZ6#$:25as>5ZKsff:<HYLJYxdxgd44Zb<$$256s5>gPx9xp#dTYbYHhdxds>rLk$$:<56d><xHdsf,%cTYGTcdhxd4<B",
"Agx4ddsGRRk32<>>>>sPPhhf>2LTYcxhkg3grkLRJ52>>,>>>xTHgGp>sT`Lchfh6pf6cTRz32<>>>>5HThNv3>c^THlfgg1gddL",
"w4k&dc16kRL61e1p1><5JTHa>:<xd>#:dp%Zr35c{z6e1154><dTKG3>:6x4$$<g>5G456UTj56151>>5C^Kf<:>gh,$:6d#hg<i",
"y5g>sd>:&5hd<5sh>>r<sclr66fx4#+5dp>g5>$2kz525df:<r<zlhs6slg:X$5g54k2>&5hf235hp:p55xxd56dxs#X<sd,dd>w",
"u>5p54:>3cGs1xgf45f$4gSSg5>ggre4>655<:26bx1rcdd2dr*rlFCd,1xdr524p55:>2xcd<zzk53d<>dCFgr:sgde4>6552:w",
"i66Gcp>:5Ihsrg6r6rgO*dgd4.>cg5455dLg3:>kKh5ds6r4g4X<gir=+pG654e5xGd<&2GCs5gr6r5x$XrVd6#%xl555r6Gx5>w",
"w<4HHd>gGGg1>rsr>46 =ee<4<Gbgc6>4dPxe1xHhs<4sde=a>X<d<4>6Jxfx<44xPz4rGKhs>eed22dX#ee>5:lGfcd>45LZd<V",
"y5rgCe5Ld6d5==255dd#<dVhf5GfxGh,6sxx<dGedd<:><eek2@egNxdsGdGGs4rdcd2Gdpss>=24erd*:rzNx5xxhHl46dgx5e(",
"M4dH[46K<GPCd<*5e55#5xi4$+5xPs466f^T$Ch9YHx6==e56<+gri>##dGH455av[g:K9hTCg4:4r5e$>liy*+>xJz<65gP'>d(",
"w:4pGs>><LGLCr*+O><>xYx5>g5dd5<::4gC11:dPGPx4##O<>5HLg>rd6gs4<:,5lh<4>GHLHd:@@#5:fYce>drsg6<::1sGr<y",
"i6gfhxw@1Ccxxr*##*<4CYHscYhd6e16rggxN:*yGxxg4###<:gCTxsHGgs6546dggNd*>hKxxd=@#$<>cLYrgTxg6r166ddgC47",
"wfYTGxs1sKKr54==@$:>ggdcGss41s63GTPhx19hLxr54==+:*5ggdHx66<6d2pL`Ghg8eNHd64>=*#:*dddhLsr4<rs>xTTxxet",
"yflGs6<:*ed5:::*o*>1dd56l22$&5<4vvl56>*:gr,::>#o>>5gd5ka>2$35:dvvd54>*1gr>:>=+*:>dg65x2>&>6<<lvC65>w",
"Nfgxp5>5ghhgr5::>:>1r52>$O$>6r,fffh51>phCgse1:::>>6r2>>++$>d55ffhd5>1dhxds5::>*>4r5<>*+#&5d<pfhhp4>i",
"t,dfdzgfeCTHgg:,:>=462<>6<>3k5<<5dfdghddPYcgp:>>>=652>55>26k4<<5ffgghrh^Hxf1:>>>>632>e222dr<,5dfdhgA",
"B5dfdgcg>HYdPhfhg64dd34>d<>5xbxd5ffgxC54^ChLdhhs95d15<4d>>abcx66hffxx>g^gKNdhhs16d<5>66>2xbcd5dhghxD",
"FdfGPxCx<C`1KNbbe5<se4p3aa35lxxxagLGxGi1^H1PNJf6e4d1553f636xxcfdcPcxC9d]sxKhJa516r<634g33axxlddLHxCW",
"~c3dvcCe>s`hhdJa#>>ed4>5kl6$2<fLg1xcCg1>cTgxhG%$>>de2<6kl>&<1cG5rvxGs>1TCxgCv#:<<g5<,fla&<<5Ll4fGcxi",
"i<1ggfd151HTGpf,*5dgheyGJd4++<d5<6hdx655rTLgsf%>egggegJcd:X+6d4<shdh551cTG6fp%4dggsexLz6#+$d6<5ffhdi",
"w%><5sprg16Hhdf5$edeegs5xr4:O:4&:,4ps5rd>hHddf>>idedd5rk5>$.<>%<<5psrdr<Gc6fp#4ddrgs5gd4>+$1>%<15s5m",
"y64rd4pr>5r6<6s1>dd6gx:#2r54$><565dr1d5>pd5<d5<<lrrha#$6r1>#<1646d45d24rr<4d1>eg5dx2#:s64::<465rd1pV",
"wdgxG5xx$55<,5>X#<5ss4&$4dd1:6g<ddCz5c6*r4<15*X=55ds,$:6d6>>z55ggGddZ=4r<<54 *>wrd6&$<sd4:4x2ddxv5lF",
"75xzvfd<4g4<:,:*<>+rg4&<61h44ad$gxlvdp:dd>>>>*:1**ge2&556g<5g2=xxxfd5>kr>>,>*<>*1g52:r1fa16g=rxxlfpw",
"i4dxl4<%6xrre>1wd=>5:<:>56h44gg4rdGd1>>fzrs1>9ie*1>>>%11dd<6xd4dhcp,:4xrdp>,wd<*1>>>:45f64dg55dCl5<w",
"}I45gdfxxxrRL4>>i>rr:>:*%,p><zL'x<sddxcxdz'z<:1e>d<*>*:,p1:5cTTd1grzxxxrLTr>*e11d>*:#%,p<>dZ'H4rgdxS",
"FGg45<<5HHgg665dKgd>##@X%%,><zcGc645><sYxzr666gZge***X.%:,>6xCGx54<<<vIzdd56sZxg<$X* %%,>>kxZZd14<>y",
"Vkked>#1Y/d=*5xxCdse44%%p,,>#6ddgrrr$#fRP4*=dcxcde94;%:5>>::ssdgrd3#:G'x>$<xxCzry14=#,,<<$4dddg5d=#w",
"Wx5=$$@4zxd>#$>><**dxg>1h65<:kcGg<#*#:rzx6=#:>><#1hC4>pl5p:4ccG6:#=#<kzk2#$::<$$rNx<,xd11$dxGx4==#$y",
"Ap>$<2>5r6cxd<<5>O<drr:5ddx4gggg4:=<>>r6dZg6<44+X6se5:6akg6kggs,=<<22r5xcd4>4<+$dss<,ddx6sggg6>*<>>y",
"w#>4rdddIkgrr5sf<+>d3fsp,5Lxfar$%<rgd6zLdzr64ff$+ee6dpp<zGgdd5+>2rddrIxkdrpsh4$*s<adpp<Hxlag>+>5gdam",
"Ap6hgd4dYr>><46xr#:dhdha$:ZcGlLl1fhd65CL2>:45fx<#5fhdh3#rcGxLGa1zgd5rIk>>>56lg**sgggf:#xcGhYv5rxdd5B",
"Axggrr1xLg>$&<155>rYKpff>1Y`YLHxdxdd46ZH5$=>344,>hTC1ha>g`TJYcxghrr2dLx2$:>345<5HPerl3>G`TGYlghdd64F",
"idf<dx6CU{b6411,>>5ZTLKf>:xYLfspdd>xadHR{k3511,<>dP~HHp:3cPxdrrx46x6xI{U635<,>>1xTPGv<:dLLzdddd>hgdF",
"w4g$sx>>2cc6551s1><<xLva2<4d5+O:d6$xd>2aIk651ep<>14LGx,,<6f>X@<g<1c<>2lck5e1pp>><gLba<11dr# $5d:gg:w",
"i4s,66>22dcd>ddx1<d<rxziragxr>=55d,r2>:3kz54dgd>5s>gxzrdsxg4=25r51s>>&6xg>edl5>d54xlgrddld<=45d,65<w",
"i<5d64&$2cx65xdd56f+>dFHg>#gddr4<pd62:&dck5sxrd4d6#5xFCp%:xdd5<1ds5>>=ccd1gz665k:*dSLg1+6xrd5,5d61&w",
"i65PLr:4hPhp9srr55g *rw<<.dGf5<56dTx5>5GKg5eerr<g3 <r<4*#xGs5,65vTg<:sJCs1d5dr3k+Xry>1+4Gx6<466TK6:t",
"w45xxd4cNhg1>1rr>56X>sded4JhgLf>4acx5eGNgs>>ere<a>X<ger5dJdxL5,5fck4zGhss=,sr>3d#$egrd4vvsGc>15xxd4F",
"ipdxP55L9sld1>=5rgr#<gxgp>hxJxa5rgJG>xN1hhr>*=rrk<#rhVde1cxHf65shYd<KesNd5<=4ydg*>dzgd<dcGCd56dGP<e(",
"i,6G'45N1PPHh<*<<<<#rxi4+#<hL5<43dTY*hys^HHd>=4=5>$xgy*##6CC<315x'h:C1GTHc4$<1>4#<xry##:dHd<5,sH`>sW",
"w:54gg1#>KCLZr=O :<4Z/Z5dPgd65<:<,4xy:@sHGPx4@OO4>dIRg4CGdd54>>41sge**NZGLd>XX*5>x^Pr5Lkdr61>>51hd>7",
"mdvHvce*eKGdd5#=$$:<xccdxcda5r66fHGvx9:gKhdd2#=*:=dxHhgZlg66p6sxHCCd:9NKggr:#*#>>hcZdxGgd5s55dvHcxe7",
"wfPYhge99NCr1>>=X*><fdrcL352:s4<GTGgh19sKh5>><*X>*5ddrLx45&1d>sJTxgd19hZr1<2=@#:=ddrkU65,>5s>vYPhh1u",
"ifhx6<:*:ere>>>=#*>4dd425+$$56>plxx1<>:>ds1>==#*>>6d633>#&$r1>ffxd1>*:ese<===#*><dd525$$$>s>5hlx5<>8",
"gddhps4ghCZxg6::::>3632>>#:2dr4sdgfpe5ghHGhd1:::=>5522<$$>5d55sdffp5dhhHxgs::,::2642>>$$>6d<6ddhp61A",
"t<dhdzxf<GTxxhp11<=5622>d224k65<3ffdxx64TLxCs191<:653>46>>6k64<6hdgxx<h^Zxhp111>2625:r522kd5<4dffxhA",
"ApalxxCh:HTeKhhvhr5f625>a3>5cJbk5flxxCp4^CdPhvvd5rg1522f&2aIJxd6xxxxC>f`dHKhGhs5fd<5>66:3lLHx6fxxxxF",
"EAA!(AFDyF}iEE!KyytMiyjiBViiVVVFVA)!AWMy)~uWM!NyiyMyijyVjijVVAAVF)FAFiV}mVEF!ytuiitgiiAiijVVFBz~~AFQ"
};
