/* XPM */
static char *i_[] = {
/* columns rows colors chars-per-pixel */
"75 67 168 2",
"   c #000000",
".  c #0D0A07",
"X  c #130E09",
"o  c #15100B",
"O  c #1D150D",
"+  c #20170F",
"@  c #23180F",
"#  c #211710",
"$  c #231911",
"%  c #2A1D14",
"&  c #2E2116",
"*  c #312216",
"=  c #3B2717",
"-  c #34261A",
";  c #36281C",
":  c #3E2B1C",
">  c #412E1E",
",  c #43301F",
"<  c #432F20",
"1  c #453222",
"2  c #493424",
"3  c #4F3826",
"4  c #533D2A",
"5  c #5C422C",
"6  c #5F4630",
"7  c #64462E",
"8  c #744E2D",
"9  c #654933",
"0  c #6A4E35",
"q  c #664C39",
"w  c #724E34",
"e  c #745236",
"r  c #7A5535",
"t  c #765539",
"y  c #7A563A",
"u  c #75583B",
"i  c #7C5A3D",
"p  c #775B42",
"a  c #7E5D41",
"s  c #7F6042",
"d  c #825732",
"f  c #865A36",
"g  c #845D3D",
"h  c #8A5E3C",
"j  c #86603F",
"k  c #8D613E",
"l  c #92653E",
"z  c #9B663B",
"x  c #9D693E",
"c  c #AA6E3E",
"v  c #825E42",
"b  c #846144",
"n  c #8B6444",
"m  c #8E6847",
"M  c #856449",
"N  c #8A664A",
"B  c #8D694B",
"V  c #926643",
"C  c #946945",
"Z  c #9D6B43",
"A  c #936B4B",
"S  c #9A6E4A",
"D  c #96704F",
"F  c #9D714D",
"G  c #916E51",
"H  c #977252",
"J  c #9A7352",
"K  c #A16D44",
"L  c #AC6F40",
"P  c #A57245",
"I  c #AD7243",
"U  c #A5734A",
"Y  c #AA764B",
"T  c #A2784F",
"R  c #AC794E",
"E  c #B27646",
"W  c #B47748",
"Q  c #B57A4A",
"!  c #BA7D4D",
"~  c #A27652",
"^  c #A37953",
"/  c #AE7C52",
"(  c #A47B5A",
")  c #A97F5E",
"_  c #B27E54",
"`  c #BC7F50",
"'  c #BB824E",
"]  c #AC815E",
"[  c #B48156",
"{  c #BD8253",
"}  c #BE8853",
"|  c #B6835A",
" . c #BA865B",
".. c #B7885F",
"X. c #BC895E",
"o. c #AD8462",
"O. c #B28663",
"+. c #B88761",
"@. c #B38966",
"#. c #BD8C64",
"$. c #B48968",
"%. c #BC8E6A",
"&. c #BF916C",
"*. c #C18655",
"=. c #C48A56",
"-. c #C18758",
";. c #C58B5B",
":. c #CA8E5D",
">. c #C7905A",
",. c #CB925D",
"<. c #D0935F",
"1. c #C38D61",
"2. c #C98F61",
"3. c #C08F69",
"4. c #C59165",
"5. c #CD9262",
"6. c #CF9862",
"7. c #C69469",
"8. c #CC966A",
"9. c #CE996A",
"0. c #D19565",
"q. c #D39A66",
"w. c #D39768",
"e. c #D59B6A",
"r. c #D99E6C",
"t. c #C19571",
"y. c #C99770",
"u. c #CD9C74",
"i. c #CF9F78",
"p. c #D19E76",
"a. c #DB9F70",
"s. c #D19F78",
"d. c #D7A06B",
"f. c #DCA16E",
"g. c #D3A075",
"h. c #DEA271",
"j. c #DFA872",
"k. c #D3A27A",
"l. c #D9A57D",
"z. c #E1A573",
"x. c #E4A976",
"c. c #E8A977",
"v. c #E6A978",
"b. c #EBAD7A",
"n. c #EEB17D",
"m. c #F0B17E",
"M. c #8F8B87",
"N. c #908D89",
"B. c #B8A79A",
"V. c #BCAB9D",
"C. c #BEADA0",
"Z. c #BDB6B0",
"A. c #DEAA81",
"S. c #E1AC83",
"D. c #F3B582",
"F. c #F4BA87",
"G. c #F6BD8A",
"H. c #F9BF8D",
"J. c #C0AFA2",
"K. c #C3B2A4",
"L. c #CDB5A2",
"P. c #D0B7A5",
"I. c #D1B9A6",
"U. c #D5BDAA",
"Y. c #FAC18F",
"T. c #FBC391",
"R. c #D9C1AE",
"E. c #EFEAE7",
/* pixels */
"E.I.I.U.U.U.U.P.I.U.U.U.U.U.R.U.U.R.R.U.R.R.U.U.U.U.U.U.U.U.U.U.U.U.P.P.P.P.L.L.L.L.L.L.L.L.L.L.P.P.P.P.P.P.P.U.U.U.P.U.U.U.U.U.U.U.U.U.U.U.U.U.U.U.Z.",
"C.C / / / / R R Y / _ _ _ +.+.3.+.+.3.+.+.1.+. .+._ +._ _ _ _ _ _ _ R Y U U K Z Z Z V z Z z K K K K K K U U R R / / / / _ _ ) _ _ ) _ _ _ ) _ ) [ 5 N.",
"C.v A 1.2.2.;.-.-.;.1.2.2.2.2.2.2.w.8.8.w.8.2.5.2.1.2.2.1.1.1.1.1.:.-.;.1.` -.` ` ` ` ` ` ` ` ` ` ` _  .-.-.-.;.1.;.;.-.2.2.2.2.2.5.7.5.5.5.4.5.q $ N.",
"J.M n 8.b.b.c.z.a.a.a.z.c.b.c.b.c.b.D.D.b.b.b.b.b.c.c.c.c.c.c.c.c.S.D.c.D.c.D.S.A.c.D.c.D.c.A.c.S.c.c.c.b.b.b.m.S.D.D.D.D.S.D.D.D.D.D.F.F.D.D.O.; $ N.",
"C.M v 1.a.v.z.a.a.a.a.a.a.a.z.z.z.v.v.v.c.v.z.v.z.v.z.z.z.z.z.v.c.A.z.z.z.S.c.c.c.S.c.c.c.S.c.A.c.c.z.z.l.c.v.S.c.S.c.A.z.c.c.A.b.b.S.b.b.b.9.A ; $ N.",
"J.M N 1.w.a.a.w.0.w.w.w.r.a.r.r.a.a.a.a.a.a.a.z.a.a.z.z.z.z.a.z.a.a.a.a.a.w.a.a.a.a.a.a.a.a.a.z.a.a.a.a.a.a.a.l.a.a.a.a.a.a.a.a.h.h.z.f.h.r...m ; $ N.",
"C.v v _ 1.w.0.5.<.:.2.2.2.0.0.0.w.w.w.a.a.r.r.a.a.r.a.r.a.r.r.a.w.0.2.2.2.2.*.*.;.:.;.2.:.:.2.2.0.0.0.w.w.a.w.a.w.w.w.w.w.w.w.w.e.e.w.w.w.9.[ m ; # N.",
"C.p i R ` 2.;._ _ _ / _ _ _ _ _ | _  ._  . .+.+.3.X.1.+.3.+.1._ _ ` R U L U K L Z Z K K L W Y R R _ _ _ _ _ _ ` ` ` `  ._ _ ` *...| | =.5.,./ j - # M.",
"B.p v R ` -.;.R V C C A N C B A D D D H J J G J J J J G J J J ~ J J G V N v n n v v v V n n N A A A B A G D S D G D G D G J J J H D / -.:.=.Y g - O N.",
"V.v v _ -.2.2._ V q ) ) ) ) ) ) ) ) $.) ) $.$.$.$.$.$.$.$.$.$.) ) ) ) ) ) ) ( ( ( ~ ~ ( ) ( ) ) ) ) ) ) ) ) ) ) ) ) ) ) ) ) ) ) $.A _ { =.-.U g * O N.",
"C.v v ` 2.0.0.` V < 9 y.y.t.u.u.s.s.p.p.s.s.s.s.A.i.i.s.s.s.s.s.t.A.A.A.y.y.y.3.t.3.y.y.y.y.y.y.u.y.y.y.y.y.y.u.A.y.i.i.u.t.A.A.J b [ =.2.=.Y i * O N.",
"J.M v  .2.w.w.1.S 1 # q A.y.A.A.l.s.s.s.A.i.A.i.i.A.A.s.A.s.s.s.A.t.A.A.u.A.A.A.A.A.u.A.u.s.u.A.i.y.y.y.u.u.s.s.A.y.A.t.i.A.u.G v m  .1.5.5./ h * O N.",
"C.v v U  .2.5.-.Z < # % N _ 3.t.3.3.3.3.#.#.#.3.$.%.%.3.3.3.3.3.) ) +.+.3.+.+.3.) +.+.+.+.+. . .) ` %.$.1.3.3.3.3.3.3.3.$.3._ v s m ..6.6.6.[ j * @ N.",
"B.p d x W ` -._ V : # % n 2.0.w.0.5.:.2.2.5.5.5.2.5.2.0.<.0.2.0.w.0.:.:.:.2.:.:.;.;.*.:.:.*.-.*.-.:.5.0.w.w.w.w.a.w.w.0.0.5. .M a m ;.8.e.6.[ l - O N.",
"B.w w z E ` ` R V = # @ n *.2.:.2.<.2.:.2.:.:.:.:.:.:.5.<.0.0.0.2.:.2.:.:.:.-.:.-.*.*.*.-.-.*.:.2.:.2.0.0.w.a.w.w.w.0.5.2.2._ v u g [ } X.;.P i * O N.",
"B.w w z E W ` L n = # @ d ` *.-.;.:.:.:.:.:.;.;.:.:.:.:.2.2.2.0.w.w.0.5.:.:.*.*.-.-.*.:.:.:.5.5.5.:.:.2.5.0.0.w.0.0.2.-.*.` L t u 8 x c Y I l 8 % O M.",
"B.w w z E W ` R v : # @ v ! ` ` *.*.*.-.*.*.*.*.` *.*.*.*.*.*.*.*.*.*.*.*.! ` *.` *.` *.*.*.;.*.-.-.:.:.:.:.:.:.=.*.*.*.` ` L y e e K Y Q E z 8 % O M.",
"B.p p K W ` -.W V : O # h ` W W W ` ` ` ` ` ! ! ! ! W W E W E L E L c c L E W W ! ` ` ` ` ` ` ` ` ` ` *.*.*.` ` ! ! ! ` ` ` Y y e r I { { { P r % O M.",
"B.w w K ` ` -._ V : # % V ` ` ` W W W W E E E L L L L L L c c c c c c E E W ! ! ` ! ` ` ` ! ! W ! W W W W W ! W W W ! ` *.-._ v p v [ :.5.4./ j & O M.",
"B.p d K W ` -.W V : # % V ` *.*.` W L L L E L L L c c c c c c c c E ! ! ! ! ` *.*.*.*.` ` ` ! ! W W L L E E W W W ! ` ;.:.5.;.v b N ;.8.d.r...n - @ N.",
"C.p v R  .;.2.` S < # % Z 5.0.5.:.*.*.` ` *.*.*.*.*.` *.{ { { { ` *.*.;.=.=.:.:.;.;.;.*.-.*.*.` *.` ` ` *.*.*.*.*.*.;.2.0.w.1.N M B 1.w.r.r.X.B - @ N.",
"C.v v ` 1.0.w.1.F 2 # & F a.a.w.w.w.w.w.w.w.w.w.w.w.w.r.r.r.r.a.e.w.5.U y 9 7 v Y 2.2.5.2.;.;.;.;.<.0.w.w.w.0.0.0.2.0.w.w.w.1.N b B X.5.r.e.| m - $ N.",
"J.M N _ 2.w.w.1.F 2 # & F a.a.a.a.r.w.a.a.w.a.a.a.a.a.a.a.a.a.a.a.v O             O Z w.0.0.0.0.0.w.a.a.a.a.a.a.w.w.w.w.w.w.1.v v N 1.6.e.r...C - $ N.",
"C.M N _ 2.w.w.-.S 1 $ & S w.w.w.w.0.0.<.0.<.0.0.0.0.w.w.w.w.w.8.<                   . S r.w.r.e.w.a.a.a.z.a.a.a.r.w.w.w.a.a.2.B M m 1.w.p.e...m - $ N.",
"J.M v _ 2.0.2. .C < # % C 0.0.5.<.5.:.:.2.:.0.:.:.0.:.0.5.w.5.3                       . S r.a.e.r.r.w.r.a.a.a.a.w.w.0.w.w.w.2.N M m ..5.e.w.| m - $ N.",
"J.M N _ ;.0.0.` V < # % V 2.2.:.:.5.5.5.2.:.0.0.0.0.0.0.5.0.R         . 2 v w #         # w.e.w.r.w.w.r.r.a.w.r.w.w.0.0.w.w.2.v M n [ ;.5.5./ h - # M.",
"J.M v _ ;.2.2._ V : # % V :.:.:.:.5.0.5.0.0.0.0.0.0.0.0.w.0.6         e 0.2.5.X.O         / 5.5.<.0.w.w.w.a.w.w.0.<.5.5.5.0.-.v v n [ 1.5.2./ g & O N.",
"J.M v _ 2.2.2.` V : # % V :.5.5.5.5.0.0.0.0.2.:.2.2.0.0.w.2.X       & :.:.:.:.:.y         7 :.:.:.<.w.w.a.a.a.a.w.<.<.:.2.0._ v i n  .5.6.5._ h * # N.",
"C.v v _ -.2.2.` V < # # V 2.5.5.5.<.0.5.0.0.0.0.0.:.:.0.:.z         5 :.;.;.;.;.Q       . @ :.-.*.:.5.0.0.w.w.w.5.:.:.:.2.;.` v i h  .2.5.5./ j - @ M.",
"C.v v _ -.2.2._ V : # % V ;.:.:.5.5.5.2.5.:.:.0.0.0.0.2.2.w         n 2.:.:.:.:.:.        X -.-.*.*.` *.:.:.<.:.:.:.-.*.-.;._ v v v _ =.,.;.R g & O M.",
"C.v v _ -.2.0. .V < # % V 2.2.5.5.<.0.5.0.5.5.0.0.0.0.0.w.3 X       _ 5.2.2.<.<.:.%         2.:.:.*.*.-.:.:.5.:.:.-.-.:.2.2.` v v v [  .;.;.R g * O N.",
"C.M v _ 2.w.w.-.S < # % V w.w.w.w.0.5.0.0.0.0.0.0.0.0.0.w.: .       ` 0.0.0.0.0.w.;         -.0.<.:.:.:.0.w.w.w.0.0.2.<.2.0.+.N b n [ =.5.,./ j * + N.",
"J.M n  .0.e.e.#.Z 1 # % Z 0.e.e.w.0.0.0.0.<.<.<.<.:.0.:.0.%         >.e.w.w.w.q.q.;         [ 0.0.:.=.:.,.0.0.0.0.5.0.0.0.0.X.b s b [ ;.4.,./ j & # N.",
"J.M b  .5.e.q.=.S < # % S q.r.e.w.0.<.<.<.<.:.:.:.:.=.=.=.O         r.q.e.q.q.q.q.;         F 5.,.*.! ! =.=.,.:.:.,.,.,.,.,.{ b i j Q { :.=./ g & O N.",
"C.v v ` =.0.5.[ C < + % V :.:.<.<.<.<.:.:.:.:.=.=.*.=.=.*.O         ,.:.>.>.:.:.:.*         U >.:.' ' ' =.;.:.,.,.:.,.5.0.5. .b i g Q  .:.;./ g * O N.",
"V.a y Y { *.=.Q h : + % k *.=.=.*.*.*.*.:.*.:.=.*.=.*.*.*.@         ! ! Q Q ! ! ' *         Y *.*.*.=.:.,.,.5.,.,.5.5.5.q.0.X.M a b [ =.:.:.[ g * + N.",
"B.i r P ! { *.I h > + @ f ' ' *.` ` *.*.=.=.:.=.:.*.=.*.=.*         I *.*.*.' *.*.*         ,.>.=.>.:.,.0.5.,.<.,.5.,.0.q.q.X.b a b { ;.5.,._ v * @ N.",
"B.t w K E ! ! P f = + @ d E ! W W ! ! ! ` ` *.*.:.*.*.:.=.,         [ ,.,.,.<.<.6.O       . e.d.r.q.q.q.q.q.q.0.,.,.,.5.0.q.=.M b n [ :.5.0.[ n - # M.",
"V.i y Y { *.=.Q h > + @ k *.*.*.*.*.*.=.:.<.<.0.<.0.0.<.0.5         C d.r.d.r.d.f..       O f.f.d.r.r.q.q.q.q.q.5.,.,.0.5.q.X.M b b  .2.0.0.[ n - O N.",
"C.b g { :.0.q.*.Z > + % C <.<.w.<.<.q.q.r.r.f.z.z.z.c.z.z.a         9 x.x.z.x.x.+.        4 h.h.f.f.d.r.r.q.e.0.<.5.,.6.5.q.;.M b n  .2.w.6.| n - # N.",
"C.M M X.0.r.r.5.~ 1 # & J f.f.f.h.h.h.h.z.z.c.x.c.c.c.c.j.*.        $ v.x.x.x.x.9         / j.f.f.f.d.r.r.r.q.q.q.q.q.5.q.q.;.N s m X.6.q.w...m ; $ N.",
"K.M m #.e.f.h.8.^ 2 $ & ~ x.x.x.c.c.c.z.c.c.z.c.c.c.c.c.c.c.o         0 j.j.j.]         @ r.w.e.q.r.f.f.r.d.d.d.q.e.d.e.q.q.#.N M m X.6.e.e.| m ; $ N.",
"K.N N ;.w.f.h.5.~ 1 # & J z.x.x.c.c.c.c.c.z.z.z.z.c.z.c.j.z.f           & 0 2           i r.d.f.r.f.f.f.d.d.d.d.f.f.f.f.d.d.4.B N m 4.9.d.r...C ; $ N.",
"K.M M  .5.r.e.1.F 1 $ & F f.z.f.h.z.z.z.h.z.r.r.r.r.r.r.d.r.q.:                       2 g.z.j.j.x.h.z.z.f.f.j.j.z.z.j.h.h.f.7.B N A 4.e.g.r.#.A - $ N.",
"J.M M  .6.r.e.;.F , $ & c f.f.f.f.z.z.f.r.r.r.e.r.r.r.r.f.r.f.<.4                   5 d.j.j.j.j.x.j.h.j.j.j.d.j.j.j.j.j.f.f.4.B B A 4.q.d.d.X.A ; $ N.",
"K.B B 1.w.r.r.4.F 1 $ & P f.f.z.z.z.z.f.h.f.r.r.f.f.r.f.z.f.f.f.d.0 O           $ u j.j.d.j.j.j.j.j.f.d.d.d.d.d.j.j.d.d.d.q.>.B N B X.9.d.d...n - $ N.",
"K.B B ;.q.f.r.:.F 1 @ & U f.f.z.z.f.f.r.r.r.r.r.f.f.f.f.z.f.f.f.f.r.r.R T ^ ^ X.j.f.d.d.d.d.d.d.d.d.f.d.q.6.6.q.q.6.d.6.,.,.| M M m X.6.q.e.| n ; $ N.",
"K.B B ;.0.r.q.X.Z , # % Z q.q.f.f.<.r.<.<.<.<.<.<.q.r.r.f.r.r.f.r.d.d.d.f.f.j.d.f.d.d.6.6.6.q.d.d.q.d.6.6.,.,.,.6.6.,.,.>.>.' s s n  .4.9.8.] s - $ N.",
"K.M b { >.q.<.{ C > + % l <.q.q.q.<.<.<.:.:.<.<.<.<.<.<.<.<.r.<.q.<.q.q.d.d.<.d.6.6.6.,.,.>.>.,.>.<.,.,.,.>.>.>.>.>.>.} } ' ' u u j [ X.>.,.[ j & @ N.",
"V.i i Y *.,.<.' l > + @ l ,.<.<.q.<.<.:.:.=.=.=.*.*.=.=.>.<.<.<.<.<.>.>.>.>.>.>.>.>.} >.} =.} } } >.,.,.>.>.>.>.>.>.>.} } ' x e e r P ' ;.;./ j - O N.",
"V.i r I { ,.:.{ l > + % l >.<.<.<.<.<.<.<.<.=.=.*.*.=.=.=.>.<.<.<.,.>.>.>.} >.>.>.} } } } } } } } } >.>.>.>.>.>.>.>.} } } ' P u e r Y ' >.>.] b * $ N.",
"V.i s [ ;.<.0.| C , + % l :.<.<.<.<.<.<.<.<.<.<.<.<.=.<.<.<.<.<.d.<.6.6.6.,.<.<.6.6.,.,.,.,.,.,.6.,.,.,.,.<.>.>.>.>.>.,.} } ' s u s { 4.8.6.| n - $ N.",
"C.b b | ,.q.e.;.S 1 $ $ V 5.0.0.q.r.r.r.r.r.e.w.<.<.<.<.r.r.r.r.f.d.d.d.d.d.q.q.6.6.6.d.q.6.6.6.6.6.q.q.<.d.d.q.q.d.q.d.6.6.} m M n #.q.h.h.#.A ; $ N.",
"K.N n X.q.f.h.2.T 2 $ & U r.h.h.h.f.f.f.f.h.h.z.f.z.f.f.f.f.j.z.j.f.r.d.d.d.d.r.d.d.d.d.q.q.q.e.d.d.f.d.d.j.x.f.j.j.j.j.j.j.7.G N A 9.g.j.h.#.A ; $ N.",
"K.B B 4.r.z.x.6.~ 2 $ * ~ x.x.x.x.x.z.c.c.z.z.z.z.z.z.j.z.z.c.c.c.j.f.f.f.f.f.d.d.d.d.d.d.r.d.r.d.d.j.j.x.z.x.f.j.j.j.j.j.j.9.G B H 8.g.j.a.X.A ; $ N.",
"K.B B 4.r.h.z.7.^ 2 $ & 1.Y.Y.Y.Y.Y.H.Y.Y.Y.Y.H.m.Y.m.Y.Y.Y.Y.Y.T.Y.Y.Y.Y.Y.Y.Y.Y.F.Y.Y.G.H.H.G.Y.Y.Y.Y.Y.F.Y.F.F.Y.n.Y.Y.Y.d.B M A 7.9.e.e.[ n - $ N.",
"K.B B 1.e.z.z.7.~ 1 $ 7 +.4.4.4.3.2.4.1.4.3.7.1.1.1.1.1.1.2.7.7.6.8.7.8.7.7.7.7.7.7.7.7.4.4.4.4.4.4.4.4.4.4.1.#.X.#.X.X.#.X.>.J M A 4.e.r.9._ n - $ N.",
"K.B B 1.w.r.r.1.F 1 0 | [ [ [ _ ` [ |  .| | | [ [ _ _ _ | |  .X.X.X.X...X.X.X.X..... . ...|  .....#.X.4.#.X.#.#.X.X.....X.X.X...^ H 9.j.j.h.#.A - $ N.",
"K.G B 3.w.r.r.1.F A 5.5.2.2.2.2.2.5.0.0.5.5.2.2.1.2.:.2.5.7.w.e.q.9.q.9.9.q.6.9.9.6.9.8.6.8.9.6.6.e.g.g.d.d.r.e.d.9.9.9.9.q.9.9.9.#.9.g.v.j.#.A ; $ N.",
"K.B A 1.e.h.h.2.5.b.b.b.n.D.b.D.m.m.b.b.n.n.b.b.c.b.b.n.b.m.m.D.D.D.n.D.n.D.n.n.n.n.n.n.n.n.n.n.n.n.n.n.n.n.n.n.n.b.n.n.b.b.b.n.b.b.j.r.h.p.X.m - $ N.",
"K.B B 3.e.z.a.e.z.h.z.z.z.c.x.c.c.z.z.z.z.z.z.z.z.z.z.z.c.c.c.c.v.x.x.x.x.x.x.x.x.x.j.x.j.x.x.x.j.h.h.z.z.z.f.z.h.h.h.h.j.d.f.f.f.h.x.h.d.d.} s - $ N.",
"K.B N 1.e.z.z.r.f.r.r.r.r.r.f.h.f.e.w.r.r.a.f.f.f.r.r.r.f.f.r.h.f.j.f.f.j.f.f.f.f.h.h.f.h.f.f.f.j.r.d.e.d.e.d.d.f.r.f.d.d.d.d.d.e.d.h.j.j.j.&.] ; $ N.",
"K.B N 1.w.a.r.e.0.<.:.:.:.:.,.0.2.:.:.2.0.0.w.r.r.r.e.e.w.w.w.0.q.q.q.q.w.6.q.q.q.q.q.w.q.q.q.q.q.q.0.q.8.6.q.q.q.w.9.6.q.6.0.<.>.6.<.d.d.d.X.A ; $ N.",
"K.N N 1.2.1.+._ _ E K K K K K K P Y Q _ _ `  . . . .|  .| _ _ _ _ / / / / / / / / / / / / / / / / / / _ [ [ [ [ [ [ [ [ [ R [ R [ Y T F [ ] ] s - $ N.",
"K.M B ) ( J J H A N n V n v n n n N V A S S J J J J ~ J D J S S S G N D G A S A B A A A A B A B A C D A A D A A D A A A A B m m m m j m m B D j * $ N.",
"K.M o.t.7.&.&.%.$.) ) ) ) _ ) ) _ ) ) ) ) ) ) 3.) 3.3.) ) %.t.) %.) ) ) ) ) ) ) ) $.+.) o.+.O.O.@.@.@.@.@.O.O.O.o.] ] o.] ] ] ] ] ] o.o.@.o.@.@.p O N.",
"K.$.S.S.A.A.A.A.s.A.A.A.A.A.s.z.l.l.s.s.a.s.l.l.S.S.A.s.A.A.A.A.A.A.u.y.s.s.a.s.s.l.s.s.s.k.k.l.l.k.k.k.k.g.k.g.g.g.u.i.g.i.u.g.u.i.u.g.k.k.k.k.k.s N."
};
