/* XPM */
static char *i_[] = {
/* columns rows colors chars-per-pixel */
"75 67 194 2",
"   c #010101",
".  c #0A0604",
"X  c #0D0906",
"o  c #150F0A",
"O  c #17100A",
"+  c #1A130C",
"@  c #1E1610",
"#  c #23170E",
"$  c #24180F",
"%  c #241710",
"&  c #251A12",
"*  c #2A1C13",
"=  c #2F2216",
"-  c #342315",
";  c #362619",
":  c #382719",
">  c #37291B",
",  c #3A291D",
"<  c #503319",
"1  c #443122",
"2  c #483423",
"3  c #5B3F27",
"4  c #643F21",
"5  c #5F442A",
"6  c #664123",
"7  c #6A4526",
"8  c #6C472B",
"9  c #6D4A2D",
"0  c #714C2E",
"q  c #7B522E",
"w  c #674B33",
"e  c #6C4D33",
"r  c #654B38",
"t  c #724E31",
"y  c #6E5035",
"u  c #645138",
"i  c #6E523A",
"p  c #745234",
"a  c #7A5536",
"s  c #75553B",
"d  c #7A573A",
"f  c #77583B",
"g  c #7C5A3C",
"h  c #7D5C42",
"j  c #7F6045",
"k  c #865A33",
"l  c #8C5E36",
"z  c #835C3D",
"x  c #8A5E3C",
"c  c #8B603D",
"v  c #92633D",
"b  c #986739",
"n  c #9C6A3F",
"m  c #A0673B",
"M  c #A36B3E",
"N  c #AA6E3E",
"B  c #825E42",
"V  c #836145",
"C  c #8C6443",
"Z  c #8E6846",
"A  c #846549",
"S  c #8C6648",
"D  c #876A4B",
"F  c #8E6A49",
"G  c #926642",
"H  c #936945",
"J  c #9B6B44",
"K  c #936C4B",
"L  c #9A6E4B",
"P  c #9F7047",
"I  c #96704E",
"U  c #9C714E",
"Y  c #9B7351",
"T  c #9F7759",
"R  c #A26D44",
"E  c #AC6F40",
"W  c #A47047",
"Q  c #AC7243",
"!  c #A3734C",
"~  c #AA764C",
"^  c #AD7A4D",
"/  c #B17646",
"(  c #B77947",
")  c #B37749",
"_  c #B57A4B",
"`  c #BA7D4D",
"'  c #A37652",
"]  c #A87750",
"[  c #A57953",
"{  c #AD7B52",
"}  c #A47B5A",
"|  c #AA7E5C",
" . c #B27E54",
".. c #BC824E",
"X. c #AF8054",
"o. c #AC815E",
"O. c #B48156",
"+. c #BD8353",
"@. c #BF8952",
"#. c #B6835A",
"$. c #BB865B",
"%. c #BC8A5E",
"&. c #AD8462",
"*. c #B18663",
"=. c #B38966",
"-. c #BC8B64",
";. c #B58B68",
":. c #BC8E69",
">. c #BE9067",
",. c #BD916C",
"<. c #C28655",
"1. c #C48A56",
"2. c #CA8A52",
"3. c #C18759",
"4. c #C58B5A",
"5. c #CA8E5D",
"6. c #C7905C",
"7. c #CB925D",
"8. c #D1935E",
"9. c #C38E61",
"0. c #C98F61",
"q. c #C08F69",
"w. c #C59165",
"e. c #CD9262",
"r. c #CF9862",
"t. c #C7956A",
"y. c #CC966A",
"u. c #CF9969",
"i. c #D19564",
"p. c #D39A66",
"a. c #DE9C66",
"s. c #D39768",
"d. c #D59B6A",
"f. c #D99E6C",
"g. c #C99770",
"h. c #C69874",
"j. c #CD9C74",
"k. c #CF9F79",
"l. c #D29E75",
"z. c #DC9F70",
"x. c #D19F78",
"c. c #E09E67",
"v. c #E19E6A",
"b. c #D7A06A",
"n. c #DCA16E",
"m. c #CFA277",
"M. c #D2A076",
"N. c #DEA371",
"B. c #DEA877",
"V. c #D3A27A",
"C. c #D9A57C",
"Z. c #E1A26E",
"A. c #EAA56F",
"S. c #E2A573",
"D. c #EBA771",
"F. c #E4A876",
"G. c #E9AA76",
"H. c #E5A778",
"J. c #E6AA78",
"K. c #EBAD7A",
"L. c #EEB17D",
"P. c #F0B27C",
"I. c #909296",
"U. c #9A9E9F",
"Y. c #ABA7A6",
"T. c #ACA9A6",
"R. c #ACABA8",
"E. c #B7B3B1",
"W. c #DCA780",
"Q. c #DEAA81",
"!. c #CBAE97",
"~. c #CBB29F",
"^. c #E0AB82",
"/. c #E0B082",
"(. c #E9B188",
"). c #F4B683",
"_. c #F3BB84",
"`. c #FBBC87",
"'. c #F6BD8A",
"]. c #F9BE8C",
"[. c #CDB5A2",
"{. c #D1B9A6",
"}. c #D4BCA9",
"|. c #C4B9B0",
" X c #CABEB3",
".X c #FAC18E",
"XX c #FBC391",
"oX c #FEC994",
"OX c #D7C0AD",
"+X c #D9C1AE",
"@X c #CEC1B6",
"#X c #CFC2B8",
"$X c #D2C5BA",
"%X c #F6F6F7",
/* pixels */
"%X!.{.}.}.}.{.{.{.{.}.}.}.}.}.+X}.+X+X}.+X+X}.}.}.}.}.}.}.}.}.}.}.}.{.{.[.[.[.[.~.~.~.~.~.~.~.[.[.[.[.{.[.{.{.{.}.{.}.}.}.}.}.}.}.}.}.}.}.}.}.}.}.OXE.",
" Xk  .{ { { { ~ ~ {  . . .-.-.-.$.-.9.-.$.-. .-.-. . . . . . .$.|  .] ] ~ R R R J R J G R R R R R R R ! ~ ! ] ] { { { { { {  . . . .|  .o.O. . .4.< U.",
"@X9 K e.0.9.9.3.3.3.3.4.0.y.0.0.0.y.s.y.y.0.y.0.0.0.y.0.9.4.9.9.9.3.0.3.3.<. .3.` ` ` +.` `  .3. .+. . .$.3.3.4.9.9.9.0.0.0.0.0.0.w.e.w.w.e.y.f.s   R.",
"$Xp f S.L.G.H.Z.z.z.S.S.H.H.K.H.G.(.).K.K.K.K.G.H.G.H.G.D.H.H.H.H.K.K.K.).K.K.^.K.H.(.K.H.H.K.K.K.K.H.H.G.K.K.(.K.).K.K.(.K.(.).).)._.).).).`.l.+ . R.",
"@Xp h w.S.J.S.z.v.s.v.z.z.S.S.z.S.S.H.J.H.H.H.H.H.H.H.S.S.H.H.S.S.H.H.H.H.H.H.^.H.^.K.H.H.H.D.^.H.H.z.S.H.H.H.K.^.H.H.H.A.H.(.H.G.K.K.^.L.L.N.U * . R.",
"$Xp B 0.d.N.f.s.s.s.s.s.f.f.f.f.z.z.z.z.z.S.z.z.z.z.z.S.H.z.N.z.z.v.f.f.s.v.v.z.z.z.v.z.z.z.z.z.Z.z.z.z.z.z.z.B.S.z.z.S.v.z.v.z.N.N.N.N.n.n.-.U &   R.",
"@X0 s $.0.s.i.0.e.0.0.e.e.e.i.i.s.s.s.s.s.z.s.z.z.f.z.f.z.f.z.f.s.i.0.5.5.0.3.4.3.3.4.5.5.0.i.0.i.i.i.s.s.s.z.s.s.s.z.s.s.s.i.s.d.d.d.p.r.d.#.H &   R.",
" X8 p  .3.5.5. .{ { { { {  . . .#.#.$.#.#.$.-.-.-.-.9.-.-.$.$.-. . .] ! W W R R R m R R ! ~ ~ ] {  . . . . . .#. . . . . . . . .#.#.#.%.e.r.O.H &   R.",
" X4 h ) <.4.5.{ G S S S K S K K K I I I I Y I I Y T Y Y Y T Y Y Y K S S S B B B B B B C B C S K F F F F K I I I U K I K I I K Y I I ] 4.4.5.^ C %   R.",
" X8 i ` 3.0.8.` B 3 | | | | | | | &.&.=.&.=.=.=.=.=.=.&.| ;.| | | ;.;.| | | | | } } } ] } | | | | | | } | | | | *.| &.| | =.&.&.&.S  .+.4.4.^ c $   R.",
"$Xa s +.0.i.i. .R % r g.h.h.h.j.j.j.l.x.k.k.k.k.W.k.h.W.W.W.j.x.k.k.W.h.g.g.g.g.g.g.g.g.g.g.g.j.k.g.g.g.h.h.g.j.k.j.j.j.h.h.W.W.T s +.4.5.5.^ c $   R.",
" Xa h 9.i.s.z.9.' : . h x.k.W.W.W.x.x.x.W.k.W.k.h.W.W.h.W.W.W.x.x.h.W.W.k.W.x.W.k.h.W.x.x.x.x.W.j.j.h.g.g.k.j.x.x.x.W.h.W.h.W.T d B %.e.i.e.O.c %   R.",
" Xt h _ 3.0.i.3.W - + O } q.q.q.q.9.-.q.q.-.q.-.;.:.:.q.q.-.q.q.:.=.q.-. .q.-.-.| q.-. .| q. .| |  .-.-.-.-.:.q.q.q.q.q.=.q.-.B h h -.t.p.p.O.F %   R.",
" X4 9 W ) <.4.` J - O + J i.i.i.s.e.0.0.0.e.0.e.0.0.0.i.0.i.i.i.e.0.5.4.0.0.5.5.4.4.5.4.4.4.<.<.3.0.i.i.i.s.z.s.z.s.i.i.y.0.<.h h c 6.d.d.d.#.H &   R.",
" X4 9 R ) ` <.) G - o + v 5.5.5.e.5.0.5.5.5.5.5.5.5.5.0.0.i.0.s.e.e.5.5.0.4.4.4.3.3.3.<.<.<.<.5.4.4.0.i.i.i.z.s.s.s.i.8.0.4._ h f f O.@.4.4.^ c %   T.",
" X4 4 m Q ` ` ~ v - o + l <.<.3.4.5.5.5.5.4.4.4.5.5.5.0.5.8.i.0.i.i.i.0.4.4.4.2.<.2.3.4.4.5.0.i.i.e.4.0.0.i.i.i.i.i.5.3.<.<.~ t y 9 M Q / / b q @   T.",
" X4 9 R ) ` <.) G - o O v ` ` ` <.<.<.<.<.3.<.<.+.+.<.<.` 3.<.<.<.<.<.<.` +.+.<.` <.<.3.<.<.3.3.3.3.5.3.5.5.4.4.3.3.<.3.+.<.) e e t E Q _ _ J q +   T.",
" X4 e W ) +.3.) G - o + G +.` ) ( ` <.+.` ` ` ` ` ( ) ) ) ) / E E E N E E / / _ ` ` ` ` ` ` ` ` ` +.<.<.<.3.<.` ( ` ` ` ` ` ) i y s ^ +.+.@.! k $ . T.",
" X4 e Q ) <.3.` H ; o o m <.` ( ) ) ) ) ) ) E E E E E E E N N N E E E E / ( _ ` ` ` ` ` ` ` ( ` ( / ( ( _ _ ( ( ( ( _ ` <.3.` h s g +.9.e.e.X.v %   T.",
" X4 i Q ` <.3. .L ; o @ J 0.<.<.` E E E E E E E E E E E N N N N E / ( ` ` ` ` <.<.<.<.+.<.` ` ( ) / E E Q / ( ) ) ` <.3.0.i.9.B h B w.s.b.N.-.I &   T.",
" Xt i ) +.4.i.+.! ; O + ] s.s.0.3.<.<.<.<.<.<.<.` <.` ` +.<.<.` ` <.3.4.3.4.4.4.<.5.3.5.3.<.` <.<.` ` ` <.<.` 3.<.<.3.8.i.s.e.B A B w.s.N.N.%.U &   R.",
"#X4 h 3.0.i.s.9.' , @ @ { z.v.s.s.s.s.s.s.s.s.s.s.s.s.z.s.s.z.z.d.s.0.i.9.' G { i.0.e.0.5.9.5.4.3.8.i.s.s.s.s.i.e.e.i.s.s.s.y.B B V 0.e.f.b.4.U & . R.",
"$Xp h $.0.s.v.9.' , @ @ { S.z.z.v.s.z.s.z.s.f.z.z.z.z.z.z.z.z.z.z.f.f.z o       4 z.s.i.i.i.i.0.i.f.z.z.z.z.z.f.s.s.s.s.f.f.e.B h A 4.i.d.b.%.U & . R.",
" Xs B 3.e.s.z.3.! ; o @ ! z.a.s.s.i.0.e.8.e.i.i.i.i.i.s.s.s.s.s.v.$.1           h v.v.s.v.s.s.s.s.f.z.z.S.z.z.z.f.s.s.s.s.z.y.B j V w.p.M.N.%.U &   R.",
"$Xa B $.0.s.s.3.R ; O @ U s.i.i.e.5.5.0.5.5.i.5.8.0.i.i.i.0.s.s.s o             h z.z.s.z.z.z.v.f.f.s.z.z.z.v.z.s.s.i.s.s.s.i.B j V 4.t.p.f.%.J % . R.",
" Xa h ` 0.i.8.+.L - o @ W 0.5.0.e.e.5.i.0.0.i.5.i.i.0.i.i.z. .1                 4 z.s.s.s.s.s.s.s.s.s.s.z.s.z.s.s.i.i.i.s.s.e.B j B $.5.7.e.O.v $   Y.",
" Xt h  .4.0.s. .L - o + R 0.5.5.5.i.i.i.0.i.0.i.0.i.i.i.s.v.3 .       X .       3 z.0.8.0.0.i.i.i.i.s.s.s.z.z.s.i.i.5.i.e.s.9.B h g $.5.i.e. .C %   Y.",
" Xt h 3.0.i.i. .J ; o @ R 0.i.0.0.0.i.i.i.i.i.i.0.i.i.i.s.v.h X   & ! z X       4 i.5.0.5.0.5.4.0.e.s.s.z.v.z.s.i.e.5.0.0.0.` h h g 4.e.i.i.O.H &   R.",
" Xa h ) 3.0.i.` H ; + + R 0.i.8.i.0.i.i.e.e.i.i.i.0.0.i.i.A.4 % a 4.v.a .       3 i.0.<.4.4.3.2.3.5.5.i.s.s.a.s.i.0.4.4.0.5.` B d h 3.5.i.i.O.G &   R.",
"$X4 h  .3.0.0. .G - o + R 0.5.5.8.0.i.0.e.0.0.0.0.i.0.8.0.8.0.8.e.5.a.g X       4 s.5.0.4.4.3.4.3.<.<.<.5.5.0.0.5.<.<.3.4.4.` B f z #.4.7.5.^ C #   R.",
"#Xt h ` 0.0.i.` R ; o o L i.0.i.i.0.i.5.e.8.e.i.i.i.8.i.i.i.i.s.i.0.v.z .       3 z.0.5.5.5.5.5.0.<.+.<.5.5.e.5.5.5.4.5.0.0.3.B h g +.%.5.5._ C $   Y.",
"$Xt B 3.e.z.s.9.U ; + @ U s.s.s.s.i.i.i.i.i.i.i.i.s.i.i.s.s.s.s.s.s.Z.z X       4 v.s.i.i.s.0.i.i.5.4.5.i.s.s.s.i.0.5.5.8.i.-.B h g $.4.e.e.O.G $   R.",
"$Xt h 4.i.f.f.5.! : + + ! a.a.d.s.i.e.i.i.e.8.e.8.e.8.8.i.i.i.i.s.s.D.V X       w n.f.p.d.s.i.i.i.4.1.5.e.e.d.i.i.e.7.e.i.i.4.B h g +.4.7.e...C $ . T.",
"@Xp h 4.e.p.f.<.! : + + ! d.f.d.s.i.8.i.e.8.8.5.5.4.<.<.1.2.5.8.i.p.D.C X       w b.f.p.p.s.i.i.7.<.` ` @.2.7.4.5.7.7.e.i.i.%.g f g O.<.5.5.X.Z $   Y.",
"@X0 s #.5.r.i.#.L - O + L i.i.8.8.5.8.5.5.5.5.2.4.<.<.<.<.1.5.5.8.5.c.a .       5 p.8.7.8.7.5.5.4.......<.4.5.7.5.7.e.e.e.p.1.g f f O.<.5.w.O.c $   T.",
" X9 p _ <.3.4._ G - + + G 4.1.1.<.<.2.3.<.3.4.1.1.<.1.<.<.1.4.5.1.<.2.0 .       5 2.2.1.1.1.1.<.<.@.1.5.7.e.7.7.7.7.7.r.p.p.6.V g g +.%.6.e.O.H $   T.",
" X7 t Q ` <.<.Q v - o + l <.<...+.` <.<.<.2.1.4.1.<.3.<.<.1.1.1.1.<.7.q .       5 7.7.5.6.7.6.4.5.2.6.e.e.r.e.e.5.7.7.r.p.p.5.h h h #.4.7.i.#.H $   R.",
" X6 9 Q ( ` <.Q l * + o l ` ( ( ( ( ( ` +.1.<.1.2.4.5.2.1.1.1.4.2.6.a.g X       w n.b.b.b.d.b.b.d.p.p.r.p.p.i.r.i.7.7.e.p.d.6.V h c @.5.i.i.$.K & . R.",
"@X7 e _ +.1.2. .b - o + b 1.<.+.<.2.<.1.5.5.8.i.i.i.i.i.i.i.i.i.s.d.G.C X       y F.S.n.S.n.n.n.n.b.f.d.d.p.p.r.e.7.e.r.e.p.6.j h B 4.e.i.p.$.K &   R.",
"@Xt d $.0.s.a.3.W - O + ! i.i.r.i.i.i.s.f.f.z.Z.z.S.H.S.S.N.n.n.Z.S._.D X       y K.F.F.N.S.N.N.n.b.f.f.d.d.p.i.i.7.7.r.i.d.6.V h z %.e.i.p.$.L &   R.",
"#Xp h 5.d.f.S.w.[ > + + { S.N.f.f.v.b.N.N.S.S.J.J.J.J.G.S.S.S.N.F.F._.D X       y L.F.N.n.n.N.b.b.b.n.b.b.p.b.b.i.i.p.r.i.p.7.V j V 4.t.d.f.%.L =   R.",
"$Xa V w.d.N.G.s.X., + @ | G.G.G.F.J.J.J.J.J.J.J.J.G.J.J.J.J.G.S.F.n.P.D X       y F.n.n.b.p.b.d.d.f.n.n.b.b.b.b.d.d.b.d.d.d.w.V j C 4.r.f.d.%.U &   R.",
"$Xa h w.d.N.S.t.X.> + @ | K.G.S.S.J.J.G.J.S.S.S.F.F.S.S.B.P.[ 1 ; > , &         + , > = 2 X.D.b.f.n.n.n.b.b.b.n.n.b.n.n.b.b.e.A j A t.r.f.N.-.U &   R.",
"$Xa g 4.y.a.f.5.[ > + @ [ Z.S.S.S.S.S.S.N.N.f.b.f.f.b.f.f.P.w                             u _.B.S.S.n.S.n.n.b.S.Z.F.N.N.N.n.r.D A D e.d.b.N.-.! =   R.",
"#Xp h 4.i.f.a.9.] : + + { Z.Z.n.n.S.n.S.f.f.f.d.p.d.a.f.b.P.w                             u .XF.F.F.B.N.n.b.S.S.B.F.B.n.N.n.r.A A D e.d.n.N.%.U &   R.",
"$Xa j e.d.n.n.e.] > + + { S.Z.S.S.S.S.n.n.f.f.f.a.Z.Z.n.Z.P.C +                         + F P.N.N.N.N.b.b.b.b.b.b.n.b.b.d.b.6.A j S w.d.b.b.%.I &   R.",
"$Xg V e.d.Z.Z.0.! : + # ' n.S.n.Z.n.b.a.a.p.p.a.b.b.Z.Z.Z.Z.n.n.b.d.d.b.d.n.n.n.n.b.b.b.b.b.b.b.b.b.b.b.r.r.r.b.b.b.b.r.r.7.%.j j V 9.y.b.f.#.K & . R.",
"$Xg h e.p.b.d.4.! : O + ! b.a.a.d.p.i.p.i.i.8.i.p.a.d.b.n.b.n.d.f.d.b.n.b.n.n.n.b.b.b.p.r.p.p.r.b.8.b.b.r.7.6.7.r.7.7.6.6.1.@.h h z %.w.d.d.#.K &   R.",
"$Xq g @.5.p.i.<.J : O + R p.a.p.8.8.8.8.7.5.6.7.7.8.i.8.p.p.i.p.p.p.p.r.r.b.b.b.r.r.7.7.6.6.7.6.6.7.7.r.6.6.6.6.6.6.2.@.@.@._ f f g ..%.7.7.O.Z $ . T.",
"@X7 p X.1.8.8.<.J - O + J 8.i.8.i.8.7.2.5.2.4.2.1.1.1.2.2.5.8.8.8.7.6.6.6.6.6.6.6.1.6.1.1.@.@.@.@.6.6.6.6.2.6.6.@.2.@.@.@...Q y y t ~ ..6.6.X.H $   R.",
"@X7 0 _ @.5.8.#.b - O + n 8.7.8.8.8.7.7.7.5.2.2.2.<.<.1.2.5.7.7.7.2.6.6.6.1.1.1.@.@.@.@.@.@.@.@.@.6.6.6.6.6.6.6.6.6.@.@.@.@.Q y y t ~ +.4.w.O.H &   T.",
"@X9 p +.5.8.a.$.J ; O + J 8.8.8.8.i.8.i.i.8.i.8.5.7.5.7.8.8.i.p.b.p.r.7.r.8.r.7.r.r.7.6.7.6.6.7.6.6.7.6.7.7.7.6.6.6.7.6.@.@.@.f f f @.w.u.b.%.U =   R.",
"@Xt f 1.7.f.a.4.! > O + P p.8.p.s.p.a.f.f.d.f.p.p.8.s.i.p.d.f.f.b.b.b.b.d.b.p.b.b.b.8.r.r.r.r.r.r.r.b.r.r.r.r.b.b.r.b.b.b.r.@.j j j w.u.n.n.w.U &   R.",
"$Xa j w.d.n.S.e.[ > + @ [ Z.Z.Z.S.z.n.S.Z.S.n.N.n.Z.f.f.n.Z.N.B.Z.n.b.b.b.b.b.d.b.r.r.b.p.d.d.p.b.b.n.n.F.n.F.n.n.B.n.B.B.B.b.v D F u.N.B.F.t.T &   R.",
"$Xg c r.b.S.G.y.{ , + % o.G.G.S.F.S.S.S.F.S.D.S.S.n.S.Z.S.D.S.J.G.F.Z.n.N.n.b.b.b.b.b.b.b.b.b.b.b.b.S.F.F.B.F.F.F.F.F.F.F.F.m.D D F u.N.S.B.4.U & . R.",
"$Xg j u.b.S.J.y.O., + O M.oXXXXX.X]..X.X.X.X].].].].].'.].].XXXXXX.X.X.X.X.X.X.X.X.X.X.X'.'..X.X.X.X.X_..X_._._._._._._._..XB.j j S t.d.f.f.#.K &   R.",
"$Xg A i.f.S.F.e.| > . g y.y.w.q.w.q.w.0.w.q.9.q.9.9.9.9.9.w.t.t.y.t.t.t.t.w.t.t.w.w.,.w.w.w.>.w.w.w.w.w.w.w.-.9.%.%.%.>.%.%.%.X.h A t.d.f.d.#.K $   R.",
"$Xg B w.d.N.v.9.[ & p #.#.O. . . .#.#.#.#.#.#.O.{  . .O.O.#.#.$.%.%.%.%.%.%.%.%.%.%.%.#.#.%.#.%.%.%.-.w.-.4.-.%.%.%.%.%.%.%.%.%.[ A f.B.J.S.9.U = . R.",
"$Xg B y.d.N.S.9.F H e.e.0.0.0.0.0.0.e.i.i.e.0.5.0.5.0.0.w.e.s.s.d.u.u.u.u.d.u.u.r.u.u.y.y.u.r.y.y.u.b.M.M.d.d.l.b.b.u.u.u.u.u.u.u.-.y.B.J.J.-.' $   R.",
"$Xg B y.d.N.S.$.t.P.K.P.P.P.P.P.P.P.K.P.K.P.K.K.K.K.K.K.K.P.).).).L.L.).).L.L.L.L.L.L.L.L.L.L.L.L.L.L.L.L.L.L.L.L.L.L.F.K.K.K.K.K.L.N.u.N.N.%.U =   R.",
"$Xa V e.d.N.N.d.F.S.S.D.H.H.J.J.G.S.Z.Z.S.H.S.F.S.S.S.S.D.F.J.G.J.J.S.S.S.F.B.F.S.F.F.F.B.F.S.S.S.N.N.S.N.N.N.S.S.N.N.N.b.n.B.n.b.S.S.N.N.N.9.U &   R.",
"$Xz V y.z.S.N.z.f.d.d.p.d.v.n.N.f.d.d.d.d.f.z.f.b.f.f.f.f.n.N.N.N.N.N.n.N.n.n.n.n.n.n.n.n.N.N.n.N.n.b.b.b.f.b.b.f.z.b.b.b.b.b.b.d.b.B.N.B.S.t.[ =   R.",
"$Xg h e.d.z.a.s.i.8.5.4.5.5.5.i.e.5.5.0.i.s.d.a.d.d.d.d.s.s.s.i.p.r.p.p.p.p.p.p.d.p.p.p.p.p.p.p.p.e.r.i.e.d.d.r.d.d.d.r.e.r.r.7.e.e.i.d.d.b.w.Y & . R.",
"$Xa B w.0.9.-.#.{ ~ R R R R R R W ~ ~ _  . .$.$.$.$.$.#.#. . . .X.{ ^ { { ^ X.{ ^ { { { { X. .{ { ^  .X.O.{ O.O.O.O.O.O.X.X.^ X.^ ] ~ ~ ^ o.O.H %   T.",
"$Xa B *.[ } Y I K S B B x x B B G K S S K Y Y Y Y Y Y K K K K K K K S S S S F F H F K F F F F K F I K K K I I K I I F K K F H F F C C C S K I K @   R.",
"$Xt =.h.,.q.,.;.;.*.-.| | | | | | | | | | | =.=.:.:.:.-.;.-.:.q.:.:.*.*.*.*.o.*.&.*.*.&.#.*.*.*.=.*.=.;.=.o.=.o.&.*.&.&.o.o.o.o.o.o.o.o.o.*.=.,.D . R.",
"|.$.(.Q.^.Q.W.W.W.x.V.W.^.z.W.W.W.z.z.x.j.x.W.W.W.W.x.x.x.W.W.W.W.x.x.x.j.j.l.l.M.V.V.M.M.V.V.V.C.V.V.V.V.B.m.m.m.u.j.m.m.j.l.j.j.m.m.m.m.m.m.m./.j I."
};
