/* XPM */
static char *i_[] = {
/* columns rows colors chars-per-pixel */
"75 67 170 2",
"   c #000000",
".  c #0E0A07",
"X  c #140F0A",
"o  c #1E150E",
"O  c #20170F",
"+  c #23180F",
"@  c #211710",
"#  c #231911",
"$  c #2A1D14",
"%  c #2E2116",
"&  c #302217",
"*  c #3B2717",
"=  c #33251A",
"-  c #36281C",
";  c #3E2B1C",
":  c #3F2F20",
">  c #412E1E",
",  c #43301F",
"<  c #432F20",
"1  c #453222",
"2  c #493423",
"3  c #4E3825",
"4  c #523A25",
"5  c #533E2B",
"6  c #59422C",
"7  c #5F4630",
"8  c #614227",
"9  c #64462C",
"0  c #744E2D",
"q  c #614631",
"w  c #654933",
"e  c #6C4D35",
"r  c #664C39",
"t  c #724E33",
"y  c #745235",
"u  c #7A5535",
"i  c #765539",
"p  c #79563A",
"a  c #7C5A3D",
"s  c #775B42",
"d  c #7E5D42",
"f  c #7F6042",
"g  c #825732",
"h  c #865A36",
"j  c #835D3D",
"k  c #8A5E3C",
"l  c #86603F",
"z  c #8D613E",
"x  c #92653E",
"c  c #9B663B",
"v  c #9D693E",
"b  c #AA6E3E",
"n  c #825E42",
"m  c #846144",
"M  c #8B6444",
"N  c #8E6847",
"B  c #856449",
"V  c #8A664A",
"C  c #8D694B",
"Z  c #926643",
"A  c #946945",
"S  c #9D6B43",
"D  c #936B4B",
"F  c #9A6D4A",
"G  c #96704F",
"H  c #9D714D",
"J  c #916E51",
"K  c #977252",
"L  c #9A7352",
"P  c #A16D44",
"I  c #AC6F40",
"U  c #A57245",
"Y  c #AD7243",
"T  c #A5734A",
"R  c #AA764B",
"E  c #AC794E",
"W  c #B27646",
"Q  c #B47748",
"!  c #B47A4B",
"~  c #BA7D4D",
"^  c #A27652",
"/  c #A37854",
"(  c #AE7C52",
")  c #A47B5A",
"_  c #A97F5E",
"`  c #B27E54",
"'  c #BC7F50",
"]  c #BB824E",
"[  c #AC815F",
"{  c #B48156",
"}  c #BD8253",
"|  c #BE8853",
" . c #B6835A",
".. c #BA865B",
"X. c #BC895E",
"o. c #AD8462",
"O. c #B28663",
"+. c #B88761",
"@. c #B38966",
"#. c #BD8C64",
"$. c #B48968",
"%. c #BC8E6A",
"&. c #BF916C",
"*. c #C18655",
"=. c #C48A56",
"-. c #C18758",
";. c #C58B5B",
":. c #CA8E5D",
">. c #C7905A",
",. c #CB925D",
"<. c #D0935F",
"1. c #C38D61",
"2. c #C98F61",
"3. c #C08F69",
"4. c #C59165",
"5. c #CD9262",
"6. c #CF9862",
"7. c #C69469",
"8. c #CC966A",
"9. c #CE996A",
"0. c #D19565",
"q. c #D39A66",
"w. c #D39768",
"e. c #D59B6A",
"r. c #D99E6C",
"t. c #C19571",
"y. c #C99770",
"u. c #CD9C74",
"i. c #CF9F78",
"p. c #D19E76",
"a. c #DB9F70",
"s. c #D19F78",
"d. c #D7A06B",
"f. c #DCA16E",
"g. c #D3A075",
"h. c #DEA371",
"j. c #DFA872",
"k. c #D3A27A",
"l. c #D9A57D",
"z. c #E1A573",
"x. c #E4A876",
"c. c #E8A977",
"v. c #E6A978",
"b. c #EBAD7A",
"n. c #EEB17D",
"m. c #F0B17E",
"M. c #8F8B87",
"N. c #8F8A88",
"B. c #908D89",
"V. c #B7A698",
"C. c #B8A79A",
"Z. c #BCAB9D",
"A. c #BEADA0",
"S. c #BDB6B0",
"D. c #DEAA81",
"F. c #E1AC83",
"G. c #F3B582",
"H. c #F4BA87",
"J. c #F6BD8A",
"K. c #F9BF8D",
"L. c #C0AFA2",
"P. c #C3B2A4",
"I. c #CDB5A2",
"U. c #D0B7A5",
"Y. c #D1B9A6",
"T. c #D5BDAA",
"R. c #FAC18F",
"E. c #FBC391",
"W. c #D9C1AE",
"Q. c #EFEAE7",
/* pixels */
"Q.Y.Y.T.T.T.T.U.Y.T.T.T.T.T.T.T.T.W.W.T.T.T.T.T.T.T.T.W.T.T.T.T.T.T.U.U.U.U.U.I.I.I.I.I.I.I.I.I.I.U.U.U.U.U.U.U.T.T.T.T.T.U.T.T.T.T.T.T.T.T.T.T.T.T.S.",
"A.A ( ( ( ( E E R ( ` ` ` 1.+.#.+.+.1.1.+.3.+.` +.` ` ' ` ` ` ` ` ` R R R T P S S S c S S S P P P P P P T R E ( ( ( E ` ` ` ` ` ` ` _ ` _ ` ` ` { 7 B.",
"A.n D 1.2.2.;.-...-.1.;.2.2.8.8.8.0.w.w.w.0.0.8.2.2.8.2.1.1.1.2.1.2.-.-.-.-...' *.' ' ' ~ ' ' ..` ' ' ' } -.-.;.#.;.2.2.-.2.2.3.2.2.5.4.5.2.5.4.r # B.",
"A.B M 8.b.b.c.z.h.h.a.c.c.c.c.c.c.F.G.b.F.b.b.c.v.c.c.v.c.c.c.c.c.F.b.G.G.b.b.F.c.b.F.c.c.c.F.c.F.c.c.D.b.b.b.m.G.F.G.c.G.G.G.G.G.G.H.H.H.H.G.O.- $ B.",
"L.B V 1.a.v.z.a.a.a.a.a.a.a.z.h.z.v.v.c.v.v.v.z.v.a.z.z.z.z.v.z.a.c.z.c.z.c.c.c.c.F.c.c.c.c.c.F.c.c.z.z.z.D.c.F.c.F.c.F.z.D.c.F.b.b.F.b.b.n.8.F - # B.",
"L.B n 1.w.a.a.w.w.w.w.w.r.r.a.a.a.h.a.a.a.a.a.a.v.a.z.z.z.z.a.a.a.a.a.a.a.a.a.w.a.a.a.a.a.a.a.a.z.a.a.a.a.a.h.l.a.a.a.a.a.a.a.a.h.h.z.r.g.d.+.N - # B.",
"A.n n ` 1.w.0.5.:.<.2.2.5.5.0.0.w.e.w.r.a.e.a.a.a.a.a.r.a.a.a.a.a.0.2.2.:.2.;.;.;.;.;.2.2.2.2.5.5.0.w.w.w.w.w.w.w.w.w.w.w.w.w.w.e.e.e.q.q.q.{ M = # N.",
"A.s a E ' 2.;.` ` ! ( ( ` ` ` ` ` +.' +.+.` #.#.#.+.1.+.1.` 1.+.` ! R R T P P P S P S I T Y ^ E ! ` ` ` ' ` ` 1.' ..' ` ` ' -.' .. . .X.,.5.( l & @ N.",
"C.s n R ' -.1.Q Z D D Z D C D D K J L K G L K L L L L K K K L L L L J D V M n M n M n n M M Z D D D C D J J F F F J J J F L L L K K ( ..:.;.E j & o B.",
"Z.n n ` -.2.2.! Z e _ ) ) _ _ _ _ _ _ $.$._ o._ $.$.$.o.$.$.$._ _ _ _ _ _ _ ) ) ^ ^ ) ) ) _ _ _ _ _ _ _ _ _ _ _ _ _ _ _ _ _ $._ o.F ` } =.-.T h % o B.",
"A.n n ' 2.5.5...Z < q t.y.y.u.u.u.u.s.s.s.s.s.D.D.D.u.i.s.s.u.s.D.y.D.D.t.y.y.y.t.%.w.y.y.y.y.y.u.y.y.y.y.u.y.p.D.t.u.u.u.u.D.u./ n { X.:.;.R j & o B.",
"L.B n ..5.w.w.1.F < @ s D.t.D.D.D.s.s.s.D.s.D.s.t.D.D.D.s.D.s.D.D.t.D.D.D.u.D.D.D.D.u.D.s.y.D.s.D.y.y.y.y.u.u.p.u.D.D.t.D.u.D.J m M ..5.5.,.( j & o B.",
"A.n n T ..2.2...S < @ $ V ` 3.3.3.3.+.3.#.#.#.#.$.%.3.%.1.3.3.3._ _ +.+.3.+.+.#._ +.+.+.+.+.+..._ _ #.#.#.3.3.3.3.3.#.3._ %.` V m V X.4.6.6.{ l & o B.",
"C.s g c Q -.-.~ Z ; @ $ M 2.w.w.w.5.5.5.2.0.2.<.2.2.2.0.5.w.5.5.w.2.:.:.:.:.:.:.:.;.*.:.*.-.:.*.*.;.5.5.w.w.w.a.r.w.w.0.w.2.' n f M ;.6.d.q.{ l = o B.",
"V.s t c Q ' ' R Z * @ + n -.2.2.<.:.<.:.2.2.:.:.2.:.2.5.5.5.5.0.w.2.:.2.:.:.-.:.-.-.*.*.:.-.*.*.:.:.2.0.w.w.r.w.r.w.0.0.2.;.` n a a ` | | X.U a % o B.",
"V.t t c Y Q ' I Z * @ + h ' *.-.;.;.:.;.:.:.:.;.:.:.:.:.:.5.5.5.5.w.5.5.2.:.*.*.-.*.*.:.:.:.5.5.5.:.:.2.5.5.0.w.5.0.2.;.*.' T s y y v b W R c 0 $ o B.",
"V.t t S Q ~ ' Q M * @ @ n ~ ' ' *.*.-.-.-.*.*.*.' *.*.*.*.' *.*.*.*.' *.' ' ' *.*.' ' *.*.*.;.*.-.:.-.:.:.:.:.:.:.*.*.' ' ' Y u t y P Y ! W x 0 $ o M.",
"V.s t S Q ' -.E Z ; o @ k ' Q Q Q ' ' ' ' ' ~ ~ ~ Q Q Q Q Q W Y Q I b b W W Q ! ~ ' ' ' ' ' ' ' ' ' ' *.*.*.' ' Q ~ ' ' ' ' R p y u E } } | U u % o M.",
"C.t t I ! ' -.Q Z ; @ $ Z ' ' ' Q Q Q Q Q Q I I I I I I I I I b b b b W W Q ~ ~ ~ ' ' ' ' ~ Q ~ Q ~ Q Q Q Q ~ Q Q Q ' *.*.-.` n d n } ;.5.7.( l % o M.",
"C.s n c ! ' -.` Z ; @ $ Z ' *.*.' Q I I I I W I I I I I I b b b b Q ~ ~ ~ ~ ' ' ' *.*.' ' ' ~ ' ~ Q I I W Q Q Q Q ' ' *.:.0.-.n n N #.8.e.e. .N = + M.",
"Z.s n E ..2.2.' F < @ $ S 5.0.:.:.*.*.' ' *.*.' ' ' *.' *.' *.} *.*.*.;.;.;.:.:.:.-.;.;.-.*.*.' ' ' ' ' *.*.' *.*.*.;.2.0.w.1.V B N ;.w.d.e.X.V = + B.",
"A.n n ` 2.5.w.+.H 1 @ % H a.a.a.w.w.w.0.w.w.r.w.r.w.r.r.e.r.e.e.w.0.T Z w w A S <.<.<.:.2.:.;.;.-.0.0.w.0.w.w.0.0.0.5.0.0.e.2.n m V X.8.e.r...N - + B.",
"L.B V ' 5.w.a.-.^ 1 @ % H a.a.a.a.r.a.a.r.a.a.a.a.a.a.a.a.a.h.8.q X               e 2.w.w.0.0.0.<.w.a.a.a.a.a.a.w.0.w.e.e.a.2.V B V 1.8.e.p.X.N = o B.",
"L.B n ' 5.w.w.+.F 1 @ % F w.w.w.w.5.5.<.<.<.<.0.0.0.w.w.w.e.n .                     o 1.e.e.0.e.r.a.a.a.z.a.a.a.r.w.e.w.e.w.3.V B C ;.q.r.r.X.A = % B.",
"L.n B ` 2.5.5.-.A < @ $ Z 5.0.5.5.5.:.:.:.2.0.0.:.0.:.0.2.0..                         : r.r.a.r.r.a.r.a.a.a.a.a.w.w.w.w.w.w.2.Z B V ..4.e.q. .V = O B.",
"L.B V ` 2.5.5.' Z < @ $ Z :.2.2.:.5.5.5.:.0.0.:.0.0.0.0.0.0.                            F w.e.e.w.w.0.w.w.r.r.w.w.w.5.0.w.w.1.V B M } 1.5.:.! j & O B.",
"L.B n ` -.2.2.` Z ; @ $ Z 2.:.:.:.5.0.5.0.2.0.0.0.0.0.0.0.0.. X ; m ;.0.0.a .           e 5.5.2.<.w.0.w.a.a.r.w.0.0.5.5.5.5...n n M } ;.5.,.( j & O B.",
"L.V n ` 2.5.2.' Z ; @ $ Z :.5.5.5.5.0.0.0.0.2.:.2.:.0.0.0.0.t S 5.2.2.:.:.:.t           2 :.:.:.:.<.w.w.r.a.a.a.0.<.:.5.2.2.' n d m ..5.0.5.` m & O B.",
"A.n n ` -.2.2.' Z < @ $ Z 2.5.5.0.5.0.0.0.0.0.0.0.0.:.0.0.:.:.:.2.:.:.:.;.;.T           2 :.-.-.:.:.:.0.w.w.w.w.5.:.:.:.2.;.' n a n ..1.6.5.( m & O B.",
"Z.n n ` -.2.2.` Z ; @ $ Z -.:.2.:.5.5.:.:.:.0.2.0.:.0.2.:.0.0.<.5.:.:.:.:.:.S           9 -.:.*.*.*.' *.:.:.:.:.:.;.-.-.-.;.' n d n ' ;.;.;.E h & O M.",
"Z.n n ` -.2.0...Z ; @ $ Z 2.2.5.0.0.5.5.0.0.2.0.0.0.0.0.w.w.0.w.0.5.2.5.0.2.p         . c 2.:.:.:.*.*.*.:.:.5.2.:.:.;.:.2.2.' B d m ` ..2.;.E h $ O M.",
"L.n B ` 2.w.w.-.F < @ $ A w.w.w.0.0.0.0.0.0.0.0.0.0.0.0.w.w.w.w.w.0.0.0.0.0.=         o 0.0.0.0.0.:.:.:.0.w.w.w.0.2.2.5.2.w.` B n M } ;.5.,.` l & O B.",
"L.B M ..5.r.e.;.F 1 @ $ S q.e.e.w.0.0.0.<.<.<.<.<.<.<.<.<.<.0.0.w.w.q.q.q.T           i q.q.0.0.0.:.=.;.,.0.q.0.0.5.0.<.0.0.X.m f m { :.>.:.{ l % O B.",
"L.m M ..5.q.q.X.F < @ $ F q.e.e.w.w.<.<.<.<.:.:.:.:.*.:.=.:.:.<.<.r.r.e.0.$         % 6.r.q.0.,.,.*.~ ] *.=.:.,.:.,.,.,.5.,...m a j ! ..:.;.E j & o M.",
"A.n j { ;.5.5.{ Z > O $ Z :.<.<.<.:.:.<.:.:.:.:.*.*.*.*.=.=.:.:.:.<.:.:.4           T ,.5.,.:.:.:.] ] *.=.:.:.>.:.,.,.5.0.<...m d j ! ..:.;.{ j & o B.",
"Z.d p E } *.;.! z > O $ z *.=.*.*.*.*.*.*.:.=.*.*.*.=.*.*.=.:.=.:.' ~ 8           9 =.| -.=.| -.*.-.=.=.,.,.5.,.,.5.5.5.q.0.X.m d l ` ;.;.;.( m & O B.",
"Z.p i U ~ *.*.Y k * O + h ] ] *.' ' ' *.*.*.=.:.:.*.*.*.*.=.;.:.=.=.y           2 ;.:.:.,.>.,.>.=.:.>.5.0.0.0.,.5.,.,.0.q.q.| B f m { ;.5.,.` M & O B.",
"C.i t P Q ~ ! b h > o + g Q ~ Q ~ ~ ~ ' ' *.=.=.*.:.=.:.=.=.=.:.:.Z           3 6.q.r.r.r.r.r.d.q.q.q.q.q.q.q.0.,.,.,.0.0.q.X.B m M | ;.5.5.{ m = O B.",
"Z.p u E } *.-.! k > o + z *.*.} *.*.*.=.:.<.<.<.0.<.0.0.0.0.0.0.S           5 r.f.f.f.h.f.h.f.f.f.d.r.q.q.q.q.0.5.,.,.0.0.q.;.B m m ..1.0.0.{ V = O B.",
"A.m j } ;.q.q.*.P > + $ A ,.0.0.<.<.<.r.r.r.a.z.z.z.z.c.h.z.h. .X         : h.x.x.j.x.x.j.h.h.h.f.f.r.r.q.r.q.0.0.,.,.,.5.q.X.B m M ..5.0.0.{ M = O B.",
"A.B V ..0.r.r.4.^ 1 # % H f.f.f.f.z.f.f.z.z.x.c.c.c.c.c.j.c.#..         : j.v.j.x.j.j.h.f.f.f.f.f.f.d.r.d.q.q.q.q.q.q.q.0.q.;.B B N ..6.q.9...N - # B.",
"P.C V #.q.z.z.6./ 1 # % / z.x.z.c.c.c.c.c.c.c.c.c.c.c.c.c.f.o         : d.x.j.j.j.h.a.a.r.r.r.q.q.r.f.f.d.r.d.d.r.q.q.r.q.q.#.C B N X.6.q.r...N - # B.",
"P.B V ;.w.h.h.4.^ 2 # % L z.v.c.c.c.c.c.c.z.z.z.z.c.z.c.j.A                               m d.d.r.f.f.f.f.f.d.f.d.d.f.f.d.r.4.C B D 1.q.e.r.X.D - # B.",
"P.B B ..5.r.r.;.H 1 # % H f.h.z.f.z.z.z.h.h.r.r.r.r.r.r.d.y                               6 x.j.j.h.z.h.f.f.j.f.x.z.z.f.f.f.7.C B D 4.9.g.r.X.C - # B.",
"A.B V ..5.r.e.;.H 1 + % b f.z.f.f.z.z.z.f.r.r.r.q.r.r.r.r.m                               6 j.x.v.j.h.h.j.d.j.j.j.j.j.j.f.f.4.C C D 4.e.d.d.X.N - # B.",
"P.C N 1.q.r.f.2.H 1 # % R f.f.f.z.z.z.f.f.r.r.r.r.f.f.f.j.;.o                             C j.j.j.j.j.f.d.d.d.d.j.j.d.d.d.q.>.C B N #.q.d.d...N - # B.",
"P.C C ;.q.r.r.1.H , # $ U r.f.f.f.f.f.r.r.d.e.r.r.f.f.z.z.f.f.f.f.r.q.d.d.f.f.f.h.f.d.d.d.d.d.d.f.d.d.d.d.6.,.d.q.q.d.6.6.6. .B B N X.6.e.9. .N = # B.",
"P.C V ;.q.r.q.X.S 1 # $ S q.r.r.r.q.q.q.<.<.<.<.r.<.r.r.r.r.f.f.r.r.d.d.f.f.j.f.f.d.d.6.q.6.q.q.6.q.d.6.6.,.,.,.6.,.,.,.>.| ] f f V ..4.9.9.[ f = # B.",
"P.B m { :.<.<...Z , O $ x <.q.q.q.<.<.:.<.:.<.<.<.<.<.<.<.<.r.<.6.q.q.q.d.d.6.d.6.6.6.,.>.>.,.>.,.,.6.,.,.>.>.>.>.>.>.| | | ] i a f ] | ,.4.{ l % # B.",
"A.a a E *.,.<.] x > O $ x ,.<.q.q.<.<.:.:.=.=.=.*.*.=.=.>.<.<.<.<.<.>.>.>.>.>.>.>.>.| >.=.=.| | | >.,.,.>.>.>.>.>.>.| | | ] b y y u U { | >.E l = o B.",
"Z.a u W *.:.,.{ x ; o + x >.,.<.<.<.<.<.<.<.=.=.*.*.=.=.=.>.<.<.<.>.>.>.>.=.>.=.| >.| | | | | | | | >.>.>.>.>.>.| >.| | ] ] { e y i U { >.;.{ m = o B.",
"Z.a a { =.q.<.} S , O $ x :.<.<.<.<.<.<.<.<.<.<.<.<.=.<.<.<.<.<.q.q.<.6.6.,.<.<.6.6.,.,.,.,.,.>.6.>.,.,.,.,.,.,.,.,.,.,.| | ] a i l | 4.9.9. .V = # B.",
"A.m l { ,.q.e.;.F > # $ Z <.0.q.e.q.r.r.r.r.r.e.<.<.<.<.r.r.r.r.f.f.q.q.d.d.q.q.6.6.6.d.q.6.6.6.6.6.6.q.q.6.q.q.d.6.d.d.6.6.X.f f V 4.e.f.p.#.D - % B.",
"P.V V ..q.j.h.1.T 1 # % T r.r.h.h.h.f.z.f.h.h.r.f.z.f.f.f.f.z.j.j.f.f.f.d.d.d.r.d.d.6.d.q.q.q.r.6.j.f.f.j.j.j.h.j.j.j.j.j.j.#.[ C G 8.e.z.j.1.D - O B.",
"P.C C 4.e.z.z.8./ 2 # & ^ z.c.x.c.z.z.c.c.z.x.z.c.j.z.j.z.z.c.c.c.j.f.f.f.f.f.d.d.d.d.d.r.d.d.d.d.j.j.j.x.x.j.x.j.j.j.j.j.j.7.J C K 8.s.j.h.X.D = # B.",
"P.C C 7.r.z.z.8./ 2 # % 3.R.E.R.R.K.K.R.R.K.E.R.m.R.m.R.K.R.R.R.E.R.R.R.R.R.R.R.R.R.R.R.R.J.J.J.R.R.R.H.H.J.J.H.H.R.n.R.R.R.d.C B D 4.e.e.w.{ M & O B.",
"P.C C 3.e.z.z.4.^ 2 # q  .4.4.4.8.1.2.3.2.3.4.1.3.1.1.1.3.4.4.8.6.9.7.7.7.7.7.7.7.7.7.7.4.4.7.7.7.4.4.4.4.4.#.4.X.X.X.X.X.X.#.H B D 4.9.d.e.` M - O B.",
"P.C N 1.w.r.r.1.H 1 e {  .{ { { ` `  . . . . .` ` ` ` ` {  ...+.X.X.X.X.X.X.X.X.+..... .X. ... . .#.#.%.#.1.X.#.X.X.X.X.X.@.X.X./ G 9.j.j.j.#.D - # B.",
"P.C C 1.q.a.r.1.H D 5.5.5.2.4.2.5.5.0.5.0.0.5.2.:.1.2.2.5.6.0.q.d.9.e.9.e.9.d.9.w.9.9.8.8.6.9.8.6.e.g.d.d.d.e.e.d.9.9.9.d.9.9.d.9.#.9.l.x.j.#.D - O B.",
"P.J C 1.e.h.a.2.4.n.b.b.b.m.m.m.m.m.b.b.b.b.b.b.b.b.b.b.b.G.G.G.G.n.n.n.n.n.n.n.n.n.n.n.n.n.n.n.n.n.n.n.n.n.n.b.n.b.n.n.b.x.n.v.v.n.h.e.h.p.X.N - O B.",
"P.C C 3.r.a.h.r.z.z.z.z.x.c.c.c.c.z.z.z.z.z.z.z.z.z.z.z.x.c.c.c.v.x.x.x.x.x.x.x.j.x.j.j.x.j.x.x.x.h.h.x.h.h.j.j.h.h.h.h.j.d.f.j.f.h.x.h.d.d.| f - O B.",
"P.C C 3.r.a.h.a.r.r.r.e.r.r.f.f.r.r.q.r.r.r.r.a.r.r.r.r.f.f.f.h.h.h.h.h.f.f.f.f.h.h.h.h.h.f.f.h.h.d.r.r.r.r.r.r.d.r.f.d.d.d.q.d.d.d.h.h.j.j.&.[ - # B.",
"P.V V 1.r.a.r.r.0.<.:.:.:.:.<.5.5.:.:.5.0.w.e.r.e.r.r.q.w.0.q.5.q.q.6.6.8.6.q.q.q.q.q.q.q.q.q.q.q.6.5.6.6.8.q.q.q.e.6.9.6.,.6.5.>.8.6.6.d.d.X.D - # B.",
"P.V V 1.1.1. .` ` E I P P P P P T T W ` ` ' ............{ { ` { { ( E E { { E { ( ( ( ( ( ( ( ( ( ( ( { { { { { { { { { { { { E { E E H { [ { f - # B.",
"P.V M _ ) L L L D Z n n Z n Z Z n D A C F F L L L L L L J L J F C J D F D C D D Z C C N D A C C D D G N G D D D G G D D D C N N N N l N N C G f & O B.",
"P.B o.t.t.7.%.%.$.$.+._ _ ` _ _ _ ` _ _ _ _ _ 3.%.3.3._ _ 3._ 3.3._ _ _ _ _ +._ O.O.O.O.O.O.O.O.O.O.@.@.@.@.O.O.o.[ [ [ [ [ [ [ [ [ [ o.@.o.@.@.s O B.",
"P.$.F.F.D.D.D.D.D.s.s.D.F.D.s.s.s.D.a.s.s.a.s.D.D.D.D.u.D.D.F.F.D.D.s.y.s.s.s.s.k.l.s.s.s.g.k.l.l.l.k.k.k.k.k.g.i.i.u.d.g.i.u.u.g.g.i.i.g.k.k.k.k.f B."
};
