/* XPM */
static char *i_[] = {
/* columns rows colors chars-per-pixel */
"75 67 167 2",
"   c #000000",
".  c #0C0906",
"X  c #140E09",
"o  c #15100B",
"O  c #1E150E",
"+  c #20170F",
"@  c #23180F",
"#  c #211710",
"$  c #231911",
"%  c #2A1D14",
"&  c #2E2116",
"*  c #302216",
"=  c #3B2717",
"-  c #34251A",
";  c #382719",
":  c #36281C",
">  c #3D2B1C",
",  c #412E1E",
"<  c #43301F",
"1  c #432F20",
"2  c #453222",
"3  c #493525",
"4  c #523B27",
"5  c #513C28",
"6  c #59412C",
"7  c #5E4630",
"8  c #744E2D",
"9  c #644933",
"0  c #6A4D35",
"q  c #664C39",
"w  c #734E32",
"e  c #6D5136",
"r  c #745236",
"t  c #7A5535",
"y  c #76553A",
"u  c #7A563A",
"i  c #7C5A3D",
"p  c #775B42",
"a  c #7E5D42",
"s  c #7F6042",
"d  c #825732",
"f  c #855A37",
"g  c #835D3D",
"h  c #8A5E3C",
"j  c #86603F",
"k  c #92653E",
"l  c #9B663B",
"z  c #9D693E",
"x  c #AA6E3E",
"c  c #825E42",
"v  c #846144",
"b  c #8B6444",
"n  c #8E6847",
"m  c #856449",
"M  c #8A664A",
"N  c #8D694B",
"B  c #926643",
"V  c #946945",
"C  c #9C6B44",
"Z  c #936B4B",
"A  c #9A6D4A",
"S  c #96704F",
"D  c #9D714D",
"F  c #916E51",
"G  c #977252",
"H  c #9A7352",
"J  c #A16D44",
"K  c #AC6F40",
"L  c #A57245",
"P  c #AD7243",
"I  c #A5734A",
"U  c #AA764B",
"Y  c #AC794D",
"T  c #B27646",
"R  c #B47748",
"E  c #B47A4B",
"W  c #BA7D4E",
"Q  c #A27652",
"!  c #A47954",
"~  c #AE7C52",
"^  c #A47B5A",
"/  c #A97F5E",
"(  c #B27E54",
")  c #BC7F50",
"_  c #BB824E",
"`  c #AC815F",
"'  c #B48156",
"]  c #BD8253",
"[  c #BE8853",
"{  c #B6835A",
"}  c #BA865B",
"|  c #B7885E",
" . c #BC895E",
".. c #AD8462",
"X. c #B28663",
"o. c #B88761",
"O. c #B38966",
"+. c #BD8C64",
"@. c #B48968",
"#. c #BC8E6A",
"$. c #BF916C",
"%. c #C18655",
"&. c #C48A56",
"*. c #C18758",
"=. c #C58B5B",
"-. c #CA8E5D",
";. c #C7905A",
":. c #CB925D",
">. c #D0935F",
",. c #C38D61",
"<. c #C98F61",
"1. c #C08F69",
"2. c #C59165",
"3. c #CD9262",
"4. c #CF9862",
"5. c #C69469",
"6. c #CC966A",
"7. c #CE996A",
"8. c #D19565",
"9. c #D39A66",
"0. c #D39768",
"q. c #D59A6A",
"w. c #D99E6C",
"e. c #C19571",
"r. c #C99770",
"t. c #CD9C74",
"y. c #CF9F78",
"u. c #D19E76",
"i. c #DB9F70",
"p. c #D19F78",
"a. c #D6A06B",
"s. c #DCA16E",
"d. c #D3A075",
"f. c #DEA271",
"g. c #DFA872",
"h. c #D3A27A",
"j. c #D9A57D",
"k. c #E1A573",
"l. c #E4A976",
"z. c #E8A977",
"x. c #E6A978",
"c. c #EBAD7A",
"v. c #EEB17D",
"b. c #F0B17E",
"n. c #8F8B87",
"m. c #8F8A88",
"M. c #908D89",
"N. c #B8A79A",
"B. c #BCAB9D",
"V. c #BEADA0",
"C. c #BDB6B0",
"Z. c #DEAA81",
"A. c #E1AC83",
"S. c #F3B582",
"D. c #F4BA87",
"F. c #F6BD8A",
"G. c #F9BF8D",
"H. c #C0AFA2",
"J. c #C3B2A4",
"K. c #CDB5A2",
"L. c #D0B7A5",
"P. c #D1B9A6",
"I. c #D5BDAA",
"U. c #FAC18F",
"Y. c #FBC391",
"T. c #D9C1AE",
"R. c #EFEAE7",
/* pixels */
"R.P.P.I.P.I.P.P.I.P.I.I.I.I.I.I.I.T.T.I.T.I.T.T.T.I.I.I.I.I.I.I.T.I.L.L.L.L.L.K.K.K.K.K.K.K.K.K.L.L.L.L.L.L.L.L.I.I.L.I.I.I.I.I.I.I.I.I.I.I.I.I.I.I.C.",
"V.V ~ ~ ~ ~ ~ Y Y ~ ( ( ) o.o.1.( ,.1.1.( ,./ ( } ) / ( ( ( ( ( ( ( U U U I J C C z l C C l J J J J C J I U Y ~ ~ ~ ~ R ( ( ( ( ( ( / ( ( / ( ( ( 7 m.",
"V.c Z ,.<.<.<.*.*.,.*.,.<.2.3.2.6.6.6.6.t.3.6.8.<.-.8.<.*.<.,.,.,.<.*.*.*.) *.) ) ) ) ) ) ) *.] } ) ) ( ] } *.*.,.=.<.-.*.<.1.<.<.3.2.<.6.3.2.6.q $ M.",
"H.m b 6.c.z.z.k.i.i.k.k.z.z.c.z.z.z.S.S.S.c.z.z.c.z.A.z.z.z.z.x.Z.z.S.z.S.A.S.A.A.z.S.c.Z.z.z.z.z.z.z.A.z.z.S.S.A.S.S.A.A.S.S.S.S.S.D.D.S.S.D.{ : % M.",
"V.m N ,.i.k.k.i.i.i.i.i.i.i.k.i.k.z.z.z.z.z.z.k.k.k.k.k.k.x.x.k.z.z.z.z.z.z.z.A.A.z.z.z.z.z.Z.z.z.z.k.k.x.x.A.c.z.A.z.Z.A.z.z.z.x.A.v.c.v.c.7.S : $ M.",
"H.m c ,.0.i.i.q.0.8.0.0.i.w.i.i.i.i.i.i.i.f.i.f.k.k.k.i.k.i.i.k.i.i.0.i.0.i.i.i.i.i.i.i.i.i.i.i.i.i.i.i.i.i.i.k.k.i.i.i.i.i.i.i.k.f.k.w.d.w.| n : $ M.",
"V.c c ( <.0.3.3.-.-.<.<.<.8.8.8.0.q.w.i.w.w.i.i.i.i.i.i.i.i.i.i.0.0.<.<.-.-.%.%.*.%.-.<.<.-.<.0.8.3.0.0.0.0.i.t.8.8.i.0.0.0.0.0.q.q.q.9.9.9.' b : $ m.",
"V.p i Y ) <.=.( ( ( ~ ( ( ( ( ) o.( ( ( o.( o.o.o.+.*.,.+.o.o.*.) ( U I I I J K J C J J I P U ~ ~ ( ( ( ( ( ( ) } ] ( ( ( ) ) *.' { | =.:.-.~ j & # m.",
"N.p c ~ %.*.*.~ B Z M B Z N Z Z F G G G G G F H H H H G H G H H H H F M M b c b c c c B b b M Z Z Z B Z F F Z F A A F F Z H H H G S ~ } -.=.Y g - O M.",
"B.a c ( *.<.<.( B w / ^ / / / / / / / @.@./ @.@.@.@.@...@.@.@./ / / / / / ^ ^ ^ ^ Q ^ ^ ^ ^ / / / / / / / / / / / / / / / / / / @.Z ( ] =.%.I f & O M.",
"V.c c ) *.8.0.) B 1 9 e.r.r.r.p.r.t.p.p.p.t.y.t.Z.Z.t.y.p.p.t.t.Z.r.Z.Z.r.r.r.r.r.1.r.r.r.r.t.r.p.r.r.r.t.t.r.t.Z.r.Z.e.t.t.Z.Z.H v ' =.-.*.Y g & O M.",
"H.c c } 3.0.0.1.A 1 # p Z.e.Z.Z.Z.p.Z.p.Z.Z.Z.y.e.Z.Z.Z.p.Z.Z.p.Z.e.Z.Z.Z.t.Z.Z.Z.Z.p.t.t.e.Z.Z.p.r.r.r.t.r.p.p.Z.e.e.Z.Z.e.Z.F v b } ;.3.:.~ g - O M.",
"H.c c U } <.3.) C 1 # % c / 1.r.1.1.,.o.+.+.+.+.@.#.1.#.1.1.o.1./ / o.o.1.o.o.+./ o.o.o.} } } ( / ( 1./ +.,.1.,.1.,.1.1./ / +.c s b  .6.4.4.' j * O M.",
"N.p w z E ) *.) B , # % B <.8.0.8.3.<.3.<.3.3.3.2.<.3.3.3.8.8.8.0.<.-.-.-.<.-.-.-.*.-.-.*.*.-.%.*.<.0.0.0.0.0.i.i.i.8.0.0.3.*.c v b =.7.q.9.` k - O M.",
"N.u w z R W ) R B = # @ c %.<.-.3.-.-.-.<.<.-.-.-.-.<.3.3.8.3.8.8.<.<.<.-.-.*.-.*.%.-.%.*.*.-.%.-.-.-.0.0.8.0.0.0.0.0.-.<.*.) c i i ' [ &. .L t & O M.",
"N.w w l P R ) T c = @ @ f ) %.%.=.-.-.-.-.-.-.=.-.-.-.-.-.3.3.8.8.8.3.3.-.-.%.%.*.%.*.%.<.-.-.3.3.-.-.-.3.0.0.0.0.3.3.*.%.) I p r 8 z L T P k 8 % O M.",
"N.w w C R W ) U c > O @ h W ) ) ) %.%.%.*.%.%.%.) %.%.%.%.%.] %.%.%.) %.%.) ) %.) %.%.%.%.%.%.-.*.-.*.-.-.-.-.-.-.%.%.%.) ) K u w t J P E Y z 8 & o n.",
"N.p w J R ) *.E B > O @ c ) W R W ) ) ) ) ) W ) W R R R R R R K T K x x x T R R W W ) ) ) ) W ) ) ) ) %.%.) ) ) ) R W W ) ) U u r t U ] ] ] C t & O n.",
"N.p w J E ) %.E B > # $ h ) ) W R R R R T R K T K K K K K K x x x x x T R R W W ) ) ) ) ) W W R R R R R R W R R R R ) %.%.=.( c a c ' ,.3.4.~ j & O M.",
"N.u w K E ) *.( B 1 # % B %.%.%.) T K K K K K K x K K K x x x x x T W W W ) ) ) ) %.) %.) W W R W R K T T R R R R W ) *.-.3.*.c v M =.6.a.q.{ b - @ M.",
"N.a c ~ } *.3.) A 1 # & C 8.8.3.-.%.) %.%.%.) %.%.) %.%.] %.] ] %.%.%.=.=.=.=.-.-.*.-.%.*.*.%.%.) ) ) ) %.%.%.%.%.%.-.3.3.0.,.N m M =.9.f.q.} Z ; @ M.",
"V.c c ) <.3.0.,.D 2 # & Q 0.i.0.0.0.0.0.0.0.0.0.0.w.w.0.w.0.i.w.q.8.3.3.} ~ 3.3.3.3.3.-.-.-.-.*.%.8.8.8.0.0.8.>.3.3.8.0.0.q.<.c m M =.5.q.q.} n : O M.",
"H.c c o.3.0.i.+.D 3 % % Q i.i.i.i.w.0.i.i.i.i.i.i.i.i.i.i.i.f.f.! 6 O         # 4 *.8.8.8.8.3.8.8.0.i.i.f.f.i.i.0.8.0.0.0.i.1.c m b =.6.q.a.o.V : @ M.",
"H.m c ) <.0.0.} A 1 # % A 0.0.0.8.8.8.>.-.>.8.8.8.8.8.0.8.0.( -                     9 w.0.w.q.0.w.i.i.i.f.f.i.i.0.w.0.0.w.0.<.N m M ,.9.w.u.| V - $ M.",
"H.m c ( <.3.3.} A 1 # % B 3.0.3.8.-.-.-.-.3.3.3.3.3.3.8.8.<.#                         c w.w.i.w.w.i.0.i.i.i.i.i.0.0.8.0.0.i.=.M v M =.4.q.6.} b - # M.",
"H.m m ( <.3.3.) B , # % B -.<.3.-.8.3.8.-.-.3.3.8.8.8.3.8.8.. .     . - %             . 6.q.q.0.w.0.0.0.w.i.0.0.0.8.8.8.8.0.<.c m b ' =.3.<.Y g - O M.",
"H.m c ( *.3.<.( B , # % B -.-.-.-.3.8.8.3.8.8.8.8.8.8.8.8.<.X X 4 I 8.8.3.] &           U 3.3.3.>.8.8.0.w.w.i.0.0.0.3.8.3.8.} c c b ' =.3.<.Y g * O M.",
"H.m m ) <.<.3.( B , O % B 3.3.-.3.3.8.3.8.8.3.3.-.8.8.3.8.<.c ) <.>.<.-.<.=.(           g =.<.-.-.>.0.0.w.i.i.i.0.-.-.-.<.3.) c i b } 3.9.3.( b * # M.",
"V.c c ( *.<.<.) B , # % B <.3.3.3.3.8.8.8.<.3.8.8.-.8.8.-.-.8.-.3.-.-.=.=.=.=.X         c %.-.*.%.-.>.8.0.0.0.0.3.-.-.-.<.*.W c a h } 2.3.3.( g * @ n.",
"H.p c ( *.<.,.) B > # # B *.-.-.-.3.>.<.8.<.3.3.-.8.-.8.8.8.-.>.-.3.<.-.-.-.=.          C -.%.*.%.%.%.%.-.-.>.-.*.-.%.%.*.<.( c i c ' *.:.=.Y g & + M.",
"B.c c ( *.3.<.) B 1 # % B <.<.3.8.8.>.>.3.3.3.8.0.8.-.8.8.8.8.0.8.3.<.3.>.3.w       . X *.-.-.-.-.%.%.%.%.3.3.<.-.-.*.-.-.-.} c a c ' *.=.=.Y g & O n.",
"H.c m ( 3.0.0.,.A 1 # % V 0.0.0.8.8.8.8.8.8.8.8.0.0.0.0.0.0.0.0.0.8.8.8.=.9 .         B 8.0.8.8.>.-.-.-.8.0.0.0.8.3.3.3.3.8.+.c v b ] =.2.:.( g * + M.",
"H.m b  .9.w.0.=.C 2 @ % C 8.w.9.0.0.8.8.8.8.>.>.8.>.>.>.8.8.9.<., ; - #             v 9.9.0.8.8.8.=.&.-.:.8.9.9.8.3.3.>.8.8. .v v v ' =.2.:.~ j * + M.",
"H.v b } <.q.0. .A , # % A q.q.9.0.0.>.>.>.>.-.-.-.%.-.&.&.-.=.C                 2 =.q.q.0.9.8.:.:.%.W _ %.=.-.-.-.-.:.:.3.:.] v i g E ] =.=.~ g * O n.",
"V.c g ( =.:.:.' V 1 + % B 3.>.>.>.>.-.-.-.-.-.&.%.%.%.%.%.=.-.C                   . 5 *.8.:.;.-.-._ _ %.&.-.;.-.-.:.:.8.8.3.} v i j ( ] =.=.~ g * + M.",
"B.a u U %.%.%.E h > + % h %.&.&.%.%.%.-.%.%.-.&.&.%.%.&.%.&.&.) ; * * .               O Y &.&.%.%.%.&.&.:.:.:.:.:.:.3.8.9.8. .m i j ' =.:.-.' j * + n.",
"N.u u L W %.%.U h = + @ f _ %.%.) ) ) %.&.&.&.&.&.%.&.%.%.&.=.-.&.%.] _ _ f %           ; :.;.;.&.;.:.:.>.8.8.:.3.:.:.9.9.9. .v a v ' =.3.<.( j * + n.",
"N.y w J R W W K f , + @ d R T R R W W ) ) ) &.&.-.%.&.-.&.&.&.-.-.-.:.:.:.3.-.&           ~ w.a.q.9.9.9.9.9.9.8.:.:.:.3.8.9.*.m v b ' -.3.4.' b - # M.",
"B.u u U ] %.&.E h , + @ h %.%.%.%.%.%.&.-.>.>.>.8.8.8.8.8.>.8.8.8.9.a.w.w.a.w.Z           a s.s.s.w.q.q.9.9.9.8.3.:.:.8.3.9.=.m v b } ,.9.3.{ b - # M.",
"V.v g ] =.9.9.%.C , + % V :.8.9.>.>.>.w.w.w.f.f.k.k.k.z.f.k.k.s.k.k.l.l.l.l.l.|           y k.s.s.s.a.w.w.9.0.9.8.:.:.:.9.9. .m v b } <.8.9.{ b - # M.",
"J.m b | 9.w.w.2.H 3 @ & H s.s.w.k.s.s.f.f.k.z.z.z.z.z.z.z.g.l.k.k.l.l.z.x.x.g.H           S s.s.s.s.a.w.a.9.a.>.9.9.9.8.9.9. .b m b  .4.9.9.| b : $ M.",
"J.m M =.0.k.k.6.! 3 $ & Q k.l.l.z.z.z.z.z.z.z.z.z.z.z.z.z.' 7 +.l.k.k.g.k.g.q.$           4.q.q.9.w.s.a.a.a.a.a.q.q.a.q.9.q.;.M m b  .4.q.q.} n : $ M.",
"J.N M  .9.k.s.5.Q 2 $ & H k.l.l.z.z.z.z.z.z.k.k.k.k.z.z.k.y     & r D ! ! 0 o           & s.a.a.w.s.s.s.s.s.s.s.a.s.s.s.a.q.2.N m S ,.9.u.q.+.V : $ M.",
"J.m v } 3.q.w.=.D 2 $ & D s.k.f.s.k.z.f.s.w.w.w.w.w.w.w.a.r                           + 6.k.k.k.k.k.k.k.s.s.s.g.k.k.k.s.f.s.5.N m Z 2.7.w.q.+.Z : $ M.",
"V.m b } 8.q.q.=.D 2 # & x s.w.s.s.k.k.s.w.w.w.w.9.w.w.w.w.V   .                     o | g.g.g.g.z.g.k.s.a.g.s.g.g.g.g.g.s.s.2.N N Z 2.a.a.a. .Z : $ M.",
"J.N N ,.0.w.w.2.I 2 $ & L s.k.k.k.k.k.s.f.w.w.w.s.s.w.w.f.s.i @                 o s a.g.s.s.g.g.g.g.g.a.a.a.a.a.a.g.s.a.a.q. .N m Z +.4.a.a.| b - $ M.",
"J.F N ;.9.s.w.-.D < @ % I w.s.k.k.s.s.s.w.w.9.w.s.s.s.s.k.s.s.s.! g 0 4 2 e v ` a.a.s.a.a.a.a.a.a.a.a.a.a.4.4.a.a.4.a.4.4.:.[ m m b +.4.q.q.{ b : $ M.",
"V.N N *.8.w.q.*.C < $ % A 9.9.s.s.>.9.>.>.9.>.>.>.w.w.w.s.s.s.s.a.a.a.s.s.s.s.s.s.a.a.4.4.4.9.a.9.a.a.>.4.:.;.:.4.>.:.;.;.;.' s s b } 2.4.6.` s - $ M.",
"J.m v ' ;.8.>.] V , @ % k 3.9.9.9.>.>.>.-.-.>.>.>.>.>.>.>.9.9.>.>.9.9.9.9.a.4.a.4.4.4.:.:.;.;.;.;.>.4.:.:.;.;.;.;.;.;.[ [ _ _ y y j '  .;.:.' j & O M.",
"V.i i Y %.:.>._ k , @ @ k :.>.8.9.>.>.-.-.&.&.&.&.&.&.&.&.>.>.>.>.:.;.;.;.;.;.;.;.[ ;.[ [ [ &.[ &.;.:.;.;.;.;.;.;.;.;.[ [ _ L e r t L _  .;.~ j & $ M.",
"B.i t T ] :.;.] B > @ % k ;.:.>.>.>.>.>.-.>.&.&.%.%.&.&.;.;.>.>.>.:.;.;.;.;.;.;.;.[ ;.[ [ [ [ [ [ ;.;.;.;.;.;.;.[ [ ;.[ _ _ L t e t I ] ;.;.' v - $ M.",
"B.i i ' &.8.9.] C , O % k :.>.>.>.>.>.>.>.>.>.>.>.&.>.>.>.>.>.>.9.4.4.4.>.>.>.>.4.4.:.:.:.:.:.:.;.:.:.;.:.:.:.:.:.4.;.;.[ [ _ s i s ] 2.4.7.{ M - $ M.",
"V.v v ' :.q.q.&.D 2 # $ B >.8.8.9.w.w.w.w.w.w.9.>.>.>.>.w.w.a.s.s.s.9.s.a.9.a.>.4.a.4.4.9.4.4.4.4.4.9.4.9.9.a.>.a.a.4.a.a.4.[ s s b +.q.s.d.+.Z : $ M.",
"J.M b  .q.s.s.2.D 3 $ & D w.f.s.f.f.s.s.s.f.k.f.s.k.s.s.s.s.s.k.g.s.9.s.a.s.a.w.a.a.a.a.9.9.q.q.a.a.s.s.g.g.g.g.g.g.g.g.g.g.4.F N S 7.a.l.f.,.Z : $ M.",
"J.N N 2.q.k.k.6.! 3 $ * ! k.z.l.z.k.k.z.k.z.k.k.k.k.k.g.k.k.z.z.z.g.g.s.s.s.s.a.a.a.a.a.a.s.q.s.a.s.g.g.g.z.l.l.g.g.g.g.g.g.7.F N G 7.d.f.f.| Z : $ M.",
"J.N N 2.s.f.k.6.Q 3 $ & ,.U.U.U.U.U.G.G.U.G.U.U.b.U.b.U.U.U.U.U.Y.U.U.U.U.U.U.U.U.D.U.U.F.F.U.F.U.U.D.U.U.b.U.b.U.D.v.U.U.U.d.N m Z 2.7.q.q.' b - O M.",
"J.N N ,.w.i.k.6.Q 2 $ 7 } 2.2.2.<.1.1.1.,.2.2.1.1.,.,.,.,.1.5.5.4.6.5.5.5.5.5.5.5.5.5.2.2.2.2.2.2.2.2.2.2.2.+.=. . .+. . . .+.D m Z 2.q.q.q.' b - $ M.",
"J.N N ,.0.w.w.<.D 2 0 ' ' ' ' ( ( } ] } ' } ' ' ( ( ( ( ' | } }  . . . . . . . .| | } | | } | } | +.+.2.+.+.+.+. . . .| +. . . .! S 7.g.j.g. .Z - $ M.",
"J.F n ,.0.w.w.=.D V 3.3.3.<.<.3.>.<.8.8.3.3.<.<.<.-.-.<.3.6.0.9.q.q.7.7.7.a.a.4.9.6.7.6.6.4.6.4.4.q.a.d.a.a.q.q.a.a.7.7.7.a.a.7.7.+.7.f.l.f.,.Z : $ M.",
"J.N Z 1.0.f.w.1.5.v.c.v.v.v.c.S.b.c.v.c.v.v.c.c.z.c.z.v.v.b.b.S.S.b.v.b.v.v.b.v.v.v.v.v.b.v.b.v.v.v.v.v.v.v.v.v.c.c.c.c.c.l.c.c.x.v.f.u.f.d.| Z - $ M.",
"J.F N #.q.k.i.w.k.k.k.k.k.z.z.z.z.k.k.f.k.k.k.k.z.k.k.k.z.z.z.z.x.l.l.g.g.g.x.l.g.k.l.g.g.l.l.k.g.g.k.f.k.k.k.k.s.k.f.s.s.s.g.s.s.f.l.f.a.a.[ s - $ M.",
"J.N N ,.q.k.k.w.w.w.w.q.w.w.w.f.w.q.q.w.w.s.i.i.w.w.w.w.f.w.w.k.f.f.f.f.f.f.f.s.f.f.f.f.f.s.f.f.f.a.q.w.a.q.q.a.s.a.s.a.a.a.a.a.a.a.f.g.g.g.$.` : $ M.",
"J.N M ,.q.i.w.q.8.>.-.-.-.-.3.8.<.>.-.-.8.0.q.q.w.q.q.9.0.0.9.9.9.9.4.9.9.4.4.q.9.9.9.9.9.9.9.9.9.9.9.4.8.9.9.9.9.9.7.4.4.>.:.3.:.4.4.9.a.a. .Z : $ M.",
"J.M M +.,.,. .( ( Y J J J C K J I I E ( ( ) } }  .o.} ] ( ( ( ( ( ~ ~ ~ ' ~ ~ ~ ~ ~ ~ ~ ~ ~ ~ ~ ~ ~ ~ ( ( ` ' ' ' ' ' ' ' ' Y ' Y Y ! D ' ' ` s - $ M.",
"J.m M / ! H H H Z M b B c B B c B B B Z F D D H H H H H Z H H A H A N H Z M Z Z Z Z Z N n Z n n Z Z S Z S S Z Z S S Z Z Z Z n n n n n n n N S s & $ M.",
"J.M ..e.e.5.#.#.@./ / / / / ( / / / / / ( / / 1.#.#.#./ / 1.e./ / / / / / / o./ / o.o./ X.X.X.X.O.O.O.O.X.X.X.X.` ` ` ` ` ` ` ` ` ` ........O.O.p $ M.",
"J.@.A.A.Z.Z.Z.Z.p.Z.Z.Z.j.j.j.j.p.j.p.p.i.p.j.Z.Z.Z.Z.p.t.Z.Z.Z.Z.Z.Z.t.p.p.p.p.h.j.p.p.p.h.h.j.j.h.h.h.h.h.d.d.y.d.y.t.y.t.t.d.t.t.d.d.d.d.h.h.h.s M."
};
