/* XPM */
static char *i_[] = {
/* columns rows colors chars-per-pixel */
"75 67 168 2",
"   c #000000",
".  c #130E09",
"X  c #1E150E",
"o  c #20170F",
"O  c #23180F",
"+  c #211710",
"@  c #231911",
"#  c #2A1D13",
"$  c #2E2116",
"%  c #312217",
"&  c #3B2717",
"*  c #34261A",
"=  c #36281C",
"-  c #3E2B1C",
";  c #412D1E",
":  c #43301F",
">  c #432F20",
",  c #453222",
"<  c #4A3523",
"1  c #4F3826",
"2  c #503A27",
"3  c #533C29",
"4  c #5C442E",
"5  c #5F4630",
"6  c #64472E",
"7  c #66482F",
"8  c #744E2D",
"9  c #644933",
"0  c #6C4E35",
"q  c #664C39",
"w  c #734E32",
"e  c #6E5237",
"r  c #745236",
"t  c #7A5535",
"y  c #755439",
"u  c #79563A",
"i  c #7C5A3D",
"p  c #775B42",
"a  c #7E5D42",
"s  c #7F6042",
"d  c #825732",
"f  c #865A36",
"g  c #845D3D",
"h  c #8A5E3C",
"j  c #86603F",
"k  c #8D613E",
"l  c #92653E",
"z  c #9B663B",
"x  c #9D693E",
"c  c #AA6E3E",
"v  c #825E42",
"b  c #846144",
"n  c #8B6444",
"m  c #8E6847",
"M  c #856449",
"N  c #8A664A",
"B  c #8D694B",
"V  c #926643",
"C  c #946945",
"Z  c #9D6B43",
"A  c #936B4B",
"S  c #9A6E4A",
"D  c #96704F",
"F  c #9D714D",
"G  c #916E51",
"H  c #977252",
"J  c #9A7352",
"K  c #A16D44",
"L  c #AC6F40",
"P  c #A57245",
"I  c #AD7243",
"U  c #A5734B",
"Y  c #AA764B",
"T  c #AC794E",
"R  c #B27646",
"E  c #B47748",
"W  c #B57A4A",
"Q  c #BA7D4D",
"!  c #A27652",
"~  c #A47954",
"^  c #AD7C52",
"/  c #A47B5A",
"(  c #A97F5C",
")  c #B27E54",
"_  c #BC7F50",
"`  c #BB824E",
"'  c #AB8056",
"]  c #AC815F",
"[  c #B48156",
"{  c #BD8253",
"}  c #BE8853",
"|  c #B6835A",
" . c #BA865B",
".. c #BC895E",
"X. c #AD8462",
"o. c #B28663",
"O. c #B88761",
"+. c #B38966",
"@. c #BD8C64",
"#. c #B48968",
"$. c #BC8E6A",
"%. c #BF916C",
"&. c #C18655",
"*. c #C48A56",
"=. c #C18758",
"-. c #C58B5B",
";. c #CA8E5D",
":. c #C7905A",
">. c #CB925D",
",. c #D0935F",
"<. c #C38D61",
"1. c #C98F61",
"2. c #C08F69",
"3. c #C59165",
"4. c #CD9262",
"5. c #CF9862",
"6. c #C69469",
"7. c #CC966A",
"8. c #CE996A",
"9. c #D19565",
"0. c #D39A66",
"q. c #D39768",
"w. c #D59A6A",
"e. c #D99E6C",
"r. c #C19571",
"t. c #C99770",
"y. c #CD9C74",
"u. c #CF9F78",
"i. c #D19E76",
"p. c #DB9F70",
"a. c #D19F78",
"s. c #D7A06B",
"d. c #DCA16E",
"f. c #D3A075",
"g. c #DEA371",
"h. c #DFA872",
"j. c #D3A27A",
"k. c #D9A57D",
"l. c #E1A573",
"z. c #E4A876",
"x. c #E8A977",
"c. c #E6A978",
"v. c #EBAD7A",
"b. c #EEB17D",
"n. c #F0B17E",
"m. c #8F8B87",
"M. c #8F8A88",
"N. c #908D89",
"B. c #B8A79A",
"V. c #BCAB9D",
"C. c #BEADA0",
"Z. c #BDB6B0",
"A. c #DEAA81",
"S. c #E1AC83",
"D. c #F3B582",
"F. c #F4BA87",
"G. c #F6BD8A",
"H. c #F9BF8D",
"J. c #C0AFA2",
"K. c #C3B2A4",
"L. c #CDB5A2",
"P. c #D0B7A5",
"I. c #D1B9A6",
"U. c #D5BDAA",
"Y. c #FAC18F",
"T. c #FBC391",
"R. c #D9C1AE",
"E. c #EFEAE7",
/* pixels */
"E.I.I.U.U.U.U.P.I.I.I.U.U.U.U.R.R.R.R.R.R.R.R.R.R.R.R.U.U.U.U.R.U.U.P.P.P.P.P.L.L.L.L.L.L.L.L.L.P.P.L.P.P.P.P.P.U.U.P.U.U.P.U.U.U.U.U.U.U.U.U.U.U.U.Z.",
"C.C ^ ^ ^ T T T ^ ^ ) ) ) 2.) <.O.=.<.O. .O.) _ ) ) ) ) ) ) ) ) ) ^ Y E U U K Z Z Z z Z Z z K K K K K K U Y Y ^ ^ ^ T ) ) ) ) ) ) ) ( ) ) | ) ^ ) 5 M.",
"C.a A 1.1.1.<.=.=.=.<.=.<.4.t.4.4.q.q.4.q.1.1.1.1.1.1.2.-.1.1.=.1.;.=.=.=._ =._ _ _ E _ _ _ _ _ _ _ _  .{ =.=.<.<.;.-.;.1.1.1.t.2.1.4.4.7.4.3.7.q @ N.",
"J.M n 7.v.x.x.x.p.p.l.x.x.x.v.x.x.S.D.D.S.D.D.x.D.x.x.S.x.x.x.x.A.S.D.x.D.D.S.S.v.v.S.D.S.x.S.v.S.x.x.x.v.v.v.v.S.D.S.D.D.S.D.D.D.D.D.F.D.D.D.o.= # N.",
"C.M n 2.e.l.l.p.p.p.p.p.p.p.l.l.A.x.x.A.x.x.A.p.p.x.x.p.x.p.A.x.x.x.x.A.x.x.A.x.A.x.x.x.x.x.x.A.x.x.p.l.x.x.S.v.x.x.x.S.l.x.x.x.c.v.S.v.v.v.8.A = @ N.",
"J.M n <.q.p.p.q.q.q.q.q.p.e.p.p.p.p.p.p.p.p.p.A.p.p.l.p.p.x.p.p.p.p.q.p.q.p.p.p.p.p.p.p.p.p.p.p.p.p.p.p.p.p.l.p.p.p.p.p.p.p.p.p.l.p.l.d.f.d.O.C = @ N.",
"C.v v ) <.9.9.4.;.,.1.1.4.4.4.9.q.q.q.q.p.q.p.p.p.p.p.p.p.p.p.p.q.9.1.1.;.;.&.;.=.;.=.1.;.;.1.1.4.q.q.q.q.q.q.p.q.q.y.q.q.q.q.q.w.w.0.0.0.0.[ n * @ M.",
"C.p i T =.-.-.) ) W ) ^ ^ ) ) ) ) ) =.O.=.=.O.O.=.<.@.@.@.<. . .) _ Y Y K K K c Z K K L U Y ^ ^ ^ ) ) ) ) ) ) O._ _ ) _ ) ) _ =.| | ....>.4.^ j * o M.",
"B.p v T _ -.=.^ V A A N A A A A G G J / G J J J / J J G J J J J J J G N N v v v v v v V n n V A B A B A G D D S G G G G D J J J H A ^ =.-.-.T g * X N.",
"B.v v ) =.1.1.) V q ( / / ( ( ( ( ( ( ( #.( ( ( ( #.#.( #.#.( O.( ( ( ( ( / ( ( / / / Y / ( ( ( ( ( ( ( ( ( ( ( ( ( ( ( ( ( #.( +.A ) { -.=.P i $ X m.",
"J.v v _ 1.1.9._ V > 9 2.t.t.y.y.t.t.t.A.A.r.A.A.A.A.t.A.A.a.a.a.A.$.A.A.$.t.t.2.t.$.t.t.t.t.t.t.a.t.t.t.t.t.y.y.A.r.r.y.y.y.A.y.J n [ =.>.-.Y g $ X N.",
"J.M v =.4.q.q.<.S > + p A.r.A.A.A.t.A.A.A.A.A.r.u.A.A.a.A.a.a.k.A.A.A.A.A.A.A.A.A.A.t.A.a.a.a.a.A.t.t.t.t.a.y.a.A.A.A.r.A.y.A.G b n  .4.4.>.^ h % X N.",
"C.v v U  .1.1. .Z > + # N O.2.2.1.2.O.2.2.O.2.O.( $.2.$.1.O.2.O./ ( O.O.2.O.O.<.( ) =.O.O.) O. .( ) ( 2.<.2.2.2.2.2.2.2.( 2.) M b n ..6.8.8.[ j % O N.",
"B.p d Z W _ =._ V - + # n 1.4.q.q.9.1.1.1.9.1.9.t.1.9.1.,.9.q.9.1.1.;.;.;.1.;.;.1.1.;.=.=.1.&.&.=.-.4.q.q.q.q.q.p.q.q.q.7.4. .v s n ..0.w.5.[ n * X N.",
"B.w w z R Q _ T V & + O V =.;.1.;.;.1.;.4.;.;.;.;.;.1.1.;.9.9.9.q.1.1.;.;.=.;.;.=.=.&.;.=.=.=.;.;.;.4.4.q.q.q.q.q.q.4.4.1.-.) v i i T } *.*.P t $ X m.",
"B.w w z E E _ L n & + + d _ _ =.=.;.;.;.;.;.=.;.;.;.;.1.;.9.,.9.9.9.9.4.1.;.=.&.=.=.&.=.1.1.4.4.1.4.;.1.4.9.q.q.q.9.1.;._ _ L p r t x P R I l 8 $ X m.",
"B.p w Z E Q _ Y n & X O f _ _ _ _ &.-.&.&.&.&.&._ _ &.&._ &._ &.&.&.&.&.&._ _ &._ _ &._ &.=.-.&.;.;.&.;.;.;.;.;.&.&.&.&._ _ L y 0 t K I W W l 8 $ X m.",
"B.w w Z E _ =.E n - X O v _ Q E Q _ _ _ _ _ Q Q _ E E E E E E L R L c c L R E E _ _ _ _ _ _ _ _ Q _ _ _ &.&.&._ Q Q _ Q _ _ Y y r t Y ` [ { P t $ X m.",
"B.p w L E _ =.W V - + @ V _ _ _ E E R E E E R L L L L L L L L L c c L R R E Q Q _ _ _ _ _ Q Q E E E E E E E E E E E Q &.&.=._ v a v | -.5.5.^ g % X m.",
"B.p w K Q _ =.) V > + # V _ -._ Q R L L L L L L L L L L L L L L c R W Q Q Q _ &.&._ &._ _ _ Q Q Q E L R R E E E E Q _ &.1.1.<.v b N -.9.w.w.| m % X m.",
"V.a v ^ _ -.1._ S > + $ K q.9.;.;.&.&._ &.&._ &._ &._ _ _ _ _ _ &.&.&.=.-.-.=.=.;.-.&.&.&.&.&._ _ _ _ _ &.&.&.&._ &.-.;.9.q.<.N M m <.7.p.w...m = @ N.",
"J.v v ) <.q.q.@.F , @ $ F p.q.p.q.q.q.q.q.q.q.q.q.q.p.p.p.p.p.q.q.q.4.4.4.1.9.9.4.,.,.4.;.;.;.-.;.9.9.q.9.q.q.,.9.9.q.q.q.q.<.N M m  .q.w.0...m * O N.",
"J.M v _ 1.q.p.<.J , + $ F p.p.p.p.p.q.p.p.p.p.p.p.p.p.p.p.p.p.p.p.e.w.q.1.y > = = = 3 U q.9.,.9.4.q.p.p.l.p.p.p.q.q.q.q.w.q.<.v M N <.7.w.w.O.A * @ N.",
"J.M M _ 1.q.q. .S , @ $ S q.q.q.q.,.4.,.,.,.9.9.q.q.q.q.q.q.q.q.q.e.e.p.6             1 q.e.q.w.q.p.p.p.p.l.p.p.e.q.e.q.q.p.<.B M N -.0.e.f. .C = @ N.",
"J.M M ) 1.4.9. .S > + # Z 4.9.1.4.;.;.4.;.;.;.;.9.;.9.9.9.9.9.9.q.w.e.<.              3 e.e.p.e.p.e.e.e.p.p.p.p.q.q.q.q.q.q.1.N b N ..5.w.q.[ m * @ N.",
"J.v M ) 1.9.1._ V - + # V ;.1.1.;.4.4.4.9.;.9.9.9.9.1.9.q.9.9.9.q.q.w.>               2 w.w.q.q.q.q.9.q.e.p.q.p.q.q.9.9.q.q.1.v M n [ -.4.1.T g $ O m.",
"J.M v ) =.1.1.) V > + # V 1.;.;.;.4.9.9.;.9.9.9.9.q.9.9.9.9.9.q.9.9.U       .         1 1.4.4.9.,.9.q.q.q.p.q.q.9.9.4.4.4.q. .v v n [ -.4.1.^ g % + N.",
"J.M v ) 1.4.1._ V - + # V ;.4.4.4.4.9.4.9.9.4.4.9.1.9.9.9.9.;.;.,.;.#       u         < ;.;.;.-.;.9.q.q.p.p.p.p.9.,.,.;.1.1._ v a n  .4.5.4.) n % o N.",
"J.v v ) =.1.1.) V > + # V 1.4.;.4.4.,.9.9.4.9.9.;.9.;.q.;.q.;.9.9.v       # -.        1 ;.&.;.&.;.;.;.9.9.q.q.q.1.;.;.;.1.-._ v i v [ 3.5.4.^ b % @ m.",
"V.v v ) =.1.1.) V - + + V -.;.;.;.4.4.4.4.1.;.4.;.9.;.4.9.9.9.;.;..       S ;.        1 ;.;.&.&.&.&._ &.;.;.;.;.;.;._ &.=.-.) v a h { =.-.-.T f $ X m.",
"C.v v ) =.1.1._ V > X # V 1.1.4.9.,.4.4.4.4.9.9.9.4.9.4.;.q.9.9.w       ; 1.4.        1 ;.;.;.;.;.&.&.&.;.;.9.;.;.;.;.;.1.4._ v v b ) ..;.-.T g $ X N.",
"J.v v ) 9.q.p.=.S > + # V q.q.q.q.9.9.9.9.9.9.9.q.q.9.q.q.q.q.;.        =.9.9.        1 9.9.9.9.4.;.;.;.9.q.q.q.9.1.1.,.;.9.O.M b b { =.4.4.^ h % o N.",
"J.M n  .9.w.w.-.S > + # Z 0.w.w.q.q.9.9.9.,.,.,.,.,.9.,.,.9.q.3       0 0.q.q.        2 w.0.9.9.9.-.*.;.>.9.0.9.9.4.9.1.9.9. .b s b [ -.4.:.) j % o m.",
"J.b b  .4.0.w. .S > + # S 9.e.w.9.9.,.,.,.,.,.;.;.*.*.*.*.;.U       . 8.w.0.0.        2 w.0.9.>.>.&.Q ` &.-.;.>.;.>.>.>.,.,. .v i g W { -.-.T g % X N.",
"J.v v ) -.4.4.[ C > O # V ,.,.,.,.,.,.;.;.;.;.*.&.*.&.&.&.-.*       h :.:.*.;.        < 4.>.>.;.*.} ` &.*.-.;.;.;.>.>.5.4.5. .b i g W ..1.-.^ g % o m.",
"V.a f Y { &.*.W h ; O O h &.*.&.&.&.&.-.&.&.;.*.-.&.*.&.&.h       # Q Q Q Q Q         < *.&.&.&.&.&.*.*.;.>.5.>.>.>.4.9.9.0.=.b s j [ =.:.1.) b % o m.",
"B.i t P Q } { Y h ; o O f ` ` &._ _ _ &.*.*.*.*.*.&.*.&.*.O       Z ` { ` ` }         < >.:.:.:.;.;.:.>.9.,.5.>.>.4.>.9.0.0...b s b [ -.4.;.) v % + m.",
"B.y w K R Q Q L f & o O d E W W E Q Q _ _ _ *.*.;.&.&.;.T       . 7 7 7 7 7 9         # 0 e 6.s.0.0.0.0.0.0.0.9.>.>.>.5.9.0.-.M b n { -.4.9.[ n * + N.",
"V.i u Y { &.-.W l ; o O k &.&.{ &.&.&.*.;.,.,.9.,.9.9.9.F                                   i d.d.e.e.e.0.0.0.9.4.>.>.9.9.0...M b b | 1.9.5.[ n * @ m.",
"C.s h { ;.0.9.{ Z ; O O C >.9.9.,.9.,.e.e.e.p.l.l.l.l.x.~                                   y d.d.s.e.w.w.e.0.9.,.4.>.>.9.0...N b n  .4.q.9.| n * + N.",
"C.M b ..9.e.e.3.J < O $ J e.d.d.d.d.p.p.l.z.z.z.x.x.x.x.:.                                  i d.s.d.s.e.0.e.s.,.0.9.0.0.0.0...N M N ..5.0.0.| m * @ N.",
"K.N N <.w.l.l.5.~ < @ $ ! l.z.z.x.x.x.x.x.x.x.x.x.x.x.x.x.[ ' ^ ^ ( / ^ / ^ ^         ; ! U 8.w.w.e.d.d.s.s.s.s.w.w.w.w.0.0.-.N b m ..5.w.w...m * $ N.",
"K.M B ..q.l.p.4.! , @ $ ! l.z.c.x.x.x.x.z.z.l.l.x.x.x.x.l.l.l.d.g.g.d.g.g.h.d.        3 d.s.s.d.e.d.d.d.d.d.s.d.d.d.d.d.d.s.3.B N m <.8.w.w.@.A * @ N.",
"K.M b ..4.w.w.<.F , @ $ F d.g.g.l.l.l.l.g.d.e.e.d.d.,.e.e.e.e.e.s.d.d.d.d.h.l.        4 g.l.h.h.l.l.l.l.d.d.h.h.l.l.h.d.g.d.6.B N A 3.0.f.e...A = @ N.",
"K.M b ..4.e.w.<.F , O $ c d.d.d.d.l.l.d.e.d.e.w.0.e.e.e.d.e.0.e.e.e.s.d.d.d.h.        4 h.h.h.z.z.h.h.d.h.s.h.s.h.h.h.h.d.d.3.B B D 3.w.f.s...B * @ N.",
"K.N B -.0.e.e.1.F , @ $ P d.l.d.l.l.l.l.d.p.e.e.e.d.d.d.l.d.d.d.s.e.e.s.d.d.h.        4 h.s.h.h.h.h.h.s.h.s.s.s.s.h.s.s.w.w...B N m ..8.s.s.| m = @ N.",
"K.B B 1.0.d.e.-.F : @ $ P e.d.l.d.d.d.e.e.d.0.e.d.d.d.d.l.d.l.d.d.e.0.s.s.d.d.' e e y ..w.s.s.s.s.s.s.s.5.5.5.5.s.s.s.5.5.>.} M b N @.5.w.w.| m = @ N.",
"K.B B ..5.e.0.-.Z : @ # Z 0.e.e.e.0.e.,.,.,.,.,.,.e.e.e.e.e.d.d.e.s.s.s.d.d.h.d.d.s.w.0.5.5.w.5.0.s.s.,.5.>.5.>.,.>.>.:.:.:.[ s s n  .3.5.8.' s * @ N.",
"K.M b [ ;.9.,.{ C : o # l ,.0.0.0.,.,.,.;.;.,.,.,.,.,.,.,.0.0.,.0.5.0.5.0.s.0.0.5.5.5.5.:.:.>.:.:.,.,.>.:.:.:.:.:.:.:.} } } I i i s ` ..:.3.' j % O N.",
"V.i i T &.>.>.` l ; o # l >.,.,.,.,.,.;.,.*.;.*.&.*.*.*.*.>.,.,.,.,.:.:.:.:.:.:.:.:.*.} } :.} } *.:.:.:.:.:.:.:.:.:.*.} } ` P t r t P ` *.:.^ j % O N.",
"V.i t R } >.;.{ l ; o # l :.,.,.,.,.,.,.,.*.*.*.&.*.*.&.:.:.,.,.,.:.:.:.:.:.:.:.} :.} } } } } } } } :.:.:.:.:.:.*.:.*.} } ` P r e t Y ` -.-.' j * X N.",
"V.i i [ -.,.9.{ C : o O l >.,.,.,.0.,.,.,.,.,.,.,.*.,.,.,.,.,.,.0.0.5.,.5.5.,.,.5.:.5.>.>.>.>.:.:.5.>.>.>.>.>.>.>.:.:.>.} } ` s u j [ 3.8.8...n * @ N.",
"J.b b [ >.w.w...Z , o # V 9.9.9.w.e.e.0.e.e.w.0.,.,.,.,.e.e.e.e.d.d.0.d.s.0.s.,.s.5.0.5.0.,.5.,.5.s.s.,.0.s.0.s.s.5.s.s.5.5.} M s N @.0.g.d.@.A = @ N.",
"K.N n ..0.l.g.4.J , @ $ S e.l.d.d.p.d.l.d.d.l.g.d.l.e.d.d.d.l.h.h.d.d.s.s.s.s.s.s.0.s.s.w.w.s.0.0.s.s.h.h.s.d.l.h.h.h.h.h.h.5.G B A 8.f.h.g.@.A = @ N.",
"K.B B 3.w.l.l.5.~ < # $ U z.x.z.z.z.z.z.x.z.l.l.x.l.d.l.l.l.x.x.x.h.d.d.d.d.d.s.s.s.s.s.s.s.s.s.s.h.h.h.h.h.z.z.h.h.h.h.h.h.8.G G H 7.i.h.f...A = @ N.",
"K.B B 3.w.l.l.6.~ < @ $ $.Y.Y.Y.Y.H.H.Y.Y.H.Y.Y.n.Y.G.H.G.Y.Y.Y.T.Y.Y.Y.Y.Y.Y.Y.Y.Y.Y.Y.F.Y.Y.Y.Y.Y.Y.n.Y.F.F.G.F.Y.b.Y.Y.Y.f.B M A 1.0.e.w.[ n * o N.",
"K.B B 1.w.g.g.7.! < @ 5 | 6.6.1.1.3.2.6.1.1.1.2.<.<.<.1.2.1.6.7.,.5.6.6.6.6.6.6.3.6.6.3.3.3.3.3.3.3.3.3.3.3.@.<.........@...@.H N B 3.w.w.w.[ n * @ N.",
"K.B B <.0.e.e.<.F , 0 | | [ [ ^ ) [ [  .| | [ | ) [ ^ ) [ |  . .................O... . .|  .| | ..@.@.@.@...@.@.................! D 8.h.k.h.@.B = @ N.",
"K.G B <.w.p.e.1.F C 4.4.4.4.1.1.;.9.9.4.7.4.4.1.1.1.;.1.4.6.w.w.8.w.8.w.8.8.5.8.8.5.8.8.8.8.8.7.8.w.s.f.s.s.w.w.s.8.8.8.8.8.8.5.8.@.8.k.x.h.@.A = @ N.",
"Z.B m 2.w.p.p.1.6.v.v.v.v.v.n.n.n.v.n.v.v.v.v.v.v.c.v.v.b.n.n.D.F.n.b.b.n.n.n.n.b.b.b.b.b.b.b.b.b.b.D.b.b.b.b.n.b.b.b.v.v.v.v.b.v.v.h.w.h.w. .A * @ N.",
"K.B B 2.w.l.p.w.h.l.l.l.z.c.x.x.x.l.l.l.l.z.l.z.l.l.l.l.z.x.x.x.v.c.z.z.z.h.l.z.z.z.h.l.z.z.z.l.h.l.g.l.l.l.d.l.l.d.l.d.h.s.h.d.d.l.z.g.s.s...s = @ N.",
"K.B m <.w.l.l.e.e.e.w.e.e.e.e.g.e.w.w.e.e.p.e.p.d.e.e.e.d.d.d.d.d.d.d.d.h.h.d.d.d.g.g.d.d.d.g.d.d.s.e.s.w.e.s.s.s.e.e.e.s.s.s.s.w.s.g.g.h.h.%.' = @ N.",
"J.B B <.w.p.e.w.9.,.;.;.;.;.4.9.1.,.;.;.9.9.q.e.e.w.w.0.q.9.9.9.0.0.w.0.0.0.w.w.0.0.0.0.0.0.0.0.9.5.5.5.9.0.0.0.0.0.0.0.9.0.,.>.5.6.5.w.s.s...A = @ N.",
"J.B n @.<.<. .| ) R K K K K K K P Y T ) ) _  . . . . . .[ [ [ ) [ ^ T T ' T ' T ^ ^ ^ ^ ^ ^ ) ^ ^ ) ^ ) ' [ [ [ [ [ [ ' [ ' W ' T T Y Y ' ' ' s * @ N.",
"K.B N ( / / J D A V v n v V n v V V C C S S J J J J J J J J G J G S A G A N D A B A A B B A m A A A A A A D A A D D A D A m m m m m j m m B D s $ @ N.",
"J.M X.r.r.2.$.$.#.o.O.( ( ( ( ( ( ( ( ( ( ( ( 2.$.$.( ( ( 2.( $.2.( ( ( ( ( ( ) ( O.O.( o.o.o.o.+.o.+.+.+.+.o.o.] ] ] ] ] ] ] ] ] ] X.X.X.+.+.+.p X m.",
"K.#.S.S.A.A.A.A.A.a.A.a.A.k.p.A.A.a.A.y.y.p.a.A.A.A.A.A.a.A.S.S.A.A.a.y.A.y.a.a.a.a.A.a.a.a.a.A.k.j.k.j.j.j.j.j.f.y.y.y.f.y.y.f.u.y.f.f.j.j.j.j.j.s N."
};
