/* XPM */
static char *i_[] = {
/* columns rows colors chars-per-pixel */
"75 67 162 2",
"   c #000000",
".  c #0D0906",
"X  c #1E150E",
"o  c #20170F",
"O  c #23190F",
"+  c #211710",
"@  c #231911",
"#  c #2A1D14",
"$  c #2E2116",
"%  c #312317",
"&  c #3C2917",
"*  c #34261A",
"=  c #3B2718",
"-  c #36281C",
";  c #3E2B1C",
":  c #412D1E",
">  c #43301F",
",  c #422F20",
"<  c #453222",
"1  c #4C3625",
"2  c #4E3826",
"3  c #513A27",
"4  c #553D2B",
"5  c #5E442F",
"6  c #62452C",
"7  c #734E2C",
"8  c #76502F",
"9  c #6A4C34",
"0  c #734E32",
"q  c #6E5237",
"w  c #6D5138",
"e  c #745236",
"r  c #7A5534",
"t  c #7C5835",
"y  c #76553A",
"u  c #79563A",
"i  c #76583A",
"p  c #7C593C",
"a  c #765840",
"s  c #7E5D42",
"d  c #855936",
"f  c #895C37",
"g  c #835D3C",
"h  c #895E3D",
"j  c #86603F",
"k  c #8C613E",
"l  c #94653D",
"z  c #9C673D",
"x  c #9C6A3E",
"c  c #AA6E3E",
"v  c #825F43",
"b  c #846145",
"n  c #8B6444",
"m  c #8E6847",
"M  c #856449",
"N  c #8A664A",
"B  c #8D694B",
"V  c #926643",
"C  c #956A45",
"Z  c #9E6B42",
"A  c #936C4B",
"S  c #9A6E4B",
"D  c #96704F",
"F  c #9C714D",
"G  c #8F6E50",
"H  c #986F50",
"J  c #907152",
"K  c #9C7352",
"L  c #9F7758",
"P  c #A26E44",
"I  c #A57146",
"U  c #AC7344",
"Y  c #A4744C",
"T  c #AA754B",
"R  c #AC794D",
"E  c #B27646",
"W  c #B07847",
"Q  c #B27748",
"!  c #B57A4B",
"~  c #B97D4D",
"^  c #A27551",
"/  c #A97751",
"(  c #A57954",
")  c #AD7B52",
"_  c #A07758",
"`  c #A37C5C",
"'  c #A97E5A",
"]  c #B27E54",
"[  c #BB7F50",
"{  c #B7804B",
"}  c #BC824E",
"|  c #A7805F",
" . c #A8815F",
".. c #B58156",
"X. c #BC8253",
"o. c #BF8952",
"O. c #B58359",
"+. c #BA865B",
"@. c #BC895D",
"#. c #AF8864",
"$. c #B28662",
"%. c #B58A66",
"&. c #BC8C62",
"*. c #BC8E69",
"=. c #BE916D",
"-. c #C28655",
";. c #C48A56",
":. c #C18759",
">. c #C58B5B",
",. c #CA8E5D",
"<. c #C7905A",
"1. c #CC925E",
"2. c #D0935F",
"3. c #C38D62",
"4. c #CB8F60",
"5. c #C69164",
"6. c #CD9262",
"7. c #CF9862",
"8. c #C5946D",
"9. c #CB966B",
"0. c #CE996A",
"q. c #D19565",
"w. c #D39A66",
"e. c #D39768",
"r. c #D59B6A",
"t. c #D99E6C",
"y. c #C39572",
"u. c #C99770",
"i. c #CD9C74",
"p. c #D19E76",
"a. c #DB9F70",
"s. c #D19F79",
"d. c #D7A06A",
"f. c #DCA16E",
"g. c #D2A077",
"h. c #DEA371",
"j. c #D4A27A",
"k. c #D9A57D",
"l. c #E1A573",
"z. c #E4A976",
"x. c #E8A977",
"c. c #E6AA78",
"v. c #EAAD7A",
"b. c #EDB17D",
"n. c #F0B17F",
"m. c #8F8B87",
"M. c #8F8B88",
"N. c #908D89",
"B. c #B7A698",
"V. c #B9A79A",
"C. c #BBAB9D",
"Z. c #BEAEA0",
"A. c #DEAA81",
"S. c #E1AC83",
"D. c #F2B582",
"F. c #F1B987",
"G. c #F5BD8B",
"H. c #C0AFA2",
"J. c #C4B2A4",
"K. c #F7C18F",
"L. c #F7C190",
"P. c #F9C392",
/* pixels */
"Z.A / / ) ) ) T / / ] ] [ ] *.] $.3.&.&.$.+.] &.] ] ] ] ] ] ] ] ] / T T Y P P P Z Z z Z Z Z P P P H P Y T / / / / / ] ] ] ] ] ] ] ] O.] ' ] ] ] O.9 N.",
"Z.v F ,.>.3.3.:.:.:.:.-.5.5.4.9.4.9.9.6.9.4.5.3.5.4.3.5.3.3.3.3.3.3.>.:.:.:.[ ] [ [ [ [ ] [ [ [ [ [ ] [ [ -.:.:.:.4.:.:.3.3.3.3.4.3.8.3.5.5.5.5.y + N.",
"H.M N r.n.x.x.l.a.a.l.l.x.x.S.x.x.v.D.v.v.v.v.v.x.x.S.x.l.x.x.x.l.v.v.S.v.v.D.S.x.x.x.x.A.x.x.x.x.l.A.l.l.S.x.D.D.D.x.D.x.D.D.D.D.D.F.F.D.D.D.=.- @ N.",
"H.M N &.a.x.l.a.t.t.a.a.a.l.l.l.l.x.x.x.x.x.x.l.l.l.x.l.l.x.a.l.x.l.x.x.x.x.S.x.x.x.A.D.A.x.x.x.A.x.l.x.x.x.x.S.A.x.x.x.x.x.A.A.v.v.v.v.v.D.r.A - # N.",
"H.M N 3.e.a.t.r.t.e.e.a.t.a.a.t.a.a.l.a.l.h.h.l.l.l.l.l.l.k.a.x.l.a.a.a.a.l.a.l.a.a.l.a.l.a.l.a.a.a.a.a.a.l.l.l.l.l.a.k.a.l.a.x.l.h.h.h.h.h.@.A - @ N.",
"H.v v O.4.e.e.e.4.4.4.q.q.q.q.e.r.r.r.t.t.t.a.a.a.a.a.a.a.a.a.a.a.e.4.4.4.4.,.,.4.4.4.4.4.4.q.e.e.e.e.e.e.a.e.a.t.e.e.e.e.e.e.e.r.r.r.r.e.7...n - @ N.",
"C.u p Q +.,.>.] [ ] / ] ] ] [ [ O.+.@.:.&.+.&.3.3.3.3.3.4.3.3.3.:.] / / U P P P z P P P T Q / / ~ [ [ ] +.[ ] @.[ ] [ ] +.[ :.:.@.@.&.>.6.<.) j * + M.",
"C.s p R [ ,.:.! V H A A A A A H S H H K H H L L K K _ K H _ H H H H V V V V v V V v n n n n V H C H B H H H H H H K H H H H H H D K / +.,.>.R g $ + N.",
"H.v v ] :.4.4.] V 9 _ _ _ _ _ _ ` ` ` ` ` ` ` ` ` ` ' ` ` ` ` _ ' ` ` ` H L L H H H K K H _ _ ` ` _ _ L ` _ ` ` ` ` ` ` ` ` ` '  .A ] X.:.;.I g $ X N.",
"H.v v ] :.4.4.[ V , a u.u.u.u.u.i.u.s.s.i.A.s.i.A.A.A.y.A.u.A.y.s.i.s.s.A.u.y.y.u.8.y.y.=.*.u.u.u.u.y.u.u.u.u.u.i.s.u.y.u.s.y.A.` h ] ;.,.:.T g $ X N.",
"H.v v [ 4.e.e.3.H , + v i.A.A.A.A.s.A.s.A.A.s.A.A.A.A.A.A.A.A.A.A.A.A.A.S.A.A.A.A.A.s.s.A.A.A.A.s.u.u.i.u.s.s.s.A.s.A.A.s.s.A.` v N +.6.6.1./ g $ X N.",
"Z.v v ] :.q.e.+.S , + # _ %.*.%.*.*.*.*.%.*.*.*.*.' *.=.=.' 3.8.' *.3.' ' *.] *.' ] *.&.*.' ' ] %.%.%.*.] *.8.3.%.*.' 8.*.*.*.v b N @.5.7.6...b $ O N.",
"V.a 0 P ! -.:.] V : + # n 4.4.e.e.6.4.4.4.4.4.4.8.4.4.9.4.q.q.q.9.4.>.>.4.>.4.:.4.3.,.:.:.-.-.-.-.>.4.6.q.e.e.e.t.e.e.e.q.4.[ v s m @.7.w.7...j * O N.",
"V.a 0 Z T [ -.! V , X # V :.4.4.6.4.4.4.4.4.4.4.3.4.4.6.4.q.q.4.6.4.,.,.,.>.,.-.:.:.:.-.,.:.,.-.>.,.4.q.q.e.e.a.t.e.q.6.4.4.] v p j ..>.1.<.( g $ X N.",
"V.0 0 z U [ [ U f = + + f [ :.:.4.,.,.4.4.,.4.>.,.4.4.4.4.q.2.2.e.4.e.q.4.,.:.-.:.-.-.:.-.,.,.4.4.4.4.4.4.e.e.q.e.6.4.4.>.X.T a e e c W ! R z 8 # X m.",
"B.0 0 V U [ [ U V = X @ f [ [ -.-.-.-.:.-.-.-.-.-.-.-.-.-.-.,.,.:.4.:.:.-.-.-.-.-.-.-.-.-.,.-.,.4.,.>.,.,.4.4.4.4.,.>.-.[ [ U y e e x U W W l 7 # X m.",
"V.e 0 P Q [ -./ n : X # f ~ ~ ! ~ [ [ [ [ [ [ [ ! ! ! E ~ E ~ E E E E E E E E ~ [ [ [ [ [ [ [ [ ~ [ -.-.-.-.-.[ [ ~ ~ [ [ ~ E d e y U ~ X.X.Z r # X m.",
"Z.y e P ! -.-.! V , X + V [ [ ! E ! ~ ! ~ E E E E U U E U c c c c c c c U E E ~ ~ ~ ~ [ ~ ~ ~ ! Q ~ ~ [ [ ~ ~ ~ ! ! ~ ~ [ -.Q a u p ] +.,.:.R p % X m.",
"V.y e P ! [ -.! V , + # n -.-.[ ~ E U U E c c c c U U c c c c c c E E ! ~ ~ -.[ -.[ -.[ [ [ ~ ~ ~ E U E E E E E E ~ [ -.:.4.[ M v n @.6.e.0.O.n * O m.",
"V.a u U [ -.4.] V , + # V 4.4.-.-.! E E E E E ~ E E E E E E E E E ~ X.[ -.-.:.:.,.-.-.-.-.[ [ [ ~ E E E Q ~ ~ ~ ~ [ -.4.q.e.3.N M A 3.e.h.d.&.B * O N.",
"H.v v ] 3.6.e.:.S 1 + $ F a.e.e.q.q.q.2.2.2.q.q.q.6.e.e.q.e.q.q.q.2.4.4.4.4.6.4.2.,.,.,.,.-.-.>.-.4.4.4.2.q.2.4.4.4.4.q.e.e.3.N M m @.9.r.t.+.B * O N.",
"J.N N ] 4.e.a.3.H 1 @ $ ^ a.l.l.a.a.a.l.l.a.a.l.l.l.a.l.l.l.9.a 0 w 9 9 9 9 9 9 7 9 9 T q.2.4.4.4.e.t.l.a.a.a.t.e.e.e.e.a.e.3.N b N @.7.r.r.+.n * @ N.",
"H.M N ] 4.e.e.:.S < @ # S e.e.e.e.e.q.q.e.q.e.e.e.r.r.r.r.r.6                         4 e.e.e.e.e.t.a.a.l.l.a.a.e.e.e.a.e.a.3.N M N 3.e.a.r.@.A * @ N.",
"H.M v ] 4.e.e.] S , + # S e.q.6.2.4.4.4.4.4.4.2.6.6.6.6.6.q.3                         4 t.a.a.t.a.t.t.a.a.a.a.a.a.e.e.e.e.e.3.N M N >.7.g.r.+.m * @ N.",
"H.v v ] 4.4.4.[ C , + # V 4.4.4.4.4.4.2.4.4.q.q.4.q.4.e.e.q.2                   .     4 r.a.t.e.t.e.e.e.t.a.a.e.e.e.e.q.e.e.,.n b N ..,.6.1.) b % + N.",
"H.M M ] :.4.4.] V , + @ V ,.>.4.4.q.q.q.q.q.q.4.q.q.q.q.6.e.1       o * * * * * % = * / 6.e.e.e.e.e.q.e.e.e.t.e.q.q.4.q.q.e.:.v b n ..:.,.,.R g % X M.",
"H.M v ] 4.4.q.[ V , + # V 4.4.4.4.4.q.4.q.q.q.4.q.e.q.q.6.6.3       g 4.,.,.,.,.,.,.4.4.4.4.4.4.2.q.e.a.a.a.a.t.q.4.4.4.4.4.:.v s n +.6.7.6.) h % X N.",
"H.M v ] 3.4.4.] V , X # V 4.2.4.q.4.q.q.q.q.4.q.4.4.q.4.2.2.3       p ,.,.,.,.,.,.,.-.:.,.-.,.-.,.,.2.e.t.t.a.e.q.4.4.,.4.4.[ v p b +.5.0.6.] n % + N.",
"H.v v ] :.4.4.] V , + @ V 4.4.4.4.q.q.4.q.2.q.4.q.4.e.4.2.2.1       p ,.,.,.:.,.-.,.,.-.-.,.,.-.-.-.-.4.4.4.2.4.,.,.-.>.:.:.[ v s h ..,.6.<.R g % O M.",
"Z.v v ] :.4.4.] V = + # V >.4.4.4.4.4.4.4.4.2.4.4.q.4.2.4.e.1 .     p 4.,.,.,.,.,.4.,.,.,.-.,.,.,.[ -.-.,.4.4.4.:.,.>.:.>.4.[ v s j ] :.,.>.R g $ X M.",
"Z.v v ] 4.q.q.[ C , X # V q.q.q.e.2.2.q.q.2.q.q.e.e.4.e.e.2.3 .     6 S S S [ e.4.e.2.4.4.2.4.4.,.,.-.,.4.q.q.q.4.4.4.4.4.4.+.M b b ..:.<.3.R j % X N.",
"Z.v M ] e.a.e.3.S , + # C e.e.e.e.e.q.q.q.q.q.q.e.2.e.2.e.e.3 .                 = V e.e.e.e.q.q.2.4.-.,.4.e.e.e.e.q.q.4.4.e.+.M s n ..>.6.,...j % X N.",
"H.b N +.6.r.r.>.S , O # Z t.w.t.e.q.2.2.2.2.2.2.2.,.,.,.,.,.3                       # @.w.w.w.q.6.;.-.-.,.1.1.1.6.6.6.6.q.6.o.b s j ..:.1.,.R h $ o M.",
"H.b b ..4.q.q.X.C : o # C 2.w.2.q.2.2.,.2.,.,.,.;.;.-.;.;.,.3                         * w.6.6.1.1.X.} } -.>.1.,.,.1.1.1.1.q.+.b p g R o.,.>.) g % o M.",
"C.b s R :.,.,.] l : o # l ,.;.,.,.,.,.,.,.,.,.;.;.-.-.-.;.;.I 9 6 6 6 6 5 *             9 ,.;.;.-.-.X.-.>.1.1.1.1.1.1.6.q.7.+.b s j ] @.>.,.) g % X N.",
"C.p u U } -.;.R h : o @ f -.-.-.-.[ -.-.-.-.;.;.-.;.-.;.-.;.;.,.,.-.~ { ~ ~ x .         # ;.>.;.;.;.;.,.1.1.6.1.1.1.6.6.q.q.@.M p j ..>.<.6...b % X N.",
"C.u e P ! } } U f & o O d ! ~ ~ ~ ~ ~ ~ [ ;.;.-.,.;.;.;.;.;.;.;.>.;.<.;.;.;.<.t         . 7.7.7.2.2.6.q.q.w.7.6.1.1.1.7.q.w.@.M b b ..,.6.6...n % + N.",
"C.e r P ! ~ ~ U f & X O d ! ~ ! ~ ~ ~ } ;.;.,.,.,.,.,.,.,.,.,.,.1.6.7.7.q.q.w...          5.f.f.d.d.w.r.w.w.w.q.6.6.1.2.q.w.>.M b b X.<.6.7...n * + N.",
"C.s p W -.,.,.] l : o O k ,.,.,.,.,.2.2.2.q.e.e.r.r.t.t.r.r.r.r.r.f.h.h.h.f.f.@.          d.f.f.f.f.d.r.d.r.w.q.6.1.1.7.q.q.@.M b n +.6.q.7...n * + N.",
"H.M b +.q.r.t.3.Y < O # S w.w.w.2.r.r.t.t.l.x.x.x.x.x.x.z.z.z.l.z.z.c.v.v.c.v.K         . h.f.f.f.f.f.r.r.w.w.w.6.7.2.2.q.7.>.M b N +.5.e.e.O.N * + N.",
"H.N N @.q.a.h.5.^ < @ $ K h.h.l.x.l.l.l.x.x.x.x.x.x.x.x.x.w.5.z.z.z.h.z.z.h.h.$         1 d.d.d.r.f.f.f.d.d.d.d.w.w.w.w.r.w.@.N M m @.7.r.e.+.m - @ N.",
"J.N m 3.t.l.l.0.( 1 @ % ( c.v.v.x.x.v.x.x.x.v.x.x.x.v.x.z.e   4 m @.h.f.0.D $         .  .d.7.d.w.d.d.f.f.d.d.d.d.f.f.d.d.r.5.B M m @.7.t.r.@.m - @ N.",
"J.N n @.e.t.t.4.F < + $ F h.h.l.x.x.x.l.l.l.h.l.x.l.f.l.l.4                           q d.f.f.d.f.h.f.h.f.h.l.d.h.h.f.f.h.d.5.B M G <.0.h.r.&.B - @ N.",
"H.M b O.6.e.r.>.F < + $ F f.f.f.f.l.t.l.t.t.r.r.w.w.w.w.w.6                         , z.z.z.c.z.z.z.z.h.f.h.d.l.z.z.z.h.h.f.9.B N G 5.d.p.r.@.A - @ N.",
"J.N N @.7.t.t.3.F > @ $ c f.l.f.l.l.l.f.h.f.t.t.t.t.t.t.t.Y .                   X D h.z.l.l.z.z.h.z.h.f.d.d.f.l.l.z.f.d.d.d.5.B B G &.0.d.d.@.m - @ N.",
"J.N B 5.r.t.t.3.Y > @ $ U f.f.x.l.l.l.l.h.t.t.t.f.f.l.l.l.l.d.Z 6 - O   % ; q N h.h.f.d.d.d.f.f.z.f.f.d.d.d.d.d.d.d.f.d.r.w.@.M M B <.0.d.0.O.m * @ N.",
"J.B B >.w.t.t.>.F > O $ F t.l.f.t.t.t.t.w.w.w.t.f.f.f.f.f.h.f.f.f.d.r.d.f.f.f.f.f.d.d.d.d.d.d.d.d.d.d.d.7.7.7.d.d.7.d.1.1.7.o.M M n @.9.r.0.O.n * @ N.",
"J.B m :.q.r.w.;.C : O # Z 2.w.w.t.2.2.2.2.2.2.2.2.w.w.t.t.t.d.f.d.d.d.f.f.f.f.d.f.d.d.7.7.7.7.7.7.7.d.7.7.<.<.<.<.7.<.<.@.o.{ s s j +.<.9.6. .s * @ N.",
"Z.s b ..<.2.2.X.x ; O # V 1.2.w.w.2.2.2.,.,.2.,.<.2.2.,.2.2.2.2.d.2.2.2.7.7.7.2.7.1.1.<.<.<.<.<.<.7.7.<.<.<.<.<.<.<.<.o.o.o.c i i t { @.<.<.( j % O N.",
"C.p t T -.,.2.~ l ; X # k ,.2.2.2.2.,.,.,.;.;.;.;.;.;.;.;.,.2.2.1.<.<.<.<.<.<.;.o.<.o.o.o.o.o.o.o.o.<.<.<.<.<.<.<.<.o.o.o.{ c i q r Y { >.@...j % X N.",
"C.i t R -.,.1...V > X # l <.2.2.2.2.2.2.2.2.2.<.;.;.;.;.,.2.2.2.2.1.<.<.<.<.<.<.<.<.<.o.o.o.;.;.o.<.<.<.<.<.<.<.<.<.<.o.o.o.I i e t R +.<.5...b * X N.",
"Z.s s { <.w.w.@.C ; X # l 1.2.q.2.w.2.w.2.2.2.2.2.2.2.2.2.2.2.w.w.d.d.2.d.7.w.q.7.7.7.7.7.1.1.1.7.<.7.1.1.7.1.1.1.1.<.1.<.<.{ s p j +.5.r.r.@.B * O N.",
"Z.M b @.1.r.r.>.S < + # C q.w.t.r.t.t.t.t.t.t.r.2.t.w.w.t.t.t.f.f.d.d.d.d.d.w.w.d.7.7.0.w.w.w.w.d.7.d.d.w.d.d.d.d.d.d.d.d.7.@.B s B 5.t.h.h.&.D - $ N.",
"J.N m &.r.f.h.6.K 1 + $ F f.l.f.l.h.h.l.l.l.l.h.f.f.f.f.f.l.l.x.l.f.t.d.f.d.d.d.d.d.d.d.r.w.w.w.d.d.h.f.h.f.l.f.h.z.h.h.z.z.7.J B D 0.g.h.h.&.A * @ N.",
"J.B B 5.t.h.z.9.( < @ % ^ z.z.c.c.z.c.c.z.x.x.x.x.x.x.x.l.x.x.v.x.z.l.l.l.h.l.f.f.f.f.f.d.f.f.d.f.h.h.l.z.f.z.z.z.z.z.z.z.z.0.J B J 9.h.h.h.@.B * @ N.",
"J.B B 5.t.h.h.9.^ 1 @ $ i.L.L.K.L.G.G.L.G.G.G.G.n.G.D.G.G.G.G.K.P.K.K.K.K.K.K.K.K.K.K.K.K.G.K.K.K.K.K.K.K.K.K.F.K.K.b.K.K.K.d.M N B 5.0.d.0...n * @ N.",
"J.N G 3.r.h.h.4.^ 1 + b &.3.@.@.&.@.@.@.@.@.@.@.@.+.+.@.+.&.&.3.5.5.&.&.&.&.&.&.&.&.@.@.&.@.%.@.&.&.&.&.@.@.@.+.O.O.@.O.O.#.o.| N B 5.g.f.r.O.n * @ N.",
"J.G B 3.r.t.a.3.F < g O.........] X.O.O.O.O.O...] ] ] ] ] +.+.@.@.+.@.@.@.&.&.@.@.%.@.@.O.@.@.@.o.&.&.*.&.&.&.%.o.#.@.#.@.@.#.o.( D 0.h.z.h.@.A * @ N.",
"J.G B 3.e.a.t.3.F ( w.q.e.7.7.e.q.q.r.e.e.q.q.q.7.9.q.q.e.r.t.t.d.f.d.h.d.f.f.d.t.r.d.t.d.d.d.d.d.f.h.z.h.h.h.h.f.d.d.d.d.d.d.d.d.9.0.k.h.k.5.A - @ N.",
"J.G B 3.e.h.h.4.e.b.v.b.v.D.v.D.n.n.n.n.b.n.b.x.x.x.v.v.v.D.D.D.F.n.D.v.D.b.b.b.b.b.b.b.b.b.S.b.b.b.b.b.b.b.b.b.b.b.b.b.b.c.v.v.c.b.z.r.h.d.+.N * @ N.",
"J.G N 3.r.h.h.a.l.a.h.l.l.z.z.z.x.a.a.a.l.l.l.l.z.l.l.l.l.z.z.x.c.z.l.l.h.h.h.z.h.l.l.h.z.h.l.h.z.f.h.h.h.h.h.h.h.f.h.f.d.f.f.h.d.h.z.h.f.d.&.C - @ N.",
"J.N N 3.r.l.l.t.t.t.t.r.t.t.t.a.t.e.t.t.t.t.a.a.a.t.t.t.t.a.t.h.f.h.f.h.h.h.h.h.h.h.h.h.h.h.h.h.f.d.d.d.t.r.r.d.t.f.d.d.d.d.d.d.d.f.f.h.z.h.=.D - @ N.",
"J.N N 3.e.a.t.e.2.4.,.:.:.,.,.4.4.,.4.4.2.q.t.r.t.r.e.e.e.e.q.q.q.7.w.q.7.w.7.7.w.7.q.w.7.0.7.7.7.7.7.7.7.7.e.e.w.w.9.6.7.7.6.6.6.6.7.0.d.0.&.C - @ N.",
"J.N m &.3.&.+.] ] U P Z P P P P P Y / ! ) [ ] O.+.O.O.X.] ] ] ] ) ) ) / / / ) ( / ) ) ) / / ) ) / ( ..) ) ....) O.) ....) ( ..R R Y Y Y ( .. .s * @ N.",
"J.N N ' ` L H H A n n v v k v V v V B A H H H H H K H H H H H A H B B B A A m m m A B B m B A A B A D G D G A D D A A G m B A m m m M m m G D j * @ N.",
"J.N %.y.y.y.y.*.*.%.$.$.$.$.$.$.$.] ] ' ' %.%.*.*.8.*.*.%.*.*.8.y.*.$.$.%.' $.$.$.$.%.$.$.$.$.%.%.%.%.%.%.%.%.O.%.#. .@.#.O. .#.O. .#.#.#.#.%.%.s o N.",
"H.y.S.A.A.A.A.A.A.k.k.s.k.a.A.s.s.s.A.s.s.a.s.S.A.A.s.s.s.s.s.A.S.a.s.s.p.p.p.p.g.j.j.j.j.j.j.j.k.k.j.j.j.j.g.g.p.i.p.i.p.i.p.i.p.i.g.g.j.g.j.j.g.J N."
};
