/* XPM */
static char *i_[] = {
/* columns rows colors chars-per-pixel */
"75 67 167 2",
"   c #000000",
".  c #0D0A07",
"X  c #140E0A",
"o  c #15100B",
"O  c #1E150D",
"+  c #20170F",
"@  c #23180F",
"#  c #211710",
"$  c #231911",
"%  c #2A1D14",
"&  c #2E2116",
"*  c #312317",
"=  c #3B2717",
"-  c #33251A",
";  c #36281C",
":  c #3D2B1C",
">  c #3F2E20",
",  c #412D1E",
"<  c #43301F",
"1  c #432F20",
"2  c #453222",
"3  c #493524",
"4  c #4C3827",
"5  c #4E3A29",
"6  c #523A26",
"7  c #5C432D",
"8  c #62442C",
"9  c #744E2D",
"0  c #644933",
"q  c #6C4D34",
"w  c #664C39",
"e  c #724E33",
"r  c #745235",
"t  c #7A5535",
"y  c #765539",
"u  c #79563A",
"i  c #7C5A3D",
"p  c #775B42",
"a  c #7E5D42",
"s  c #7F6042",
"d  c #825732",
"f  c #865A36",
"g  c #835D3D",
"h  c #8A5E3C",
"j  c #86603F",
"k  c #8D613D",
"l  c #92653E",
"z  c #9B663B",
"x  c #9D693E",
"c  c #AA6E3E",
"v  c #825E42",
"b  c #846144",
"n  c #8B6444",
"m  c #8E6847",
"M  c #856449",
"N  c #8A664A",
"B  c #8D694B",
"V  c #926643",
"C  c #946945",
"Z  c #9D6B43",
"A  c #936B4B",
"S  c #9A6D4A",
"D  c #96704F",
"F  c #9D714D",
"G  c #916E51",
"H  c #977252",
"J  c #9A7352",
"K  c #A16D44",
"L  c #AC6F40",
"P  c #A57245",
"I  c #AD7243",
"U  c #A5724A",
"Y  c #AA764B",
"T  c #A2784F",
"R  c #AC794E",
"E  c #B27646",
"W  c #B47748",
"Q  c #B47A4B",
"!  c #BA7D4E",
"~  c #A27652",
"^  c #A37953",
"/  c #AE7C52",
"(  c #A47B5A",
")  c #A97F5E",
"_  c #B27E54",
"`  c #BC7F50",
"'  c #BB824E",
"]  c #AC815E",
"[  c #B48156",
"{  c #BD8253",
"}  c #BE8853",
"|  c #B6835A",
" . c #BA865B",
".. c #BC895E",
"X. c #AD8462",
"o. c #B28663",
"O. c #B88761",
"+. c #B38965",
"@. c #BD8C63",
"#. c #B48968",
"$. c #BC8E6A",
"%. c #C18655",
"&. c #C48A56",
"*. c #C18758",
"=. c #C58B5B",
"-. c #CA8E5D",
";. c #C7905A",
":. c #CB925D",
">. c #D0935F",
",. c #C38D61",
"<. c #C98F61",
"1. c #C08F69",
"2. c #C59165",
"3. c #CD9262",
"4. c #CF9862",
"5. c #C69469",
"6. c #CC966A",
"7. c #CE996A",
"8. c #D19564",
"9. c #D39A66",
"0. c #D39768",
"q. c #D59A6A",
"w. c #D99E6C",
"e. c #C19571",
"r. c #C99770",
"t. c #CD9C74",
"y. c #CF9F78",
"u. c #D19E76",
"i. c #DB9F70",
"p. c #D19F78",
"a. c #D7A06B",
"s. c #DCA16E",
"d. c #D3A075",
"f. c #DEA271",
"g. c #DFA872",
"h. c #D3A27A",
"j. c #D9A57D",
"k. c #E1A573",
"l. c #E4A976",
"z. c #E8A977",
"x. c #E6A978",
"c. c #EBAD7A",
"v. c #EEB17D",
"b. c #F0B17E",
"n. c #8F8B87",
"m. c #8F8A88",
"M. c #908D89",
"N. c #B8A79A",
"B. c #BCAB9D",
"V. c #BEADA0",
"C. c #BDB6B0",
"Z. c #DEAA81",
"A. c #E1AC83",
"S. c #F3B582",
"D. c #F4BA87",
"F. c #F6BD8A",
"G. c #F9BF8D",
"H. c #C0AFA2",
"J. c #C3B2A4",
"K. c #CDB5A2",
"L. c #D0B7A5",
"P. c #D1B9A6",
"I. c #D5BDAA",
"U. c #FAC18F",
"Y. c #FBC391",
"T. c #D9C1AE",
"R. c #EFEAE7",
/* pixels */
"R.P.P.I.I.I.I.L.I.P.I.I.I.I.T.T.I.T.T.I.I.T.T.T.T.T.T.I.I.I.I.I.T.I.L.L.L.L.L.K.K.K.K.K.K.K.K.K.K.L.L.L.L.L.L.L.I.I.I.I.I.L.I.I.I.I.I.I.I.I.I.I.I.I.C.",
"V.C / / / / R Y R / _ _ _ O._ ,._ @.1.,.@.1.) _ _ _ ) ` _ _ _ _ _ _ Y Y Y U K Z Z V z z Z Z Z K K K K K U U / / / / / / _ _ _ _ _ _ ) _ / | _ _ | 7 m.",
"V.v A ,.<.<.=.*. .*.,.<.,.3.6.3.3.6.r.3.8.8.3.3.<.<.8.<.,.=.,.,.,.-.*.*.*.*. .` ` ` ` ` ` ` {  .{ ` ` { { *.*.,.,.=.<.-.<.-.<.<.2.3.3.2.5.<.<.2.w $ M.",
"V.M n 6.c.c.z.k.i.k.i.k.z.z.c.z.c.c.S.S.A.c.c.c.c.z.z.z.z.z.z.z.Z.c.S.z.A.z.S.A.S.c.Z.c.z.Z.z.c.A.z.z.Z.c.c.c.c.A.S.A.b.S.A.S.S.S.S.S.D.D.D.S.O.; % M.",
"H.M N ,.i.x.k.i.i.i.i.i.i.i.k.i.k.z.z.z.x.z.k.x.k.k.k.k.k.k.z.k.i.z.z.z.z.z.z.z.c.c.z.z.z.A.z.Z.z.z.k.k.z.z.A.c.z.z.Z.z.z.z.Z.z.x.c.A.c.x.v.6.S ; $ M.",
"H.M v ,.0.i.i.0.8.8.0.i.i.i.i.i.i.i.i.i.i.i.i.i.k.k.k.i.k.k.i.i.i.i.i.i.i.i.i.i.i.i.i.i.i.i.i.i.i.i.i.i.i.i.i.k.k.i.i.i.i.i.i.i.g.f.k.s.s.d. .B - $ M.",
"V.v v _ ,.0.8.3.-.>.<.<.<.8.3.8.q.q.0.w.i.q.i.i.i.i.i.i.i.i.i.i.i.8.<.-.<.=.*.*.*.*.-.-.-.-.<.3.3.0.8.0.0.i.0.i.0.0.i.0.0.0.0.0.w.0.q.0.q.7.[ n - $ n.",
"V.p i R ` <.=._ _ Q / / _ _ _ _ _  ._ O._ O.O.$.) <.,.@.O.1._ ,.| _ U U U U K L Z Z K K U W Y / R _ _ _ _ _ _ _ _ ` _ _ _ _ ` *.| |  .*.:.:./ j - # m.",
"N.p v R ` *.=./ V A A A A A N A G H D H H J H J J J J H J ( J ~ S J A A n n n v v v v V n n V A A A A A G D A D G S H G G J J J D D / %.=.=.R g - O M.",
"N.v v _ *.<.<._ V w ) ) ( ) ) ) ) ) ) #.#.) #.) #.#.#.X.#.) #.) ) ) ) ) ) ( ( ( ( ( ( ~ ( ( ) ) ) ) ( ) ) ) ) ) ) ) ) ) ) ) #.) +.S /  .=.%.U f * O M.",
"H.v v ` <.3.8.` V 1 0 r.r.r.t.t.t.y.p.p.p.r.p.r.Z.Z.t.y.p.p.p.p.Z.r.Z.Z.e.r.r.r.r.r.r.r.r.r.t.r.p.r.r.r.r.t.t.t.Z.t.t.t.t.t.Z.p.J b [ %.:.*.R g & O M.",
"J.v v  .3.0.0.1.S 1 # w Z.r.Z.Z.p.Z.p.p.Z.Z.Z.Z.e.Z.Z.y.Z.Z.p.p.Z.Z.e.Z.Z.p.Z.Z.Z.p.p.p.p.p.p.p.p.r.r.r.r.t.t.p.Z.e.Z.e.Z.r.Z.G b n ..2.4.-./ g * O M.",
"H.v v U *.<.<.` Z 1 @ % N O.1.1.1.1.@.@.$.@.O.,.#.$.$.$.1.1.1.1.) ) O.O.1.O.,.O._ ) *.O.O._ O. .) _ 1._ ,.1.1.1.1.,.1.1.) 1._ N s n ..3.7.4.[ j * O M.",
"N.p e Z / ` *.` V : @ % v <.8.0.8.>.3.3.<.<.8.3.<.3.<.8.3.8.<.8.3.<.-.-.-.-.-.-.<.<.-.%.*.<.%.%.*.<.<.i.0.0.0.0.i.0.0.0.8.<._ v s n ,.7.a.4.[ j - O M.",
"N.u e z W ` ` W V = # @ v %.-.-.3.-.-.-.3.-.-.-.-.<.3.<.3.3.3.8.0.<.<.<.-.-.*.*.*.-.%.-.=.*.=.-.-.-.<.8.0.0.0.w.0.0.0.3.<.-._ v i g [ ..;.} c i - O M.",
"N.e e z I W ` E v = # @ f ` %.*.=.-.-.-.-.=.-.=.-.-.-.-.>.<.3.3.8.8.8.3.<.-.*.*.*.%.%.*.-.-.<.<.>.<.<.<.<.8.0.0.8.8.-.*.%.` U a r 9 z P I I l 9 % O n.",
"N.e e Z W ` ` E v : # # f ` ` ` ` *.=.*.%.%.%.%.%.%.%.%.%.%.%.%.%.%.%.%.` ` %.` ` ` %.%.%.%.*.%.*.*.-.-.-.-.-.-.=.%.%.%.` ! I y r r K I ! E x 9 & O n.",
"N.u e K W ` %.R V : # # h ` ` W W ` ` ` ` ` ` W ! W W W E E E L E c c c E E E ! ` ` ! ` ` ` ` ! ` ` ` %.%.%.%.` W ! ! ` ` ` I u r t Y { { { Z t & O n.",
"N.u e K W %.%./ V : # $ V ` ` ` W W W W E W L E L L L L L L c c c c c E E W W ! ` ` ` ` ` ` ! W W W W W W W W W W W ` ` *.=._ v p v [ -.3.2./ j * O n.",
"N.p u K Q ` *.Q V > # % V ` *.` ` W L L L L L L c L L L c c c c c E W ! ! ` ` %.` %.%.` ` ` ! ! ! W L L E W W W W ! %.%.-.<.*.M b n =.6.a.q.| m - O n.",
"N.a v R  .-.<.` S 1 # & Z 3.8.-.-.%.%.%.%.%.%.%.%.` %.` { %.{ { %.%.%.=.%.=.=.=.-.=.=.*.*.*.%.%.%.` ` ` %.%.%.%.%.*.=.<.8.0.,.N N n ,.0.d.q...C - $ M.",
"H.v v ` =.8.0.@.S 3 # & F w.i.w.0.0.0.0.0.0.0.0.0.w.0.w.i.0.i.i.q.8.3.>.8.8.S S K S -.<.<.<.=.%.=.>.8.0.0.0.0.>.3.3.8.8.0.0.,.N M N ..6.w.q. .m - $ M.",
"H.v v O.<.0.0.<.F 3 # & F i.i.i.i.0.i.0.w.i.i.i.i.i.i.i.i.i.i.i.i.i.<.8 X             * R 8.3.3.3.0.i.i.i.i.i.i.0.0.0.0.0.0.,.v M n ..6.w.q...m - $ M.",
"J.M v { <.0.0.O.S 2 $ & S 0.0.0.0.8.3.3.>.>.8.>.8.8.0.0.0.8.0.0.q.v X                   q w.w.0.w.w.i.i.i.k.i.i.0.w.0.0.i.i.<.B M B =.7.w.w...B ; $ M.",
"H.M v _ <.3.3. .S 1 # % S 3.3.8.>.-.-.3.-.8.<.3.-.3.3.3.3.8.8.8.v               .       e w.w.w.i.i.0.i.i.w.w.w.0.0.8.0.0.0.-.N M M =.2.q.9.| n * $ M.",
"H.M M _ <.3.3.` V : # % V -.<.<.>.3.3.3.-.<.8.3.8.8.8.8.8.8.6.U .         & 7 n v 8 ,   v q.w.0.0.0.0.0.0.i.i.0.0.0.8.8.0.0.,.N b n  .=.3.-.Q g * # M.",
"H.M v _ =.<.<.` V : # % V <.-.-.-.3.3.8.8.8.8.8.<.8.8.8.8.8.0.%         0 8.<.3.-.3.3.3.3.8.3.3.>.0.8.0.w.w.i.0.0.8.8.8.8.8.{ v v n [ -.3.2.Q g * $ M.",
"H.M M ` <.<.<._ V 1 # % V -.<.>.3.3.3.8.8.8.-.8.8.8.8.8.8.3.U         8 -.-.-.=.-.-.-.-.=.-.=.-.-.>.8.i.w.i.i.i.0.-.-.-.,.3.` v i n  .2.8.3.[ b * + n.",
"V.v v _ *.<.<.` V 1 # # V <.3.3.3.3.8.8.8.3.8.-.-.8.8.-.8.-.5         ! =.-.&.=.*.-.*.%.*.-.*.*.*.-.-.8.0.w.0.0.3.-.-.-.<.*.` v i v  .2.8.2./ j * $ n.",
"H.p v _ *.<.<._ V : O % V <.-.-.3.3.3.3.3.3.-.8.-.8.8.<.8.8.o       6 -.-.-.-.-.=.=.-.-.-.*.-.-.-.` ` %.-.-.-.-.*.-.%.*.*.-._ v a h ` *.-.=./ f & O n.",
"B.v v _ *.3.<.` V 1 O % V <.<.3.3.>.3.3.3.-.8.8.8.8.8.8.8.` X       q 3.-.3.-.-.-.3.3.-.-.-.-.-.-.%.%.%.*.-.8.-.-.-.*.-.<.3.` v v v _  .-.=.R g & O M.",
"H.M v _ 3.0.0.,.S 1 # % V 8.0.0.0.8.8.8.8.8.8.8.0.8.8.8.0.Z .       v g , .     # = v 8.0.>.8.8.>.-.-.-.8.0.0.0.8.8.-.>.>.0.) N b n [ =.:.:._ g * + M.",
"H.M n  .8.q.w...S 2 # % Z 8.w.q.0.8.8.8.8.8.>.>.3.8.8.>.3.g         .                 & | 9.8.8.8.-.&.-.:.8.9.0.8.8.8.:.8.8. .b s b [ =.2.:./ j * @ n.",
"H.b b  .3.9.9...S 1 # % S 9.q.q.0.8.8.>.-.>.-.>.&.&.&.&.=.e                             % 9.8.8.:.{ ! ! %.=.;.-.-.-.:.:.8.:. .v i g Q { =.=./ g * O M.",
"V.b v _ =.3.3.{ C , @ % V >.>.>.>.-.>.-.-.-.-.&.&.&.%.%.%.8             o * * o           n ;.;.-.' ' %.%.-.-.-.;.:.3.8.3.4. .b i j Q ..=.-./ g * O M.",
"B.p f Y { %.&.R h , @ @ h %.&.%.%.%.%.%.%.-.&.&.%.&.%.%.&.8         & l Q ! ! ! ,         : %.%.%.%.&.&.:.:.:.:.:.:.:.8.8.9.*.b a j [ *.:.-./ j * + n.",
"B.u u P ! { %.I h , + @ f ' ' %.%.` ` %.&.&.&.&.-.&.&.&.&.9         t ' ' ' %.%.Q         $ ;.;.&.;.:.:.>.8.:.4.3.:.:.8.8.9...b a b { =.:.:._ n * $ M.",
"N.r 9 K E ! ! I f = + @ d Q Q Q W ! ! ` ` ` &.&.&.&.=.&.&.t         r :.:.>.>.>.6.O         w.a.w.9.9.9.9.9.9.4.:.:.3.:.9.9.=.M b n [ -.8.2.[ n * # M.",
"B.u i Y ' %.&.Q h , O @ k ' { %.%.%.%.&.-.>.8.>.8.0.8.>.8.n         q a.w.a.a.s.s.;       . s.s.a.w.w.q.9.q.9.8.8.:.:.8.6.9.=.M b b  .:.8.3.[ n * $ n.",
"V.b v ` -.0.0.%.Z , @ % C 8.8.8.>.>.>.w.w.w.i.i.k.k.k.z.k.@.        4 l.l.l.l.l.k.o       % g.s.s.s.w.q.w.q.9.8.3.:.:.4.>.9...M b n  .2.0.8.| n ; $ n.",
"J.M b ..9.w.w.2.J 3 @ & F s.s.w.k.s.w.k.k.k.k.z.z.z.z.z.z.s.        . f.l.l.l.l...        5 s.s.a.s.s.a.w.w.a.>.9.8.9.9.8.9...m s m ..4.9.0. .m ; $ M.",
"J.N N =.q.f.k.6.^ 3 $ & ~ k.l.l.z.z.z.z.k.z.z.z.z.z.z.z.z.g.3         b g.g.g.d.>         i a.q.w.w.s.s.a.a.a.a.w.q.q.w.q.9.=.N M m ..7.q.q. .m ; $ M.",
"J.N N ..0.f.f.2.T 2 $ & J k.z.z.z.z.z.z.z.z.z.k.z.k.k.z.k.k.c           0 m y -         & a.a.a.w.w.s.f.s.a.a.s.a.s.a.s.a.w.2.B M A =.7.a.q.O.A ; $ M.",
"J.M b  .8.w.q.-.F 2 $ & F f.f.f.k.k.k.k.w.w.w.w.w.w.w.w.w.w.a.=                         [ g.l.l.l.s.f.f.s.s.s.g.k.k.k.s.f.s.5.B N A 2.0.w.w.@.B ; $ M.",
"J.N b  .3.w.q.-.F < $ & I s.s.s.s.s.z.s.w.w.w.q.9.w.w.w.w.w.w.>.O                   o J l.l.l.g.l.g.g.s.g.g.s.g.g.l.g.g.s.s.2.B N B 2.9.a.a.@.m ; $ M.",
"J.N B ,.9.w.w.,.U < $ & P s.s.k.z.k.k.s.k.w.w.w.w.s.s.s.s.s.s.s.6.q .           . 7 7.s.a.g.g.g.g.g.s.s.a.a.a.a.a.a.a.a.a.9...N N m 2.7.a.a.| m - $ M.",
"J.B B ;.9.s.w.-.F < @ & S w.s.k.s.s.s.s.w.s.w.w.s.s.s.s.k.k.s.s.s.w.9.R T i ] 4.s.s.a.a.a.a.a.a.a.a.s.a.4.4.4.a.a.a.4.a.4.:.} M M m ..6.a.7.| m - $ M.",
"J.B B *.8.w.9...S < @ % Z q.w.w.s.>.9.>.>.>.>.>.9.9.s.w.w.w.w.s.w.a.a.a.s.s.a.a.a.a.a.4.4.a.>.4.a.a.a.>.4.:.;.:.4.:.4.;.;.;.[ s s n ..2.7.4.] s - $ M.",
"V.M b [ -.>.>.{ C < @ % l 4.8.9.9.>.>.>.>.&.>.>.>.>.>.>.>.>.w.>.9.9.9.9.4.a.a.>.4.4.4.;.;.;.;.;.;.:.>.:.:.;.;.;.;.;.;.} } } ' r y s [ ..;.:.[ j & + M.",
"V.i i R %.:.>.' l , O % l :.>.8.>.>.>.-.>.&.&.&.&.&.&.&.;.:.>.>.>.:.;.;.;.;.;.;.;.} ;.;.} &.&.} } ;.:.;.;.;.;.;.;.;.;.} } ' x r r t P ' ..;.R j * $ M.",
"B.t t E %.-.-.' l : @ % l -.:.>.>.>.>.>.>.&.&.&.%.' &.%.;.-.>.>.>.;.;.;.;.;.;.;.;.} } } &.} &.} } } ;.;.;.;.;.;.} ;.} } } ' P y r t P { ;.=.[ b * + M.",
"B.s i [ ;.>.8. .C < @ @ l :.>.>.>.9.>.>.>.>.>.>.>.>.>.>.>.>.>.>.a.>.4.>.4.>.>.>.4.4.4.:.:.;.;.;.;.4.:.;.:.:.:.:.:.:.;.:.} } ' s i j [ 2.7.9.| m ; $ M.",
"V.b b { :.w.q.*.F < # % l >.8.8.9.q.w.w.w.w.q.9.>.>.>.>.w.w.w.a.s.a.w.a.a.a.9.9.4.4.4.a.9.4.4.9.4.a.>.a.>.4.9.9.7.a.7.a.a.4.} s s N @.q.d.f.@.A ; $ M.",
"J.N b ..9.s.k.2.F 2 $ & F w.f.f.k.s.f.f.f.f.k.f.s.k.w.s.s.k.f.k.g.s.w.a.a.a.a.w.a.a.a.4.9.9.q.9.a.a.g.g.g.g.s.g.g.g.g.g.g.g.7.G N D 4.d.k.g.@.A ; $ M.",
"J.B B 2.q.g.k.6.^ 2 $ & ~ k.z.z.z.k.z.z.z.f.k.k.k.k.k.k.k.z.z.z.z.g.s.s.s.s.s.a.a.a.a.a.a.w.a.a.a.s.g.g.l.g.l.l.g.l.g.g.g.g.7.G B H 6.d.g.f...C ; $ M.",
"J.B B 5.w.f.k.5.^ 3 % & @.U.U.U.U.F.F.G.U.U.Y.Y.F.F.D.F.D.G.G.U.Y.U.U.U.U.U.U.U.U.U.U.U.F.U.F.U.U.U.U.b.D.U.D.D.D.U.v.U.U.U.a.B N A 2.7.w.0.[ n * + M.",
"J.B B ,.q.k.k.2.^ 3 % 8 | 2.2.2.<.2.1.,.,.2.,.,.,.,.,.,.2.2.5.5.4.4.5.5.5.5.5.5.5.2.5.5.@.5.5.2.2.5.2.2.2.2.2.@.....@.........J M B 2.q.w.7.[ n - $ M.",
"J.B B ,.0.w.w.,.F 2 q [ | [ | [ _ [  . . .|  ._ [ _ _ _ [ |  ..................... . . . . .| | | @.@.@...@...@.........@.......^ D 7.g.l.f.@.C ; $ M.",
"J.G A ,.q.w.w.,.F V 2.-.2.3.<.<.-.8.8.3.3.6.3.<.,.<.:.<.3.6.0.0.7.q.q.7.7.q.7.7.0.7.7.6.6.6.7.7.7.q.d.a.a.a.q.q.a.7.7.4.7.a.7.7.7.@.7.d.j.g.@.A ; $ M.",
"C.B B ,.q.f.f.<.2.b.b.v.b.c.b.b.b.c.b.c.c.c.c.c.z.c.c.c.c.b.b.S.S.b.S.v.v.v.v.v.v.v.v.v.v.v.v.v.v.v.v.S.v.v.v.v.c.v.v.v.c.l.c.v.v.v.f.w.f.s...N ; + M.",
"J.B B ,.q.k.f.q.z.k.f.k.z.z.z.z.z.k.k.k.k.k.k.k.k.k.k.k.z.z.z.z.x.x.l.l.l.l.l.l.g.l.g.g.l.l.l.l.g.f.k.k.s.f.s.k.s.k.f.s.a.g.s.s.s.k.l.f.a.a...s ; + M.",
"J.B B ,.q.k.f.i.q.w.w.w.q.w.s.w.w.w.0.w.w.s.i.i.s.w.w.w.s.w.s.s.s.s.s.s.s.s.s.s.f.f.f.f.s.s.s.s.f.a.w.a.w.w.a.s.w.a.s.w.a.a.a.a.a.a.f.f.g.g.2.] ; $ M.",
"J.N N ,.q.i.w.q.8.>.-.-.-.-.>.8.3.-.-.3.8.9.q.q.w.q.q.q.0.0.8.8.9.9.7.4.7.4.9.9.9.9.9.9.9.9.9.q.9.8.4.4.4.7.0.9.9.q.7.9.4.4.8.:.;.4.4.4.a.a...B ; $ M.",
"J.B M @.,.,. .[ _ Y K Z c K K K U U E _ _ `  . . . . . .| _ [ [ [ / R [ R [ R [ / / / / / / / / / / / _ [ [ [ [ [ [ [ [ / [ [ R R T [ F [ ] [ s - $ M.",
"J.N N ) ( ( J D A V v v V v V v V V V N F J F J J J J J G F G S G A A A A A A A V B B A C B C B A A D m D D A A D D A D A m m m m m j m m B D s & + M.",
"H.N X.e.e.1.$.$.#.$.O.) _ ) ) ) ) ) ) ) ) ) ) 1.$.1.1.) ) 1.) 1.1.) ) ) ) ) O.) o.o.o.o.o.O.X.+.+.+.+.+.o.o.o.o.] ] ] ] ] ] ] ] ] ] X.X.o.o.+.+.p + M.",
"J.#.A.A.Z.Z.Z.Z.j.p.Z.p.Z.Z.p.Z.Z.p.i.p.i.p.p.j.Z.Z.Z.t.p.Z.A.A.Z.Z.p.p.p.p.p.p.h.h.p.p.d.h.h.h.j.j.h.h.d.h.h.y.u.u.t.u.d.d.t.t.y.y.y.y.d.h.h.h.h.s M."
};
