/* XPM */
static char *ix[] = {
/* columns rows colors chars-per-pixel */
"75 67 172 2",
"   c #000000",
".  c #0D0906",
"X  c #150F0A",
"o  c #15100B",
"O  c #1E150E",
"+  c #20170F",
"@  c #23180F",
"#  c #211710",
"$  c #231911",
"%  c #2A1D14",
"&  c #2E2116",
"*  c #312317",
"=  c #3B2717",
"-  c #332519",
";  c #382719",
":  c #36281C",
">  c #3D2B1C",
",  c #412E1E",
"<  c #43301F",
"1  c #48321F",
"2  c #432F20",
"3  c #453222",
"4  c #4A3524",
"5  c #4E3928",
"6  c #503722",
"7  c #5D3F27",
"8  c #5E4027",
"9  c #5B412A",
"0  c #5E4630",
"q  c #62452C",
"w  c #744E2D",
"e  c #644933",
"r  c #6A4C34",
"t  c #664C39",
"y  c #734E32",
"u  c #745236",
"i  c #7A5535",
"p  c #755439",
"a  c #7A563A",
"s  c #7C5A3D",
"d  c #775B42",
"f  c #7E5D42",
"g  c #7F6042",
"h  c #825732",
"j  c #865A36",
"k  c #895E37",
"l  c #835D3D",
"z  c #8A5E3C",
"x  c #86603F",
"c  c #8D613E",
"v  c #92653E",
"b  c #9B663B",
"n  c #9D693E",
"m  c #AA6E3E",
"M  c #825E42",
"N  c #846144",
"B  c #8B6444",
"V  c #8E6847",
"C  c #856449",
"Z  c #8A664A",
"A  c #8D694B",
"S  c #926642",
"D  c #946945",
"F  c #9D6B43",
"G  c #936B4B",
"H  c #9A6E4B",
"J  c #96704F",
"K  c #9D714D",
"L  c #916E51",
"P  c #977252",
"I  c #9A7352",
"U  c #A16D44",
"Y  c #AC6F40",
"T  c #A47246",
"R  c #AD7243",
"E  c #A5734A",
"W  c #AA764B",
"Q  c #AC794E",
"!  c #B27646",
"~  c #B47748",
"^  c #B47A4B",
"/  c #BA7D4E",
"(  c #A27652",
")  c #A57953",
"_  c #AE7C52",
"`  c #A47B5A",
"'  c #A97F5D",
"]  c #B27E54",
"[  c #BA7F51",
"{  c #BA834D",
"}  c #AC815F",
"|  c #B48156",
" . c #BD8253",
".. c #BE8853",
"X. c #B6835A",
"o. c #BA865B",
"O. c #B6885E",
"+. c #BC895E",
"@. c #AD8462",
"#. c #B28663",
"$. c #B88761",
"%. c #B38966",
"&. c #BD8C64",
"*. c #B48968",
"=. c #BC8E6A",
"-. c #C18555",
";. c #C38A56",
":. c #C18758",
">. c #C58B5B",
",. c #CA8E5D",
"<. c #C7905A",
"1. c #CB925D",
"2. c #D0935F",
"3. c #C38D61",
"4. c #C98F61",
"5. c #C08F69",
"6. c #C59165",
"7. c #CD9262",
"8. c #CF9862",
"9. c #C69469",
"0. c #CC9669",
"q. c #CE996B",
"w. c #D19565",
"e. c #D39A66",
"r. c #D39768",
"t. c #D59A6A",
"y. c #D99E6C",
"u. c #C19571",
"i. c #C99770",
"p. c #CD9C74",
"a. c #CF9F78",
"s. c #D19E76",
"d. c #DB9F70",
"f. c #D19F78",
"g. c #D7A06B",
"h. c #DBA16E",
"j. c #D3A075",
"k. c #DEA371",
"l. c #DFA872",
"z. c #D3A27A",
"x. c #D9A57D",
"c. c #E1A573",
"v. c #E4A876",
"b. c #E8A977",
"n. c #E6A978",
"m. c #EBAD7A",
"M. c #EEB17D",
"N. c #F0B17E",
"B. c #8F8B87",
"V. c #8F8A88",
"C. c #908D89",
"Z. c #B7A698",
"A. c #B8A79A",
"S. c #BCAB9D",
"D. c #BEADA0",
"F. c #BDB6B0",
"G. c #DEAA81",
"H. c #E1AC83",
"J. c #F3B582",
"K. c #F4BA87",
"L. c #F6BD8A",
"P. c #F9BF8D",
"I. c #C0AFA2",
"U. c #C3B2A4",
"Y. c #CDB5A2",
"T. c #D0B7A5",
"R. c #D1B9A6",
"E. c #D5BDAA",
"W. c #FAC18F",
"Q. c #FBC391",
"!. c #D9C1AE",
"~. c #EFEAE7",
/* pixels */
"~.R.R.E.E.E.E.T.T.E.E.E.E.E.!.!.E.!.!.E.E.E.E.E.E.E.E.!.E.E.E.E.!.E.T.T.T.T.T.T.T.Y.Y.Y.Y.Y.Y.Y.T.Y.Y.T.T.T.T.T.E.E.E.E.E.T.E.E.E.E.E.E.E.E.E.E.E.E.F.",
"D.D _ _ _ Q Q Q Q _ _ [ ] $.] 3.$.$.3.3.$.5.$.] $.] ] ] ] ] ] ] ] _ Q W E E U F U b b b F F F U U U U U E W W _ _ _ ~ ] ] ] ' ] ] ] ] X.] ' ] ] X.0 V.",
"D.M G 3.4.4.3.:.o.:.3.4.4.4.0.0.4.0.0.4.r.0.4.4.4.4.r.4.3.3.3.4.3.,.:.:.:.:.:.[ [ [ [ [ [ [ :.:.o.[  .o.:.:.:.>.3.4.:.,.4.4.4.4.3.6.7.9.6.6.7.7.t $ C.",
"I.C B 0.m.m.b.c.d.c.d.c.b.b.b.b.b.J.J.J.J.b.J.c.b.b.b.H.b.b.b.b.H.b.J.b.H.b.J.H.H.b.J.m.G.b.b.b.b.b.b.c.m.b.m.N.H.J.J.H.H.J.J.J.J.J.J.J.K.J.J.#.: $ C.",
"I.C B 3.d.c.c.d.d.y.d.d.d.d.c.c.c.b.b.n.b.b.b.c.b.c.c.c.c.c.c.c.c.c.b.b.b.b.b.b.H.b.b.b.b.H.b.H.G.b.c.c.c.G.b.H.J.b.G.G.b.b.b.G.n.m.J.m.m.m.q.G : $ C.",
"I.C Z 3.r.d.d.t.r.r.r.r.d.d.y.d.d.k.d.d.d.k.k.c.c.d.k.c.c.c.c.d.d.d.d.d.d.d.d.d.d.d.d.d.d.d.d.d.d.d.d.d.d.d.d.x.d.d.d.d.d.d.d.d.c.k.d.d.j.k.o.V : $ C.",
"D.M M ] 3.r.w.4.,.2.4.7.7.r.7.7.r.t.t.t.t.y.y.d.d.d.d.d.d.d.d.d.y.w.4.4.4.>.-.-.:.,.:.4.,.,.4.7.w.r.r.r.r.r.r.d.w.w.r.r.w.r.r.r.t.t.r.e.e.e.| B - # C.",
"S.d s Q [ 4.>.[ ] ^ _ _ ] ] ] ] ] $.[ $.$.] $.$.3.$.3.$.$.3.] 3.o.] ( R E E U Y F U U U Y ~ W Q ~ _ ] ] [ ] o.[ [ [ [ ] [ o.[ -.| O.o.>.1.6.] x - # C.",
"A.d M W :.-.3.~ S G G G S A A G L J J L J P L I I I I P P I P P H I L S Z B B M M M M S M B S L G G Z L L L H H L L L L G I I I J J _ >.>.>.W l - O C.",
"A.M M ] :.4.4.] S t ' ' ' ' ' ' ' @.#.#.#.*.*.*.*.*.*.*.*.#.*.#.' ' ' ' ' ` ` ` ` ` ` ( ` ` ' ' ' ' ' ' ' ' ' ' ' ' ' ' ' ' ' ' %.G ^ o.>.;.T l & O C.",
"I.M M ] :.w.w.[ S 2 e i.i.i.p.f.f.f.s.f.f.p.f.f.z.G.a.f.f.f.f.f.i.4.G.G.i.i.i.i.i.5.i.i.=.i.i.i.f.i.i.i.i.i.i.f.G.i.G.u.u.G.G.G.I N | +.>.>.W l & O C.",
"I.C C [ w.r.r.3.H 3 # t G.u.G.G.z.z.f.f.f.G.G.a.G.f.G.f.G.z.f.f.G.Z.G.G.i.G.G.G.G.G.i.G.G.i.G.G.f.i.i.i.i.f.f.f.G.i.i.G.i.u.G.L N B +.1.7.1._ l & O C.",
"D.M M R :.4.4.$.F 2 # % Z $.5.5.5.5.3.5.&.5.&.5.*.=.&.=.3.=.=.=.] =.$.$.5.$.$.&.' ] $.$.$.] $.] ' ] 5.&.3.&.5.5.5.5.5.3.' 5.] Z N Z +.7.q.8.| x - @ C.",
"A.d y F ~ [ :.[ S , # % B >.7.r.w.7.4.4.4.7.4.7.4.4.4.w.2.w.w.w.4.4.,.,.,.,.,.,.>.4.,.-.,.:.-.-.:.4.4.w.r.r.r.r.d.r.r.r.r.r.o.C g B +.e.t.8.| v * O C.",
"A.d y b ~ [ :.~ S = # # S :.4.4.7.,.7.,.,.,.,.,.,.,.4.2.7.w.w.7.w.4.,.,.,.,.:.-.>.:.,.,.:.:.,.,.4.,.4.7.r.r.d.r.r.r.w.4.4.4._ M s s | ..+.;.T s & O C.",
"Z.y y b R ~ / Y M = # # h / -.-.,.>.,.>.,.,.>.>.,.,.,.,.,.7.7.7.w.w.r.7.4.,.,.-.:.:.-.-.,.,.,.4.w.,.,.4.4.w.w.r.w.w.4.>.-.[ Y p u w n T ! R v w % O B.",
"Z.y y b ~ / [ ~ M > # # j / [ / -.-.-.-.-.-.-.-. .-.-.-. .-.-.-.-.-.-.-./ -.-.-./ -.-.-.-.>.:.:.-.,.,.-.,.,.,.,.-.-.-.-.-./ Y h y i U R ^ W n w % O B.",
"Z.d y U ~ [ :.] S > # # S / / ~ ~ / -./ -./ / ~ / ^ ~ ~ ~ ~ ! R ~ Y m Y Y Y ~ ~ / / / -./ / / / / [ -.-.-.-./ / / / / / / / E a p i W  ... .F i & O B.",
"A.y y U ~ :.:.~ S > # % M [ [ / ~ ~ ~ ~ ~ ~ ~ Y R R Y Y m m m m m m Y ~ ~ ~ ~ / / / / / / / ~ / ~ ~ ~ ~ / / / ~ ~ ~ / -.-.3.[ M d l | ,.7.6._ x * O B.",
"A.M M b ~ [ :._ S > # % S -.-.-.[ ~ Y Y Y Y Y Y m Y Y m m m m m m ~ ~ / / [ [ -.-.-.-./ -./ / / / ~ Y Y m ~ ~ ~ ~ / -.-.4.7.:.M N V +.r.y.t.o.V - O B.",
"S.d M Q  .4.4.[ H 2 # & F 7.w.4.,.-.-.-.-.-.-.-. .-. . .-.-. .-.[ -.-.:.-.,.>.>.,.>.>.-.-.-.-.-.[ -.-./ -.-.-.-.-.-.>.7.7.r.3.Z C V 3.0.y.y.o.V ; @ C.",
"D.M M [ 4.7.r.3.H 4 # & H d.d.d.r.r.r.r.r.r.r.r.r.t.t.] H r r V [ r.7.w.7.w.w.2.2.7.,.2.,.,.>.>.>.2.w.r.r.w.w.w.w.4.w.w.r.r.3.Z N V o.r.t.y.o.V : O C.",
"D.C Z ] 4.r.r.3.I 3 % & E d.d.d.d.r.d.r.y.y.y.d.X.:               % 3.r.r.r.r.r.r.w.r.w.r.w.w.w.7.r.d.d.d.d.d.d.r.r.r.r.r.r.3.Z C Z +.q.t.t.&.V : $ C.",
"I.C Z ] 4.r.r.:.H 2 # % H r.r.r.r.w.7.7.7.7.,.7                     M d.y.y.d.r.y.d.r.y.t.r.r.t.r.d.d.d.c.d.d.d.r.r.r.r.d.d.4.M C V 3.r.g.j.o.D - $ C.",
"I.C M [ 4.w.7.:.D 2 # % S w.w.7.2.,.,.7.4.7.3                       B y.d.t.y.t.y.y.r.y.y.y.d.y.y.d.y.y.d.d.d.d.r.r.r.r.r.r.4.B C Z +.7.t.0.X.Z - $ C.",
"I.C C ] ,.w.4.[ S 2 # % S ,.4.,.7.7.,.2.4.y         . > r U H s , . Q r.r.r.r.r.r.w.r.r.r.r.t.r.r.r.w.r.r.d.d.r.r.r.w.w.r.r.4.Z N B  .>.1.6.^ l * + V.",
"D.C C ] :.4.4.X.S 2 # % S ,.4.,.,.7.w.w.$..       . D w.w.7.7.w.w.w.w.7.7.2.7.2.,.2.7.,.U 2 - r 2.w.r.r.d.y.r.r.r.w.2.7.7.7.o.M f B | 3.7.1.Q l * O C.",
"I.C M ] ,.7.4.] S > # % S ,.7.7.7.4.w.w.a         H 4.w.w.w.7.7.7.,.,.4.4.,.,.>.,.,.,.,.-       ~ 2.w.r.d.d.d.d.r.2.,.,.w.4.[ M f B o.7.r.7.] B * $ V.",
"D.M M ] :.4.4.[ S > # # S 4.4.4.7.w.r.r.# .     % w.7.w.7.7.7.7.,.,.,.,.>.>.>.>.>.-.>.,.-       ~ 4.4.4.r.r.r.w.7.,.,.,.:.,./ M s M  .3.w.6.] l * + C.",
"S.M M ] :.4.>.[ S 2 # % S >.,.,.,.,.4.[         a 7.7.4.2.w.4.w.4.,.,.,.,.,.,.,.,.>.,.-.-       ~ :.-.-.,.,.7.,.,.,.-.-.:.4.[ M f l  .>.,.>.Q l & O C.",
"S.M M ] :.4.4.o.S , # % S 4.4.w.w.2.7.F         H w.w.w.Q ] r.r.w.w.4.w.4.7.2.,.4.7.4.4.-       ] -.-.-.,.,.7.7.,.,.-.,.4.4.[ C M N ] o.<.>.Q l * O B.",
"I.C M ] r.r.r.:.H 2 # % S r.r.r.r.r.w.y         E r %         ; y w.w.w.w.w.w.w.w.r.w.r.:       [ ,.,.,.2.r.r.w.w.7.4.7.4.4.$.C M B  .>.1.1.] l * + C.",
"I.C Z o.r.t.y.+.H 2 @ % F r.y.t.r.w.w.r                         . & O.r.r.e.r.e.t.t.e.t.-       | ,.>.>.1.r.e.r.7.r.7.w.w.w.+.N g N | >.6.1.] l * + C.",
"I.N N o.7.e.e.o.H 2 # % F w.y.t.r.w.2.5                             3 y.t.7.u r r r r r O       9 8 7 8 q q F 1.,.,.1.7.1.1. .N s l ^ ..>.>._ l * O C.",
"I.M l [ >.1.1. .S , @ % D 4.2.,.1.,.,.1             ; q 6 O           E ,.F                                 , 1.1.,.1.1.w.7.o.N s x ]  .>.,._ l * + B.",
"S.f a Q  .-.;.^ c , + % z -.;.;.;.;.-.4         6  .;.-.;. .;         6 ^ k                                 * 7.1.1.7.w.e.e.+.N s x | +.1.,._ x * + C.",
"S.a a T /  .-.W k , + @ j { { -./ / -.1         S ;.-.-.-.;.U         ; { W .                               q 1.7.1.1.w.w.e.+.N f x | >.7.,.] M * + C.",
"A.u u U ! / / m j = + @ h ~ ^ ~ / / ~ 8         D ;.,.;.;.;.>..       % 1.7.7.7.8.e.t.y.:       o.e.e.e.e.e.e.1.1.1.1.w.w.e.>.N N B  .,.7.w.| B * # C.",
"S.a i Q  .-.>.^ k , O @ c -.{ -.-.-.-.w         l w.w.w.w.w.w.o       * g.h.h.h.h.k.k.k.:       3.y.t.t.t.t.t.w.7.1.1.e.w.e.+.Z N Z o.1.r.7.| V - $ V.",
"D.N l [ ,.w.r.:.F , @ % D 2.w.w.2.w.e.F         u c.v.c.c.c.t.        0 c.v.c.c.v.l.v.l.>       &.h.h.t.t.t.e.e.w.1.1.1.7.e.+.C N Z  .6.7.r.| V - # C.",
"D.C Z o.r.y.y.6.( 3 $ & K y.h.h.h.h.h.7.        $ n.n.n.v.v.J         N b.v.v.v.v.c.l.l.:       >.h.h.t.t.e.g.e.e.e.e.e.w.e.>.C C B +.7.e.e.X.V : $ C.",
"U.A Z &.e.k.c.7.) 4 $ & ( c.n.c.n.b.n.n.-         G n.n.n.q.%         O.l.l.l.l.l.h.y.y.:       o.h.h.h.g.g.g.g.t.t.t.t.t.e.<.Z C V >.0.t.t.O.V : $ C.",
"U.C Z >.r.c.k.8.( 4 $ * I c.n.n.n.n.b.n.A           5 p r o         e k.l.h.h.h.h.h.h.y.:       +.h.h.h.h.h.g.h.h.h.h.h.g.y.6.A C A 6.8.g.t.&.D : $ C.",
"U.C N +.7.t.t.3.K 3 $ % I h.c.k.h.v.c.c.t.-                       o y.h.h.l.l.l.c.c.c.c.9     . 0.k.c.l.h.h.h.h.l.c.h.k.k.h.9.A Z G 6.t.g.y.&.A : $ C.",
"D.Z N o.7.y.t.>.K 3 $ % m h.h.h.c.h.c.h.h.r.O                   > 6.g.h.h.h.l.l.c.v.l.l.v.O.| g.v.l.l.h.l.g.l.l.l.l.l.l.h.g.6.A A L 6.e.g.g.+.V : $ C.",
"U.A A >.t.y.h.3.K 3 $ & T h.c.c.c.c.c.l.h.h.r.a X           * v h.y.y.y.h.h.l.l.l.l.h.g.h.h.l.l.l.l.l.h.g.g.g.g.h.h.h.g.t.g.+.A Z V +.q.g.g.O.V - $ C.",
"U.L A ,.e.h.y.,.K < $ % T y.h.h.h.h.h.y.g.t.t.y.y.w.) _ o.h.l.h.h.t.g.g.g.h.h.h.h.h.g.g.g.g.g.g.h.g.g.g.g.8.8.g.g.g.g.8.8.1...C C V &.8.t.t.O.B - $ C.",
"F.A A >.w.t.e.+.F 3 $ % F t.y.y.y.e.e.e.2.2.2.e.e.t.y.y.h.y.h.h.t.g.g.g.h.h.h.h.g.g.g.g.8.8.g.8.g.e.g.8.1.8.<.1.1.1.1.<.<.<.| g g B o.6.r.9.} g - $ C.",
"I.N N  .,.w.2. .D , + % D 1.e.e.e.2.2.2.,.,.2.2.2.2.2.2.2.2.y.2.8.e.e.e.g.g.2.g.g.8.8.1.<.<.<.1.<.1.2.1.1.<.<.<.<.<.<.......{ p p g { +.1.6._ x * $ C.",
"S.s s Q ;.1.1.{ v , + @ v 1.2.2.2.2.2.2.,.;.;.;.;.;.;.;.<.<.2.2.2.2.<.<.<.1.<.<.<.<...<.;.;.......<.1.<.<.<.<.<.<.<.......{ m u u i T { ..<._ x - O C.",
"S.a i !  .1.,.| v > + % v <.2.2.2.2.2.2.2.,.;.;.-.-.-.;.;.2.2.2.2.<.<.<.;.;.<.<...................<.<.<.<.<.<.<.;.<.....{ { T u u i T  .<.>.| N & $ C.",
"S.s s | >.2.w. .F , + % v 1.2.2.2.2.2.2.2.2.2.2.2.;.2.2.2.2.2.2.h.2.8.8.8.1.2.2.8.8.1.1.1.1.1.<.<.1.1.<.1.1.2.1.<.1.1.1.....{ g s x | 6.q.q.X.V - $ C.",
"D.N N ..6.t.t.>.H 3 $ % S 1.r.w.w.t.y.y.y.t.t.t.2.2.2.2.y.y.y.y.h.g.g.2.g.e.g.e.g.8.g.8.e.8.8.e.8.g.8.g.2.g.e.e.g.8.g.g.g.8...g g Z 6.r.k.h.&.G : $ C.",
"U.Z V +.e.h.k.7.K 3 $ & E y.k.k.k.k.h.c.c.k.c.k.h.c.h.h.h.h.l.c.l.h.h.h.g.h.g.e.g.8.8.g.e.t.t.e.g.g.h.h.h.h.l.h.l.l.l.l.l.l.q.L A L 8.s.l.k.&.G : $ C.",
"U.A A +.t.c.c.9.) 4 $ & ( v.v.v.v.v.v.b.v.v.c.c.b.c.c.c.c.c.b.b.b.l.l.h.h.h.h.g.g.g.g.g.h.g.g.g.g.g.h.h.v.h.l.l.l.l.l.l.l.l.q.L A P 0.s.l.k.+.G : $ C.",
"U.A L 6.h.k.c.8.( 4 $ & 3.W.W.W.W.P.P.W.P.P.Q.P.N.W.K.K.P.W.W.W.Q.W.W.W.W.W.W.W.W.W.W.W.L.L.L.W.W.W.W.W.W.W.W.K.W.K.M.W.W.W.j.A A G 3.t.t.q.| B - + C.",
"U.A A 3.t.c.k.7.( 4 $ e O.6.6.6.3.9.3.5.3.9.9.3.3.3.3.3.6.3.9.9.8.0.9.9.9.9.9.9.9.9.9.6.9.6.6.6.6.6.6.6.6.6.3.3.+.+.+.+.<.&.&.I Z A 6.t.y.q.| B - $ C.",
"U.L A 3.t.y.d.3.K 3 r  .] | | ] ]  .o.X.X. .| | ] | ] ] | o.o.o.+.+.&.+.+.+.+.+.o.o.o.O.o.O.O.o.O.&.+.6.&.+.&.+.+.+.O.O.O.+.+.+.( J q.l.x.l.&.A : $ C.",
"U.A A 3.r.d.y.3.J G 6.4.4.4.4.4.,.7.w.,.7.4.4.4.3.4.,.4.7.9.t.t.t.t.q.t.q.g.q.q.q.0.q.q.8.0.q.7.8.t.j.j.g.g.t.s.g.q.q.q.e.q.e.q.q.&.0.k.v.l.&.G : $ C.",
"F.L A 3.t.h.d.4.7.m.M.M.N.N.N.J.N.N.N.N.m.J.m.m.m.m.m.m.N.N.N.J.J.M.M.M.M.M.M.M.M.M.M.M.M.M.M.M.M.M.M.M.M.M.M.M.M.m.M.M.m.m.m.m.m.M.k.s.k.y.o.G - $ C.",
"I.A A 3.t.c.k.t.c.c.c.c.c.b.b.b.b.c.c.c.c.v.c.c.c.c.c.c.v.b.b.b.m.n.v.v.v.v.v.v.l.v.v.l.v.l.v.v.l.l.c.k.k.k.c.k.c.h.k.k.l.h.h.h.h.k.v.k.l.g.O.g - $ C.",
"U.A A 3.t.c.c.y.y.y.t.y.y.y.c.y.y.y.t.t.y.k.y.d.y.h.y.y.y.h.h.h.h.h.h.h.h.h.h.h.h.k.k.h.k.k.h.h.k.g.t.y.y.g.g.h.h.y.h.g.g.g.g.g.g.g.k.l.l.l.&.} : $ C.",
"U.A A 3.t.y.y.t.w.2.,.,.,.,.,.w.7.,.,.4.w.r.r.y.t.y.t.t.r.r.w.r.e.e.q.8.e.e.e.e.e.e.e.e.e.e.e.r.e.8.r.7.8.7.r.8.e.e.q.e.8.8.7.7.1.8.8.e.e.g.O.J : $ C.",
"I.Z Z &.4.5.o.| ] ! U U U U U U U W Q ] ] [ o.o.o.o.o. .| ] | ] | _ _ Q | Q Q | _ _ _ _ _ _ _ _ _ Q | | | | X.| | | | | _ | Q | Q ) Q K | | | g - $ C.",
"U.Z V ' ` ` P J G D M M B M M B B S S G H I I I I I I I H I H L H L G H A A G D S G G G G V G A G G J G G J G J L J G J V G G V V V V V A A J g * O C.",
"I.A @.u.u.5.=.=.*.#.] *.' ] ] ' ' ' ' ' ' ' ' =.' 5.=.' ' =.' =.5.' ' ' ' ' ' ' ' *.*.' #.#.#.#.%.#.%.%.%.#.@.O.@.O.} } } } } } } } } } @.@.%.%.d O C.",
"I.*.H.H.G.G.G.G.G.f.G.f.H.G.f.G.G.f.d.G.f.d.f.f.H.H.G.G.f.G.H.H.G.G.f.p.G.f.f.f.f.x.f.f.x.f.f.x.x.z.z.z.j.z.z.z.j.p.p.p.p.j.p.p.p.p.j.j.z.z.z.z.z.g C."
};
