/* XPM */
static char *__[] = {
/* columns rows colors chars-per-pixel */
"50 50 116 2",
"   c #000000",
".  c #030303",
"X  c #0D0D0D",
"o  c #080012",
"O  c #090013",
"+  c #0A0015",
"@  c #3D0085",
"#  c #3F008B",
"$  c #3F008D",
"%  c #3F15A6",
"&  c #3629AF",
"*  c #3F20B6",
"=  c #3C2BBE",
"-  c #2E3FBA",
";  c #3534BA",
":  c #40008D",
">  c #40008E",
",  c #420093",
"<  c #430093",
"1  c #440094",
"2  c #440096",
"3  c #450099",
"4  c #470099",
"5  c #46009B",
"6  c #47009C",
"7  c #4A009E",
"8  c #43099F",
"9  c #4900A1",
"0  c #4B00A2",
"q  c #4A00A3",
"w  c #4804A2",
"e  c #4F00A5",
"r  c #4C00A6",
"t  c #4D00A6",
"y  c #4C00A7",
"u  c #4409A2",
"i  c #4E00A9",
"p  c #4E00AB",
"a  c #4F00AD",
"s  c #4B07AD",
"d  c #4E04AF",
"f  c #4B08AD",
"g  c #5000AA",
"h  c #5000AD",
"j  c #4F05B2",
"k  c #4F05B3",
"l  c #4E07B3",
"z  c #4D0CB7",
"x  c #5300B3",
"c  c #5300B4",
"v  c #5400B5",
"b  c #5401B7",
"n  c #5700B9",
"m  c #5700BC",
"M  c #5700BE",
"N  c #5800BF",
"B  c #4419B5",
"V  c #4718BB",
"C  c #204FB4",
"Z  c #214FB4",
"A  c #214FB6",
"S  c #224FB8",
"D  c #234FBA",
"F  c #244DB9",
"G  c #254DBB",
"H  c #244FBC",
"J  c #254FBD",
"K  c #274DBF",
"L  c #3836C2",
"P  c #3B33C6",
"I  c #3439C0",
"U  c #3A38C9",
"Y  c #5900C0",
"T  c #5900C1",
"R  c #5A00C3",
"E  c #5B00C5",
"W  c #5B00C6",
"Q  c #5D00C9",
"!  c #5F00CC",
"~  c #4424C4",
"^  c #274EC1",
"/  c #274FC1",
"(  c #284DC1",
")  c #2D49C6",
"_  c #2A4DC5",
"`  c #294FC5",
"'  c #2B4DC7",
"]  c #2C4CC6",
"[  c #2C4EC9",
"{  c #3140C3",
"}  c #3048CA",
"|  c #2757CC",
" . c #2C51CD",
".. c #215DC9",
"X. c #2858CF",
"o. c #2C54D1",
"O. c #2A5AD4",
"+. c #1C70D6",
"@. c #1876D4",
"#. c #1C73D9",
"$. c #1979DB",
"%. c #2165D3",
"&. c #2368D9",
"*. c #216BD9",
"=. c #1382DB",
"-. c #1480DA",
";. c #1680DE",
":. c #0E90E3",
">. c #0B97E6",
",. c #05A5EC",
"<. c #03AAED",
"1. c #03ABEE",
"2. c #02AFF0",
"3. c #00B0F0",
"4. c #00B3F1",
"5. c #00B4F2",
/* pixels */
"                                                                                                    ",
"                                                                                                    ",
"X                                                                                                   ",
"                                                                                                    ",
"                                                                                                    ",
"            + + + + + + + O + O O O O O O O O O O O O O O O O O + + O + + + + + + + O O             ",
"          O 7 v c h h h i i i i i t t t t t t r t 0 t r t t t t t t i i i a a a h x x 7 O           ",
"          + x ! Q Q E E E T T T N N M n n n n n n n n n n M n M N N T T T T E E Q Q Q x +           ",
"          + x Q W W T T T M M M N n n n n v v v c v v v n n n v M n M M M M Y E E W Q c +           ",
"          + h W W T T T M N M v v v c c v v v v c c c c c c n c b b n M M M Y T T W W h +           ",
"          + h W T N N N M v n n n c x x x x x h k l k x x c x c n c n n n M M M T T E h +           ",
"          + h W T N N N N n v c c c x x h h d L #.;.$.= a a x c c c c v b M M M T T E h +           ",
"          + h T T N N n n v x c c k a a h B %.,.3.5.3.[ i a a a c c c c n v n N N N T h O           ",
"          O i T N N n n n c x x x a a f { :.3.3.3.3.3._ t i i a a a x x c v n n N N T g +           ",
"          + i T N n n v c c c k a i * +.1.3.5.3.3.3.3._ 0 r r i i a a c c c n n n N T i +           ",
"          O i N n n n v c c h a f ) >.3.3.3.:.=.3.3.3./ w 0 r r i i a k c c v v n N N i O           ",
"          O t M n n c c c k a i ; 1.5.5.,...% / 3.3.3._ 7 7 0 0 r r r a k c c c n M M r O           ",
"          + t M n n c x x a i r o.5.1.@.& 4 1 / 3.3.3.J 4 4 4 0 w r r a a k c c n n M y O           ",
"          O t M n c x x a a r r ; -.- 8 1 4 2 J 3.3.3.J 2 4 4 4 w 0 r y a a x c b b M r O           ",
"          O t M b b x k a i r r w u 4 < 2 , , J 3.3.3.J 2 2 4 6 6 0 r r i a x x c n M r O           ",
"          O t n b b c k a r r w 7 4 4 2 , $ $ S 3.3.3.G 2 , 2 2 6 w 0 r r a a x c n M r O           ",
"          O t n b c c a a t r 0 4 4 2 2 , $ # S 3.3.3.Z # , 2 2 3 6 6 r r i a x c b n 0 O           ",
"          O t n c x c a a r 0 w 7 4 2 2 $ $ @ Z 3.3.1.Z # $ , 2 3 6 6 r r i a x c b M r O           ",
"          O r M c c c a t r w 0 4 4 2 $ $ $ @ C 5.3.5.C # # , , 3 6 0 0 r i a k c b n r O           ",
"          O t n v c c h i t w 4 4 2 2 $ $ @ @ Z 3.3.3.Z @ : > , 3 3 6 r r r a x c n n 0 O           ",
"          O 0 n v c k h i t r 6 4 4 2 , $ # @ Z 5.3.3.S > > > 1 3 3 w 0 r r a a c c n 0 O           ",
"          O t n c c c a t r 0 0 6 4 2 $ $ # @ Z 3.3.3.Z # $ , , 3 4 w 0 r r k k c c n t O           ",
"          O t n c c c a i r r 4 6 3 2 $ $ # # Z 5.3.3.S # > , 1 3 4 w 0 y a a x c v n t O           ",
"          O t n c c c a r t r w 6 3 3 2 $ $ # S 3.3.2.Z > , , 1 3 6 w 0 r i a x c n M r O           ",
"          O t n n c c k a r r 0 0 6 2 2 , , $ S 3.3.2.G > , 1 4 4 0 0 r i a a x c n n r O           ",
"          O t M n c x k k i r r w 4 4 3 1 2 , J 5.3.3.J 2 2 1 6 4 w 0 r i a k x c x M r O           ",
"          O t M n c c c a a r r r w 6 6 4 1 , / 3.3.3.J 1 4 6 6 0 0 r i a k x c n n M r O           ",
"          O t M n v c c c a i t t 0 4 6 6 4 4 / 3.3.3.J 4 6 7 0 0 r r i a c c c v M M r +           ",
"          O i N n n n c c k a i t t r 0 w 4 4 / 5.3.3._ 4 4 0 0 r r y a k c x c n n M i O           ",
"          O i T M n n c x x k a i i t 0 0 0 4 ` 3.3.3.K 7 0 0 t r i a k c c c n M M M i +           ",
"          + i T M n v n c x x a g i i t r r 0 ` 5.3.3._ t t t t a a a c c c n v n M M i +           ",
"          + g T M M n c v x c x h g g g t t t _ 3.3.3.) t g g g a c c c c n v N N N T i O           ",
"          O h T T M M n n n c c z } X.X.X.X.X.;.3.3.3.;.| X.| |  .V c c c n n M M T E g +           ",
"          + h E T T M M M n c c P 1.5.5.5.5.5.3.3.3.3.5.5.5.3.5.3.o.c n n n M M N T E h +           ",
"          + h E E T M M M n n M U 1.5.3.5.5.5.3.5.3.5.3.5.5.5.5.5.O.v n n N M M T T E h +           ",
"          O h Q E T T M M M n n ~ O.*.*.*.*.*.*.*.*.*.*.*.*.*.*.*.~ n n N N N T T E Q h +           ",
"          + x Q E E E T T M M M n n n n n v c x c n c c c n v n n n n N N T T T E W Q h +           ",
"          + x Q Q Q E E E T T M N M M M N n n n n n n n N n M M N N T T T T W W W Q ! c +           ",
"          O 7 v x a a a a i i i t t t t t t t 0 r r 0 r t t t t t g i i g g h h c h v 7 O           ",
"            O + + + + + + + O O O O O O O O O O O + O O O O O O O O + O + O + + + + + O             ",
"                                                                                                    ",
"                                                                                                    ",
"                                                                                                    ",
"                                                                                                    ",
"                                                                                                    "
};
