/* XPM */
static char *__[] = {
/* columns rows colors chars-per-pixel */
"50 50 90 1",
"  c #000000",
". c #030317",
"X c #030318",
"o c #110FA0",
"O c #1111A4",
"+ c #1212AC",
"@ c #101DAB",
"# c #1414B5",
"$ c #1515BC",
"% c #141BBB",
"& c #1A1ABE",
"* c #1021AF",
"= c #1322BD",
"- c #112ABD",
"; c #0D31B1",
": c #0F38BF",
"> c #1717C4",
", c #161BC5",
"< c #1717C8",
"1 c #1816CB",
"2 c #171DCA",
"3 c #1919CD",
"4 c #1917D0",
"5 c #1A1AD3",
"6 c #1B1BDC",
"7 c #1422C1",
"8 c #1525C9",
"9 c #142FCE",
"0 c #0F39C4",
"q c #1034C3",
"w c #1234CA",
"e c #1039C8",
"r c #1723D3",
"t c #1823D5",
"y c #1728D6",
"u c #1923DA",
"i c #172BDA",
"p c #1434D3",
"a c #133ED8",
"s c #1C1CE4",
"d c #1E1EEB",
"f c #1F1FF0",
"g c #1B23E3",
"h c #192CE2",
"j c #1C21E8",
"k c #1A2CE8",
"l c #1636E2",
"z c #1830E3",
"x c #163BE4",
"c c #1839EA",
"v c #2020F2",
"b c #2121F8",
"n c #0E46CA",
"m c #0D4CCD",
"M c #095AC7",
"N c #0B55CA",
"B c #0A5CCE",
"V c #1145D6",
"C c #1243DB",
"Z c #0E55DA",
"A c #0D5ADA",
"S c #0867CF",
"D c #0A66D8",
"F c #0A6CDD",
"G c #0875DB",
"H c #077CDC",
"J c #1442E2",
"K c #0F5CE4",
"L c #1256EA",
"P c #105EEA",
"I c #0C65E1",
"U c #0C6AE4",
"Y c #0E67EA",
"T c #0D69EA",
"R c #0A72E5",
"E c #097BE5",
"W c #0B78EB",
"Q c #0580D9",
"! c #0880E4",
"~ c #058BE3",
"^ c #0982EC",
"/ c #068EEB",
"( c #0491E4",
") c #039AE7",
"_ c #0595EB",
"` c #039CEC",
"' c #02A3ED",
"] c #01ABEF",
"[ c #00AEF0",
"{ c #00B1F0",
/* pixels */
"                                                  ",
"                                                  ",
"                                                  ",
"                                                  ",
"                                                  ",
"      .XXXXXXXX.XXXXXX..XXXXXXXXXXXXXXXXXXX.      ",
"     X&655555555533353333333335333535555556&X     ",
"     X6bvbvvfffdvdddddddddddddddfjffffvvbbbuX     ",
"     Xubfffffdddddssssssjjsssssdddsdddfffvv6X     ",
"     X5bfffjdddssssssssss6ssssssssdddddffvv5X     ",
"     X5vfdjfdsssssssshlJxlg66ssssssssdddffv5X     ",
"     .5vfjfsdssssslP^_'''`/Tl66sssssdsddddb5X     ",
"     X5vddjssssszT'[{{{[{{{{`K666sssssddddv5X     ",
"     X3ffsfssssh/[{[{[[[{{{{{]K5666ssssdddv5.     ",
"     X5fdsfssssJ[[['EAVVZ!]{{{'J666sssjsjdd5.     ",
"     X3fsdssss6J['Up31333&A'{{{R5566ssssjdj3.     ",
"     X3dsssss66iUa33<>>>>>>F{{{_y56666sssdd4.     ",
"     X5ddsss6664533&>>>>>$>w'[{'p4466sssssj4.     ",
"     X5dsss66664111>>$$$$$$7({{'p14556sssdd4.     ",
"     X3ddsss644411>$$$#####=({{`9145566sssd2.     ",
"     X3dsss6644<1>>$$#####+-){{`8<14466sssd5.     ",
"     X3jsss66t4<1>$$$##++++:'{{~,>144566ssd2.     ",
"     X<djs66544<>>$###+++++B{{{D>>13466sssd4.     ",
"     X4sss6665<<>&$##++Ooo*({{'e>><34666sss2.     ",
"     X3dss66444<>$%##++OOoM[{{G%$>135566ssd3X     ",
"     X<dss66641<>>$##++Oo;){{`q$$>>34566sss3X     ",
"     X3jss66541<>>$##++O@Q{{]B#$$113456ssss3X     ",
"     X3dsss6554<>>$$#+++S[{{H%$$$1135666ssd5X     ",
"     .3dsss66451>>$$###N]{{~-#$$1133556sssd3X     ",
"     X3dsss66533<>>$$#m'{{)0#$$>&&145666ssd3X     ",
"     X3dsss66454<<>>$m'{{'n$$$>>1155566ssjd3X     ",
"     X3dssss66553<>>n'{{'m$$$>>>1355666ssjd3X     ",
"     X5djssss565333V`{['Z&>>>><<354666ssssd5.     ",
"     .5jsjsss66655V`{{]A&&>>>1<355566ssssdd3.     ",
"     .5ddsssss665C`{{]A&113311355466sssdsdf5X     ",
"     .5ddddsss66J_{{]I33113354556666ssssddd5X     ",
"     X5fdddssssa_{{[Ryrrrrrrttyu66sssssdddf5X     ",
"     X5vddddsssW{{{[_//////(////^xsssssdddf5X     ",
"     X5vfdddjjj/{{{[{{{{[{{{{{{{{Yssssdddfv5X     ",
"     X5vfddddddW{{{{{{[[[{{{{{{{{Lssdddfdfv5X     ",
"     X5bfffjjdscPYYYYYYYYYYYYYTUPksjdddfffb5X     ",
"     X5bfffffjddddjdssssssssjsjdsddjddfvfvb5X     ",
"     X6bbbvvfffddddddddddsddddddvdffffbvvbb5X     ",
"     X&6555555555335&53333335&553335355555u&X     ",
"      XXXXXX.XXXXXXXXXXX.XXXXXXXXXXXXXXXXXXX      ",
"                                                  ",
"                                                  ",
"                                                  ",
"                                                  ",
"                                                  "
};
