/* XPM */
static char *__[] = {
/* columns rows colors chars-per-pixel */
"50 50 47 1",
"  c #000000",
". c #000C0C",
"X c #003E3E",
"o c #004141",
"O c #005555",
"+ c #005857",
"@ c #005758",
"# c #005C5C",
"$ c #005F62",
"% c #006464",
"& c #006867",
"* c #00656A",
"= c #006C6C",
"- c #00706F",
"; c #006671",
": c #006A73",
"> c #006A79",
", c #007474",
"< c #00737A",
"1 c #007A7B",
"2 c #007483",
"3 c #007A84",
"4 c #00748A",
"5 c #007C8A",
"6 c #007E95",
"7 c #008181",
"8 c #00808C",
"9 c #008294",
"0 c #00839A",
"q c #0085A3",
"w c #008AA5",
"e c #0090AE",
"r c #008CB4",
"t c #0093B6",
"y c #0093BC",
"u c #0098BF",
"i c #0097C3",
"p c #0099C4",
"a c #009DCC",
"s c #00A0CE",
"d c #00A2D4",
"f c #00A5DC",
"g c #00A7E0",
"h c #00AAE4",
"j c #00ADEB",
"k c #00B0EF",
"l c #00B1F1",
/* pixels */
"                                                  ",
"                                                  ",
"                                                  ",
"                                                  ",
"                                                  ",
"      ......................................      ",
"     .%,,----=========%====%%=========-,,,,X      ",
"     .,77171711111,1,11,,,1,111,11111717777o      ",
"     .,7111111,1,1,,,,,,,,,,,,,11,111111177o      ",
"     .=71711111,1,,,,,,,,,,,,,,,,11,1111177o      ",
"     .,711111,1,,,,,,13955,,=,,,,,,,,111171o      ",
"     .=111111,,,,,8rafhjhhdt5,=,,,,,1,11117o      ",
"     .,11111,,,,5uhlllllllllhw,-,,,,,,,1117o      ",
"     .=111,1,,-3dlllkhhhjlljljw==,-,,,11111o      ",
"     .=111,,,,=0kljsw5<26yjlllh3=-=,,,1,111o      ",
"     .=11,,,,,=0js0:%%%%%=qjkllw===,,,,,,11o      ",
"     .=11,,,,==<0,%&%%%%$$%plllp===:,,,,,11X      ",
"     .=1,,,,,,==&%%%%%#%#$$qllls=====-,,1,1X      ",
"     .=,,,,====%%%%%$######6klla=%==-,,,,11X      ",
"     .=11,,,====%%%$$######0klli=%&==-=,,,1o      ",
"     .=,,,,====%%%$####@@@#ylllq$%&&===,,,1X      ",
"     .=,,,,-==%%%%$###@OOO2hllf:$%&&==-,,,1X      ",
"     .=,,,====&%%$##OOOO@4flljq#%%%&==-,,,1X      ",
"     .=1,,=,==%%%#&;*;;4rjlljq%#%%%====,,,1X      ",
"     .=,,,=-===%$;agghhjllji4$@$%%%&===,,,,X      ",
"     .=,,--==&%%#2hlllllklgy4$@$#%%&===,,,1X      ",
"     .=,,,--=%%%%*iffffhklllks4#$%%&==:-,,1X      ",
"     .=,,,,====%%%****;>4rglklh6%%%&&=-,,,1X      ",
"     .=,,,,-===&%$###+OOO@;ikllg2%&&====,,1X      ",
"     .=,,,,===&%%%%####+@@@*illlt&&===,,,,1X      ",
"     .=1,,,-===%%%%########@2jllf>%==,,,,11X      ",
"     .=,,,,,:===%%%%$$#####$*dllj3===,,,,,1X      ",
"     .=1,,,,,===%%%%%%%#$#%#%allj5==,-,,,11o      ",
"     .=1,1,,,======%%%%%%%%%=dllh2===,,,,,1o      ",
"     .-111,,,,,====%%%%%%%%%5hlkd<-,,,,11,1o      ",
"     .=11,,,,,,q5====&=%&%&:ilkkt=--,,,,111o      ",
"     .=11,1,,,5hhy0,==&=&=3ykkkh5,,,,,,1111o      ",
"     .=7111,,,8hlljdtw00wyflllkw,,,,,1,1117o      ",
"     .=111,11,1dlllllkjklllklje,-,,,,,11111o      ",
"     .,1111111,5tfjlllllllljp0,,,,,,1111117o      ",
"     .,7711111,,,50tssdddpe9<,,,,,111111717o      ",
"     .-717711111,,,,,1111,,,,,1,1,111111177o      ",
"     .,777717111111,1,111,,111,111111717777o      ",
"     .%,---==========&&&=&&&=&=======-=,,,,X      ",
"      ......................................      ",
"                                                  ",
"                                                  ",
"                                                  ",
"                                                  ",
"                                                  "
};
