/* XPM */
static char *__[] = {
/* columns rows colors chars-per-pixel */
"50 50 97 2",
"   c #000000",
".  c #000E00",
"X  c #001000",
"o  c #002900",
"O  c #004500",
"+  c #004B00",
"@  c #005000",
"#  c #016307",
"$  c #007600",
"%  c #007C00",
"&  c #02760D",
"*  c #027B0A",
"=  c #036613",
"-  c #036812",
";  c #05641F",
":  c #037413",
">  c #037B13",
",  c #05741D",
"<  c #057C1E",
"1  c #07662B",
"2  c #08642E",
"3  c #076C2C",
"4  c #067A22",
"5  c #077C2B",
"6  c #096739",
"7  c #0A6C3B",
"8  c #087A33",
"9  c #0A7A3B",
"0  c #0B6A43",
"q  c #0D6C4C",
"w  c #0B7442",
"e  c #0B7C42",
"r  c #0D744C",
"t  c #0D7C4C",
"y  c #0E6C54",
"u  c #0F6E58",
"i  c #0E7454",
"p  c #0E7C53",
"a  c #0F735C",
"s  c #0F7A5B",
"d  c #0E7563",
"f  c #0E7B62",
"g  c #0E7668",
"h  c #0D7D6C",
"j  c #0D7C73",
"k  c #008400",
"l  c #008B00",
"z  c #02830C",
"x  c #028A0A",
"c  c #009200",
"v  c #009900",
"b  c #038414",
"n  c #038912",
"m  c #05841D",
"M  c #058B1B",
"N  c #068425",
"B  c #07832A",
"V  c #088433",
"C  c #088832",
"Z  c #0A853C",
"A  c #0B8342",
"S  c #0C834A",
"D  c #0E8252",
"F  c #0F825B",
"G  c #0E8865",
"H  c #0D856D",
"J  c #0D886C",
"K  c #0C8476",
"L  c #0D8872",
"P  c #0C827A",
"I  c #0C8B7B",
"U  c #0B8483",
"Y  c #0A868B",
"T  c #0A8C8C",
"R  c #0A928A",
"E  c #098B91",
"W  c #098D9B",
"Q  c #099190",
"!  c #09959C",
"~  c #0797A6",
"^  c #0894A3",
"/  c #0799A7",
"(  c #0794AD",
")  c #0799AE",
"_  c #0695B1",
"`  c #0699B4",
"'  c #059BBB",
"]  c #059EC2",
"[  c #04A0C7",
"{  c #04A2CD",
"}  c #03A6D4",
"|  c #02A6D9",
" . c #02A9DC",
".. c #01ABE3",
"X. c #00AFEC",
"o. c #00B0EF",
"O. c #00B0F1",
/* pixels */
"                                                                                                    ",
"                                                                                                    ",
"                                                                                                    ",
"                                                                                                    ",
"                                                                                                    ",
"            X X X X X X . . . . . . X X . . X X . . . . X . . . X X . . . . X X . X . .             ",
"          . $ l k k k k k % k % % % % % % % % $ % $ % % % % % % % % k % k k k k k k l O             ",
"          X k v c c c c c c c l c l l l l l l l l l l l l l l l l c l c l c c c c v v @             ",
"          X k v c c c c c l l c l l l l l l k x M M N M N M x x l l l c l c c c c c v @             ",
"          . k c c c c l l l l l l l k l k l b V A S S S S S Z N x l l l l l l c c c v +             ",
"          . k c c c l c l l l l k l k l k z V D F H I I I G F Z b l l l l c c c c c v +             ",
"          . k c c c l l l l l l l k k k k N S F !  .......} R A b l k l l l l l c c c +             ",
"          . k c l l l l l l l k k k k % b 9 F I ..O.O.O.o.o.R A b k k l l l l l l c c +             ",
"          . % c c l l l l k k k k k k * 5 t f ' O.O.O.O.o.o.Q A b k k l l l l l l c c +             ",
"          . k c l l l l l k k k k k % > 9 s T X.O... .O.O.X.E e b % k k k l l l l c c +             ",
"          . % l l l l l k k k k % % * 8 p h { O.O.' ` O.O.X.R e > k k k k k l l l l c +             ",
"          X % l l l l l k k k k % $ < t s ^ X.O...j ( O.O.o.T e > % k k k k l l l l c +             ",
"          X % c l l k k k k % % $ > 8 p j ..O.O.( d ( O.O.o.T e > % % k k k k l l l l +             ",
"          . % l l l l k k % % % $ 5 i s _ O.o.} h a ( O.o.X.E w > $ % k k k k k l l l +             ",
"          . % l l k k k k % % $ > w s U ..o.X.W a u ( O.o.o.E w > $ $ % % k k l k l c +             ",
"          . % c l k k k k % $ & 8 i f [ O.O.] d u a ( O.O.X.T w : $ % % % % k l l l l +             ",
"          X $ l l k k k k % % < r s W X.O...U u u u ( O.O.X.E w : $ $ % % k k k k l l +             ",
"          X % l l l k k % % & 8 i j } O.O._ a y q y _ O.O.X.E w : $ $ % k % k k l l l +             ",
"          X $ l k k k k % * 4 t s ( O.O. .j y 6 6 y ( O.O.X.T 0 : $ $ $ % k k k k l l +             ",
"          . $ l l k k k % > 9 i U ..O.X.W u 0 ; 2 y _ o.o.X.Y q : $ $ % % k k k k l l +             ",
"          . % l l k k k * 5 p f ] O.O.[ g q 1 = 2 y _ O.o.X.E 0 : $ $ $ % % k k l l l +             ",
"          . % l l k k k < e s T X.o.X.Y a 7 = # 2 y ( O.O.X.E w : $ $ $ % k k k l k l +             ",
"          . % l l k k z V p H } O.O.' d q 3 - = 2 y ( o.O.X.E w , & * * % k k k l l l +             ",
"          . % l l k k m S s ~ X.O. .P a i 0 7 7 q u ( O.O.X.E i w 9 9 < * k k l k l l +             ",
"          . % l l k k B D K  .O.o.~ f a a d a a a a _ O.O.X.E a s s p e > k k k l l l +             ",
"          . % l l l x B p ! O.O.o.[ ' ' ' ' ' ' ' ' | O.O.X.{ ' ' ` H t m k k l l l l +             ",
"          . k l l l k B D / O.O.O.O.O.O.O.O.O.O.O.O.O.O.O.O.O.O.O.O.! t m k k k l l c +             ",
"          . % l l l l B D ~ O.O.O.O.O.O.O.O.O.O.O.O.O.O.o.o.O.O.O.O.! S m k l k l l c +             ",
"          . % c l l x N S L / ) ) ` ) ) ) ) ) ) ) ) } O.o.o.[ ) ) ~ J t m k l l l l c +             ",
"          . k l l l l n Z S S p t t t t t t r t i s ( O.O.o.Q p t t S Z b l l l l l c +             ",
"          . % c c l l x n m m m m m 4 4 < < 4 4 9 i ) O.O.o.E t V m m b k l l l c l c +             ",
"          . % c l l c l l k l k k k k k k % % * 5 p ) O.O.o.Q A b k l k l l l l l c v +             ",
"          . k c c c l l l l l k l k k % k % k z V D ` O.o.o.R A b k k l l l l c c c c +             ",
"          X k c c c l l l l l l l k k k k k k k B D ) O.o.o.R A b k l l l l c l c c c +             ",
"          . k c c c c l l l l l k l l l k k k z B p / O.o.X.R A n l l l l l l c c c v +             ",
"          X k c c c c c l l l l l l l l k l l k B D J Q ! R G A n l l l l c c c c c v +             ",
"          X k v c c c c c c c l l l l l l l l l M C S S A S S C x l c c c l c c c c v @             ",
"          X l v v v v c c c c c l c c c l l l l c n M M M M M n c c c c c c v v v v v @             ",
"          . O @ + + + + + + + + + + + + + O + + + + + + + @ + + + + + + + + + + + @ @ o             ",
"                                                                                                    ",
"                                                                                                    ",
"                                                                                                    ",
"                                                                                                    ",
"                                                                                                    ",
"                                                                                                    "
};
