/* XPM */
static char *__[] = {
/* columns rows colors chars-per-pixel */
"50 50 182 2",
"   c #000000",
".  c #160D01",
"X  c #180E00",
"o  c #171006",
"O  c #17130D",
"+  c #101010",
"@  c #7D6A55",
"#  c #776D5E",
"$  c #7C6D5A",
"%  c #5E7778",
"&  c #736E61",
"*  c #6B716A",
"=  c #727165",
"-  c #7B7462",
";  c #70766B",
":  c #777C6E",
">  c #607877",
",  c #6B7C75",
"<  c #6A7F79",
"1  c #B96703",
"2  c #BD6A03",
"3  c #B2670B",
"4  c #BC6C0B",
"5  c #AB6714",
"6  c #AE6915",
"7  c #A76618",
"8  c #AC6B1B",
"9  c #B36B14",
"0  c #B96E11",
"q  c #BD7213",
"w  c #B5751F",
"e  c #BB751C",
"r  c #9F6722",
"t  c #9E6A2B",
"y  c #8E683A",
"u  c #956A35",
"i  c #9C6D34",
"p  c #916B3D",
"a  c #9B703B",
"s  c #A46A23",
"d  c #A96D23",
"f  c #A7702D",
"g  c #AC742C",
"h  c #B27426",
"j  c #BC7720",
"k  c #B2762B",
"l  c #BC7D2D",
"z  c #A06F32",
"x  c #A47132",
"c  c #AB7531",
"v  c #A5763C",
"b  c #AD7B3D",
"n  c #B07730",
"m  c #B37A31",
"M  c #BB7E31",
"N  c #B17E3D",
"B  c #C46D02",
"V  c #C96F01",
"C  c #C16F0A",
"Z  c #C67005",
"A  c #CD7402",
"S  c #C5720C",
"D  c #CA760D",
"F  c #CC790D",
"G  c #D17601",
"H  c #D47A00",
"J  c #DC7B01",
"K  c #D37A0A",
"L  c #C57614",
"P  c #C97711",
"I  c #CD7911",
"U  c #C47A1E",
"Y  c #CB7D1A",
"T  c #D47E11",
"R  c #E27E00",
"E  c #C47C21",
"W  c #8A6A42",
"Q  c #856B4C",
"!  c #896E4D",
"~  c #926E41",
"^  c #8E704D",
"/  c #967144",
"(  c #9A7445",
")  c #94754E",
"_  c #9A7649",
"`  c #9C794E",
"'  c #826D53",
"]  c #886E50",
"[  c #826F58",
"{  c #867055",
"}  c #8B7253",
"|  c #8A765B",
" . c #8C795C",
".. c #927654",
"X. c #957956",
"o. c #9C7C54",
"O. c #957D5C",
"+. c #9A7E59",
"@. c #A17640",
"#. c #A57942",
"$. c #AA7D43",
"%. c #A47E4D",
"&. c #A37F51",
"*. c #827660",
"=. c #8B7E63",
"-. c #738176",
";. c #7D8877",
":. c #73857A",
">. c #73887C",
",. c #7B8978",
"<. c #BD8134",
"1. c #B6813C",
"2. c #BA833A",
"3. c #DA8000",
"4. c #DE820C",
"5. c #D68216",
"6. c #DC8412",
"7. c #D68419",
"8. c #E68101",
"9. c #EB8500",
"0. c #EE8901",
"q. c #E2850B",
"w. c #E5880B",
"e. c #F28C00",
"r. c #F99100",
"t. c #E08610",
"y. c #E18912",
"u. c #CB8223",
"i. c #C4822B",
"p. c #C9852A",
"a. c #D38822",
"s. c #C38431",
"d. c #9F8057",
"f. c #9A815B",
"g. c #AD8146",
"h. c #A6804E",
"j. c #AB824C",
"k. c #B38241",
"l. c #A38052",
"z. c #8D8064",
"x. c #8B866B",
"c. c #928364",
"v. c #828873",
"b. c #597D82",
"n. c #3C90A9",
"m. c #3699B5",
"M. c #3B9BB5",
"N. c #339CBB",
"B. c #389DB9",
"V. c #35A0BD",
"C. c #5B8488",
"Z. c #4A8593",
"A. c #468A9B",
"S. c #4C8F9C",
"D. c #538A94",
"F. c #5D9497",
"G. c #55959E",
"H. c #688783",
"J. c #668986",
"K. c #6A8C87",
"L. c #608789",
"P. c #658C8B",
"I. c #6D8F88",
"U. c #4C95A4",
"Y. c #4897A8",
"T. c #469AAC",
"R. c #4B99A8",
"E. c #2599C1",
"W. c #2F9EC0",
"Q. c #1DA2CE",
"!. c #1CA5D3",
"~. c #1AA8D6",
"^. c #13A6D9",
"/. c #13A8DC",
"(. c #18A9D9",
"). c #2CA2C5",
"_. c #22A6D0",
"`. c #0BABE4",
"'. c #04AEEB",
"]. c #10ABE1",
"[. c #01B0EF",
"{. c #00B1F1",
/* pixels */
"    +                                                                                               ",
"                                                                                                    ",
"                                                                                                    ",
"                                                                                                    ",
"                                                                                                    ",
"            o o X X X X X X X . X X o X X X . o X . X o X X X X . . X X X X X X X X o o             ",
"          X Z 3.3.H H H H H H H H H A A A A A A A A A F A A A A G H G G H H H J H H 3.Z .           ",
"          X 3.r.e.r.e.e.e.0.0.0.q.6.6.6.6.6.6.6.6.6.6.6.6.6.6.q.w.9.0.e.0.e.e.e.e.r.r.3.X           ",
"          X H r.e.e.0.0.0.9.q.7.p.s.s.s.M s.M 2.<.<.<.<.<.<.<.i.a.q.8.0.0.0.0.0.e.e.r.H X           ",
"          X 3.e.e.e.0.0.9.q.u.2.$.&.&.h.&.&.&.&.&.&.&.&.&.&.%.j.N u.q.0.9.9.0.0.e.e.e.H X           ",
"          X H e.0.0.0.0.w.7.2.l.l.&.c.f.O.O.O.O.O.O.O.f.f.O.f.f.j.2.7.q.8.0.0.0.e.e.r.H X           ",
"          X H e.0.0.0.9.q.u.g.l.v.T.B.B.B.B.B.B.N.B.B.B.N.B.M.,.&.$.E R 9.9.9.0.0.0.e.J X           ",
"          X H e.0.0.9.9.6.i.h.+.T.{.{.{.{.{.{.{.{.{.{.{.{.{.{.R.o.$.E q.8.8.8.0.0.0.e.H X           ",
"          X H 0.0.9.9.9.4.<.%.+.W.{.{.{.{.{.{.{.{.{.{.{.{.{.{.U.o.$.E q.8.8.9.9.9.0.e.G X           ",
"          X H 0.0.9.9.8.5.M %.O.T.{.{.[._.W.W.W.W.W.W.W.W.W.N.>.o.#.E J 8.8.9.9.9.9.0.G X           ",
"          X H 0.9.9.8.8.4.M ` O.B.{.{.'.L. .| *.| *.| | | |  .X.o.m Y R R 8.8.8.9.9.0.H X           ",
"          X G 0.e.R R R T M &. .B.{.{.'.L.| { ..^ ......^ ) ) _ @.U D J R R R R R e.e.J X           ",
"          X G 0.R e.R R T n &.X.M.{.{.'.L.| ../ i z z z z f f k U D G J J R R R e.R R J X           ",
"          X G 9.e.R R R K m ` | m.{.{.'.L.{ ^ z 7 8 6 9 9 0 0 C Z G G J J J R R 0.R R J X           ",
"          X G 9.e.R R R T m &. .m.{.{.'.b.[ ! u s s 7 6 9 4 C B V V V J J J R R R 0.R G X           ",
"          X G 0.R e.R R I m ) | m.{.[.'.C.[ ' Q W W p u t s 9 4 Z V G G J G R R R e.R J X           ",
"          X G 9.R R R R K m ` | m.{.{.'.b.[ [ [ @ @ ' Q Q ~ i d 0 C V G J J R R R R R G X           ",
"          X J R R R R R I n ) | m.{.{.'.A.b.b.b.b.> * # [ ' ! ~ f 0 Z G G J J R R R e.G X           ",
"          X K e.R R R R I n ) | m.{.{.[.'.'.`.'.'.].^.E.Z.; [ ] / f C V G G R R R e.R R X           ",
"          . A 0.e.R R R K n ) | m.{.{.{.{.{.{.[.[.[.{.{.[.Q.b.[ } ( g S G K J R R 8.9.A X           ",
"          X G 8.R R R R K k _ } S.].]./.^.^.^.^.`.'.{.[.{.{.`.D.[ ..v q G J J R 8.8.9.A X           ",
"          . A 9.R R R R K U ( ..*.< , ; = = & * % b.Q.'.{.{.{.].< ] ( h D G R R R 9.8.G .           ",
"          X G 9.R R R R G P n ( ^ ..] ' Q ' ' @ @ @ & A.`.{.{.{.m.| ..k P G R R R 9.0.A X           ",
"          X A 0.e.R R R J D L h f z a i u u u y W Q ' $ n.[.[.{./.: ..v U J R R R R 0.G .           ",
"          X A 9.R 0.R R R J A S C q 9 9 3 5 5 7 r u Q [ > ].{.{.`.J...@.U J R R 9.9.9.G X           ",
"          X G 0.R R R R J J G G G Z B B 2 2 1 1 3 s ~ ' - !.{.{.{.L...#.U K R R R 9.0.G X           ",
"          . G 9.R R R R R J G K G V V B B 2 B 2 1 5 a ' *.E.{.[.{.L...@.E J R R 0.R 9.G X           ",
"          X G 0.8.8.8.8.J K T P P S A Z B B B B 2 8 a ..*._.{.{.'.J.X.#.E R R 9.9.9.0.G X           ",
"          X G 0.0.9.8.R 5.E l m m h j q S S C C 9 x / } : /.{.{.].:.` b E R 9.R R 9.0.G X           ",
"          X G 0.9.8.8.4.u.N %.` ` ` #.c g h h g x ( ..| D.[.{.{._.=.o.m T R R 8.0.9.0.G X           ",
"          X H 0.0.9.9.6.M %.+.=.O.X.X.` _ _ _ _ ......-.!.{.{.[.U.O.&.E t.R 9.9.0.9.e.G X           ",
"          X H e.0.9.w.7.1.&.x.).M.>.z.X.X.X.X.X.X.=.H._.{.{.{.!.=.+.$.E q.9.9.9.8.0.e.H X           ",
"          X H e.0.0.w.7.1.l.,.`.{.`.).Y.F.J.J.F.U.N.`.{.{.{.].K.+.&.M T R 9.9.9.0.e.e.H X           ",
"          X H e.0.0.w.7.2.l.v.].{.{.{.{.[.'.[.[.{.{.{.{.{.(.P.+.o.$.u.q.9.9.9.9.0.e.e.H X           ",
"          X H e.e.0.0.6.s.j.f.F._.[.{.{.[.[.{.{.{.{.{.`.M.;.+.&.$.i.t.8.9.0.0.0.0.0.e.H X           ",
"          o H r.e.0.0.w.p.k.l.d.x.I.R.)._.~.(.~._.V.G.,.f.o.h.1.i.4.w.9.9.0.0.0.e.e.e.H X           ",
"          o H r.e.e.e.0.y.p.k.j.l.l.l.c.c.x.x.x.c.f.d.l.l.g.2.p.6.w.8.9.0.0.e.0.e.e.r.H X           ",
"          X 3.r.r.e.e.e.0.y.a.s.2.k.j.j.j.j.j.j.j.j.g.k.<.p.7.q.9.0.0.0.0.e.e.r.e.r.r.3.X           ",
"          . Z 3.J H H H 3.H F L e h n c m c c c g g h w e S D A A G H G H H H H H H 3.Z o           ",
"            X X X X X X o o . X O O O O O O O O + O O O . X X X X X X X X X X X X X X o             ",
"                                                                                                    ",
"                                                                                                    ",
"                                                                                                    ",
"                                                                                                    ",
"                                                                                                    "
};
