/* XPM */
static char *__[] = {
/* columns rows colors chars-per-pixel */
"50 50 199 2",
"   c #000000",
".  c #0D0000",
"X  c #01060B",
"o  c #02080E",
"O  c #080808",
"+  c #170203",
"@  c #180000",
"#  c #17050A",
"$  c #020A12",
"%  c #010E1A",
"&  c #02101E",
"*  c #031424",
"=  c #04172A",
"-  c #04182B",
";  c #420000",
":  c #700000",
">  c #7C0000",
",  c #75060A",
"<  c #6D0F1C",
"1  c #710B13",
"2  c #6A1323",
"3  c #67172A",
"4  c #631C33",
"5  c #611F39",
"6  c #5D2543",
"7  c #7C2F56",
"8  c #74335D",
"9  c #7C315A",
"0  c #6D3C68",
"q  c #723660",
"w  c #753A64",
"e  c #793B66",
"r  c #733D69",
"t  c #793E69",
"y  c #5F4F7E",
"u  c #74416D",
"i  c #7D406C",
"p  c #644B7A",
"a  c #6D4D7B",
"s  c #764572",
"d  c #7A4470",
"f  c #744977",
"g  c #724C7A",
"h  c #7A4C7A",
"j  c #810000",
"k  c #BF0000",
"l  c #AC0F1B",
"z  c #BD0C15",
"x  c #BA0E1A",
"c  c #B7101E",
"v  c #961B32",
"b  c #921F39",
"n  c #9B1F39",
"m  c #A61324",
"M  c #AC1527",
"N  c #A01729",
"B  c #AE172B",
"V  c #A4182D",
"C  c #B41323",
"Z  c #BB1424",
"A  c #B21628",
"S  c #BC1629",
"D  c #B5182B",
"F  c #BB182D",
"G  c #A31C33",
"H  c #AB1D36",
"J  c #A11F3A",
"K  c #B51C34",
"L  c #BC1C33",
"P  c #B41F39",
"I  c #BA1F39",
"U  c #95213E",
"Y  c #9B213D",
"T  c #A3203C",
"R  c #AA213C",
"E  c #B4213C",
"W  c #B9213C",
"Q  c #CE0001",
"!  c #C6060C",
"~  c #CD060A",
"^  c #D40000",
"/  c #DB0102",
"(  c #D4060B",
")  c #DE060A",
"_  c #DC080F",
"`  c #C20B14",
"'  c #C90B14",
"]  c #C50F1B",
"[  c #CD0E1A",
"{  c #D40B14",
"}  c #DA0A13",
"|  c #D40E1A",
" . c #DB0E19",
".. c #CB101E",
"X. c #D0101E",
"o. c #E50102",
"O. c #EC0001",
"+. c #E2050A",
"@. c #E8060B",
"#. c #E0080E",
"$. c #F20000",
"%. c #FA0000",
"&. c #E10910",
"*. c #C31324",
"=. c #CB1323",
"-. c #C5172A",
";. c #CB1729",
":. c #C4192E",
">. c #D01424",
",. c #C21B32",
"<. c #C01E38",
"1. c #8D2646",
"2. c #862748",
"3. c #852A4D",
"4. c #8C2A4E",
"5. c #952442",
"6. c #9B2341",
"7. c #922748",
"8. c #932A4D",
"9. c #9C2A4D",
"0. c #842E54",
"q. c #8C2E55",
"w. c #942E55",
"e. c #9D2E55",
"r. c #9F2F58",
"t. c #893057",
"y. c #83315A",
"u. c #8D315A",
"i. c #903057",
"p. c #933159",
"a. c #9B3159",
"s. c #A52544",
"d. c #AC2545",
"f. c #A42748",
"g. c #AB2749",
"h. c #A42A4D",
"j. c #A9294B",
"k. c #B32442",
"l. c #B0284A",
"z. c #A22D53",
"x. c #A92C51",
"c. c #833761",
"v. c #8B3760",
"b. c #833A65",
"n. c #8D3963",
"m. c #833E69",
"M. c #893F6B",
"N. c #943760",
"B. c #943862",
"V. c #88416C",
"C. c #824572",
"Z. c #3C70A4",
"A. c #2F7CB3",
"S. c #347DB4",
"D. c #3A7EB5",
"F. c #4F5C8E",
"G. c #5C5382",
"H. c #5E598A",
"J. c #535F91",
"K. c #6E5281",
"L. c #625989",
"P. c #705483",
"I. c #4C6293",
"U. c #44699D",
"Y. c #4B6A9D",
"T. c #576396",
"R. c #5D6597",
"E. c #556699",
"W. c #58679A",
"Q. c #536A9D",
"!. c #4B6DA1",
"~. c #506EA2",
"^. c #4372A7",
"/. c #4677AC",
"(. c #4A74A9",
"). c #4378AE",
"_. c #3480B7",
"`. c #3583BA",
"'. c #3A81B8",
"]. c #1E93CE",
"[. c #1C96D2",
"{. c #1599D5",
"}. c #1A99D5",
"|. c #159DDA",
" X c #189CD8",
".X c #258AC3",
"XX c #2B8CC6",
"oX c #268FC9",
"OX c #3188C1",
"+X c #2392CD",
"@X c #2195D0",
"#X c #0EA1DF",
"$X c #11A0DE",
"%X c #0CA5E3",
"&X c #09A8E7",
"*X c #03ADED",
"=X c #08A9E8",
"-X c #11A2E0",
";X c #00B1F1",
/* pixels */
"                                                                                                    ",
"                                                                                                    ",
"                                                                                                  O ",
"                                                                                                    ",
"                                                                                                    ",
"            @ @ @ @ @ @ @ @ @ @ @ @ @ @ @ @ + + # # # # # # # + @ @ @ @ @ @ @ @ @ @ @ .             ",
"          @ k / / ^ ^ ^ ^ ^ ^ ^ ^ ^ ~ ~ ! ! ` z x C C c c x z ` ! ~ ~ ^ ^ ^ ^ ^ ^ / / :             ",
"          @ / %.$.$.$.$.$.$.$.$.O.o.+.} | >.;.:.,.I W W I ,.:.;.=. .#.@.$.$.$.$.$.%.%.j             ",
"          @ / %.$.$.O.$.O.O.O.o.+.} X.-.L I k.g.j.h.z.h.h.j.g.k.W ,.=.} @.O.$.$.$.$.%.>             ",
"          @ ^ $.$.$.$.O.O.O.o.+.{ =.I P j.z.z.w.r.r.r.z.z.r.r.z.h.d.L >.&.O.O.$.$.$.%.j             ",
"          @ ^ $.$.$.O.O.O.O.+.| -.P j.z.r.w.r.N.M.h g P.h V.N.r.r.h.d.:.} +.O.O.O.$.%.>             ",
"          @ ^ $.O.O.O.O.O.+.{ *.P z.e.p.r.C.W.XX|.%X&X&X&X|.XX!.V.r.j.I =.+.O.$.O.$.$.>             ",
"          @ ^ $.$.O.O.O.o.} =.P j.r.r.v.W. X;X;X;X;X;X;X;X;X;X;X).a.z.E =.#.O.O.O.O.$.>             ",
"          @ ^ $.O.O.O.o.) | L g.e.p.b.D.*X;X;X;X=X-X X X-X&X;X;X`.p.z.E =.) o.O.O.$.$.>             ",
"          @ ^ O.O.O.O.o._ *.E h.p.n.D.;X;X;X&XD.L.s b.t s K.~.XX~.a.h.P ..+.o.O.O.O.$.j             ",
"          @ ^ O.O.O.o.+.[ L f.w.i.E.=X;X;X|.H.c.t.i.t.i.i.i.p.u.u.w.s.L [ ) o.O.O.O.$.>             ",
"          @ ^ O.O.O.o.) ..P e.w.m. X;X;X%XL.u.y.u.q.4.4.8.w.w.8.8.9.R *.{ o.O.o.O.O.O.>             ",
"          @ ^ O.O.o.o.{ S s.e.p.T.;X;X;X^.y.y.y.0.8.5.U 6.6.6.6.T H Z ] ( / o.o.O.O.$.>             ",
"          @ Q O.o.o.) [ K f.p.c.XX;X;X Xr y.y.y.4.1.5.n n n G H B Z ] ~ / o.o.o.O.O.O.>             ",
"          @ ^ O.O.o.) =.H 9.w.a &X;X;XS.e y.9 9 0.3.1.1.5.U n G M x ' ^ / / o.o.o.O.O.>             ",
"          @ Q O.o.o.( *.R w.w.E.;X;X*XJ.y.9 9 9 9 7 7 0.4.4.1.5.G A ] ~ ^ / o.o.o.O.O.>             ",
"          @ Q O.O.o.{ S s.w.u.D.;X;X%Xp 9 9 9 9 9 7 7 7 0.0.0.0.7.J A ` ( / / o.o.O.O.>             ",
"          @ Q O.o.o.{ S s.w.c.oX;X;X|.r 9 q p F.U.Z.!.I.G.w y.t.q.7.T A ' ^ / o.o.O.O.>             ",
"          @ Q O.o.) { K f.w.m.[.;X;X[.p !.].%X*X;X*X;X*X%X].Y.e t.q.7.H Z ( / o.o.O.O.>             ",
"          @ Q O.o.) [ K 9.w.i  X;X;X%X$X;X;X;X*X;X;X;X;X*X;X*XOXu t.w.6.D ' / o.O.o.O.>             ",
"          @ Q O.o.) ] K 9.w.d |.;X;X;X;X;X=X{..XA.S..X{.;X;X;X;X_.c.t.9.K ] ( o.o.O.O.>             ",
"          @ Q O.O.) ] P 9.i.s -X;X*X;X#XS.G.0 q 8 8 q y A.=X*X;X&XL.q.w.R Z ( / o.O.O.>             ",
"          @ Q O.o.+.] P 9.w.s -X;X;X$XG.9 7 9 7 7 7 9 9 w .X;X;X;X_.u.w.s.Z { o.o.o.$.>             ",
"          @ Q O.o.+.[ P h.p.d |.;X;X}.w y.9 0.2.2.3.7 0.y.J.*X;X;X[.m.w.s.F ' o.O.o.O.>             ",
"          @ Q O.o.+.[ K h.p.t  X;X;X Xt y.0.1.b v b 1.0.y.r |.;X;X|.d w.9.K [ ) o.O.O.>             ",
"          @ ^ O.o.+.{ L f.w.b.}.;X;X#Xr 0.4.b N m N 5.3.0.e }.;X;X&Xg w.f.P [ ) o.o.$.>             ",
"          @ ^ O.O.o.{ F g.w.n.oX;X;X%Xa t.4.5.m l m n 4.t.c.[.;X;X-Xg w.f.K | ) O.O.$.>             ",
"          @ ^ O.O.o.} -.d.e.p.D.;X;X=XL.t.q.5.G M V 6.q.t.t  X;X;X$Xd e.f.F { +.o.O.$.>             ",
"          @ Q O.O.o.) =.R z.w.Q.;X;X;X^.t.i.8.U n Y 7.w.t.a &X;X;X@Xn.e.g.:.} o.O.O.$.>             ",
"          @ ^ $.O.O.) =.I h.r.K.=X;X;X@Xb.i.i.w.8.w.w.t.i.!.;X;X;X).p.z.E *.&.o.O.O.$.>             ",
"          @ ^ $.O.O.+.| L j.r.n.XX;X;X*XT.u.u.i.i.i.i.i.f  X;X;X&XP.w.j.I >.#.o.O.O.$.>             ",
"          @ ^ $.O.O.o.} -.d.e.r.R.*X;X;X|.L.N.p.i.p.N.a @X;X;X;X`.N.z.j.L { +.O.O.O.%.>             ",
"          @ ^ $.$.$.o.#.=.I h.e.M.+X;X;X;X&XD.R.L.T.D.-X;X;X;X}.d r.z.k.;._ o.O.$.$.$.>             ",
"          @ ^ $.$.O.O.+.} :.d.z.a.P. X;X;X;X;X;X=X;X;X;X;X;X@Xh r.r.j.L | +.O.O.O.$.$.>             ",
"          @ ^ $.$.$.$.o.#.=.I j.z.a.h OX=X;X;X;X;X;X;X;X$X/.C.r.z.x.E ;.} @.O.O.$.$.%.>             ",
"          @ / $.$.O.O.O.@. .;.k.x.z.z.B.P.(.OX+X+XXX'.R.h a.a.z.j.k.:. .+.O.$.O.$.$.%.j             ",
"          @ / %.$.$.$.$.O.#.| :.k.j.z.z.a.a.a.B.B.N.a.z.z.z.x.g.W :.| #.o.$.O.$.$.$.%.j             ",
"          @ / %.%.%.$.%.$.$.@. .;.<.k.g.x.x.x.x.x.z.x.x.x.l.W ,.>. .@.$.$.%.%.%.$.%.%.j             ",
"          . : j > j > > > > , , 1 2 3 4 5 6 6 6 6 6 6 5 4 4 3 < 1 , , > > > > > j > j ;             ",
"                                X o $ % & * = = - - = * % % $ o                                     ",
"                                  X   X O o $ $ % $ o O X X                                         ",
"                                              X X X                                                 ",
"                                                                                                    ",
"                                                                                                    ",
"                                                                                                    "
};
