/* XPM */
static char *__[] = {
/* columns rows colors chars-per-pixel */
"50 50 136 2",
"   c #000000",
".  c #0F0001",
"X  c #010509",
"o  c #02080E",
"O  c #0D0D0D",
"+  c #100307",
"@  c #10050A",
"#  c #10080E",
"$  c #030A13",
"%  c #040E1A",
"&  c #110B14",
"*  c #110F1B",
"=  c #04101E",
"-  c #12101D",
";  c #280000",
":  c #051322",
">  c #061629",
",  c #08192E",
"<  c #121323",
"1  c #121629",
"2  c #13192D",
"3  c #061A31",
"4  c #081B32",
"5  c #081F39",
"6  c #141C34",
"7  c #08223E",
"8  c #440000",
"9  c #4D0000",
"0  c #4B050A",
"q  c #4A0A13",
"w  c #480F1B",
"e  c #730102",
"r  c #7F060B",
"t  c #7B0B15",
"y  c #77101E",
"u  c #461628",
"i  c #441B32",
"p  c #761220",
"a  c #721729",
"s  c #7F1A2F",
"d  c #6F1B32",
"f  c #6C1F39",
"g  c #7D1C33",
"h  c #7A1F39",
"j  c #42213D",
"k  c #6A213E",
"l  c #77223F",
"z  c #79213D",
"x  c #092442",
"c  c #412646",
"v  c #40294B",
"b  c #682544",
"n  c #6F2B4F",
"m  c #752544",
"M  c #782341",
"N  c #732748",
"B  c #71294C",
"V  c #6D2E54",
"C  c #702B50",
"Z  c #6B3057",
"A  c #66355F",
"S  c #6A315A",
"D  c #5E3B65",
"F  c #5A3E69",
"G  c #653660",
"H  c #623863",
"J  c #3B4F7B",
"K  c #4A4671",
"L  c #4B4874",
"P  c #584370",
"I  c #514876",
"U  c #504B7A",
"Y  c #830102",
"T  c #800509",
"R  c #8F070E",
"E  c #8F080F",
"W  c #950102",
"Q  c #990000",
"!  c #91060A",
"~  c #91080F",
"^  c #8D0B14",
"/  c #8A0E1A",
"(  c #87111F",
")  c #88101D",
"_  c #851323",
"`  c #881120",
"'  c #821729",
"]  c #80182D",
"[  c #801B33",
"{  c #1D5F8D",
"}  c #2F5885",
"|  c #255F8D",
" . c #2D5D8D",
".. c #335684",
"X. c #3D5686",
"o. c #345C8C",
"O. c #15628F",
"+. c #026D9B",
"@. c #0F6B99",
"#. c #1B6595",
"$. c #126B9B",
"%. c #05709F",
"&. c #266191",
"*. c #2C6496",
"=. c #2D6699",
"-. c #356396",
";. c #396295",
":. c #34689C",
">. c #1E6DA0",
",. c #0174A3",
"<. c #0A74A6",
"1. c #0D77AA",
"2. c #0079AB",
"3. c #1578AE",
"4. c #1A78AE",
"5. c #017DB1",
"6. c #137EB5",
"7. c #1D7BB3",
"8. c #2B6BA0",
"9. c #306CA1",
"0. c #2575AB",
"q. c #2379B1",
"w. c #445383",
"e. c #485180",
"r. c #43598A",
"t. c #0080B5",
"y. c #0185BC",
"u. c #0D84BD",
"i. c #008BC4",
"p. c #088AC4",
"a. c #008FC9",
"s. c #0092CD",
"d. c #0891CF",
"f. c #0095D2",
"g. c #0098D6",
"h. c #009BDA",
/* pixels */
"                                                                                                    ",
"                            X         X X     X         X   X                                       ",
"O                       X   X   X o o X X X X X X X X X o X X X   X   X X                           ",
"                    X   o o $ $ $ $ $ $ $ $ $ % % $ % $ $ $ $ $ $ $ $ X X   X                       ",
"                  X X $ $ % % : : : : : : : > : : > : : : : : : = = % $ $ X X X                     ",
"            . + + @ & * < 1 2 2 6 6 6 6 6 6 6 6 6 6 6 6 6 6 6 6 6 2 1 < - & # @ . . . .             ",
"          . e Y T t y a d f k b b b b b b b b b b b b b b b b b b k f d a p t r T Y Y 9             ",
"          + Y ! ^ ) _ [ l N B B B B C C C C C C C C C C C C C B B N N z h s ` ^ ! ! Q 9             ",
"          + Y ! ^ _ g l N V V V S Z Z Z Z Z Z Z S S Z Z Z Z Z S Z C C B N g _ / ! W Q 9             ",
"          + Y ^ / ] h N C V V Z Z S Z S Z S Z Z S S Z Z Z S Z Z S S S C N l [ ( ^ ! ! 9             ",
"          + T ^ ` ] l B V S Z G G G G G G G G G G G G A G G G G H S S V C N g _ ^ ! Q 9             ",
"          + T ^ ` [ N B V S P q.7.7.7.7.7.7.7.7.7.4.q.7.7.7.7.7.q.w.S V C N g ' / ! ! 9             ",
"          . T ^ _ h m n V Z r.h.h.g.f.f.f.f.s.s.s.s.s.f.f.f.f.h.h.0.S S C N h ' / ! ! 9             ",
"          . T ^ ` g m n V Z w.f.g.f.s.f.a.a.a.a.a.a.a.a.s.s.s.f.f.0.S S C N h ' / ! W 9             ",
"          + T ^ ` g m n V Z D :.8.=.=.=.=.=.=.=.=.=.=.=.=.6.a.s.f.-.Z V V N h ' / ~ W 0             ",
"          . T ^ ` s z N V Z Z S S S G S S A S S A S G S H 3.a.a.p.I S S C N h _ / ! W 9             ",
"          + Y ! / _ h m n V V V S S S S S S G S G S A S e.5.i.a.>.G S V V m g ` ^ ! W 9             ",
"          + Y ! ^ ) s h m N V V C S V S Z S S S A S S A >.i.i.p.e.Z Z S N l g ` ^ R W 9             ",
"          . Y ! E / _ s h h m m N B C V V Z S A S S A I 5.p.5.4.D Z V V N h ] / ^ ! Q 9             ",
"          + Y W ! E ^ ) s g g h h M N B V Z S S A S A &.5.5.5.X.S S V V N g _ / ! W Q 9             ",
"          . Y W W ! R ^ / ( _ s g g h N V V Z S A S F <.5.5.1.F S S V N h s ) ^ ! W Q 9             ",
"          . Y W W ! W R R ^ ^ ) ` ' g m N V Z S S A } 2.5.5.o.A S V V m h s / R W W Q 9             ",
"          . Y W W W W ! R R R R / _ g h N V Z S S F @.,.2.<.F S S V n m g _ ^ R ! W W 9             ",
"          . Y W W W W W W W W R ^ _ s m B V Z S S J ,.,.2.&.G S Z V m h s / E ! W W Q 9             ",
"          . Y Q W W W W W W R R / _ g m n Z S S D O.,.,.,.L S S V n m g _ / R W W W Q 9             ",
"          . Y W W Q W Q W W W R / s h N V Z S S J +.,.,.#.G S Z V N z s ) ^ R W W W Q 9             ",
"          . Y Q W W W W W W R ^ _ s m N V Z S G { %.,.,.J S S Z n m h ' / R W W W W Q 9             ",
"          . Y Q W W W W W W ^ / ' h m n Z Z A K +.%.,.$.D S Z V n z g ` ^ R W W W W Q 9             ",
"          + Y Q W W W W W ! ^ _ s l B V Z S A | ,.2.2...S S Z C N h _ ) ! W W W W W Q 9             ",
"          . Y W W W W W ! R / _ g m n Z S S F <.2.2.<.F S S Z B m g _ ^ ! ! W W Q W Q 9             ",
"          . Y Q W W W W ! E ( s z N V Z S A *.5.5.5. .A S S C N h ] / ^ ! W W W W Q Q 9             ",
"          . Y Q W W W W R ^ _ g m B Z Z S F 1.5.5.5.L S S Z B m h _ / E W W W W W W Q 9             ",
"          . Y W W W W ! ^ / s h N C S S S o.t.t.y.>.G Z Z V m l s ) E ! W W W W W Q Q 9             ",
"          + Y Q W W W ! ^ ` g m B S S S H 3.i.y.y.w.S Z V n m h ' / E W W W W W W W Q 9             ",
"          . Y Q W W W ! / _ h m C S S S X.i.i.i.3.D S Z V B l s ` E R W W W Q W W Q Q 9             ",
"          + Y W Q W ! E / s z m C S S G 4.a.i.a.o.S S Z V m h ' ) R ! W W W W W W W Q 9             ",
"          . Y Q W W ! E ( s z n C S S e.d.a.d.u.P S S V B l g _ ^ R W W W W W W W W Q 9             ",
"          . Y Q W W ! E _ g m n Z S G 0.f.f.d.9.G S S V N h ' ) ^ W W W W W W W W W Q 9             ",
"          + Y W W W ! ^ _ g m n Z Z U d.g.g.d.e.S S V B M g _ ^ R ! W W W W W W W Q Q 9             ",
"          . Y Q W W ! ^ _ g m n Z S 9.h.h.h.q.G S S C N h s ` ^ W W W W W W W W W W Q 9             ",
"          + Y Q W ! W ^ ` g m B Z S e.:.:.;.P S S C C m h _ ^ ! ! W W W W W W W W W Q 9             ",
"          + Y Q W W ! ^ ` g z N C Z V S Z S V S S C N z ] / ^ ! W W W Q W Q W Q W Q Q 9             ",
"          + Y Q W W ! ~ / ' h N C C Z Z V S V V C N M [ _ ^ ! ! Q Q Q Q Q Q Q Q Q Q Q 9             ",
"          . 8 9 9 9 9 0 q w i j c v v v v v v v c j i u w q 0 0 9 9 9 9 9 9 9 9 9 9 9 ;             ",
"                      X $ % : 3 5 7 x x x x x 7 5 4 > % $ X X                                       ",
"                        X $ % : > 3 3 3 4 4 4 , > : = $ X X                                         ",
"                          X o $ % - = : : : : = % $ $ X X                                           ",
"                            X o o o $ $ $ $ $ o o X X X                                             ",
"                                X X X X X X X X X   X                                               ",
"                                    X                                                               "
};
