/* XPM */
static char *__[] = {
/* columns rows colors chars-per-pixel */
"50 50 51 1",
"  c #000101",
". c #02060A",
"X c #02080F",
"o c #030A13",
"O c #040E1A",
"+ c #05101E",
"@ c #061424",
"# c #071729",
"$ c #07182C",
"% c #08192E",
"& c #091C33",
"* c #091F39",
"= c #0A213D",
"- c #0B2443",
"; c #0C2748",
": c #0D294C",
"> c #0E2E54",
", c #0F2F58",
"< c #0E3057",
"1 c #0F315A",
"2 c #0E3661",
"3 c #0E3964",
"4 c #0E3E69",
"5 c #0D416E",
"6 c #0D4572",
"7 c #0C4976",
"8 c #0C4D7B",
"9 c #0B507F",
"0 c #0B5483",
"q c #0A5B8C",
"w c #096295",
"e c #096699",
"r c #09689C",
"t c #086EA2",
"y c #0775AB",
"u c #0778AE",
"i c #067DB4",
"p c #0680B7",
"a c #0584BD",
"s c #048BC4",
"d c #048EC8",
"f c #0492CC",
"g c #0396D2",
"h c #039AD6",
"j c #029DDA",
"k c #02A0DE",
"l c #01A4E2",
"z c #01A8E6",
"x c #00ACEC",
"c c #00B0EF",
"v c #00B1F1",
/* pixels */
"                   .  ..   .                      ",
"                . .......oX......                 ",
"              ....XoooooOoooooo....               ",
"             .XooOOO@@@@@@@@@+OOoXX..             ",
"          ...XoO@@##%&&%&&&%%##@@Ooo...           ",
"          ..oO@@#&&&*======***&&$@@oo..           ",
"         .ooO@$&*=-;;:::;;:;;;-==&$@+oX.          ",
"        ..o+@$*=-::;>::>>>>>::;:-=*&@+oX.         ",
"       ..oO@&*-;::><<1<,>,,<<<>::;-=%@Oo.         ",
"       ..O@&*-;:<<<11,,,,,1,,11<>>;-*&@Oo..       ",
"       .oO#&=;>><<,1<<,2311,<,1<<>>:-&$+o.        ",
"      .oO@&*;:>11,,27eiadspt041,1<>:-=&@oo.       ",
"      .oO#&-:>>1119alvvvvvvvxfq211>>:-&#Oo.       ",
"      .o+&*-:>,11qkvvvvvcvvvvvxt211>>-=#@o.       ",
"     ..o@&=:>>119kvvxhyeqeukccvxq11>>;=&@oo       ",
"    ..oO#&-:>,12avvca5,,,,,7dvcvd21>>:-&@Oo.      ",
"     .o+#*-:,,24kcvh611111118kvvl7<,<:-&#oX.      ",
"     .o+$*;:,110ccvp211111122svvc0<,<:-&#+X.      ",
"    ..o+$*->,,1wcvvy111221211ivvx0<1<:-&#OX.      ",
"     .o+$*-:,,1wcvva311111112dvvl7,<::-=@OX.      ",
"    ..X+$*->,,,4lvvl9,1121210lvvf21<<:==@+X.      ",
"      XO#&-:>,12avvvd5,11114dvvxq11<>:=&@o..      ",
"    ..XO@&-;>,119kvvcf01116svvxy11<<:;=&@oX       ",
"     .XO@&-:>1111qkvcvly7whvvxy2111<<;=%@OX.      ",
"      oo@%-:>,11110hccvclxvvje211111<;=&@o..      ",
"     .oO#&=:>,112114uxcvvvvlq1111111>;=%@OX       ",
"     .XO#&-:>,,11116uxvvvvvxgw3111,<>:-&#Oo.      ",
"     .oO$&-:>,,113rjvvcfalvvvxs7111<<;-=#+o.      ",
"     .o@%*;>,1114uxcvjr420azvvvh9111>>;=$+o..     ",
"    ..o@%=::,113icccs711112wjvvvg511>:;=&@O.      ",
"    ..O@&-:>,,1rccvd411111110hvxvu111>;-&@OX.     ",
"    .o+#&-:,,,4hccl012121111,qxvvj51<>:;&#Oo.     ",
"     o+#*->>1>0xvva21111111113fvvx01,>:;*#+o.     ",
"    .o+$=-:><1wxvvu,1111131112ivvvq11>:;*#Oo.     ",
"   ..o+#*->11,exvvi,2112112112avvx0,,,:-*#Oo..    ",
"    .o+#*-:>1>qxvvf41111212114jvvk4,,,:-*#Oo.     ",
"    .oO#&-;>1,6jvvxt1,,,11112uxvva11,>;-&@O.      ",
"    .XO@&-:>>,,yvcvxp9432240ixvvz011,>;=&@Oo.     ",
"     oo@%=;><1,5scvvvzgsashzvvvxt11,>:;*#@o.      ",
"     .o@#=-:>1,,5pxvvvvcvvvvvvje2111>;-&@Oo.      ",
"     .oO@&=;>>11,20phlxcccxkft6,11,>:;*&@Oo       ",
"      .o@%*;:>><1,11570qq07621,1>1>:;-&#Oo.       ",
"     ..oO@&=;:>><11,<<<,1,<,,1,1>>::-*%@O...      ",
"      ..o@#&=;:::<<<<<<,<1<1<<>>>>:;*&@Oo.        ",
"       .Xo+#&=--;:<>><><<<<>>>:::;=*&@+o..        ",
"       ..oO@@&&==;;;;:;::::;:;:-=*&$@Ooo.         ",
"       ...oo+@$&&===-----=--==**&$#@Ooo.          ",
"          .Xoo+@@$%&&&&=&=&&&&%#@@Ooo.. .         ",
"           ...oOO+@@@@###@##@@@+Ooo...            ",
"           . ..ooooOOOOO+OOOOoooo...              "
};
