/* XPM */
static char *__[] = {
/* columns rows colors chars-per-pixel */
"50 50 87 1",
"  c #000000",
". c #05000B",
"X c #090013",
"o c #101010",
"O c #190037",
"+ c #2B005D",
"@ c #2E0063",
"# c #300067",
"$ c #310069",
"% c #6D347C",
"& c #6F4264",
"* c #704266",
"= c #73426B",
"- c #764272",
"; c #784277",
": c #7B427B",
"> c #9A7257",
", c #865767",
"< c #88576B",
"1 c #804978",
"2 c #8E547C",
"3 c #9B6F61",
"4 c #99676C",
"5 c #9A686D",
"6 c #976371",
"7 c #BFA637",
"8 c #C3B227",
"9 c #C5B22B",
"0 c #C7AE36",
"q c #C8AF37",
"w c #C6AB3A",
"e c #C6B130",
"r c #C9B233",
"t c #E7DC17",
"y c #F5EF0B",
"u c #F5F207",
"i c #FAF705",
"p c #FFFF00",
"a c #F6F208",
"s c #ECE312",
"d c #D5C425",
"f c #D7C822",
"g c #DAC925",
"h c #D5C228",
"j c #A7844C",
"k c #BB9D40",
"l c #B99748",
"z c #AB815B",
"x c #B28D51",
"c c #BFA240",
"v c #3D008C",
"b c #3E0092",
"n c #420783",
"m c #42028D",
"M c #5B1C8B",
"N c #430094",
"B c #490793",
"V c #4D0A95",
"C c #46009A",
"Z c #49009E",
"A c #58109D",
"S c #5F199A",
"D c #702F8D",
"F c #753885",
"G c #783D81",
"H c #71308D",
"J c #6B2696",
"K c #4600A3",
"L c #4B00A4",
"P c #4E00AA",
"I c #5106A5",
"U c #5509A5",
"Y c #5000AE",
"T c #5608AA",
"R c #4F00B0",
"E c #5300B4",
"W c #5E0CB2",
"Q c #5600BA",
"! c #5800BE",
"~ c #641AA0",
"^ c #6B20A2",
"/ c #7F4186",
"( c #5A00C3",
") c #5D00CA",
"_ c #6000CF",
"` c #6100D2",
"' c #80408A",
/* pixels */
"  o.                                          .   ",
"                                                  ",
"                                                  ",
"                                                  ",
"                                                  ",
"      XXXXXXXXXXXXXXXXXXXXXXXXXXXXXXXXXXXXX.      ",
"     XZEYYYYYYIYPPPLPLLLLLLLLPPLPPIYYYYYEYE+      ",
"     XE))))((!(!!QQQQQQQQQQQQQ!Q!!!!((()))_$      ",
"     XE)((((!!!QQQQEEQEEEEEQEQQQQQ!!!(((())#      ",
"     XY)(((!!QQQQQEEEEEEEEEEEEEEEQQQQ!!((()#      ",
"     XY((!!!QQQQEEEEEEETJJ~EEEEEEQQQQ!!!(()#      ",
"     XY((!!QQQEEEEEERPHcssgDPYEEEEEEQQQ!!()#      ",
"     XY(!!QQQQEEEEPRA3tpppu/PPPREEEEQQQ!!!)#      ",
"     XP(!QQQQEEEYPPGrippppu:PPPPYYEEEEQ!!!(@      ",
"     XP(!QQEEEYYPSzspppippa:KLPPPYYEEQEQQ!(#      ",
"     XP!QQQEEYYYFhpppsjdppa;KLLLPIYYEEQEQQ(@      ",
"     XI!QQEEEYYIkppu7%Veppu-CKKLLPPYYEEEQ!(@      ",
"     XP!QQEEYPPI0pf,VNVeppu-CCZKLPPPYYEEQQ!@      ",
"     XLQEEEEYPPZ<>MCNNB9ppa-NCCZZLLPYYEEEQ!#      ",
"     XPQQEEYYPPLKKCNNNB9ppa=bCCCCZLPPYEEEQ!+      ",
"     XPQQEEEPPKZZNNNNNB8ppa=bNNCZZLPPYPEQQ!#      ",
"     XKQEEEYPPLZZZNNNvn8ppa*vNNCCZKLPPYEEEQ@      ",
"     XPQEEYYPLLZNNNNvvn8ppa&vmNNCCZPPPEEEQ!+      ",
"     XL!EEYPPLLZZNNNvvn8ppa&vvNNCCZKLPPEEQQ#      ",
"     XLQEEEPPPZZCNNvmvn8ppu&vvbNNZZLPIPEEEQ+      ",
"     XLQEEYYPKLZCCNNvB$8ppa&vvNCCCLLPPPEEQ!@      ",
"     XLQEEYYPPZZCCNvNvn9ppu&vvmNCCZLPIYEEQ!@      ",
"     XLQEEEYPLKZCCNNmvn9ppu&bNNNCCLKKYYEEQQ@      ",
"     XPEQEEYYLLZCCCmNbn9ppa*bNNNCZLLPYYEEQ!@      ",
"     XPQQEEYIPPKZCCCNNm9ppa*bNNZZZLPPPEEEQ!+      ",
"     XPQEEEEYPPZLZCCNNB9ppa-CNZZZLKPPYEEEQ(@      ",
"     XPQQEEEYPPLLZZNNNBeppa;bNCZZLPPYYEEQQ!@      ",
"     XP!QEEEEYYPLKKZCCVeppy-ZCZZLLPYYEEQQQ(@      ",
"     XPQQQQEEYYPPLKLZZVrppu-KKKPPPPYEEEEQQ(@      ",
"     XY!!QEEEEYYPPLLLLVeppa;KKKPPYYYEEEQQ!(@      ",
"     XP!!QQQEEYYRPPPPKIeppa:LPPPPYYEEQQQ!!(@      ",
"     XP(!!QQEEEERTUUUIAeppa1IUUTTEEEEQQQ!!)@      ",
"     XP(!!!QQQEE/wqqrrrsppph00qql~EQQQQ(!!)#      ",
"     XY)(!!QQQQExpppppppppppppppi1QQQQ(Q!()@      ",
"     XY)((!!!!QQzpppppppppppppppa'QQQQ(!(()#      ",
"     XY))!(!!!Q!^6544464464444552WQ!!!!(())$      ",
"     XE))(((!!!QQQQQQQQEEQEEQQQQQQ!!!(((()_$      ",
"     XE`__(()!(((!!!(QQQ(QQ((Q!!(((())))))`$      ",
"     .+$########@@@@@@@@@@+@@@@@@@@@@@####$O      ",
"                                                  ",
"                                                  ",
"                                                  ",
"                                                  ",
"                                                  ",
"                                                  "
};
