/* XPM */
static char *__[] = {
/* columns rows colors chars-per-pixel */
"50 50 109 2",
"   c #000000",
".  c #02020D",
"X  c #030317",
"o  c #030318",
"O  c #090942",
"+  c #0F0F70",
"@  c #0F0F78",
"#  c #10107B",
"$  c #5C5C73",
"%  c #535378",
"&  c #6A6A72",
"*  c #666679",
"=  c #7B7B71",
"-  c #74747D",
";  c #7D7D7B",
":  c #AFAF3E",
">  c #BBBB35",
",  c #B1B13D",
"<  c #BBBB3D",
"1  c #DCDC1B",
"2  c #ECEC0F",
"3  c #F7F707",
"4  c #FEFE01",
"5  c #F2F20C",
"6  c #E7E711",
"7  c #EAEA14",
"8  c #E4E41A",
"9  c #CBCB2D",
"0  c #DBDB25",
"q  c #D2D229",
"w  c #C2C233",
"e  c #CECE30",
"r  c #C3C33E",
"t  c #828254",
"y  c #81815E",
"u  c #8B8B5C",
"i  c #9B9B5D",
"p  c #ABAB45",
"a  c #A3A34D",
"s  c #A9A948",
"d  c #B7B740",
"f  c #B1B14C",
"g  c #A1A154",
"h  c #9A9A61",
"j  c #858572",
"k  c #8B8B70",
"l  c #838379",
"z  c #111181",
"x  c #39398F",
"c  c #242495",
"v  c #2F2F9D",
"b  c #0F0FA4",
"n  c #1111A4",
"m  c #1212AB",
"M  c #1313B4",
"N  c #1919B2",
"B  c #1515BC",
"V  c #1C1CBE",
"C  c #2B2BA6",
"Z  c #2929AB",
"A  c #3333A6",
"S  c #3D3DA5",
"D  c #2424B1",
"F  c #2929B5",
"G  c #2626BD",
"H  c #3838B0",
"J  c #3B3BBB",
"K  c #575781",
"L  c #575789",
"P  c #595989",
"I  c #404093",
"U  c #484890",
"Y  c #575794",
"T  c #595996",
"R  c #7A7A83",
"E  c #72728B",
"W  c #616190",
"Q  c #6D6D90",
"!  c #636399",
"~  c #4242A6",
"^  c #4242AD",
"/  c #5959A4",
"(  c #5151AF",
")  c #4242B2",
"_  c #4848BB",
"`  c #5252B0",
"'  c #1616C4",
"]  c #1D1DC1",
"[  c #1717CA",
"{  c #1919CD",
"}  c #1616D3",
"|  c #1A1AD3",
" . c #1B1BDC",
".. c #2626C3",
"X. c #2424CB",
"o. c #3535C4",
"O. c #3F3FC0",
"+. c #3737C9",
"@. c #3D3DC8",
"#. c #2424D3",
"$. c #2323DB",
"%. c #3030D4",
"&. c #1C1CE4",
"*. c #1E1EEB",
"=. c #1F1FF0",
"-. c #2121E3",
";. c #2020F3",
":. c #2222FA",
">. c #4343C0",
/* pixels */
"                                                                                            .       ",
"                                                                                                    ",
"                                                                                                    ",
"                                                                                                    ",
"                                                                                                    ",
"            X o X X o o o o o X o o o o o o o X X X X X X X X X X X o o o o o X o o o .             ",
"          X V  .#. .|  .| | { | { { { { { { { { { { { { { { { { | | { | | | | |  .$. .+             ",
"          X  .:.;.;.;.-.;.;.*.*.;.*.-.*.*.*.-.*.*.-.&.*.*.*.*.;.*.-.;.-.;.;.;.;.;.;.:.#             ",
"          o $.;.;.;.;.*.*.*.*.&.*.*.*.&.&.&.&.&.*.&.&.*.&.&.&.*.*.&.*.*.*.-.=.;.;.;.:.#             ",
"          o | ;.;.-.;.*.*.*.&.*.&.&.&.*.&.&.&.&.&.&.&.&.&.&.&.&.&.*.*.&.*.*.*.-.-.;.:.#             ",
"          o { ;.=.*.*.*.*.*.*.&.&.&.&.$.O./ Q R Q ! J $.&.&. .&.&.&.&.*.*.*.*.*.=.=.;.#             ",
"          X | ;.*.-.*.*.*.*.&.&.&.o.R < 8 5 4 4 4 3 8 f T  . .&.&.&.&.&.*.*.*.*.*.*.:.#             ",
"          o | ;.;.*.-.*.*.&.&.$.E q 4 4 4 4 4 4 4 4 4 4 7 l #. . .&.&.&.&.&.&.*.*.;.;.#             ",
"          o | ;.*.*.&.*.&.&.&.! 5 4 4 4 4 7 8 8 5 4 4 4 4 3 ;  . . . .*.&.*.&.*.*.*.;.#             ",
"          o | -.*.*.&.&.&.&. .k 4 4 5 < - ~ H H Y a 3 4 4 4 8 ^  . . .&.&.&.&.*.*.*.;.#             ",
"          o { ;.*.*.&.&. .&. .; 3 < Y ..[ [ [ [ [ ..= 3 4 4 4 j |  . . . .&.&.*.*.*.*.#             ",
"          o { *.*.*.&.&.&. . .J W ..{ { ' [ ' ' ' ' ] s 4 4 4 d { |  . . .&.&.&.*.*.*.@             ",
"          o { *.&.&.&.&. . .} } } { [ ' ' ' ' B B B ' P 3 4 4 q ..} | |  .&.&.&.&.*.*.@             ",
"          o | *.&.&.&. . .| | | { [ ' ' B B V B B V B x 2 4 4 q G [ | | |  .&.&.&.*.;.@             ",
"          o { *.*.&.&. . . .} { [ ' ' ' B B B M M M B U 5 4 4 w G { { |  . . .*.&.*.*.@             ",
"          X { *.&.&. . . .| { { ' ' ' B M M N M m M M K 4 4 4 p ' [ { | |  . .&.&.&.*.#             ",
"          X { -.&.&. . .| | { [ ' ' B B B M m m m m M y 4 4 4 u ' [ { } }  . . . .*.*.@             ",
"          X { *.&.&.&. . .} { [ ' ' B M M m m m m m n 9 4 4 3 L ' ' { { |  . .&.&.&.*.@             ",
"          X [ *.&.&. . .| { { { ' ' B M M m m m b b $ 3 4 4 w D ' ' [ { |  . .&.&.*.*.@             ",
"          X { -.&. . .| | } [ ' ' B B M M m m n b c > 4 4 3 * B ' ' [ { | |  . .&.&.*.@             ",
"          o { *.&.&.&. .| | { [ ' V B M M m m b n t 4 4 4 , N B ' ' { { }  . .&.&.*.*.@             ",
"          X { *.&.&. . .| } { [ ' ' B M M m m b % 6 4 4 1 I B B ' ' { { |  . . .&.&.=.@             ",
"          X { *.*.&. . .| | { [ ' B B B M M m x 1 4 4 2 & M B B ' ' { { | |  .&.&.*.*.@             ",
"          o { *.&.&. . . .} { [ { ' ' B M M v > 4 4 4 u N B B B ' { { } |  . . .&.&.*.@             ",
"          X { *.&.&.&. .| | | { ' ' ' B B C , 4 4 4 a N B B ' ' ' [ { | |  .&.&.&.*.*.@             ",
"          X { -.*.&.&. . . .} | { ' ' ' F p 4 4 4 : Z B B B ' ' [ { } |  . .&.&.*.*.*.@             ",
"          X | *.&.*.&.&. .| | | { [ ' F s 4 4 4 > C B V ' ' ' [ [ | | |  . . .&.&.*.*.@             ",
"          o { *.*.*.&.&. . . .| | | G a 4 4 4 > A ' ' ' ' ' { { } | |  . .*.&.&.*.*.=.@             ",
"          o #.*.*.&.&.&.&. . .| | ..g 4 4 4 9 S ' ' ' ' [ [ { { | | |  . . .&.&.&.*.*.#             ",
"          o | -.*.&.&.&.&. . . .X.i 4 4 4 9 ~ { [ [ { { | { | | }  . .&. .*.&.&.*.*.-.#             ",
"          o { ;.*.*.*.&.&.&.&.#.h 3 4 4 q ^ } { } { } } } } }  . . . .&.&.&.*.*.*.*.;.#             ",
"          o { ;.*.*.*.*.*.&. .l 3 4 4 7 R H ^ ^ ^ ^ ^ ) ^ ) ) ) o. .&.&.&.&.*.*.*.*.=.@             ",
"          o { ;.*.*.*.*.*.&.+.0 4 4 4 3 7 7 7 7 7 6 7 7 7 7 7 7 e O.*.&.&.*.*.*.*.*.:.#             ",
"          o  .;.-.*.*.*.*.*.>.7 4 4 4 4 4 4 4 4 4 4 4 4 4 4 4 4 5 / *.&.&.*.*.*.;.*.:.#             ",
"          o | ;.=.=.*.*.*.*.%.r 5 2 5 2 5 5 2 2 5 7 5 5 2 5 5 5 0 _ *.&.*.*.*.*.;.;.:.#             ",
"          X  .;.;.*.;.*.*.*.*.@.( ` ` _ ( ( _ ( ( ( ( _ ( ( ` ` _ -.*.*.*.*.;.*.-.=.:.#             ",
"          X | :.;.;.;.*.-.*.*.*.*.*.*.*.&.&.*.&.&.&.&.*.*.&.*.*.*.*.*.=.-.;.*.*.*.:.:.z             ",
"          o  .:.:.:.:.;.=.=.=.=.=.=.=.*.*.=.*.*.*.*.*.*.*.=.;.-.*.=.=.=.=.:.:.:.:.:.:.z             ",
"          . + z # # # # z # # # # @ @ # @ @ @ @ @ @ @ @ @ @ # # @ @ # @ # @ # # # # z O             ",
"                                                                                                    ",
"                                                                                                    ",
"                                                                                                    ",
"                                                                                                    ",
"                                                                                                    ",
"                                                                                                    "
};
