/* XPM */
static char *__[] = {
/* columns rows colors chars-per-pixel */
"50 50 114 2",
"   c #000000",
".  c #000C0C",
"X  c #0D0D0D",
"o  c #005456",
"O  c #095C53",
"+  c #005659",
"@  c #005C5C",
"#  c #15624D",
"$  c #1E694B",
"%  c #07625C",
"&  c #09665E",
"*  c #0B685D",
"=  c #136552",
"-  c #176A54",
";  c #156D58",
":  c #19735B",
">  c #236F4C",
",  c #2F7343",
"<  c #317B4B",
"1  c #237451",
"2  c #267C56",
"3  c #217B5A",
"4  c #005E60",
"5  c #006464",
"6  c #066964",
"7  c #006769",
"8  c #006B6C",
"9  c #0D7265",
"0  c #06726D",
"q  c #0B766B",
"w  c #0F7A6B",
"e  c #157863",
"r  c #137D6A",
"t  c #006F70",
"y  c #007474",
"u  c #057874",
"i  c #007678",
"p  c #007A7A",
"a  c #49863E",
"s  c #599037",
"d  c #699930",
"f  c #649E39",
"g  c #7CA72B",
"h  c #64A43F",
"j  c #6BA63B",
"k  c #6EAA3D",
"l  c #70A232",
"z  c #7FB435",
"x  c #75B13C",
"c  c #7AB339",
"v  c #7DB83A",
"b  c #3F8243",
"n  c #398249",
"m  c #28865E",
"M  c #2D885B",
"N  c #328553",
"B  c #368C56",
"V  c #398D54",
"C  c #308959",
"Z  c #1E8465",
"A  c #16806A",
"S  c #188269",
"D  c #228563",
"F  c #278A63",
"G  c #2B8C61",
"H  c #428542",
"J  c #488C44",
"K  c #4E9647",
"L  c #44914E",
"P  c #499349",
"I  c #4F9A4B",
"U  c #569540",
"Y  c #559C47",
"T  c #5E9F42",
"R  c #419150",
"E  c #4A9A50",
"W  c #63A440",
"Q  c #64A844",
"!  c #6BAE43",
"~  c #63AB48",
"^  c #8BB52B",
"/  c #90B626",
"(  c #96BE29",
")  c #88BC35",
"_  c #A4C21E",
"`  c #ADCC1E",
"'  c #B4CD19",
"]  c #B4D11D",
"[  c #B8D31B",
"{  c #BCD91D",
"}  c #94C22E",
"|  c #9ECB2C",
" . c #94C531",
".. c #A1C525",
"X. c #A5CA24",
"o. c #AED224",
"O. c #A8D028",
"+. c #B4D521",
"@. c #C7D912",
"#. c #C8DB13",
"$. c #C4DE1B",
"%. c #D8E60E",
"&. c #DDEB0E",
"*. c #CEE315",
"=. c #D1E514",
"-. c #DBEB10",
";. c #E2EE0C",
":. c #EDF407",
">. c #E7F10A",
",. c #EAF209",
"<. c #F2F705",
"1. c #F5F904",
"2. c #FEFF00",
"3. c #008181",
/* pixels */
"                                                                                                    ",
"                                                                                                    ",
"X                                                                                                   ",
"                                                                                                    ",
"                                                                                                    ",
"            . . . . . . . . . . . . . . . . . . . . . . . . . . . . . . . . . . . . . .             ",
"          . 7 y t t 0 y 0 8 8 8 8 8 8 8 8 8 8 7 8 7 8 8 8 8 8 8 8 8 8 t t t t t y t y 7 .           ",
"          . y 3.3.3.3.p 3.p p p p p i y i y i i i i y p y y p y p i p p p 3.3.3.3.3.3.y .           ",
"          . y 3.p 3.p p p p y p i i i u i y y u y y y y y y i y i y y p p p p A p 3.3.y .           ",
"          . y p 3.p p p p p p y i y y y y y y i y y y y y y y y y i p y p p p p p p 3.t .           ",
"          . 8 3.p p p p p y i i i y y y t q r e m r 0 y t y y y i y i i y p p p p 3.A i .           ",
"          . t 3.p p p p y y y y y y r E ) +.=.-.%.*.o.x m 8 y 0 0 y y y y p y p p p p y .           ",
"          . t p p p p y y y y y w Q $.1.2.2.2.2.2.2.2.2.-.! 9 t y y y i y y y y p p 3.t .           ",
"          . 0 p p p y y p y i q } 1.2.2.2.2.1.1.2.2.2.2.2.1.c 8 8 t 8 y i i p i i p p 8 .           ",
"          . 8 p p i i y y y y M ;.2.2.>.X.W P K j X.<.2.2.2.,.R 8 y 8 y y y y i i p p t .           ",
"          . 8 p p i i y y y 8 C >.>.( N 6 5 5 5 5 6 j 1.2.2.2.} 8 8 8 0 0 y i i i i p 8 .           ",
"          . 8 p i y i y i 8 0 e z L 6 5 5 5 5 5 % 4 6 ..2.2.2.*.: 8 8 0 t y y y i i y 8 .           ",
"          . 8 p i i y y 0 0 8 8 8 7 5 5 5 5 @ 5 5 4 4 U 2.2.2.;.3 7 8 8 8 y y y y i p 8 .           ",
"          . 8 y y y y 8 t 8 8 7 7 5 5 5 4 4 % @ @ @ @ n <.2.2.;.2 7 8 8 8 y y y y p y 8 .           ",
"          . 8 y y y y y t 8 7 7 7 5 5 4 % @ @ @ @ @ + b 1.2.2.%.: 5 6 8 8 8 8 i y y y 8 .           ",
"          . 8 i y y y 0 0 8 7 6 5 5 4 @ @ @ @ + + @ + l 2.2.2.` & 7 7 7 8 y 8 y y y y 8 .           ",
"          . 8 i y y y y 8 8 7 6 5 5 5 @ @ @ + o o + $ #.2.2.2.f 4 5 5 7 8 8 8 y y y y 8 .           ",
"          . 8 i y y 8 0 8 8 7 5 5 @ @ @ @ o o o o $ _ 2.2.2.[ - @ 7 5 7 8 8 8 y y y p 8 .           ",
"          . 7 i y y y 8 8 8 7 5 @ 5 % - = # # , d @.2.2.2.#.< @ 5 % 5 7 7 8 8 t y y y 8 .           ",
"          . 8 i y y 8 8 8 8 6 5 5 & ^ %.%.%.%.;.1.2.1.;./ > @ @ 4 5 5 7 7 8 t y y y y 7 .           ",
"          . 7 i y y y 8 8 8 7 5 4 ; %.2.2.2.2.2.2.2.:._ a O @ @ 4 % 5 7 7 8 8 0 0 y p 7 .           ",
"          . 7 y y y y 8 8 7 7 5 5 * ' 1.<.<.1.2.2.2.2.2.<.[ a @ 5 5 5 5 8 8 0 y y i i 7 .           ",
"          . 8 y y y y t 8 8 7 5 5 @ 1 H H H a s g ' :.2.2.2.,.f % 5 5 7 8 8 8 0 y y i 8 .           ",
"          . 8 y y y y 8 8 8 7 6 5 % @ 4 @ + + o o O b ' 2.2.2.;.J 5 7 7 8 8 0 y y y y 8 .           ",
"          . 8 p y y 0 t 8 8 8 7 7 5 5 @ @ @ @ + @ + + - ` 2.2.2.] * 7 8 8 8 8 0 y y y 8 .           ",
"          . 8 y i y y 0 0 8 7 7 5 5 4 4 @ @ @ @ @ @ @ @ < ;.2.2.,.V 7 8 8 y y y y y p 8 .           ",
"          . 8 p i y y y 0 8 8 7 7 7 5 5 5 % @ @ @ @ @ @ % ` 2.2.2.T 7 8 8 0 y y y y y 8 .           ",
"          . 8 p p i y y 0 8 8 8 7 7 7 5 5 % % 4 5 @ 5 % 5 ( 2.2.2.W 8 8 8 y y y y i p 8 .           ",
"          . 8 p i i y i y 0 y 8 8 7 7 5 7 5 5 % 5 4 5 5 5 ..2.2.2.Y t 8 8 y y i y y p 8 .           ",
"          . t p y y y y y y 8 t 8 8 7 8 7 5 5 6 5 5 5 5 : *.2.2.:.V t t 0 y y y y p p 8 .           ",
"          . 8 p p y p y y y y V C 8 8 8 7 7 7 7 7 7 7 7 j 2.2.2.{ 9 t t y i p y p p p 8 .           ",
"          . 8 p p y y i y y r $.;.) B 9 8 7 8 8 7 7 9 h >.2.2.1.Q t y y y y y p p p p 8 .           ",
"          . 8 3.p p p p i y r *.2.2.>.{ c I V V L k +.1.2.2.2.o.r y y y y y y p p 3.A 8 .           ",
"          . 0 p p p p y y i u O.2.2.2.2.2.1.:.:.<.2.2.2.2.2.+.D y y y y i i i y p p p y .           ",
"          . y p A p p p p i i F  .-.2.2.2.2.2.2.2.2.2.2.&.v r y y y y i i p p p p 3.p y .           ",
"          . y 3.3.3.p p p p i i y G ~ | *.=.;.>.%.*.O.! F y y y i i i i i p p p p 3.3.t .           ",
"          . y 3.3.3.p p p p p i y i p i w Z G G F S u y y i i i i i p p p p p p 3.p 3.t .           ",
"          . y A 3.3.3.p 3.p p p y p p i p i i i i y i i i i i p y p p p p 3.3.3.3.3.3.t .           ",
"          . 7 i t t t t t 8 8 t 8 8 8 8 8 8 8 7 8 8 7 8 7 8 8 8 8 8 8 8 8 t t y t t i 5 .           ",
"            . . . . . . . . . . . . . . . . . . . . . . . . . . . . . . . . . . . . . .             ",
"                                                                                                    ",
"                                                                                                    ",
"                                                                                                    ",
"                                                                                                    ",
"                                                                                                    "
};
