/* XPM */
static char *__[] = {
/* columns rows colors chars-per-pixel */
"50 50 103 2",
"   c #000000",
".  c #000E00",
"X  c #0D0D0D",
"o  c #001000",
"O  c #002900",
"+  c #004500",
"@  c #004B00",
"#  c #005000",
"$  c #0A6900",
"%  c #166E00",
"&  c #027700",
"*  c #017C00",
"=  c #0A7D00",
"-  c #117000",
";  c #317E00",
":  c #008400",
">  c #0B8400",
",  c #008B00",
"<  c #0B8C00",
"1  c #138400",
"2  c #1A8700",
"3  c #128A00",
"4  c #1C8B00",
"5  c #009200",
"6  c #0C9100",
"7  c #009900",
"8  c #139400",
"9  c #199500",
"0  c #1D9C00",
"q  c #2A8100",
"w  c #248C00",
"e  c #2D8C00",
"r  c #328200",
"t  c #3C8D00",
"y  c #219300",
"u  c #2D9300",
"i  c #239A00",
"p  c #2C9B00",
"a  c #309100",
"s  c #399600",
"d  c #339B00",
"f  c #3B9B00",
"g  c #34A000",
"h  c #3DA300",
"j  c #478C00",
"k  c #429400",
"l  c #4D9000",
"z  c #439B00",
"x  c #4A9E00",
"c  c #539700",
"v  c #5C9C00",
"b  c #619E00",
"n  c #40A500",
"m  c #4CA400",
"M  c #4BAA00",
"N  c #53A400",
"B  c #5BA400",
"V  c #52AD00",
"C  c #5BAD00",
"Z  c #52B000",
"A  c #5BB100",
"S  c #64A400",
"D  c #6CA600",
"F  c #63AC00",
"G  c #6BAC00",
"H  c #73AE00",
"J  c #63B200",
"K  c #6AB400",
"L  c #6CB900",
"P  c #73B300",
"I  c #7BB300",
"U  c #7CBC00",
"Y  c #77C000",
"T  c #84B600",
"R  c #85BA00",
"E  c #8BBA00",
"W  c #83C300",
"Q  c #8CC400",
"!  c #94C400",
"~  c #9CC400",
"^  c #94CB00",
"/  c #9CCC00",
"(  c #A4C700",
")  c #A4CB00",
"_  c #A4D100",
"`  c #AAD100",
"'  c #ACD900",
"]  c #B1D200",
"[  c #B9D700",
"{  c #B6DC00",
"}  c #BADA00",
"|  c #C5DE00",
" . c #C1E000",
".. c #CBE300",
"X. c #D5E700",
"o. c #D3E800",
"O. c #DBEB00",
"+. c #E0EE00",
"@. c #E5F200",
"#. c #EBF400",
"$. c #F1F700",
"%. c #F6FA00",
"&. c #FFFF00",
/* pixels */
"                                                                                                    ",
"                                                                                                    ",
"X                                                                                                   ",
"                                                                                                    ",
"                                                                                                    ",
"            o o o o o o . . . . . . o o . o . . . . . . . . . . o o . . . . . . . o . .             ",
"          . & : : : : : : * * : * * * * * * * * * * * * * * * * * * : * : : : : : : , +             ",
"          . , 7 5 5 5 5 5 5 5 5 5 , , , , , , , , , , , , , , , , 5 , 5 , 5 5 5 5 7 7 #             ",
"          o : 7 5 5 5 5 5 , , , , , , , : , : , < 6 6 6 8 6 6 < , , , , 5 5 5 5 5 5 7 @             ",
"          . : 5 5 5 5 , , , , , , , : , , , < p h n h h h n h p 8 , , , , , 5 , 5 5 7 #             ",
"          . : 5 5 5 , 5 , , , , , : , : : < p V J K L Y L L J Z i , , , , , 5 5 5 5 7 @             ",
"          . : 5 5 5 , , , , , , , : : : : 4 m J W o.@.#.@.O.^ A p , : , , , , 5 5 5 5 @             ",
"          . : 5 , , , , , , , : : : : : > d C L o.&.&.&.&.&.} A d > , , , , , , , 5 5 @             ",
"          . * 5 5 , , , , : : : : : * * 4 m F _ &.&.&.&.&.&.} C p , : : , , , , , 5 5 @             ",
"          . * 5 , , , , , : : : * : * > f C U @.&.&.$.&.&.&.} C u : : : : , , , , 5 5 @             ",
"          . : , , , , , : : : : : * * u N F [ &.&.@.} &.&.&.{ C u > : : : : , , , , 5 @             ",
"          o * 5 , , , , : : : * * * 1 z F E $.&.&.) ) &.&.&.} C u : * : : : : , , , 5 @             ",
"          o * , , , : : : : * * * = a B H ..&.&.o.P / &.&.&.} B u = * : : : , : , , , @             ",
"          . * , , , , : : * * * & w x F ~ %.&.%.! S ) &.&.&.} B e * * * : : : , , , 5 @             ",
"          . * , , : : : : * * * = s B I +.&.&.| D S ) &.&.&.} B u & * * * : : , , , , @             ",
"          . * , , : : : : * * = w c F ] &.&.#.T S S ( &.&.&.} B e = * * * : : : : , , @             ",
"          . * , , : : : : * * = k C R #.&.&.] S b S ( &.&.&.} B e & & * * : : , : , , @             ",
"          . * , , , : : : & * u B G | &.&.O.H v v b ( &.&.&.[ B e & & * * : : : , , , @             ",
"          . * , : : : : * * 2 x F ! %.&.&.~ b l j v ( &.&.&.[ B e & & * * * : : : , , @             ",
"          . * , : : : : * > s B P X.&.&...D c r ; v ( &.&.&.[ v e & & * * * : : : , , @             ",
"          . * , , , : : : w m F ` &.&.#.E b t % ; v ( &.&.&.[ B r & & * * * : : , , , @             ",
"          . * , , : : : 1 z C R #.&.&.[ D c % $ ; v ( &.&.&.[ B e & & * * : : : : , , @             ",
"          . * , : , : > u C K } &.&.@.I v t - $ ; b ( &.&.&.[ B e = * * : * : : : , , @             ",
"          . * , , : : 3 n F Q %.&.&.) S v t q q j v ) &.&.&.} B z e w 4 > : : : , , , @             ",
"          . * , , : , y N L o.&.&.o.P F S B B v B S ) &.&.&.[ F C N N m w : : , , , , +             ",
"          o * , , : , p C Q %.&.&.X.[ [ } [ [ [ [ [ X.&.&.&.+.[ } [ W C d , : : , , 5 @             ",
"          o * , , , < p A / &.&.&.&.&.&.&.&.&.&.&.&.&.&.&.&.&.&.&.&.| J f > , : , , , @             ",
"          . * , , , < d C ^ &.&.&.&.&.&.&.&.&.&.&.&.&.&.&.&.&.&.&.&. .A f , , , , , 5 @             ",
"          . * 5 , , , i C Y  .......................+.&.&.&.#.......! A d < : , , , 5 @             ",
"          . * 5 , , , 8 h A J J J J J F F F F F F J ) &.&.&.} J J J J M i , , , , , 5 @             ",
"          o * 5 5 , , , 9 g h h h f f f f f f f N F ) &.&.&.} A m h h p < , , , , 5 5 @             ",
"          . * 5 5 , , , , < < < < > > > > > > 1 d C _ &.&.&. .A d 3 < , , , , , , 5 5 @             ",
"          . : 5 5 5 , , , , , , , : : : : : * : d C _ &.&.&.{ A d , , : : , , , 5 5 7 @             ",
"          . : 5 5 , 5 , , , , : : : : : : : : > d A _ &.&.&.} A p < , , , 5 , , , 5 5 @             ",
"          o : 5 5 5 , 5 , , , , , , , , : : : < p C _ &.&.&.{ A p 5 , , , , 5 5 5 5 7 @             ",
"          o : 7 5 5 5 5 , , , , , , , , , : : , p A Y ' { ' Y A g , , , , 5 5 5 5 5 7 @             ",
"          . : 5 5 5 5 5 5 , , 5 , , , , , , , , 9 h Z Z Z Z Z M 0 5 , 5 5 , 5 5 5 5 7 #             ",
"          o , 7 7 7 5 7 5 5 5 5 5 , , 5 , , , , 5 8 i i 0 0 i 0 6 5 5 5 5 5 7 7 7 7 7 #             ",
"          . @ # @ # @ @ @ @ @ @ @ @ @ @ @ @ @ @ @ @ @ @ @ # @ @ @ @ @ @ @ @ @ @ # # # O             ",
"                                                                                                    ",
"                                                                                                    ",
"                                                                                                    ",
"                                                                                                    ",
"                                                                                                    ",
"                                                                                                    "
};
