/* XPM */
static char *__[] = {
/* columns rows colors chars-per-pixel */
"50 50 86 1",
"  c #000000",
". c #060800",
"X c #0C0C00",
"o c #180E00",
"O c #422700",
"+ c #704200",
"@ c #7B4600",
"# c #7E4900",
"$ c #814C00",
"% c #815300",
"& c #855900",
"* c #8D6500",
"= c #BD6B00",
"- c #BE7000",
"; c #C46D00",
": c #C47300",
"> c #CD7400",
", c #C37B00",
"< c #CD7A00",
"1 c #D27600",
"2 c #D47A00",
"3 c #DC7B00",
"4 c #E27E00",
"5 c #C58100",
"6 c #CB8100",
"7 c #C78D00",
"8 c #CC8A00",
"9 c #D38300",
"0 c #DC8300",
"q c #D48B00",
"w c #DA8B00",
"e c #CB9400",
"r c #CE9C00",
"t c #D39500",
"y c #DC9200",
"u c #D49B00",
"i c #DB9B00",
"p c #E68100",
"a c #EB8500",
"s c #E58B00",
"d c #ED8A00",
"f c #F28C00",
"g c #E39600",
"h c #ED9200",
"j c #E49C00",
"k c #ED9D00",
"l c #F29200",
"z c #FA9100",
"x c #F29B00",
"c c #CEA100",
"v c #D4A100",
"b c #DCA400",
"n c #D4A900",
"m c #DDAB00",
"M c #D7B400",
"N c #DCB400",
"B c #E3A500",
"V c #EDA400",
"C c #E4AB00",
"Z c #EDAC00",
"A c #F2A300",
"S c #F2AD00",
"D c #E3B200",
"F c #EBB400",
"G c #E5BB00",
"H c #ECBA00",
"J c #F2B200",
"K c #F1BB00",
"L c #E3C400",
"P c #EFC200",
"I c #E5CC00",
"U c #ECCC00",
"Y c #F3C300",
"T c #F5CC00",
"R c #E7D000",
"E c #ECD300",
"W c #EEDD00",
"Q c #F3D400",
"! c #F5DD00",
"~ c #F8DB00",
"^ c #F5E600",
"/ c #F9E400",
"( c #F5EB00",
") c #FAED00",
"_ c #FBF300",
"` c #FFFE00",
/* pixels */
"                                                  ",
"                                                  ",
"                                                  ",
"                                                  ",
"                                                  ",
"      oooooooooooooooooooooooooooooooooooooX      ",
"     o-0322222112<11>1<>>><1>1>111111231230+      ",
"     o3zflffffffhlhdhddhhdddhhdhddfffffflzz$      ",
"     o0ffffdfdhkxVxVkkkVkkkkkVkkhdsafdffffz$      ",
"     o2lffddahASJZSSSZSZZZZSZSZSVhdaaadffff$      ",
"     o2ffddadkZJJKYKKKKKKKKYKKJJZkdaaddaddz@      ",
"     o2faddadkZJQ_____________)KZkdaaaaddfz$      ",
"     o1ffaaafkSJ)``````````````YZVspaaafadf$      ",
"     o1fdaaadhZH_`````````````_PVksp4a4aafa$      ",
"     o1faa4askZH_``_QEQEEQEQQETDBgd44aaaaaf$      ",
"     o1daaaashVF)``_DCbBbbmBbBCCBd44444aaaa@      ",
"     o1aappppkBF_``_Dmbutttiuiiy003344a4aaf$      ",
"     o1fapppsgBF)``_Cbt8666669993113444aaaa@      ",
"     o>apa4ppyBF_``_Nvt,:::::::>>11334444af@      ",
"     o1aappp0gBD(``_mut76,,,::;;>>113444aaa@      ",
"     o>ap4440yBD)``_mvvre7e786:::>1133444af#.     ",
"     o1aa4443gBD_``_ncvrrrrrueq8<>>113444a4@      ",
"     o1aa4440ybD(``_RIERILMnvuutq111144444f@      ",
"     o1ap4430ybD_``````````(RNvut9111144aaf@      ",
"     o>aa4443wbC)````````````(Lnvt9133344aa@      ",
"     o>a4a440wjmE(^!ERRW^`````_Lbby9134444d@      ",
"     o>a44443wibbmnncccccMR````_Dbtw1334aad@      ",
"     o1a444430wibuuueeeerrcL_```Ebjy034444a@      ",
"     o>aa444319wqq88,,557euvW```/Cby4444a4f$      ",
"     o1aa44433112<,:;=--,7rvL```_DByp444aaa@      ",
"     o1aa44443111;;;====-5tvN_``_GBgp4444af@      ",
"     o1aaa44333111>;;;==;6tvG_``_GBg0p44f4a@      ",
"     o1aaappppw002<>:;;::8ibG_``_DCgppppaaf@      ",
"     o1daapasgkjgyq221<<9ibbU```/FBgsppaaaf@      ",
"     o1faaaskVZCCBjiywqqibCC^```QZVgappaaaf@      ",
"     o1faaahkSFYFVCCBbBBBCDE```_HZVhapaaadf@      ",
"     o2ffadhVST_/THFFVCCZG/_```QFZkdaaaaaaf@      ",
"     o2faadhAFQ```_/!QQ!)_````/FZVhspaaaffz@      ",
"     o2fffdhAJT_````````````_!KSZkdaaaaafdz#      ",
"     o2ffadfASKT)_````````_/TJJZVhsaaddffff$      ",
"     o3fffflkAJJKYT~//)/~TYJZSZkhdaaafdfffz#      ",
"     o2zfffflxASSSSJJJKJJJJZSAkhddafaaffffz$      ",
"     o0zzzffllxAASSJSJJJSSSAxllffffffzfzfzz$      ",
"     X+$####$##%%&********&&##@@@@@@#@##$$$O      ",
"                 ..XXXXXXX                        ",
"                    .  .                          ",
"                                                  ",
"                                                  ",
"                                                  ",
"                                                  "
};
