/* XPM */
static char *__[] = {
/* columns rows colors chars-per-pixel */
"50 50 144 2",
"   c #000000",
".  c #0B0C00",
"X  c #160000",
"o  c #190100",
"O  c #1F0900",
"+  c #121400",
"@  c #101010",
"#  c #200A00",
"$  c #261000",
"%  c #2C1800",
"&  c #321F00",
"*  c #382500",
"=  c #3D2B00",
"-  c #423000",
";  c #BF0000",
":  c #CF0000",
">  c #D30000",
",  c #DB0100",
"<  c #D30B00",
"1  c #DC0B00",
"2  c #D21300",
"3  c #D91300",
"4  c #D31900",
"5  c #DA1B00",
"6  c #E50200",
"7  c #EC0100",
"8  c #E50B00",
"9  c #EB0B00",
"0  c #F20000",
"q  c #F90000",
"w  c #F10C00",
"e  c #E41400",
"r  c #EB1300",
"t  c #E41D00",
"y  c #EC1B00",
"u  c #F01100",
"i  c #F11D00",
"p  c #C62200",
"a  c #C52A00",
"s  c #CB2B00",
"d  c #D42300",
"f  c #DD2300",
"g  c #D52B00",
"h  c #DA2A00",
"j  c #C63000",
"k  c #CA3300",
"l  c #CE3E00",
"z  c #D73300",
"x  c #DE3400",
"c  c #D43B00",
"v  c #DA3D00",
"b  c #E42300",
"n  c #EB2300",
"m  c #E52C00",
"M  c #EC2B00",
"N  c #F02200",
"B  c #F02B00",
"V  c #E43100",
"C  c #ED3300",
"Z  c #E53C00",
"A  c #EC3C00",
"S  c #F03300",
"D  c #C74000",
"F  c #CA4500",
"G  c #CF4B00",
"H  c #D34200",
"J  c #DB4200",
"K  c #D44B00",
"L  c #DB4B00",
"P  c #CC5400",
"I  c #CE5C00",
"U  c #D35400",
"Y  c #DB5400",
"T  c #D45C00",
"R  c #DC5C00",
"E  c #E44500",
"W  c #ED4400",
"Q  c #E54C00",
"!  c #ED4C00",
"~  c #F24300",
"^  c #F14C00",
"/  c #E55500",
"(  c #EC5400",
")  c #E45D00",
"_  c #ED5D00",
"`  c #F15500",
"'  c #F15B00",
"]  c #CE6200",
"[  c #CD6D00",
"{  c #D46300",
"}  c #DC6300",
"|  c #D56C00",
" . c #DC6C00",
".. c #CF7000",
"X. c #D37100",
"o. c #DD7100",
"O. c #DD7C00",
"+. c #E36200",
"@. c #EB6200",
"#. c #E56B00",
"$. c #ED6A00",
"%. c #F16200",
"&. c #F06D00",
"*. c #E57200",
"=. c #EA7400",
"-. c #E67B00",
";. c #F27400",
":. c #F27B00",
">. c #DA8400",
",. c #DC8A00",
"<. c #DD9400",
"1. c #DE9800",
"2. c #EC8400",
"3. c #E48C00",
"4. c #EB8B00",
"5. c #F28A00",
"6. c #E59600",
"7. c #ED9300",
"8. c #E59D00",
"9. c #EB9B00",
"0. c #F29600",
"q. c #F39B00",
"w. c #EAA100",
"e. c #E5AB00",
"r. c #EBAB00",
"t. c #F3A200",
"y. c #F3AB00",
"u. c #ECB900",
"i. c #F2B400",
"p. c #F3BB00",
"a. c #EEC400",
"s. c #F3C400",
"d. c #F9C500",
"f. c #F4CB00",
"g. c #F9C900",
"h. c #F5D400",
"j. c #F9D500",
"k. c #F4DC00",
"l. c #F9DC00",
"z. c #F6E400",
"x. c #FBE300",
"c. c #FCEC00",
"v. c #FDF400",
"b. c #FFFE00",
/* pixels */
"    @                                                                                               ",
"                                                                                                    ",
"                                                                                                    ",
"                                                                                                    ",
"                                                                                                    ",
"            o o o o o o o o o X o o o o o o o o O O O o O o O o o o o o o o o o o o X X             ",
"          X : > , > > > > > > > > > : < < < < 2 4 4 4 4 4 4 4 2 < < < > > > > > > , , ; X           ",
"          X , q q 0 0 0 0 0 0 0 7 7 9 r y n M B C C S S C S B B N i 9 w 0 0 0 0 0 q q , o           ",
"          o , q 0 0 0 7 7 7 7 7 9 9 y M C W W ^ ! ( ( ^ ` ^ ! ^ A S B r w 0 0 0 0 0 q > o           ",
"          o > 0 0 0 0 7 7 7 7 9 r n C W ^ ( ' ' ' _ %._ _ ' _ ' ` ! A B r 7 7 0 0 0 0 , o           ",
"          o > 0 7 0 7 7 7 7 9 r n A ! ` _ @.@.@.$.$.:.;.;.&.%.%.%.' ^ A n 9 7 7 7 0 0 > o           ",
"          o > 0 0 0 7 7 7 8 r n A ! ' @.@.$.5.i.j.x.c.c.c.l.d.t.;.' ' W B 9 7 0 0 7 0 > o           ",
"          o > 0 7 7 7 7 6 9 t C ! _ @.@.2.g.v.b.b.b.b.b.b.b.b.b.d.&.' ! M r 8 7 7 0 0 > o           ",
"          o > 0 7 7 7 7 6 y C W _ _ $.9.c.b.b.b.b.v.v.c.v.b.b.b.x.$._ ! C r 7 7 7 7 0 > o           ",
"          o > 7 7 7 7 7 r b A ( @.+.q.v.b.b.b.x.i.6.4.4.4.9.p.x.g.#._ Q M r 8 7 7 7 7 > o           ",
"          o > 7 7 7 7 8 e C ! ) @.2.x.b.b.b.u.*.+.R ) } +.+.+.#.=.+.( W n e 6 7 7 7 7 > o           ",
"          o > 0 7 6 7 9 b Z / @.#.g.b.b.b.p. .} } } R Y R R ) R ) / E V t 8 6 7 7 7 7 > o           ",
"          X : 7 7 7 6 e m W / +.4.v.b.b.h.o.} } { Y U K K L L L L J Z 5 e 6 6 6 6 7 7 : o           ",
"          o : 7 7 6 8 r C Q _ +.p.b.b.b.6.} } { T U K H H H H c z g 5 3 1 , 6 6 6 7 7 > X           ",
"          X > 7 7 6 8 t V / +.*.x.b.b.k.o.| { { { U P K K H c c z 4 4 1 , , 6 6 6 7 7 : o           ",
"          o : 7 6 6 8 b Z / ) 3.v.b.b.u.} | | { ] { T I I U K K c g 4 < , , , 6 6 7 7 : o           ",
"          X : 7 7 6 8 b E ) +.9.b.b.b.8.{ { ] ] ] ] ] ] T { T T L H g 5 1 , , 6 6 6 7 : o           ",
"          o : 7 6 6 e m E ) +.p.b.b.b.6.{ { X.>.<.1.1.,.O.| { } T Y J h 3 1 , 6 6 6 7 : X           ",
"          o : 7 6 6 e m Q ) +.g.b.b.v.,.,.u.k.v.b.b.b.v.z.h.8. .} R Y v d 1 , 6 6 7 7 : o           ",
"          X : 7 6 6 e V Q ) #.h.b.b.v.h.v.b.b.b.b.b.b.b.b.b.b.a.O.} R L x 5 1 6 6 6 7 : o           ",
"          o : 7 6 6 t m Q ) #.k.b.b.b.b.b.b.v.z.k.h.z.v.b.b.b.b.g. .R / v f 1 6 6 6 7 : X           ",
"          X : 7 7 6 e V Q ) *.l.b.b.b.b.k.e.>...[ [ ..>.a.v.b.b.b.w.} R E h e 1 6 7 7 : o           ",
"          X : 7 7 8 e V Q +.*.l.b.b.b.r.X.{ ] ] I ] ] ] ..a.b.b.b.h.#.) Q x e 6 6 6 7 : o           ",
"          o : 7 6 6 t V Q ) #.k.b.b.v.O.{ { I I P P I { ] >.c.b.b.c.-.+.Q Z t 6 6 7 7 : o           ",
"          o : 7 7 6 r V Q _ #.j.b.b.v.>.} { P F D D P T { o.k.b.b.b.4.) / Z b 8 7 6 7 : o           ",
"          X > 7 7 6 r m Q _ $.f.b.b.v.3.T T G k a j F U T | f.b.b.b.7.) / E b 8 6 7 7 : X           ",
"          o : 7 7 8 r m ! ) +.s.b.b.b.9.} T K k p a l U }  .s.b.b.b.7.+.( Z b 9 6 7 7 : o           ",
"          o > 7 7 7 r m W ) @.y.b.b.b.r.} R K c s s K Y } } f.b.b.b.4.@./ A b 9 7 7 7 > X           ",
"          o : 7 7 7 9 n W ( @.7.b.b.b.s.+.} Y K c H L R } *.l.b.b.c.2._ ( C y 8 6 7 7 > o           ",
"          o > 7 7 7 8 y A ( _ 2.c.b.b.x.-.+.} R Y Y R +.+.7.v.b.b.l.#._ ( C r 8 7 7 7 : o           ",
"          o > 0 7 7 8 r C ! _ $.g.b.b.b.y.+.+.+.+.} +.+.#.f.b.b.b.y.@._ W M r 9 7 7 0 > o           ",
"          o > 0 7 7 7 r m ^ ` @.q.b.b.b.c.0.+.+.+.+.+.=.p.b.b.b.x.:.@.` W n 9 7 7 0 0 > o           ",
"          o > 0 0 0 7 r n A ( ' &.j.b.b.b.v.p.0.5.4.t.j.b.b.b.v.q.@._ ^ C r 9 7 7 7 0 > X           ",
"          o > 0 7 7 7 9 y S ^ ' %.5.x.b.b.b.b.v.v.v.b.b.b.b.v.y.&.' ( A M r 7 7 7 0 0 > o           ",
"          o > 0 0 0 0 7 9 n W ` %.%.5.j.b.b.b.b.b.b.b.b.b.l.0.%.%.' ^ C y 7 0 7 7 0 0 > o           ",
"          o , 0 0 7 7 0 9 y B ^ ` ' %.;.q.g.l.c.c.c.l.g.q.;.%.%.` ! S n 9 7 7 0 0 0 0 , X           ",
"          X , 0 0 0 0 0 7 w y S ^ ` ' %.%.%.;.:.:.;.;.%.%.' ' ` ^ S B r w 7 0 0 0 0 0 > o           ",
"          o , q 0 0 0 0 0 0 u N S ~ ^ ` ' ' ' %.' ' ' ' ' ` ^ ~ B N 9 0 0 0 0 0 0 0 q > o           ",
"          X ; , , > , > > > < < 4 h z c E J L L L Q L J J v z d 4 < < > > > > > > , , : X           ",
"            o o o o o o o o o o # $ % & * = - - - - - = * & % % # o o o o o o o o o o X             ",
"                                  . . . . + + + + + + + + .                                         ",
"                                              . .   .                                               ",
"                                                                                                    ",
"                                                                                                    ",
"                                                                                                    "
};
