/* XPM */
static char *__[] = {
/* columns rows colors chars-per-pixel */
"50 50 89 1",
"  c #000000",
". c #0F0000",
"X c #070800",
"o c #0B0B00",
"O c #110300",
"+ c #170900",
"@ c #1B0D00",
"# c #0F1000",
"$ c #151500",
"% c #1E1000",
"& c #1B1B00",
"* c #221500",
"= c #271A00",
"- c #252500",
"; c #2F2200",
": c #2B2C00",
"> c #322600",
", c #362A00",
"< c #392E00",
"1 c #333400",
"2 c #3D3200",
"3 c #3B3C00",
"4 c #740000",
"5 c #413600",
"6 c #453A00",
"7 c #404100",
"8 c #4D4200",
"9 c #504600",
"0 c #554A00",
"q c #584E00",
"w c #5A5000",
"e c #840100",
"r c #870800",
"t c #890B00",
"y c #960000",
"u c #980500",
"i c #9B0B00",
"p c #8D1400",
"a c #8F1800",
"s c #9E1300",
"d c #911B00",
"f c #A01600",
"g c #A21C00",
"h c #952500",
"j c #972800",
"k c #9A2F00",
"l c #9C3400",
"z c #9F3900",
"x c #A52400",
"c c #A72900",
"v c #A92D00",
"b c #AB3400",
"n c #A13E00",
"m c #AE3B00",
"M c #B03E00",
"N c #A44300",
"B c #A84C00",
"V c #B24400",
"C c #B54C00",
"Z c #AC5400",
"A c #B75000",
"S c #B95400",
"D c #B05B00",
"F c #BC5C00",
"G c #BF6200",
"H c #C06600",
"J c #C26A00",
"K c #C67300",
"L c #C97A00",
"P c #CC8300",
"I c #CF8B00",
"U c #D08D00",
"Y c #D39500",
"T c #D59A00",
"R c #DAA500",
"E c #DDAB00",
"W c #DFB100",
"Q c #E1B500",
"! c #E4BE00",
"~ c #E6C200",
"^ c #E8C600",
"/ c #EBCE00",
"( c #EDD300",
") c #F1DC00",
"_ c #F4E500",
"` c #F7EB00",
"' c #F8EE00",
"] c #FBF400",
"[ c #FFFF00",
/* pixels */
"                                                  ",
"                 XX  XX  X XX  X                  ",
"            XXXXXoooooo+oXoXoooXXXXXX             ",
"          XXXoo$$$$$$$$$&$&$$$$$$$ooXX            ",
"         XXo$&&------::---:--:---&&$$oXX          ",
"      .O+@*=;><2556666666666666552<>;*%+OOO.      ",
"     .4rtpdjlzNNNBBBBBBBBBBBBBBNNNnzkhdttre4.     ",
"     OeuigcbVCASSSSFFSFSFFSFSFFSSSCVmbxfiuye.     ",
"     OrisxbVCFFFFGGFGGFGGGGGGGFFFFFACmbgsiye.     ",
"     OrigvmCSFFGGGGHGGHGGHHHGGHHGGGFACbxfiue.     ",
"     OrsgbVAFGGHJJJHHJJJHHHJJHHHHGGGFCmcgiue.     ",
"     OrfxbCSGGJW^^^^^^^^^^^^^^^^^TGGFAVbgsie.     ",
"     OtfxmCSGGP][[[[[[[[[[[[[[[[[)JGFSVbxsueO     ",
"     OtfxmCSFGP][[[[[[[[[[[[[[[[[)JHFAVbgsur.     ",
"     OtfxbCSFGK~)))))))))))))`[[[/JGFSVbgsie.     ",
"     OtsxbVAFGGHJJJJJJJJJJJJJ~[[[RGHFAVbgsue.     ",
"     OtigvMCSFGHGGHHJGGJGJJGP'[[`LGGFCVcssue.     ",
"     OrifxbVASFFGFGGGGJGGGGGW[[[WGGGSCmcssue.     ",
"     .rusgvbVCAASFFFGGGJJGGL_[[]IGGFSVbxsiye.     ",
"     .euisgxbmVBCCAFFGGGGJJR[[[^GGGFAVvsiiye.     ",
"     .eyuisgccbbmmCCFFGGGGK)[[]YGGGSCmvsiuye.     ",
"     .eyyuissssccbmCAFGGJGT][[)JGGFAVbxsiuye.     ",
"     .eyyyyuiissgcbVAFGGGJ/[[[RGGGFCmcgiuyye.     ",
"     .eyyyyuyuisscbVSFGGGU][[_KGGFSVbxsiuyye.     ",
"     .eyyyyeyyuisxmVSFGHJ~[[[WHGGFCVvgsuyyye.     ",
"     .eyyyyyyuusgcmCFGGGP'[['PGGFACbxfiuyyye.     ",
"     .eyyyyyyuisxbVCFFGHW[[[~JGGFAVvxsuuyyye.     ",
"     OeyyyyyyuiscbCFFGGL_[[]UGHFSCmvgiuyyyye.     ",
"     .eyyyyyuisgvVCFGGGR[[[(JHGFAVbgsiuyyyye.     ",
"     .eyyyyyuisxmVSFGHK)[[[THGFFCMvgiuyyyyye.     ",
"     .eyyyyyusgvVCFGGHT][[_KGGFSBbxsiuyyyyye.     ",
"     OeyyyyuisxbVAFGGJ([[[EGGGFCmbssiyyyyyye.     ",
"     .eyyyyuisvmCFFGGY][[`LHGFSVmxssuyyyyyye.     ",
"     .eyyyuisxbVAFGGG~[[[!JGFFAVvgsiyyyyyyye.     ",
"     .eyyyuiscmCSGGGP][[]UGGFFCmcsiuyeyyyyye.     ",
"     OeyyyuisvmCFGGGQ[[[/JGGFCVbxsiyyyyyyyye.     ",
"     .eyyyisxbVAFGGL_[[]TGGFFCmvssiyyyyyyyye.     ",
"     .eyyyisxmVSFGGE[[[_KGGFAVbxsiyyyyyyyyye.     ",
"     .eyyyisxmCSGGK_[[[RGGGFCmvgsiyyyyyyyyye.     ",
"     .eyyiisxmCSFGT][[_LGGFSCbcsiyyyyyyyyyye.     ",
"     OeyyyifxbCSFHU///TGHGSAMvgsiyyyyyyyyyye.     ",
"     OeyyyusxbVAFGGHHHGGGFSVbxgiuyyyyyyyyyye.     ",
"     .eyyyifgcVASGGHHGGFFSCMvxsuyyyyyyyyyyye.     ",
"     .4e4rrtahnNBZDDDDDABBnkhatreeeeeeeeeee4.     ",
"      ..OOO+*=,680qwwwq0982>=@+O............      ",
"            o$=-113377331,-$#X                    ",
"           XXo$&--:1::::-&$#XX                    ",
"             Xoo$$&&&&&$$$oXX                     ",
"               XXooo+##ooXX                       ",
"               X XXXX  XX                         "
};
