/* XPM */
static char *__[] = {
/* columns rows colors chars-per-pixel */
"50 50 64 1",
"  c #000000",
". c #040400",
"X c #090900",
"o c #0C0C00",
"O c #101000",
"+ c #141400",
"@ c #1B1B00",
"# c #1F1F00",
"$ c #222200",
"% c #262600",
"& c #2A2A00",
"* c #2F2F00",
"= c #333300",
"- c #363600",
"; c #383800",
": c #3C3C00",
"> c #434300",
", c #464600",
"< c #494900",
"1 c #4E4E00",
"2 c #525200",
"3 c #555500",
"4 c #5A5A00",
"5 c #5C5C00",
"6 c #636300",
"7 c #646400",
"8 c #696900",
"9 c #6C6C00",
"0 c #707000",
"q c #777700",
"w c #797900",
"e c #7E7E00",
"r c #808000",
"t c #868600",
"y c #8B8B00",
"u c #8D8D00",
"i c #919100",
"p c #969600",
"a c #989800",
"s c #9E9E00",
"d c #A3A300",
"f c #A6A600",
"g c #A8A800",
"h c #AFAF00",
"j c #B3B300",
"k c #B7B700",
"l c #B8B800",
"z c #BFBF00",
"x c #C1C100",
"c c #C4C400",
"v c #C8C800",
"b c #CECE00",
"n c #D2D200",
"m c #D5D500",
"M c #DADA00",
"N c #DDDD00",
"B c #E0E000",
"V c #E6E600",
"C c #EAEA00",
"Z c #EFEF00",
"A c #F2F200",
"S c #F7F700",
"D c #F8F800",
"F c #FFFF00",
/* pixels */
"                ......X........                   ",
"             ....XXXoooOOOooooXXX...              ",
"           ...Xooo+++++@@@+@+O+OooX...            ",
"          ..XXOO+@#$%%%&&%%%%$#@++oXX..           ",
"         ..XoO+#%%**==------==*%$@+OoX..          ",
"        ..oo+@%&=-::>>,,,,,>>:;-=*%#+Oo..         ",
"       ..Xo+$&=-:><11122222211<,:;*&$+oX..        ",
"       .Xo@#&-:,12334444544443321,:-&$@oX..       ",
"      .Xo+#&-:<2345565666665654432<>-&#OoX.       ",
"     ..XO@%=><245566666766766656442<:=%@Oo.       ",
"     ..o+$*:,24566776678888667776542<;=$+o..      ",
"     .XO@%->24557778tfxbmnchi07766531,-%@OX.      ",
"    ..X+$*;<356677ubAFFFFFFFDMa876642<;&#+X..     ",
"    .Xo@$=>145677dZFFFFFDFFFFFSh876531>=$+o..     ",
"    .XO@&;,24666uZFFFBjspdzCFFFSp67542,-%@OX      ",
"    .XO#&:<35669nFFFxq77777rnFFFn86652,;%#oX..    ",
"    .oO#=:13566tAFFBw6777877yAFFZe6653<:*@OX.     ",
"   ..o+$=:14566aFFFz877887878mFFSy6553<;&#OX.     ",
"    .o+%=:13666fFFFj788777888vFFAt6553<:&#OX.     ",
"   ..oO$*>14566sFFFc877887779MFFCw6653<:&#OX.     ",
"   ..X+$*:13576tAFFCt6877877iSFFv97653,;&@OX      ",
"    .XO$*;135679bFFFnw77877wNFFAu77642,-%@O..     ",
"    .Xo#*;<35677uZFFFMy777tMFFDl877542>-%@oX.     ",
"    .XO@&;,257777aZFFFAktgCFFDl9777642,-%+oX.     ",
"   ..Xo#&-,2567787iNFFFFADFFBs87777642,-%@O..     ",
"    .XO@*;<24677777qlDFFFFFCu778877642,;%@OX.     ",
"    .XO#&;<35677786rcDFFFFFFNs97776653<;&#OX.     ",
"   ..XO$=:<3567770hZFFDMvAFFFFbr776653<:*#+o..    ",
"   .Xo@$=>145677qvFFFVd08uvDFFFBt776541:*$+o..    ",
"   .Xo@%-,246779vFFFbe77779dCFFFNw77642,-%@o..    ",
"   .XO@&;<35666hFFFb07877887yVFFFl76643<;&#oX.    ",
"   .XO#*:<3566qVFFZt787787777sDFFVw6653<;*$Oo.    ",
"  ..X+$*:13666iDFFb87778787770BFFSy6653<:*$OX..   ",
"  ..o+$=>14566fFFFl77878877879bFFFu56641:=$+X.    ",
"   .o+#=:14666fFFFz78877788779nFFSy66531:*$Oo..   ",
"  ..XO$*:13566pDFFM0777877877eCFFCw6753<:*#Oo.    ",
"   .o+#*:<3566wCFFDh877787669xFFFc76642,;&#OX.    ",
"   .XO#&;<35577lFFFSzyq980qibFFFZy66542>-%@OX     ",
"   .XO@%-,14567qnFFFFSBmbmVSFFFSf876541>=$+oX     ",
"   ..o+$*>145677wxSFFFFFFFFFFFBs776653,;&#+X..    ",
"   ..XO#&;,2457778ixBADFFFSCngw6666531>=%@OX.     ",
"    .Xo@%->1246667670rypaitw976666542,;*$Oo.      ",
"    ..o+#&;,134566667666666667665542<>=%@OX..     ",
"     .Xo+$*;,1245556666666665665442<:=&#Oo..      ",
"     ..XO@%*;><133445555455554432<,:=&#+OX..      ",
"     ..XoO@%*=:><12233433333221<,>;=&#+OX.        ",
"       ..oO@$%*-;:>,,<1<1<<<,,>:-=*$#+OX..        ",
"        .Xoo+@$%&=-;;:;:::::--=*&$#@+oX..         ",
"        ...XoO+##$%%&&*&&*&&&%%$#++OoX.           ",
"  .       ..XXoOO+@@@######@@@++OooX...           "
};
