/* XPM */
static char *__[] = {
/* columns rows colors chars-per-pixel */
"75 75 97 2",
"   c #000000",
".  c #141414",
"X  c #36007F",
"o  c #370080",
"O  c #3B0085",
"+  c #3E008B",
"@  c #3F0090",
"#  c #40008E",
"$  c #430094",
"%  c #46009A",
"&  c #48009E",
"*  c #4C099F",
"=  c #551F97",
"-  c #561F99",
";  c #581F9E",
":  c #4700A2",
">  c #4B00A4",
",  c #4D09A0",
"<  c #4E00AA",
"1  c #520EA4",
"2  c #5000AE",
"3  c #540BAD",
"4  c #5B1FA4",
"5  c #5B16AD",
"6  c #5E1FAA",
"7  c #5300B4",
"8  c #5609B1",
"9  c #590AB5",
"0  c #5600BA",
"q  c #5800BE",
"w  c #5C0ABB",
"e  c #5D13B5",
"r  c #601FAD",
"t  c #6015B7",
"y  c #631FB3",
"u  c #6115BA",
"i  c #6519BD",
"p  c #6A30AF",
"a  c #6826B5",
"s  c #6B2CB7",
"d  c #6C24BF",
"f  c #6E2DBA",
"g  c #702EBD",
"h  c #6F36B2",
"j  c #7439B9",
"k  c #5700C0",
"l  c #5A00C3",
"z  c #5C00C9",
"x  c #6D25C1",
"c  c #712BC2",
"v  c #7635C2",
"b  c #7B36CB",
"n  c #7E36D2",
"m  c #7C42C1",
"M  c #804FBB",
"N  c #8556BE",
"B  c #8036D5",
"V  c #8550C4",
"C  c #905FC9",
"Z  c #9E79CB",
"A  c #9B61DF",
"S  c #A17CCE",
"D  c #A176D3",
"F  c #BDBDBD",
"G  c #A286C5",
"H  c #A586CB",
"J  c #A786D0",
"K  c #A986D2",
"L  c #AC83DC",
"P  c #B594DD",
"I  c #BA9CDC",
"U  c #BEA3DE",
"Y  c #B895E2",
"T  c #C0A6DE",
"R  c #C5AFE0",
"E  c #C7A9E9",
"W  c #C8A9EC",
"Q  c #CFBAE8",
"!  c #D4BBF1",
"~  c #DBDBDB",
"^  c #D6C5EA",
"/  c #D8C6ED",
"(  c #D9C8EE",
")  c #DFD5EC",
"_  c #DFD0F1",
"`  c #E0D5EE",
"'  c #E1D4F0",
"]  c #E7DCF4",
"[  c #E9DFF5",
"{  c #EDE5F7",
"}  c #EFE8F7",
"|  c #EEE5F8",
" . c #F0EAF7",
".. c #F2ECF9",
"X. c #F6F2FA",
"o. c #F9F6FD",
"O. c #FFFFFF",
/* pixels */
"                                                                                                                                                      ",
"    . . . . . . . . . . . . . . . . . . . . . . . . . . . . . . . . . . . . . . . . . . . . . . . . . . . . . . . . . . . . . . . . . . . . . . .     ",
"  . F ~ ~ ~ ~ ~ ~ ~ ~ ~ ~ ~ ~ ~ ~ ~ ~ ~ ~ ~ ~ ~ ~ ~ ~ ~ ~ ~ ~ ~ ~ ~ ~ ~ ~ ~ ~ ~ ~ ~ ~ ~ ~ ~ ~ ~ ~ ~ ~ ~ ~ ~ ~ ~ ~ ~ ~ ~ ~ ~ ~ ~ ~ ~ ~ ~ ~ ~ ~ ~ F .   ",
"  . ~ O.O.O.O.O.O.O.O.O.O.O.O.O.O.O.O.O.O.O.O.O.O.O.O.O.O.O.O.O.O.O.O.O.O.O.O.O.O.O.O.O.O.O.O.O.O.O.O.O.O.O.O.O.O.O.O.O.O.O.O.O.O.O.O.O.O.O.O.O.~ .   ",
"  . ~ O.O.O.O.O.O.O.O.O.O.O.O.O.O.O.O.O.O.O.O.O.O.O.O.O.O.O.O.O.O.O.O.O.O.O.O.O.O.O.O.O.O.O.O.O.O.O.O.O.O.O.O.O.O.O.O.O.O.O.O.O.O.O.O.O.O.O.O.O.~ .   ",
"  . ~ O.O.O.O.O.O.O.O.O.O.O.O.O.O.O.O.O.O.O.O.O.O.O.O.O.O.O.O.O.O.O.O.O.O.O.O.O.O.O.O.O.O.O.O.O.O.O.O.O.O.O.O.O.O.O.O.O.O.O.O.O.O.O.O.O.O.O.O.O.~ .   ",
"  . ~ O.O.O.| W W W W W W W W W E E W E E E E E E E E E E E E E E E E E E E E E E E E E E E E E E E E E E E E E E W W W W W W W W W W W ! O.O.O.~ .   ",
"  . ~ O.O.O.W z z z z z z l l l l l l q l q q 0 q q q 0 0 0 0 0 0 0 0 0 7 0 0 0 0 0 0 0 0 0 0 0 q q q q q q q k l l l l l l z l z z z z n o.O.O.~ .   ",
"  . ~ O.O.O.W z z z z l z l l l l q l q q q q q q 0 0 0 0 0 0 0 0 0 0 7 0 7 0 0 0 0 0 0 0 0 0 0 0 q q q q q q q q l l l l l l z z z z z B o.O.O.~ .   ",
"  . ~ O.O.O.W z z z l l l l l l l q q q q q q q 0 0 0 0 0 0 0 0 7 0 0 0 0 0 7 0 7 0 7 0 7 0 0 0 7 0 0 q 0 q q q q q q l l l l l l z z l B o.O.O.~ .   ",
"  . ~ O.O.O.W z z l z l z q l z q q q q q q 0 0 0 0 0 0 0 7 0 7 7 0 7 7 7 7 7 7 7 0 0 7 0 0 0 0 q 7 q 7 0 q q q q q q l q l l z l z z l B o.O.O.~ .   ",
"  . ~ O.O.O.W z z z l l q q z q q q q q q 0 7 q 0 0 7 0 0 7 7 7 7 7 7 7 0 7 7 7 7 7 7 7 7 7 7 7 7 q 0 7 q 7 0 q q q q q q l q l l z l z B o.O.O.~ .   ",
"  . ~ O.O.O.W z l l q z z q q q q 0 q 0 0 0 0 0 0 0 7 0 7 7 7 7 7 7 7 7 7 < 7 7 7 7 7 7 7 7 7 0 7 7 q 7 q 7 q 0 0 q q q q l l l l l l l n o.O.O.~ .   ",
"  . ~ O.O.O.W l z l l q q q q q q q 0 0 0 0 0 7 7 7 7 7 7 7 7 7 7 7 7 7 2 8 t e e e 7 7 7 7 7 7 7 7 7 7 7 0 7 q 0 0 q 0 q q q q l l l l n o.O.O.~ .   ",
"  . ~ O.O.O.W l l l z q q q q q 0 0 0 0 7 0 0 7 0 7 7 2 7 2 7 2 2 7 < < v P / / ( ^ D 9 2 7 7 7 7 7 7 q 7 0 7 0 0 0 q q 0 q q l l l l l n o.O.O.~ .   ",
"  . ~ O.O.O.W l l l q q q q 0 q 0 0 0 7 7 7 7 7 7 7 2 7 7 2 2 2 < < e D { O.O.O.O.O.' t < 2 2 2 7 7 7 7 7 7 0 0 7 0 0 0 0 q q q q l l l n o.O.O.~ .   ",
"  . ~ O.O.O.W l l q q q q q q 7 q 7 7 q 7 7 7 7 7 < 7 7 < 2 < < 2 m Q o.O.O.O.O.O.O.' y < 2 2 2 2 2 7 7 7 7 7 7 0 0 0 0 q q q q k l l k n o.O.O.~ .   ",
"  . ~ O.O.O.E l l l q q q q 0 q q 7 7 q 7 7 7 7 7 7 < < < < < y K } O.O.O.O.O.O.O.O.' y > 2 > 2 2 2 2 2 2 7 7 7 0 7 7 0 0 0 0 q q q q k b o.O.O.~ .   ",
"  . ~ O.O.O.E l q q q q 0 q 0 0 7 7 7 7 7 7 2 2 7 < < < < 3 V / O.O.O.O.O.O.O.O.O.O.' a < < 2 2 < 2 2 2 7 7 7 7 7 7 0 0 0 0 0 q q q k k n o.O.O.~ .   ",
"  . ~ O.O.O.E l q q q 0 q 7 7 0 7 0 7 7 7 2 7 2 < < < < a P ..O.O.O.O.O.O.O.O.O.O.O.' y > > > 2 < 2 2 2 2 2 2 7 7 7 7 0 0 0 0 0 q k k k b o.O.O.~ .   ",
"  . ~ O.O.O.E l q q q q 0 0 0 0 7 7 7 7 2 2 2 2 < < 3 C ( O.O.O.O.O.O.o.o.O.O.O.O.O.' r > > > > < < < < 2 2 7 7 8 7 7 0 7 0 0 0 q q q 0 b o.O.O.~ .   ",
"  . ~ O.O.O.E q q q 0 0 0 7 7 7 7 7 7 2 2 2 2 2 > s U o.O.O.O.O.O.O.{ S I O.O.O.O.O.' r : > > < > > < < < 2 2 2 7 7 7 7 7 0 0 0 0 q q 0 b o.O.O.~ .   ",
"  . ~ O.O.O.E q q 0 q 0 7 0 0 7 7 7 2 2 2 < < < e Q O.O.O.O.O.O.X.U h % J O.O.O.O.O.` 6 & : > > > > < < < < 2 2 7 7 7 7 7 0 0 0 q 0 k 0 b o.O.O.~ .   ",
"  . ~ O.O.O.E q q q 0 0 0 7 7 7 7 7 2 2 2 2 < > j  .O.O.O.O.O.^ N * % % J O.O.O.O.O.' 6 & & & > > > > < > 2 < 2 2 2 7 7 7 7 0 7 0 0 q k b o.O.O.~ .   ",
"  . ~ O.O.O.E q 0 0 0 0 0 7 7 7 7 7 2 2 < < > > M X.O.O.O.[ Z 4 % % % % H O.O.O.O.O.` 6 % & : : > > > > > < < 2 2 2 7 7 7 7 7 0 0 0 q 0 b o.O.O.~ .   ",
"  . ~ O.O.O.E q q 0 0 7 0 7 7 7 2 2 2 2 < < > > j } O...I p % $ % $ % $ H O.O.O.O.O.` 4 % % % % & & > > > > < < 2 2 2 7 7 8 7 0 0 0 0 0 b o.O.O.~ .   ",
"  . ~ O.O.O.E q 0 0 0 0 0 7 7 7 2 2 2 < > < > > 5 T R M * % % % $ % $ @ H O.O.O.O.O.` 4 % % % % & & > > > < < < < < 2 2 7 7 7 0 7 0 0 0 b o.O.O.~ .   ",
"  . ~ O.O.O.E 0 0 0 0 7 7 7 7 2 2 2 < < < < > > & 1 , % % % $ $ $ $ $ @ H O.O.O.O.O.` ; $ % % % % & & > > > > < < 2 2 7 7 7 7 7 0 0 0 0 b o.O.O.~ .   ",
"  . ~ O.O.O.E 0 0 0 0 7 7 7 7 2 2 2 2 > < > > & & & & % % $ $ $ $ $ @ @ H O.O.O.O.O.` ; $ % $ % % & & & & > > < < < 2 2 7 7 7 7 0 0 0 0 b o.O.O.~ .   ",
"  . ~ O.O.O.E q 0 0 0 7 7 7 7 2 2 < < > > > > & & % % % % $ $ $ $ $ @ + H O.O.O.O.O.` - $ $ $ % % % & & & > > > < < < 2 2 7 7 7 7 7 0 0 b o.O.O.~ .   ",
"  . ~ O.O.O.E 0 0 0 0 0 7 7 2 2 < < < < > > & & & % % $ $ $ $ # + + + + H O.O.O.O.O.` ; # $ $ % % % % & & > > < > < < 2 2 7 7 7 0 0 0 0 b o.O.O.~ .   ",
"  . ~ O.O.O.E 0 0 0 7 7 7 2 7 2 2 < > > > > & & % % % $ $ $ $ # $ + + O G O.O.O.O.O.` ; # # $ $ $ % % & & > > > > < < 2 2 7 7 7 7 7 0 7 b o.O.O.~ .   ",
"  . ~ O.O.O.E 0 0 0 7 7 7 7 2 < < < > < > > & & % % $ $ # # # # + + # O G O.O.O.O.O.) ; + $ # $ $ $ % & & > > > < < < < 2 2 7 7 0 0 7 0 b X.O.O.~ .   ",
"  . ~ O.O.O.E 0 0 7 0 7 7 7 2 2 < < < > > & & & % % % $ # # # O + + O O G O.O.O.O.O.) = + # $ $ $ % % % % > & > > > < 2 2 2 2 7 7 7 0 0 b o.O.O.~ .   ",
"  . ~ O.O.O.E 0 0 7 7 7 7 2 2 2 < < > > > & & % % $ % $ # # # # + + O o G O.O.O.O.O.) = + $ # # $ % % % % & & > > < < 2 2 2 7 7 7 0 7 0 b o.O.O.~ .   ",
"  . ~ O.O.O.E 0 0 0 7 7 7 7 2 2 < < > > > & & % % $ $ $ $ # # # O O O o G O.O.O.O.O.) = + + $ $ $ $ $ % & & & > < > < < 2 2 7 7 7 7 0 0 b o.O.O.~ .   ",
"  . ~ O.O.O.R 0 7 0 7 7 7 2 2 < < < > > & & & % % % $ $ # # # O # O O X G O.O.O.O.O.) = + + + $ $ $ % % & & > > > > < < 2 2 7 7 7 0 0 7 b o.O.O.~ .   ",
"  . ~ O.O.O.E 0 0 7 7 7 7 2 2 2 < > > > > > & % % $ $ $ # # # O O O o X G O.O.O.O.O.) = + # # # $ % $ % % & & & > > < < 2 2 2 7 7 7 0 7 v o.O.O.~ .   ",
"  . ~ O.O.O.E 0 0 7 0 7 7 2 2 2 < < < > & & % % % % $ $ # # # # # X O X G O.O.O.O.O.) = + + $ $ $ $ % % & & : > < > < 2 2 2 7 7 7 0 0 7 b o.O.O.~ .   ",
"  . ~ O.O.O.E 0 0 0 7 7 7 7 2 < < < > > > * & % % $ $ $ # # # # O # o X G O.O.O.O.O.) = + + + # $ $ $ & % & > > > < < 2 2 2 2 7 7 0 7 7 b o.O.O.~ .   ",
"  . ~ O.O.O.E 0 0 7 7 7 7 8 2 2 < < > > * * & % % % $ $ # # # # # O O X G O.O.O.O.O.) = + + $ $ $ $ % % & & & > > < < < 2 2 2 7 7 0 0 7 b o.O.O.~ .   ",
"  . ~ O.O.O.E 0 0 0 7 7 8 7 2 2 < < < > > & & & % $ $ $ $ # # # # X # X G O.O.O.O.O.` = + + $ $ $ $ % % & & & > > < < < 2 2 7 7 7 7 0 7 b o.O.O.~ .   ",
"  . ~ O.O.O.E 0 0 0 0 7 7 7 2 < < < > > > & & & % % % $ $ # # # O # # X G O.O.O.O.O.) = + $ $ $ % $ % % & & > > > < < 2 2 2 7 7 7 0 0 0 b o.O.O.~ .   ",
"  . ~ O.O.O.E 0 0 0 7 7 7 7 2 2 < < < > > > & & % % % $ $ # $ # # O # # G O.O.O.O.O.` ; + $ $ $ $ % % % & > > > > < < 2 2 2 7 7 7 7 0 7 b o.O.O.~ .   ",
"  . ~ O.O.O.E 0 0 0 7 7 7 7 2 2 2 < < > > > & & % % % $ $ $ $ # # # # O G O.O.O.O.O.) ; + $ $ $ % % % & & > > < > < 2 2 2 2 7 7 7 0 0 0 b o.O.O.~ .   ",
"  . ~ O.O.O.E 0 0 7 0 7 7 7 7 2 2 < < > > > > & & & % $ % $ $ # # # # # H O.O.O.O.O.` ; $ $ $ % % % & & & > > > < < < 2 7 7 7 7 0 7 0 0 b o.O.O.~ .   ",
"  . ~ O.O.O.E 0 0 0 0 7 7 7 7 2 2 < < < > > > & & & % % % $ $ $ # $ # # H O.O.O.O.O.` ; $ $ % $ % % & & & > > < < < 2 2 7 7 7 7 7 0 0 0 b o.O.O.~ .   ",
"  . ~ O.O.O.E 0 0 0 0 7 7 7 7 8 2 2 < < > > > > & & % % % % $ $ # # $ # H O.O.O.O.O.` 4 $ $ % % & & & & > > > > < < 2 2 7 7 7 7 0 7 0 0 b o.O.O.~ .   ",
"  . ~ O.O.O.E 0 0 0 0 0 7 7 7 7 2 2 2 > 2 > > > > & & % % % % % $ $ % @ H O.O.O.O.O.` 4 $ % % & & & & > > > < < < 2 2 7 7 7 7 7 0 0 0 0 b o.O.O.~ .   ",
"  . ~ O.O.O.E q q 0 0 7 7 7 7 7 2 2 2 2 2 > < > > & & & & % % % % % $ $ H O.O.O.O.O.` 6 % % % & & & > > > < > 2 < 2 2 2 7 7 7 7 0 0 q 0 b o.O.O.~ .   ",
"  . ~ O.O.O.E q q q 0 0 0 7 7 7 7 2 2 2 2 > > > > > > & & & % % % % $ $ J O.O.O.O.O.` 4 % & & & & > > > > < < < 2 2 8 7 7 7 0 0 0 0 0 0 b o.O.O.~ .   ",
"  . ~ O.O.O.E q 0 0 0 0 0 0 7 7 7 2 2 2 < < 2 > > > > > & & & & % % % % J O.O.O.O.O.` 6 % & & & > > > > > < < 2 2 2 7 7 7 7 0 7 0 0 0 0 b o.O.O.~ .   ",
"  . ~ O.O.O.E q q 0 q 0 0 0 7 7 7 7 2 2 2 > < 2 > > > > > & & & % & & % J O.O.O.O.O.` 6 & : : > > > > < < < < 2 2 7 8 7 7 7 0 0 0 0 q 0 b o.O.O.~ .   ",
"  . ~ O.O.O.E q q q 0 0 0 7 0 7 7 7 7 2 2 2 2 > < 2 > > > > > & : : : % J O.O.O.O.O.` r : : > > > > > < < 2 2 2 7 8 7 0 0 0 0 0 0 q q q b o.O.O.~ .   ",
"  . ~ O.O.O.E q q q 0 0 0 0 0 7 7 7 7 2 7 2 2 2 < > < < > > > > > : : & K O.O.O.O.O.` r : > > > < < < < 2 2 2 2 7 7 7 7 7 7 0 0 0 q k 0 b o.O.O.~ .   ",
"  . ~ O.O.O.W l q q 0 0 0 0 7 0 7 0 7 7 7 2 2 2 2 < < > < < > > > > > : J O.O.O.O.O.` y > > < < < < < 2 2 2 7 7 7 7 7 0 0 0 0 0 q q k q n o.O.O.~ .   ",
"  . ~ O.O.O.E l l q q q 0 0 0 0 7 7 7 7 7 2 2 2 2 < < < < > < > > > : : J O.O.O.O.O.` y > > > < > < 2 2 2 7 7 7 7 7 7 0 0 0 0 q q q q q b o.O.O.~ .   ",
"  . ~ O.O.O.E q l q q q q 0 0 0 0 0 0 7 7 7 7 2 2 8 s f f f f s f f s s I O.O.O.O.O.] m f f f f g g g d e 7 7 7 7 7 7 0 0 0 0 q q q l q n o.O.O.~ .   ",
"  . ~ O.O.O.W l l l q q q 0 0 0 0 7 7 0 0 7 7 7 7 L { } { } } } } } { { X.O.O.O.O.O.O.} } } } { } } { } P 9 7 7 0 7 0 0 0 q q q q l l k n o.O.O.~ .   ",
"  . ~ O.O.O.W l l q q q q q q 0 0 0 0 0 7 7 7 7 e _ O.O.O.O.O.O.O.O.O.O.O.O.O.O.O.O.O.O.O.O.O.O.O.O.O.O.[ d 7 0 0 0 0 0 0 0 q q q l l k n o.O.O.~ .   ",
"  . ~ O.O.O.W l z q q q q q q q 0 0 0 0 0 7 7 7 x ] O.O.O.O.O.O.O.O.O.O.O.O.O.O.O.O.O.O.O.O.O.O.O.O.O.O.| B 7 7 0 0 q q q q q q l l l l n o.O.O.~ .   ",
"  . ~ O.O.O.W l z q z z q q q q q 0 0 0 0 0 0 7 i _ O.O.O.O.O.O.O.O.O.O.O.O.O.O.O.O.O.O.O.O.O.O.O.O.O.O.{ d 7 7 0 0 0 q q q q q l l l l n o.O.O.~ .   ",
"  . ~ O.O.O.W z q z q q l q q q q 0 0 0 0 0 7 0 0 L { { { { { } { { } { { { } { { { { | { [ | | | | { { Y w 0 0 0 q q q q q q q l l l l n o.O.O.~ .   ",
"  . ~ O.O.O.W l q z z l l l q q q q q 0 0 0 0 0 0 w c c c c c c c d c c d c c c c c c c c c c c c c c c u 0 0 0 0 q q q q q l l l l z l n o.O.O.~ .   ",
"  . ~ O.O.O.W z z z l l l l q q q q q q q 0 0 0 0 7 7 7 7 7 7 7 7 7 7 7 7 7 7 7 7 7 7 7 7 0 7 7 0 7 7 k 7 0 0 k q q q q l l l l l z z z n o.O.O.~ .   ",
"  . ~ O.O.O.W z z z z l l l l l l q q q q q q 0 q 0 0 0 0 0 0 0 0 7 7 0 7 7 0 7 7 0 7 0 7 0 0 0 0 0 0 0 k k k 0 q q q l q l l l l z l z n o.O.O.~ .   ",
"  . ~ O.O.O.W z z z z z l z l l l l q q k k q q 0 0 0 0 0 0 0 0 7 0 0 0 7 7 0 0 0 7 0 0 0 7 0 0 0 0 0 0 0 k 0 k q l l l l l l z z z z z n o.O.O.~ .   ",
"  . ~ O.O.O.W z z z l l l l l l k k k q 0 0 q q q 0 0 0 0 0 0 7 0 0 7 0 0 0 0 7 7 k 7 7 0 0 0 7 k 0 k 0 k 0 k k q k k k l l l l l z z z n o.O.O.~ .   ",
"  . ~ O.O.O.! B B B B n n n n n n b b n b b b b b b b b b b b b b b v b b v b b b b b b b b b b b b b b b b b b b n n n n n n n n B B n A o.O.O.~ .   ",
"  . ~ O.O.O.O.o.o.o.o.o.o.o.o.o.o.o.o.o.o.o.o.o.o.o.o.X.X.o.o.o.o.o.o.o.o.o.o.o.X.X.o.X.o.X.o.X.o.o.o.X.o.o.o.o.o.o.o.o.o.o.o.o.o.o.o.o.o.O.O.O.~ .   ",
"  . ~ O.O.O.O.O.O.O.O.O.O.O.O.O.O.O.O.O.O.O.O.O.O.O.O.O.O.O.O.O.O.O.O.O.O.O.O.O.O.O.O.O.O.O.O.O.O.O.O.O.O.O.O.O.O.O.O.O.O.O.O.O.O.O.O.O.O.O.O.O.~ .   ",
"  . ~ O.O.O.O.O.O.O.O.O.O.O.O.O.O.O.O.O.O.O.O.O.O.O.O.O.O.O.O.O.O.O.O.O.O.O.O.O.O.O.O.O.O.O.O.O.O.O.O.O.O.O.O.O.O.O.O.O.O.O.O.O.O.O.O.O.O.O.O.O.~ .   ",
"  . F ~ ~ ~ ~ ~ ~ ~ ~ ~ ~ ~ ~ ~ ~ ~ ~ ~ ~ ~ ~ ~ ~ ~ ~ ~ ~ ~ ~ ~ ~ ~ ~ ~ ~ ~ ~ ~ ~ ~ ~ ~ ~ ~ ~ ~ ~ ~ ~ ~ ~ ~ ~ ~ ~ ~ ~ ~ ~ ~ ~ ~ ~ ~ ~ ~ ~ ~ ~ ~ F .   ",
"    . . . . . . . . . . . . . . . . . . . . . . . . . . . . . . . . . . . . . . . . . . . . . . . . . . . . . . . . . . . . . . . . . . . . . . .     ",
"                                                                                                                                                      "
};
