/* XPM */
static char *__[] = {
/* columns rows colors chars-per-pixel */
"75 75 121 2",
"   c #000000",
".  c #141414",
"X  c #00007F",
"o  c #000084",
"O  c #0E0E87",
"+  c #00008C",
"@  c #0B0B8A",
"#  c #000094",
"$  c #0B0B94",
"%  c #00009C",
"&  c #131394",
"*  c #14149B",
"=  c #1C1C9C",
"-  c #2D2D97",
";  c #22229D",
":  c #29299C",
">  c #35359F",
",  c #0000A3",
"<  c #0E0EA3",
"1  c #0000AC",
"2  c #0B0BAC",
"3  c #1212A4",
"4  c #1212A9",
"5  c #0000B4",
"6  c #0B0BB3",
"7  c #0000BB",
"8  c #0808B9",
"9  c #1313B7",
"0  c #1D1DB1",
"q  c #1616B9",
"w  c #1A1AB8",
"e  c #2424A4",
"r  c #2121A8",
"t  c #2C2CAA",
"y  c #3434AA",
"u  c #3C3CAC",
"i  c #2727B4",
"p  c #2A2AB3",
"a  c #2727BB",
"s  c #2B2BBE",
"d  c #3333B0",
"f  c #3939B4",
"g  c #3F3FB9",
"h  c #4444A5",
"j  c #4242AF",
"k  c #4C4CAD",
"l  c #5252AC",
"z  c #4141B5",
"x  c #4545BD",
"c  c #5555B5",
"v  c #5D5DB7",
"b  c #5757BC",
"n  c #5858BF",
"m  c #6262B2",
"M  c #6868BD",
"N  c #7676BC",
"B  c #0000C3",
"V  c #0000C9",
"C  c #1818C0",
"Z  c #2323C2",
"A  c #2B2BC2",
"S  c #3131C0",
"D  c #3A3AC2",
"F  c #3636CB",
"G  c #3B3BC9",
"H  c #3636D3",
"J  c #4343C4",
"K  c #4D4DCA",
"L  c #5151C1",
"P  c #5454CB",
"I  c #5A5ACC",
"U  c #6161C7",
"Y  c #6B6BCA",
"T  c #7373C6",
"R  c #7A7AC4",
"E  c #7373CC",
"W  c #7A7ACE",
"Q  c #6B6BD1",
"!  c #6161DF",
"~  c #7777D1",
"^  c #7A7AD4",
"/  c #BDBDBD",
"(  c #8383CA",
")  c #8E8ECD",
"_  c #9090CE",
"`  c #8181D2",
"'  c #8B8BD6",
"]  c #8686DB",
"[  c #8F8FDC",
"{  c #9494D4",
"}  c #9E9ED7",
"|  c #9494DB",
" . c #9E9EDB",
".. c #A3A3D4",
"X. c #A1A1DC",
"o. c #A8A8D9",
"O. c #B0B0DB",
"+. c #9797E2",
"@. c #9B9BE0",
"#. c #A4A4E5",
"$. c #AAAAE5",
"%. c #A9A9EA",
"&. c #B4B4E4",
"*. c #BCBCE4",
"=. c #B7B7E9",
"-. c #BEBEE9",
";. c #BBBBF1",
":. c #DBDBDB",
">. c #C4C4E5",
",. c #C9C9E7",
"<. c #C5C5EC",
"1. c #CCCCEC",
"2. c #D5D5EC",
"3. c #D4D4F0",
"4. c #DBDBF2",
"5. c #E4E4F7",
"6. c #ECECF6",
"7. c #E3E3F8",
"8. c #EEEEF9",
"9. c #F6F6FD",
"0. c #FFFFFF",
/* pixels */
"                                                                                                                                                      ",
"    . . . . . . . . . . . . . . . . . . . . . . . . . . . . . . . . . . . . . . . . . . . . . . . . . . . . . . . . . . . . . . . . . . . . . . .     ",
"  . / :.:.:.:.:.:.:.:.:.:.:.:.:.:.:.:.:.:.:.:.:.:.:.:.:.:.:.:.:.:.:.:.:.:.:.:.:.:.:.:.:.:.:.:.:.:.:.:.:.:.:.:.:.:.:.:.:.:.:.:.:.:.:.:.:.:.:.:.:./ .   ",
"  . :.0.0.0.0.0.0.0.0.0.0.0.0.0.0.0.0.0.0.0.0.0.0.0.0.0.0.0.0.0.0.0.0.0.0.0.0.0.0.0.0.0.0.0.0.0.0.0.0.0.0.0.0.0.0.0.0.0.0.0.0.0.0.0.0.0.0.0.0.0.:..   ",
"  . :.0.0.0.0.0.0.0.0.0.0.0.0.0.0.0.0.0.0.0.0.0.0.0.0.0.0.0.0.0.0.0.0.0.0.0.0.0.0.0.0.0.0.0.0.0.0.0.0.0.0.0.0.0.0.0.0.0.0.0.0.0.0.0.0.0.0.0.0.0.:..   ",
"  . :.0.0.0.0.0.0.0.0.0.0.0.0.0.0.0.0.0.0.0.0.0.0.0.0.0.0.0.0.0.0.0.0.0.0.0.0.0.0.0.0.0.0.0.0.0.0.0.0.0.0.0.0.0.0.0.0.0.0.0.0.0.0.0.0.0.0.0.0.0.:..   ",
"  . :.0.0.0.7.%.%.%.%.%.%.%.%.%.%.%.%.%.%.%.%.%.%.%.%.%.%.%.%.$.%.$.$.$.%.$.%.$.$.$.%.%.%.$.$.%.%.%.%.%.%.%.%.%.%.%.%.%.%.%.%.%.%.%.%.%.;.0.0.0.:..   ",
"  . :.0.0.0.%.V V V V V V V B B B B B B B 7 7 B 7 7 7 7 7 7 7 7 7 7 7 7 7 7 7 7 7 7 7 7 7 7 7 7 7 7 7 7 7 B 7 B B B B B B V B V V V V V H 9.0.0.:..   ",
"  . :.0.0.0.%.V V V V B V B B B B 7 B B 7 7 B 7 7 7 7 7 7 7 7 7 7 7 7 5 7 7 7 7 7 7 5 7 7 7 7 7 7 7 7 7 7 B 7 B 7 B B B B B B B V V V V H 9.0.0.:..   ",
"  . :.0.0.0.%.V V V V B B B B B B B B 7 7 B 7 7 7 7 7 7 7 5 7 7 5 7 7 5 5 7 5 5 5 7 5 7 5 7 7 7 7 7 7 7 7 7 7 B 7 B B B B B B B B V V V H 9.0.0.:..   ",
"  . :.0.0.0.%.V V V B V B B B B B 7 B 7 7 7 7 7 7 7 7 7 5 7 7 5 5 7 5 5 5 5 5 5 7 5 5 7 5 7 5 7 7 7 7 7 7 7 7 7 7 B 7 B B B B B V B B V H 9.0.0.:..   ",
"  . :.0.0.0.%.V V B B B B B B B B 7 7 7 7 7 7 7 7 5 5 7 5 5 5 5 5 5 5 5 5 5 5 5 5 5 5 5 5 7 5 5 5 7 7 7 7 7 7 7 B 7 B 7 B B B B B B V V H 9.0.0.:..   ",
"  . :.0.0.0.%.B B B B B B 7 B 7 7 7 B 7 7 7 7 7 7 5 7 5 5 5 5 5 5 5 5 5 5 1 5 5 5 5 5 5 5 5 5 5 5 7 5 7 7 7 7 7 7 7 7 B 7 B B B B B B B H 9.0.0.:..   ",
"  . :.0.0.0.%.V B B B B 7 B B 7 7 7 7 7 5 7 5 7 5 5 5 5 5 5 5 5 q s J K K J S a q 1 5 5 5 5 5 5 5 5 5 5 5 7 5 7 7 7 7 7 7 B B 7 B B B B H 9.0.0.:..   ",
"  . :.0.0.0.%.B B B B B 7 B 7 7 7 7 7 5 7 5 5 5 5 5 5 5 6 a I  .<.5.9.9.9.9.9.7.<.| I w 1 1 5 5 5 5 5 7 7 5 7 7 7 7 7 B 7 7 7 B B B B B H 9.0.0.:..   ",
"  . :.0.0.0.%.B B B B 7 B 7 B 7 7 7 7 7 7 5 5 5 5 5 9 P $.7.9.0.0.0.0.0.0.0.0.0.0.0.9.1.Q q 1 5 1 5 5 5 5 5 5 5 7 7 7 7 7 7 B 7 7 B B B H 9.0.0.:..   ",
"  . :.0.0.0.%.B B 7 B B 7 7 7 7 5 7 7 5 7 5 5 5 6 K =.9.0.0.0.0.0.0.0.0.0.0.0.0.0.0.0.0.9.=.s 1 5 5 5 5 5 5 5 7 5 7 5 7 7 7 7 B B 7 B B F 9.0.0.:..   ",
"  . :.0.0.0.%.B B B 7 7 7 B 7 7 7 5 5 5 5 5 5 9 ] 8.0.0.0.0.0.0.0.0.0.0.0.0.0.0.0.0.0.0.0.0.3.D 1 1 1 1 1 5 5 5 5 5 7 7 7 7 7 7 7 B B B H 9.0.0.:..   ",
"  . :.0.0.0.%.B B 7 7 B 7 7 7 7 7 5 7 5 5 5 5 Y 9.0.0.0.0.0.0.0.0.0.0.0.0.0.0.0.0.0.0.0.0.0.0.<.a 1 1 5 5 5 5 5 5 5 7 7 7 7 7 7 7 B 7 B F 9.0.0.:..   ",
"  . :.0.0.0.%.B B B 7 7 7 7 7 7 5 5 5 5 5 5 6 &.0.0.0.0.0.0.9.5.-.' ` E ` { <.9.0.0.0.0.0.0.0.0.@.2 1 1 1 5 1 5 5 7 5 5 7 7 7 7 7 7 B B H 9.0.0.:..   ",
"  . :.0.0.0.%.B B 7 7 7 7 7 7 7 5 5 5 5 1 1 6 <.0.0.0.0.9.*.Y p < , , % % , 4 x &.9.0.0.0.0.0.0.8.J 1 1 1 1 5 5 5 5 5 7 7 5 7 7 7 7 B 7 F 9.0.0.:..   ",
"  . :.0.0.0.%.7 B 7 7 7 7 7 5 5 5 5 1 5 5 1 6 &.0.0.9.=.L 4 , , , , % , , , % % 3 ' 9.0.0.0.0.0.0. .1 1 1 1 1 5 5 5 5 5 5 7 7 7 7 B 7 B F 9.0.0.:..   ",
"  . :.0.0.0.%.7 7 7 7 7 5 7 7 5 5 5 5 1 1 1 1 [ 0.2.Y 4 , , , % % , % % % % % % % < X.0.0.0.0.0.0.2.0 1 1 1 1 1 1 5 5 5 5 5 7 5 7 7 7 7 F 9.0.0.:..   ",
"  . :.0.0.0.%.B 7 7 7 7 7 5 5 5 5 5 5 1 1 1 1 i U i , , , % , % % % % % % % % % % % y 5.0.0.0.0.0.9.x , 1 1 1 1 1 5 5 5 5 7 5 7 7 7 7 B F 9.0.0.:..   ",
"  . :.0.0.0.%.7 7 7 7 7 7 5 5 5 5 1 5 1 1 , 1 , , , , , % % % % % % % # % % % % % # % { 0.0.0.0.0.0.U , 1 , 1 1 1 5 5 5 5 5 5 7 7 7 7 7 F 9.0.0.:..   ",
"  . :.0.0.0.%.7 7 7 7 7 5 5 5 5 5 1 1 1 1 1 , , , , , % % % % % % % % # # # # # % % % b 9.0.0.0.0.0.E , , 1 , 1 1 1 1 5 5 5 5 7 7 7 7 7 F 9.0.0.:..   ",
"  . :.0.0.0.%.7 7 7 7 5 5 5 5 5 5 1 1 1 1 , , , , % % % % % % % # # % # # # # # # # # u 6.0.0.0.0.0.` , , , 1 1 1 1 5 5 5 5 5 5 5 7 7 7 F 9.0.0.:..   ",
"  . :.0.0.0.%.7 7 7 5 7 5 5 5 5 1 1 1 1 1 , , , , , % % % % # # # # # # # # # # # # # y 6.0.0.0.0.0.W , , , , 1 1 1 1 1 5 5 5 7 7 5 7 7 F 9.0.0.:..   ",
"  . :.0.0.0.%.7 7 7 7 5 5 5 5 1 1 1 1 , , , , , % % % % % # # # # # # # + + # # # # # j 9.0.0.0.0.0.T , , , , , 1 1 1 1 1 5 5 5 5 7 7 7 F 9.0.0.:..   ",
"  . :.0.0.0.$.7 7 7 5 7 5 5 5 1 1 1 1 1 1 , , % , % % # # # # # + # + + + # + + + # + c 9.0.0.0.0.0.n % % , , 1 1 1 1 5 5 5 5 5 5 7 7 7 F 9.0.0.:..   ",
"  . :.0.0.0.%.7 7 7 5 5 5 5 5 5 5 1 , , , , , , % % % % # # # # # + + + + + + + + + + M 0.0.0.0.0.8.z % , , , , , 1 1 1 5 1 5 5 5 7 7 7 F 9.0.0.:..   ",
"  . :.0.0.0.%.7 5 7 5 5 5 5 1 1 1 1 1 , , , % % % % # # # # # + + + + + o + + + + + + _ 0.0.0.0.0.4.r % % , , , , 1 1 1 1 5 5 5 5 5 7 5 F 9.0.0.:..   ",
"  . :.0.0.0.%.7 7 5 7 5 5 5 5 1 1 1 1 , , , , % % % # # # # + + + + + + o + o + + + & ,.0.0.0.0.0.O.% % % , , , , 1 , 1 1 5 5 5 7 5 7 7 F 9.0.0.:..   ",
"  . :.0.0.0.$.7 7 7 5 5 5 5 1 1 1 1 , , , , % % % # % # # + # + + + o o o o o o o o k 8.0.0.0.0.0.T % % % , , , , , 1 1 5 1 5 5 5 5 7 5 F 9.0.0.:..   ",
"  . :.0.0.0.$.7 7 5 5 5 5 1 5 1 1 , 1 , , % % % % # # # # + + + + + o o o o o o o @ ..0.0.0.0.0.5.t # % % % , , 1 1 1 1 1 1 5 5 5 7 5 7 F 9.0.0.:..   ",
"  . :.0.0.0.$.7 7 5 5 5 5 5 1 1 1 1 , , , % , % % # # # # + + + o o o o o X o o X h 6.0.0.0.0.0._ # % % % , % , , , 1 1 1 5 1 5 5 5 7 5 F 9.0.0.:..   ",
"  . :.0.0.0.$.7 7 5 5 5 5 5 1 1 1 1 , , , % % % % # # # # + + + o o o o X X X X O O.0.0.0.0.0.5.y # # % % % % , , , 1 1 1 5 5 5 5 7 7 7 F 9.0.0.:..   ",
"  . :.0.0.0.%.7 7 5 7 5 5 1 1 1 1 , , , , % % % # % # # + # + + o o o o X X X X m 9.0.0.0.0.0.( # # # % % , , , , 1 , 1 5 1 1 5 5 5 5 7 D 9.0.0.:..   ",
"  . :.0.0.0.$.7 7 5 5 5 5 5 1 1 1 , , , % , % % % # # # + + + + + o o X X X X - 2.0.0.0.0.0.2.= # # % % % , , , , 1 1 1 1 1 5 5 5 7 7 5 F 9.0.0.:..   ",
"  . :.0.0.0.%.7 7 7 5 5 5 1 5 1 1 1 1 , , , % % % # # # # + + + + o o o X X O ..0.0.0.0.0.6.c # # # # % % % % , , , 1 1 1 1 5 5 5 5 5 5 F 9.0.0.:..   ",
"  . :.0.0.0.%.7 7 5 5 5 5 5 5 1 1 , , , , , % % % # # # # + + + o o o o o o N 9.0.0.0.0.0.) + + # # # % % , % , 1 , 1 1 1 1 5 5 7 5 7 7 F 9.0.0.:..   ",
"  . :.0.0.0.$.7 5 7 7 5 5 1 1 1 1 1 , 1 , , % % % # # # # # + + + + o o o l 6.0.0.0.0.0.>.= # # # # % % % % , , , 1 1 1 1 5 5 5 5 5 5 7 F 9.0.0.:..   ",
"  . :.0.0.0.%.7 7 5 7 5 5 5 1 5 1 , 1 , , , , % % % % # # # + + + + + o > 2.0.0.0.0.0.4.j + # # # % % % % , , , , , 1 1 5 1 5 5 5 7 5 7 F 9.0.0.:..   ",
"  . :.0.0.0.$.7 7 7 5 5 5 5 1 1 1 1 , , , , % % % % # # # + # + + + + : >.0.0.0.0.0.8.v + # # # # % % % % , , , 1 1 1 1 1 1 5 5 5 5 7 7 F 9.0.0.:..   ",
"  . :.0.0.0.%.7 7 5 5 5 5 5 5 1 1 1 1 , , , , % % % % # # # # # + + ; O.0.0.0.0.0.9.R + # # # # # % % % % , , 1 1 1 1 1 1 5 5 5 5 7 7 5 F 9.0.0.:..   ",
"  . :.0.0.0.%.7 7 7 7 5 5 5 5 1 1 1 1 1 , , , % , % % # # # # # + = O.0.0.0.0.0.9._ $ # # # # # % % % % % , , , , 1 1 1 5 5 5 5 5 7 7 7 F 9.0.0.:..   ",
"  . :.0.0.0.$.7 7 5 7 5 5 5 5 1 1 1 1 , , , , , % % % % # # # # = o.0.0.0.0.0.0...* + # # # % % % % % , , , , , 1 1 5 1 1 5 5 5 7 5 5 7 F 9.0.0.:..   ",
"  . :.0.0.0.%.7 7 7 7 5 5 5 5 5 1 1 1 1 , , , , % % % % % % # * X.0.0.0.0.0.0.O.= + # # # # # % % % % , , , 1 , 1 1 1 1 5 5 5 5 5 7 7 7 F 9.0.0.:..   ",
"  . :.0.0.0.%.7 7 7 5 5 7 5 5 5 1 1 1 1 , , , , , % % % % % * } 0.0.0.0.0.0.&.e # # # # # % % % % % , , , , 1 1 1 1 1 5 5 5 5 5 5 7 7 7 F 9.0.0.:..   ",
"  . :.0.0.0.%.7 7 7 7 7 5 5 5 5 5 1 5 1 1 1 , , , , % , % * } 0.0.0.0.0.0.*.e # % # % # % % % % % , , , , 1 , 1 1 1 5 1 5 5 5 5 7 7 7 7 F 9.0.0.:..   ",
"  . :.0.0.0.%.7 7 7 7 7 7 5 5 5 5 1 5 1 1 , 1 , , , , % 3 | 9.0.0.0.0.0.>.t # % # % % % % % % % , , , , 1 , 1 1 1 1 5 5 5 5 7 5 7 7 7 7 F 9.0.0.:..   ",
"  . :.0.0.0.%.7 7 7 7 7 5 5 5 5 5 5 1 1 1 1 , 1 , , , 4 | 9.0.0.0.0.0.,.t % % % % % % % , % , % , , , , , 1 1 1 1 5 5 5 5 5 5 7 7 7 7 7 F 9.0.0.:..   ",
"  . :.0.0.0.%.7 B 7 7 7 7 5 5 5 5 5 5 1 1 1 1 1 1 , < [ 9.0.0.0.0.0.1.d % % % % % % % % % , , , , , , 1 1 1 1 1 1 5 5 5 7 5 7 7 7 7 B B F 9.0.0.:..   ",
"  . :.0.0.0.%.B 7 7 7 7 7 7 7 5 5 5 5 1 1 1 1 1 1 < ' 9.0.0.0.0.0.2.f % , % % % % , , , , , , , , , , 1 1 1 1 5 5 5 5 5 5 7 5 7 7 7 7 7 F 9.0.0.:..   ",
"  . :.0.0.0.%.7 B 7 7 7 7 7 7 5 5 5 5 1 5 1 1 1 6 ' 9.0.0.0.0.0.2.g , , % , , % , % , , , , , , 1 , 1 1 1 1 1 1 5 5 5 5 7 5 7 7 7 7 7 B F 9.0.0.:..   ",
"  . :.0.0.0.%.B B 7 7 7 7 7 7 5 5 5 5 5 5 5 1 6 ^ 9.0.0.0.0.0.4.x , , , , , , , , , , , , , 1 1 1 1 1 1 1 5 5 5 5 5 7 5 5 7 7 7 7 7 B 7 H 9.0.0.:..   ",
"  . :.0.0.0.%.B B 7 7 7 7 7 7 7 5 5 5 5 5 5 5 E 9.0.0.0.0.0.4.x , , , , , , , , , , , , 1 , 1 , 1 1 1 1 5 1 5 5 5 5 5 7 7 7 7 7 7 7 B 7 F 9.0.0.:..   ",
"  . :.0.0.0.%.B B B B 7 7 7 7 7 7 5 7 5 5 5 D 7.0.0.0.0.0.0.-.~ ~ ~ ~ ~ W ~ ~ E ~ E ~ ~ ~ ~ ~ ~ ~ ~ ~ P 6 5 5 5 5 5 5 7 7 7 7 7 B 7 B B H 9.0.0.:..   ",
"  . :.0.0.0.%.V B B 7 7 B 7 7 7 5 7 7 5 5 5 ] 0.0.0.0.0.0.0.0.0.0.0.0.0.0.0.0.0.0.0.0.0.0.0.0.0.0.0.0.9.Q 5 5 7 7 7 5 7 7 7 7 7 7 B B B H 9.0.0.:..   ",
"  . :.0.0.0.%.B B 7 B B 7 7 7 7 7 7 7 5 5 8 #.0.0.0.0.0.0.0.0.0.0.0.0.0.0.0.0.0.0.0.0.0.0.0.0.0.0.0.0.0.#.8 5 5 5 7 7 7 7 7 7 B B 7 B B H 9.0.0.:..   ",
"  . :.0.0.0.%.B B B B 7 B 7 B 7 7 7 7 7 5 8 %.0.0.0.0.0.0.0.0.0.0.0.0.0.0.0.0.0.0.0.0.0.0.0.0.0.0.0.0.0.%.8 7 7 7 7 7 7 B 7 7 B B B B B H 9.0.0.:..   ",
"  . :.0.0.0.%.B B B B B B 7 7 7 7 7 7 7 7 7 [ 0.0.0.0.0.0.0.0.0.0.0.0.0.0.0.0.0.0.0.0.0.0.0.0.0.0.0.0.0.+.8 7 5 7 7 7 7 7 B 7 B B B B B H 9.0.0.:..   ",
"  . :.0.0.0.%.B B B B B B 7 B 7 B 7 7 7 7 7 G <.5.5.5.5.5.5.5.5.5.5.5.5.5.5.5.5.5.5.5.5.5.5.5.5.7.7.5.4.K 7 7 7 7 7 B 7 7 B B B B B B B H 9.0.0.:..   ",
"  . :.0.0.0.%.V V B B B B B B B 7 7 7 7 7 7 7 C A A A A A A A A A A A s A A A A A A A A A A A A A A A Z 8 7 7 7 7 7 7 7 B 7 B B B B V B H 9.0.0.:..   ",
"  . :.0.0.0.%.V V B B B B B B 7 B B 7 7 7 7 7 7 7 7 7 5 5 5 5 5 5 5 5 5 5 5 5 5 5 5 5 5 5 5 7 7 5 7 7 7 7 7 7 7 7 B 7 7 B B B B B V V B H 9.0.0.:..   ",
"  . :.0.0.0.%.V V B V B B B B B B 7 B 7 7 7 7 7 7 7 7 7 7 7 5 7 7 5 7 5 7 5 5 7 5 7 5 7 5 7 7 5 5 7 7 7 7 7 7 B 7 B B B B B B B B V B V H 9.0.0.:..   ",
"  . :.0.0.0.%.V V V V B V B B B B B B 7 B 7 B 7 7 7 7 7 7 7 7 7 7 5 7 5 5 5 7 5 7 5 7 7 7 5 7 7 7 7 7 7 7 B 7 B B 7 B B B B B B V V V V H 9.0.0.:..   ",
"  . :.0.0.0.%.V V V V V B B V B B 7 B B 7 B 7 7 7 7 7 7 7 5 7 7 7 5 7 5 7 7 5 7 5 7 7 5 7 7 5 5 7 7 7 7 7 7 7 B 7 B B B B B B V B V V V H 9.0.0.:..   ",
"  . :.0.0.0.;.H H H H H H H H H F H F H F F F F F F F F F F F F F F D F F F F F F F F F F F F F F F F F F F H F F H H F H H H H H H H H ! 9.0.0.:..   ",
"  . :.0.0.0.0.9.9.9.9.9.9.9.9.9.9.9.9.9.9.9.9.9.9.9.9.9.9.9.9.9.9.9.9.9.9.9.9.9.9.9.9.9.9.9.9.9.9.9.9.9.9.9.9.9.9.9.9.9.9.9.9.9.9.9.9.9.9.0.0.0.:..   ",
"  . :.0.0.0.0.0.0.0.0.0.0.0.0.0.0.0.0.0.0.0.0.0.0.0.0.0.0.0.0.0.0.0.0.0.0.0.0.0.0.0.0.0.0.0.0.0.0.0.0.0.0.0.0.0.0.0.0.0.0.0.0.0.0.0.0.0.0.0.0.0.:..   ",
"  . :.0.0.0.0.0.0.0.0.0.0.0.0.0.0.0.0.0.0.0.0.0.0.0.0.0.0.0.0.0.0.0.0.0.0.0.0.0.0.0.0.0.0.0.0.0.0.0.0.0.0.0.0.0.0.0.0.0.0.0.0.0.0.0.0.0.0.0.0.0.:..   ",
"  . / :.:.:.:.:.:.:.:.:.:.:.:.:.:.:.:.:.:.:.:.:.:.:.:.:.:.:.:.:.:.:.:.:.:.:.:.:.:.:.:.:.:.:.:.:.:.:.:.:.:.:.:.:.:.:.:.:.:.:.:.:.:.:.:.:.:.:.:.:./ .   ",
"    . . . . . . . . . . . . . . . . . . . . . . . . . . . . . . . . . . . . . . . . . . . . . . . . . . . . . . . . . . . . . . . . . . . . . . .     ",
"                                                                                                                                                      "
};
