/* XPM */
static char *__[] = {
/* columns rows colors chars-per-pixel */
"75 75 101 2",
"   c #000000",
".  c #090909",
"X  c #141414",
"o  c #005555",
"O  c #005C5C",
"+  c #0A5D5D",
"@  c #105F5F",
"#  c #006464",
"$  c #0A6464",
"%  c #006C6C",
"&  c #0C6D6D",
"*  c #156363",
"=  c #1E6767",
"-  c #1B6B6B",
";  c #007474",
":  c #0B7171",
">  c #007A7A",
",  c #0B7979",
"<  c #127373",
"1  c #187676",
"2  c #127B7B",
"3  c #197B7B",
"4  c #226A6A",
"5  c #237575",
"6  c #237C7C",
"7  c #2D7C7C",
"8  c #347C7C",
"9  c #3E7E7E",
"0  c #606060",
"q  c #6F6F6F",
"w  c #008080",
"e  c #1E8282",
"r  c #228686",
"t  c #2A8484",
"y  c #2A8989",
"u  c #348484",
"i  c #3B8383",
"p  c #328D8D",
"a  c #3B8B8B",
"s  c #369595",
"d  c #3E9494",
"f  c #369A9A",
"g  c #408686",
"h  c #408B8B",
"j  c #588D8D",
"k  c #439595",
"l  c #4B9090",
"z  c #449999",
"x  c #4C9C9C",
"c  c #569494",
"v  c #599696",
"b  c #529D9D",
"n  c #5C9F9F",
"m  c #619999",
"M  c #6B9D9D",
"N  c #54A1A1",
"B  c #5CA4A4",
"V  c #60A4A4",
"C  c #6EA3A3",
"Z  c #61A9A9",
"A  c #6BAEAE",
"S  c #73A3A3",
"D  c #79A5A5",
"F  c #72ACAC",
"G  c #7CAAAA",
"H  c #73B2B2",
"J  c #7DB3B3",
"K  c #83B4B4",
"L  c #8CB6B6",
"P  c #8CBCBC",
"I  c #94BDBD",
"U  c #BDBDBD",
"Y  c #8DC1C1",
"T  c #95C3C3",
"R  c #9BC4C4",
"E  c #A5C6C6",
"W  c #AAC7C7",
"Q  c #A5CCCC",
"!  c #ABCACA",
"~  c #B2CBCB",
"^  c #A9D3D3",
"/  c #B3D3D3",
"(  c #BAD4D4",
")  c #B7D8D8",
"_  c #BDDCDC",
"`  c #C2D7D7",
"'  c #C3DDDD",
"]  c #C9DEDE",
"[  c #DBDBDB",
"{  c #C7E0E0",
"}  c #CDE2E2",
"|  c #D4E6E6",
" . c #D8E6E6",
".. c #D7E8E8",
"X. c #DCEAEA",
"o. c #E3EEEE",
"O. c #E5F1F1",
"+. c #ECF3F3",
"@. c #F2F6F6",
"#. c #F6FAFA",
"$. c #FFFFFF",
/* pixels */
"                                                                                                                                                      ",
"    X X X X X X X X X X X X X X X X X X X X X X X X X X X X X X X X X X X X X X X X X X X X X X X X X X X X X X X X X X X X X X X X X X X X X X .     ",
"  X U [ [ [ [ [ [ [ [ [ [ [ [ [ [ [ [ [ [ [ [ [ [ [ [ [ [ [ [ [ [ [ [ [ [ [ [ [ [ [ [ [ [ [ [ [ [ [ [ [ [ [ [ [ [ [ [ [ [ [ [ [ [ [ [ [ [ [ [ [ 0     ",
"  X [ $.$.$.$.$.$.$.$.$.$.$.$.$.$.$.$.$.$.$.$.$.$.$.$.$.$.$.$.$.$.$.$.$.$.$.$.$.$.$.$.$.$.$.$.$.$.$.$.$.$.$.$.$.$.$.$.$.$.$.$.$.$.$.$.$.$.$.$.$.q     ",
"  X [ $.$.$.$.$.$.$.$.$.$.$.$.$.$.$.$.$.$.$.$.$.$.$.$.$.$.$.$.$.$.$.$.$.$.$.$.$.$.$.$.$.$.$.$.$.$.$.$.$.$.$.$.$.$.$.$.$.$.$.$.$.$.$.$.$.$.$.$.$.q     ",
"  X [ $.$.$.$.$.$.$.$.$.$.$.$.$.$.$.$.$.$.$.$.$.$.$.$.$.$.$.$.$.$.$.$.$.$.$.$.$.$.$.$.$.$.$.$.$.$.$.$.$.$.$.$.$.$.$.$.$.$.$.$.$.$.$.$.$.$.$.$.$.q     ",
"  X [ $.$.$.O.^ ^ ^ ^ ^ ^ ^ ^ ^ ^ ^ ^ ^ ^ ^ ^ ^ ^ ^ ^ ^ ^ ^ ^ ^ ^ ^ ^ ^ ^ ^ ^ ^ ^ ^ ^ ^ ^ ^ ^ ^ ^ ^ ^ ^ ^ ^ ^ ^ ^ ^ ^ ^ ^ ^ ^ ^ ^ ^ ^ ^ O.$.$.$.q     ",
"  X [ $.$.$.^ w w w w w w > w > > > > > > > > > > > ; > ; ; ; > ; ; ; ; ; > ; ; > ; ; ; > ; ; > > ; > > > > > > > > w > w > w w w w w w ^ $.$.$.q     ",
"  X [ $.$.$.^ w w w w w w w w > > > > > > > > > > ; > ; ; > > ; > ; > ; ; ; > ; > ; > ; > ; > > > ; > > > > > > > > w > w > w w w w w w ^ $.$.$.q     ",
"  X [ $.$.$.^ w w w w > > > > > > > > > > > ; > > > ; > > ; ; ; ; ; ; ; ; ; ; ; ; ; > ; ; ; ; ; ; > ; > > ; > > > > > > > w w > w w w w ^ $.$.$.q     ",
"  X [ $.$.$.^ w w w > w > w w > > > > > > > > > ; ; > ; ; ; ; ; ; ; ; ; ; ; ; ; ; ; ; ; ; ; ; ; ; > > ; ; > > > > > > > > > > w w w w w ^ $.$.$.q     ",
"  X [ $.$.$.^ w w w w > > > > > > > ; > > ; ; ; > ; ; ; ; ; ; ; ; ; ; ; ; ; ; ; ; ; ; ; ; ; ; ; ; ; ; ; > ; > ; > > > > > > w > > w > w ^ $.$.$.q     ",
"  X [ $.$.$.^ > w > w > w > > > > > > > > ; ; ; ; ; ; ; ; ; ; ; ; ; ; % ; % ; % ; ; ; ; ; ; ; ; ; ; ; ; ; > ; > ; > > > > > w > w > w w ^ $.$.$.q     ",
"  X [ $.$.$.^ w > w > > > > > > ; > ; ; ; ; ; ; ; ; ; ; ; ; % , e p x x x k p y 2 % ; ; ; % ; ; ; ; ; ; ; > ; > > ; > > > > > > > w w > ^ $.$.$.q     ",
"  X [ $.$.$.^ w w > > > > > > > ; > ; ; ; ; ; ; ; ; ; ; 2 z J / ..+.#.#.$.@.@.O.' T B 2 % ; ; ; ; ; ; ; ; ; ; > ; > ; > > > > > > > > w ^ $.$.$.q     ",
"  X [ $.$.$.^ > w > > > > > ; > > ; > > ; ; ; ; ; : r H { @.$.$.$.$.$.$.$.$.$.$.$.$.$.] F 2 % ; ; ; ; ; ; ; ; ; ; ; > > > > > > > w > > ^ $.$.$.q     ",
"  X [ $.$.$.^ > > > > > > > > ; > ; ; ; ; ; ; % 2 A ..$.$.$.$.$.$.$.$.$.$.$.$.$.$.$.$.$.$.^ y % % ; % ; ; ; ; ; ; ; > ; > > > > > > > > ^ $.$.$.q     ",
"  X [ $.$.$.^ > > > > > > ; ; > ; ; ; ; ; ; ; e Q #.$.$.$.$.$.$.$.$.$.$.$.$.$.$.$.$.$.$.$.$.} y % ; % ; ; ; ; ; ; ; ; > ; > ; > > > > > ^ $.$.$.q     ",
"  X [ $.$.$.^ > > > > > > > ; ; > ; ; ; ; ; ; P $.$.$.$.$.$.$.$.#.+.O.+.+.#.$.$.$.$.$.$.$.$.$./ 2 % ; % % ; ; ; ; ; ; ; ; > > > > > > > ^ $.$.$.q     ",
"  X [ $.$.$.^ > > > > > ; ; > ; ; ; ; ; ; % 2 | $.$.$.$.$.#.} I n a 7 t a V R o.$.$.$.$.$.$.$.$.F % % ; ; % ; ; ; ; ; ; ; ; > ; > > > > ^ $.$.$.q     ",
"  X [ $.$.$.^ > > > > ; ; > ; ; ; ; ; ; % % 3 ..$.$.$.@.( B 1 % # # # # # # % u ! $.$.$.$.$.$.$.| 3 % % ; % ; % ; ; ; ; ; ; > ; > > > > ^ $.$.$.q     ",
"  X [ $.$.$.^ > > > ; > > ; ; ; ; ; % ; ; % 2 | $.$.) n < # # # # % # % # # # # 1 ! $.$.$.$.$.$.$.b % % % ; % ; ; ; ; ; ; > ; > ; > > > ^ $.$.$.q     ",
"  X [ $.$.$.^ > > ; > ; ; ; ; ; ; ; ; % ; % : Q o.J 1 # # # # # # # # # # # # # # t  .$.$.$.$.$.$.P % % % % ; ; % ; ; ; ; ; ; > ; > > > ^ $.$.$.q     ",
"  X [ $.$.$.^ > > > ; > ; ; ; ; ; % ; % % % % 1 6 % % # % # # # # # # # # # # O # # L $.$.$.$.$.$.( & % % % % % % ; ; ; ; ; ; ; > ; > ; ^ $.$.$.q     ",
"  X [ $.$.$.^ ; > > ; ; ; ; ; % ; ; % ; % % % % # # % # # # # # # O # O # O # # # O l #.$.$.$.$.$.] & % % % % % % ; % ; ; ; ; ; ; > > > ^ $.$.$.q     ",
"  X [ $.$.$.^ > > ; > ; ; ; ; ; % % % % % % % # # % # # # # # # O # # O O # O O # O 7 o.$.$.$.$.$.| 1 % % % % % ; % ; ; ; ; ; ; ; > ; > ^ $.$.$.q     ",
"  X [ $.$.$.^ ; > ; ; ; ; ; ; % ; % % % % % % # # # # # # O # O # O # O O O O # O O 5 X.$.$.$.$.$.} < # % % % % % ; % % ; ; ; ; ; > ; > ^ $.$.$.q     ",
"  X [ $.$.$.^ > > > ; ; ; ; ; ; % ; % % % % # % % # # # # # O # O O O O O O O O O O 7 o.$.$.$.$.$.] & # % # % % % % ; ; ; ; ; ; ; ; > > ^ $.$.$.q     ",
"  X [ $.$.$.^ ; ; ; > ; ; ; ; % ; % % % # % % # # # # # O O O O O O O O O O o O O o g +.$.$.$.$.$.E % # # % % % % % % % ; ; ; ; ; ; > ; ^ $.$.$.q     ",
"  X [ $.$.$.^ > ; > ; ; ; ; ; ; % % % % % # # # # # # O # O O O O O o O O O o O O O S $.$.$.$.$.$.C # # % # # % % % ; ; % ; ; ; ; > ; > ^ $.$.$.q     ",
"  X [ $.$.$.^ ; ; ; ; ; ; ; % % ; % % % # % # # # # # # O O O O o O o O o O o O O = ` $.$.$.$.$.O.u # # # % # % % % % ; % ; ; ; ; ; ; ; ^ $.$.$.q     ",
"  X [ $.$.$.^ ; > ; ; ; ; % ; % % % % % % # # # # O O O O O O O O o O o o o o o o S #.$.$.$.$.$.! $ # # # # % % % % % % ; % ; ; ; ; > ; ^ $.$.$.q     ",
"  X [ $.$.$.^ ; ; ; ; ; ; ; ; % % % # % # # # # # # O # O O o O o o o o o o o o j O.$.$.$.$.$.o.g O # # # % # % % % % % ; ; ; ; ; ; > > ^ $.$.$.q     ",
"  X [ $.$.$.^ > ; ; ; ; ; ; % % % % % % % # # # O # O O O O O o o o o o o o o M o.$.$.$.$.$.@.K O O # # # # % # % % % ; % ; % ; ; ; ; ; ^ $.$.$.q     ",
"  X [ $.$.$.^ ; ; ; ; ; % ; ; % % % % # # # # # # O O O o o o o o o o + 4 j ~ @.$.$.$.$.$.#.L $ O O O # # # # # # % % % % ; ; ; ; ; ; ; ^ $.$.$.q     ",
"  X [ $.$.$.^ ; > ; ; ; ; % % ; % % % # % # # # # O O i C S S C S D L W [ @.$.#.$.$.$.$.o.S $ O O O # # # # % % % % % % % ; % ; ; ; > > Q $.$.$.q     ",
"  X [ $.$.$.^ ; ; > ; ; ; % ; % % % % # # # # # # O 8  .$.$.$.$.$.$.$.$.$.$.$.$.$.@.o.I 9 o O O O # # # # # # % % % % % ; % ; ; ; ; ; ; ^ $.$.$.q     ",
"  X [ $.$.$.^ ; ; ; ; ; ; % % % % % % % % # # # O O c $.$.$.$.$.$.$.$.$.$.$.$.$.#.! j * o o O O O O O # # # # # % % % % % ; ; ; ; ; > ; Q $.$.$.q     ",
"  X [ $.$.$.^ ; ; ; ; ; % ; ; % % % # % # # # # # O v $.$.$.$.$.$.$.$.$.$.$.$.$.$.@.o.` G 8 o O O O # O # # # % % % % % % ; % ; ; ; ; ; ^ $.$.$.q     ",
"  X [ $.$.$.^ ; ; ; ; ; ; ; % % % % % # # # # # O O i O.$.$.$.$.$.$.$.$.$.$.$.$.$.$.$.$.$.o.K - O # # # # # # % # % % % ; % ; ; ; ; > ; ^ $.$.$.q     ",
"  X [ $.$.$.^ ; ; ; ; ; ; ; ; % % % # % # # # # O O $ C W ! W W W W ( `  .@.#.$.$.$.$.$.$.$.$.` i O O # # # # % % % % % ; ; ; ; ; > ; ; ^ $.$.$.q     ",
"  X [ $.$.$.^ ; > ; ; ; ; % % ; % % % % # # # # # # O O $ O O + o + @ * 4 9 S ~ +.$.$.$.$.$.$.$...h O # # # % # % % % % % ; % ; ; ; ; > ^ $.$.$.q     ",
"  X [ $.$.$.^ ; ; ; ; ; ; ; % % % % % # # # # # # O O O O O o o o o o o o o o @ 9 W @.$.$.$.$.$.$.] 7 # # # # % # % % ; % ; ; ; ; ; > ; ^ $.$.$.q     ",
"  X [ $.$.$.^ > ; > ; ; ; % ; % % % % % % % # # # O # # O O O O o o o o o o o O o + M O.$.$.$.$.$.$.I % # # % # % % % % ; % ; ; ; ; ; ; ^ $.$.$.q     ",
"  X [ $.$.$.^ ; ; ; ; ; ; % ; % % % % % % # # # # # O O O O O O o O o o O o o O o o O m @.$.$.$.$.$.O.h # # % % % % % ; % ; ; ; ; > ; > ^ $.$.$.q     ",
"  X [ $.$.$.^ > > ; ; ; ; ; ; % % % % % # % # # # # # O O O O O o O O o O o o o o O O + I $.$.$.$.$.$.L % # # % % % % % ; ; % ; ; ; > ; ^ $.$.$.q     ",
"  X [ $.$.$.^ ; > ; ; ; ; ; % ; % % % % % # % # # # O # # O O O O o O O O o O O O O O O 8 o.$.$.$.$.$.] < # % % % % % ; ; ; ; ; ; ; > ; ^ $.$.$.q     ",
"  X [ $.$.$.^ ; ; ; ; ; ; ; ; ; % ; % % % % % # # # # # O # # O # O O O O O O O O O O O $ ( $.$.$.$.$.o.t # % % % ; % ; % ; ; ; ; > ; ; ^ $.$.$.q     ",
"  X [ $.$.$.^ ; > ; > ; ; ; ; % % ; % % % % # % # # # # # O O O O O O O O O O O O O # O O L $.$.$.$.$.O.a % % % % % % ; ; ; ; ; ; > > > ^ $.$.$.q     ",
"  X [ $.$.$.^ > > ; ; ; ; ; ; ; ; % % % % % % # # # # # # # # # # # O # O O # O O # O O # F $.$.$.$.$.+.a % % % % ; ; % ; ; ; ; ; ; ; > ^ $.$.$.q     ",
"  X [ $.$.$.^ ; > > ; ; ; ; ; ; ; % ; % % % % % # # % # # # # # # O O O # # O # # # # # # G $.$.$.$.$.O.u % % ; ; % ; ; ; ; ; ; ; > > ; ^ $.$.$.q     ",
"  X [ $.$.$.^ > > ; ; > ; ; ; ; ; ; % % % % % % % % % # # # # # # # # # # O # # O # # # # I $.$.$.$.$.X.6 % % % % ; ; ; ; ; ; ; > ; > > ^ $.$.$.q     ",
"  X [ $.$.$.^ > > > > ; ; ; ; ; % ; % % ; % % % % % # # % # # # # # # # # # # # # # # # & ] $.$.$.$.$.] , % ; % % ; ; ; ; ; ; > > > > > ^ $.$.$.q     ",
"  X [ $.$.$.^ > ; > ; > ; ; ; ; ; ; ; ; % % % % % % % % % # % # # # # # # # # # # # # # l O.$.$.$.$.$.Y % % % % ; ; ; ; ; ; ; ; ; > ; > ^ $.$.$.q     ",
"  X [ $.$.$.^ > > > > ; > ; ; ; ; ; ; % ; : d t % % % % % % # # # % # % # # # # # % % < ( $.$.$.$.$.#.x % % ; ; ; ; ; ; ; ; > > ; > > > ^ $.$.$.q     ",
"  X [ $.$.$.^ > > > > ; > ; > ; ; ; ; ; ; y X.X.K t % # % # % % % # % # % # % # % # : L #.$.$.$.$.$.] 1 ; ; % ; % ; ; ; > ; > ; > > > > ^ $.$.$.q     ",
"  X [ $.$.$.^ > > > > > > > ; ; > ; ; ; % b #.$.$. .P a : # % % % # % # % % # % % r R #.$.$.$.$.$.#.B % % ; ; ; ; ; ; > ; > ; > > > > > ^ $.$.$.q     ",
"  X [ $.$.$.^ w > > > > > ; > ; ; ; ; ; ; N #.$.$.$.$.O./ A a 1 : % % % % & 1 a K ..$.$.$.$.$.$.$.Q 2 ; ; ; ; ; ; ; ; ; > ; > > > > > > ^ $.$.$.q     ",
"  X [ $.$.$.^ > > > > > > > > ; ; ; ; ; ; z +.$.$.$.$.$.$.$.O.| / T P P R Q } O.$.$.$.$.$.$.$.$.] r ; % ; ; ; ; ; ; ; > ; > > > > > > > ^ $.$.$.q     ",
"  X [ $.$.$.^ > > > > > > > ; > > ; > ; ; r  .$.$.$.$.$.$.$.$.$.$.$.$.$.$.$.$.$.$.$.$.$.$.$.$.] p ; % ; ; ; ; ; ; > > ; > > ; > > > w > ^ $.$.$.q     ",
"  X [ $.$.$.^ w > > > > > > ; > ; > ; ; ; > Z X.$.$.$.$.$.$.$.$.$.$.$.$.$.$.$.$.$.$.$.$.$.#.Q r ; % ; ; ; ; ; ; ; ; ; > > ; > > > > w w ^ $.$.$.q     ",
"  X [ $.$.$.^ > w w > w > > ; > > ; > ; ; ; ; s T X.$.$.$.$.$.$.$.$.$.$.$.$.$.$.$.$.$.#.' B , ; ; ; ; ; ; ; > ; > > > > > > > > > w w > ^ $.$.$.q     ",
"  X [ $.$.$.^ > w > > > > > > > > > > ; > ; ; ; ; y A ^ ..#.$.$.$.$.$.$.$.$.$.$.#...Q b 2 ; ; ; ; ; ; ; ; > ; > ; > > > > > > > > > w > ^ $.$.$.q     ",
"  X [ $.$.$.^ w w w w > > > > > > ; > > > ; ; > ; ; ; ; r d A P ^ ) _ _ / Q T H k r ; ; ; ; ; ; ; ; ; ; ; ; > ; > > > > > > w > w > w w ^ $.$.$.q     ",
"  X [ $.$.$.^ w w w > w > > > > > > > > ; > ; ; ; ; ; ; ; ; ; ; ; , , , ; ; ; ; : ; ; ; ; > ; > ; ; > ; > > ; > > > > > > w w > w w w w ^ $.$.$.q     ",
"  X [ $.$.$.^ w w w w > > w w > > > > > > > > > > > > ; ; > ; ; ; ; > ; ; ; ; ; ; > ; ; ; ; ; ; ; > ; > ; > > > > > > > > > > w > w w w ^ $.$.$.q     ",
"  X [ $.$.$.^ w w w w w w > w > > > > > > ; > > ; > ; ; > ; ; ; ; ; ; ; > ; ; ; ; > ; ; > ; ; > > > > ; > > > > > > > > w w w w w w w w ^ $.$.$.q     ",
"  X [ $.$.$.^ w w > w w > w > > > > > > > > ; > > ; ; > ; > ; ; ; ; ; ; ; ; ; ; ; ; ; ; ; ; ; ; ; ; ; > ; > ; > > > > > > > > > w w > w ^ $.$.$.q     ",
"  X [ $.$.$._ f f f f f f f f f f f f s f s s s s s s s s s s s s s s s s s s s s s s s s s s s s s s s s f s f f f s f f f f f f f f f _ $.$.$.q     ",
"  X [ $.$.$.$.#.#.#.#.#.#.#.#.#.#.#.#.#.#.#.#.#.#.#.#.#.#.#.#.#.#.#.#.#.#.#.#.#.#.#.#.#.#.#.#.#.#.#.#.#.#.#.#.#.#.#.#.#.#.#.#.#.#.#.#.#.$.$.$.$.q     ",
"  X [ $.$.$.$.$.$.$.$.$.$.$.$.$.$.$.$.$.$.$.$.$.$.$.$.$.$.$.$.$.$.$.$.$.$.$.$.$.$.$.$.$.$.$.$.$.$.$.$.$.$.$.$.$.$.$.$.$.$.$.$.$.$.$.$.$.$.$.$.$.q     ",
"  X [ $.$.$.$.$.$.$.$.$.$.$.$.$.$.$.$.$.$.$.$.$.$.$.$.$.$.$.$.$.$.$.$.$.$.$.$.$.$.$.$.$.$.$.$.$.$.$.$.$.$.$.$.$.$.$.$.$.$.$.$.$.$.$.$.$.$.$.$.$.q     ",
"  X U [ [ [ [ [ [ [ [ [ [ [ [ [ [ [ [ [ [ [ [ [ [ [ [ [ [ [ [ [ [ [ [ [ [ [ [ [ [ [ [ [ [ [ [ [ [ [ [ [ [ [ [ [ [ [ [ [ [ [ [ [ [ [ [ [ [ [ [ [ 0     ",
"    X X X X X X X X X X X X X X X X X X X X X X X X X X X X X X X X X X X X X X X X X X X X X X X X X X X X X X X X X X X X X X X X X X X X X X .     ",
"                                                                                                                                                      "
};
