/* XPM */
static char *__[] = {
/* columns rows colors chars-per-pixel */
"75 75 146 2",
"   c #000000",
".  c #141414",
"X  c #015F00",
"o  c #036300",
"O  c #096500",
"+  c #066900",
"@  c #0D6B00",
"#  c #146D00",
"$  c #1C6F00",
"%  c #007600",
"&  c #007C00",
"*  c #0B7B00",
"=  c #177500",
"-  c #1C7300",
";  c #117E00",
":  c #1F7B00",
">  c #217700",
",  c #257A00",
"<  c #2A7C00",
"1  c #008400",
"2  c #0B8300",
"3  c #008B00",
"4  c #0B8B00",
"5  c #148300",
"6  c #1C8500",
"7  c #148A00",
"8  c #1C8B00",
"9  c #009200",
"0  c #0C9100",
"q  c #149300",
"w  c #1C9200",
"e  c #2D8000",
"r  c #248B00",
"t  c #2C8C00",
"y  c #368400",
"u  c #3A8500",
"i  c #338C00",
"p  c #3A8A00",
"a  c #249400",
"s  c #2C9400",
"d  c #249900",
"f  c #2C9A00",
"g  c #329400",
"h  c #3B9500",
"j  c #329B00",
"k  c #3B9A00",
"l  c #35A100",
"z  c #3DA400",
"x  c #36A536",
"c  c #36AB36",
"v  c #448D00",
"b  c #429400",
"n  c #4C9400",
"m  c #439A00",
"M  c #4B9D00",
"N  c #539700",
"B  c #539E00",
"V  c #5D9D00",
"C  c #609E00",
"Z  c #46A300",
"A  c #4AA300",
"S  c #46A800",
"D  c #4DAB00",
"F  c #54A400",
"G  c #5CA300",
"H  c #54AB00",
"J  c #5DAB00",
"K  c #57B100",
"L  c #5CB200",
"P  c #63A400",
"I  c #63AA00",
"U  c #69AC06",
"Y  c #6BA60A",
"T  c #6CAE0C",
"R  c #63B302",
"E  c #68B807",
"W  c #6CB30D",
"Q  c #72AC15",
"!  c #76AC1C",
"~  c #6FB311",
"^  c #6EBB12",
"/  c #72B515",
"(  c #71BC16",
")  c #76B41B",
"_  c #78B41F",
"`  c #76BA1D",
"'  c #77B320",
"]  c #7AB322",
"[  c #77BC20",
"{  c #7ABB22",
"}  c #7DB528",
"|  c #61C061",
" . c #81BB2D",
".. c #83B531",
"X. c #89BB3B",
"o. c #80C42E",
"O. c #84C334",
"+. c #93BF4B",
"@. c #8CC140",
"#. c #8CC940",
"$. c #92C14A",
"%. c #96CD52",
"&. c #98C953",
"*. c #9BC459",
"=. c #9ECB5D",
"-. c #9AD057",
";. c #A2CA65",
":. c #A7CD6C",
">. c #ABCD73",
",. c #AFCF7A",
"<. c #ABD373",
"1. c #AED278",
"2. c #AFD879",
"3. c #B0D57C",
"4. c #BDBDBD",
"5. c #B7D686",
"6. c #B4DB83",
"7. c #B8D589",
"8. c #BBD98E",
"9. c #BEDD93",
"0. c #A9DAA9",
"q. c #BBE4BB",
"w. c #C2DC9A",
"e. c #C6E2A0",
"r. c #C8E4A4",
"t. c #CCE4AA",
"y. c #D3E6B5",
"u. c #D0E9B2",
"i. c #D6E7BA",
"p. c #D8ECBE",
"a. c #DBDBDB",
"s. c #DCECC4",
"d. c #DFEFCA",
"f. c #E0EECB",
"g. c #E3EFD1",
"h. c #E5F1D4",
"j. c #E9F3DB",
"k. c #E2F3E2",
"l. c #EEF6E2",
"z. c #F0F7E6",
"x. c #F1F8E7",
"c. c #F1F7E8",
"v. c #F3F9EB",
"b. c #F6FBF6",
"n. c #F9FCF5",
"m. c #FFFFFF",
/* pixels */
"                                                                                                                                                      ",
"    . . . . . . . . . . . . . . . . . . . . . . . . . . . . . . . . . . . . . . . . . . . . . . . . . . . . . . . . . . . . . . . . . . . . . . .     ",
"  . 4.a.a.a.a.a.a.a.a.a.a.a.a.a.a.a.a.a.a.a.a.a.a.a.a.a.a.a.a.a.a.a.a.a.a.a.a.a.a.a.a.a.a.a.a.a.a.a.a.a.a.a.a.a.a.a.a.a.a.a.a.a.a.a.a.a.a.a.a.a.4..   ",
"  . a.m.m.m.m.m.m.m.m.m.m.m.m.m.m.m.m.m.m.m.m.m.m.m.m.m.m.m.m.m.m.m.m.m.m.m.m.m.m.m.m.m.m.m.m.m.m.m.m.m.m.m.m.m.m.m.m.m.m.m.m.m.m.m.m.m.m.m.m.m.a..   ",
"  . a.m.m.m.m.m.m.m.m.m.m.m.m.m.m.m.m.m.m.m.m.m.m.m.m.m.m.m.m.m.m.m.m.m.m.m.m.m.m.m.m.m.m.m.m.m.m.m.m.m.m.m.m.m.m.m.m.m.m.m.m.m.m.m.m.m.m.m.m.m.a..   ",
"  . a.m.m.m.m.m.m.m.m.m.m.m.m.m.m.m.m.m.m.m.m.m.m.m.m.m.m.m.m.m.m.m.m.m.m.m.m.m.m.m.m.m.m.m.m.m.m.m.m.m.m.m.m.m.m.m.m.m.m.m.m.m.m.m.m.m.m.m.m.m.a..   ",
"  . a.m.m.m.k.0.0.0.0.0.0.0.0.0.0.0.0.0.0.0.0.0.0.0.0.0.0.0.0.0.0.0.0.0.0.0.0.0.0.0.0.0.0.0.0.0.0.0.0.0.0.0.0.0.0.0.0.0.0.0.0.0.0.0.0.0.q.m.m.m.a..   ",
"  . a.m.m.m.0.9 9 9 9 9 9 9 9 9 9 9 9 9 9 3 9 3 3 3 3 3 3 3 3 3 3 1 3 3 3 3 3 3 3 3 3 3 3 3 3 9 3 3 3 9 3 9 3 9 9 9 9 9 9 9 9 9 9 9 9 9 c b.m.m.a..   ",
"  . a.m.m.m.0.9 9 9 9 9 9 9 9 9 9 9 9 9 3 9 9 3 9 3 3 3 3 3 3 3 3 3 3 3 3 3 3 3 3 3 3 3 3 3 3 3 3 9 3 3 9 3 3 9 3 9 9 9 9 9 9 9 9 9 9 9 c b.m.m.a..   ",
"  . a.m.m.m.0.9 9 9 9 9 9 9 9 9 3 9 3 9 3 3 3 9 3 3 3 3 3 3 3 3 3 1 3 3 3 3 1 3 3 3 3 1 3 3 3 3 3 3 3 9 3 9 3 9 3 9 3 9 9 9 9 9 9 9 9 9 c b.m.m.a..   ",
"  . a.m.m.m.0.9 9 9 9 9 9 9 9 9 3 9 9 3 9 3 3 3 3 3 3 3 3 1 3 3 3 1 1 3 3 3 4 4 4 3 4 4 0 4 0 9 4 3 3 3 3 3 3 3 9 9 9 9 9 9 9 9 9 9 9 9 c b.m.m.a..   ",
"  . a.m.m.m.0.9 9 9 9 9 9 9 9 9 9 9 3 3 3 3 3 3 3 3 3 1 3 3 1 3 1 3 1 3 4 q w d d d d d d d d w q 0 3 3 3 3 3 3 3 3 3 9 9 9 9 9 9 9 9 9 c b.m.m.a..   ",
"  . a.m.m.m.0.9 9 9 9 9 9 9 9 9 9 3 3 9 3 3 3 3 3 3 3 1 3 1 3 3 3 1 3 4 w l S D D D D D D H D D z d 0 3 3 3 3 3 3 9 3 9 3 9 9 9 9 9 9 9 c b.m.m.a..   ",
"  . a.m.m.m.0.9 9 9 9 9 9 9 9 9 3 3 3 3 3 3 3 1 3 1 1 3 1 1 1 1 1 1 4 a Z H L R R E E E E E R L K z q 4 3 3 3 3 3 3 3 3 9 3 3 9 9 9 9 9 c b.m.m.a..   ",
"  . a.m.m.m.0.9 9 9 9 9 3 9 9 9 3 3 3 3 3 3 3 3 3 3 3 1 1 1 1 1 1 4 w k H R { 2.r.u.u.u.u.t.6.O.L D d 4 1 3 3 3 3 3 3 9 9 3 9 9 9 9 9 9 c b.m.m.a..   ",
"  . a.m.m.m.0.9 9 9 3 9 9 9 9 9 3 3 3 3 3 1 1 3 1 1 1 1 1 1 1 1 1 7 f H L ` p.m.m.m.m.m.m.m.m.s.( K f 4 3 1 3 3 3 3 3 3 3 3 9 3 3 9 9 9 c b.m.m.a..   ",
"  . a.m.m.m.0.9 9 9 3 9 3 3 3 3 3 3 1 3 3 3 1 3 1 1 1 1 1 1 1 1 4 a A J R 6.m.m.m.m.m.m.m.m.m.h.[ D f 4 1 3 1 1 3 3 3 3 3 3 3 9 9 9 9 9 c b.m.m.a..   ",
"  . a.m.m.m.0.9 9 9 9 3 3 9 3 3 3 3 3 3 1 1 1 1 1 1 1 1 1 & & 1 5 k H R O.j.m.m.m.m.m.m.m.m.m.h.[ H f 4 3 1 3 3 1 3 3 3 3 3 3 3 3 9 3 9 c b.m.m.a..   ",
"  . a.m.m.m.0.9 9 3 3 9 3 9 3 3 3 3 3 3 3 1 1 1 1 & 1 1 & 1 & 2 a A J W e.m.m.m.m.m.m.m.m.m.m.h.[ H f 4 1 1 1 3 3 3 3 3 3 3 3 9 9 3 9 3 x b.m.m.a..   ",
"  . a.m.m.m.0.9 9 3 9 3 3 3 3 3 3 1 1 1 1 1 1 1 1 1 & & & & 1 6 k J I &.n.m.m.m.m.n.m.m.m.m.m.j.[ D s 4 1 1 1 1 1 3 1 3 3 3 3 3 3 9 3 9 c b.m.m.a..   ",
"  . a.m.m.m.0.3 9 3 3 3 3 3 3 3 3 1 1 1 1 1 1 1 & 1 & & & & 5 s F J / s.m.m.m.m.j.t.m.m.m.m.m.h.[ F s 2 1 1 1 1 1 1 3 1 3 3 3 3 9 3 9 3 c b.m.m.a..   ",
"  . a.m.m.m.0.9 3 9 9 3 3 3 3 1 3 3 1 1 1 1 1 & 1 & & & & 2 8 m J I <.m.m.m.m.m.3.1.m.m.m.m.m.h.[ F s 1 & 1 1 1 1 3 1 3 3 3 3 3 3 3 3 9 x b.m.m.a..   ",
"  . a.m.m.m.0.3 3 3 3 3 3 3 3 3 1 1 1 1 1 & & & & & & & & 5 h F I  .h.m.m.m.m.f.) <.m.m.m.m.m.j.[ F s 2 1 1 1 1 1 3 1 3 3 3 3 3 9 3 3 3 x b.m.m.a..   ",
"  . a.m.m.m.0.9 9 3 3 3 3 1 1 3 3 1 1 1 1 1 1 & & & & & * r M J U 9.m.m.m.m.n.=.I <.m.m.m.m.m.h.' D s 2 & & & 1 1 1 1 3 1 1 3 3 3 3 3 3 c b.m.m.a..   ",
"  . a.m.m.m.0.3 3 3 3 3 3 3 1 1 1 1 1 1 1 & & & & & & % 6 k G I @.v.m.m.m.m.t.Q I >.m.m.m.m.m.h.' F s 2 & & & 1 1 1 1 1 1 3 3 3 3 3 3 3 x b.m.m.a..   ",
"  . a.m.m.m.0.3 9 3 3 3 3 1 1 3 1 1 1 & 1 & & & & % & ; t F J Q y.m.m.m.m.c.X.I I <.m.m.m.m.m.h.' D t 2 & & 1 & & 1 1 1 3 1 3 1 3 3 3 3 x b.m.m.a..   ",
"  . a.m.m.m.0.3 3 3 3 3 3 3 3 1 1 1 1 & & & & & & % % r m G I ;.n.m.m.m.m.7.U I I >.m.m.m.m.m.h.' F t * & & & 1 1 1 1 1 3 1 3 1 3 3 3 3 x b.m.m.a..   ",
"  . a.m.m.m.0.3 3 3 3 3 1 3 1 1 1 1 1 & & & % & % % ; i B I ] g.m.m.m.m.g. .P U I >.m.m.m.m.m.h.' F s * & & & & & 1 1 1 1 1 3 3 3 3 3 3 x b.m.m.a..   ",
"  . a.m.m.m.0.3 3 3 3 3 1 3 1 1 1 & & & & & & % % * r m G U 5.m.m.m.m.n.:.P P P P >.m.m.m.m.m.h.' F t * & % & & & 1 & 1 1 1 3 3 3 3 3 3 x b.m.m.a..   ",
"  . a.m.m.m.0.3 3 3 1 3 3 1 1 1 1 1 1 & & & % & % 5 h G I X.l.m.m.m.m.i.Q P P P P >.m.m.m.m.m.h.' D t * % & & & & & 1 1 1 1 3 1 1 3 3 3 x b.m.m.a..   ",
"  . a.m.m.m.0.3 3 3 3 3 1 1 1 1 & 1 & & & % % % * t M G T t.m.m.m.m.v.+.P V V V P >.m.m.m.m.m.h.] B t * % & & & & 1 1 1 1 3 1 3 3 3 3 3 x b.m.m.a..   ",
"  . a.m.m.m.0.3 3 3 3 1 3 1 1 1 1 & & & & & & % r b G P *.n.m.m.m.m.w.Y V n v n G >.m.m.m.m.m.h._ A t * % % & & & & & 1 1 1 1 1 3 1 3 3 x b.m.m.a..   ",
"  . a.m.m.m.0.3 3 3 1 3 1 1 1 1 1 & & & & % % ; i B P ) s.m.m.m.m.j...C N y < n V >.m.m.m.m.m.g.] B t * % % & & & & 1 1 1 1 1 3 3 3 3 3 x b.m.m.a..   ",
"  . a.m.m.m.0.3 3 3 3 1 1 1 1 1 & & & & & % * 6 m G I ,.m.m.m.m.m.,.C V v > , v C >.m.m.m.m.m.h.! B t * % % % & & & & 1 & 1 1 1 1 3 3 1 x b.m.m.a..   ",
"  . a.m.m.m.0.1 3 1 3 3 1 1 1 & 1 & & & % & 5 h F P ..j.m.m.m.m.s.! C n < # - v V >.m.m.m.m.m.h.] M t * % % % & & & 1 & 1 1 1 3 1 3 3 3 x b.m.m.a..   ",
"  . a.m.m.m.0.3 3 3 1 3 3 1 1 1 1 & & & & * r M J U w.m.m.m.m.n.*.C V u # O > v V >.m.m.m.m.m.g.' B t @ % % % & & & & 1 1 1 1 1 3 1 3 3 x b.m.m.a..   ",
"  . a.m.m.m.0.3 3 3 1 1 3 1 1 1 & 1 & & & 6 b F P $.n.m.m.m.m.t.Y C n , O X $ n V >.m.m.m.m.m.g.' B t % % % % & & & & 1 1 1 1 1 1 3 3 1 x b.m.m.a..   ",
"  . a.m.m.m.0.1 3 3 3 3 1 1 1 & & & & & * g F I / i.m.m.m.m.z.X.C V < $ X X $ v C >.m.m.m.m.m.j.' B e * % % % & & & & & 1 1 1 1 3 1 3 3 x b.m.m.a..   ",
"  . a.m.m.m.0.3 3 3 1 3 1 1 1 1 & & & * 8 m J I :.n.m.m.m.m.7.P C v $ O X X $ v V >.m.m.m.m.m.g.' B t * + % & % & & & 1 1 1 1 3 3 3 3 1 x b.m.m.a..   ",
"  . a.m.m.m.0.3 3 3 3 1 1 1 1 & 1 & 1 5 h F I } h.m.m.m.m.g.} V N < $ X X X $ v V >.m.m.m.m.m.h.' B t * % % % & & & & 1 1 1 1 1 1 3 3 1 x b.m.m.a..   ",
"  . a.m.m.m.0.3 3 3 1 3 1 1 1 1 & 1 2 r A J U 8.m.m.m.m.n.;.P V v - O o o o - v V >.m.m.m.m.m.h.' B t * % % % & & & & 1 1 1 1 1 3 3 3 3 x b.m.m.a..   ",
"  . a.m.m.m.0.3 3 3 3 1 3 1 1 & 1 & 5 h J I @.x.m.m.m.m.y.Q G n , O o o o O - v V >.m.m.m.m.m.h.' N t * % & & % & & & 1 1 1 3 1 1 3 3 1 x b.m.m.a..   ",
"  . a.m.m.m.0.3 3 1 3 1 1 3 1 1 & 2 s A I ~ t.m.m.m.m.v.+.P B p = + + o + + > b V >.m.m.m.m.m.g.' B t * % * & & & & & & 1 1 1 1 1 3 3 3 x b.m.m.a..   ",
"  . a.m.m.m.0.3 3 3 3 3 1 1 1 1 1 7 k H I =.n.m.m.m.m.w.U P B y : = = = = - < n C >.m.m.m.m.m.j.' F p r 5 5 5 2 1 1 1 1 1 1 1 3 3 1 3 3 x b.m.m.a..   ",
"  . a.m.m.m.0.3 3 3 3 3 1 1 1 1 1 w A I ` d.m.m.m.m.j. .I P F n b h v p b v n V P >.m.m.m.m.m.g.' P F m k m k g 8 2 1 1 1 1 3 1 3 1 3 3 x b.m.m.a..   ",
"  . a.m.m.m.0.3 3 3 3 1 3 3 1 1 2 s H R <.m.m.m.m.m.>.I I P P G V G V V V G V C P >.m.m.m.m.m.g._ P G J J J J F k 6 1 & 1 1 1 3 3 3 3 3 x b.m.m.a..   ",
"  . a.m.m.m.0.3 3 3 3 3 3 1 1 1 7 j H W p.m.m.m.m.x.3.;.;.;.;.;.;.;.;.;.;.;.;.;.;.t.m.m.m.m.m.z.1.;.;.;.;.=.` L A a 4 1 1 1 3 3 1 3 3 3 x b.m.m.a..   ",
"  . a.m.m.m.0.3 3 3 1 3 3 1 1 1 4 j H { j.m.m.m.m.m.m.m.m.m.m.m.m.m.m.m.m.m.m.m.m.m.m.m.m.m.m.m.m.m.m.m.m.m.9.U H j 4 1 1 1 3 1 3 3 3 3 x b.m.m.a..   ",
"  . a.m.m.m.0.3 3 3 3 3 3 3 1 1 4 j H o.z.m.m.m.m.m.m.m.m.m.m.m.m.m.m.m.m.m.m.m.m.m.m.m.m.m.m.m.m.m.m.m.m.m.d.^ H k 4 1 1 3 3 1 3 3 3 3 x b.m.m.a..   ",
"  . a.m.m.m.0.3 3 3 3 3 3 1 3 1 4 l J o.z.m.m.m.m.m.m.m.m.m.m.m.m.m.m.m.m.m.m.m.m.m.m.m.m.m.m.m.m.m.m.m.m.m.h.~ H j 7 1 3 1 3 3 3 3 3 3 x b.m.m.a..   ",
"  . a.m.m.m.0.9 9 3 3 3 3 1 1 3 7 j H ` j.m.m.m.m.m.m.m.m.m.m.m.m.m.m.m.m.m.m.m.m.m.m.m.m.m.m.m.m.m.m.m.m.m.y.E H j 4 1 1 1 1 3 3 3 3 3 c b.m.m.a..   ",
"  . a.m.m.m.0.3 3 3 3 3 3 3 3 1 4 j H E 1.g.g.h.g.h.g.g.h.h.g.g.h.h.f.h.g.h.g.h.h.z.m.m.m.m.m.n.h.g.g.h.h.f.%.R D a 4 3 3 3 3 3 3 3 9 3 x b.m.m.a..   ",
"  . a.m.m.m.0.3 9 3 3 3 3 3 1 3 4 d S L R ^ W W E W W W W W ~ W T W W T T T T W T 1.m.m.m.m.m.j. .W W W W W R H Z w 1 3 3 3 3 3 3 9 3 3 x b.m.m.a..   ",
"  . a.m.m.m.0.9 3 9 3 3 3 3 3 1 3 7 j S H H H H H H G H H F G F F F G F F G G J I <.m.m.m.m.m.h.` R J H H H F z a 4 3 1 1 3 3 3 3 3 3 9 x b.m.m.a..   ",
"  . a.m.m.m.0.3 9 3 3 3 3 1 3 3 3 4 q a j j j g g g g g g g g g g g s g s g m F I <.m.m.m.m.m.h.[ J A k j j s q 4 3 1 3 3 3 3 3 9 3 3 9 c b.m.m.a..   ",
"  . a.m.m.m.0.9 3 9 9 3 3 3 3 3 3 1 3 4 4 4 4 4 2 4 2 4 2 2 2 2 * 2 2 * 2 5 r A J <.m.m.m.m.m.h.[ H j 7 4 4 4 4 3 1 3 1 3 3 3 3 3 3 9 3 x b.m.m.a..   ",
"  . a.m.m.m.0.9 9 9 3 3 3 3 3 3 3 3 1 3 1 1 1 1 1 & 1 & 1 & & & & & & & & * 8 Z J <.m.m.m.m.m.h.[ H s 4 1 1 1 1 1 3 1 3 3 3 3 3 3 9 3 3 c b.m.m.a..   ",
"  . a.m.m.m.0.9 9 3 9 3 9 3 3 3 3 1 3 1 1 3 1 1 1 1 1 & & & 1 & & & 1 & & & 8 Z L <.m.m.m.m.m.j.[ H f 4 1 1 3 1 1 3 3 3 3 3 9 3 9 3 9 9 c b.m.m.a..   ",
"  . a.m.m.m.0.9 9 3 9 9 9 3 3 3 3 3 3 3 3 3 1 1 1 1 1 1 1 1 & 1 1 & & & & 1 8 Z I <.m.m.m.m.m.h.[ D f 4 3 1 3 3 3 3 3 3 3 3 3 9 3 9 3 9 c b.m.m.a..   ",
"  . a.m.m.m.0.9 9 9 9 3 3 3 9 3 3 3 3 3 3 1 1 3 1 1 1 1 1 1 1 1 1 1 1 & 1 1 8 Z L <.m.m.m.m.m.h.[ H f 4 1 3 1 3 3 3 3 3 3 9 3 3 9 9 9 9 c b.m.m.a..   ",
"  . a.m.m.m.0.9 9 9 9 3 9 9 3 3 3 3 3 3 1 3 1 3 3 3 1 1 1 1 1 1 1 1 1 1 1 1 8 A L <.m.m.m.m.m.h.[ D f 0 3 3 1 3 3 3 3 3 9 3 9 3 9 9 9 9 c b.m.m.a..   ",
"  . a.m.m.m.0.9 9 9 9 9 9 3 3 9 9 3 3 3 3 3 3 1 3 1 3 1 1 1 3 1 1 1 1 1 1 2 w S L <.m.m.m.m.m.h.[ K d 0 3 3 3 3 3 3 3 9 3 9 9 9 9 9 9 9 c b.m.m.a..   ",
"  . a.m.m.m.0.9 9 9 9 9 9 3 9 3 3 3 3 3 3 3 3 3 3 1 3 1 3 1 1 1 1 1 1 1 1 1 w Z L %.x.m.m.n.n.u.^ D f 0 3 3 3 3 3 9 3 3 3 9 9 9 9 9 9 9 c b.m.m.a..   ",
"  . a.m.m.m.0.9 9 9 9 9 9 9 9 9 9 3 9 3 3 3 3 3 3 3 3 3 3 1 3 3 3 1 3 1 4 1 q l K E o.%.-.-.#.( L D w 4 3 3 3 3 3 3 9 3 9 9 3 9 9 9 9 9 c b.m.m.a..   ",
"  . a.m.m.m.0.9 9 9 9 9 9 9 9 9 9 9 9 9 3 3 3 3 3 3 3 3 3 1 3 3 3 1 3 3 1 3 4 f S K K L L L L K D l q 3 3 3 3 3 3 9 3 3 9 9 9 9 9 9 9 9 c b.m.m.a..   ",
"  . a.m.m.m.0.9 9 9 9 9 9 9 9 9 9 9 9 9 3 9 9 3 3 3 3 3 3 3 1 3 3 1 3 1 1 3 3 q d l z z z z z z l q 0 3 3 9 3 9 9 3 9 9 9 9 9 9 9 9 9 9 c b.m.m.a..   ",
"  . a.m.m.m.0.9 9 9 9 9 9 9 9 9 9 9 9 9 9 3 3 3 3 9 3 3 3 3 3 3 3 3 3 3 3 3 3 3 0 q q q q q q q 0 0 3 3 3 9 9 3 9 9 9 9 9 9 9 9 9 9 9 9 c b.m.m.a..   ",
"  . a.m.m.m.0.9 9 9 9 9 9 9 9 9 3 9 9 9 3 9 3 3 3 3 3 3 3 3 3 3 3 3 1 1 3 3 1 3 3 3 3 3 3 3 3 3 9 3 3 9 3 3 3 9 3 9 3 3 9 9 9 9 9 9 9 9 c b.m.m.a..   ",
"  . a.m.m.m.q.c c c c c c c c c c c c x c x x c x x x x x x x x x x x x x x x x x x x x x x x x x x x x c c x c c c c c c c c c c c c c | n.m.m.a..   ",
"  . a.m.m.m.m.b.b.b.b.b.b.b.b.b.b.b.b.b.b.b.b.b.b.b.b.b.b.b.b.b.b.b.b.b.b.b.b.b.b.b.b.b.b.b.b.b.b.b.b.b.b.b.b.b.b.b.b.b.b.b.b.b.b.b.b.b.n.m.m.m.a..   ",
"  . a.m.m.m.m.m.m.m.m.m.m.m.m.m.m.m.m.m.m.m.m.m.m.m.m.m.m.m.m.m.m.m.m.m.m.m.m.m.m.m.m.m.m.m.m.m.m.m.m.m.m.m.m.m.m.m.m.m.m.m.m.m.m.m.m.m.m.m.m.m.a..   ",
"  . a.m.m.m.m.m.m.m.m.m.m.m.m.m.m.m.m.m.m.m.m.m.m.m.m.m.m.m.m.m.m.m.m.m.m.m.m.m.m.m.m.m.m.m.m.m.m.m.m.m.m.m.m.m.m.m.m.m.m.m.m.m.m.m.m.m.m.m.m.m.a..   ",
"  . 4.a.a.a.a.a.a.a.a.a.a.a.a.a.a.a.a.a.a.a.a.a.a.a.a.a.a.a.a.a.a.a.a.a.a.a.a.a.a.a.a.a.a.a.a.a.a.a.a.a.a.a.a.a.a.a.a.a.a.a.a.a.a.a.a.a.a.a.a.a.4..   ",
"    . . . . . . . . . . . . . . . . . . . . . . . . . . . . . . . . . . . . . . . . . . . . . . . . . . . . . . . . . . . . . . . . . . . . . . .     ",
"                                                                                                                                                      "
};
