/* XPM */
static char *__[] = {
/* columns rows colors chars-per-pixel */
"75 75 155 2",
"   c #000000",
".  c #141414",
"X  c #B76600",
"o  c #BA6600",
"O  c #B76A00",
"+  c #BD6A00",
"@  c #BC7500",
"#  c #BE7C00",
"$  c #C36D00",
"%  c #C86F00",
"&  c #C47400",
"*  c #CC7300",
"=  c #C47C00",
"-  c #CC7B00",
";  c #D37600",
":  c #D57B00",
">  c #DC7B00",
",  c #E37E00",
"<  c #C48400",
"1  c #CC8400",
"2  c #C58B00",
"3  c #CB8B00",
"4  c #D48400",
"5  c #DB8300",
"6  c #D48C00",
"7  c #DB8B00",
"8  c #C79200",
"9  c #CC9400",
"0  c #CD9C00",
"q  c #D49400",
"w  c #DB9500",
"e  c #D39C00",
"r  c #DB9C00",
"t  c #E68100",
"y  c #EB8500",
"u  c #E38B00",
"i  c #ED8900",
"p  c #F28C00",
"a  c #E39300",
"s  c #EC9200",
"d  c #E39C00",
"f  c #ED9C00",
"g  c #F79000",
"h  c #F09D00",
"j  c #CFA005",
"k  c #CEA10C",
"l  c #D5A100",
"z  c #DCA400",
"x  c #DEA802",
"c  c #D3A40B",
"v  c #CDA212",
"b  c #CFA71E",
"n  c #D6A711",
"m  c #D6A914",
"M  c #DCAB13",
"N  c #DBAD19",
"B  c #E2A400",
"V  c #EDA400",
"C  c #E4AA01",
"Z  c #EDAB00",
"A  c #E5AF09",
"S  c #F0A400",
"D  c #F0AC00",
"F  c #EEB001",
"G  c #E7B00C",
"H  c #EDB40F",
"J  c #F0B100",
"K  c #F2B60B",
"L  c #E1AF12",
"P  c #E4B011",
"I  c #EEB613",
"U  c #E3B31C",
"Y  c #EAB61C",
"T  c #F1B813",
"R  c #F3BC1E",
"E  c #EF9F36",
"W  c #F09F36",
"Q  c #DDB021",
"!  c #D5B239",
"~  c #DCB638",
"^  c #DFB93E",
"/  c #E6B521",
"(  c #E8B721",
")  c #ECBA27",
"_  c #E8B92A",
"`  c #F3BE24",
"'  c #F3A336",
"]  c #F8A736",
"[  c #F1AB33",
"{  c #F8A836",
"}  c #E3B834",
"|  c #E8BB31",
" . c #E7BE3D",
".. c #F2C132",
"X. c #DBB741",
"o. c #E3BC42",
"O. c #FABB61",
"+. c #DFC15C",
"@. c #E6C14E",
"#. c #EDC64D",
"$. c #F3C643",
"%. c #F1C649",
"&. c #F5C948",
"*. c #EFC958",
"=. c #F1CA57",
"-. c #F3CC5B",
";. c #E3C666",
":. c #EBCA64",
">. c #E1C76E",
",. c #E4C86A",
"<. c #EECE6D",
"1. c #F5D167",
"2. c #F5D26B",
"3. c #EBCE74",
"4. c #E6CE7D",
"5. c #EBD07B",
"6. c #F7D676",
"7. c #F7D87F",
"8. c #BDBDBD",
"9. c #ECD384",
"0. c #F1D581",
"q. c #F8DA85",
"w. c #F4DA8C",
"e. c #F8DC8A",
"r. c #ECD897",
"t. c #ECDB9E",
"y. c #F4DC94",
"u. c #F8DF94",
"i. c #F4DE9A",
"p. c #F8E19B",
"a. c #EFDEA5",
"s. c #EEDEA9",
"d. c #F1DFA5",
"f. c #F9D6A9",
"g. c #FBD9A9",
"h. c #F6E2A3",
"j. c #F1E1AE",
"k. c #FAE7AD",
"l. c #F1E3B5",
"z. c #F9E7B4",
"x. c #F3E5B8",
"c. c #FDE2BB",
"v. c #FAEABA",
"b. c #DBDBDB",
"n. c #F2E7C1",
"m. c #FAEDC4",
"M. c #F7EDCC",
"N. c #F9EECD",
"B. c #FBF1D5",
"V. c #FBF3DC",
"C. c #FDF6E3",
"Z. c #FCF7E8",
"A. c #FDF9EB",
"S. c #FEFBF6",
"D. c #FFFFFF",
/* pixels */
"                                                                                                                                                      ",
"    . . . . . . . . . . . . . . . . . . . . . . . . . . . . . . . . . . . . . . . . . . . . . . . . . . . . . . . . . . . . . . . . . . . . . . .     ",
"  . 8.b.b.b.b.b.b.b.b.b.b.b.b.b.b.b.b.b.b.b.b.b.b.b.b.b.b.b.b.b.b.b.b.b.b.b.b.b.b.b.b.b.b.b.b.b.b.b.b.b.b.b.b.b.b.b.b.b.b.b.b.b.b.b.b.b.b.b.b.b.8..   ",
"  . b.D.D.D.D.D.D.D.D.D.D.D.D.D.D.D.D.D.D.D.D.D.D.D.D.D.D.D.D.D.D.D.D.D.D.D.D.D.D.D.D.D.D.D.D.D.D.D.D.D.D.D.D.D.D.D.D.D.D.D.D.D.D.D.D.D.D.D.D.D.b..   ",
"  . b.D.D.D.D.D.D.D.D.D.D.D.D.D.D.D.D.D.D.D.D.D.D.D.D.D.D.D.D.D.D.D.D.D.D.D.D.D.D.D.D.D.D.D.D.D.D.D.D.D.D.D.D.D.D.D.D.D.D.D.D.D.D.D.D.D.D.D.D.D.b..   ",
"  . b.D.D.D.D.D.D.D.D.D.D.D.D.D.D.D.D.D.D.D.D.D.D.D.D.D.D.D.D.D.D.D.D.D.D.D.D.D.D.D.D.D.D.D.D.D.D.D.D.D.D.D.D.D.D.D.D.D.D.D.D.D.D.D.D.D.D.D.D.D.b..   ",
"  . b.D.D.D.C.g.g.g.g.g.g.g.g.g.g.g.g.f.g.f.g.g.g.g.g.g.f.g.f.f.f.f.f.f.f.f.g.f.f.f.f.f.f.f.g.f.g.g.f.g.f.g.f.g.g.g.g.g.g.g.g.g.g.g.g.g.c.D.D.D.b..   ",
"  . b.D.D.D.g.g g g g p p p p p p i i i i i i i i y y y y y y y y y y y t y y y y y y y y y y i y i y i i y i i p i p p p p p p p g g p { S.D.D.b..   ",
"  . b.D.D.D.f.g p g g p p p p p i p i p y p i i i i i i i y y i y y y i y y i y i y i u i i y y i y i i i i i i i i p p p p p p p g g g { S.D.D.b..   ",
"  . b.D.D.D.g.g g p p g i p p i i i y i y y i i i s s s s s s s s s s a s i s a s s s s s s s s s i i i i y i i i i y p i p p p p p p g ] S.D.D.b..   ",
"  . b.D.D.D.g.g g p p p p p i p i i i i i i s s f f f f V f f f f f f V f f f f f f f f f f f f f f s s i y i i y i i i p i p p p g p p ] S.D.D.b..   ",
"  . b.D.D.D.g.p p p p p i p i i i i y i p p f h V S S D D Z D Z D S Z Z Z Z Z Z D Z D Z Z D D D Z V f f s i y i i y y p y p i p p p p p ' S.D.D.b..   ",
"  . b.D.D.D.f.p p p p p p i i i i y i i i f S D D J J J J Z J J J Z Z F J F F F Z J J J D J J Z J D D V s s i y y p y y p p p p p p p p ' S.D.D.b..   ",
"  . b.D.D.D.f.p p p p p i i i i i y y y s f S J J J J J J J J F F F F F F F F Z F F F Z F F J J J J D D V s y y y y y p y y p y i p p p ' S.D.D.b..   ",
"  . b.D.D.D.g.p p i p y p i y y i y y i f V Z J J &.q.p.p.p.p.p.p.p.p.p.p.p.p.p.p.p.p.p.p.p.p.p.6.T D Z V s p y y y y y y p y p p i p p { S.D.D.b..   ",
"  . b.D.D.D.g.p p i i p y y i y y u i i f S D J &.A.D.D.D.D.D.D.D.D.D.D.D.D.D.D.D.D.D.D.D.D.D.D.D.1.J D V f i i , y y y y y i y i i p p ' S.D.D.b..   ",
"  . b.D.D.D.g.p p , g p , p , p , , y i f V J J 7.D.D.D.D.D.D.D.D.D.D.D.D.D.D.D.D.D.D.D.D.D.D.D.D.u.F F Z f i u y y y y y y i i , p p p W S.D.D.b..   ",
"  . b.D.D.D.g.i p p , g p , p p , p i s V Z F F y.D.D.D.D.D.D.D.D.D.D.D.D.D.D.D.D.D.D.D.D.D.D.D.D.p.F Z V f s t , y y y y y y y p y p p E S.D.D.b..   ",
"  . b.D.D.D.g.i , g p p , p , , p p p p f Z Z F u.D.D.D.D.D.D.D.D.D.D.D.D.D.D.D.D.D.D.D.D.D.D.D.D.w.F Z V d a t y , y y y y y i p p p y W S.D.D.b..   ",
"  . b.D.D.D.f.i p g , , p , p , , , , g V Z F F u.D.D.D.D.D.D.Z.Z.Z.Z.Z.A.Z.Z.Z.Z.Z.Z.Z.Z.Z.Z.A.B.$.C Z V a u t , y , y , y y y , p y p W S.D.D.b..   ",
"  . b.D.D.D.g.i g p , p p , , p t t y a d Z Z Z y.D.D.D.D.D.B.| Y / / / / / / / / / / ( / / ( ( Y C Z B f a t t , , , y y y y y y i y y W S.D.D.b..   ",
"  . b.D.D.D.g.i , p p , , p , , t t t a f C Z A u.D.D.D.D.D.N.P C x C x z z C z C z B C C C C C C C C d a u 5 t , , y , y , y y y i i p W S.D.D.b..   ",
"  . b.D.D.D.f.i p , , p p , , , t t t a d C C F y.D.D.D.D.D.N.P x x z z z z z z z z z z z B z B B B d a 7 5 > t , , , y , y y y y y i y ' S.D.D.b..   ",
"  . b.D.D.D.g.y g , p , p , p , t t t a f Z C C u.D.D.D.D.D.N.P x z z r e w q q w q w w w w r w w w 7 7 5 > > > , , , y , y , y y y y i W S.D.D.b..   ",
"  . b.D.D.D.f.i y y y y , , p , t t 5 u d V C C u.D.D.D.D.D.N.L z z e 6 1 1 1 1 1 1 6 1 6 4 6 4 4 > > > > > > > , , , , , , , p y y i p W S.D.D.b..   ",
"  . b.D.D.D.f.y y y y y p , , , , > 5 u d B C A y.D.D.D.D.D.N.M z e q 3 - = & * * & & * & - * - ; * ; ; ; ; ; > , , , , , , , , , y y y E S.D.D.b..   ",
"  . b.D.D.D.f.i y y y , y , , , , > 5 u d B C C y.D.D.D.D.D.M.M z l q - & & $ + & + $ $ % % & % % * % ; ; ; ; > , , , , , p , p y y y y E S.D.D.b..   ",
"  . b.D.D.D.f.y y y y y y , , , , , 5 7 r B C C y.D.D.D.D.D.N.M l e 3 1 & + $ @ + $ + $ $ $ $ % % % ; % ; ; ; ; > > > , , , , , y y y , W S.D.D.b..   ",
"  . b.D.D.D.f.y y y , y , , , , > > 5 7 w B C C y.D.D.D.D.D.M.M z e 9 1 = = & @ @ & $ + + $ $ % % % * * ; ; ; > ; > , , , , , , y y y y ' S.D.D.b..   ",
"  . b.D.D.D.g.y y y y y , y , , , > > 7 w B x C y.D.D.D.D.D.M.M l l 9 9 2 2 1 < < < = = = & & & % % % % % ; ; ; ; > > , , , , p , y y y E S.D.D.b..   ",
"  . b.D.D.D.g.y y y y , , , , , > > 5 7 r B B x r.D.D.D.D.D.M.M l l 0 0 0 9 9 9 3 3 3 3 1 1 = - * & * % ; % ; ; > > , , , , , , , y y y E S.D.D.b..   ",
"  . b.D.D.D.f.y y , , y y , , , > > > 7 a z C x y.D.D.D.D.D.M.m l j l e 0 0 0 0 e 0 0 9 9 9 3 3 1 - * * % % ; ; ; ; , , , , , , y , y y E S.D.D.b..   ",
"  . b.D.D.D.g.y p , , , , , , > > > : 7 w z C x r.D.D.D.D.D.M.n 0 l 0 j 0 0 0 0 0 0 0 0 e e e q 3 1 1 - * ; * ; ; ; ; , , , , , , p , , W S.D.D.b..   ",
"  . b.D.D.D.g.y , , p , , , , > > : > 5 w z x x r.D.D.D.D.D.V.;.,.4.4.4.4.4.;.+.X.b c l j l l l e q 6 1 - * ; ; ; ; > > > , , , , p , p E S.D.D.b..   ",
"  . b.D.D.D.f.y p , , , , , > > > : 4 7 w B z x y.D.D.D.D.D.D.S.D.D.D.D.D.D.D.S.S.V.l.9.~ c l l z e w 6 1 - * ; ; ; > > , , , , , , , p E S.D.D.b..   ",
"  . b.D.D.D.f.y p , , , , , , > > : : 5 w r x x r.D.D.D.D.D.D.D.D.D.D.D.D.D.D.D.D.D.D.D.Z.a.X.z l l l q q 4 : ; ; ; > > , , , , , p , , E S.D.D.b..   ",
"  . b.D.D.D.f., , , , , , , , > ; > > 4 w r z x w.D.D.D.D.D.D.D.D.D.D.D.D.D.D.D.D.D.D.D.D.D.Z.5.M z l z w 6 4 * ; ; ; > , , , , , p , , E S.D.D.b..   ",
"  . b.D.D.D.f., p , , p , , , > > ; > 4 7 r z z 3.D.D.D.D.D.D.D.D.D.D.D.D.D.D.D.D.D.D.D.D.D.D.D.d.N z z l w 7 : ; ; > > , , , , , , , p E S.D.D.b..   ",
"  . b.D.D.D.g., p , , , , , , , ; > ; : 6 r z z } M.A.Z.B.M.x.a.t.t.s.x.n.V.A.D.D.D.D.D.D.D.D.D.D.r.M z z r q 4 ; ; ; , , , , , , p , , E S.D.D.b..   ",
"  . b.D.D.D.g.p , , p , , , , , > : : : 4 w z z z M Q Q N M c c j j 0 k v b ! >.l.A.D.D.D.D.D.D.D.S.3.x z z w 7 > > ; > , , , , , y y , E S.D.D.b..   ",
"  . b.D.D.D.g.y p , , , , , , , > ; > : 4 7 r z z l l z l e e 0 0 0 0 8 j 0 8 j k X.l.D.D.D.D.D.D.D.B./ z z r 7 5 : > > > , , t , y y p W S.D.D.b..   ",
"  . b.D.D.D.f.y , p , p , , , , > ; ; ; : 4 6 w r e e e e e 0 9 8 8 8 8 8 8 j 8 j j v r.D.D.D.D.D.D.D.9.C B z w 7 > > > > , , t y , y , E S.D.D.b..   ",
"  . b.D.D.D.f.y , , , , , , , , > > ; ; ; - 4 6 6 q q 9 3 1 3 < < # < < < 2 8 9 0 j j v j.D.D.D.D.D.D.N.P x B w 7 : > > > , , t , y y y E S.D.D.b..   ",
"  . b.D.D.D.f.y p , p , , , , , , ; ; ; ; ; - - - - 1 - < = = @ @ @ @ @ @ # < 2 8 j j j ^ Z.D.D.D.D.D.A. .z B r 7 5 > > , , , y y , y , E S.D.D.b..   ",
"  . b.D.D.D.f.y , p , , , , , > , ; > ; ; ; * - * * * & & $ + o O O O O O O # = 2 9 e l c l.D.D.D.D.D.D.<.C B d w 5 > > , , , y , y y y W S.D.D.b..   ",
"  . b.D.D.D.f.y p , , p , , , , > , ; ; ; * ; * * % & % $ + $ $ O O o o X O O @ < 8 e l l 3.D.D.D.D.D.D.0.C B z w t 5 > , , , , y , y y W S.D.D.b..   ",
"  . b.D.D.D.f.y p , p , , , , , , > > ; ; ; * % % % % $ $ + o o o o o o o o O + & 3 q l z @.D.D.D.D.D.D.y.C C d a 5 , , , , y , y y y y W S.D.D.b..   ",
"  . b.D.D.D.g.y , p , , p , , , , > > ; ; ; ; ; * % % $ $ $ $ o + o o o o o o + & 2 9 l l o.S.D.D.D.D.D.i.A B B w t t , , , , y , y y y ' S.D.D.b..   ",
"  . b.D.D.D.g.y y y y , y , , , > > > > : ; ; ; * * % % % % $ $ $ $ o o + o o $ = 1 q z l  .S.D.D.D.D.D.y.C C B a t > , t , y t p , p , W S.D.D.b..   ",
"  . b.D.D.D.f.y i y y y , y y , , > , > ; : ; : ; * * % % % $ $ $ $ $ $ $ + $ & - 1 e z z @.D.D.D.D.D.D.0.C Z B a 7 5 t t t , y , p , p W S.D.D.b..   ",
"  . b.D.D.D.f.y y y y , , y , , > t > 5 , > 5 : : : ; * * * % % $ $ $ + $ $ & & 1 q e z z :.D.D.D.D.D.D.2.C C B a u t t , , y y , , p , W S.D.D.b..   ",
"  . b.D.D.D.f.y y i y y p , y y t t t t u 7 7 7 7 5 4 : * * * * % $ % % % % & - 6 e z x x i.D.D.D.D.D.S.#.C V V a t t t y y , y p , p p W S.D.D.b..   ",
"  . b.D.D.D.f.i , p p , , , p , t t u u a d d d r w 7 7 4 4 - - * * * * - - 1 7 q z z C U B.D.D.D.D.D.B.Y C C d a t y , , , y y y y i , W S.D.D.b..   ",
"  . b.D.D.D.g.i p p , p p , , , t u s d V C V C V B B r w 7 7 5 : 4 1 4 4 4 6 r r z x C <.D.D.D.D.D.D.p.G Z V f i i , y y y y y y y y p ' S.D.D.b..   ",
"  . b.D.D.D.g.i p , p , , p p , t i a V Z Z Z C C C C C B d r r w w 7 w w r r z B C C | B.D.D.D.D.D.S.*.F C V d u t y , , y y y y i i y ' S.D.D.b..   ",
"  . b.D.D.D.g.i p p , p p , , p t s f V Z F $.-.Y Z Z C C B B B d B r z B z C C C C _ n.D.D.D.D.D.D.z.I Z Z V a u y , y y y y y y i y i ' S.D.D.b..   ",
"  . b.D.D.D.g.p p , p , p , p , y s V Z Z T m.D.m.1.( Z C Z C C C C C C C C C C A #.N.D.D.D.D.D.D.A.%.F Z Z f a y y t y y y y y p y p p W S.D.D.b..   ",
"  . b.D.D.D.g.p p g p , , p , p y s V Z F ` C.D.D.D.B.u.=.) H G Z C C C Z G ( *.h.A.D.D.D.D.D.D.D.w.F F Z V d i y t y t y y i y y i y p W S.D.D.b..   ",
"  . b.D.D.D.g.y p g p p , p p , i f V D J ` C.D.D.D.D.D.S.Z.m.h.w.w.w.w.u.v.V.S.D.D.D.D.D.D.D.D.u.H Z Z V f a y u y y y y y y i y p i i W S.D.D.b..   ",
"  . b.D.D.D.g.p p , , g g , p p i s f D J R V.D.D.D.D.D.D.D.D.D.D.D.D.D.D.D.D.D.D.D.D.D.D.D.S.p.I F D Z V f s y y y y y i y y i i i p i ' S.D.D.b..   ",
"  . b.D.D.D.f.p p p g , p , p p i s V D J K p.D.D.D.D.D.D.D.D.D.D.D.D.D.D.D.D.D.D.D.D.D.D.Z.1.K F F Z S f s y t y y y y y y i i i p p i ' S.D.D.b..   ",
"  . b.D.D.D.g.i p p p p , g g , i s h D J J R e.V.D.D.D.D.D.D.D.D.D.D.D.D.D.D.D.D.D.D.C.p...F F J D V f s y y y y , p y i i p i p p p p ' S.D.D.b..   ",
"  . b.D.D.D.f.p p p p p g , p , i i h S J J J K ..1.k.B.S.D.D.D.D.D.D.D.D.D.D.D.A.m.q...J J J J D S f s p y y y y p y y y i y p p p p p { S.D.D.b..   ",
"  . b.D.D.D.g.g p p p p p p p p i p g h D J J J J J J R &.2.e.p.k.v.m.v.z.p.q.=...T J J F J D S V h d i i y y y y y p y p y p p p p p p ' S.D.D.b..   ",
"  . b.D.D.D.g.p p p p p p p p i i i p h f V D D J J J J J J J J J K T K J J J J J J J D D D V f f s i y y y y i y y p p i p p p p p p p ] S.D.D.b..   ",
"  . b.D.D.D.g.g g p g p p i i p i i i i g h S S S D D D D J J J J J J J J J J J D D D Z S h f s i i y y y i i i p y p y y p p p p p p g ] S.D.D.b..   ",
"  . b.D.D.D.g.g g g p p p p p i i i p i i h s f h S S h S S D D D D D D D D D S D S f f d s s i y y i y y i i i i i i p p p p p p p g p ] S.D.D.b..   ",
"  . b.D.D.D.g.g p g p p p p p p i i p i i p i i p s s h h h h S h V S S h f f s s s s i s y y y i y y i y y y i i i i p p p p p p g g p ] S.D.D.b..   ",
"  . b.D.D.D.c.{ { { ' { { ' ' ' ' ' ' ' W ' ' ' ' ' [ [ ' [ [ [ [ [ [ [ [ [ [ [ [ ' ' ' W W W W W W W W W ' ' ' ' ' ' ' ' ' { ' ' ] { ] O.S.D.D.b..   ",
"  . b.D.D.D.D.S.S.S.S.S.S.S.S.S.S.S.S.S.S.S.S.S.S.S.S.S.S.A.A.A.A.Z.A.A.A.A.S.A.S.S.A.S.S.S.S.S.S.S.S.S.S.S.S.S.S.S.S.S.S.S.S.S.S.S.S.S.S.D.D.D.b..   ",
"  . b.D.D.D.D.D.D.D.D.D.D.D.D.D.D.D.D.D.D.D.D.D.S.D.D.D.D.D.D.D.D.D.D.D.D.D.D.D.D.D.D.D.D.D.D.D.D.D.D.D.D.D.D.D.D.D.D.D.D.D.D.D.D.D.D.D.D.D.D.D.b..   ",
"  . b.D.D.D.D.D.D.D.D.D.D.D.D.D.D.D.D.D.D.D.D.D.D.D.D.D.D.D.D.D.D.D.D.D.D.D.D.D.D.D.D.D.D.D.D.D.D.D.D.D.D.D.D.D.D.D.D.D.D.D.D.D.D.D.D.D.D.D.D.D.b..   ",
"  . 8.b.b.b.b.b.b.b.b.b.b.b.b.b.b.b.b.b.b.b.b.b.b.b.b.b.b.b.b.b.b.b.b.b.b.b.b.b.b.b.b.b.b.b.b.b.b.b.b.b.b.b.b.b.b.b.b.b.b.b.b.b.b.b.b.b.b.b.b.b.8..   ",
"    . . . . . . . . . . . . . . . . . . . . . . . . . . . . . . . . . . . . . . . . . . . . . . . . . . . . . . . . . . . . . . . . . . . . . . .     ",
"                                                                                                                                                      "
};
