/* XPM */
static char *__[] = {
/* columns rows colors chars-per-pixel */
"75 75 216 2",
"   c #000000",
".  c #141414",
"X  c #BD0A00",
"o  c #BE1300",
"O  c #BD1E00",
"+  c #BF2200",
"@  c #C20C00",
"#  c #D60400",
"$  c #DC0200",
"%  c #D40B00",
"&  c #DC0B00",
"*  c #C41400",
"=  c #C81600",
"-  c #C41E00",
";  c #C91B00",
":  c #D41200",
">  c #DD1400",
",  c #D41B00",
"<  c #DC1B00",
"1  c #E50100",
"2  c #EC0100",
"3  c #E30A00",
"4  c #EB0B00",
"5  c #F20000",
"6  c #E31400",
"7  c #EC1300",
"8  c #E31C00",
"9  c #EC1B00",
"0  c #C32300",
"q  c #CC2400",
"w  c #C32E00",
"e  c #CC2B00",
"r  c #D22300",
"t  c #DC2300",
"y  c #D22C00",
"u  c #DB2B00",
"i  c #C33300",
"p  c #CC3300",
"a  c #C63C00",
"s  c #CC3B00",
"d  c #D53300",
"f  c #DB3400",
"g  c #D43B00",
"h  c #DB3900",
"j  c #E42500",
"k  c #EC2400",
"l  c #E22A00",
"z  c #ED2C00",
"x  c #E43400",
"c  c #ED3300",
"v  c #E33D00",
"b  c #ED3C00",
"n  c #F03D00",
"m  c #EF3636",
"M  c #F33636",
"N  c #F83636",
"B  c #F23B36",
"V  c #C54500",
"C  c #CD4500",
"Z  c #C64800",
"A  c #CC4C00",
"S  c #D34400",
"D  c #DB4400",
"F  c #D44A00",
"G  c #DB4C00",
"H  c #CB5400",
"J  c #CD5C00",
"K  c #D45400",
"L  c #DC5400",
"P  c #D35C00",
"I  c #DC5C00",
"U  c #E44400",
"Y  c #ED4300",
"T  c #E44D00",
"R  c #ED4B00",
"E  c #F04500",
"W  c #F04B00",
"Q  c #E35200",
"!  c #ED5400",
"~  c #E45C00",
"^  c #EC5C00",
"/  c #F05400",
"(  c #F15C00",
")  c #CC6300",
"_  c #CD6B09",
"`  c #D36400",
"'  c #DC6300",
"]  c #D46805",
"[  c #DB6906",
"{  c #D26B0A",
"}  c #DD6B0B",
"|  c #D1761C",
" . c #DC751A",
".. c #E36300",
"X. c #EC6300",
"o. c #E36907",
"O. c #E96806",
"+. c #E56B0A",
"@. c #EA6D0D",
"#. c #F06200",
"$. c #F16907",
"%. c #F06B0B",
"&. c #E56F10",
"*. c #F16E10",
"=. c #E47114",
"-. c #EB7316",
";. c #E6761C",
":. c #EE761D",
">. c #F27215",
",. c #F35D2F",
"<. c #F24434",
"1. c #F24C33",
"2. c #F25431",
"3. c #D67A22",
"4. c #DD7C25",
"5. c #F3652D",
"6. c #E37A24",
"7. c #EE7B24",
"8. c #E57E29",
"9. c #EB7E28",
"0. c #F27A23",
"q. c #FA6161",
"w. c #DA812D",
"e. c #DF8635",
"r. c #DD8A3D",
"t. c #E6812E",
"y. c #EA812D",
"u. c #F1812E",
"i. c #E38535",
"p. c #EC8433",
"a. c #E78B3E",
"s. c #EB8B3E",
"d. c #F28331",
"f. c #F3893C",
"g. c #DE8C40",
"h. c #DB9046",
"j. c #DD944D",
"k. c #ED8E44",
"l. c #F38D42",
"z. c #E09046",
"x. c #EC9045",
"c. c #E3934B",
"v. c #EB944D",
"b. c #F2934B",
"n. c #EB9752",
"m. c #ED9955",
"M. c #E79E5E",
"N. c #EC9B59",
"B. c #F39650",
"V. c #F59E5E",
"C. c #EC9F60",
"Z. c #DFA76C",
"A. c #EEA061",
"S. c #E6A86E",
"D. c #EDA86E",
"F. c #F3A66C",
"G. c #E4AB73",
"H. c #EFAB73",
"J. c #E2AF7A",
"K. c #EDAF79",
"L. c #F4AB73",
"P. c #F6AE79",
"I. c #EAB17D",
"U. c #F5B17E",
"Y. c #BDBDBD",
"T. c #E6B584",
"R. c #EBB483",
"E. c #E6BA8C",
"W. c #EBBA8B",
"Q. c #F4B483",
"!. c #F8B685",
"~. c #F4B98B",
"^. c #F8B88A",
"/. c #F3BF94",
"(. c #F9BE94",
"). c #F9AEA4",
"_. c #FAA9A9",
"`. c #FDBBBB",
"'. c #EEC096",
"]. c #EDC29A",
"[. c #F3C29A",
"{. c #F9C39B",
"}. c #EFC6A1",
"|. c #EDCAA7",
" X c #EECCAB",
".X c #FAC7A1",
"XX c #F4C8A4",
"oX c #F5CCAA",
"OX c #FACBA8",
"+X c #F4D2B3",
"@X c #F9D2B4",
"#X c #F7D6BB",
"$X c #F9D7BD",
"%X c #F6D8BD",
"&X c #FBD9BF",
"*X c #DBDBDB",
"=X c #F6DAC2",
"-X c #FADCC4",
";X c #FADEC9",
":X c #F6E1CC",
">X c #FAE1CD",
",X c #F7E5D3",
"<X c #FAE5D4",
"1X c #F9E7D8",
"2X c #F7E8D8",
"3X c #FBEADC",
"4X c #FEF8D4",
"5X c #FEF8DB",
"6X c #FEE2E2",
"7X c #FCEEE2",
"8X c #FEF5E5",
"9X c #FDF3EA",
"0X c #FFFFED",
"qX c #FEF6F6",
"wX c #FEFBF4",
"eX c #FFFFFF",
/* pixels */
"                                                                                                                                                      ",
"    . . . . . . . . . . . . . . . . . . . . . . . . . . . . . . . . . . . . . . . . . . . . . . . . . . . . . . . . . . . . . . . . . . . . . . .     ",
"  . Y.*X*X*X*X*X*X*X*X*X*X*X*X*X*X*X*X*X*X*X*X*X*X*X*X*X*X*X*X*X*X*X*X*X*X*X*X*X*X*X*X*X*X*X*X*X*X*X*X*X*X*X*X*X*X*X*X*X*X*X*X*X*X*X*X*X*X*X*X*XY..   ",
"  . *XeXeXeXeXeXeXeXeXeXeXeXeXeXeXeXeXeXeXeXeXeXeXeXeXeXeXeXeXeXeXeXeXeXeXeXeXeXeXeXeXeXeXeXeXeXeXeXeXeXeXeXeXeXeXeXeXeXeXeXeXeXeXeXeXeXeXeXeXeX*X.   ",
"  . *XeXeXeXeXeXeXeXeXeXeXeXeXeXeXeXeXeXeXeXeXeXeXeXeXeXeXeXeXeXeXeXeXeXeXeXeXeXeXeXeXeXeXeXeXeXeXeXeXeXeXeXeXeXeXeXeXeXeXeXeXeXeXeXeXeXeXeXeXeX*X.   ",
"  . *XeXeXeXeXeXeXeXeXeXeXeXeXeXeXeXeXeXeXeXeXeXeXeXeXeXeXeXeXeXeXeXeXeXeXeXeXeXeXeXeXeXeXeXeXeXeXeXeXeXeXeXeXeXeXeXeXeXeXeXeXeXeXeXeXeXeXeXeXeX*X.   ",
"  . *XeXeXeX6X_._._._._._._._._._._._._._._._._._._._._._._._._._.).).).).).).).).).).).).).).).)._.)._._.).)._._._._._._._._._._._._._.`.eXeXeX*X.   ",
"  . *XeXeXeX_.5 5 5 5 5 5 5 5 5 5 5 5 2 5 2 5 2 2 2 2 2 2 2 1 4 4 4 7 7 7 7 9 9 9 9 9 7 9 9 9 7 7 7 4 4 2 2 5 5 2 5 5 5 5 5 5 5 5 5 5 5 N qXeXeX*X.   ",
"  . *XeXeXeX_.5 5 5 5 5 5 5 5 5 5 5 2 2 2 5 2 2 2 2 2 2 2 4 4 7 9 9 k k z z z z z z z z z z z k k 9 9 7 9 5 7 5 5 2 5 5 5 5 5 5 5 5 5 5 N qXeXeX*X.   ",
"  . *XeXeXeX_.5 5 5 5 5 5 5 5 5 5 2 2 5 2 2 5 2 2 2 1 4 7 7 9 k z z b b b b E E E Y E E E Y E n n n c k k 9 7 5 2 5 2 5 5 5 5 5 5 5 5 5 N qXeXeX*X.   ",
"  . *XeXeXeX_.5 5 5 5 5 5 5 5 5 5 2 2 2 2 2 2 2 2 4 4 7 9 k z c b Y W R / / ! / / / / / / / ! / W W E n c k 9 7 4 5 5 2 5 5 2 5 5 5 5 5 N qXeXeX*X.   ",
"  . *XeXeXeX_.5 5 5 5 5 5 5 5 5 2 5 2 2 2 2 2 1 4 7 9 k z b Y R W ! ( ( ^ #.( ( ( ( #.( ( ( ( ( ( / / W E n z 9 7 4 2 5 2 2 5 5 5 5 5 5 N qXeXeX*X.   ",
"  . *XeXeXeX_.5 5 5 5 5 5 2 5 2 2 2 2 2 2 2 2 4 7 9 j b b W ! / ( ^ #.X.#.#.#.X.X.#.X.#.#.#.#.#.#.#.( ( / E n k 9 4 4 5 2 5 2 5 5 5 5 5 M qXeXeX*X.   ",
"  . *XeXeXeX_.5 5 5 5 2 2 5 2 2 2 2 2 2 2 1 4 6 9 z b Y ! ! ^ ( #.X.X.X.X.@.:.0.u.f.l.u.9.0.>.#.#.#.#.( ( / E c 9 7 4 2 2 5 2 5 5 5 5 5 M qXeXeX*X.   ",
"  . *XeXeXeX_.5 5 2 5 5 5 2 2 2 2 2 2 2 4 4 7 9 z b R ! ^ ( #.X.X.X.:.b.Q.OX1X7XqXwXwXqXqX1X$X{.A.0.$.#.( ( W n z 7 4 2 2 5 2 5 5 2 2 5 N qXeXeX*X.   ",
"  . *XeXeXeX_.5 5 5 2 5 2 2 5 2 2 1 2 1 4 4 8 z b Y ! ^ X.X.X.X.0.P.>XwXeXeXeXeXeXeXeXeXeXeXeXeXeX3X!.*.#.( / E z 9 4 2 2 2 2 2 5 2 5 5 N qXeXeX*X.   ",
"  . *XeXeXeX_.5 5 5 2 2 2 2 2 2 1 2 2 1 4 8 k b R ! ~ X.X.X.@.F.1XwXeXeXeXeXeXeXeXeXeXeXeXeXeXeXeXeXeXB.#.#.! E c 9 4 2 2 2 2 2 2 5 5 5 M qXeXeX*X.   ",
"  . *XeXeXeX_.5 2 5 2 5 2 2 2 2 2 1 1 4 9 k x Y ! ^ X.X.X.9.XXwXeXeXeXeXeXeXeXeXeXeXeXeXeXeXeXeXeXeXeXP.#.( ! Y c 9 7 1 2 2 2 2 5 2 2 5 M qXeXeX*X.   ",
"  . *XeXeXeX_.2 5 2 2 5 2 2 2 2 2 2 3 7 9 l Y R ~ ^ X.X.p.;XeXeXeXeXeXeXeXeXwXqX9X7X7X9X9XwXeXeXeXeXeXU.X.X.! Y c 8 4 4 2 2 2 5 5 2 5 2 M qXeXeX*X.   ",
"  . *XeXeXeX_.5 2 5 2 2 2 2 2 2 1 1 4 6 j b R ~ X.X...p.;XeXeXeXeXeXeXeX7XXXA.k.9.;.;.;.p.n.P.@X7XeXeXF...X.! Y c 9 4 1 1 2 2 2 2 2 2 5 M qXeXeX*X.   ",
"  . *XeXeXeX_.2 2 2 2 2 2 2 2 1 2 3 4 k c U ! ~ X...-.+XeXeXeXeXeXeX9X~.y.+...................@.p.F.Q.7.X.~ ! b j 9 4 1 2 2 2 2 2 2 2 2 M qXeXeX*X.   ",
"  . *XeXeXeX_.5 2 2 2 2 2 2 2 2 1 4 6 l v R ~ ^ O.X.U.eXeXeXeXeXeX<Xm.} ' ..' ..' ..' ................X.X.! R v j 9 3 1 1 2 1 2 2 2 2 5 M qXeXeX*X.   ",
"  . *XeXeXeX_.2 2 2 2 2 1 2 1 1 3 4 9 l U Q ^ ....s.9XeXeXeXeXeX1Xa.' ' ..' ~ P I ~ L I ~ I I ..~ ....~ ~ T U c k 6 3 2 2 1 2 2 2 2 2 2 m qXeXeX*X.   ",
"  . *XeXeXeX_.2 2 2 2 2 2 1 1 1 3 6 j v R ! ..X.+.[.eXeXeXeXeX8Xn.' ..' P I I L G G F G G G L Q Q Q Q Q T U x l 8 3 1 1 1 1 2 1 2 2 2 2 M qXeXeX*X.   ",
"  . *XeXeXeX_.2 2 2 1 2 1 1 2 1 4 6 l Y ! ~ ....s.9XeXeXeXeXeXI.[ ' ' ' I L F S S g g d g g g D D D D D h x t 8 3 3 1 1 1 1 2 2 1 2 2 2 M qXeXeX*X.   ",
"  . *XeXeXeX_.2 2 2 2 1 2 1 1 1 3 j x U Q ^ ..O./.eXeXeXeXeX>X;.' ' ' P K F g s e e e y y y d d d f f f t t < > & $ $ 1 1 1 1 1 2 2 2 2 m qXeXeX*X.   ",
"  . *XeXeXeX_.2 2 1 2 1 1 2 1 1 6 j x T Q ..X.6.<XeXeXeXeXeXD.' ' ' ' P K S s e e 0 q q q q r r r r , < , > & # $ $ 1 1 1 1 2 1 1 2 2 2 M qXeXeX*X.   ",
"  . *XeXeXeX_.2 2 2 2 2 1 1 1 3 6 j v T ~ ....N.eXeXeXeXeX1Xw.' ' ` ` P H C s p e w q e e e q q q , ; : : # # # $ $ $ 1 1 1 1 2 2 2 1 2 m qXeXeX*X.   ",
"  . *XeXeXeX_.2 2 2 1 1 2 1 1 6 6 l U Q ~ ..o./.eXeXeXeXeXXX[ ` ` ` ` P K A C s s s s s s s d p y q , : % % # # # $ $ 1 1 1 1 1 1 2 2 2 M qXeXeX*X.   ",
"  . *XeXeXeX_.2 2 1 2 2 1 1 1 3 8 x U Q ~ ..=.;XeXeXeXeXeXM.' ' ` ` ` P H P H H A A A A F S C g g y y ; , % % # # $ $ $ 1 1 1 1 1 2 2 2 m qXeXeX*X.   ",
"  . *XeXeXeX_.2 2 2 1 1 1 1 1 3 < x U Q ....i.7XeXeXeXeX7Xe.` ` ` ` ` ` ) P P H H P H P K K K L F g g y r , : # # $ $ $ $ 1 1 1 1 2 1 2 m qXeXeX*X.   ",
"  . *XeXeXeX_.2 2 1 2 1 1 1 3 > j x G ~ ....N.eXeXeXeXeX,X .` ` ` ` ` ) ` ) ` ) ` ) ` ` P ` P P K L F D d y < : # # $ $ 1 1 1 1 1 2 2 2 m qXeXeX*X.   ",
"  . *XeXeXeX_.2 2 2 2 1 1 1 1 6 j v T Q ..' K.eXeXeXeXeX+X` ` ` ] ] ) ) ) ) ) { _ ) ` ` P ` ` ` P P L L D g u < : & $ $ 1 1 1 1 1 2 1 2 m qXeXeX*X.   ",
"  . *XeXeXeX_.1 1 2 1 1 1 1 & > t h T ~ ..../.eXeXeXeXeX].] ` ` ] { 3.j.J.W.]. X|.].W.G.g. .] ` ' ' P I L D h r < % & $ $ 1 1 1 2 1 2 2 m qXeXeX*X.   ",
"  . *XeXeXeX_.2 2 1 1 1 1 1 & 6 l v L ~ ..+.oXeXeXeXeXeXR.` { w.G.+X3XwXeXeXeXeXeXeXeXeXqX:X'.e.[ ' ' ..I L D h t : % $ $ 1 1 1 1 2 1 2 m qXeXeX*X.   ",
"  . *XeXeXeX_.2 2 2 1 1 1 1 3 6 l h T ~ ..} #XeXeXeXeXeXI.z.}.7XeXeXeXeXeXeXeXeXeXeXeXeXeXeXeX7XW. .' ' I ~ L h u < > $ $ $ 1 1 1 1 2 2 m qXeXeX*X.   ",
"  . *XeXeXeX_.1 1 2 1 1 1 1 & < l U T ~ ..+.;XeXeXeXeXeX,X8XeXeXeXeXeXeXeXeXeXeXeXeXeXeXeXeXeXeXeX+Xt.' ' I L G h u > & $ 1 1 1 1 1 2 2 m qXeXeX*X.   ",
"  . *XeXeXeX_.1 2 1 2 1 1 $ 3 > u v Q I ' &.<XeXeXeXeXeXeXeXeXeXeXeXeXeXeXeXeXeXeXeXeXeXeXeXeXeXeXeX=X6.' ' ~ L U u < & $ 1 $ 1 2 1 2 1 m qXeXeX*X.   ",
"  . *XeXeXeX_.2 2 2 1 1 1 1 & 6 u v Q ~ ..=.1XeXeXeXeXeXeXeXeXeXeXqX2X|.E.J.Z.S.T.|.<XeXeXeXeXeXeXeXeX'.+.' ..Q D x t 6 & 1 1 1 2 1 1 2 m qXeXeX*X.   ",
"  . *XeXeXeX_.2 1 1 2 1 1 1 3 > j v L ~ ..6.7XeXeXeXeXeXeXeXeX2XE.h.| _ ) ) ) ) ) _ 3.J.2XeXeXeXeXeXeXqXv.' ..I Q h u > 3 $ 1 1 1 1 2 1 m qXeXeX*X.   ",
"  . *XeXeXeX_.2 2 1 2 1 1 1 & 6 u v Q ~ ' 8.7XeXeXeXeXeXeX,XS.3.) ) ) ) ) ) ) ) ) ) ) ) r.:XeXeXeXeXeXeXXX+...~ Q U l < 3 $ 1 1 1 2 2 2 m qXeXeX*X.   ",
"  . *XeXeXeX_.2 2 1 1 1 1 1 3 8 l v Q ~ ..8.7XeXeXeXeXeX+X4.` ` ) ) ) ) ) J J ) ) ) ) ) ` h.9XeXeXeXeXeX7Xt.' ~ Q G f j 6 1 1 1 1 2 1 2 m qXeXeX*X.   ",
"  . *XeXeXeX_.1 1 2 2 1 1 1 & > l h Q ~ ..8.7XeXeXeXeXeXR.` ` ` ) J J J J H H J J J ) ) ` ] '.eXeXeXeXeXeXM.I ..~ T x < 6 1 1 1 2 1 1 2 m qXeXeX*X.   ",
"  . *XeXeXeX_.2 2 2 1 1 1 1 3 6 l v Q ~ ..8.3XeXeXeXeXeXR.` ` ` J J H Z V V V Z Z H J ) ` ` c.wXeXeXeXeXeXQ.O...~ T v j 6 3 1 1 1 1 2 2 m qXeXeX*X.   ",
"  . *XeXeXeX_.2 2 1 2 2 2 1 3 6 l v Q ^ ~ ;.1XeXeXeXeXeXW.` ` ` J H V a i w + a V Z H P ` ' 4.2XeXeXeXeXeXoX+...~ T b l 6 3 1 1 1 2 2 2 M qXeXeX*X.   ",
"  . *XeXeXeX_.2 2 2 1 1 1 1 3 6 l v T ~ ..=.<XeXeXeXeXeX'.' ' ` K A a w + O O + i s A P ` ` } %XeXeXeXeXeX$X+...^ Q v l 6 3 1 1 2 1 1 2 m qXeXeX*X.   ",
"  . *XeXeXeX_.1 2 1 1 2 1 1 3 6 l v Q ~ ..+.-XeXeXeXeXeXoX' ' P K C i 0 o o o o 0 p C K P ' ' +XeXeXeXeXeX;X@...~ Q v j 8 3 1 2 1 2 2 2 m qXeXeX*X.   ",
"  . *XeXeXeX_.2 2 2 2 2 1 1 3 6 l b T ~ X.+.+XeXeXeXeXeX%X} ' P K C p - o X X o - i C K P ..' oXeXeXeXeXeX,X@...~ ! Y j 6 3 1 2 2 1 2 2 m qXeXeX*X.   ",
"  . *XeXeXeX_.2 2 2 1 1 2 2 3 6 j b T ~ ..o./.eXeXeXeXeX:X .' P P S p 0 * @ X * ; e S K P ' [ oXeXeXeXeXeX-X+...~ R U k 6 4 1 2 2 2 2 2 m qXeXeX*X.   ",
"  . *XeXeXeX_.2 2 2 2 2 1 1 1 6 j b T ! ..X.L.eXeXeXeXeX7Xt.' ' I F g e * @ @ * q s F K I ' [ +XeXeXeXeXeX+X@.X.~ ! b j 6 4 1 1 2 2 2 2 m qXeXeX*X.   ",
"  . *XeXeXeX_.2 2 2 2 1 2 1 1 7 j x U ~ ^ ..n.eXeXeXeXeXeXn.' ' I F S e ; ; = ; e g G I ' ..&.;XeXeXeXeXeX{.O.X.~ R v k 6 4 2 2 2 2 2 2 m qXeXeX*X.   ",
"  . *XeXeXeX_.2 2 2 2 2 2 2 1 7 9 x Y ! ^ O.9.7XeXeXeXeXeX~...' P I G g y q y y g F L P ..' i.8XeXeXeXeXeXL...~ ! R x k 4 3 2 1 2 2 2 2 M qXeXeX*X.   ",
"  . *XeXeXeX_.2 2 2 2 2 1 1 1 4 9 c Y ! ^ O.@.-XeXeXeXeXeX-X+.' ..I L F g g d g F L I ~ ' ..H.eXeXeXeXeXqXk.X.X.! T c k 7 1 1 2 2 2 2 2 M qXeXeX*X.   ",
"  . *XeXeXeX_.2 2 2 2 2 2 2 1 4 9 j b Q ~ X.X.^.eXeXeXeXeXqXv.....' ~ L G G G G G I I ....=.-XeXeXeXeXeX<X-.X.^ ! Y z 9 4 1 1 2 2 2 2 2 M qXeXeX*X.   ",
"  . *XeXeXeX_.5 2 2 2 2 2 1 1 4 6 k b R ^ X.X.v.wXeXeXeXeXeXXX+.....~ I I L L I ' ......O.D.eXeXeXeXeXeX!.X.X.^ ! b j 9 4 4 2 2 2 5 2 2 M qXeXeX*X.   ",
"  . *XeXeXeX_.2 2 5 2 2 2 2 2 4 4 j c R ! ^ X.>.-XeXeXeXeXeXwXC.............~ ..........s.1XeXeXeXeXeX7Xd.X.X.^ R b k 7 4 2 2 2 2 2 2 2 M qXeXeX*X.   ",
"  . *XeXeXeX_.2 5 2 2 2 2 2 2 1 4 9 c Y ! ^ X.X.L.eXeXeXeXeXeX3Xv.o...O.........O...O.x.<XeXeXeXeXeXeX^.$.X.^ / Y x k 7 1 1 2 2 2 2 5 5 M qXeXeX*X.   ",
"  . *XeXeXeX_.5 2 5 5 2 2 2 2 2 4 7 k b R ^ X.X.:.;XeXeXeXeXeXeX8XU.9.+.O.....X.+.9.U.7XeXeXeXeXeXeX-X:.X.X.( ! Y z 9 4 2 2 2 5 2 5 2 5 M qXeXeX*X.   ",
"  . *XeXeXeX_.5 5 5 2 2 2 2 2 2 4 4 9 c Y / ( #.X.B.9XeXeXeXeXeXeXeX3XoXQ.L.L.Q.XX3XeXeXeXeXeXeXeX3Xl.X.#.( ( Y c k 6 4 2 2 2 2 5 2 5 2 M qXeXeX*X.   ",
"  . *XeXeXeX_.5 5 2 5 2 5 2 2 2 1 4 9 z b R ^ #.#.$.P.wXeXeXeXeXeXeXeXeXeXeXeXeXeXeXeXeXeXeXeXeX1Xb.#.X.#.( W n z 9 4 5 2 2 5 2 2 2 5 5 M qXeXeX*X.   ",
"  . *XeXeXeX_.5 2 5 5 2 2 2 2 2 2 4 7 9 z E / ( #.X.%.U.9XeXeXeXeXeXeXeXeXeXeXeXeXeXeXeXeXeXeX>Xf.$.#.#.( / Y c k 7 4 2 2 2 5 2 2 5 5 5 M qXeXeX*X.   ",
"  . *XeXeXeX_.5 5 5 5 2 5 2 2 5 2 2 4 9 z b R ( ( #.#.$.V.<XeXeXeXeXeXeXeXeXeXeXeXeXeXeXeX3XU.0.#.#.#.( / E c k 7 4 4 5 2 2 2 5 5 2 5 5 M qXeXeX*X.   ",
"  . *XeXeXeX_.5 5 5 5 5 2 5 2 2 2 2 5 4 9 z n W ( #.#.#.#.0.P.;XwXeXeXeXeXeXeXeXeXeXwX-X^.u.#.#.#.( ( / W n z 9 4 4 2 2 2 2 5 5 5 5 5 5 N qXeXeX*X.   ",
"  . *XeXeXeX_.5 5 5 5 5 5 2 5 5 5 2 4 4 7 k z E W / #.#.#.#.#.>.l.F..X@X&X-X@XOX(.P.f.>.#.#.#.#.( ( / W n z 9 7 4 5 2 2 5 5 2 5 5 5 5 5 N qXeXeX*X.   ",
"  . *XeXeXeX_.5 5 5 5 5 5 5 5 5 5 2 2 2 4 9 k c n W / ( ( #.#.#.#.#.#.#.*.>.$.#.#.#.#.#.#.( ( ( / W E n z k 4 5 2 2 5 2 5 5 5 5 5 5 5 5 N qXeXeX*X.   ",
"  . *XeXeXeX_.5 5 5 5 5 5 5 5 5 2 5 2 5 5 4 9 k c n E W / ( ( ( ( #.#.#.#.#.#.#.#.#.#.( ( ( / / W n c z 9 4 7 5 2 5 2 5 2 5 5 5 5 5 5 5 N eXeXeX*X.   ",
"  . *XeXeXeX_.5 5 5 5 5 5 5 5 5 5 2 5 2 2 4 7 7 9 z c E E W / / / ( / ( ( ( ( ( ( ( ( / / W E n c z k 9 7 4 5 5 5 2 5 5 5 5 5 5 5 5 5 5 N qXeXeX*X.   ",
"  . *XeXeXeX_.5 5 5 5 5 5 5 5 5 5 5 2 5 2 5 2 2 4 9 9 k z n n E E W W W W E W E E E E E n n z z 9 9 7 5 5 2 5 5 2 5 2 2 5 5 5 5 5 5 5 5 N qXeXeX*X.   ",
"  . *XeXeXeX`.N M N N N N N M M B N M M M M m B B <.<.1.2.2.,.5.5.5.5.5.5.5.5.5.5.5.5.5.,.2.2.1.<.<.B B B M M M M M M M N N M M N N N N q.eXeXeX*X.   ",
"  . *XeXeXeXeXqXqXqXqXqXqXqXqXqXqXeXqXqXqXqXqXqXqXqX0X8X8X8X5X5X4X4X4X4X4X4X4X4X4X4X4X5X5X8X8X8X8XqXwXqXwXwXqXqXqXqXqXqXqXqXqXqXqXqXqXqXqXeXeXeX*X.   ",
"  . *XeXeXeXeXeXeXeXeXeXeXeXeXeXeXeXeXeXeXeXeXeXeXeXeXeXwXwXwXwX0X0X0X0X0X0X0X0X0X0X0XwXwXwXeXeXeXeXeXeXeXeXeXeXeXeXeXeXeXeXeXeXeXeXeXeXeXeXeXeX*X.   ",
"  . *XeXeXeXeXeXeXeXeXeXeXeXeXeXeXeXeXeXeXeXeXeXeXeXeXeXeXeXeXeXeXeXwXeXwXwXeXwXeXeXeXwXeXeXeXeXeXeXeXeXeXeXeXeXeXeXeXeXeXeXeXeXeXeXeXeXeXeXeXeX*X.   ",
"  . Y.*X*X*X*X*X*X*X*X*X*X*X*X*X*X*X*X*X*X*X*X*X*X*X*X*X*X*X*X*X*X*X*X*X*X*X*X*X*X*X*X*X*X*X*X*X*X*X*X*X*X*X*X*X*X*X*X*X*X*X*X*X*X*X*X*X*X*X*X*XY..   ",
"    . . . . . . . . . . . . . . . . . . . . . . . . . . . . . . . . . . . . . . . . . . . . . . . . . . . . . . . . . . . . . . . . . . . . . . .     ",
"                                                                                                                                                      "
};
