/* XPM */
static char *__[] = {
/* columns rows colors chars-per-pixel */
"75 75 206 2",
"   c #000000",
".  c #141414",
"X  c #960400",
"o  c #9C0200",
"O  c #960B00",
"+  c #9B0B00",
"@  c #961300",
"#  c #9A1300",
"$  c #9B1B00",
"%  c #A40200",
"&  c #AC0100",
"*  c #A50B00",
"=  c #AB0B00",
"-  c #B30100",
";  c #BB0100",
":  c #B40B00",
">  c #BC0B00",
",  c #A51300",
"<  c #AB1300",
"1  c #A51A00",
"2  c #AB1C00",
"3  c #B41300",
"4  c #BB1300",
"5  c #B41B00",
"6  c #BC1B00",
"7  c #9D2400",
"8  c #9E2C00",
"9  c #9F3100",
"0  c #A42300",
"q  c #AB2400",
"w  c #A22C00",
"e  c #AC2C00",
"r  c #B42300",
"t  c #BC2300",
"y  c #B42C00",
"u  c #BB2B00",
"i  c #A43400",
"p  c #AD3300",
"a  c #A43B00",
"s  c #AC3B00",
"d  c #B43400",
"f  c #BC3300",
"g  c #B33C00",
"h  c #BB3B00",
"j  c #C00100",
"k  c #C00B00",
"l  c #C11400",
"z  c #C21C00",
"x  c #C32300",
"c  c #C32C00",
"v  c #C43400",
"b  c #C83600",
"n  c #C43B00",
"m  c #C93C00",
"M  c #C53636",
"N  c #CC3636",
"B  c #C63B35",
"V  c #CB3C35",
"C  c #D03636",
"Z  c #A64400",
"A  c #AB4400",
"S  c #A74900",
"D  c #AB4C00",
"F  c #B34400",
"G  c #BB4300",
"H  c #B44C00",
"J  c #BB4C00",
"K  c #AD5400",
"L  c #AE5C00",
"P  c #B55400",
"I  c #BB5400",
"U  c #B45B00",
"Y  c #BB5C00",
"T  c #AE6300",
"R  c #B46300",
"E  c #BB6400",
"W  c #B56907",
"Q  c #BE6804",
"!  c #B66D0E",
"~  c #B67317",
"^  c #BE7316",
"/  c #B97B24",
"(  c #C44300",
")  c #C94400",
"_  c #C44B00",
"`  c #CA4B00",
"'  c #C35400",
"]  c #CC5400",
"[  c #C35C00",
"{  c #CD5C00",
"}  c #C36300",
"|  c #CD6300",
" . c #C66907",
".. c #CF6807",
"X. c #C46A09",
"o. c #CC6B0B",
"O. c #D06200",
"+. c #D06806",
"@. c #D06B0B",
"#. c #C36F11",
"$. c #C37013",
"%. c #CE7215",
"&. c #C1751B",
"*. c #CF761C",
"=. c #D27216",
"-. c #D4771E",
";. c #CE582E",
":. c #D05C2D",
">. c #CA4433",
",. c #CB4A32",
"<. c #CD5130",
"1. c #D3642B",
"2. c #D46D29",
"3. c #C47A23",
"4. c #CC7B24",
"5. c #D77527",
"6. c #D67925",
"7. c #D87826",
"8. c #D67128",
"9. c #DA6161",
"0. c #C9822F",
"q. c #C38535",
"w. c #C98432",
"e. c #CB883B",
"r. c #D28333",
"t. c #D88333",
"y. c #D08738",
"u. c #D2893B",
"i. c #C98E43",
"p. c #CB9148",
"a. c #D5934C",
"s. c #DC944D",
"d. c #CF9A57",
"f. c #CD9D5C",
"g. c #D49651",
"h. c #D69853",
"j. c #DF9A57",
"k. c #D69F60",
"l. c #D3A061",
"z. c #DEA163",
"x. c #D7A76C",
"c. c #DAA56A",
"v. c #D2A971",
"b. c #D9AC75",
"n. c #DAB07C",
"m. c #E3A66B",
"M. c #E3AA73",
"N. c #E3AF7A",
"B. c #BDBDBD",
"V. c #DCB585",
"C. c #DEB98B",
"Z. c #E2B584",
"A. c #ECBE85",
"S. c #E3BB8E",
"D. c #ECBB8B",
"F. c #EBB695",
"G. c #EBBB92",
"H. c #EBB29C",
"J. c #EAADA4",
"K. c #E6A9A9",
"L. c #E9A9A9",
"P. c #EFBBBB",
"I. c #ECC082",
"U. c #E5C197",
"Y. c #E8C097",
"T. c #E3C39B",
"R. c #EBC39B",
"E. c #DBDBBD",
"W. c #E3C6A0",
"Q. c #EBC6A0",
"!. c #ECC9A6",
"~. c #E9CDAD",
"^. c #F0CFAF",
"/. c #E9D1B2",
"(. c #ECD5B9",
"). c #EFD8BF",
"_. c #F0D2B4",
"`. c #F0D6BB",
"'. c #F0D8BE",
"]. c #FDF9B2",
"[. c #FDF9BC",
"{. c #DBDBC3",
"}. c #DBDBCD",
"|. c #DBDBD3",
" X c #DBDBDB",
".X c #EFDCC4",
"XX c #F3DCC5",
"oX c #F3E1CD",
"OX c #FFFEC4",
"+X c #FEFDCB",
"@X c #F4E5D4",
"#X c #F6EADB",
"$X c #F9EBDD",
"%X c #FFFED4",
"&X c #FDF7DE",
"*X c #FFFFDC",
"=X c #F8E2E2",
"-X c #F7EFE4",
";X c #F8EFE4",
":X c #FBF5E5",
">X c #FFFFE3",
",X c #FBF5EE",
"<X c #FFFFEC",
"1X c #FDF6F6",
"2X c #FEFDF4",
"3X c #FFFFFF",
/* pixels */
"                                                                                                                                                      ",
"    . . . . . . . . . . . . . . . . . . . . . . . . . . . . . . . . . . . . . . . . . . . . . . . . . . . . . . . . . . . . . . . . . . . . . . .     ",
"  . B. X X X X X X X X X X X X X|. X X|.|.|.|.|.|.|.|.}.|.}.|.}.}.}.}.}.}.}.}.}.}.}.}.}.}.}.|.|.}.|.|.|.|.|.|.|.|.|. X|. X X X X X X X X X X X XB..   ",
"  .  X3X3X3X3X3X3X3X3X3X3X3X3X3X3X2X3X2X2X2X2X<X<X2X<X<X<X<X<X<X<X<X<X>X<X<X>X<X<X>X<X<X<X<X<X<X<X2X<X<X2X2X2X2X3X2X3X3X3X3X3X3X3X3X3X3X3X3X3X3X X.   ",
"  .  X3X3X3X3X3X3X3X3X3X3X3X2X3X2X2X<X<X<X<X>X>X>X>X>X>X*X>X*X*X*X*X*X*X*X*X*X*X*X*X*X*X>X*X>X*X>X>X>X>X>X<X<X<X<X2X2X2X3X3X3X3X3X3X3X3X3X3X3X3X X.   ",
"  .  X3X3X3X3X3X3X3X3X3X3X3X3X2X2X2X<X>X>X*X*X*X%X*X%X*X%X%X*X%X%X%X%X%X%X%X%X+X%X%X%X%X%X%X%X*X*X%X*X*X*X*X>X>X<X<X2X2X2X3X3X3X3X3X3X3X3X3X3X3X X.   ",
"  .  X3X3X3X=XL.L.L.L.L.L.J.H.H.H.F.F.F.D.D.D.D.A.D.A.A.A.A.A.I.I.I.A.I.I.I.I.I.A.A.I.I.A.A.A.A.A.A.A.A.D.A.D.G.G.F.H.H.J.J.J.J.L.L.L.L.P.3X3X3X X.   ",
"  .  X3X3X3XL.j j j j j j k l l x x c v b m m m ) ) ) ) ) ) ) ) ( ` ` ( ` ) ` ` ` ) _ ) ` ) ) ) ) ) ) m m m b b b x x z l k k j j j j j N 1X3X3X X.   ",
"  .  X3X3X3XL.j j j j k k k z z x b b m ) ` ) ` ` ` ` ] ] ` ] ] ] ] ] ] ] ] ] ] ] ' ] ] ` ] ` ` ] ] ` ` ` ` ` ) m b c x z l k k j j j j C 2X3X3X X.   ",
"  .  X3X3X3XL.j j j j j k z z c b m m ` ` ] ] ] { ] { ] ] { ] { { { ] { { { { ] { { { ] { { { { ] ] ] ] ] ] ` ` ) m b c x z k k > j j j C 1X3X3X X.   ",
"  .  X3X3X3XL.j j j k k l z x c m ) ` ] ] ] O.] O.{ O.{ O.{ | | { | | { | | | | | { { | { | { | O.O.{ O.{ { ] ] ` ) m b c z l l k j j j C 1X3X3X X.   ",
"  .  X3X3X3XL.j j ; j 4 l z c b m ` ` ] O.O.O.O.O.O.| O.| O.| | | | | | | | | | | | | | | | O.| O.O.O.O.O.{ O.] ] ] ) m b x l l k ; j ; C 1X3X3X X.   ",
"  .  X3X3X3XL.; ; j > 4 l x v m ) ] ] { O.O.O.| O.O.O.O.| | | | | | | | | | | | | | | | | | | | O.O.O.O.O.O.O.{ { ] ` ) b x z l > ; j j N 1X3X3X X.   ",
"  .  X3X3X3XL.; j ; k l z x v m ` ] { O.O.O.O.| O.O.| | | | | | | | | | | | | | | | | | | | | | O.O.O.O.O.O.O.O.{ ] ` ) b c x l l j > ; N 1X3X3X X.   ",
"  .  X3X3X3XL.; ; > > l 6 c b ) ` ] { O.O.O.t.D.R.R.R.R.R.R.R.R.R.R.R.R.T.R.R.R.R.R.R.R.R.R.R.R.R.R.R.G.m.=.O.O.O.] ] ` m v x z 4 > ; ; N 1X3X3X X.   ",
"  .  X3X3X3XL.j ; > > 4 x c b ) ] ] { O.| @._.3X3X3X3X3X3X3X3X3X3X3X3X3X3X3X3X3X3X3X3X3X3X3X3X3X3X3X3X3X3XM.O.O.O.O.] ` m b x z l > ; ; V 1X3X3X X.   ",
"  .  X3X3X3XL.; ; > > 6 x c n ` ] ] | | | -.#X3X3X3X3X3X3X3X3X3X3X3X3X3X3X3X3X3X3X3X3X3X3X3X3X3X3X3X3X3X3XR.@.| O.{ ] _ ) n c 6 4 > ; ; N 1X3X3X X.   ",
"  .  X3X3X3XL.; ; > > 4 t c b ` ` { { | | 6.$X3X3X3X3X3X3X3X3X3X3X3X3X3X3X3X3X3X3X3X3X3X3X3X3X3X3X3X3X3X3X!.+.| | { ] ] ( b c 6 4 > > ; N 1X3X3X X.   ",
"  .  X3X3X3XK.; ; > > 4 6 c n ( ] ] { | | =.@X3X3X3X3X3X3X3X3X3X3X3X3X3X3X3X3X3X3X3X3X3X3X3X3X3X3X3X3X3X3XR. .| | { ] ` ( v c 6 4 > > ; M 1X3X3X X.   ",
"  .  X3X3X3XK.; : > : 4 t c v ( _ { { | | | N.,X,X1X,X,X,X1X,X,X1X,X,X,X1X,X,X,X,X,X,X,X1X,X1X3X3X3X3X3X3XZ.| | | { { ` ( v c 6 4 : ; ; M 2X3X3X X.   ",
"  .  X3X3X3XK.; - > > 4 6 u v ( _ ] { | | | o.r.u.u.u.u.u.u.u.u.u.e.u.u.u.u.u.u.u.e.u.u.u.u.Y.3X3X3X3X3X1Xs.| | | { ] ` ( v t 6 4 : > - N 1X3X3X X.   ",
"  .  X3X3X3XL.- ; > : > 6 t u n ( ] ' [ | } | } | } | } } } } } } } } } E } } E } } } } } $.'.3X3X3X3X3XXX%.| | { { ' _ n v t 6 > > - ; M 1X3X3X X.   ",
"  .  X3X3X3XK.; ; - > : 4 t u n ( _ ' { { } [ } } } } } } } } } } } E } Q X.} Q X.} X.} } h.1X3X3X3X3X3Xc.| | } [ { ' ( n f t 6 > : : ; M 1X3X3X X.   ",
"  .  X3X3X3XK.- - - : : 4 5 t u h ( _ ' ' [ { [ [ } [ [ } Y } E E E } Q } E Q } E E X.Q X.~.3X3X3X3X3X#X6.} } | { ' ' ( v u 6 3 : : ; - M 1X3X3X X.   ",
"  .  X3X3X3XK.; - - : : 3 3 t u h h _ J ' ' ' [ [ Y [ Y Y [ E Y E E E E } E } E Q E Q E u.,X3X3X3X3X3XS.} } } | [ ' _ n h u 5 4 : - - ; M 1X3X3X X.   ",
"  .  X3X3X3XK.- - - - - : 3 5 r u f h G G J J I J I I I I I Y Y Y Y E E E E E Q Q Q E X.U.3X3X3X3X3X,Xu.} | } } ' ' ( n u t 5 : : : - - M 1X3X3X X.   ",
"  .  X3X3X3XL.- - - : - : : 3 5 r y f h h F G G G H G H H H P P Y Y Y R E E E Q Q E E 0.;X3X3X3X3X3X!.X.} | } ' ' ' G h u t 3 : : - - - M 1X3X3X X.   ",
"  .  X3X3X3XK.- - - - - & : 3 3 5 q r y d d s g s g g A A F H H P U Y R E R E E E E Q V.3X3X3X3X3X1Xg.} } } [ [ ' ' h h y 6 3 : - : - - M 1X3X3X X.   ",
"  .  X3X3X3XK.- - - - - & = & = 3 < 2 q r e e e e p p p p s s D D P L Y R R E E E W &.@X3X3X3X3X3X).$.E } } [ [ ' G h f r 5 : : - - - - M 1X3X3X X.   ",
"  .  X3X3X3XK.- - - & - & - & = = = < 1 2 2 1 0 0 0 0 w w i a A D K U U R E R R E E x.3X3X3X3X3X3Xz.E } } } Y ' J G d y 5 3 = : : & - - M 1X3X3X X.   ",
"  .  X3X3X3XK.- - - & & & & & = = = * * * , , 1 , # 1 $ 7 w i a A D U U R R W E R ^ .X3X3X3X3X3X@X4.} } } Y [ I J h y r 2 3 : & - - & - M 1X3X3X X.   ",
"  .  X3X3X3XK.- - - & - & & & = % % * * + * + + # # @ $ 7 7 w a A D K U R R R R R d.1X3X3X3X3X3XV.E E E [ Y I J G h y r 3 : = : & - - - M 1X3X3X X.   ",
"  .  X3X3X3XK.- - - - & & & & % % % % % * + o o O O @ @ $ 7 9 a A K K L T R R R ! /.3X3X3X3X3X;Xw.E E } [ Y I J g d y 2 < = & : & - - - M 1X3X3X X.   ",
"  .  X3X3X3XK.- - - & & & & % % % % o o o o o X X O O @ $ 7 9 9 Z K L L R T R R i.,X3X3X3X3X3XT.Q E E E Y I I G g y r < = : & & & - - & M 1X3X3X X.   ",
"  .  X3X3X3XK.- - & - & & & & % % % % o X o o X X O O @ $ 7 9 Z S K L L T T T W T.3X3X3X3X3X1Xp.E E E Y Y I J F d r 2 < = = & & & - - - M 1X3X3X X.   ",
"  .  X3X3X3XK.- & - & & & & & % % % o % o X X X X O O @ 7 8 9 Z S K L T T T T q.-X3X3X3X3X3X/.^ E E E Y Y P G g d q 2 < = = & & & - & & M 1X3X3X X.   ",
"  .  X3X3X3XK.- - & & & & % & % o o % o o X X X X O @ @ 7 9 a Z S K L T T T T C.3X3X3X3X3X2Xl.R E E E Y P H G p e 2 < * = = & & & - - - M 1X3X3X X.   ",
"  .  X3X3X3XK.& - - & - & & % % % % o o o o X X X O @ 7 8 9 Z S K L T T T T / @X3X3X3X3X3X@X&.E E E Y Y I H g p q 2 < = & & & & & - & - M 1X3X3X X.   ",
"  .  X3X3X3XK.- - - - & & & & % % % % o o X X X O @ @ 7 8 a Z K L L T T T T v.3X3X3X3X3X3Xn.R E E Y Y I H F d e q < = * % & & & & - & & M 1X3X3X X.   ",
"  .  X3X3X3XK.- - & - & & & % % % o % o o X X O O @ $ 7 i a S K L T T T T ~ .X3X3X3X3X3X-X3.E R R Y U P H g p q 2 , * % = % & & & & - & M 1X3X3X X.   ",
"  .  X3X3X3XK.- - & & & & & & % % o % o X o X + + @ 0 8 i A S P L R T R T f.1X3X3X3X3X3XU.Q R E E U U H F s e q 1 * * % & & & & & - & - M 1X3X3X X.   ",
"  .  X3X3X3XK.- - - - & & & % & % % o % o o X + # $ w i s S K L L R T R ! /.3X3X3X3X3X,Xi.R R E Y Y I H F p q 2 < * * % & % & & - & - - M 1X3X3X X.   ",
"  .  X3X3X3XK.- - & & & & & % % % % o o % o o # # 0 w i A D P U R R R R p.1X3X3X3X3X3X/.! E R Y Y U P F s e q 1 , * % & % & & & & - & - M 1X3X3X X.   ",
"  .  X3X3X3XK.- - - - - & & & % % % % o o o + , 1 0 i s D P U U R R R W W.3X3X3X3X3X1Xf.E R E R Y P H F s q 2 1 * * % % % & & & & - - - M 1X3X3X X.   ",
"  .  X3X3X3XK.- - - & & & & & % % % % o o o + 1 1 w p A H K U R E R R q.,X3X3X3X3X3X.X^ E R E Y P P G s p 0 1 * * % % % & & & & - - & - M 1X3X3X X.   ",
"  .  X3X3X3XK.- - - - & & & & % % % % % * * # 1 0 i s H P P Y Y R E E C.3X3X3X3X3X3Xb.E E E Y Y P P F s e q 1 * * % % & & & & & & - - - M 1X3X3X X.   ",
"  .  X3X3X3XK.- - - - - & & & & % % % o * * , 1 q p F H P U E E E R 3.#X3X3X3X3X3X#X3.R E E Y U P H g p q 1 , * % % % % & & & & & - - - M 1X3X3X X.   ",
"  .  X3X3X3XK.- - - & & - & & & % & % % * * 1 q e s F H U Y Y E E E b.3X3X3X3X3X3XC.Q E E E Y U H F s q 2 1 * * % = & % & & & - - & - - M 1X3X3X X.   ",
"  .  X3X3X3XK.- - - - & & & & & % % % * = , 2 q p g H P Y Y E E E &.XX3X3X3X3X3X,Xe.E E E E Y P H F p q 1 , * % % = % & & & & - - - - - M 1X3X3X X.   ",
"  .  X3X3X3XK.- - - - - - & & & & & = % * < q e g G I I Y E } E E k.3X3X3X3X3X3X!.X.E E Y Y I I G s p q 2 , * % & % & % & & - & - - - - M 1X3X3X X.   ",
"  .  X3X3X3XK.- ; - - - - & & & & % = = < 2 q d g G I Y Y E } E #.(.3X3X3X3X3X1Xg.E E } E Y I H F d e 2 < * % % % & & & & & & - - - ; - M 1X3X3X X.   ",
"  .  X3X3X3XL.; - - - - - - & - & & = = < r y d G J I Y } } E } a.1X3X3X3X3X3X.X$.E E } Y I I G g e q 2 * * = % & % & & & - & - - - - - M 1X3X3X X.   ",
"  .  X3X3X3XK.- - - - - & & - & & & = < < r y h J I [ Y } } } X.W.3X3X3X3X3X2Xc.E } E } Y I J F d e 2 1 = * % = & & & - - & - - - - - - M 1X3X3X X.   ",
"  .  X3X3X3XK.; ; ; - - - - & - - = : 3 5 y d G J ' [ [ } } } y.,X3X3X3X3X3X@X4.} E } Y [ I J g d q 2 < = % % & & & & & & - - - - ; ; - M 1X3X3X X.   ",
"  .  X3X3X3XK.- - ; - - - - - & - & : 3 r u h G _ [ [ } } | } S.3X3X3X3X3X3XZ.X.} } [ Y I J G g y q < = = & & & & & - & & - - - - - - ; M 1X3X3X X.   ",
"  .  X3X3X3XL.; ; - - - - - - - : = 3 5 r f h _ ' ' [ } } } 0.$X3X3X3X3X3X:Xw.} } } [ [ I J h d y 2 < = = % % & & & & & - - - - - - ; - N 1X3X3X X.   ",
"  .  X3X3X3XK.; ; - - - - - - - - : 3 5 u f G _ ' [ } } | } N.3X3X3X3X3X3XR.X.} } [ [ [ J G g y r 2 = = = & & & & & & - - - - - - ; - - N 1X3X3X X.   ",
"  .  X3X3X3XK.; ; ; ; - ; - - : : : 3 6 u h ( _ { [ { | } *.oX3X3X3X3X3X1Xa.| } } } [ ' J G f y 5 < = = & & & & & - - & - - - - ; - ; ; N 1X3X3X X.   ",
"  .  X3X3X3XL.; ; ; - - ; - - - : > 3 t u h _ _ ' | } | | z.3X3X3X3X3X3X`.$.} } } [ [ I ( h d r 5 = : & & & & - & - - - - - - ; - ; ; ; N 1X3X3X X.   ",
"  .  X3X3X3XL.; ; - ; ; - - ; : : 3 6 t v n _ ] { { | | %.`.3X3X3X3X3X2Xm.| } | | ' ' _ G f y 5 3 = = & - & & - - - - - - - ; - ; - ; ; N 1X3X3X X.   ",
"  .  X3X3X3XL.; ; ; ; - ; - ; : > : 6 t v n _ ' { [ | | s.1X3X3X3X3X3XoX%.| } | [ ' ' _ h u r 5 3 : = & - & - & - - - - - - - ; ; ; ; ; N 1X3X3X X.   ",
"  .  X3X3X3XL.; ; ; ; ; ; - - ; : 3 6 t f n ` ] { | | ..Q.3X3X3X3X3X3XN.| | | } { ' _ ( h u t 3 3 & : - & - - - - - - ; ; ; - ; ; ; ; ; N 1X3X3X X.   ",
"  .  X3X3X3XL.; ; ; ; ; ; - ; : > > 6 t v n ` ] { | | o.^.3X3X3X3X1X`.6.} | | { { ' _ n f t 5 3 : : & - & - - - - - - - - - ; ; ; ; ; ; N 1X3X3X X.   ",
"  .  X3X3X3XL.j j ; ; ; ; ; ; ; > > 6 t c n ` ` { { | O.-.s.j.j.j.u.=.| | | | { ' _ ( n u r 5 : : & - - - - - - ; - ; - ; ; ; ; ; ; j ; N 1X3X3X X.   ",
"  .  X3X3X3XL.j j ; ; ; ; ; ; ; > > 4 t c b _ ` ] { O.O.O.O.O.O.| { O.| | { { ] ' ( n v t 5 3 : : - - - - - - ; - - ; - ; ; ; ; ; j j ; C 1X3X3X X.   ",
"  .  X3X3X3XL.j j ; j ; ; ; ; ; > > 4 z x v ( ` ] { { { O.O.O.O.| O.| O.| { { ] _ ( n u t 4 4 : : - - - - - - - ; - ; ; ; ; ; ; ; j j ; C 1X3X3X X.   ",
"  .  X3X3X3XL.j j j j ; j ; ; ; ; > 4 z x v b ) ` ] ] { O.O.O.O.O.O.| { { ] ] ` ( b u t 6 3 : : - - - - - - ; ; ; ; ; ; ; ; ; ; j j j j N 1X3X3X X.   ",
"  .  X3X3X3XL.j j j j ; ; ; ; ; ; ; > 4 6 x v m ) ` ] ] ] ] ] ] ] { ] ] ] ` ( ( n v t 6 > : : - - - - ; ; - ; - - ; - ; ; ; ; ; ; j j j C 1X3X3X X.   ",
"  .  X3X3X3XP.C N C C C N N N N V V >.>.,.<.<.:.1.2.8.5.5.5.7.7.6.6.5.5.2.2.2.1.;.;.<.,.>.>.B B M M M M M N M N N N M N N N N N N C C N 9.1X3X3X X.   ",
"  .  X3X3X3X3X1X1X1X1X1X1X1X1X1X1X1X,X,X:X&X%X+XOX[.[.].].].].].].].].].].[.OX+X%X%X&X:X:X1X,X1X1X1X1X1X1X1X1X1X1X1X1X1X1X1X1X1X1X1X1X1X2X3X3X3X X.   ",
"  .  X3X3X3X3X3X3X3X3X3X3X3X3X3X3X3X2X2X<X<X>X*X*X%X+X+XOXOXOX[.OXOXOXOX+X+X%X*X*X>X<X2X2X3X3X3X3X3X3X3X3X3X3X3X3X3X3X3X3X3X3X3X3X3X3X3X3X3X3X3X X.   ",
"  .  X3X3X3X3X3X3X3X3X3X3X3X3X3X3X3X3X3X3X2X<X<X>X*X*X%X%X%X%X%X%X%X%X%X*X>X>X>X<X2X2X3X3X3X3X3X3X3X3X3X3X3X3X3X3X3X3X3X3X3X3X3X3X3X3X3X3X3X3X3X X.   ",
"  . B. X X X X X X X X X X X X X X X X X|.|.}.}.}.{.{.E.E.E.E.E.E.E.E.E.E.{.{.}.|.|.|.|. X X X X X X X X X X X X X X X X X X X X X X X X X X X XB..   ",
"    . . . . . . . . . . . . . . . . . . . . . . . . . . . . . . . . . . . . . . . . . . . . . . . . . . . . . . . . . . . . . . . . . . . . . . .     ",
"                                                                                                                                                      "
};
