/* XPM */
static char *__[] = {
/* columns rows colors chars-per-pixel */
"75 75 93 2",
"   c #010100",
".  c #0B0B00",
"X  c #141400",
"o  c #1B1B00",
"O  c #141414",
"+  c #232300",
"@  c #2C2C00",
"#  c #333300",
"$  c #3C3C00",
"%  c #363636",
"&  c #3A3A36",
"*  c #444400",
"=  c #4B4B00",
"-  c #535300",
";  c #5C5C00",
":  c #646400",
">  c #696906",
",  c #6C6C0C",
"<  c #6F6F10",
"1  c #717114",
"2  c #75751B",
"3  c #78781F",
"4  c #56562F",
"5  c #5C5C2E",
"6  c #434334",
"7  c #4B4B32",
"8  c #525230",
"9  c #63632C",
"0  c #6B6B2A",
"q  c #767627",
"w  c #7B7B24",
"e  c #717128",
"r  c #7F7F2A",
"t  c #616161",
"y  c #81812D",
"u  c #858534",
"i  c #878738",
"p  c #8A8A3C",
"a  c #8E8E43",
"s  c #909046",
"d  c #92924B",
"f  c #969650",
"g  c #999956",
"h  c #9C9C5B",
"j  c #9F9F60",
"k  c #A1A163",
"l  c #A6A66B",
"z  c #A8A86E",
"x  c #ABAB73",
"c  c #AFAF7A",
"v  c #B1B17D",
"b  c #B5B584",
"n  c #BFBF84",
"m  c #BABA8B",
"M  c #B6B695",
"N  c #BDBD92",
"B  c #B2B29C",
"V  c #ACACA4",
"C  c #A9A9A9",
"Z  c #BCBCBC",
"A  c #C0C083",
"S  c #C3C39B",
"D  c #C6C6A1",
"F  c #C8C8A4",
"G  c #CDCDAC",
"H  c #D2D2B4",
"J  c #DBDBB6",
"K  c #D6D6BB",
"L  c #DBDBBC",
"P  c #F9F9AC",
"I  c #F9F9B4",
"U  c #FDFDBC",
"Y  c #DBDBC3",
"T  c #DCDCCC",
"R  c #DBDBD3",
"E  c #DBDBDB",
"W  c #E1E1CD",
"Q  c #FDFDC3",
"!  c #FEFECB",
"~  c #E5E5D3",
"^  c #EAEADC",
"/  c #FEFED4",
"(  c #F7F7DC",
")  c #FFFFDC",
"_  c #E2E2E2",
"`  c #EEEEE3",
"'  c #F3F3E5",
"]  c #FFFFE3",
"[  c #F4F4EC",
"{  c #FFFFEB",
"}  c #F6F6F5",
"|  c #FDFDF4",
" . c #FFFFFF",
/* pixels */
"                                                                                                                                                      ",
"    O O O O O O O O O O O O O O O O O O O O O O O O O O O O O O O O O O O O O O O O O O O O O O O O O O O O O O O O O O O O O O O O O O O O O O O     ",
"  O Z E E E E E E E E E E E E E E E E E E E E E E E R R R R T R T R T T T T T T T T T R R R R R E E R E E E E E E E E E E E E E E E E E E E E E Z O   ",
"  O E  . . . . . . . . . . . . . . . . . . . .| | | | | | | { { { { { { { { { { { { { { { { | | | |  .| |  . . . . . . . . . . . . . . . . . . .E O   ",
"  O E  . . . . . . . . . . . . . . . .| |  .| | | | { { { ] ) ] ) ) ) ) ) ) ) ) ) ) ] ] ] ] ] { ] { | | | |  . . . . . . . . . . . . . . . . . .E O   ",
"  O E  . . . . . . . . . . . . . . . . . .| | | { { ] ] ) ) ) ) / / / / / / ! / / / / / ) ) ) ] ] { { { | | |  . . . . . . . . . . . . . . . . .E O   ",
"  O E  . . ._ C C C C C C C C C C C C V V B B B M M N m m m A m n n n n n n n n A A n n n n m m m N M B B B B V V C C C C C C C C C C C Z  . . .E O   ",
"  O E  . . .C                     . . . X o o + @ @ # # $ $ * * * * = * = = * = * = * * * $ $ $ # # @ + + o X X . .                     % }  . .E O   ",
"  O E  . . .C                   . . . X o + @ @ # $ * * = = = - - - - - - - - - - - - = = = = * * $ # # @ + + X X . .                   % }  . .E O   ",
"  O E  . . .C                 . . X X o + @ # $ * * = = - - - - ; ; ; - ; ; ; ; - ; - ; ; - - - = = * * $ @ @ + X X . . .               % }  . .E O   ",
"  O E  . . .C               . . X X o + @ # $ = = - - ; ; ; ; ; : ; ; : ; ; : ; : ; : ; ; ; ; ; ; - - * * $ # + o o X . .               % }  . .E O   ",
"  O E  . . .C             .   . X o + @ # * = = - - ; ; ; ; : ; : ; : : : : : : : ; : : ; : ; ; ; ; - = = * $ # @ o X . . .             % }  . .E O   ",
"  O E  . . .C               . . o + @ $ $ = - - ; ; ; : ; : : : : : : ; : : : : : : : : : : ; : ; ; ; - - = * # @ + o X . .             % }  . .E O   ",
"  O E  . . .C           . . X X o @ # $ = - - ; ; : : : : : : : : < w r u s s u r q , : : : : : : : : ; ; - = * $ @ + o . . .           % }  . .E O   ",
"  O E  . . .C           . . X o + @ $ * = - ; ; ; : : : : : q j N K ^ [ } } | } [ ^ K N f 1 : : : : : ; ; - - = $ # @ o X .             % }  . .E O   ",
"  O E  . . .C           . X X o @ $ * = - ; ; : : : : : u m ^ |  . . . . . . . . . . . .| T x 2 : : : : : ; - = * $ @ + X . . .         % }  . .E O   ",
"  O E  . . .C         . . . o + # $ = - - ; : : : : < l `  . . . . . . . . . . . . . . . . . .L a : : : ; ; ; - = * # + o X . . .       % }  . .E O   ",
"  O E  . . .C         . . X o @ # * = - ; : ; : : < N  . . . . . . . . . . . .|  . . . . . . . .` d : : : : ; - = * $ @ o X . .         % }  . .E O   ",
"  O E  . . .C           . X + # $ * - - ; ; : : < N |  . . . . . .| [ ~ T H W ~ [  . . . . . . . .^ i : : ; ; - - * $ @ + X . .         % }  . .E O   ",
"  O E  . . .C       . . X o + # $ = - ; : : : : k |  . . . . .| Y l y 2 1 < 1 3 i x T |  . . . . . .G , : : : ; - = * # @ o X . .       % }  . .E O   ",
"  O E  . . .C       . . X o @ # * = ; ; ; : : 2 T  . . . . .| v 1 : : : : > : : : : 2 m }  . . . . .} s : : : ; - = * # @ o X . .       % }  . .E O   ",
"  O E  . . .C     . . . X + @ # * - - ; : : : k  . . . . .| b , : : : : : : : > : : : , m  . . . . . .N : : : ; ; - * $ @ o X X   .     % }  . .E O   ",
"  O E  . . .C       . . o + # $ = - ; ; ; : > F  . . . . .W 3 : : : : : : > > : : : : : w W  . . . . .T < : : ; ; - = $ @ + o .         % }  . .E O   ",
"  O E  . . .C       . X X + @ * * - ; ; : : 2 ~  . . . . .b : : > > : : > : : > : : : : : m  . . . . .^ w : ; : - - = $ # + X X . .     % }  . .E O   ",
"  O E  . . .C       . . o + # $ = - ; : : ; y `  . . . . .g : : : > > : : > : : : > : : : h  . . . . .' u : : ; ; - = $ # + o .         % }  . .E O   ",
"  O E  . . .C     . . . o + # $ = - ; ; : : p [  . . . .| d : : : : : : > : : > > : : > : d |  . . . .` i : : : ; - = $ # + X X . .     % }  . .E O   ",
"  O E  . . .C     . . . X + # $ = - ; ; : : p }  . . . . .d : : > : : > : > > : > : : > : f |  . . . .` r : : ; ; - * $ # + o .         % }  . .E O   ",
"  O E  . . .C       . X o + # * = - ; : ; : u `  . . . . .v : : : > > : : : > : : > : : : v  . . . . .T < : : ; ; - = $ @ + X X . .     % }  . .E O   ",
"  O E  . . .C       . . X + @ $ * - ; ; : : 1 ~  . . . . .Y 1 : > : : > > : : > : > : > , K  . . . . .N > : ; ; ; - * $ @ + X . .       % }  . .E O   ",
"  O E  . . .C     . . . X + @ $ * - ; : ; : > S  . . . . .} k : : : > : : > > : : : : : h }  . . . .[ a : : : ; - = * # @ o X . .       % }  . .E O   ",
"  O E  . . .C       . . X o @ $ * = ; ; : : : f }  . . . . .^ p : > > : : : : : : : : y ~  . . . . .G , : : ; ; - = * # + o X .         % }  . .E O   ",
"  O E  . . .C       . . X o @ # * = - ; ; : : < G  . . . . . .~ d : : : > > : > : : r K  . . . . .` p : : : ; ; - = $ # + o X . .       % }  . .E O   ",
"  O E  . . .C         . X o + # $ = - ; ; : : : p ^  . . . . . .( l , : : : : : : i Y  . . . . .} l : : : : ; - - * $ @ + X X .         % }  . .E O   ",
"  O E  . . .C         . . o + @ $ = = ; ; : : : : k [  . . . . . .} G p > : : , h ~  . . . . .} v > : : : ; ; ; - * # @ o X . . .       % }  . .E O   ",
"  O E  . . .C         . . X + @ $ * = ; ; : : : : > z [  . . . . . . .` b y i F |  . . . . .' z , : : : : : ; - = * # @ o X .           % }  . .E O   ",
"  O E  . . .C       . . . X o @ # * - - ; : : : : : > g ^  . . . . . . . .^ '  . . . . . .W f > : : : : : : ; - = * # @ o . . .         % }  . .E O   ",
"  O E  . . .C         . . X o @ # * = - ; ; : : : : : : u G |  . . . . . . . . . . . .' A y : : : : > : : : ; ; = $ # + o X . .         % }  . .E O   ",
"  O E  . . .C         . . X o @ $ * = ; ; : : : : : : > : 1 l W  . . . . . . . . . .} l , : : : : > : : : : ; - - * $ @ + X . .         % }  . .E O   ",
"  O E  . . .C         . . o o @ $ * = ; ; : : : : : > : : : 1 b }  . . . . . . . . . .~ c w : : : : : : : ; ; - = * $ @ + X . .         % }  . .E O   ",
"  O E  . . .C         . . o + @ $ * = ; : : : : > > : : , f L }  . . . . . . . . . . . .| W h , : > > : : : : ; - = $ # + o . . .       % }  . .E O   ",
"  O E  . . .C       . . . o + # $ = - ; : : : : : : : y S [  . . . . . .( ^  . . . . . . . .} S r : : : : : ; ; - = * # @ o X . .       % }  . .E O   ",
"  O E  . . .C       . . X o @ $ * = - ; ; : : : : : f ~  . . . . . .' N u y v ^  . . . . . . . .T s : : : : : ; - - * $ @ + X X .       % }  . .E O   ",
"  O E  . . .C     . . X o + # $ * - ; ; : : : : > x '  . . . . .| G a > : : : y N '  . . . . . . .^ f : : : : ; ; - = $ # + o X . .     % }  . .E O   ",
"  O E  . . .C       . X o + # $ = - ; ; : : : > x }  . . . . .` z , : : : > : : > a K |  . . . . . .^ a : : : : ; - = * # @ + X . .     % }  . .E O   ",
"  O E  . . .C   .   . X o @ $ * = ; ; : : : : k }  . . . . .W s > : > : > : : > > : 2 v [  . . . . . .T q : : ; ; - - = $ @ + o . .     % }  . .E O   ",
"  O E  . . .C     . . o + @ $ * - - ; : : ; u ^  . . . . .W i : : : : : > : > : : : : , k [  . . . . .| b > : : : ; - = $ # + o X . .   % }  . .E O   ",
"  O E  . . .C     . X o @ # * = - ; ; : : > N  . . . . .[ d : > : : : > : : > : : : : : : z |  . . . . .^ r : ; : ; - = * # @ o . . .   % }  . .E O   ",
"  O E  . . .C   . . X o @ # * = - ; ; : : u '  . . . . .m > : : : : : : > : : > : : : : : , F  . . . . . .l : : : ; - - * $ @ o X . .   % }  . .E O   ",
"  O E  . . .C   . . X + @ $ * = - ; : : : z  . . . . .' i : : > : : > : : > : : : > > : : : s [  . . . . .D > : : ; - - * $ @ + X . .   % }  . .E O   ",
"  O E  . . .C   . . X + # $ * - ; : : : > D  . . . . .Y 1 : > : > > : : : : > > > : : > : : 1 W  . . . . .K , : : ; ; - = $ @ + o . .   % }  . .E O   ",
"  O E  . . .C . . . o + # $ = - ; ; ; : , K  . . . . .G > : : > : : : > > : > : : : : : > : : H  . . . . .T < : : : ; - = $ # + X X .   % }  . .E O   ",
"  O E  . . .C   . . X + @ $ = - ; ; : : < T  . . . . .G : > : : : > > : : > : : : > > : > : : G  . . . . .Y , : : ; - - = $ @ + X . .   % |  . .E O   ",
"  O E  . . .C   . X X + # $ = - ; ; : : , Y  . . . . .K , : : > > > : > > : : > : > : : : : , H  . . . . .G , : : ; ; = * $ @ + o . .   & }  . .E O   ",
"  O E  . . .C . . . o + @ $ = - ; : : : , H  . . . . .^ w : : : : : : : : : > : > : : > : : w ~  . . . . .N > ; : ; ; - * $ @ + X . .   % }  . .E O   ",
"  O E  . . .C     . o + @ $ * - - ; : : > N  . . . . .| k : : : : > > : : > > : : > > : : : j |  . . . .| j : : ; ; - - * # @ o X . .   % }  . .E O   ",
"  O E  . . .C   . . X o @ $ * = ; ; ; : : h }  . . . . .W r : : > : : > > : : > : : > : : r W  . . . . .` w : : : ; - = * # @ o X .     % }  . .E O   ",
"  O E  . . .C   . . X o @ # * = - ; : : : q ~  . . . . . .H w : : : : : : : : : : : : : y H  . . . . . .N > : : ; ; - * $ # + o X .     % }  . .E O   ",
"  O E  . . .C     . . o + # $ = - ; ; : : : x  . . . . . . .~ l 3 , : : : : : : : > 3 j W  . . . . . .^ u : : : ; ; - * $ @ + X .       % }  . .E O   ",
"  O E  . . .C     . . X o @ $ * - - ; : : : < K  . . . . . . .| ~ S c h d a d h x S ~ }  . . . . . .} l : : : ; ; - = * # @ o X . .     % }  . .E O   ",
"  O E  . . .C     . . X o @ # * = - ; ; : : : u Y  . . . . . . . . . .| | [ | |  . . . . . . . . .} x > : : : ; - - = $ @ + o X . .     % }  . .E O   ",
"  O E  . . .C       . X o + # $ * - ; ; : : : : r H |  . . . . . . . . . . . . . . . . . . . . .^ l , : : : ; ; - = * $ @ + X X .       % }  . .E O   ",
"  O E  . . .C       . . X + @ # * = - ; ; ; : : : 1 l ^  . . . . . . . . . . . . . . . . . .[ S y : : : : : ; - - * $ # + o X . .       % }  . .E O   ",
"  O E  . . .C     .   . X o + # $ = - - ; ; : : : : : w l H `  . . . . . . . . . . . .[ T b i , : : : ; ; ; ; - = * # @ o X . . .       % }  . .E O   ",
"  O E  . . .C       . . . X + @ # $ = = ; ; ; ; : : : : : , r d c D G K Y Y K G F m g i 2 : : : : : ; : ; ; - = * $ # + o X . .         % }  . .E O   ",
"  O E  . . .C         . . . o + @ # * = - - ; ; : : : : : : : ; : : : , , < , : : : : : : : : : ; : ; ; ; - = * $ # + o X X .           % }  . .E O   ",
"  O E  . . .C         . . . X o + # # * * - - ; ; ; : : ; : : : : : : : : : : : : : ; : : : ; : ; ; ; - - = * $ # @ o o X . .           % }  . .E O   ",
"  O E  . . .C             . . X o + # # * * = - - ; ; ; ; ; ; : ; : : : ; : : ; : ; : ; : ; ; ; ; ; - - = * $ # @ + o X . .             % }  . .E O   ",
"  O E  . . .C               . . X o + @ # # * * = = = - - ; - ; ; ; ; ; ; ; ; ; ; ; ; ; ; - - - = = * * $ # @ @ + X . .                 % }  . .E O   ",
"  O E  . . .Z % % % % % & & & 6 6 7 4 4 5 5 5 9 0 0 e q w w w w w w r 3 w w w w w w r w w q q q 0 0 0 9 9 4 4 8 8 6 6 & & & % % % % % % t |  . .E O   ",
"  O E  . . . .} } } } } } } } } [ [ ' ' ( / ! Q Q U U I I I I P P P P P P P P P P P P P P I I I U I Q ! / ( ( ( [ [ | [ } } } } } } } } }  . . .E O   ",
"  O E  . . . . . . . . . . . .| | | | { ] ] ) ) / ! ! Q Q Q U Q U U U U U U U U U U U U Q Q Q ! / / / ) ] ] { { | | |  . . . . . . . . . . . . .E O   ",
"  O E  . . . . . . . . . . . . . . .| | | { { ] ] ] ) ) / / ! ! ! ! ! ! Q Q ! Q ! ! ! / / / / ) ) ) ] { { | | | |  . . . . . . . . . . . . . . .E O   ",
"  O Z E E E E E E E E E E E E E E R E R R R T T Y Y Y L L L L L J J J J J J J J J J J L L L L Y Y Y T T T R R E R E E E E E E E E E E E E E E E Z O   ",
"    O O O O O O O O O O O O O O O O O O O O O O O O O O O O O O O O O O O O O O O O O O O O O O O O O O O O O O O O O O O O O O O O O O O O O O O     ",
"                                                                                                                                                      "
};
