/* XPM */
static char *be_[] = {
/* columns rows colors chars-per-pixel */
"25 25 48 1",
"  c #000000",
". c #040404",
"X c #272727",
"o c #2A2A2A",
"O c #333333",
"+ c #373737",
"@ c #393939",
"# c #3C3C3C",
"$ c #404040",
"% c #434343",
"& c #4B4B4B",
"* c #4C4C4C",
"= c #535353",
"- c #5B5B5B",
"; c #686868",
": c #6A6A6A",
"> c #6D6D6D",
", c #717171",
"< c #767676",
"1 c #7F7F7F",
"2 c #828282",
"3 c #868686",
"4 c #919191",
"5 c #949494",
"6 c #999999",
"7 c #9C9C9C",
"8 c #A3A3A3",
"9 c #A7A7A7",
"0 c #ABABAB",
"q c #AEAEAE",
"w c #B0B0B0",
"e c #B7B7B7",
"r c #BDBDBD",
"t c #C6C6C6",
"y c #CBCBCB",
"u c #CFCFCF",
"i c #D0D0D0",
"p c #D7D7D7",
"a c #DADADA",
"s c #DFDFDF",
"d c #E3E3E3",
"f c #E6E6E6",
"g c #E9E9E9",
"h c #EDEDED",
"j c #F2F2F2",
"k c #F5F5F5",
"l c #FBFBFB",
"z c #FFFFFF",
/* pixels */
"             .           ",
"             X$.         ",
"             @0@         ",
"             @p1+        ",
"             @h0>+       ",
"   @$######@@-fa2,+      ",
"   5t544444444qgw1,O.    ",
"   6zieeeeeeeeeud91,O.   ",
"   6zzjjjjjjjjjjkd91>O   ",
"   6zzzzzzzzzzzzzls92<+  ",
"   6zzzzzzzzzzzzzzhr86$  ",
"   6zzzzzzzzzzzzzhtq6&   ",
"   6zjghghghhghkht06*    ",
"   6haaaaaaaapdkyq6&.    ",
"   $>;>;>;;;;3jfq7*.     ",
"             +hy7*.      ",
"             @d9*        ",
"             @r=.        ",
"             o=.         ",
"             ..          ",
"                         ",
"                         ",
"                         ",
"                         ",
"                         "
};
