/* XPM */
static char *be_[] = {
/* columns rows colors chars-per-pixel */
"25 25 75 1",
"  c #000000",
". c #020200",
"X c #080800",
"o c #0B0B02",
"O c #0F0F00",
"+ c #0D0D03",
"@ c #111100",
"# c #111103",
"$ c #1B1B01",
"% c #1C1C01",
"& c #1F1F03",
"* c #323205",
"= c #464602",
"- c #484802",
"; c #494902",
": c #595901",
"> c #616101",
", c #696900",
"< c #6E6E00",
"1 c #64640B",
"2 c #67670C",
"3 c #69690B",
"4 c #727200",
"5 c #757503",
"6 c #797901",
"7 c #7E7E00",
"8 c #7A7A0A",
"9 c #818103",
"0 c #848405",
"q c #868606",
"w c #8A8A00",
"e c #8D8D00",
"r c #8A8A06",
"t c #919103",
"y c #9F9F00",
"u c #A4A401",
"i c #A5A501",
"p c #A2A206",
"a c #A4A407",
"s c #ACAC00",
"d c #AEAE02",
"f c #AAAA06",
"g c #AFAF05",
"h c #B5B501",
"j c #B8B801",
"k c #BEBE01",
"l c #B6B60A",
"z c #BCBC11",
"x c #C4C402",
"c c #C8C801",
"v c #CACA01",
"b c #CECE06",
"n c #D8D800",
"m c #DCDC02",
"M c #D9D904",
"N c #D3D30A",
"B c #D9D908",
"V c #E3E302",
"C c #E4E400",
"Z c #E6E606",
"A c #ECEC01",
"S c #EBEB07",
"D c #E2E20F",
"F c #F5F501",
"G c #FBFB02",
"H c #FDFD03",
"J c #FAFA04",
"K c #FCFC04",
"L c #F5F50E",
"P c #FCFC0A",
"I c #EAEA11",
"U c #E9E913",
"Y c #FBFB13",
"T c #FFFF18",
"R c #FFFF25",
/* pixels */
"                         ",
"              $O         ",
"              :>X        ",
"              ,h-X       ",
"              ,V9=X      ",
"    OOOOOOOOOX<Gp5-X     ",
"   Oe744444444wVBq6-X    ",
"   @cmiyyyyyyyysDzq5=X   ",
"   @cKUMnnnnnnnnZUlq5=X  ",
"   @cKRTHKKKKKHHKKSlq5-X ",
"   @cKRTKKKKKKKKKKKCgtr* ",
"   @vKRTPKPKPPKPKKFNsa3X ",
"   @cKYJGGGGHGFJPLcsa3+  ",
"   @cFVVmVmVVVmCLNgp2X   ",
"   @ikjjhjjjjhcFZga2o    ",
"   .$%%%%%%%%$6Hxa3+     ",
"              ,Af2+      ",
"              <b3+       ",
"              >8+        ",
"              &@         ",
"                         ",
"                         ",
"                         ",
"                         ",
"                         "
};
