/* XPM */
static char *be_[] = {
/* columns rows colors chars-per-pixel */
"25 25 95 2",
"   c #000000",
".  c #000304",
"X  c #02080A",
"o  c #02080B",
"O  c #000A0E",
"+  c #030B0E",
"@  c #030D11",
"#  c #001720",
"$  c #011821",
"%  c #011F2A",
"&  c #00222F",
"*  c #002330",
"=  c #002432",
"-  c #012B3B",
";  c #012C3B",
":  c #052D3C",
">  c #003C54",
",  c #003D54",
"<  c #0B485F",
"1  c #0B495F",
"2  c #014761",
"3  c #024761",
"4  c #0B4A62",
"5  c #0B4B62",
"6  c #054F6B",
"7  c #004F6C",
"8  c #045473",
"9  c #045574",
"0  c #0B5772",
"q  c #035D7F",
"w  c #036082",
"e  c #026184",
"r  c #04678B",
"t  c #006890",
"y  c #006990",
"u  c #056A90",
"i  c #016C92",
"p  c #0A6F92",
"a  c #07729A",
"s  c #07739B",
"d  c #00739C",
"f  c #06759E",
"g  c #0177A0",
"h  c #0277A3",
"j  c #0785AE",
"k  c #0183B0",
"l  c #0286B4",
"z  c #0089BB",
"x  c #018FBE",
"c  c #008DC0",
"v  c #008DC1",
"b  c #008EC2",
"n  c #0690C0",
"m  c #0091C6",
"M  c #0797C6",
"N  c #0096CC",
"B  c #0A95C8",
"V  c #0B9FC9",
"C  c #009ED8",
"Z  c #11A1CD",
"A  c #02A1DA",
"S  c #01A6DF",
"D  c #08ABDA",
"F  c #0FB0DB",
"G  c #12B5DE",
"H  c #01A5E0",
"J  c #01ABE4",
"K  c #01AAE8",
"L  c #01AFEB",
"P  c #04ADEC",
"I  c #02B2EB",
"U  c #02B0EF",
"Y  c #02B1EF",
"T  c #07B1EC",
"R  c #03B4EE",
"E  c #09B6EC",
"W  c #03B2F0",
"Q  c #02B7F2",
"!  c #02BBF5",
"~  c #07BFF5",
"^  c #0ABAF1",
"/  c #05B9F9",
"(  c #02BEFA",
")  c #07BCF9",
"_  c #04BBFE",
"`  c #06BFFF",
"'  c #07BFFF",
"]  c #0BC2FB",
"[  c #0ACAFF",
"{  c #0ACCFF",
"}  c #13C5F1",
"|  c #12CCFF",
" . c #1AD3FA",
".. c #25E1FB",
"X. c #2AE8FF",
/* pixels */
"                                                  ",
"                            @                     ",
"                          . 2 %                   ",
"                            i e $                 ",
"                            g v 3 $               ",
"            .     .     . . g I w 3 $             ",
"      # 7 , , , , < , , , , d ! j 9 3 $           ",
"      = H l y y y r y y y y y x G p 9 3 $         ",
"      * I ] V z z z z z z z z z D Z p 9 2 #       ",
"      * L { ..^ U L U U W W W W W T B u 8 3 #     ",
"      * L [ X.| _ _ _ _ ` _ ` _ ` / P B u w 6 @   ",
"      & I [ X.| ` ` ` ` ` ` ` ` ' / K v g s 1 X   ",
"      * L [  ./ / / / / / / / / ] E v h a 1 o     ",
"      * I U A C C C C C C C C S } M g s 1 o       ",
"      & N m v v v v v v v v N Q D g a 5 O         ",
"      O - - - - - - - - - - k ( l a 5 +           ",
"                            g J f 5 +             ",
"                            d n 5 O               ",
"                          . r 0 O                 ",
"                          . : @                   ",
"                                                  ",
"                                                  ",
"                                                  ",
"                                                  ",
"                                                  "
};
