/* XPM */
static char *bfd[] = {
/* columns rows colors chars-per-pixel */
"25 25 129 2",
"   c #251E18",
".  c #281F19",
"X  c #202E15",
"o  c #27231B",
"O  c #2B231C",
"+  c #2F281E",
"@  c #27331C",
"#  c #29381F",
"$  c #2E2621",
"%  c #2F2822",
"&  c #302721",
"*  c #332B25",
"=  c #3B2D26",
"-  c #362F29",
";  c #392E29",
":  c #273721",
">  c #2D3422",
",  c #2D3A22",
"<  c #2F3E29",
"1  c #313426",
"2  c #393226",
"3  c #303C25",
"4  c #36322B",
"5  c #3B332C",
"6  c #353C2B",
"7  c #383F2D",
"8  c #3D3531",
"9  c #3E3A31",
"0  c #41352D",
"q  c #41392E",
"w  c #403632",
"e  c #433B34",
"r  c #493C35",
"t  c #463E38",
"y  c #4A3E3A",
"u  c #034007",
"i  c #044D06",
"p  c #034809",
"a  c #045504",
"s  c #035906",
"d  c #04530A",
"f  c #0E510E",
"g  c #055D0B",
"h  c #0A5B0C",
"j  c #0E4E10",
"k  c #1E4519",
"l  c #1B4B19",
"z  c #0A5213",
"x  c #0D5D12",
"c  c #115314",
"v  c #145D1E",
"b  c #18581E",
"n  c #036206",
"m  c #04640A",
"M  c #0A630B",
"N  c #046B0C",
"B  c #0B6C0F",
"V  c #04730C",
"C  c #09700E",
"Z  c #046516",
"A  c #0F6213",
"S  c #046B13",
"D  c #04661B",
"F  c #056D1B",
"G  c #047111",
"H  c #087111",
"J  c #037C15",
"K  c #05761B",
"L  c #0F711A",
"P  c #047C18",
"I  c #234B23",
"U  c #39482E",
"Y  c #3A4331",
"T  c #384E34",
"R  c #205A30",
"E  c #345033",
"W  c #38593A",
"Q  c #056B20",
"!  c #1F662C",
"~  c #126F2E",
"^  c #047323",
"/  c #0F7425",
"(  c #057C26",
")  c #1F6736",
"_  c #186E32",
"`  c #177C39",
"'  c #276432",
"]  c #3C643D",
"[  c #20783F",
"{  c #424737",
"}  c #494236",
"|  c #47413A",
" . c #4B433C",
".. c #434B3B",
"X. c #48483D",
"o. c #51443D",
"O. c #57483F",
"+. c #42513D",
"@. c #396941",
"#. c #474340",
"$. c #4F4741",
"%. c #4D4943",
"&. c #514541",
"*. c #544B44",
"=. c #564F48",
"-. c #584F48",
";. c #5B534C",
":. c #5D5550",
">. c #446043",
",. c #048419",
"<. c #048919",
"1. c #039317",
"2. c #04A91C",
"3. c #078A24",
"4. c #03832E",
"5. c #0A842B",
"6. c #058D2E",
"7. c #04902F",
"8. c #0D8531",
"9. c #058C32",
"0. c #0A8A33",
"q. c #118737",
"w. c #059231",
"e. c #0A9538",
"r. c #069C3B",
"t. c #06B025",
"y. c #05BD24",
"u. c #06C12A",
"i. c #06C92B",
/* pixels */
" .&.o.w 5 9 e - 5 2 4 w * 5 q *.;.*.} 5 } *. . .&.",
"*.O.& = * - e - 5 2 2 } e 2 2 q 8 t  .e e *.*. .&.",
"o.r O * 5 5 y w ; 5 t  .} * + % = } *.w 4 t  . .} ",
"q 0 + 2 e y t t w t *.&.q * o o 2 w & + 5 } t t e ",
"r e % 4 Y 9 6 Y 7 3 U U 3 # @ X , , # * * * 5 5 5 ",
"5 * % k f z A L A M n B C C h h H H x I 8 } t = t ",
"=   $ j g J ,.<.J V N m m N M i N G d l e  . .0  .",
"* % - b J t.u.i.y.2.1.J V N d s V Z d c {  .y t 0 ",
"; 8 t ! S ,.,.,.S d i i d d M J N d u z 7 &.t 2 * ",
"& $ 9 ' P P P J H s s s g g N V n i u z 1 w e t  .",
"9 w $.@.3.S S S g d a a s n V V N g p v 6 2 5 - * ",
"$. .o.] 7.F K ( ^ ^ F D D Z S K H g Z / Y 9 w $ + ",
"* % ; , 8.7.w.7.6.4.4.4.4.4.4.4.4.Q D 5.< $ % + + ",
"* 5 - o I _ ~ 8.0.5.0.9.9.9.w.r.r.9.( ( : $ * * & ",
"w t 2 O & e 6 Y T E E R ) [ ` q.8.e.4.v > 5 e e w ",
"8  .e $ O 5 w e t y 0 . 7 %.X...+.>.W 1 e t t e 5 ",
"5 5 w * ; $.=.t 8  .0 & w ;.;.*.;.*. .t  .e e 5 * ",
"= * * * ; &.;.$.y &.0 & 0 ;.;.;. .y e y e 2 } w q ",
"; 5 5 * & 4  .:.*.o.; * & 5  .5 & O & w q & &.e * ",
"8 y 0 & 5 8 -  . .t 8 8 w  .r * o o 2 t w * e w * ",
" .e 5 4 e 2 % t #.%.#.e 2 *  .e 9 8 4 * 0 5 5 2 * ",
"5 9 q 5  .*   5 #.t e * O 4 *.w 8 5 5 5 w *.t 2 * ",
"w e 4 * r o o 4 9 % 4 & = *.o.e } 4 - 5 e ;.%.w * ",
"5 6 5 5 } & O 8  .y  .e e *.w  .=.e ; 5 8 }  .5 5 ",
"$ 4 w 8 e & % e } | 4 * % y %.-.e 5 w w e ;.;.& w "
};
