/* XPM */
static char *bfe_[] = {
/* columns rows colors chars-per-pixel */
"25 25 80 1",
"  c #241D16",
". c #2C241D",
"X c #2F281D",
"o c #30291F",
"O c #2F2720",
"+ c #2F2822",
"@ c #312724",
"# c #332B24",
"$ c #392F25",
"% c #362E28",
"& c #382E2A",
"* c #363125",
"= c #393226",
"- c #363129",
"; c #3B342C",
": c #3E392E",
"> c #3E3631",
", c #3F3832",
"< c #40342A",
"1 c #403B2F",
"2 c #403632",
"3 c #433A33",
"4 c #4B3E36",
"5 c #453D39",
"6 c #493F3A",
"7 c #4B4237",
"8 c #46413B",
"9 c #4A433C",
"0 c #4C493B",
"q c #51433D",
"w c #493F40",
"e c #4C4641",
"r c #4D4944",
"t c #4E4C4B",
"y c #514642",
"u c #534A44",
"i c #5A4B45",
"p c #544D4A",
"a c #584849",
"s c #585146",
"d c #54504D",
"f c #5B534C",
"g c #5F5651",
"h c #605B4F",
"j c #635D57",
"k c #625C5B",
"l c #6A645C",
"z c #6C6560",
"x c #6F6B66",
"c c #6D6C6B",
"v c #706B67",
"b c #727170",
"n c #7D7A76",
"m c #7B7B7A",
"M c #817E7A",
"N c #84817E",
"B c #8B8683",
"V c #8B8886",
"C c #98938F",
"Z c #919292",
"A c #999897",
"S c #9C9B9B",
"D c #A09F9E",
"F c #A2A2A2",
"G c #A7A8A8",
"H c #A8A8A8",
"J c #B6B6B6",
"K c #B8B7B7",
"L c #B7B8B8",
"P c #BCBCBC",
"I c #C3C3C3",
"U c #CDCCCB",
"Y c #D5D5D4",
"T c #D9D7D6",
"R c #DAD8D7",
"E c #DAD9D9",
"W c #E5E5E5",
"Q c #ECECEC",
"! c #F4F4F4",
"~ c #FEFEFE",
/* pixels */
"u>;gr>f5wi6>;52%<*-3#=8ss",
"e>%pg&ywi4@$#;3%;-;73==,;",
";%@4ge9,y<.$$>8;%;987X.X-",
"<22-us933$.<5xj3>9p0;X..;",
">,3%,u,39;+,>BAp>#>3--..%",
"8>+33-#<;#+>3BUb5.+;3-#.=",
"e-#>%%#;+ O%@V!Zc5-<3;#%9",
"-#6lddddpttdtV!Pmcp%53%;3",
"##uUJZZZZZZZZZIWSmce5>%>0",
"99sR!IJJJJJJJJLEEAmcu%#-e",
"$2lE~!!!!!!!!!!!!TAmc5#>9",
"@3lE~~~~~~~~~~~~~!YAmb5#>",
"#1pR~~~~~~~~~~~~~~WJFZ0$0",
"#;7Y~~~~~~~~~~~~~WLHDj;85",
"-0fR~QQQQQQQQQQ!WPGAve933",
";0jYWTEEEEETETQ!PGAp59e3y",
">rsnMmMMMMMMNJ~TGAs@9hfyf",
"9phs:*#*%@@#$C!KDl$#3ffu9",
"-;7h0,;;&<-#@VEDz4$%#29-.",
"#o*35,*;29$#;VPl93;;393#.",
"##1y0;&088*=3zk3er82#;93,",
"o#3a5;26>5=:8..>w53+.<y;;",
"-9aw5$%>,,#=3..>>+-+1p948",
"6y223%+%-;;::.#>8w9<4y3qp",
"u6&uy9>%+;>3>.%85,-@%euu,"
};
