/* XPM */
static char *bfe_[] = {
/* columns rows colors chars-per-pixel */
"25 25 107 2",
"   c #221C13",
".  c #251E1A",
"X  c #292216",
"o  c #27211A",
"O  c #2B231C",
"+  c #312A1E",
"@  c #3B341D",
"#  c #2F2721",
"$  c #2F2922",
"%  c #312720",
"&  c #342B25",
"*  c #362D29",
"=  c #382F29",
"-  c #363124",
";  c #393126",
":  c #36312A",
">  c #3C342D",
",  c #3D392D",
"<  c #3E3531",
"1  c #3E3932",
"2  c #41362F",
"3  c #433B2D",
"4  c #4A3F2B",
"5  c #403632",
"6  c #433A34",
"7  c #493E37",
"8  c #463E38",
"9  c #493F3B",
"0  c #4F4B0D",
"q  c #4F4C10",
"w  c #524F11",
"e  c #555012",
"r  c #65630B",
"t  c #68660D",
"y  c #777703",
"u  c #7E7E02",
"i  c #7E7C0F",
"p  c #696510",
"a  c #656218",
"s  c #76721A",
"d  c #484123",
"f  c #474029",
"g  c #4D462C",
"h  c #544D2F",
"j  c #5E5B22",
"k  c #464135",
"l  c #4A4337",
"z  c #46403A",
"x  c #4B433C",
"c  c #4D483E",
"v  c #52443D",
"b  c #5B5333",
"n  c #5E5738",
"m  c #66593C",
"M  c #6D662E",
"N  c #797423",
"B  c #6E6931",
"V  c #736D35",
"C  c #79733B",
"Z  c #4E4642",
"A  c #4E4A43",
"S  c #504742",
"D  c #524A43",
"F  c #5E4D46",
"G  c #574E48",
"H  c #584C4A",
"J  c #5B534C",
"K  c #5D5B4E",
"L  c #60574F",
"P  c #676145",
"I  c #807E0C",
"U  c #817E13",
"Y  c #807C43",
"T  c #8D8D05",
"R  c #919100",
"E  c #888514",
"W  c #89851A",
"Q  c #918E17",
"!  c #94921B",
"~  c #98941F",
"^  c #A5A503",
"/  c #ADAC04",
"(  c #B6B600",
")  c #B4B10F",
"_  c #A5A213",
"`  c #ABA813",
"'  c #A3A218",
"]  c #BFBC19",
"[  c #C4C402",
"{  c #CFCF02",
"}  c #C5C50A",
"|  c #CDCC0C",
" . c #D6D602",
".. c #D9D900",
"X. c #DCDC0B",
"o. c #C9C911",
"O. c #E4E402",
"+. c #EDED02",
"@. c #E7E70B",
"#. c #F2F203",
"$. c #FEFE05",
"%. c #F2F20A",
"&. c #FEFE09",
"*. c #E6E613",
"=. c #FDFD11",
"-. c #FCFC21",
";. c #FFFF2A",
/* pixels */
"D x > = L S > D 9 F 2 O = % 5 > * > ; 6 l , - > , ",
"Z > & & D J x 8 6 S = O ; = 6 7 : & 5 x l 3 O O & ",
"7 < 5 < > J G k 5 5 & + > x N h 1 8 Z G 8 > O X O ",
"> > 1 5 * 7 c > 7 7 ; & 6 6 _ I g < & 1 6 * * O O ",
"2 x * & 6 , * & 6 * & & k 6 ) ( r @ o & 6 5 ; O O ",
"6 x & & < : * = > o . # * * ) O.u r @ > 6 8 ; * * ",
"5 = & h a q e e e w q w w 0 / $.^ y t f * 6 5 = ; ",
"= & * M  .^ T R R T R R R T R  .X.T y r 4 x > ; 6 ",
"l c v V #.@.[ ( ( ( ( ( ( ( ( [ *.o.T y p 4 & & > ",
"& & l Y #.&.-.%.#.#.#.#.#.#.#.#.#.%.} T y r ; & 6 ",
"O + Z P #.&.;.=.$.$.$.$.$.$.$.$.$.$.#.} T u t @ & ",
". & 8 B #.&.;.=.$.$.$.$.$.$.$.$.$.$.$...^ ^ E @ > ",
"& * 1 j #.&.-.&.&.$.$.$.$.$.$.$.&.%...( ^ ! g > z ",
"6 > A V #.#.+.+.+.+.+.+.+.+.+.+.&.X.( ^ Q P x x 1 ",
"> 1 A C O.O. ......... ... ...#.@.( ^ E d x x D 6 ",
"& 1 D n U i i i U U U U U W | $.[ ^ Q d & A J J x ",
"> x J P A , : : * & % & & 6 ] +./ ~ b & & x J J D ",
"* > , c K k > < > > 5 * % * ) { Q m 6 & & & 6 l * ",
"* & + ; l 6 > : > 6 7 & * 6 ` ' n x 1 > 5 6 x < # ",
"+ & & k A x : > c 6 6 ; < 7 s h 8 Z Z 8 5 & 1 l 5 ",
"= % * 9 S 6 > 6 6 , 6 : 6 6 X # 1 z 8 < O + 8 x > ",
"* = Z H x 6 & > < 6 1 & , >   & 1 * & * + 7 D 7 9 ",
"= x 9 5 6 5 & % * : > > 6 > O & 8 Z 9 x > D 7 7 D ",
"& H < 5 H Z 7 < & $ 1 > 6 > o > z z 1 & O ; x H Z ",
"% 8 * 9 H D D 6 & # & # * & # 8 Z 1 : . & & 1 Z 1 "
};
