/* XPM */
static char *bfe_[] = {
/* columns rows colors chars-per-pixel */
"25 25 120 2",
"   c #231C13",
".  c #271F18",
"X  c #2B231C",
"o  c #2E281F",
"O  c #31291E",
"+  c #1C2F36",
"@  c #242723",
"#  c #2F2720",
"$  c #2E2822",
"%  c #302720",
"&  c #332B24",
"*  c #352E29",
"=  c #3A2F2D",
"-  c #353125",
";  c #393326",
":  c #35312A",
">  c #3B332C",
",  c #3E392E",
"<  c #213135",
"1  c #2D3535",
"2  c #25353A",
"3  c #3E3631",
"4  c #3E3932",
"5  c #353D3D",
"6  c #3E3B39",
"7  c #41362E",
"8  c #42382E",
"9  c #413531",
"0  c #433B34",
"q  c #493D36",
"w  c #453E39",
"e  c #493F3B",
"r  c #454035",
"t  c #494236",
"y  c #4B423C",
"u  c #54443C",
"i  c #1C3741",
"p  c #1C3A43",
"a  c #223B44",
"s  c #223F49",
"d  c #23424C",
"f  c #2C454E",
"g  c #3C4342",
"h  c #3D494D",
"j  c #244856",
"k  c #32525A",
"l  c #054E6B",
"z  c #18596F",
"x  c #045776",
"c  c #015C7F",
"v  c #335D69",
"b  c #22667A",
"n  c #2F6B7E",
"m  c #434341",
"M  c #4D4541",
"N  c #4E4940",
"B  c #424D4E",
"V  c #504742",
"C  c #534A44",
"Z  c #5C4F47",
"A  c #544A4A",
"S  c #5A4B4B",
"D  c #46504C",
"F  c #5B534C",
"G  c #5B594C",
"H  c #525453",
"J  c #505858",
"K  c #605C51",
"L  c #685E58",
"P  c #015D81",
"I  c #046588",
"U  c #156480",
"Y  c #1B6985",
"T  c #1E6C89",
"R  c #046B92",
"E  c #0E7295",
"W  c #01749E",
"Q  c #0A759C",
"!  c #1C7593",
"~  c #127A9E",
"^  c #2B6D82",
"/  c #226E8B",
"(  c #2E7085",
")  c #34778B",
"_  c #0376A0",
"`  c #0079A5",
"'  c #0F79A0",
"]  c #007BA8",
"[  c #3C8094",
"{  c #0185B4",
"}  c #0288B6",
"|  c #0B8CB2",
" . c #038EBD",
".. c #0396C6",
"X. c #0B94C3",
"o. c #0097CE",
"O. c #0198CF",
"+. c #029CD3",
"@. c #099DD4",
"#. c #009FDA",
"$. c #0CA2D6",
"%. c #01A0DA",
"&. c #0FA9DD",
"*. c #0EB1DC",
"=. c #03ACEA",
"-. c #0BB4E7",
";. c #04B5EC",
":. c #09B3EA",
">. c #15BEE5",
",. c #18BBE0",
"<. c #03B3F1",
"1. c #02BCF6",
"2. c #03B7F9",
"3. c #05BDFE",
"4. c #08BEFA",
"5. c #0AC2FF",
"6. c #13C6F5",
"7. c #10CDFC",
"8. c #12D2FF",
"9. c #28E6FF",
/* pixels */
"V M = 0 L 0 0 A y Z 7 & = & 0 = > > > 0 0 > ; 0 0 ",
"y > & > F C e w e V O % = % 0 0 * & > t u ; X % & ",
"0 > 3 * y F C 0 0 8 O & 0 m k w 3 0 C C r > . X o ",
"9 9 w > : V u 7 q q % & 0 g ' j 6 3 3 t > - % X o ",
"7 0 & > 9 3 * ; 0 > & : t 5 X.I d # X > 0 > * # O ",
"y y O * > > & ; > . X % > 5 $.} l i $ > 0 0 & % > ",
"0 > & g a < 2 2 2 + + 2 < i $.=.P l p 3 > t > * > ",
"& % > n { I c c c P P c c P ` ;.| x x s 3 t > > 3 ",
"0 q r ( 1...W W W W _ W W W W  .,.' x l f 0 & & 0 ",
"> 0 u ) 3.7.>.%.%.%.#.#.#.#.#.#.-.@.Q x l a & * r ",
"X & C [ 3.8.9.4.2.2.2.2.2.2.2.2.2.<.@.Q x l a # > ",
"X > y ) 3.8.9.5.3.3.3.3.3.3.3.3.3.2.=...W R z # 3 ",
"X - , b 3.8.9.3.4.4.3.4.3.3.4.4.5.<.o.` W T 5 7 y ",
"3 3 y ^ 3.4.;.=.=.=.=.=.=.=.=.<.6.O.] Q T J 0 w 3 ",
"0 4 F ) <.#.o.o.+.o.+.o.o.+.o.:.*.] W U g N t y 0 ",
"& r C v Q E E E E E E E E ~ %.2.} W Y 1 * C G A y ",
"> V G G 6 : : : * * * * * B &.%._ / g & > F K F V ",
"> 0 t K G 8 > 4 = = = * & 5 $. .T H 7 & O > y q > ",
"% & O , y 0 : : > 0 0 % & g X.! D t 3 : > 0 e > X ",
"% - ; r y r & r t t 8 & 3 g Y h t M m 0 9 > t 0 , ",
"& % & V y 0 > w 0 , 3 : r 3 @ * m M M 9 O O e 0 3 ",
"& = y S M 0 * 9 3 0 4 * 0 &   * 0 $ & % X e C q 0 ",
"= V e w 0 9 o & > 4 : : 0 - X * w w w 0 > F q 0 F ",
"> S = 0 V t > > $ & 0 0 0 * X 3 w m 9 > & q y A y ",
"> V * A F C y > % & > % 3 % # w 0 6 * X . & w A > "
};
