/* XPM */
static char *bff[] = {
/* columns rows colors chars-per-pixel */
"25 23 173 2",
"   c #231C17",
".  c #26211C",
"X  c #2B231C",
"o  c #2D281E",
"O  c #32261F",
"+  c #332A1E",
"@  c #2E2621",
"#  c #2C2821",
"$  c #312623",
"%  c #342C25",
"&  c #382822",
"*  c #362E29",
"=  c #3A2E2A",
"-  c #373225",
";  c #3E3226",
":  c #37312A",
">  c #3B332C",
",  c #3E382F",
"<  c #363737",
"1  c #3E3631",
"2  c #3F3932",
"3  c #37373A",
"4  c #38373B",
"5  c #3B3B3B",
"6  c #533B1D",
"7  c #623600",
"8  c #453720",
"9  c #41352D",
"0  c #523E25",
"q  c #423534",
"w  c #433B34",
"e  c #473E38",
"r  c #4A3E3A",
"t  c #286907",
"y  c #307703",
"u  c #236B1B",
"i  c #384E2A",
"p  c #595C00",
"a  c #436301",
"s  c #716000",
"d  c #585D28",
"f  c #454037",
"g  c #494137",
"h  c #43413D",
"j  c #4B433C",
"k  c #4E493F",
"l  c #554233",
"z  c #5B4C34",
"x  c #5F5830",
"c  c #6F5C28",
"v  c #7D5C20",
"b  c #604F34",
"n  c #685339",
"m  c #537822",
"M  c #6B622D",
"N  c #7D633D",
"B  c #6F7034",
"V  c #7C7633",
"C  c #434344",
"Z  c #4F4741",
"A  c #4F4841",
"S  c #48464B",
"D  c #4A494D",
"F  c #514542",
"G  c #534B44",
"H  c #574F48",
"J  c #584F4A",
"K  c #575249",
"L  c #5B534C",
"P  c #5D584F",
"I  c #635E54",
"U  c #5D5B60",
"Y  c #923D03",
"T  c #886E00",
"R  c #937900",
"E  c #9D761E",
"W  c #B46607",
"Q  c #AF7C14",
"!  c #946E27",
"~  c #997020",
"^  c #9B7528",
"/  c #876B34",
"(  c #8B6B3E",
")  c #926F3B",
"_  c #947337",
"`  c #AA7B20",
"'  c #A27C2D",
"]  c #A97E29",
"[  c #B27D27",
"{  c #AA7D36",
"}  c #D8732F",
"|  c #D77B2D",
" . c #DA7934",
".. c #EF6928",
"X. c #F67E35",
"o. c #967D40",
"O. c #209506",
"+. c #2E9014",
"@. c #579619",
"#. c #61AD16",
"$. c #64B013",
"%. c #73BC16",
"&. c #7B9B21",
"*. c #6ED80C",
"=. c #6CC011",
"-. c #73C710",
";. c #7CCD10",
":. c #998C03",
">. c #939E03",
",. c #AB8B1B",
"<. c #B2881F",
"1. c #92B707",
"2. c #AB8A28",
"3. c #B68C26",
"4. c #A09A36",
"5. c #D38206",
"6. c #D38609",
"7. c #C6851F",
"8. c #CA9C1B",
"9. c #D39811",
"0. c #E59C14",
"q. c #E09F1F",
"w. c #DCA61B",
"e. c #E7A010",
"r. c #EDA71E",
"t. c #F3AF1A",
"y. c #F6B51A",
"u. c #DE8139",
"i. c #C69D35",
"p. c #E98A2B",
"a. c #E68D3F",
"s. c #F48E3F",
"d. c #E19236",
"f. c #D9AE21",
"g. c #D9BF3B",
"h. c #EDA125",
"j. c #F2AC21",
"k. c #EDBB2F",
"l. c #F4B525",
"z. c #F5BD23",
"x. c #F7AE36",
"c. c #EAB23A",
"v. c #F1B433",
"b. c #FCB733",
"n. c #F1B639",
"m. c #86D90E",
"M. c #8CCF18",
"N. c #AFDF27",
"B. c #BFDE38",
"V. c #F9C115",
"C. c #EECF23",
"Z. c #F9C222",
"A. c #F8CA26",
"S. c #F7C22F",
"D. c #F3D927",
"F. c #F9CC33",
"G. c #F8C73E",
"H. c #FAD534",
"J. c #908853",
"K. c #C2BA50",
"L. c #F5A143",
"P. c #F3B65C",
"I. c #D0C84E",
"U. c #C4D641",
"Y. c #F9CC41",
"T. c #F4C350",
"R. c #FBDA55",
"E. c #FAD45D",
"W. c #FEDC5D",
"Q. c #FCDB67",
"!. c #FBD76C",
"~. c #FEE674",
"^. c #FDE57B",
/* pixels */
"j k F j 2 P G : $ * 5 % w : $ $ X O & 9 $ % e H I ",
"$ % F H e 2 > 2 w e Z e q o X .   O O & % % w j k ",
"X % G P w o o > f b / ^ ] ` ~ v 6 9 : % = X = w e ",
"X - w f e * @ 8 E w.z.V.Z.z.y.t.q.[ z : = % j j G ",
": : f , A j z i.F.F.H.Y.H.A.z.z.l.j.7.n w w w w > ",
"w 2 K j 2 : o.W.R.R.R.^.^.R.Y.Y.G.x.h.{ j e w e % ",
"% 2 G 2 o - ) P.!.~.~.~.^.Q.Q.E.T.c.d.( F F k L k ",
"> k L G x 4.g.p...X.L.s.s.a.u. .} | c.I.J.P F k j ",
": , g I x d Q e.0.r.S.b.v.n.v.k.f.f.8.,.V r : % % ",
"- % + , f @.%.6.5.5.6.w.D.C.9.W Y Y 7 t u > . . : ",
"$ % - j Z m *.;.1.>.:.R R T s p a y O.+.i w 2 > : ",
"% + : G j > B K.U.B.N.m.M.-.=.%.$.#.&.M e r > 1 > ",
"% 2 F F r = % l N _ ' 2.3.<.<.] ! c 0 j G w j > % ",
"- F q q w > $ % * > > g 9 + 9 r e j : j j j G e : ",
"= D = F J Z w * # > : 1 $ o e w 5 $ X $ r J w ; > ",
"* * * G G G k > X X X : $ 1 H G 2 % g q w w > % % ",
"q @ * r F j e > o o X $ % e k K e e H f e , > > 9 ",
"q * 1 F F q = * # o . # @ , w w e G w > - % w > % ",
"* # $ 1 q > $ $ $ o X $ % 2 e 2 - w % + o % > % 9 ",
"* q r j k r w > $ % $ $ % > > - % % X o % 1 w : w ",
"f j = Z L A j w = = = = + 9 > : % > : - - g w : % ",
"j Z $ F L 1 J r r k w > > e - : % > , % : j H k g ",
"D D 4 D U 4 D S K C 3 3 4 C < 5 5 5 C 5 5 h C C D "
};
