/* XPM */
static char *bfl[] = {
/* columns rows colors chars-per-pixel */
"25 25 193 2",
"   c #2E1801",
".  c #241D15",
"X  c #26201C",
"o  c #2B231C",
"O  c #32261F",
"+  c #312A1E",
"@  c #2D2621",
"#  c #2F2821",
"$  c #2B2D2F",
"%  c #312722",
"&  c #332B24",
"*  c #392F26",
"=  c #362E29",
"-  c #392F2C",
";  c #393327",
":  c #353028",
">  c #3B332C",
",  c #302F32",
"<  c #2F3134",
"1  c #323336",
"2  c #3D3531",
"3  c #3F3933",
"4  c #353538",
"5  c #3A373A",
"6  c #3B3B3D",
"7  c #412608",
"8  c #6E3F02",
"9  c #763513",
"0  c #44362E",
"q  c #43382E",
"w  c #413731",
"e  c #433B34",
"r  c #493C35",
"t  c #453D38",
"y  c #483D3B",
"u  c #7F4901",
"i  c #775607",
"p  c #6B4F1B",
"a  c #6F5B17",
"s  c #665318",
"d  c #6E581F",
"f  c #785D1C",
"g  c #594524",
"h  c #51422D",
"j  c #5F552F",
"k  c #464437",
"l  c #4C4334",
"z  c #474039",
"x  c #4C433B",
"c  c #524633",
"v  c #54473E",
"b  c #574839",
"n  c #6D5A35",
"m  c #60523A",
"M  c #3F3E41",
"N  c #414245",
"B  c #4D4540",
"V  c #4F4A43",
"C  c #454648",
"Z  c #4B4B4D",
"A  c #524644",
"S  c #534B44",
"D  c #5C4C45",
"F  c #544D49",
"G  c #545146",
"H  c #5D554D",
"J  c #505053",
"K  c #635642",
"L  c #756741",
"P  c #656050",
"I  c #6E6752",
"U  c #69615A",
"Y  c #79705C",
"T  c #5E5F61",
"R  c #9A6F08",
"E  c #927003",
"W  c #9E7808",
"Q  c #876A14",
"!  c #8E681C",
"~  c #967510",
"^  c #9B7515",
"/  c #AC6D03",
"(  c #B27603",
")  c #BA7703",
"_  c #AB7411",
"`  c #836B2C",
"'  c #877027",
"]  c #8F7922",
"[  c #9B7927",
"{  c #877C37",
"}  c #A66724",
"|  c #B46B27",
" . c #8C7A40",
".. c #9E8619",
"X. c #A78204",
"o. c #A8850E",
"O. c #B4910D",
"+. c #BB8E25",
"@. c #B9892C",
"#. c #B7912D",
"$. c #A58B33",
"%. c #A1823C",
"&. c #A69232",
"*. c #AD9033",
"=. c #B4933A",
"-. c #BDA633",
";. c #B6A03B",
":. c #C08402",
">. c #CB8702",
",. c #C4890A",
"<. c #C19203",
"1. c #CF9F07",
"2. c #CB950C",
"3. c #D39404",
"4. c #D59C02",
"5. c #DA9B03",
"6. c #D4930C",
"7. c #C78C19",
"8. c #CA9611",
"9. c #C49718",
"0. c #D19711",
"q. c #CAA106",
"w. c #DDA704",
"e. c #DBA50F",
"r. c #D6A90F",
"t. c #DEAF0C",
"y. c #DBB10D",
"u. c #D6A11C",
"i. c #DEA718",
"p. c #D7B211",
"a. c #E4B215",
"s. c #E9B918",
"d. c #C59524",
"f. c #CC9D2B",
"g. c #C88E32",
"h. c #C5A12B",
"j. c #D9A623",
"k. c #D3AC24",
"l. c #D7A72D",
"z. c #D0B832",
"x. c #EAB934",
"c. c #E1BA3C",
"v. c #F1C218",
"b. c #EECA37",
"n. c #FADD34",
"m. c #B39B43",
"M. c #B89844",
"N. c #BB974A",
"B. c #C79E52",
"V. c #C7AF45",
"C. c #D6AA48",
"Z. c #CBBC4F",
"A. c #CDAA53",
"S. c #D7BC51",
"D. c #E8B849",
"F. c #C9AB6C",
"G. c #C8B161",
"H. c #DBC253",
"J. c #EBCA43",
"K. c #F3CC47",
"L. c #EBD04A",
"P. c #F7D845",
"I. c #EFD756",
"U. c #EFD15B",
"Y. c #F7DB57",
"T. c #D8CA72",
"R. c #D5C778",
"E. c #E7CD62",
"W. c #E7CF6B",
"Q. c #F3CE65",
"!. c #E7C573",
"~. c #EFD67B",
"^. c #F2D773",
"/. c #FBDF77",
"(. c #F8DF7A",
"). c #BB9983",
"_. c #D6B58B",
"`. c #C0B5AC",
"'. c #EBDA8B",
"]. c #E6D99C",
"[. c #F6EB80",
"{. c #EDE394",
"}. c #FBEA92",
"|. c #F4E399",
" X c #FDEB98",
".X c #EAD7AE",
"XX c #F8E3A3",
"oX c #FDEBA5",
"OX c #F4EEAE",
"+X c #F5F0A8",
"@X c #FFF6A9",
"#X c #F7F1B9",
"$X c #FAF8F3",
/* pixels */
"J x > t S v A t - = H A 2 B y D * X * & > w = = = ",
"Z t ; w z y x ; & & B H S t w x & & > > t z 2 - e ",
", o & e e w t 3 t w = S D t w e + @ 2 t t e e 3 t ",
"5 ; & & ; > ; > 2 2 = e x l c b q & t 3 > y x > % ",
"4 w 3 z B > w v : & H  .*.h.o.^ [ f l 2 2 e w o o ",
"1 > z z x t e z # m Z.b.A.~ E X.1.i.=.c e e ; & & ",
"$ : x B x t > & g ;.[.@X`.7 u / ) u.s.h.L 3 = + % ",
"Z e > e v 3 ; c #.c.E._.B.9.2.4.>.3.3.<.$.x = % % ",
"T H 3 : w w t { e.0._ 9 D.I.V.a.w.4.:.( i n ; @ o ",
"C x z > 2 = @ s 5.6.l.f.~.'.W.J.J.v.t.( 8 ` l . . ",
"N t t > 3 ; . a q.y.L.;.{.+X'.R.T.Y.n.O.  Q j O O ",
"J x > @ o @ X d p.r.,.R H.#XOX].'./.P.z.` p b % * ",
"N > & @ : : = m 7.,.d.| g.XX|.XXoX[.K.Q.S.&.t & * ",
"4 o & > e z t k M.8.;..XF.C.!.}. XQ.x.[ ! L r w 0 ",
"Z e > x t w > 2 I @.j.|.$X).} D.^.(.U.,.=.D w y r ",
"C z r k w w * e S K [ d.N.F.+.W ..-.k.m.Y B 0 y y ",
"M w z = q x 3 z G P P L $.G.m.] Q ' %.J V H A A l ",
", * y % > A ; & ; k G e e v l h h 3 : & = V F A e ",
"6 > e ; > e = & + ; y y ; : 3 t r + : z = 3 z z t ",
"6 & > 3 > ; & & & k A t ; 3 B e q ; 3 q o > z S Z ",
"6 3 > A F e * % - A A r > e e > k > e r . @ 3 5 > ",
"< ; > x S z ; w A A y w & : 2 3 > & > > . # e 2 = ",
"5 > w z B e & A y - t e = & & : > 2 t > o : t B z ",
"z > w B U e & F 2 e H S x > & & 2 > 2 : o > z 5 4 ",
"1 @ = > A z & > & x F B F t & o o X : & : x G e 2 "
};
