/* XPM */
static char *bfm[] = {
/* columns rows colors chars-per-pixel */
"25 25 83 1",
"  c #251E16",
". c #281E17",
"X c #271F18",
"o c #272019",
"O c #2A231C",
"+ c #31221B",
"@ c #322A1F",
"# c #2D2621",
"$ c #2D2922",
"% c #312622",
"& c #332B24",
"* c #382D26",
"= c #362D29",
"- c #3A2E2A",
"; c #373126",
": c #383227",
"> c #37322D",
", c #3B332C",
"< c #3F382E",
"1 c #392F31",
"2 c #3D3531",
"3 c #3E3932",
"4 c #43342C",
"5 c #40382F",
"6 c #413731",
"7 c #433B34",
"8 c #4B3E37",
"9 c #453E39",
"0 c #493E3A",
"q c #464236",
"w c #4A4137",
"e c #474139",
"r c #4B433C",
"t c #4F3F40",
"y c #434241",
"u c #4E4741",
"i c #514542",
"p c #534B44",
"a c #544B49",
"s c #584F48",
"d c #565246",
"f c #575348",
"g c #5B534C",
"h c #555555",
"j c #5E5652",
"k c #5D5853",
"l c #605C59",
"z c #696059",
"x c #5F5F60",
"c c #676767",
"v c #6C6561",
"b c #6E6A67",
"n c #6C6C6C",
"m c #76716C",
"M c #737373",
"N c #7A7670",
"B c #7D7874",
"V c #7D7D7D",
"C c #837D77",
"Z c #828282",
"A c #898582",
"S c #8D8887",
"D c #8C8A89",
"F c #959594",
"G c #989594",
"H c #9D9D9C",
"J c #A19E99",
"K c #A4A4A4",
"L c #AAA8A3",
"P c #ACACAB",
"I c #B0AFAD",
"U c #B5B5B5",
"Y c #BCBCBB",
"T c #C0BDBC",
"R c #C6C5C4",
"E c #CCCBCC",
"W c #D3D3D3",
"Q c #DEDDDD",
"! c #E3E3E3",
"~ c #E9E8E7",
"^ c #EBEBEB",
"/ c #F3F3F3",
"( c #FDFDFD",
/* pixels */
"rerr76&,3&;=;##$=O79,@=,,",
"err7;&=w9;&&&=22#&;,;@&,=",
",6r7356w3rg3==13%>;&=%%=4",
"6;,47wruerd2=#1t>7,OO#o++",
"e26;OOwjpgmBVACvi6&##o.@=",
"7>>=o=gJR~(((((~RGj76@*7,",
";OO&OiY(((((((((((QSi&,w7",
"=$>>kAU^(((((((((((EB=,43",
"=3erVxYQ//((Q/(//WYFHk4&$",
"5r7wyyKR!(//!!/(RncHKD8@O",
"r737ehHYU!QWEPQ!DhMEPGp*&",
"r&3u3kHTMFULKF^^VcUQIMr*&",
"w&,r*=pGUFZHKY//WWRPNp3;-",
"6,,6&&@dL!~^//^^QIbuee936",
",66,&@&epNT/(/!Yme =eap9*",
">pg8==,ai76mAck332 $3>&=o",
">wre>7it97%&-3>&<>X&3927=",
"6ws7&p9-e7,=&$36w,O;9y97=",
"7iz9%a19jpi2&$,=;=O6e32XO",
";;7w,%#0pige;Ooo;=,uly2,p",
"wrer9#%ta887>O$O%&,rpp6wf",
"gjiw9=1tsw2-&&#O$&;776rf<",
"rr7,-##=76=%$;OO&&,q7>,w&",
"8r7,=-2tr773=O%&$&:5>;=$o",
"48799e77ggre,%*%&O;6:;=2;"
};
