/* XPM */
static char *bfn_[] = {
/* columns rows colors chars-per-pixel */
"25 25 74 1",
"  c #241D16",
". c #271F18",
"X c #2C241D",
"o c #2F281D",
"O c #2F2720",
"+ c #2F2822",
"@ c #312724",
"# c #332B24",
"$ c #362E28",
"% c #382E2A",
"& c #363125",
"* c #393226",
"= c #363129",
"- c #3B342C",
"; c #3E392E",
": c #3E3631",
"> c #3F3832",
", c #40342A",
"< c #403B2F",
"1 c #403632",
"2 c #433A33",
"3 c #4B3E36",
"4 c #453D39",
"5 c #493F3A",
"6 c #4B4237",
"7 c #46413B",
"8 c #4A433C",
"9 c #4C493B",
"0 c #51433D",
"q c #493F40",
"w c #4C4641",
"e c #4D4944",
"r c #4E4C4B",
"t c #514642",
"y c #534A44",
"u c #5A4B45",
"i c #544D4A",
"p c #584849",
"a c #585146",
"s c #54504D",
"d c #5B534C",
"f c #5F5651",
"g c #5F5A51",
"h c #605B4F",
"j c #635D57",
"k c #625C5B",
"l c #6A645C",
"z c #6C6560",
"x c #6D6C6B",
"c c #706B68",
"v c #7D7A76",
"b c #7B7B7A",
"n c #817E7A",
"m c #8C8884",
"M c #98938F",
"N c #919292",
"B c #999897",
"V c #9C9B9A",
"C c #A09F9E",
"Z c #A2A2A2",
"A c #A8A8A8",
"S c #B6B6B6",
"D c #B8B7B7",
"F c #B7B8B8",
"G c #BCBCBC",
"H c #C3C3C3",
"J c #CDCCCC",
"K c #D5D5D4",
"L c #D9D8D6",
"P c #DAD9D9",
"I c #E5E5E5",
"U c #ECECEC",
"Y c #F4F4F4",
"T c #FEFEFE",
/* pixels */
"a:=;+-738e8>871yd8X.1;7i<",
"a2@XXO#-;->+=6>3ty=#2-3wy",
"3*X.o###=##4w-79dh815w32y",
"-*oo#->2>$4cNhwwdd28;:ut9",
"#;22=2324exbZCc453#2#X>4#",
">6682;2#wxbBSAByo##-1O+-@",
"=-6i-O%rxbBKIGABd$$:44$w$",
"&*;5#X4xbBKYTIGAVl5>e4+41",
";-$1:7xbVPYTTTIGAVz89q:w7",
"#$:1rxNHIPYTTTYYLFCl3:-:7",
"2>4kBJYYHFYTTTYITYPDgOO+$",
"4-:xmmmmNFYTTTUPDMmmz+ XX",
"-#-4:2#eNSYTTTUPn-@-2724:",
":#$-2>#sNSYTTTUPn###-;=>>",
"3#XXO+XrNSYTTTULn#=#*;==:",
"t3,*;# rNSYTTTULn#,66>>--",
"0u023-#iNSYTTTULn#%:4-1-+",
"55:221-sNSYTTTUPn#:-95:$$",
"fe582##sNSYTTTUPb#:&%1$+:",
":%ept=$sNHTTTTUPv&;1--%$6",
"ydfy22=sSYTTTTYIn;969522w",
"hi4-#1:zJPPPLLPKvag2wyt2p",
"%$+14++7yajla7gjsg6*<3p1%",
":1#>;-=##822>;889a-o##qq5",
"pw-:-5w-#8#@##=;-8=###=5y"
};
