/* XPM */
static char *bfn_[] = {
/* columns rows colors chars-per-pixel */
"25 25 111 2",
"   c #221C13",
".  c #251E1A",
"X  c #292216",
"o  c #27211A",
"O  c #2B231C",
"+  c #312A1E",
"@  c #3B341D",
"#  c #2F2721",
"$  c #2F2922",
"%  c #312720",
"&  c #342B25",
"*  c #362D29",
"=  c #382F29",
"-  c #363124",
";  c #393126",
":  c #36312A",
">  c #3C342D",
",  c #3D392D",
"<  c #3E3531",
"1  c #3E3932",
"2  c #443E22",
"3  c #41362F",
"4  c #433B2D",
"5  c #403632",
"6  c #433A34",
"7  c #493E37",
"8  c #463E38",
"9  c #493F3B",
"0  c #4F4B0D",
"q  c #524F11",
"w  c #555012",
"e  c #65630B",
"r  c #68660D",
"t  c #6A680D",
"y  c #777703",
"u  c #7E7E02",
"i  c #7E7C0F",
"p  c #656218",
"a  c #7F7C10",
"s  c #76721A",
"d  c #484123",
"f  c #474029",
"g  c #4D462C",
"h  c #544D2F",
"j  c #5E5B22",
"k  c #464135",
"l  c #4A4337",
"z  c #46403A",
"x  c #4B433C",
"c  c #4D483E",
"v  c #534C30",
"b  c #52443D",
"n  c #5B5333",
"m  c #5E5738",
"M  c #6D662E",
"N  c #797423",
"B  c #6E6931",
"V  c #736D35",
"C  c #79733B",
"Z  c #4E4642",
"A  c #4E4A43",
"S  c #504742",
"D  c #524A43",
"F  c #5E4D46",
"G  c #584C4A",
"H  c #525040",
"J  c #5B534C",
"K  c #5D5B4E",
"L  c #60574F",
"P  c #615D52",
"I  c #676145",
"U  c #807E0C",
"Y  c #817E13",
"T  c #807C43",
"R  c #8D8D05",
"E  c #8F9000",
"W  c #919100",
"Q  c #888514",
"!  c #8D8B15",
"~  c #89851A",
"^  c #918E17",
"/  c #94921B",
"(  c #98941F",
")  c #A5A503",
"_  c #ADAC04",
"`  c #B6B600",
"'  c #BDBD03",
"]  c #B4B10F",
"[  c #A5A213",
"{  c #ACA913",
"}  c #A3A218",
"|  c #B6B311",
" . c #BFBC19",
".. c #C4C402",
"X. c #C5C50A",
"o. c #CDCC0C",
"O. c #D6D602",
"+. c #D9D900",
"@. c #DCDC0B",
"#. c #C9C911",
"$. c #E4E402",
"%. c #EDED02",
"&. c #E7E70B",
"*. c #F3F203",
"=. c #FEFE05",
"-. c #F2F20A",
";. c #FEFE09",
":. c #E6E613",
">. c #FDFD11",
",. c #FCFC21",
"<. c #FFFF2A",
/* pixels */
", % O O # * > , > 5 % > 9 5 5 x D & + 5 > 7 D x 5 ",
"> % . o % & * > & & @ @ < z D J J 8 , 8 x 7 8 G D ",
"- O O * = > < , * ; t Q g z x J J 7 x 5 l D x b 3 ",
", 3 > ; , 8 8 z f e u ) ( I c D x & 8 & + 7 S = & ",
"l l 8 , 5 5 * 2 r y R _ ) ^ 2 % & & < 5 O $ : # & ",
"4 l J 5 & > f r y R X.+.` ) ! d & * > 8 < * z & o ",
"; 5 x * o @ r y R X.*.*.+.` ) ^ v 6 1 Z 8 $ 9 < : ",
", * 6 < @ e y R #.-.=.=.;.@.` ) ( m Z Z Z * Z 9 1 ",
"; > 5 l e u ) @.:.*.=.=.=.>.&...) / n k 6 1 6 z x ",
", 8 h U ` $.;.+.' *.=.=.=.%.%.=.%.O.} h # & & , 8 ",
"< 5 N [ ] | _ W ` *.=.=.=.%.+.o. .| { s X   o o % ",
"% > z 6 1 * 0 E ` *.=.=.=.%.+.~ 6 * 6 k 6 > , > * ",
"* > , 6 6 : q E ` *.=.=.;.%.+.Y & % * < 6 > 6 6 * ",
"O + # & & $ w E ` *.=.=.=.%.+.Y & * % = ; & > , O ",
"3 & % : % . w W ` *.=.=.=.%.+.Y % 5 7 6 6 1 , 1 * ",
"F b 4 7 : O q W ` *.=.=.;.%.+.Y & > 6 z : 8 : $ O ",
"9 6 5 7 5 > w W ` %.=.=.;.%.+.Y & = , x 8 5 & & & ",
"S 7 6 , * = w E ` -.;.>.;.%.+.a * < : , 6 > % > 6 ",
"> S G S & * w E ' ,.<.<.,.%.+.i : > > * > * & 8 D ",
"S J G 8 , * q ) %.;.;.=.;.;.+.a , z 8 z 6 6 5 Z S ",
"L S , ; 6 1 p O.*.-.*.-.%.*.&.Y D K k c S 9 6 G J ",
"> & , 5 & & v M V C T B j V C m P H ; 8 x G 5 5 7 ",
"> & 5 1 * & & * Z 7 Z 6 1 A A D J ; % * % Z 9 5 * ",
"9 > < > z c * & x & % & & , 1 5 x > & & % > b G 8 ",
"S Z 8 > 5 6 5 = 7 & O . & 8 , % , * * + & * * & & "
};
