/* XPM */
static char *bfn_[] = {
/* columns rows colors chars-per-pixel */
"25 25 128 2",
"   c #231C13",
".  c #271F18",
"X  c #281F18",
"o  c #2B231C",
"O  c #2E281F",
"+  c #31291E",
"@  c #1C2F36",
"#  c #242723",
"$  c #2F2720",
"%  c #2E2822",
"&  c #302720",
"*  c #332B24",
"=  c #352E29",
"-  c #3A2F2D",
";  c #353125",
":  c #393326",
">  c #35312A",
",  c #3B332C",
"<  c #3E392E",
"1  c #213135",
"2  c #2D3535",
"3  c #25353A",
"4  c #263A3F",
"5  c #3E3631",
"6  c #3E3932",
"7  c #353D3D",
"8  c #3E3B39",
"9  c #41362E",
"0  c #42382E",
"q  c #413531",
"w  c #433B34",
"e  c #493D36",
"r  c #453E39",
"t  c #493F3B",
"y  c #454035",
"u  c #494236",
"i  c #46403C",
"p  c #4B423C",
"a  c #54443C",
"s  c #1C3741",
"d  c #223B44",
"f  c #223F49",
"g  c #23424C",
"h  c #2C454E",
"j  c #3C4342",
"k  c #3D494D",
"l  c #244856",
"z  c #32525A",
"x  c #054E6B",
"c  c #05506D",
"v  c #18596F",
"b  c #045776",
"n  c #015C7F",
"m  c #335D69",
"M  c #22667A",
"N  c #2F6B7E",
"B  c #434341",
"V  c #4D4541",
"C  c #4E4940",
"Z  c #424D4E",
"A  c #504742",
"S  c #534A44",
"D  c #5C4F47",
"F  c #544A4A",
"G  c #5A4B4B",
"H  c #46504C",
"J  c #595147",
"K  c #575049",
"L  c #5B534C",
"P  c #5B594C",
"I  c #525453",
"U  c #505858",
"Y  c #605C51",
"T  c #685E58",
"R  c #015D81",
"E  c #046588",
"W  c #156480",
"Q  c #1B6985",
"!  c #1E6C89",
"~  c #046B92",
"^  c #0E7295",
"/  c #01749E",
"(  c #0A759C",
")  c #0B789F",
"_  c #1C7593",
"`  c #127A9E",
"'  c #226E8B",
"]  c #2E7086",
"[  c #34778B",
"{  c #0376A0",
"}  c #0079A5",
"|  c #0F79A0",
" . c #007BA8",
".. c #3C8094",
"X. c #0185B4",
"o. c #0288B6",
"O. c #0B8CB3",
"+. c #038EBD",
"@. c #0396C6",
"#. c #0B94C3",
"$. c #0097CE",
"%. c #0198CF",
"&. c #029CD3",
"*. c #099DD4",
"=. c #009FDA",
"-. c #0CA2D6",
";. c #01A0DA",
":. c #0FA9DD",
">. c #0EB1DC",
",. c #01ABE3",
"<. c #03ACEA",
"1. c #0BB4E7",
"2. c #04B5EC",
"3. c #09B3EA",
"4. c #15BEE5",
"5. c #18BBE0",
"6. c #03B3F1",
"7. c #02BCF7",
"8. c #03B7F9",
"9. c #05BDFE",
"0. c #08BEFA",
"q. c #09C1F6",
"w. c #0AC2FF",
"e. c #13C6F5",
"r. c #10CDFC",
"t. c #12D2FF",
"y. c #23DFFF",
"u. c #28E6FF",
/* pixels */
"w * O O + - < w r r , w p 5 w p F > X , q r J p , ",
"w * X X O * = > = * & O 9 u p S L e , w e e r F J ",
": O X & - * > > * * d v 7 r p K Y A e e u S w p r ",
": : - > , w t p w d x ~ Q U S S L > w 9 o p D e * ",
"e u r , w w > , h x b / / ! j * > & 9 9 X $ , * o ",
"e u S p > , 5 f x b ( #. ./ W 2 * * > r 5 * e > o ",
"; < S , O % g x b ( *.<.%. ./ Q B 9 5 B V * r w * ",
"< * w , + s x b ) *.6.8.2.%. ./ ' I e B A % r i 8 ",
": - 5 w g c n O.5.1.8.9.w.e.>.o.{ ! H y i w r r w ",
"> 8 r l E o.,.2.+.=.8.8.9.3.3.7.;.+._ k = = > 6 p ",
"w r z | #.-.*.} / =.8.9.9.<.%.;.:.-.#.! #   o o o ",
"* & B k 7 7 s n / =.8.9.9.<.&.` Z 7 j j , ; * = & ",
"> - w w u , 1 n { =.8.0.9.<.&.^ > & = 0 y w e r > ",
"> & * * - & 3 n { =.8.9.9.<.%.^ = * * * : * ; 5 * ",
"9 + + + = X @ R { =.8.9.9.<.%.^ = - 9 9 w 6 > 8 , ",
"D a 0 w - . @ R / =.8.9.0.<.%.^ = - e u < 8 6 * * ",
"t t w r w , 3 n / ;.8.9.w.<.$.^ * - > p w 5 > * & ",
"F e w 6 : = 3 n / ;.0.w.w.<.$.^ = 5 , 6 r w * - , ",
"q p F a > * 3 n / 4.u.u.y.3.$.^ > < > * , = O 5 p ",
"q F L A 9 > 2 R @.r.t.t.t.q.=.^ > 6 w u q q 5 e F ",
"T L p > w , 4 X.7.9.9.9.9.w.6.) y P p C V p w A L ",
"e , > , , - j N ] [ ..[ M ] [ m P Y < y A G e q F ",
"- * 9 r * & * 9 e S D p < p J S J u & : = t t - = ",
"p - > 6 w p = + e 9 & > ; < 6 w C w & * & 5 V G A ",
"A V r 9 9 t w * e , o o $ 5 5 * 5 > * & * * > , 9 "
};
