/* XPM */
static char *bfo_[] = {
/* columns rows colors chars-per-pixel */
"25 25 79 1",
"  c #241D16",
". c #271F18",
"X c #2C241D",
"o c #2F281D",
"O c #30291F",
"+ c #2F2720",
"@ c #2F2822",
"# c #312724",
"$ c #332B24",
"% c #392F25",
"& c #362E28",
"* c #382E2A",
"= c #363125",
"- c #393226",
"; c #363129",
": c #3B342C",
"> c #3E392E",
", c #3E3631",
"< c #3F3832",
"1 c #40342A",
"2 c #403B2F",
"3 c #403632",
"4 c #433A33",
"5 c #4B3E36",
"6 c #453D39",
"7 c #493F3A",
"8 c #4B4237",
"9 c #46413B",
"0 c #4A433C",
"q c #4C493B",
"w c #51433D",
"e c #493F40",
"r c #4C4641",
"t c #4D4944",
"y c #4E4C4B",
"u c #514642",
"i c #534A44",
"p c #5A4B45",
"a c #544D4A",
"s c #584849",
"d c #585146",
"f c #54504D",
"g c #5B534C",
"h c #5F5651",
"j c #5F5A51",
"k c #635D57",
"l c #625C5B",
"z c #6A645C",
"x c #6C6560",
"c c #6D6C6B",
"v c #706B67",
"b c #727170",
"n c #7D7A76",
"m c #7B7B7A",
"M c #817E7A",
"N c #84817E",
"B c #8B8683",
"V c #8B8886",
"C c #98938F",
"Z c #919292",
"A c #999897",
"S c #9C9B9B",
"D c #A09F9E",
"F c #A2A2A2",
"G c #A7A8A8",
"H c #A8A8A8",
"J c #B6B6B6",
"K c #B8B7B7",
"L c #B7B8B8",
"P c #BCBCBC",
"I c #C3C3C3",
"U c #CDCCCB",
"Y c #D5D5D4",
"T c #D9D7D6",
"R c #DAD9D9",
"E c #E5E5E5",
"W c #ECECEC",
"Q c #F4F4F4",
"! c #FEFEFE",
/* pixels */
"3iiq%#%669$+,<<:@&,9ri*eu",
"at4w9:07r<@X<<;>:$@%433u7",
"958p3@&@,,+ 2;&<4,;&7us7*",
"::i3X@<6e:.@9,,<:73:6i4$#",
"<39:%49yr5lx9--960::9q2$$",
"X$4q41:49zKB:$%5,,&,88=O$",
"X-93#$%5zSEB##-:;,>>qjq-*",
"9igg5#%zDLQC-$$$@&$=2dja0",
"gugh9@fSHYQJNMMMMMnmnndt:",
"u6qq6iAGPQWTRRTRRRRTEYkq:",
"337rvAGPEQQWWWWWWWWW!Tg0:",
"99:jDHPE!!!!!!!!!!!!!Y9>$",
"q%0ZFJE!!!!!!!!!!!!!!Rd3#",
"4$6bmAYQ!!!!!!!!!!!!!Rz4o",
"0:$6cmAYQQQQQQQQQQQ!!Rk4%",
"t:$*icmSRRLJJLJJKKKIQRg00",
"02&<5rcmSEIZZZZZZZZZJUt$$",
"4:%5<&ycmPQVyfyyyfafyx5#:",
"0$$:5,;6cZQB#&+ @:$&;,+:u",
":@#:,,oX6bUV4,@$:,$*<<+:7",
"$.o&;4<&<aAB3<+1553i<-4<*",
":X.o:0a9<4jc4:o%330ai;3<,",
"-$oO4892%:9,-;X1w<0th6$&,",
",4--28:%:;3:&&#5pru*ga&<r",
"da4:%<-%>%<4:,9iw6g,uh*<i"
};
