/* XPM */
static char *bfo_[] = {
/* columns rows colors chars-per-pixel */
"25 25 112 2",
"   c #221C13",
".  c #251E1A",
"X  c #292216",
"o  c #27211A",
"O  c #2B231C",
"+  c #312A1E",
"@  c #3B341D",
"#  c #2F2721",
"$  c #2F2922",
"%  c #312720",
"&  c #342B25",
"*  c #362D29",
"=  c #382F29",
"-  c #363124",
";  c #393126",
":  c #36312A",
">  c #3C342D",
",  c #3D392D",
"<  c #3E3531",
"1  c #3E3932",
"2  c #443E22",
"3  c #41362F",
"4  c #433B2D",
"5  c #4A3F2B",
"6  c #403632",
"7  c #433A34",
"8  c #493E37",
"9  c #463E38",
"0  c #493F3B",
"q  c #4F4B0D",
"w  c #4F4C10",
"e  c #524F11",
"r  c #555012",
"t  c #65630B",
"y  c #68660D",
"u  c #6A680D",
"i  c #777703",
"p  c #7E7E02",
"a  c #7E7C0F",
"s  c #696510",
"d  c #656218",
"f  c #7F7C10",
"g  c #76721A",
"h  c #544D2F",
"j  c #5E5B22",
"k  c #464135",
"l  c #4A4337",
"z  c #46403A",
"x  c #4B433C",
"c  c #4D483E",
"v  c #534C30",
"b  c #52443D",
"n  c #5B5333",
"m  c #5E5738",
"M  c #66593C",
"N  c #6D662E",
"B  c #797423",
"V  c #6E6931",
"C  c #736D35",
"Z  c #79733B",
"A  c #4E4642",
"S  c #4E4A43",
"D  c #504742",
"F  c #524A43",
"G  c #5E4D46",
"H  c #574E48",
"J  c #584C4A",
"K  c #5B534C",
"L  c #5D5B4E",
"P  c #60574F",
"I  c #615D52",
"U  c #676145",
"Y  c #807E0C",
"T  c #817E13",
"R  c #8D8D05",
"E  c #8F9000",
"W  c #919100",
"Q  c #888514",
"!  c #8D8B15",
"~  c #89851A",
"^  c #918E17",
"/  c #94921B",
"(  c #98941F",
")  c #A5A503",
"_  c #ADAC04",
"`  c #B6B600",
"'  c #BDBD03",
"]  c #B4B10F",
"[  c #A5A213",
"{  c #ABA813",
"}  c #A3A218",
"|  c #B6B311",
" . c #BFBC19",
".. c #C4C402",
"X. c #CFCF02",
"o. c #C5C50A",
"O. c #CDCC0C",
"+. c #D6D602",
"@. c #D9D900",
"#. c #DCDC0B",
"$. c #C9C911",
"%. c #E4E402",
"&. c #EDED02",
"*. c #E7E70B",
"=. c #F2F203",
"-. c #FEFE05",
";. c #F2F20A",
":. c #FEFE09",
">. c #E6E613",
",. c #FDFD11",
"<. c #FCFC21",
"1. c #FFFF2A",
/* pixels */
"7 c 6 & & . : 1 A 9 # * = O = O & 6 D F K x * 0 # ",
"c H x = # $ 1 z 9 < o > 1 > 1 $ & > 8 A H < 6 J * ",
"F 7 x b : A 9 A 1 * o < 9 : > : * % & 7 6 6 0 0 * ",
"x 8 F x # * $ * 1 $   > , & 1 9 6 > & 7 x J A > * ",
"> x 8 O O 3 9 A 7 & X 4 7 ; 9 > 7 7 > 7 c x % & & ",
"7 8 7 & 7 7 A A 9 h g 7 > ; 7 k c < = x c k - - % ",
"O 3 c 7 > > 7 l n } { 7 & & 7 7 > : , k z ; % & & ",
"= 7 7 = & & 7 M / X.] = & = 3 > : < , l I c > ; * ",
"F K L x & & n ( _ &. .9 $ & & & * * * , S I H A > ",
"A J L F & 2 ^ ) ..-.O.~ T T T T T f a a T m S 1 & ",
"7 b x x 2 ! ) ` *.=.@.@.@.@.+.+.@.@.@.@.%.Z S 1 > ",
"> x 8 U ^ ) _ #.;.&.&.&.&.&.&.&.&.&.&.-.=.C S < 7 ",
"z 3 h / ) ` @.-.:.-.-.-.-.:.-.:.:.:.<.:.=.j < = = ",
"> ; Q ) _ @.-.-.-.-.-.-.-.-.-.-.-.,.1.:.=.V 1 & o ",
"= + y p R o.=.-.-.-.-.-.-.-.-.-.-.:.1.,.;.U x % o ",
"7 & @ t i R o.;.=.=.=.=.=.=.=.=.=.;.<.,.,.~ 8 = = ",
"> & & 5 s i R $.>.' ` ' ` ` ` ` ' ` ' &.&.C x x 8 ",
"< ; > x 4 y i R #.+.W W W W E R E R R ) +.N * & = ",
"; : , 8 = 4 y i W -.) q e r w w r r r e d h & * 6 ",
"* & > 7 3 > @ t R %.| = * # . # > ; = * < & = x 7 ",
"% $ ; < 7 & o @ u ` ] 7 7 & & = > = = > 1 & : x 6 ",
"o O * ; , 7 = > l Y [ 7 7 & = 8 8 > F 9 = < 1 > > ",
"o o O > 9 K x 7 6 v B x 3 + + 4 7 9 F K < > 7 > 0 ",
"% & X , k x < * > 7 7 ; > O - b 7 k A K D & & > A ",
"> > - 4 l 4 ; > ; > 1 & = O > G 0 D < A P = < 0 D "
};
