/* XPM */
static char *bfo_[] = {
/* columns rows colors chars-per-pixel */
"25 25 124 2",
"   c #231C13",
".  c #271F18",
"X  c #281F18",
"o  c #2B231C",
"O  c #2E281F",
"+  c #31291E",
"@  c #1C2F36",
"#  c #242723",
"$  c #2F2720",
"%  c #2E2822",
"&  c #302720",
"*  c #332B24",
"=  c #352E29",
"-  c #3A2F2D",
";  c #353125",
":  c #393326",
">  c #35312A",
",  c #3B332C",
"<  c #3E392E",
"1  c #213135",
"2  c #2D3535",
"3  c #25353A",
"4  c #263A3F",
"5  c #3E3631",
"6  c #3E3932",
"7  c #353D3D",
"8  c #3E3B39",
"9  c #41362E",
"0  c #42382E",
"q  c #413531",
"w  c #433B34",
"e  c #493D36",
"r  c #453E39",
"t  c #493F3B",
"y  c #454035",
"u  c #494236",
"i  c #46403C",
"p  c #4B423C",
"a  c #54443C",
"s  c #1C3741",
"d  c #1C3A43",
"f  c #223B44",
"g  c #223F49",
"h  c #23424C",
"j  c #2C454E",
"k  c #3C4342",
"l  c #3D494D",
"z  c #244856",
"x  c #32525A",
"c  c #054E6B",
"v  c #18596F",
"b  c #045776",
"n  c #015C7F",
"m  c #335D69",
"M  c #22667A",
"N  c #2F6B7E",
"B  c #434341",
"V  c #4D4541",
"C  c #424D4E",
"Z  c #504742",
"A  c #534A44",
"S  c #5C4F47",
"D  c #544A4A",
"F  c #5A4B4B",
"G  c #595147",
"H  c #575049",
"J  c #5B534C",
"K  c #5B594C",
"L  c #525453",
"P  c #505858",
"I  c #605C51",
"U  c #685E58",
"Y  c #015D81",
"T  c #046588",
"R  c #1B6985",
"E  c #1E6C89",
"W  c #046B92",
"Q  c #0E7295",
"!  c #01749E",
"~  c #0A759C",
"^  c #1C7593",
"/  c #127A9E",
"(  c #2B6D82",
")  c #226E8B",
"_  c #2E7085",
"`  c #34778B",
"'  c #0376A0",
"]  c #0079A5",
"[  c #0F79A0",
"{  c #007BA8",
"}  c #3C8094",
"|  c #0185B4",
" . c #0288B6",
".. c #0B8CB2",
"X. c #038EBD",
"o. c #038FC3",
"O. c #0396C6",
"+. c #0B94C3",
"@. c #0097CE",
"#. c #0198CF",
"$. c #029CD3",
"%. c #099DD4",
"&. c #009FDA",
"*. c #0CA2D6",
"=. c #01A0DA",
"-. c #0FA9DD",
";. c #0EB1DC",
":. c #01ABE2",
">. c #03ACEA",
",. c #0BB4E7",
"<. c #04B5EC",
"1. c #09B3EA",
"2. c #15BEE5",
"3. c #18BBE0",
"4. c #03B3F1",
"5. c #03B7F9",
"6. c #05BDFE",
"7. c #08BEFA",
"8. c #09C1F6",
"9. c #0AC2FF",
"0. c #13C6F5",
"q. c #10CDFC",
"w. c #12D2FF",
"e. c #28E6FF",
/* pixels */
"< A u * X X = 8 w t o * , & , * $ , p D J A - Z - ",
"p D p e * , 5 B e 6 o = e 6 w % & = w e V w - F 5 ",
"H e e S , w r r r = X * w > > 8 - * $ 5 w w t Z - ",
"w e A p # * * * 8 =   * w = 6 6 5 w * w t F V - * ",
"6 e u o o q V V e = # < u : w < e e 5 6 p p ; O & ",
"6 6 t , q w i V i l ) V 0 * < u u w * r a y ; ; * ",
". > t w < , , u C ^ +.f ; & q e = > ; y p < + * * ",
", e V , & * 9 L ) X.*.8 & ; - - - 6 < y K I u w - ",
"D G I G , & B ) ! =.-.C > > = = = * > > k K K Z q ",
"p D S D ; 2 R !  .8.=./ Q Q Q ~ Q Q W Q ~ m A 8 * ",
"w p t Z f M ' { ;.<.#.#.#.#.#.#.@.$.@.$.<.` H 6 q ",
"< u e P ) ' { $.0.<.>.>.>.>.>.>.>.>.1.7.9.( p < 6 ",
"p q 7 E ' { #.4.7.7.7.7.6.6.6.7.6.9.e.w.5.M 9 : $ ",
"< % v W W o.>.5.6.6.6.6.6.6.6.6.6.9.e.w.6.` a , o ",
", * d c b [ %.4.5.5.5.5.5.5.5.5.5.7.e.w.6.} A & o ",
"e = * f c b ~ *.,.&.&.&.&.&.&.&.=.=.2.q.6.` Z < , ",
"r = * w j c b [ 3.X.! ! ! ! ! ! ! ! ! O.5._ e e e ",
"6 > , t , g c b ..<.] Y Y Y Y Y n Y n Y | N , & * ",
"< , , u , 5 h c Y :.%.s 1 3 @ @ 3 3 3 3 4 k ; - w ",
"= & * w w > % s c  .*.7 , & o . , - * : < , & p t ",
"& o > , 6 , o % g T +.7 t ; = , w - , 5 q , * w 9 ",
"o o & = 6 t , 5 r z [ l w * + e e 6 V Z * < e 6 9 ",
"% o o ; w A A w 6 r x B q ; + 0 w 6 A J p = 5 > w ",
"* * O : u e 5 = * w w * - & o a t e p A J - * , Z ",
"w w : : w w : < : : e * , * < S p D w q U r - B Z "
};
