/* XPM */
static char *bfp[] = {
/* columns rows colors chars-per-pixel */
"25 25 167 2",
"   c #27211A",
".  c #2C251D",
"X  c #2F291E",
"o  c #32261F",
"O  c #2E2721",
"+  c #2E2922",
"@  c #2F2728",
"#  c #332623",
"$  c #342C25",
"%  c #392D26",
"&  c #362E29",
"*  c #392E2A",
"=  c #363026",
"-  c #393227",
";  c #37302A",
":  c #3B332C",
">  c #262439",
",  c #332F30",
"<  c #2F3034",
"1  c #373130",
"2  c #3D3532",
"3  c #3E3932",
"4  c #36323F",
"5  c #41362F",
"6  c #41392E",
"7  c #413731",
"8  c #433B34",
"9  c #493E37",
"0  c #443E39",
"q  c #4A3F3A",
"w  c #474037",
"e  c #47413A",
"r  c #4B433B",
"t  c #0E135B",
"y  c #151856",
"u  c #181952",
"i  c #312F41",
"p  c #3A3B42",
"a  c #33304A",
"s  c #39344B",
"d  c #35384C",
"f  c #32375A",
"g  c #3F3D5E",
"h  c #1D2267",
"j  c #1B2572",
"k  c #2A2F6C",
"l  c #343563",
"z  c #383A65",
"x  c #3E3D6B",
"c  c #232A78",
"v  c #273076",
"b  c #293078",
"n  c #3C367A",
"m  c #443D49",
"M  c #3E4363",
"N  c #3E446F",
"B  c #4D4642",
"V  c #4F4847",
"C  c #49444B",
"Z  c #4A484D",
"A  c #534740",
"S  c #524B43",
"D  c #564F48",
"F  c #584F49",
"G  c #575149",
"H  c #5B534C",
"J  c #454854",
"K  c #4E4D55",
"L  c #4E4959",
"P  c #635B54",
"I  c #434B76",
"U  c #535572",
"Y  c #152786",
"T  c #2C3483",
"R  c #293886",
"E  c #3D3E81",
"W  c #2D3393",
"Q  c #2A369E",
"!  c #333F94",
"~  c #2A3AAE",
"^  c #384280",
"/  c #344089",
"(  c #3D508B",
")  c #344197",
"_  c #35469C",
"`  c #374DA9",
"'  c #2645B9",
"]  c #344CBA",
"[  c #384FBA",
"{  c #3E5AB7",
"}  c #454E8A",
"|  c #46548B",
" . c #4B548B",
".. c #49588D",
"X. c #50598A",
"o. c #434E95",
"O. c #445497",
"+. c #495995",
"@. c #47559B",
"#. c #4A569A",
"$. c #4C5A9C",
"%. c #556095",
"&. c #787883",
"*. c #475DA5",
"=. c #4457B1",
"-. c #4658B4",
";. c #4A63A4",
":. c #5361A5",
">. c #5B71AF",
",. c #4B61B6",
"<. c #4F63BA",
"1. c #5564B2",
"2. c #5B6DB6",
"3. c #536ABC",
"4. c #687BAD",
"5. c #6270B6",
"6. c #6876BA",
"7. c #2B4BC5",
"8. c #3552C4",
"9. c #3A56C5",
"0. c #3656CD",
"q. c #3054D0",
"w. c #3A5DD2",
"e. c #3D63D6",
"r. c #425EC2",
"t. c #405DCF",
"y. c #4866C1",
"u. c #4262C9",
"i. c #4D65CB",
"p. c #586BC0",
"a. c #5A72C6",
"s. c #4365D4",
"d. c #4E6FD1",
"f. c #456BDF",
"g. c #516AD2",
"h. c #5575D6",
"j. c #5B7AD5",
"k. c #5E77D9",
"l. c #5578D8",
"z. c #6D7FC8",
"x. c #577DE2",
"c. c #6F84B3",
"v. c #6984CD",
"b. c #7582C6",
"n. c #7A8CC6",
"m. c #7E8ECD",
"M. c #6084DD",
"N. c #6B87DB",
"B. c #7D96DE",
"V. c #6C8FE6",
"C. c #698FEE",
"Z. c #7196E6",
"A. c #7D9DE5",
"S. c #79A2F3",
"D. c #868AAB",
"F. c #9DA5BC",
"G. c #849BD0",
"H. c #889ED8",
"J. c #94A2D3",
"K. c #92A5E0",
"L. c #9EB3E6",
"P. c #A3B7E3",
"I. c #B3CCF2",
"U. c #BDD1F3",
"Y. c #CAD9EC",
"T. c #C7D8F2",
"R. c #E9F5FE",
/* pixels */
"# $ # @ 1 & O $ 0 : $ . : & : 9 ; ; 7 : . w r r r ",
": % & 2 0 & O * $ $ $ O ; : 8 8 ; : e w : 3 8 B e ",
"G : $ O 2 * ; 8 % O $ . o o 5 * $ & r H P r % : 8 ",
": : 3 6 B r e : .   @ < p J m 8 = ; r r S B 3 : : ",
"# : r r S e 8 2 1 M ..;.( ;.>.4.I i 2 7 8 e 8 3 9 ",
"  . % + ; X . s @.j.3.( y h :.5.5.@.| K B 8 ; . + ",
"8 = $ : ;   > T G.I.T.P.$./ H.L.J.#.*.+.B : + . $ ",
"8 : 3 8 - + b ) Y.R.U.A.M.d.l.V.L.} k O.f X % : 8 ",
"% : 5 r 0 a c ! b.z.h.s.w.w.e.s.i.-.@.z.%.% 8 9 9 ",
"+ % : : 7 l c Q ~ 9.8.8.0.0.q.q.w.g.t.%.X.q r 8 7 ",
"= & $ % $ z T W ~ [ ] 8.7.f.C.x.x.k.p.^ l m 8 % e ",
": 2 * : : g E n b Q 9.M.y.r.N.Z.S.N.p.n.U 7 5 o r ",
"$ : : q : 4 x s c ' u.,.R Y { v.3.` ! %.Z 7 6 % 8 ",
"$ r r 9 : = 0 2 ..a.u.1.b j ` <.=.2.2.N ; $ 5 : : ",
": e : 8 3 : e , c.m.1.6.v t _ B.K.D.K 2 : 3 7 S e ",
"= 2 7 8 ; % 9 . d  .$.o.k u  .F.&.V e ; $ : 7 H S ",
"+ $ ; : : 2 w X . 2 Z L L m C G 5 r D 8 % : 7 e r ",
"7 & + ; 3 : 7 + + 8 8 0 ; # . 0 S G 3 : 5 2 w H P ",
"e : # X + . : + : S e 3 + $ & : 9 e : % $ % 5 r H ",
"S 8 .     . : # r D P w : G D 8 7 : : % ; : 6 : e ",
"2 : $ + + . O O w w w w r r 3 8 : : 8 : : r H F r ",
"& O = +   . $ # 3 8 3 3 G w - - X % 7 & & A A S 6 ",
"& $ $ + . O $ & 3 w : = = X   X X 3 : $ 9 9 r r : ",
"8 7 # # $ $ + $ : : = $ % $ . % : 8 : & 5 5 9 9 7 ",
"r q 7 * * * $ $ 7 : - $ * 8 = $ : e : : % : 8 9 7 "
};
