/* XPM */
static char *bfs[] = {
/* columns rows colors chars-per-pixel */
"25 25 161 2",
"   c #251E16",
".  c #261E18",
"X  c #262117",
"o  c #27211A",
"O  c #2C241D",
"+  c #2F281D",
"@  c #3C241C",
"#  c #3F2A1E",
"$  c #2E2720",
"%  c #2E2822",
"&  c #2F2828",
"*  c #302723",
"=  c #332B25",
"-  c #3A2D25",
";  c #362E29",
":  c #392E2B",
">  c #363027",
",  c #393325",
"<  c #36322B",
"1  c #3B332C",
"2  c #3F382F",
"3  c #3E3631",
"4  c #3F3832",
"5  c #470905",
"6  c #4A0A04",
"7  c #530905",
"8  c #5A0A07",
"9  c #520C08",
"0  c #5C0D0A",
"q  c #4B130D",
"w  c #46190F",
"e  c #4A1B0F",
"r  c #51110B",
"t  c #5F130D",
"y  c #511610",
"u  c #5C1610",
"i  c #531910",
"p  c #5C1B12",
"a  c #600706",
"s  c #620805",
"d  c #690A07",
"f  c #650D09",
"g  c #6C0A0B",
"h  c #74080A",
"j  c #66150F",
"k  c #6C110D",
"l  c #74100E",
"z  c #651513",
"x  c #631914",
"c  c #6B1D14",
"v  c #751B13",
"b  c #7A1914",
"n  c #4D281E",
"m  c #522216",
"M  c #572618",
"N  c #54281E",
"B  c #6A271B",
"V  c #632A1B",
"C  c #6D2F1D",
"Z  c #7A2216",
"A  c #7D221C",
"S  c #67321F",
"D  c #422D25",
"F  c #502C22",
"G  c #582C22",
"H  c #42342C",
"J  c #4A332C",
"K  c #523426",
"L  c #533B2E",
"P  c #413732",
"I  c #433B34",
"U  c #493D35",
"Y  c #453E39",
"T  c #4A3F38",
"R  c #543532",
"E  c #652C24",
"W  c #772020",
"Q  c #6B3524",
"!  c #6B392D",
"~  c #763426",
"^  c #753925",
"/  c #72322D",
"(  c #733F2C",
")  c #494337",
"_  c #47413A",
"`  c #4B433C",
"'  c #51453D",
"]  c #5F433C",
"[  c #664130",
"{  c #6F4533",
"}  c #744839",
"|  c #7C483A",
" . c #493F40",
".. c #4D4743",
"X. c #4F4841",
"o. c #514740",
"O. c #534A44",
"+. c #5A4B45",
"@. c #574F48",
"#. c #584F48",
"$. c #5C534C",
"%. c #61534F",
"&. c #71584D",
"*. c #645754",
"=. c #635954",
"-. c #665E5B",
";. c #6B635B",
":. c #746561",
">. c #89080A",
",. c #91090B",
"<. c #860D13",
"1. c #8E0F1C",
"2. c #960C12",
"3. c #980E17",
"4. c #841513",
"5. c #83101D",
"6. c #89101E",
"7. c #8C1D1D",
"8. c #97101F",
"9. c #951A1D",
"0. c #A60E1A",
"q. c #A2111E",
"w. c #81291F",
"e. c #831420",
"r. c #881120",
"t. c #941424",
"y. c #9B1426",
"u. c #921923",
"i. c #9E1D2B",
"p. c #A31324",
"a. c #A1162C",
"s. c #A71C2A",
"d. c #862920",
"f. c #942826",
"g. c #982826",
"h. c #853125",
"j. c #83352B",
"k. c #8E3B32",
"l. c #913230",
"z. c #A52026",
"x. c #A2212B",
"c. c #A13E3E",
"v. c #834537",
"b. c #844D3C",
"n. c #934236",
"m. c #934A44",
"M. c #8D5747",
"N. c #86554F",
"B. c #9A5654",
"V. c #935E56",
"C. c #B24449",
"Z. c #B24F4E",
"A. c #886962",
"S. c #BB6569",
"D. c #A47673",
"F. c #AA807B",
"G. c #988884",
"H. c #A38381",
"J. c #A98886",
"K. c #AC918F",
"L. c #B59998",
/* pixels */
"O. .+.U O ; * 1 P < 1 - 1 ` I , < H 1 ` ..P P $.o.",
"` P ' H O ; < 1 _ 1 ; 3 _ ) ) + + * < ' o.1 1 ) ` ",
"_ H I - $ 1 Y Y U Y 3 T #.` 1 + o o 2 1 + + I U P ",
"3 U T 1 % 3 Y 3 P Y 3 ; 1 I < ; + o * ; ; ; = ; 1 ",
"= 2 3 * * 3 Y 3 T ] ( E N F N G N n D - 2 3 4 ` P ",
"- 1 * . $ < : R j.d.Z.C.c w e p B b w.E 1 _ I .._ ",
"= = * & < * $ d.4.v 7.z.v i i c w.c B A D _ ` ` ' ",
"1 = - 3 Y % - b f 4.9.i.u.e.e.u.z.Z B C K 3 I X.P ",
") 1 = * I = H x 0 7.i.a.t.r.r.y.x.f.h.^ } U < I I ",
"1 1 2 I O._ J q 0 4.i.y.t.5.6.p.s.g.d.j.| ` 1 1 < ",
"= 3 ` ` O.U J q f l y.p.y.8.1.8.9.B B N [ ) 3 4 3 ",
"O + ; & ; O @ q 0 k u.q.3.2.h g x M V Q { P = O * ",
"3 = ; < % X # u 8 j u.<.h ,.>.a y m S ^ [ < $ % = ",
"I 1 P U > O , p t N.D.W s h d 9 i r v ~ K % = 3 I ",
"< 1 P ` 4 o % ! v.K.L./ 7 9 6 p / z 0.7.L ; ) U _ ",
", , < 2 4 & 1 } M.S.c.~ u 5 q Q V.B.l.( ' P ` I P ",
"; ; = = = = P O.&.m.k.m.n.W { b.V.D.A.' U _ H < ` ",
"H 1 : 1 : = = 1 O.G.K.J.J.J.H.F.G.:.< O * U , ; X.",
"; 1 3 T - * P - 3 #.;.-.=.*.%.%.` =   % 3 T 1 - U ",
"- ..) U < < ) * ; 4 ...._ 3 = 1 _ I 3 1 & - H < 3 ",
"P _ 4 4 1 P ) O o 4 ..Y P + + 3 X.1 1 1 1 1 _ X.I ",
"< 3 4 4 ; < I   $ 3 < & < + P +._ T U ; < < _ $.` ",
"* ; < 2 , P I O * 4 ..Y ` 3 _ ' P o.@.2 < H P ` ) ",
"1 ; % 1 1 2 2 O * T Y Y = $ ; ) O.O.H 1 1 P ) =.$.",
"I ; + * + * < + P o.3 4 O & % 1 ` _ ; > * , P $.O."
};
