/* XPM */
static char *bfs_[] = {
/* columns rows colors chars-per-pixel */
"25 25 79 1",
"  c #241D16",
". c #2C241D",
"X c #2F281D",
"o c #30291F",
"O c #2F2720",
"+ c #2F2822",
"@ c #312724",
"# c #332B24",
"$ c #392F25",
"% c #362E28",
"& c #382E2A",
"* c #363125",
"= c #393226",
"- c #363129",
"; c #3B342C",
": c #3E392E",
"> c #3E3631",
", c #3F3832",
"< c #40342A",
"1 c #403B2F",
"2 c #403632",
"3 c #433A33",
"4 c #4B3E36",
"5 c #453D39",
"6 c #493F3A",
"7 c #4B4237",
"8 c #46413B",
"9 c #4A433C",
"0 c #4C493B",
"q c #51433D",
"w c #493F40",
"e c #4C4641",
"r c #4D4944",
"t c #4E4C4B",
"y c #514642",
"u c #534A44",
"i c #5A4B45",
"p c #544D4A",
"a c #584849",
"s c #585146",
"d c #54504D",
"f c #5B534C",
"g c #5F5651",
"h c #5F5A51",
"j c #605B4F",
"k c #635D57",
"l c #625C5B",
"z c #6A645C",
"x c #6C6560",
"c c #6F6B66",
"v c #6D6C6B",
"b c #706B68",
"n c #727170",
"m c #7D7A76",
"M c #7B7B7A",
"N c #817E7A",
"B c #84817E",
"V c #8A8583",
"C c #8C8884",
"Z c #98938F",
"A c #919292",
"S c #999897",
"D c #9C9B9A",
"F c #A09F9E",
"G c #A2A2A2",
"H c #A7A8A8",
"J c #A8A8A8",
"K c #B6B6B6",
"L c #B7B8B8",
"P c #BCBCBC",
"I c #C3C3C3",
"U c #CDCCCC",
"Y c #D5D5D4",
"T c #D9D8D6",
"R c #DAD9D9",
"E c #E5E5E5",
"W c #ECECEC",
"Q c #F4F4F4",
"! c #FEFEFE",
/* pixels */
"u6%@*#=9:;;#XX%9#;09;<;9a",
"wy9@oX;sr87:,339#o;;,3%>>",
"&2u5:*0jdkg8sxkfr8@+3>@%;",
"y2yu07hdmYTYTRTTUx:2%;6pg",
"y355940:ME!!!!!QKt*22uggy",
"9&&;;2:-mRW!!!!IAd%%upe%>",
"<O-2&%;#NTW!!!QLAp$%299ug",
"%%25q:;%MTW!!!QLAd;;3,>65",
"+;3;52&#NRW!!!QLAt+:53qiq",
";;,,44<#NTW!!!QLAt +<$<7q",
",-%:=$;@BRW!!!QLAtO++..@9",
",,=:;@#@MTW!!!QLAd%,2;;%;",
",,383:+;BTW!!!QLAr@,>5;%;",
"O. XzVCZKRW!!!QLAVVCVb;;5",
"%+..lLEQQWQ!!!QLP!QUSk522",
"8>:>5zDLYQQ!!!QRWPAnp2>**",
"88>we8xFHPE!!!QTDMv8>,%;:",
",e+5r,5xDJPE!QYSMv5.+8;;*",
"%9%36:$$fSJPEYSMvt%O;p9;;",
"+>+O2;%@+uSJLSMve%,>3077:",
"#91.%2@595cDGMvy525>;>31@",
"9yi,:91fk99kSn5&12::%.o==",
"u39q939ff95;03@@;%#X..X=7",
"uy4;2#$uy438-@>;;;#...#2s",
"1p4;,..9fy,80<0r959;@:=;f"
};
