/* XPM */
static char *bfs_[] = {
/* columns rows colors chars-per-pixel */
"25 25 110 2",
"   c #221C13",
".  c #251E1A",
"X  c #292216",
"o  c #27211A",
"O  c #2B231C",
"+  c #312A1E",
"@  c #3B341D",
"#  c #2F2721",
"$  c #2F2922",
"%  c #312720",
"&  c #342B25",
"*  c #362D29",
"=  c #382F29",
"-  c #363124",
";  c #393126",
":  c #36312A",
">  c #3C342D",
",  c #3D392D",
"<  c #3E3531",
"1  c #3E3932",
"2  c #443E22",
"3  c #41362F",
"4  c #433B2D",
"5  c #4A3F2B",
"6  c #403632",
"7  c #433A34",
"8  c #493E37",
"9  c #463E38",
"0  c #493F3B",
"q  c #4F4B0D",
"w  c #4F4C10",
"e  c #524F11",
"r  c #555012",
"t  c #65630B",
"y  c #68660D",
"u  c #777703",
"i  c #7E7E02",
"p  c #696510",
"a  c #656218",
"s  c #7F7C10",
"d  c #76721A",
"f  c #484123",
"g  c #474029",
"h  c #4D462C",
"j  c #544D2F",
"k  c #5E5B22",
"l  c #464135",
"z  c #4A4337",
"x  c #46403A",
"c  c #4B433C",
"v  c #4D483E",
"b  c #534C30",
"n  c #52443D",
"m  c #5B5333",
"M  c #5E5738",
"N  c #6D662E",
"B  c #797423",
"V  c #6E6931",
"C  c #736D35",
"Z  c #79733B",
"A  c #4E4642",
"S  c #4E4A43",
"D  c #504742",
"F  c #524A43",
"G  c #5E4D46",
"H  c #574E48",
"J  c #584C4A",
"K  c #5B534C",
"L  c #5D5B4E",
"P  c #60574F",
"I  c #615D52",
"U  c #817E13",
"Y  c #807C43",
"T  c #8D8D05",
"R  c #8F9000",
"E  c #919100",
"W  c #888514",
"Q  c #8D8B15",
"!  c #89851A",
"~  c #918E17",
"^  c #94921B",
"/  c #A5A503",
"(  c #ADAC04",
")  c #B6B600",
"_  c #BDBD03",
"`  c #B4B10F",
"'  c #A5A213",
"]  c #ACA913",
"[  c #A3A218",
"{  c #B6B311",
"}  c #BFBC19",
"|  c #C4C402",
" . c #CFCF02",
".. c #C5C50A",
"X. c #CDCC0C",
"o. c #D6D602",
"O. c #D9D900",
"+. c #DCDC0B",
"@. c #C9C911",
"#. c #E4E402",
"$. c #EDED02",
"%. c #E7E70B",
"&. c #F3F203",
"*. c #FEFE05",
"=. c #F2F20A",
"-. c #FEFE09",
";. c #E6E613",
":. c #FDFD11",
">. c #FCFC21",
",. c #FFFF2A",
/* pixels */
"& & * * & + * = > & > 9 & o O & 9 * 6 9 3 > 9 D D ",
"9 J c : + - & : c 6 , > & & $ & c % : c c > < > x ",
"* < c D & + + 4 K F S S 1 7 c c A * & & * < 6 * > ",
"0 6 6 J v l ; v I M Z C k V Y Z V N b & & 4 , & = ",
"J J 7 0 D F 9 L F W #.$.&.&.=.&.&.o.a < 7 & > F P ",
"D A 6 7 7 x 0 l , U O.*.-.-.-.-.$./ e * 4 9 K K D ",
"F 0 & & > = > > : s O.$.>.,.,.>._ T r * * n H c < ",
"6 < % > 7 6 = < & s O.$.-.:.:.=.) E r * : > 9 0 D ",
"& & * 6 7 c > = * s o.$.*.*.*.&.) E r > < 0 6 7 0 ",
"O & : 7 > 0 7 = * s O.$.-.*.*.&.) E r O : 8 4 n G ",
"& , > < 9 7 8 3 & U o.$.*.*.*.&.) E w . & = + = > ",
"# > : * : ; & * $ U o.$.*.*.*.&.) R r # & $ + O + ",
"* 6 l , 7 , - & & U O.$.*.*.*.&.) E r = l 7 3 : * ",
"* : , > 7 7 7 ; 7 ! o.$.*.*.*.&.) E q * 4 7 x : % ",
"# X X   X d ] ` } X.O.$.*.*.*.&.) E ( { ` ' B 7 6 ",
"9 > * & # j [  .$.*.&.$.*.*.*.&._ o.*.O.) W b 9 > ",
"c x 1 1 1 x M ! ( | %.=.-.*.*.&.;.+./ i y z < > ; ",
"1 x A : A A z P ^ / ) +.-.*.*.=.@.T u t @ > 7 : ; ",
": < 0 $ 9 S 1 4 m ~ / ) O.&.&...T u p @ X * c 6 * ",
"O * A & < 9 > - & f W ( ) o...T u p g > & 6 K x 4 ",
"& O > + o > 6 & & & 2 Q / ( T u y 5 * 6 < 6 l z v ",
"& : n c # & 7 & A D c I ^ / i t 5 x x 8 < : > 4 4 ",
"6 c x F z 6 c 7 L P c c h W y @ & > > : > * O O - ",
"c G 9 8 c 9 6 8 K K n x > @ @ * & : : & # X X $ > ",
"7 n F x > 7 + * F c 6 , c > * < > 6 > * + X O % < "
};
