/* XPM */
static char *bfs_[] = {
/* columns rows colors chars-per-pixel */
"25 25 123 2",
"   c #231C13",
".  c #281F18",
"X  c #2B231C",
"o  c #2E281F",
"O  c #31291E",
"+  c #1C2F36",
"@  c #242723",
"#  c #2E2822",
"$  c #302720",
"%  c #332B24",
"&  c #352E29",
"*  c #3A2F2D",
"=  c #353125",
"-  c #393326",
";  c #35312A",
":  c #3B332C",
">  c #3E392E",
",  c #213135",
"<  c #2D3535",
"1  c #25353A",
"2  c #3E3631",
"3  c #3E3932",
"4  c #353D3D",
"5  c #3E3B39",
"6  c #41362E",
"7  c #42382E",
"8  c #413531",
"9  c #433B34",
"0  c #493D36",
"q  c #453E39",
"w  c #493F3B",
"e  c #454035",
"r  c #494236",
"t  c #46403C",
"y  c #4B423C",
"u  c #54443C",
"i  c #1C3741",
"p  c #1C3A43",
"a  c #223B44",
"s  c #223F49",
"d  c #23424C",
"f  c #2C454E",
"g  c #3C4342",
"h  c #244856",
"j  c #32525A",
"k  c #054E6B",
"l  c #05506D",
"z  c #18596F",
"x  c #045776",
"c  c #015C7F",
"v  c #335D69",
"b  c #22667A",
"n  c #2F6B7E",
"m  c #434341",
"M  c #4D4541",
"N  c #424D4E",
"B  c #504742",
"V  c #534A44",
"C  c #5C4F47",
"Z  c #544A4A",
"A  c #5A4B4B",
"S  c #46504C",
"D  c #595147",
"F  c #575049",
"G  c #5B534C",
"H  c #5B594C",
"J  c #525453",
"K  c #505858",
"L  c #605C51",
"P  c #685E58",
"I  c #015D81",
"U  c #046588",
"Y  c #1B6985",
"T  c #1E6C89",
"R  c #046B92",
"E  c #0E7295",
"W  c #01749E",
"Q  c #0A759C",
"!  c #0B789F",
"~  c #1C7593",
"^  c #127A9E",
"/  c #2B6D82",
"(  c #226E8B",
")  c #2E7086",
"_  c #34778B",
"`  c #0376A0",
"'  c #0079A5",
"]  c #0F79A0",
"[  c #007BA8",
"{  c #3C8094",
"}  c #0185B4",
"|  c #0288B6",
" . c #0B8CB3",
".. c #038EBD",
"X. c #038FC3",
"o. c #0396C6",
"O. c #0B94C3",
"+. c #0097CE",
"@. c #0198CF",
"#. c #029CD3",
"$. c #099DD4",
"%. c #009FDA",
"&. c #0CA2D6",
"*. c #01A0DA",
"=. c #0FA9DD",
"-. c #0EB1DC",
";. c #01ABE3",
":. c #03ACEA",
">. c #0BB4E7",
",. c #04B5EC",
"<. c #09B3EA",
"1. c #18BBE0",
"2. c #03B3F1",
"3. c #02BCF7",
"4. c #03B7F9",
"5. c #05BDFE",
"6. c #08BEFA",
"7. c #09C1F6",
"8. c #0AC2FF",
"9. c #13C6F5",
"0. c #10CDFC",
"q. c #12D2FF",
"w. c #28E6FF",
/* pixels */
": : ; % % % % = : % 9 > o X X : 0 % 9 y 6 6 9 B B ",
"B A M : o = o 9 B t 3 > = ; % 8 0 o ; u 8 3 : * M ",
"* * w M = = O r G V D y > u V u 0 : % % & q : % * ",
"Z 8 0 A u e > L G v _ ) b _ { _ / n g ; ; 6 ; : 9 ",
"A B 9 w y B y H 5 Q 2.5.5.5.5.5.4.} a : 7 * y G P ",
"Z w 8 9 9 q 9 9 ; E %.7.q.q.q.0.o.I 1 - > B H B 9 ",
"y 8 o = : % ; : = E +.<.w.w.w.9.` c < % ; B Z y 9 ",
": ; % 8 w 8 : 8 ; E +.:.8.7.3.#.W c 1 - * 3 8 0 Z ",
"# # : 2 9 y * * ; E +.:.5.5.4.%.W I 1 : 9 0 7 w y ",
"% % 3 9 > 0 0 * % E +.:.5.5.4.*.W c + . : 9 7 u C ",
": 3 ; 3 8 7 7 * ; E +.:.5.5.4.%.W I + X & % O O 6 ",
"$ 3 ; % - = % % < E +.:.5.5.4.%.W c , % & % % o & ",
": q 9 9 q 7 % % * E @.:.8.5.4.%.W c , : y 9 9 & & ",
"$ & % = : g g 4 N ^ @.:.5.5.4.%.W c i 4 4 g t % & ",
"X X X   @ T O.$.=.*.@.:.6.5.4.%.W ' &.&.O.] j 9 9 ",
"y 8 ; & & N ~ ..;.3.<.2.6.5.4.%...,.;...U h y 7 & ",
"9 t q 5 q y S T W | -.9.7.5.4.>.1. .U k s 5 3 & - ",
"5 t q & M m r J ( W [ $.2.4.2.&.! x l + # : 9 % > ",
"% 8 q # M t 3 6 g Y W [ +.:.$.Q x k d % X ; V 8 - ",
"X ; 9 % : 8 * % % 1 b W [ X.Q x k s 3 * ; y Z r 9 ",
"X % : X o 8 : % : = 4 ( ` R x k f : : 9 9 6 9 y 0 ",
"% q D y X 6 0 ; G Z B K T R k a 9 r y 9 : & - - : ",
"0 y 9 C 0 y 0 y L A y 9 4 z p % % : : % % O X X - ",
"C Z 9 0 9 9 ; y H Z r q 3 # % & % : ; % X X X % 7 ",
": y F 9 8 > X ; B y 9 7 y 3 : t 9 8 3 ; % X o % 9 "
};
