/* XPM */
static char *bft[] = {
/* columns rows colors chars-per-pixel */
"25 25 130 2",
"   c #221C14",
".  c #261F19",
"X  c #291F18",
"o  c #27201C",
"O  c #2C241D",
"+  c #2E291E",
"@  c #31231D",
"#  c #31291E",
"$  c #2F2620",
"%  c #2F2821",
"&  c #332621",
"*  c #332B24",
"=  c #3A2D27",
"-  c #362E29",
";  c #3A2F2A",
":  c #363025",
">  c #383227",
",  c #363129",
"<  c #3B332C",
"1  c #3E392E",
"2  c #3E3631",
"3  c #3F3931",
"4  c #42362E",
"5  c #43382E",
"6  c #413732",
"7  c #433B34",
"8  c #493C35",
"9  c #42343A",
"0  c #463D39",
"q  c #493F39",
"w  c #464135",
"e  c #484237",
"r  c #47413A",
"t  c #4B423C",
"y  c #4D493E",
"u  c #50443D",
"i  c #514B3F",
"p  c #4E3E48",
"a  c #482D57",
"s  c #4B1C66",
"d  c #4F2467",
"f  c #5B2C66",
"g  c #51226D",
"h  c #532A6D",
"j  c #5C2B6B",
"k  c #5B3667",
"l  c #53346C",
"z  c #542771",
"x  c #562B75",
"c  c #5B2B73",
"v  c #5C2E79",
"b  c #5E3174",
"n  c #5D3C79",
"m  c #663969",
"M  c #622D78",
"N  c #653C72",
"B  c #683D75",
"V  c #62337B",
"C  c #6C347E",
"Z  c #663B7D",
"A  c #4E4441",
"S  c #4F4842",
"D  c #514643",
"F  c #524A43",
"G  c #5B4C45",
"H  c #534449",
"J  c #554B4B",
"K  c #584B49",
"L  c #555049",
"P  c #5B544C",
"I  c #5A584B",
"U  c #554D55",
"Y  c #5E4955",
"T  c #5A415E",
"R  c #5D5452",
"E  c #5D535A",
"W  c #655B5A",
"Q  c #656455",
"!  c #635164",
"~  c #6D536A",
"^  c #72556B",
"/  c #6A4772",
"(  c #6E4D73",
")  c #6C447E",
"_  c #725673",
"`  c #705875",
"'  c #7C5C7E",
"]  c #6C6562",
"[  c #726569",
"{  c #756973",
"}  c #786D75",
"|  c #7A697A",
" . c #6C3583",
".. c #6D3D83",
"X. c #674582",
"o. c #6B4385",
"O. c #754284",
"+. c #724489",
"@. c #784088",
"#. c #774E8F",
"$. c #7C4989",
"%. c #745485",
"&. c #7E5885",
"*. c #7B5A89",
"=. c #7B4C92",
"-. c #775190",
";. c #7F5595",
":. c #77648C",
">. c #865887",
",. c #82558D",
"<. c #825C89",
"1. c #865392",
"2. c #885697",
"3. c #865C9A",
"4. c #8B5F9A",
"5. c #82638D",
"6. c #877985",
"7. c #837588",
"8. c #886696",
"9. c #816E93",
"0. c #8C6A97",
"q. c #8A7593",
"w. c #8E7A9F",
"e. c #9D7EA7",
"r. c #987FAC",
"t. c #94829D",
"y. c #9D869B",
"u. c #9D8CA1",
"i. c #A28EA4",
"p. c #A486AD",
/* pixels */
"e 4 < * 4 q D A 0 7 6 * & & & * > < < > * * % o + ",
"q 8 0 0 q 1 q P F t q ; & - & * % < 1 > * - 1 * * ",
"q 7 e A q # e W 7 F F 6 q e 9 , , 7 > > > * 7 > * ",
"K K q y y - q W 9 0 J q G 7 2 < 2 7 > < 1 > 3 2 > ",
"e F y u 6 - < R A 0 q A G @ & - % 7 2 - - > w y < ",
"e 7 q q - - - F P D 7 7 5 # * 6 0 0 0 2 6 i i 7 < ",
"1 2 6 6 6 0 1 ; K F 2 7 6 % - 1 7 2 6 9 2 7 D 6 > ",
", 2 > < 1 - < < 7 0 Y ^ ^ ~ [ [ t 2 A 0 * + , 6 > ",
"S D > q y % > 6 H ' >.&.<.0.8.p.y.W 2 > O + > 7 7 ",
"e u 7 7 < * 1 p &.1.,.,.4.3.;.4.e.i.J - # - 2 6 e ",
"F e 6 > % , t _ ,.,.2.2.;.+.=.-.3.p.6.1 # - > = y ",
"0 q 4 6 6 7 W 5.$.$.@. .........#.:.t.J + & - 7 0 ",
"- 1 1 9 q F [ 5.O.C M s M =.c g V %.w.E X O @ @ = ",
"1 6 * O # F | *...#.o.d z V g s h X.9.U X X & - * ",
", < * o - F { %.) r.3.b z g z z x n :.E @ = 7 , - ",
"o O + O - 1 R %.B ) Z j g z x x l l :.R * 4 e 3 4 ",
"% 3 > 1 , r r ` N m c c x x x a p l 7.t * < 1 7 F ",
"3 r r 6 7 P y U / f j c v v h 9 ! q.] 0 7 4 * , K ",
"t 7 2 - 3 K 6 * A k c b V V ) q.u.} S 2 q 4 $ - D ",
"1 7 2 > y L F > * 0 T / / ( | | Q P y - q 8 * < P ",
"% 0 t < e i Q I 3 < 6 9 9 6 9 - 3 S R J G 5 * & 6 ",
"O 7 t * * * w y 7 > < - 6 4 * * > > S S u < - = < ",
"= < 1 * * : 1 y q - 1 w t 5 - 1 7 * 0 r r 0 6 8 7 ",
"7 6 > * + : y y 7 , 0 e 6 4 > 7 < . , r J S 6 * O ",
"W i 4 * * 6 K t 6 < 7 6 2 7 - e >   - 3 - , % . 2 "
};
