/* XPM */
static char *bn_[] = {
/* columns rows colors chars-per-pixel */
"25 25 46 1",
"  c #000000",
". c #060606",
"X c #090909",
"o c #0D0D0D",
"O c #121212",
"+ c #161616",
"@ c #272727",
"# c #2F2F2F",
"$ c #3C3C3C",
"% c #464646",
"& c #494949",
"* c #4B4B4B",
"= c #535353",
"- c #5E5E5E",
"; c #626262",
": c #656565",
"> c #6A6A6A",
", c #6D6D6D",
"< c #717171",
"1 c #757575",
"2 c #7B7B7B",
"3 c #848484",
"4 c #919191",
"5 c #999999",
"6 c #9E9E9E",
"7 c #A3A3A3",
"8 c #A7A7A7",
"9 c #ACACAC",
"0 c #B5B5B5",
"q c #B9B9B9",
"w c #C4C4C4",
"e c #C7C7C7",
"r c #CACACA",
"t c #CFCFCF",
"y c #D1D1D1",
"u c #D8D8D8",
"i c #DADADA",
"p c #DDDDDD",
"a c #E1E1E1",
"s c #E7E7E7",
"d c #EBEBEB",
"f c #ECECEC",
"g c #F1F1F1",
"h c #F4F4F4",
"j c #F7F7F7",
"k c #FEFEFE",
/* pixels */
"                         ",
"                         ",
"           ..            ",
"          X&-o           ",
"         X&26:X          ",
"        X%1387:o         ",
"       X%130r97:o        ",
"      X&130dht98:o       ",
"     X&13qfkkhy97:o      ",
"    X&14esgkkkhi07>o     ",
"   X=5rfaegkkkghhpq<O    ",
"  .&8ryr70gkkkfapyr0-.   ",
"   O++O%40gkkkfi1O++O    ",
"       $4qgkkkfi>        ",
"       $4qgkkkfi>        ",
"       $40gkkkdi>        ",
"       $4qgkkkfi>        ",
"       $40gkkkfi>        ",
"       $4qgkkkfi>        ",
"       $4qhkkkfi>        ",
"       $5ikkkkhi>        ",
"       %ikkkkkkg,        ",
"       @;;;;;;;;#        ",
"                         ",
"                         "
};
