/* XPM */
static char *bn_[] = {
/* columns rows colors chars-per-pixel */
"25 25 69 1",
"  c #000000",
". c #060601",
"X c #090900",
"o c #111100",
"O c #232301",
"+ c #272705",
"@ c #2E2E01",
"# c #303007",
"$ c #3A3A00",
"% c #3D3D00",
"& c #3C3C07",
"* c #343408",
"= c #434300",
"- c #454504",
"; c #5B5B01",
": c #656502",
"> c #6B6B00",
", c #686802",
"< c #7B7B03",
"1 c #7C7C00",
"2 c #808003",
"3 c #8B8B0B",
"4 c #919100",
"5 c #929200",
"6 c #939303",
"7 c #999906",
"8 c #90900B",
"9 c #93930A",
"0 c #979708",
"q c #989808",
"w c #9D9D0B",
"e c #A1A101",
"r c #A2A203",
"t c #A7A703",
"y c #AFAF09",
"u c #B4B401",
"i c #B5B502",
"p c #BABA01",
"a c #BFBF01",
"s c #BDBD05",
"d c #C6C601",
"f c #C0C005",
"g c #C6C607",
"h c #CBCB01",
"j c #D5D503",
"k c #D8D800",
"l c #D4D40A",
"z c #DBDB0C",
"x c #D8D815",
"c c #E3E301",
"v c #E6E600",
"b c #E9E901",
"n c #ECEC01",
"m c #E7E70C",
"M c #E7E70E",
"N c #F2F201",
"B c #F3F302",
"V c #F7F702",
"C c #F6F603",
"Z c #FCFC03",
"A c #F8F804",
"S c #FFFF04",
"D c #F2F20B",
"F c #F6F609",
"G c #FFFF08",
"H c #FCFC0A",
"J c #F8F80D",
"K c #FFFF1A",
"L c #FFFF25",
/* pixels */
"                         ",
"                         ",
"           O+            ",
"          O,3#           ",
"         O:2r8#          ",
"        O:<7it8#         ",
"       O:<0lcpt8*        ",
"      O,<qlAZvpt8*       ",
"     O:1wxFSSGmsr7#      ",
"    O,6fmzNSSGJDjp8*     ",
"   @6jNVapNSGSnbZCcy&    ",
"  .%:,,<5iNSSGnjr,,,-.   ",
"       $5pNSGGnk,        ",
"       %5iNSSGnk,        ",
"       %5iNSSGnk>        ",
"       $5iNSGSnk>        ",
"       %5iNSSSnk,        ",
"       %5iNASGnk,        ",
"       $5uDKKGbk>        ",
"       %5gLLLLDk,        ",
"       %iCSSSSSv>        ",
"       =ahhhhhhd;        ",
"       XooooooooX        ",
"                         ",
"                         "
};
