/* XPM */
static char *bn_[] = {
/* columns rows colors chars-per-pixel */
"25 25 82 1",
"  c #000000",
". c #000304",
"X c #010405",
"o c #010506",
"O c #00090D",
"+ c #031318",
"@ c #01141B",
"# c #041B24",
"$ c #001F2A",
"% c #002330",
"& c #012533",
"* c #0A3646",
"= c #0A3849",
"- c #0A4155",
"; c #024D6A",
": c #004F6D",
"> c #024F6C",
", c #005170",
"< c #015573",
"1 c #055777",
"2 c #045877",
"3 c #085977",
"4 c #055E7E",
"5 c #036489",
"6 c #006C95",
"7 c #096F94",
"8 c #006F98",
"9 c #097095",
"0 c #01729A",
"q c #047199",
"w c #02759F",
"e c #09759D",
"r c #0276A1",
"t c #0D7CA1",
"y c #017EAC",
"u c #0180AE",
"i c #0185B2",
"p c #0185B4",
"a c #0887B4",
"s c #0086B8",
"d c #0087B8",
"f c #058DBB",
"g c #0993BD",
"h c #0294C5",
"j c #0195CA",
"k c #0197CB",
"l c #0298CB",
"z c #0598CD",
"x c #009AD3",
"c c #009BD3",
"v c #089DD4",
"b c #06A0D0",
"n c #02A4DC",
"m c #0AADDD",
"M c #10A8D8",
"N c #12B5DC",
"B c #00A5E0",
"V c #01ACE6",
"C c #01AFEA",
"Z c #0AB1E5",
"A c #01B0EB",
"S c #03B0EF",
"D c #02B4ED",
"F c #03B3F2",
"G c #05B3F1",
"H c #04B4F3",
"J c #03B6F6",
"K c #02B8F3",
"L c #05B9F8",
"P c #02BCF8",
"I c #04BAFC",
"U c #05BCFE",
"Y c #12C3EE",
"T c #07C0FF",
"R c #0DC2F8",
"E c #0EC3F8",
"W c #09C6FC",
"Q c #0ACBFF",
"! c #12C6F4",
"~ c #10CAFF",
"^ c #12CCFF",
"/ c #28E6FF",
/* pixels */
"                         ",
"          .+X            ",
"          &3*.           ",
"         &;59*           ",
"       .&;18r7*          ",
"       &;1evdr9=.        ",
"     .&;1evCBdr9=.       ",
"     &;1tMFLLZfw7=X      ",
"  XX&>5gNmJUUEYbu7=X     ",
"  X&6lKDikJUUHBPKna-X    ",
"  #<0rr06kJUTHcjyr04#    ",
"   X  O>6kJUTHcy@  X.    ",
"      O>6jJUTFcy+        ",
"      O>qkJUTFcy@        ",
"      O>6jJUUFcy@        ",
"      O>6lJUTFcy@        ",
"      O>8jJUUHcy+        ",
"      O>6jE^~Hcy@        ",
"      O>8N///!cy@        ",
"      O,hWQQQQVy+        ",
"      O6VDCCCACp+        ",
"      X$&%%%&&&$X        ",
"                         ",
"                         ",
"                         "
};
