/* XPM */
static char *bo_[] = {
/* columns rows colors chars-per-pixel */
"25 25 45 1",
"  c #000000",
". c #050505",
"X c #272727",
"o c #292929",
"O c #333333",
"+ c #373737",
"@ c #383838",
"# c #3C3C3C",
"$ c #434343",
"% c #494949",
"& c #4C4C4C",
"* c #515151",
"= c #5B5B5B",
"- c #6A6A6A",
"; c #6F6F6F",
": c #767676",
"> c #7E7E7E",
", c #828282",
"< c #868686",
"1 c #919191",
"2 c #949494",
"3 c #989898",
"4 c #9C9C9C",
"5 c #A3A3A3",
"6 c #A7A7A7",
"7 c #ABABAB",
"8 c #AEAEAE",
"9 c #B0B0B0",
"0 c #B6B6B6",
"q c #B7B7B7",
"w c #BDBDBD",
"e c #C4C4C4",
"r c #CBCBCB",
"t c #D0D0D0",
"y c #D7D7D7",
"u c #D8D8D8",
"i c #DFDFDF",
"p c #E3E3E3",
"a c #E7E7E7",
"s c #E9E9E9",
"d c #ECECEC",
"f c #F2F2F2",
"g c #F6F6F6",
"h c #FBFBFB",
"j c #FDFDFD",
/* pixels */
"          ..             ",
"         .*o             ",
"        .*w@             ",
"       .&6i@             ",
"      .&4ed+             ",
"     .&48af<-----;--;%   ",
"    .%47rgpuuuuuuuuud2   ",
"    %47efgdddddddddfj3.  ",
"   %47edjjjjjjjjjjjjj3   ",
"  $35wdjjjjjjjjjjjjjj3   ",
"  +:,6ihjjjjjjjjjjjjj3   ",
"   O;>6phffffffgffgjj3   ",
"    +;>6ptqqqqqqqqqtj3   ",
"     +;>9s8111111112r2   ",
"      +;,us=@######@$+   ",
"       +;8d@             ",
"       .+>y@             ",
"         @6@             ",
"         .$X             ",
"           .             ",
"                         ",
"                         ",
"                         ",
"                         ",
"                         "
};
