/* XPM */
static char *bo_[] = {
/* columns rows colors chars-per-pixel */
"25 25 66 1",
"  c #000000",
". c #050500",
"X c #0E0E00",
"o c #101000",
"O c #1A1A04",
"+ c #1E1E05",
"@ c #232305",
"# c #2D2D04",
"$ c #323203",
"% c #353501",
"& c #3C3C01",
"* c #474701",
"= c #4D4D01",
"- c #595900",
"; c #646402",
": c #6A6A00",
"> c #6F6F02",
", c #717102",
"< c #777702",
"1 c #7E7E04",
"2 c #7E7E0B",
"3 c #7D7D0C",
"4 c #838300",
"5 c #8B8B01",
"6 c #80800B",
"7 c #979700",
"8 c #989800",
"9 c #9C9C03",
"0 c #98980B",
"q c #A5A501",
"w c #A6A605",
"e c #A6A609",
"r c #ACAC0E",
"t c #B2B200",
"y c #B5B503",
"u c #B1B104",
"i c #BABA01",
"p c #C7C700",
"a c #CECE00",
"s c #CCCC02",
"d c #CDCD06",
"f c #D3D300",
"g c #D7D704",
"h c #DADA00",
"j c #D9D902",
"k c #DCDC09",
"l c #D9D90D",
"z c #DEDE0C",
"x c #E5E500",
"c c #E0E007",
"v c #EEEE01",
"b c #E1E109",
"n c #E6E60E",
"m c #EDED08",
"M c #F1F101",
"N c #F9F902",
"B c #FDFD02",
"V c #FAFA06",
"C c #FFFF06",
"Z c #F7F70E",
"A c #FEFE08",
"S c #FAFA0D",
"D c #E2E214",
"F c #FAFA11",
"G c #FFFF1A",
"H c #FFFF25",
/* pixels */
"                         ",
"          @$             ",
"         +0;             ",
"        +2g:             ",
"       +3uM:             ",
"      +3waB5&&&*&*&*&%.  ",
"     O6wymMfaaaaaaaahio  ",
"    O3wtzZxxxxxxxxxxNdo  ",
"   O3wthSABCCCNCBCAGCao  ",
"  O3wthNCCCCCCCCCCGHCpo  ",
"  #15wcNBCCCCCCBCCGHBsX  ",
"   $>1ebVNNNNNNNNVFHCsX  ",
"    %,1eDkppppapapplAao  ",
"     $,1rnt778778878apo  ",
"     .%,1dv4---------:X  ",
"       %>9V: .   .       ",
"       .%<h:             ",
"        .%q:             ",
"          *=             ",
"          .X             ",
"                         ",
"                         ",
"                         ",
"                         ",
"                         "
};
