/* XPM */
static char *bo_[] = {
/* columns rows colors chars-per-pixel */
"25 25 95 2",
"   c #000000",
".  c #000304",
"X  c #000507",
"o  c #02080B",
"O  c #020A0D",
"+  c #00141C",
"@  c #00151D",
"#  c #00161F",
"$  c #001720",
"%  c #011821",
"&  c #011E28",
"*  c #012330",
"=  c #002736",
"-  c #002937",
";  c #002938",
":  c #003549",
">  c #083849",
",  c #0B485F",
"<  c #024660",
"1  c #024862",
"2  c #0B4960",
"3  c #0C4B62",
"4  c #0B4E66",
"5  c #024F6C",
"6  c #09546F",
"7  c #035474",
"8  c #045676",
"9  c #005C7E",
"0  c #005E81",
"q  c #006285",
"w  c #01668B",
"e  c #01678C",
"r  c #01688E",
"t  c #086A8F",
"y  c #026D94",
"u  c #007097",
"i  c #017097",
"p  c #07739B",
"a  c #01739C",
"s  c #00749F",
"d  c #0A789B",
"f  c #0176A2",
"g  c #0177A3",
"h  c #027CA7",
"j  c #067FAA",
"k  c #0386B6",
"l  c #048BB7",
"z  c #008EC2",
"x  c #0190C3",
"c  c #0593C5",
"v  c #0297C9",
"b  c #0097CE",
"n  c #0995C8",
"m  c #0B97C9",
"M  c #049BCB",
"N  c #0098CF",
"B  c #089ECA",
"V  c #009AD2",
"C  c #009CD4",
"Z  c #0BA2CD",
"A  c #01A1DA",
"S  c #17AFD3",
"D  c #02A7E3",
"F  c #01A8E2",
"G  c #02ABEA",
"H  c #02ACE8",
"J  c #01AEE9",
"K  c #04AEEC",
"L  c #0EB4E0",
"P  c #06B0EA",
"I  c #04B4EB",
"U  c #07B7EB",
"Y  c #01B0EC",
"T  c #0CB5E8",
"R  c #01B3F0",
"E  c #07B6F0",
"W  c #03B6F7",
"Q  c #02BAF6",
"!  c #09BDF1",
"~  c #04B8F9",
"^  c #04B9FA",
"/  c #05BCFE",
"(  c #07BFFF",
")  c #0CC0F2",
"_  c #07C0FF",
"`  c #02C4FF",
"'  c #02C5FF",
"]  c #09C0FD",
"[  c #13C3F0",
"{  c #16D0F8",
"}  c #1CD7FF",
"|  c #1CDBFF",
" . c #1DDCFF",
".. c #21DDFE",
"X. c #23E0FF",
/* pixels */
"                                                  ",
"                    O O                           ",
"                  O 6 *                           ",
"                O 4 c ;                           ",
"              O 3 j F ;                           ",
"            O 2 p v R ;   X X X X X X X X X       ",
"          O 3 p h I Y a w e r e e e e w y 1       ",
"        o 2 p f Z ! C b N b b V N N b V R i       ",
"      o , p f z [ E G G G G G G J G K ! ' y       ",
"    o 3 p f z G ( ( ( ( ( ( ( ( _ ] | | ' i       ",
"    > t y k D W ( ( ( ( ( ( ( ( ] ] ..| ' i       ",
"    $ < 8 t m K W ~ ~ ~ W ^ ^ W ~ ~ ..| _ y       ",
"      $ < 8 t m T A A A C A A A A A L { ' i       ",
"        $ < 8 t S B s f f f a f s s s l Q i       ",
"          % < 8 d I k 0 9 9 0 9 9 9 9 9 h q       ",
"            % < 8 B K : + $ $ $ # # # # # #       ",
"              % < s J -                           ",
"                % 5 v -                           ",
"                  % r =                           ",
"                    & #                           ",
"                                                  ",
"                                                  ",
"                                                  ",
"                                                  ",
"                                                  "
};
