/* XPM */
static char *bs_[] = {
/* columns rows colors chars-per-pixel */
"25 25 43 1",
"  c #000000",
". c #040404",
"X c #121212",
"o c #141414",
"O c #191919",
"+ c #1E1E1E",
"@ c #242424",
"# c #323232",
"$ c #3B3B3B",
"% c #3C3C3C",
"& c #474747",
"* c #4E4E4E",
"= c #575757",
"- c #595959",
"; c #5E5E5E",
": c #686868",
"> c #6A6A6A",
", c #737373",
"< c #787878",
"1 c #7E7E7E",
"2 c #818181",
"3 c #8C8C8C",
"4 c #8D8D8D",
"5 c #939393",
"6 c #969696",
"7 c #A1A1A1",
"8 c #A6A6A6",
"9 c #ABABAB",
"0 c #B3B3B3",
"q c #B7B7B7",
"w c #BEBEBE",
"e c #C3C3C3",
"r c #C5C5C5",
"t c #C9C9C9",
"y c #D2D2D2",
"u c #D8D8D8",
"i c #DFDFDF",
"p c #E4E4E4",
"a c #EAEAEA",
"s c #EDEDED",
"d c #F2F2F2",
"f c #F9F9F9",
"g c #FFFFFF",
/* pixels */
"                         ",
"                         ",
"        O########o       ",
"        :pssssssy&       ",
"        :ifgggga7$       ",
"        :usgggfw5$       ",
"        :usgggdq5$       ",
"        :usgggdq5%       ",
"        :usgggdq5$       ",
"        >usgggdq5$       ",
"        >usgggdq5$       ",
"        >usgggdq5%       ",
"      . :usgggdq5$  ..   ",
"   .-677eusgggdq68774*.  ",
"    @5tsgssgggdwyfpq,O   ",
"     @29eafgggdpu82-o    ",
"      +280ifggdr4<-o     ",
"       +180ufdr4<-o      ",
"        +180ur4<-o       ",
"         O1894<=X        ",
"          O171=X         ",
"           O<;X          ",
"            XX           ",
"                         ",
"                         "
};
