/* XPM */
static char *bs_[] = {
/* columns rows colors chars-per-pixel */
"25 25 73 1",
"  c #000000",
". c #080800",
"X c #0B0B02",
"o c #0F0F00",
"O c #0E0E03",
"+ c #111100",
"@ c #111102",
"# c #1B1B01",
"$ c #1C1C01",
"% c #333305",
"& c #464602",
"* c #494902",
"= c #595901",
"- c #5E5E02",
"; c #616101",
": c #6A6A00",
"> c #6E6E00",
", c #64640B",
"< c #67670C",
"1 c #69690B",
"2 c #727200",
"3 c #757503",
"4 c #767603",
"5 c #797901",
"6 c #7E7E00",
"7 c #7B7B0A",
"8 c #818103",
"9 c #848405",
"0 c #868606",
"q c #8A8A00",
"w c #8D8D00",
"e c #919103",
"r c #9F9F00",
"t c #A4A401",
"y c #A2A206",
"u c #A7A704",
"i c #ACAC00",
"p c #AEAE02",
"a c #AAAA06",
"s c #B5B501",
"d c #B8B801",
"f c #BEBE01",
"g c #B6B60A",
"h c #BCBC11",
"j c #C4C402",
"k c #CBCB01",
"l c #CECE06",
"z c #D7D700",
"x c #DFDF00",
"c c #DCDC02",
"v c #D9D904",
"b c #D3D30A",
"n c #D9D908",
"m c #E1E101",
"M c #E4E400",
"N c #E2E206",
"B c #E6E606",
"V c #ECEC01",
"C c #EBEB07",
"Z c #E2E20F",
"A c #F4F401",
"S c #F5F501",
"D c #F9F903",
"F c #FCFC02",
"G c #FAFA07",
"H c #FFFF04",
"J c #F6F60E",
"K c #FCFC0A",
"L c #E9E913",
"P c #FBFB13",
"I c #FEFE15",
"U c #FFFF1B",
"Y c #FFFF25",
/* pixels */
"                         ",
"                         ",
"       o+++o+++o         ",
"      #tkkkkkkkwo        ",
"      $fSHHHHHc6.        ",
"      $dmPYYYLt2o        ",
"      $dmGIUIvr2o        ",
"      $dmGKHFzt2o        ",
"      $dcFHHHzr2o        ",
"      $dmFKHHzt2o        ",
"      $dcGHHFcr2o        ",
"      $dmFKHFzr2o        ",
"      $smSKHFzr2o        ",
"  $-::5kcKHHHcrq>::=$    ",
"  +7lVFSMFKHHzicFms;o    ",
"   +1ajBJKHHFNZnu9*.     ",
"    O<ypbJHHFLh93*.      ",
"     O<yibAFCg93*.       ",
"      O<yibBg93*.        ",
"       X<yip93&.         ",
"        X<ye3&.          ",
"         X<0&.           ",
"          O%.            ",
"                         ",
"                         "
};
