/* XPM */
static char *bs_[] = {
/* columns rows colors chars-per-pixel */
"25 25 88 1",
"  c #000000",
". c #000101",
"X c #000304",
"o c #02080B",
"O c #02090B",
"+ c #000A0E",
"@ c #030B0E",
"# c #030D11",
"$ c #021016",
"% c #01171F",
"& c #001720",
"* c #011821",
"= c #011F2A",
"- c #00222F",
"; c #002330",
": c #002432",
"> c #012B3B",
", c #052D3C",
"< c #003C54",
"1 c #0B495F",
"2 c #024660",
"3 c #024862",
"4 c #0C4B62",
"5 c #054F6B",
"6 c #004F6C",
"7 c #045473",
"8 c #045574",
"9 c #0B5772",
"0 c #035D7F",
"q c #036082",
"w c #026184",
"e c #04678B",
"r c #006890",
"t c #056A90",
"y c #016C92",
"u c #0A6F92",
"i c #07739B",
"p c #00739C",
"a c #06759E",
"s c #0177A0",
"d c #0277A3",
"f c #0785AE",
"g c #0183B0",
"h c #0184B1",
"j c #0286B4",
"k c #008ABB",
"l c #008ABC",
"z c #018FBE",
"x c #008DC0",
"c c #008DC1",
"v c #0690C1",
"b c #0091C6",
"n c #0893C6",
"m c #0096CC",
"M c #0A95C8",
"N c #0199CF",
"B c #0B9FC9",
"V c #009ED8",
"C c #009FD8",
"Z c #11A1CD",
"A c #02A1DA",
"S c #01A6DF",
"D c #08ABDA",
"F c #12B5DE",
"G c #02ABE4",
"H c #01AAE8",
"J c #01AFEB",
"K c #01B0EB",
"L c #01B0EC",
"P c #07B1EC",
"I c #09B6EC",
"U c #03B2F0",
"Y c #02B7F2",
"T c #07BFF5",
"R c #0ABAF1",
"E c #05B9F9",
"W c #04BAFA",
"Q c #07BCF9",
"! c #04BBFE",
"~ c #06BFFF",
"^ c #0BC2FB",
"/ c #0ACBFF",
"( c #0ACCFF",
") c #13C5F1",
"_ c #12CCFF",
"` c #1AD3FA",
"' c #25E1FC",
"] c #2AE8FF",
/* pixels */
"                         ",
"                         ",
"       +-;;;;;;:*        ",
"       >NKKJJJLS6        ",
"       >bL///(Th<X       ",
"       >cA`]]'Br<X       ",
"       >cCQ__Rkr<X       ",
"       >cCE~!Llr<        ",
"       >cCE~~Ulr<X       ",
"       >cCE~!Jlr<X       ",
"       >cCE~!Ulr<X       ",
"       >cCE^!Jlr<        ",
"       ,cCQ~!Ulr<  XX    ",
"   ,epsgmCE~!Ulrpssy3@   ",
"   #9vGEYSE~~UlzTPcw=    ",
"    +4ajD)^~!UDFfq3*     ",
"     +4idMIEEPZu82& XX   ",
"      +4iscGJMt83&X    X ",
"       +4idcnt82*    X X ",
"        O4ist82& XX      ",
"         O1i02%     XX   ",
"          O15%         X ",
"           O$            ",
"                         ",
"                         "
};
