/* XPM */
static char *va[] = {
/* columns rows colors chars-per-pixel */
"25 25 98 2",
"   c #960A07",
".  c #980806",
"X  c #9D0B08",
"o  c #8B150E",
"O  c #921711",
"+  c #931B12",
"@  c #A10504",
"#  c #B50304",
"$  c #BD0001",
"%  c #AE100C",
"&  c #AD1010",
"*  c #B21917",
"=  c #882E1D",
"-  c #A7291F",
";  c #AE2D1F",
":  c #B82C1E",
">  c #9C2C20",
",  c #943223",
"<  c #973F2A",
"1  c #BD3B2B",
"2  c #CE0101",
"3  c #C50708",
"4  c #CA0708",
"5  c #CB0B0B",
"6  c #D20505",
"7  c #DD0101",
"8  c #DE120D",
"9  c #CD0F10",
"0  c #C21212",
"q  c #C61B15",
"w  c #D51011",
"e  c #E40202",
"r  c #EA0202",
"t  c #F40303",
"y  c #FF0505",
"u  c #F20C0C",
"i  c #FD0909",
"p  c #EB140F",
"a  c #F61411",
"s  c #FE1313",
"d  c #FE1A1A",
"f  c #C2241C",
"g  c #CF2C1F",
"h  c #EF251C",
"j  c #F1241B",
"k  c #C13923",
"l  c #FE2222",
"z  c #FF2B2B",
"x  c #FF2F30",
"c  c #BD442E",
"v  c #AA4A34",
"b  c #BA4230",
"n  c #AD5237",
"m  c #A35E3E",
"M  c #D6462E",
"N  c #D8412F",
"B  c #C94234",
"V  c #D64D33",
"C  c #D94931",
"Z  c #C15C3B",
"A  c #9D6141",
"S  c #AC6341",
"D  c #A56C44",
"F  c #AD6B44",
"G  c #BC6042",
"H  c #B76943",
"J  c #AD754B",
"K  c #AF7A4E",
"L  c #B27348",
"P  c #B8744C",
"I  c #B27B4D",
"U  c #B57D51",
"Y  c #C25E45",
"T  c #D45F41",
"R  c #C76348",
"E  c #CD6B4C",
"W  c #D2624C",
"Q  c #C1704D",
"!  c #CD7D5A",
"~  c #D27657",
"^  c #B68154",
"/  c #BB8455",
"(  c #BD8658",
")  c #BE885A",
"_  c #C18157",
"`  c #C28759",
"'  c #C28B5D",
"]  c #C98C5F",
"[  c #C48E61",
"{  c #C98E63",
"}  c #C69062",
"|  c #CB9465",
" . c #CE9668",
".. c #CE996A",
"X. c #D09066",
"o. c #D29B6C",
"O. c #D79F70",
"+. c #D9A273",
/* pixels */
"o.+.| / ' } H M j s d d s i p N Q ^ [ ) [ | +.o.` ",
") / ] ' ' T j l x x l j d d s i 8 b ( ) ) ) / ' ] ",
"K ' ` ` C d z z s i y y y y i i y e : I ( U ( ) [ ",
"' ( ) V a z d y y y y y y y y y y y e ; U ) ' / ' ",
"| / Z p j s y y y y y y y y y y y y y 2 v  .` K I ",
"| { h s s y y y y y y y y y y y y y y t % U  .) L ",
"' E u s y y y y y y y y y y y y y y y y 2 < ' ' [ ",
"' k t i y y y y y y y y y y y y y y y y e + J ( | ",
"/ g y y y y y y y y y y y y y y y y y y r X U ) / ",
"L q y y y y y y y y y y y y y y y y y y t @ J  .' ",
"L q y y y y y y y y y y y y y y y y y y t @ A ` ' ",
"| f t y y y y y y y y y y y y y y y y y r . D / L ",
") 1 e y y y y y y y y y y y y y y y y y 7 o ^ | ) ",
"/ G 6 y y y y y y y y y y y y y y y y y $ = ' ' ' ",
"( X.f r y y y y y y y y y y y y y y y e   m | o./ ",
"' +.R 6 t y y y y y y y y y y i y y u # , ( O.O.' ",
"` ..] B 2 t y y y y y y y y y y y i 3 O F ( | | / ",
"[ o.} P 1 4 e y i i y y y y y i u # O S ( ( O.| / ",
"/ / ' / F c q 6 e u i i i i p w & > P o.[ ' U [ ) ",
"/ I ^ / ' | ~ B q 0 5 9 9 0 * - n { ..{ ) ) I I ^ ",
") ` ` I | { U { ! E W Y n Y _ ( ) ^ ' I ` ' ` ` I ",
"| +. .U [ ' D ( [ ( } [ { [ O.| / K ( ^ { | o.O.^ ",
"{ ] [ ' [ [ ( ` [ / [ K { K ^ ^ ^ / ' } ' ' } [ [ ",
"K / ` ) ) { [ ( [ ^ ) [ | ^ / ^ } ) ) / ( ^ / ` [ ",
"/ [ ' ( [ ( | [ ` ) / / K } ) } ( ^ ) ) ^ ^ [ ( [ "
};
