/* XPM */
static char *vd[] = {
/* columns rows colors chars-per-pixel */
"25 25 128 2",
"   c #014007",
".  c #034B06",
"X  c #034C0A",
"o  c #035404",
"O  c #045B07",
"+  c #04530A",
"@  c #055D0B",
"#  c #0E5F0F",
"$  c #14540D",
"%  c #165D11",
"&  c #255E1A",
"*  c #036006",
"=  c #04650B",
"-  c #0F640D",
";  c #046D0C",
":  c #0D6B0C",
">  c #04730C",
",  c #0D740E",
"<  c #047C0F",
"1  c #036712",
"2  c #0E6113",
"3  c #026A13",
"4  c #036A1B",
"5  c #146814",
"6  c #047212",
"7  c #0B7513",
"8  c #037B15",
"9  c #0D7815",
"0  c #04701A",
"q  c #037C19",
"w  c #117617",
"e  c #25601F",
"r  c #046C21",
"t  c #047424",
"y  c #047B24",
"u  c #047B29",
"i  c #107F2B",
"p  c #286926",
"a  c #39772B",
"s  c #397F37",
"d  c #496428",
"f  c #4B6D29",
"g  c #70793B",
"h  c #5D7F41",
"j  c #9B663A",
"k  c #9F6A3E",
"l  c #90723F",
"z  c #A36D41",
"x  c #A86E40",
"c  c #A57144",
"v  c #AC7446",
"b  c #A7724C",
"n  c #AB764A",
"m  c #A47B4B",
"M  c #AE784B",
"N  c #B07748",
"B  c #B27C4D",
"V  c #B57E52",
"C  c #048B17",
"Z  c #038119",
"A  c #048819",
"S  c #04921C",
"D  c #04A31B",
"F  c #058921",
"G  c #03852D",
"H  c #03922F",
"J  c #0B912B",
"K  c #048731",
"L  c #048D32",
"P  c #0B8B35",
"I  c #1B8C39",
"U  c #049433",
"Y  c #049C3A",
"T  c #248B2F",
"R  c #2A8C37",
"E  c #289635",
"W  c #229039",
"Q  c #28903B",
"!  c #239B3C",
"~  c #05B422",
"^  c #06BF2A",
"/  c #4C873A",
"(  c #568A3D",
")  c #06C329",
"_  c #349442",
"`  c #408C43",
"'  c #528644",
"]  c #7D944C",
"[  c #729B4F",
"{  c #7A8B50",
"}  c #8C8146",
"|  c #85854D",
" . c #938247",
".. c #99854D",
"X. c #938A4A",
"o. c #988B4D",
"O. c #8F8E52",
"+. c #998D52",
"@. c #9C9355",
"#. c #A9824E",
"$. c #A38B56",
"%. c #B68153",
"&. c #BA8355",
"*. c #BB8659",
"=. c #B48C59",
"-. c #BE8A5B",
";. c #A3905B",
":. c #A9915C",
">. c #B6945E",
",. c #AE9962",
"<. c #B39764",
"1. c #BE9A67",
"2. c #C08657",
"3. c #C28B5D",
"4. c #C48E60",
"5. c #C88F64",
"6. c #C69163",
"7. c #CB9365",
"8. c #C19768",
"9. c #CC9669",
"0. c #CE996B",
"q. c #D09768",
"w. c #D29A6C",
"e. c #D49E72",
"r. c #D6A172",
"t. c #DBA375",
"y. c #DFAB7C",
"u. c #E1AC7D",
/* pixels */
"3.w.V V w.5.k V 9.%.5.w.9.V b V %.z b 6.w.3.3.x 3.",
"9.e.4.*.8.*.b *.9.-.-.5.8.-.V b *.=.9.7.0.w.2.v B ",
"x 9.w.5.*.-.n M 0.8.e.e.-.-.5.*.0.r.7.r.e.q.q.5.v ",
"V 4.4.*.*.-.4.*.*.9.e.8.0.0.9.M 6.0.r.q.w.3.7.q.&.",
"2.5.2.3.4.*.*.-.9.e.w.2.e.y.*.%.w.q.t.e.3.&.7.q.&.",
"3.4.*.7.-.1.$.<.:..... .o.+.X.@.@.+.@.} } 6.N N 3.",
"3.V B &.%.f $ % 5 w - : : , , 7 2 # 9 7 2 g %.-.2.",
"3.2.&.&.m e = A S S C < ; = = ; * . 6 ; o d 0.2.B ",
"7.%.N %.=.a q ~ ^ ) ~ D C 8 6 = + @ > @ + p 9.9.7.",
"&.2.9.5.8./ 3 q Z Z @ . . . X + - 8 = X   & =.w.q.",
"3.B M z c ( Z 8 q 8 3 @ O O * = ; > = .   e m 2.2.",
"B N M N 4.[ F 1 1 1 @ o o o O * > ; ; + . p -.M %.",
"%.-.&.M %.] J 0 y G u t 0 r 4 4 4 q 7 @ > T #.&.3.",
"-.3.3.M 3.,.! L L H L G G K G K G L K r 3 E =.3.q.",
"0.&.#.3.6.6.O.' s R W I P P L L U Y Y J y T >.q.3.",
"7.&.3.w.3.%.3.m z m l ;.| { h ' ` _ Q I i ( 3.2.2.",
">.7.0.0.8.-.&.j n V c V *.2.x v B =.>.$.+.&.7.u.7.",
"-.3.3.%.*.*.-.4.*.z B %.4.3.N 2.3.7.u.q.e.2.q.u.q.",
"&.-.&.&.-.*.-.8.w.z %.B &.3.7.q.w.5.2.q.2.&.u.t.3.",
"3.w.w.4.*.*.-.4.9.b *.V 3.q.q.7.&.N &.B &.&.7.7.q.",
"5.5.9.-.c V V b w.6.e.6.q.3.9.3.%.3.2.&.2.7.7.w.2.",
"e.4.V -.V -.*.n 7.8.r.4.B 4.3.*.v 2.&.3.&.&.r.7.7.",
"4.-.V 4.4.V 4.V -.3.&.3.7.&.3.V 3.w.w.7.4.3.v 3.3.",
"9.V *.5.8.9.8.V 9.6.*.&.3.N 5.5.q.w.w.2.7.3.x &.%.",
"V V 4.5.q.e.9.*.0.V *.V *.V 5.9.q.3.3.#.2.N %.%.x "
};
