/* XPM */
static char *ve_[] = {
/* columns rows colors chars-per-pixel */
"25 25 83 1",
"  c #797674",
". c #7B7876",
"X c #7C7C7B",
"o c #965D33",
"O c #9A6137",
"+ c #9E6A3B",
"@ c #A36B3E",
"# c #A46D42",
"$ c #A67142",
"% c #AA7446",
"& c #AC7649",
"* c #AE794B",
"= c #B27B4D",
"- c #B47D52",
"; c #B87F54",
": c #83766B",
"> c #86796E",
", c #8C7E73",
"< c #B68153",
"1 c #BA8355",
"2 c #B78459",
"3 c #BD8659",
"4 c #B7895F",
"5 c #BE895B",
"6 c #8E8176",
"7 c #A78465",
"8 c #A5866C",
"9 c #A7886C",
"0 c #BD8D64",
"q c #B5916F",
"w c #AE8E74",
"e c #AF9175",
"r c #BE9B7C",
"t c #C0875C",
"y c #C28C5D",
"u c #C48D61",
"i c #C88F64",
"p c #C69163",
"a c #CA9365",
"s c #C2936A",
"d c #CC9569",
"f c #CD996C",
"g c #D0976C",
"h c #D29B6D",
"j c #CF9E75",
"k c #C49E7F",
"l c #D49E72",
"z c #CDA27C",
"x c #D5A172",
"c c #D9A375",
"v c #DBA578",
"b c #DCAA7A",
"n c #868584",
"m c #959697",
"M c #AB9C8F",
"N c #AFA093",
"B c #A5A19D",
"V c #B1A295",
"C c #B7A89B",
"Z c #A3A4A4",
"A c #ABACAC",
"S c #B2B2B2",
"D c #BABABA",
"F c #C9A685",
"G c #C1B4A8",
"H c #D3BAA4",
"J c #DCC3AE",
"K c #DACABC",
"L c #C6C6C6",
"P c #C9C9C8",
"I c #D0CFCF",
"U c #D0D0CF",
"Y c #CECFD0",
"T c #CFD0D2",
"R c #D4D3D3",
"E c #DBDBDB",
"W c #E7E3DF",
"Q c #E4E5E5",
"! c #ECE8E6",
"~ c #E9EAEA",
"^ c #F4F4F4",
"/ c #F9F5F2",
"( c #FDFDFD",
/* pixels */
"p5u01y1<y%<p<%0s=iu;;uut=",
"1-2;@yaxfp5ppp51;it=o-git",
"=;1&@ytacx5p5vvdiiii#;duy",
"=thy<tt<p15<0lpi3uyt;dgit",
"aaaaaty1y2f5dldst-tudlaty",
"ccata@yy*pp=u0fp=1atay#=t",
"yy*=yytydpy*yVw5;tdah-O%t",
"1y=aattycph%=JB8tulg5$ot;",
"t1=tgad5p2f-<JY.wj2-==11=",
"==udat-*<#fs2J^m 92*ht1=1",
"ghbN6>::.:6,:B^LX 7<py5<y",
"b1z!SmmmmmmmmmDQZ  8y%fca",
"hhh/(RLLPPPLLPLQQZX 75ahy",
"axz/((^((^(((^(^^EZX q1ay",
"ayz/((((((((((((((EZ6n0ay",
"t1z/(((((((((((((^ESZM=1y",
"tyz/((((((((((((^ESZN4=<a",
"y<z/^QQQQQWQQQ~^ESZCs<puh",
"h<xWRIUURUUUYR^QSZVzyyyhh",
"hahFq7rreezkrK(LZNpyyhaah",
"55a5*@<5<$55fJ~ANyaatyayy",
"5<5p<<<*p<+<pHTM5=yhyytah",
"pyp55a<@54<ppJG0<taayhyyy",
"xhxa5xhyppph4rsa1ay@<hyt<",
"xaa$1bx5xxy<p<y<tyt+<hyyy"
};
