/* XPM */
static char *ve_[] = {
/* columns rows colors chars-per-pixel */
"25 25 101 2",
"   c #767702",
".  c #847E08",
"X  c #877918",
"o  c #8B7D1D",
"O  c #935B2D",
"+  c #955C32",
"@  c #9B6237",
"#  c #9C643A",
"$  c #9A6E3C",
"%  c #A16B3E",
"&  c #A37734",
"*  c #AB7E3E",
"=  c #A56E41",
"-  c #A67143",
";  c #AB7346",
":  c #A77844",
">  c #AD7F42",
",  c #AC754B",
"<  c #AD7A4B",
"1  c #B27C4D",
"2  c #AB7E50",
"3  c #B47E51",
"4  c #8B8B05",
"5  c #86810A",
"6  c #908C0A",
"7  c #939303",
"8  c #9E9E00",
"9  c #A5A503",
"0  c #B1B202",
"q  c #B7B803",
"w  c #8F8120",
"e  c #AD9E23",
"r  c #A78E32",
"t  c #B0A126",
"y  c #B8A92D",
"u  c #C7B71C",
"i  c #C7B827",
"p  c #C2A337",
"a  c #CAA637",
"s  c #CEA93D",
"d  c #D1B23A",
"f  c #C4C204",
"g  c #CCC706",
"h  c #CFCD04",
"j  c #C1C10B",
"k  c #CAC50A",
"l  c #D7D702",
"z  c #DCDC00",
"x  c #DDDD0C",
"c  c #C9C915",
"v  c #DED01F",
"b  c #E2E302",
"n  c #EEEE03",
"m  c #EDE20F",
"M  c #F1F102",
"N  c #FDFD04",
"B  c #F4F40A",
"V  c #EEE311",
"C  c #ECEC13",
"Z  c #F1E613",
"A  c #F3E815",
"S  c #FBFB13",
"D  c #FFFF1B",
"F  c #FFFF24",
"G  c #B38645",
"H  c #B68B47",
"J  c #B2844B",
"K  c #B5884F",
"L  c #B68254",
"P  c #BA8455",
"I  c #B58953",
"U  c #BB8C53",
"Y  c #BC865A",
"T  c #BE895B",
"R  c #BE9155",
"E  c #C18D52",
"W  c #C28B5D",
"Q  c #C39355",
"!  c #C1925A",
"~  c #CA965A",
"^  c #C69959",
"/  c #C99A5E",
"(  c #CAA641",
")  c #D6B34C",
"_  c #CDA05F",
"`  c #C48E61",
"'  c #C88F64",
"]  c #C69163",
"[  c #CA9465",
"{  c #CB9A62",
"}  c #CD9669",
"|  c #C69A68",
" . c #CE996B",
".. c #D0976B",
"X. c #D19B6C",
"o. c #CE9870",
"O. c #D49E71",
"+. c #D5A166",
"@. c #D6A274",
"#. c #D9A375",
"$. c #DBA679",
/* pixels */
"< 1 3 = 3 3 #. .O. .| ' o.o.T Y ' ' 3 + # ..' W % ",
"3 ' 1 1 W W W #.O.Y Y Y o.@.o.' ' ' .., 3 ..W W = ",
"3 } ..W 3 W , T P ` Y Y O.| ] Y 3 ` W Y ..o...' 1 ",
"..} ~ ..3 Y T W W } Y ` o.o.' T 1 W ` [ o.' Y W 1 ",
"$...E W 3 W ' 3 Y ] 2 T U R o.2 3 ` ` ' ` = % P P ",
"~ ; 1 W ' E 3 O.] o.3 3 ( e I 3 W ..O...P # ; P 1 ",
"W 3 W ..3 ' ~ O.| o.3 , s f w U ' ' o.W ; @ P P 3 ",
"3 1 W ......3 ' 2 ` W Y s n 4 w } ` ; 3 3 ` P 1 ; ",
"3 } R R L > - : $ L | 2 p N q   o P 3 ] } Y ; P W ",
"} +.i 6 5   5 . . 5 5 5 4 l b 4     J ` T T ] T W ",
"W E V z 9 8 9 8 8 8 8 8 8 9 b c 4   o R ; ] @. .; ",
"#.~ m N C l l l l l l l l l b C j 4   X R ]  .] W ",
"O.~ Z N F D N N N N N N N N N N M u 4   w K ' W W ",
"] E Z N F D N N N N N N N N N N N n q 7 4 r ..W 3 ",
"E E Z N F D N N N N N N N N N N N l 0 9 t * 1 W 3 ",
"} ~ Z N S B N B N N N N B B N S l 0 9 t H 1 3 ~ 1 ",
", E A M b b z b b z b z b b B x 0 9 y / W ' ..} W ",
"P Q v g f k k k k j k k h n n q 9 e { W W ~ ' O...",
"[ X._ H & H R G > ^ R R d N h 9 e Q W W ....~ ..W ",
"1 W W L - 1 U ] , 2 Y o.s n 0 e U ` ' W E W W ' 1 ",
"L P ! Y P P - U T $ , ] a l e J 3 E ..' ' W W X.} ",
"[ |  .Y ] T < Y T Y } ] ) i R T W ' ' E O.} W P ' ",
" .X.] P @.@.] ] o.o.] T I Q ` T ' E ; = } W W P ' ",
"} | < I @.O.R o.O.T L ` W T P T ` Y 1 3 #.W E ..E ",
"@.X.! [ ] P  .$. .W Y , L Y L o...= O ; ........, "
};
