/* XPM */
static char *ve_[] = {
/* columns rows colors chars-per-pixel */
"25 25 121 2",
"   c #015271",
".  c #005A7D",
"X  c #2B5A66",
"o  c #2D5D69",
"O  c #315E69",
"+  c #35616B",
"@  c #39646F",
"#  c #296172",
"$  c #386774",
"%  c #376976",
"&  c #3E6973",
"*  c #326C7B",
"=  c #446F76",
"-  c #6C7364",
";  c #6E786A",
":  c #747B6D",
">  c #9A6136",
",  c #9C653A",
"<  c #A26E3F",
"1  c #9C7A55",
"2  c #A56D42",
"3  c #A67143",
"4  c #AB7345",
"5  c #A4734A",
"6  c #AC7649",
"7  c #AF794B",
"8  c #B0774A",
"9  c #B27B4D",
"0  c #AC7B52",
"q  c #B47E51",
"w  c #7B8375",
"e  c #7F8778",
"r  c #B6804F",
"t  c #B78153",
"y  c #BA8355",
"u  c #BF8857",
"i  c #B78358",
"p  c #BC8659",
"a  c #BE895B",
"s  c #9E896C",
"d  c #808779",
"f  c #82897A",
"g  c #8D8F7F",
"h  c #A68363",
"j  c #AC8965",
"k  c #BB9066",
"l  c #A79070",
"z  c #AB9374",
"x  c #AB987A",
"c  c #B99372",
"v  c #C08957",
"b  c #C0875C",
"n  c #C38C5D",
"m  c #C6905F",
"M  c #C48E61",
"N  c #C88F64",
"B  c #C69163",
"V  c #CB9465",
"C  c #C19368",
"Z  c #CD9569",
"A  c #CE996B",
"S  c #D29B6D",
"D  c #D39D71",
"F  c #D6A172",
"G  c #D9A375",
"H  c #D4A279",
"J  c #DAA378",
"K  c #DDAA7C",
"L  c #E2AC7D",
"P  c #066183",
"I  c #00678F",
"U  c #066A8D",
"Y  c #006D95",
"T  c #006F98",
"R  c #00739E",
"E  c #147597",
"W  c #157799",
"Q  c #18799B",
"!  c #0177A3",
"~  c #477D87",
"^  c #1380A5",
"/  c #0185B6",
"(  c #0886B5",
")  c #0A88B6",
"_  c #0089BB",
"`  c #0D8DB8",
"'  c #0590BE",
"]  c #2A9ABE",
"[  c #708D8A",
"{  c #70908D",
"}  c #48A1B5",
"|  c #4CA5B9",
" . c #4EA8BD",
".. c #54A6B7",
"X. c #028FC2",
"o. c #0293C4",
"O. c #069ACD",
"+. c #009ED6",
"@. c #009ED8",
"#. c #13A3C8",
"$. c #03A5DB",
"%. c #10A5D7",
"&. c #04A7E0",
"*. c #04AAE4",
"=. c #13ADE0",
"-. c #05B0E7",
";. c #0CB3E0",
":. c #02B1EF",
">. c #15BCE3",
",. c #14B5EA",
"<. c #13BFE8",
"1. c #03B5F4",
"2. c #05BDF5",
"3. c #05BCFD",
"4. c #00C1FF",
"5. c #0BC2FD",
"6. c #1CD2F6",
"7. c #15D2FD",
"8. c #1BDAFF",
"9. c #24E1FF",
"0. c #899183",
/* pixels */
"p M M i i n 7 a i 6 a M 5 q A i p Z y 8 b b N q N ",
"q i i 6 y a S D C M a V N M p q b M b 2 , N Z N 8 ",
"8 u 7 6 9 b n G J Z a k C K D Z N M Z q 2 Z b b 8 ",
"9 N S u u n 9 a M i p i D A N a b M N q N Z Z Z 8 ",
"V V m S v y y b a M C n D A N N q q N N D A n n y ",
"L S n n y t V 9 y Z i y k k D q q n N n V q 2 y y ",
"V q 8 y m m y Z M B y q z ~ h i n M A V N 2 > y r ",
"n y v Z v n y D A A n 2 l o.% h b N J N q > 4 n 8 ",
"v 9 y V V A n B p M M q s =.Y $ c Z 8 q 8 b y y 4 ",
"4 b M Z M i 6 q 5 0 H p s ,.o.  @ j 8 b Z p 9 q r ",
"V G { * + X X o X o $ o # O.:.U   O 1 n N b u y n ",
"V u | @.T I I I Y I I I I T $.#.P   + j q y G S y ",
"G m } 4.;._ _ _ _ _ _ _ _ _ o.>.` P   O 0 m Z S r ",
"D S } 4.8.6.1.:.:.:.:.1.:.:.:.:.*.) P   & j v Z m ",
"Z a ..4.8.9.5.3.3.3.3.3.3.3.3.3.1.*.( P . = N m y ",
"v u | 4.8.9.5.3.3.3.5.3.5.3.5.3.1.@._ ! W ; 9 v y ",
"V m | 4.7.5.2.2.1.3.2.3.1.3.3.5.$./ R Q : r 9 u v ",
"y u  .3.&.$.@.@.@.@.@.@.@.@.-.<./ ! Q 0.b b V V n ",
"b t ..+.X.X.X.X.X.X.X.o.X.@.2.o.R E 0.V v V m S Z ",
"V Z x e - : f w : f 0.f [ ,.*.! E d n n m F n S S ",
"t m m u 4 8 v n 4 t u V z ;.' E d n m m n n m m y ",
"r r m a 9 t 9 t m 3 < V s %.^ w y q V V n v n Z V ",
"C m C u B a 4 r k 7 i m x ] e u y n S v Z S n n m ",
"F A S u A F m m V A A V h g k k v m q 4 m V n y m ",
"A V t < F K m m F S i k a u u t m n 9 < S m y N v "
};
