/* XPM */
static char *vf[] = {
/* columns rows colors chars-per-pixel */
"25 25 182 2",
"   c #5B3700",
".  c #782500",
"X  c #2C7602",
"o  c #367D10",
"O  c #555300",
"+  c #6E5300",
"@  c #446101",
"#  c #872D01",
"$  c #845800",
"%  c #A14B03",
"&  c #9A6E00",
"*  c #977002",
"=  c #925C33",
"-  c #9A6136",
";  c #9D643A",
":  c #A17B2B",
">  c #C17707",
",  c #D37F06",
"<  c #F1641F",
"1  c #D5662A",
"2  c #D66B29",
"3  c #DB6E2D",
"4  c #D6722A",
"5  c #EE692A",
"6  c #E2722E",
"7  c #F67127",
"8  c #F3782F",
"9  c #A36D42",
"0  c #A86E44",
"q  c #A67243",
"w  c #AA7446",
"e  c #AD7649",
"r  c #AF7A4C",
"t  c #B27C4E",
"y  c #B47E52",
"u  c #B87F54",
"i  c #199505",
"p  c #3B9E19",
"a  c #38AC08",
"s  c #4CB909",
"d  c #58BE0B",
"f  c #5AAF18",
"g  c #5AB313",
"h  c #549328",
"j  c #74A722",
"k  c #65C40B",
"l  c #7CC309",
"z  c #7ACE0E",
"x  c #66DC09",
"c  c #76D807",
"v  c #7BC811",
"b  c #9E8202",
"n  c #949202",
"m  c #969903",
"M  c #B98012",
"N  c #93AC03",
"B  c #BB9236",
"V  c #C88405",
"C  c #D38207",
"Z  c #D6890C",
"A  c #E39C0C",
"S  c #E29F12",
"D  c #E7971F",
"F  c #DCA00F",
"G  c #CDA01A",
"H  c #DDAC14",
"J  c #F3AD19",
"K  c #EBB01D",
"L  c #F5B718",
"P  c #F5B919",
"I  c #D89A21",
"U  c #C98D3A",
"Y  c #D08C36",
"T  c #C29D30",
"R  c #EA8925",
"E  c #E28C39",
"W  c #E29C34",
"Q  c #F49436",
"!  c #CFA828",
"~  c #D2B32A",
"^  c #DDA631",
"/  c #D2B631",
"(  c #EBA427",
")  c #EDA52E",
"_  c #F2AE20",
"`  c #EDB126",
"'  c #F3B422",
"]  c #F5BB22",
"[  c #F5BC2B",
"{  c #EFAE36",
"}  c #A0E11F",
"|  c #8FD422",
" . c #AEE22F",
".. c #B6E232",
"X. c #F9CA1F",
"o. c #EDC82B",
"O. c #F9C625",
"+. c #F9CD25",
"@. c #F7C42D",
"#. c #F6CB2E",
"$. c #F8C92B",
"%. c #F0D120",
"&. c #F5DD27",
"*. c #F6C231",
"=. c #F3CA35",
"-. c #FDCC37",
";. c #FCC53C",
":. c #F6CB3D",
">. c #F9D33F",
",. c #928841",
"<. c #AE834D",
"1. c #B5804E",
"2. c #BC824C",
"3. c #A79744",
"4. c #B68253",
"5. c #BA8355",
"6. c #B78358",
"7. c #BC8659",
"8. c #BE895B",
"9. c #BE9356",
"0. c #BA9C55",
"q. c #CB8B42",
"w. c #CA8F4D",
"e. c #CE934D",
"r. c #DC9847",
"t. c #D1924D",
"y. c #D69A4B",
"u. c #C38A53",
"i. c #C88C51",
"p. c #C0875C",
"a. c #C28C5D",
"s. c #CB9453",
"d. c #C69159",
"f. c #C9915F",
"g. c #D99E51",
"h. c #D4965A",
"j. c #EC964C",
"k. c #E49C4C",
"l. c #CEA84E",
"z. c #DEA04C",
"x. c #C4BD4D",
"c. c #DFB240",
"v. c #CEA65C",
"b. c #DBA756",
"n. c #DEB951",
"m. c #E3AA41",
"M. c #E9A947",
"N. c #E7B355",
"B. c #E2BE59",
"V. c #C58E61",
"C. c #C88F63",
"Z. c #C69163",
"A. c #CA9465",
"S. c #CD9B65",
"D. c #CC9669",
"F. c #CF9A6C",
"G. c #D39A66",
"H. c #D29B6C",
"J. c #D39C70",
"K. c #D6A173",
"L. c #DAA475",
"P. c #DDA97B",
"I. c #F8BE61",
"U. c #CCD54F",
"Y. c #E9CE49",
"T. c #F7C546",
"R. c #F6C940",
"E. c #F9CD47",
"W. c #F9D442",
"Q. c #FBD24C",
"!. c #F2C055",
"~. c #FBD454",
"^. c #F6E84D",
"/. c #F2C765",
"(. c #F7CF61",
"). c #FCD56C",
"_. c #FCDC6B",
"`. c #FCDF71",
"'. c #FDE162",
"]. c #FFE56A",
"[. c #FDE273",
"{. c #FEE784",
/* pixels */
"a.D.A.a.H.8.t t a.4.8.7.q q Z.<.9 8.Z.7.9.7.8.9.6.",
"a.5.a.D.f.u 8.1.5.4.6.J.q q 8.8.<.4.w 7.8.4.r Z.t ",
"f.A.a.a.f.a.t t 5.8.Z.Z.V.8.q 8.8.r q a.S.S.8.F.a.",
"p.H.d.a.a.5.a.Z.D.Z.V.6.V.8.y 8.d.1.1.4.A.Z.D.D.5.",
"A.Z.a.F.H.5.5.1.q y D.4.r 7.7.Z.5.a.f.1.V.t 7.f.t ",
"a.5.4.S.8.r w q r 6.8.6.y 6.8.V.A.H.5.D.C.a.a.5.a.",
"t 1.a.r e 1.7.<.6.a.e.g.z.y.S.8.Z.C.G.H.C.a.u.5.f.",
"5.5.S.a.8.7.d.U I ` L ] ' ' J ( W t.J.H.f.p.a.a.a.",
"Z.S.A.A.P.d.m.[ O.$.X.+.X.P P ' _ ( r.a.a.a.G.Z.A.",
"4.Z.K.4.A.N.E.W.>.W._._.>.$.@.*.[ _ D q.4.H.J.Z.5.",
"S.9.1.5.a./.].'.'.'.[.{._.~.~.Q.T.{ ) Y e a.H.f.5.",
"L.6.5.S.v.k.j.I.).[.[.].`._.(.!.M.E E s.5.a.H.H.S.",
"y 8.S.n.Y.=.R < 7 Q 8 5 6 3 1 2 4 I W.^.B.L.V.G.G.",
"4.8.V.9.: Z A S K #.-.;.R.:.=.o.` G M B l.1.e 2.u ",
"r y 0 3.v m V C , C F %.&.H > % # .   o h <.a.u 5.",
"9 - 4.Z.| x l N n b * & * $ + O @ X i p ,.t p.5.f.",
"= 0 C.C.0.x.U... .} c z k d s g a f j B y 8.H.a.A.",
"e 6.D.a.C.A.s.b.b.c./ ~ ~ ~ ! ^ T B w.f.V.F.L.A.a.",
"C.J.J.V.p.u u C.Z.F.F.8.h.i.2.8.u p.5.H.D.f.Z.a.e ",
"D.D.7.u C.V.V.C.V.J.J.y 5.4.D.Z.t V.5.u A.A.t t 8.",
"p.D.; e A.V.V.C.F.P.D.Z.V.J.K.K.Z.6.r e e u e a.H.",
"J.C.0 0 u V.V.u 8.6.8.D.6.6.Z.J.D.V.7.r p.p.5.a.Z.",
"p.p.p.u V.J.y u J.6.9 V.8.r r y r 6.y 6.8.V.a.A.5.",
"C.C.p.p.u C.u y 6.V.6.Z.8.r y 6.8.8.y 7.V.8.6.a.7.",
"u C.D.C.e V.D.u u V.p.J.V.u 8.4.r D.Z.V.6.8.7.4.Z."
};
