/* XPM */
static char *vl[] = {
/* columns rows colors chars-per-pixel */
"25 25 177 2",
"   c #291401",
".  c #4B2700",
"X  c #5C3305",
"o  c #654A15",
"O  c #775A14",
"+  c #7B6A5C",
"@  c #81480F",
"#  c #9A5D02",
"$  c #8C6A05",
"%  c #9D6901",
"&  c #947102",
"*  c #94730A",
"=  c #9B7D1B",
"-  c #A46803",
";  c #AE6F03",
":  c #A9720A",
">  c #B2681D",
",  c #9C5E24",
"<  c #945C33",
"1  c #8C6A22",
"2  c #9F6B3C",
"3  c #9E7A3A",
"4  c #A47C2B",
"5  c #A26D3F",
"6  c #9B6946",
"7  c #A46D41",
"8  c #A86F44",
"9  c #A77245",
"0  c #AA7346",
"q  c #AB7549",
"w  c #AE794B",
"e  c #B0774C",
"r  c #B27B4D",
"t  c #B47E52",
"y  c #9D811E",
"u  c #BB8C0B",
"i  c #B79104",
"p  c #B28711",
"a  c #B98B10",
"s  c #B38E18",
"d  c #AD8124",
"f  c #AB9623",
"g  c #BE982E",
"h  c #A6893D",
"j  c #AD963E",
"k  c #BE9331",
"l  c #B5953D",
"z  c #C28302",
"x  c #C58208",
"c  c #C78E0F",
"v  c #CC8C09",
"b  c #D08D02",
"n  c #CB9302",
"m  c #D39204",
"M  c #DB9600",
"N  c #D0940B",
"B  c #D49D09",
"V  c #C29113",
"C  c #CF9712",
"Z  c #D09118",
"A  c #D39C1F",
"S  c #D4A007",
"D  c #DEA902",
"F  c #D4AF10",
"G  c #D1A31E",
"H  c #E2AC0B",
"J  c #EABA15",
"K  c #C4862E",
"L  c #C38C2B",
"P  c #C69D2F",
"I  c #CB9D2B",
"U  c #CA963D",
"Y  c #D1A327",
"T  c #D5AA24",
"R  c #DEAE23",
"E  c #D4A428",
"W  c #DBAA2C",
"Q  c #C0A532",
"!  c #CEAD30",
"~  c #C2AD3F",
"^  c #D2B033",
"/  c #E3AE22",
"(  c #E4B22C",
")  c #E5BD30",
"_  c #E7C028",
"`  c #EFD225",
"'  c #EEC537",
"]  c #EDCF30",
"[  c #F0CA33",
"{  c #AE884A",
"}  c #BD8944",
"|  c #B7824C",
" . c #B68154",
".. c #BA8355",
"X. c #BA8856",
"o. c #BD8659",
"O. c #BE895B",
"+. c #BFA057",
"@. c #BFA15E",
"#. c #BC8D60",
"$. c #C29042",
"%. c #C59048",
"&. c #C28B55",
"*. c #C0875C",
"=. c #C28B5D",
"-. c #CB9D50",
";. c #C6925C",
":. c #C9955F",
">. c #CB9E5D",
",. c #D8AA4C",
"<. c #DBB24C",
"1. c #D3BE48",
"2. c #C4A154",
"3. c #CBA252",
"4. c #CEA859",
"5. c #C5B253",
"6. c #DBB354",
"7. c #DEB85D",
"8. c #E1B746",
"9. c #E2BA45",
"0. c #C58E62",
"q. c #C88F63",
"w. c #C69163",
"e. c #CA9365",
"r. c #CD9965",
"t. c #CC9669",
"y. c #C29E6A",
"u. c #CE996C",
"i. c #D0976C",
"p. c #D29B6C",
"a. c #D49D70",
"s. c #CFAB64",
"d. c #DCAD67",
"f. c #D4A86F",
"g. c #DFB269",
"h. c #D6A173",
"j. c #DAA476",
"k. c #DBAE73",
"l. c #E4AD7E",
"z. c #D9C353",
"x. c #E8C845",
"c. c #E6C54B",
"v. c #F0D842",
"b. c #FDDE4E",
"n. c #EEC452",
"m. c #E6C851",
"M. c #E5CA5D",
"N. c #EDC95B",
"B. c #F9DD58",
"V. c #DEC365",
"C. c #D7C26D",
"Z. c #D3C677",
"A. c #E2D069",
"S. c #FDDE6C",
"D. c #E2C875",
"F. c #E2D079",
"G. c #E9D87A",
"H. c #F5DB77",
"J. c #F8D875",
"K. c #F9E27D",
"L. c #CCA683",
"P. c #EDDC85",
"I. c #F3DD87",
"U. c #E5D697",
"Y. c #F3DF99",
"T. c #FBE48C",
"R. c #FCF285",
"E. c #F3E99C",
"W. c #FDEC9B",
"Q. c #E4CBB4",
"!. c #EDE4A5",
"~. c #FBE6A7",
"^. c #F8EBA4",
"/. c #F7F2AD",
"(. c #F7F1CE",
"). c #FBF3D0",
"_. c #F0E7E0",
/* pixels */
"p.X.;.0.&.*.w...5 e e.=.=.=.o. .O.w.a.u.0.u.k.w.{ ",
"e X.e.*...=.a.;.t :.:.| e.=.u.w.u.t.O.#. .O.r.;.0.",
"&.*.e.i.i.*.t.f.,.8.Y p d L %.w.O.2 r w.9 w O.O.O.",
"w.r r =.;.w.s.v.9.l $ & i B / d.u.9 9 =.O. .w 9 O.",
"p.=.&.=.q.U M.R.).+ . # ; x R J 6.h. .9 =.#.9 w w.",
"r.p.i.a.g.E m.D.L.P V B n b m n i +.#.X.w.O.| &.w ",
"*.&.*.r.) N C @ , B.z.^ H D n z % O #.O.;.O.=.*.X.",
"0 r e =.A M A E <.I.G.M.x.[ J S - X { u.O.i.r.*.p.",
"..=.0 &.G S _ 1.5./.E.F.Z.A.b.` $   g r. .;.*.j.t.",
"X.p.=...T F S : s P.(.!.U.I.S.] ~ o 3 w.t X.t.h.i.",
"r.=.=.=.$.v u K > 7.^.Y.~.W.J.' F.! 2.w.e.e.e.w.0.",
"=.o.=.=.k.W a C.Q.>.6.G.W.T.n.( 1 4 O.6 =...=.X. .",
"L.p.&.&.j.d.Z c.(._.6 K N.H.K.) c -. .9 e &.&.0 9 ",
"l.j.=.&.w.i.} I k @.2.p * f Q T 4.w.9 q t *.q.e &.",
"l.q.=.=.e r =.p.-.3.V.j y = h y.w.j.0 e t t *.=.p.",
"q.i.&.8 ..*.*.#.t t h.u.;...o.#.O.p.e t ..*.r.i.r.",
"a.:.*.r =.5 8 8 q.q.q.i.q.8 e t q t.w.i.t.t.0.q.q.",
"e.q.&.e *.5 5 q.i.a.q.t #.t t #.9 q.e.a.t.w =.0.0.",
"&.=.q.*.e < r i.0.0.*.t #.t.t 0.t #.0.t *.w.O.*.t ",
"=.r &...*.t q.i.0.q.*.t q.q.t.t.t w.w.#.X.=.r =.t.",
"..0 &.&.e.i.p.i.*.*.t *.0.t.a.i.o.i.t #. .t X.&.t.",
"e =.e r =.e.q.e 0.q.q.q.t.i.a.q.o.t #.h.w...q.t e ",
"j.l.e r q.q.*.< e q.q.0.#.i.a.q.t.#.a.a.j.e...0 e ",
"j.e.=.t 0.e.*.e e t q.t t #.t *.t.t e w.e.0.q.t t ",
"&.q.&.=.*.*.q.*.*.i.i.e q.i.r 7 w.t e q t e t w #."
};
