/* XPM */
static char *vm[] = {
/* columns rows colors chars-per-pixel */
"25 25 90 1",
"  c #363433",
". c #565656",
"X c #746252",
"o c #646565",
"O c #696969",
"+ c #737374",
"@ c #7D7874",
"# c #7B7B7B",
"$ c #966036",
"% c #9A6137",
"& c #9F6A3E",
"* c #A16B3D",
"= c #A46D41",
"- c #A77143",
"; c #AA7345",
": c #AC7549",
"> c #AE794C",
", c #B37C4E",
"< c #B47E51",
"1 c #B87E54",
"2 c #AF805D",
"3 c #B68154",
"4 c #BB8455",
"5 c #BC8659",
"6 c #BE895C",
"7 c #AA876C",
"8 c #B38A67",
"9 c #BE926C",
"0 c #A28C7A",
"q c #BA9576",
"w c #BC9778",
"e c #BE9878",
"r c #C0875D",
"t c #C28B5D",
"y c #C48E61",
"u c #C88F64",
"i c #C69164",
"p c #CA9364",
"a c #C3956B",
"s c #CC9669",
"d c #CE996C",
"f c #D0976A",
"g c #D29B6C",
"h c #CC9C74",
"j c #C29C79",
"k c #D49D71",
"l c #D6A173",
"z c #D8A172",
"x c #DDA778",
"c c #E2AA7B",
"v c #8F9090",
"b c #939394",
"n c #9F9993",
"m c #9D9D9D",
"M c #B09783",
"N c #B6A18F",
"B c #BDAA9A",
"V c #A5A5A5",
"C c #ABA9A7",
"Z c #ACADAD",
"A c #B3B1AF",
"S c #BAB2AC",
"D c #B3B3B3",
"F c #BDB9B5",
"G c #BBBBBC",
"H c #D1AD8E",
"J c #CCAF96",
"K c #C9B099",
"L c #D5B395",
"P c #D3B59A",
"I c #DCB99A",
"U c #D5BAA1",
"Y c #DDCBBC",
"T c #E7CAB2",
"R c #E0CCBA",
"E c #C3C3C3",
"W c #CDCDCD",
"Q c #D2CDC8",
"! c #D2D2D2",
"~ c #DDDDDD",
"^ c #EADCD1",
"/ c #EEE3D8",
"( c #F0E1D4",
") c #E3E3E3",
"_ c #ECE7E3",
"` c #EBEBEB",
"' c #F6EEE6",
"] c #F4F4F4",
"[ c #F8F7F5",
"{ c #FEFEFE",
/* pixels */
"tgggggtztt444tdi66i43rt;3",
"<uuufgtptfi3p436i,386p45i",
"y,3,iii6tz63*&*39,>6t6pp3",
"y,r*6333ijPPUUIhisits4did",
"trf44tjR'{{{{{{'(Thst3ttx",
"ttft6L`{{{{{{{{{{{/Iittff",
"ppttJ0W`{{{{{{{{{{`Fepttt",
"tftp@+W~][{`~]{[)GmvN44t>",
"pcz8 oZQ`[``)_[]m.#ACq6t;",
"zcftX+ZED`!!GZ`EO.mWbM6p,",
"gzut20Am+bZVvG[!OvW!n23tp",
"tppr:r7SGbbZV)]`!!GBetipg",
"zztt,t*2Y``[][``QNwigf4tt",
"ttpt4,$:kL^[`_/K9>6iip4py",
"*t4t4,=4p6hHe9h8i36p33u,t",
"*t*4rrykgyr,4ppgd6d6644,t",
"t4t,,pgfr5rtrutkf,63i3<y4",
"ttg*,tpt*rsuuukHru5hxk6r,",
"gczr,tft%;rur15uis5isls5,",
"zfpttrtt51rs,rs>>i3:53<6,",
"t*tttttpr4yu,4tt3i33>553,",
",trtttrptr,pt;rt6l336>5a8",
"tprprtttfzttpttt636i63366",
"pttt1pg14prrt,tt-&6ipgh6&",
"t**ttzzt*rpgr*pp-3a35ai6,"
};
