/* XPM */
static char *vn_[] = {
/* columns rows colors chars-per-pixel */
"25 25 83 1",
"  c #797674",
". c #7B7876",
"X c #7C7C7B",
"o c #965D33",
"O c #9E6A3B",
"+ c #A36B3E",
"@ c #A46D42",
"# c #A67142",
"$ c #AA7446",
"% c #AC7649",
"& c #AE794B",
"* c #B27B4D",
"= c #AE7D53",
"- c #B47D52",
"; c #B87F54",
": c #83766B",
"> c #86796E",
", c #8C7E73",
"< c #B68153",
"1 c #BA8355",
"2 c #B78459",
"3 c #BD8659",
"4 c #B7895F",
"5 c #BE895B",
"6 c #8E8176",
"7 c #A78465",
"8 c #A5866C",
"9 c #A7886C",
"0 c #BD8D64",
"q c #B5916F",
"w c #AE8E74",
"e c #AF9175",
"r c #B49173",
"t c #BE9B7C",
"y c #C0875C",
"u c #C28C5D",
"i c #C48D61",
"p c #C88F64",
"a c #C69163",
"s c #CA9365",
"d c #C2936A",
"f c #CC9569",
"g c #CD996C",
"h c #D0976C",
"j c #D29B6D",
"k c #CF9E75",
"l c #C49E7F",
"z c #D49E72",
"x c #CEA27D",
"c c #D5A172",
"v c #D9A375",
"b c #DBA578",
"n c #DCAA7A",
"m c #868584",
"M c #959697",
"N c #AB9C8F",
"B c #AFA093",
"V c #A5A19D",
"C c #B1A295",
"Z c #B7A89B",
"A c #A3A4A4",
"S c #ABACAC",
"D c #B2B2B2",
"F c #BABABA",
"G c #C9A685",
"H c #C1B4A8",
"J c #D3BAA4",
"K c #DCC3AE",
"L c #DACABC",
"P c #C6C6C6",
"I c #C9C9C8",
"U c #D0CFCF",
"Y c #D0D0CF",
"T c #CFD0D2",
"R c #D4D3D3",
"E c #DBDBDB",
"W c #E7E3DF",
"Q c #E4E5E5",
"! c #ECE9E6",
"~ c #EAEAEA",
"^ c #F4F4F4",
"/ c #F9F5F2",
"( c #FDFDFD",
/* pixels */
"*3uyuyy1**ysuuyusgjjsju<u",
"ufysy*$yy*<vjfsy<ajsusuuu",
"yhfhp@oo;1yj020<&ausuyuuy",
"p*;fzu;@*uu$4e6N51ijuuvjj",
"-o@;hphy&s047 mACduu3uu<*",
";-pyuuhh<<<7 XADAZcusjs%+",
"uypyyphz117 XAEEDACauus3y",
"fppi*3yuz9 XAE(^RDAB5<3su",
"*;s3y*<3w XAW^((^EDAB4131",
"p2fasa58.MP~E((((^~ISN0f<",
"p5vdffqVI^^FP((((~^(~RH05",
"@dvcz0CKKKVMP((((QRLKJKl1",
"<i4idau*<2:MP^(((QUtss520",
"fpp-5=&%-f,MP((((QUt5<ag1",
"-045gaigfk6MP((((QTG5O<g0",
"%az32aid<@:MP((((QYr+<5sv",
"igvai&fva->MI((((QYr1a5ac",
"-zh*<5uay*:MI^(((QUtu%%55",
"2p335u35f*:MI^(((QYt<<<gc",
"53y5**a3su:MR((((~U7+<acn",
"<++ysuusjs6F/((((^Re<<551",
"uy*ufy*susN!//////Qx5uua#",
"s1<jsf&**unxxxjcxxcca1scs",
"y*<ysvuu<*j1fcuya<&s5&ajs",
"a1**svu1y<sbjssu1ujj55avc"
};
