/* XPM */
static char *vn_[] = {
/* columns rows colors chars-per-pixel */
"25 25 99 2",
"   c #767702",
".  c #837E07",
"X  c #847E08",
"o  c #847615",
"O  c #8B7D1D",
"+  c #935B2D",
"@  c #955C32",
"#  c #9B6237",
"$  c #9C643A",
"%  c #9A6E3C",
"&  c #A16B3E",
"*  c #A37734",
"=  c #AB7E3E",
"-  c #A56E41",
";  c #A67143",
":  c #AB7346",
">  c #A77844",
",  c #AC754B",
"<  c #AD7A4B",
"1  c #B27C4D",
"2  c #AB7E50",
"3  c #B47E51",
"4  c #8B8B05",
"5  c #86810A",
"6  c #908C0B",
"7  c #939303",
"8  c #9E9E00",
"9  c #A99A1A",
"0  c #A5A503",
"q  c #B1B202",
"w  c #B9B904",
"e  c #8F8120",
"r  c #908322",
"t  c #AD9E23",
"y  c #A78E32",
"u  c #B0A126",
"i  c #B8A92D",
"p  c #C7B71C",
"a  c #C7B827",
"s  c #C2A337",
"d  c #CEA93D",
"f  c #D1B23A",
"g  c #C4C204",
"h  c #CCC707",
"j  c #CFCD04",
"k  c #C1C10B",
"l  c #CAC50A",
"z  c #D7D702",
"x  c #DCDC01",
"c  c #DDDD0C",
"v  c #C9C915",
"b  c #DED01F",
"n  c #E3E302",
"m  c #EEEE03",
"M  c #EDE20F",
"N  c #F1F103",
"B  c #FDFD04",
"V  c #F4F40A",
"C  c #ECEC13",
"Z  c #F1E613",
"A  c #F3E915",
"S  c #FBFB13",
"D  c #FFFF1B",
"F  c #FFFF24",
"G  c #B38645",
"H  c #B68B47",
"J  c #B2844B",
"K  c #B88B4C",
"L  c #B68254",
"P  c #BA8455",
"I  c #B58953",
"U  c #BB8C53",
"Y  c #BC865A",
"T  c #BE895B",
"R  c #BE9155",
"E  c #C18D52",
"W  c #C28B5D",
"Q  c #C39355",
"!  c #C1925A",
"~  c #CA965A",
"^  c #C99A5E",
"/  c #CAA641",
"(  c #D6B34C",
")  c #CDA05F",
"_  c #C48E61",
"`  c #C88F64",
"'  c #C69163",
"]  c #CA9465",
"[  c #CB9A62",
"{  c #CD9669",
"}  c #C69A68",
"|  c #CE996B",
" . c #D0976B",
".. c #D19B6C",
"X. c #CE9870",
"o. c #D49E71",
"O. c #D6A274",
"+. c #D9A375",
"@. c #DBA679",
/* pixels */
"& - 1 3 Y , 3 : W W 1 E W P 1 1 W  .W 1  .` ] P : ",
"W W W W Y Y Y 1 P Y  .] W W W `  .o. .~ o.3 P ]  .",
"` W  .E $ , 3 P : W +. .W { 1 3  .~ W W ` W W W  .",
" .{  .` - $ # ` P W ` W K y = 1 ] W  .W W ] W ~  .",
"@ 3  .o.` Y - 3 ] T > R r 6 u H W W  .E ` ..{ @. .",
"@ 1 Y ` `  .Y Y ] ' U o   7 0 u ^ W W W ` E : 1 : ",
"3 { _ ` _  . .- 1 J e   4 w q 0 i [ W ]  .] : , + ",
"{ ` Y Y _ {  .` I o   4 p m z q 0 u Q W P ` E W & ",
"` ` Y 3 P _ _ [ O   4 k N B B z q 0 t U 1 T ' W | ",
"3 { Y W 3 3 I e   4 v C B B B V c q 0 u G T T Y | ",
"_ | _ ' | I e 4 w n c n B B B B V m j q t ! _ Y P ",
"X.@.{ { ! 9 g m B z 0 z B B B B n m B m z a ! T P ",
"] X.o.X.R / d / s 4 8 z B B B B n j f d s ( I T Y ",
"` Y T _ _ L , L 2 X 8 z B B B B x l R X.] ' Y _ , ",
"} T Y Y 2 3 3 _ } 5 8 z B B B B n l ! L , } } 3 P ",
"X.T T X.' { X.` I 5 0 z B B B V x l [ 3 & L X.Y _ ",
"X.o.Y T Y ' } 2 % 5 8 z B B B B x l = , W T | O.{ ",
"X.O.T T 2 o.o.` < 5 8 z B B B V n l G ' P T ] | @.",
"o._ , Y _ P ` 3 & 5 8 z B B B B x l R I > < ' _ | ",
"3 W T Y W Y `  .> . 8 z S D D B n l H 1 I T O.| P ",
"3 W 3 3 L ' P  .L X 0 C F F F S n g * ; P } O.O.' ",
"& 1 W  .W T  . .! 6 x B B B B B N h H L Y Y L I } ",
"3 3  .~ 3 1 W W Q p M M M Z Z Z A b ) T ! { ' < _ ",
"1 ` ]  . .= P 1 [ ..E ~ ~ E E ~ Q Q | W Y [ ..] ..",
"1 3 P  .+.~ W 3 3  .W +.o.` E ] < P ] 1 1 | | [ O."
};
