/* XPM */
static char *vn_[] = {
/* columns rows colors chars-per-pixel */
"25 25 118 2",
"   c #015271",
".  c #005A7D",
"X  c #2B5A66",
"o  c #2D5D69",
"O  c #315E69",
"+  c #35616B",
"@  c #296172",
"#  c #386774",
"$  c #356C7B",
"%  c #446F76",
"&  c #6C7364",
"*  c #6E786A",
"=  c #747B6D",
"-  c #9A6136",
";  c #A26E3F",
":  c #9C7A55",
">  c #A56D42",
",  c #A67143",
"<  c #AB7345",
"1  c #A4734A",
"2  c #AC7649",
"3  c #AF794B",
"4  c #B0774A",
"5  c #B27B4D",
"6  c #AC7B52",
"7  c #B47E51",
"8  c #7B8375",
"9  c #7E897C",
"0  c #B6804F",
"q  c #A2805B",
"w  c #B78153",
"e  c #BA8355",
"r  c #BF8857",
"t  c #B78358",
"y  c #BC8659",
"u  c #BE895B",
"i  c #9E896C",
"p  c #808779",
"a  c #82897A",
"s  c #8D8F7F",
"d  c #A68363",
"f  c #AC8965",
"g  c #BB9066",
"h  c #A28D71",
"j  c #A79070",
"k  c #AB9374",
"l  c #AB987A",
"z  c #B99372",
"x  c #C08957",
"c  c #C0875C",
"v  c #C38C5D",
"b  c #C6905F",
"n  c #C48E61",
"m  c #C88F64",
"M  c #C69163",
"N  c #CB9465",
"B  c #C19368",
"V  c #CD9569",
"C  c #CE996B",
"Z  c #D29B6D",
"A  c #D39D71",
"S  c #D6A172",
"D  c #D9A375",
"F  c #DAA378",
"G  c #DDAA7C",
"H  c #E2AC7D",
"J  c #066183",
"K  c #00678F",
"L  c #066A8E",
"P  c #006D95",
"I  c #006F98",
"U  c #00739E",
"Y  c #147597",
"T  c #157799",
"R  c #18799B",
"E  c #0177A3",
"W  c #477D87",
"Q  c #0185B6",
"!  c #0886B5",
"~  c #0089BB",
"^  c #0D8DB8",
"/  c #0590BE",
"(  c #1393BF",
")  c #299ABE",
"_  c #708D8A",
"`  c #70908D",
"'  c #48A1B6",
"]  c #4BA5B9",
"[  c #4EA8BD",
"{  c #54A6B7",
"}  c #028FC2",
"|  c #0293C4",
" . c #069ACD",
".. c #019ED6",
"X. c #009ED8",
"o. c #13A3C8",
"O. c #03A5DB",
"+. c #10A5D7",
"@. c #04AAE4",
"#. c #13ADE0",
"$. c #0CB3E0",
"%. c #02B1EF",
"&. c #0EB4EC",
"*. c #15BCE3",
"=. c #14B5EA",
"-. c #13BFE8",
";. c #03B5F4",
":. c #05BDF5",
">. c #05BCFD",
",. c #08BFFE",
"<. c #00C1FF",
"1. c #0BC2FD",
"2. c #11C7F9",
"3. c #1CD2F6",
"4. c #15D2FD",
"5. c #1BDAFF",
"6. c #24E1FF",
"7. c #899183",
/* pixels */
"v 4 4 4 e e 7 4 < 7 v e 0 b e e x v V Z x N b v x ",
"w m b M n 7 7 v x 7 7 Z Z N v v x N A A v Z v e b ",
"m V v V n > - < 7 4 c H V x M 5 4 N b v b v v v x ",
"v m N V Z 7 > - c c x 7 b f % * 7 v b Z v x Z b b ",
"c ; > m A m m 7 < V M 7 q % . Y 8 y v b v v Z b Z ",
"4 > 4 7 m n m m e v v f O   J U T 7.N v v N x < ; ",
"7 c V n c m V F 7 4 : O   J ! Q U T 7.x N N Z 7 4 ",
"V m m n e n m m V f O   J ! @.O.! U T a v 7 v b v ",
"7 n m y 7 7 c v z O   J ^ @.;.;.O.Q U T p w 7 c b ",
"7 7 V n N e 7 d %   L o.*.%.>.,.1.-.| E T = x b 0 ",
"A y A n M Z d # K | ;.O.| %.>.,.>.@.:.@.| R _ b u ",
"7 n G C Z g W ( #.=. .P ~ %.>.,.>.X.X.&.=.+.) s r ",
"1 n B A Z g j h i i @ K ~ %.>.>.>.X.} _ k i l d u ",
"m V n 7 g t 7 < 7 y o K ~ %.>.,.>.X.} p V N M B u ",
"g g u y m t 7 n n A # K ~ %.>.,.:.X./ 7.r ; t A t ",
"< n V 7 m V B C B 6 o K ~ %.>.,.:.X.} a w , 3 C C ",
"7 V F m u t n C y 1 X K ~ ;.>.,.>.X.} = < n v M S ",
"y A A y u 7 V A M 7 o K ~ %.>.,.>.X.} 8 b w 7 n B ",
"6 A n 4 t M t y x 2 X K ~ ;.,.1.;.X.} a r 3 < M b ",
"n y c n y w M x Z t X K ~ 3.6.6.2.X.} = 3 w u S G ",
"y 7 7 x e w b x N v + I $.5.5.5.4.O./ & < 0 b C S ",
"e < 4 x Z v w Z N C $ ..<.<.<.>.<.<.O.9 r r r u ; ",
"m e 4 Z N v 4 x y M ` ] ' ] { ] ] [ [ l b u B Z w ",
"n t x b N Z 7 e 4 x S y v C x x b r 0 C b 0 b Z N ",
"t 7 2 5 N H N v x < V V A D C x b r r N w 0 M S C "
};
