/* XPM */
static char *vo_[] = {
/* columns rows colors chars-per-pixel */
"25 25 78 1",
"  c #797674",
". c #7B7876",
"X c #7C7C7B",
"o c #965D33",
"O c #9E6A3B",
"+ c #A36B3E",
"@ c #A46D42",
"# c #AA7446",
"$ c #AC7649",
"% c #AE794B",
"& c #B27B4D",
"* c #AE7D53",
"= c #B47D52",
"- c #B87F54",
"; c #83766B",
": c #86796E",
"> c #9E7F63",
", c #8C7E73",
"< c #B68153",
"1 c #BA8355",
"2 c #B78459",
"3 c #BD8659",
"4 c #B7895F",
"5 c #BE895B",
"6 c #8E8176",
"7 c #A78465",
"8 c #A5866C",
"9 c #BD8D64",
"0 c #B5916F",
"q c #AE8E74",
"w c #B49173",
"e c #BE9B7C",
"r c #C0875C",
"t c #C28C5D",
"y c #C48D61",
"u c #C88F64",
"i c #C69163",
"p c #CA9365",
"a c #C2936A",
"s c #CC9569",
"d c #CD996C",
"f c #D0976C",
"g c #D29B6D",
"h c #CF9E75",
"j c #D49E72",
"k c #CDA27C",
"l c #D5A172",
"z c #D9A375",
"x c #DBA578",
"c c #DCAA7A",
"v c #868584",
"b c #959697",
"n c #AB9C8F",
"m c #AFA093",
"M c #A5A19D",
"N c #B1A295",
"B c #A3A4A4",
"V c #ABACAC",
"C c #B2B2B2",
"Z c #BABABA",
"A c #C9A685",
"S c #C0A48A",
"D c #C1B4A8",
"F c #DCC3AE",
"G c #DACABC",
"H c #C6C6C6",
"J c #C9C9C8",
"K c #D0CFCF",
"L c #D0D0CF",
"P c #D4D3D3",
"I c #DBDBDB",
"U c #E7E3DF",
"Y c #E4E5E5",
"T c #ECE8E6",
"R c #E9EAEA",
"E c #F4F4F4",
"W c #F9F5F2",
"Q c #FDFDFD",
/* pixels */
"tt1j<+rtr151i1ill5lc<+ipl",
"1rtg<#1prp9e4ddpp9dl5pldc",
"ttyltpp1<5DFtt%45+<p5iiit",
"sprttgt<1nLFp<O<i#<<1i5%5",
"ptptrti9mVRFptr+1t<+&ti55",
"gppgttiNBHQGeNA0wee70Alil",
"ggtttlNBCTEPKLLLLLLKLUk&g",
"gpp<pSBCIETYYYYTYYYYEWk1t",
"i<%4mBCPQQQQQQQQQQQQQWki1",
"5<<nBCIEQQQQQQQQQQQQQWh1r",
"1swvvBIQQQQQQQQQQQQQQWkip",
"5d2q.XBIQEQQQEQQQEQQQWklp",
"igp57 XBIYJJHJJHJJHPWWgpg",
"pzg#t8 XBYZbbbbbbbbbCTkrc",
"1<55i1> XHEM:,6;:;;:6nzgp",
"<<1td$18 bEF2ad@%%<5ssp&<",
"<11&&=rfqXJF-=s2i5spgt&1t",
"<to+rgjt38BF&#dizir3pp&t1",
"1+O<fpst<5qS5&yipt5it&%tt",
"r%+tptp1=id9i*ii%5t%ttpzz",
"urujftr=rsshs3d3ttr&ppppp",
"rsfu-try2uyjy=r2p+rrrtgr&",
"trs-@uuuusxz9yrjlgrr++r+%",
"rpf=o&ru-23ayu9udlpt<<rr1",
"&trt--tp&uu#-u-$t<<t<5y5i"
};
