/* XPM */
static char *vo_[] = {
/* columns rows colors chars-per-pixel */
"25 25 98 2",
"   c #767702",
".  c #837E07",
"X  c #847E08",
"o  c #847615",
"O  c #877918",
"+  c #8B7D1D",
"@  c #935B2D",
"#  c #955C32",
"$  c #9C643A",
"%  c #9A6E3C",
"&  c #A16B3E",
"*  c #A37734",
"=  c #A56E41",
"-  c #A67143",
";  c #AB7346",
":  c #A77844",
">  c #AC754B",
",  c #AD7A4B",
"<  c #B27C4D",
"1  c #AB7E50",
"2  c #B47E51",
"3  c #8B8B05",
"4  c #86810A",
"5  c #908C0A",
"6  c #939303",
"7  c #9E9E00",
"8  c #A99A1A",
"9  c #A5A503",
"0  c #B1B202",
"q  c #B7B803",
"w  c #BABA05",
"e  c #8F8120",
"r  c #AD9E23",
"t  c #A78E32",
"y  c #B0A126",
"u  c #B8A92D",
"i  c #C7B71C",
"p  c #C7B827",
"a  c #CAA637",
"s  c #D1B23A",
"d  c #C4C204",
"f  c #CCC706",
"g  c #CFCD04",
"h  c #C1C10B",
"j  c #CAC50A",
"k  c #D7D702",
"l  c #DCDC00",
"z  c #DDDD0C",
"x  c #C9C915",
"c  c #DED01F",
"v  c #E2E302",
"b  c #EEEE03",
"n  c #EDE20F",
"m  c #F1F102",
"M  c #FDFD04",
"N  c #F4F40A",
"B  c #EEE311",
"V  c #ECEC13",
"C  c #F1E613",
"Z  c #FBFB13",
"A  c #FFFF1B",
"S  c #FFFF24",
"D  c #B38645",
"F  c #B68B47",
"G  c #B2844B",
"H  c #B5884F",
"J  c #B88B4C",
"K  c #B68254",
"L  c #BA8455",
"P  c #B58953",
"I  c #BB8C53",
"U  c #BC865A",
"Y  c #BE895B",
"T  c #BE9155",
"R  c #C18D52",
"E  c #C28B5D",
"W  c #C39355",
"Q  c #C1925A",
"!  c #CA965A",
"~  c #C69959",
"^  c #CAA641",
"/  c #D6B34C",
"(  c #CDA05F",
")  c #C48E61",
"_  c #C88F64",
"`  c #C69163",
"'  c #CA9465",
"]  c #CB9A62",
"[  c #CD9669",
"{  c #C69A68",
"}  c #CE996B",
"|  c #D0976B",
" . c #D19B6C",
".. c #CE9870",
"X. c #D49E71",
"o. c #D6A274",
"O. c #D9A375",
"+. c #DBA679",
/* pixels */
"< [ |  .| ; @ & |  .U U U > 2 ) { +.} U ' { ` ..o.",
"K [ E ! O.< ; E _ E 2 E ) ) 2 U o...) } o.P , ' ] ",
"_ R E E ' ; ; E _ E E R P U [ ..} ' ` o.o.P ` } } ",
"_ 2 E ' X.L _ _ R E R p / _ [ K U U , Y ' U ] ' } ",
"|  .' E ! _ | R 2 G r k a { > % E L = L L I E I G ",
"< E E E E E ' E I r 0 b ^ ..2 2 > ) U 2 = K E E , ",
"! | E | [ E E ! r 9 k M s Q Q ~ t G W F * J (  .' ",
"| X.' E E E ! y 9 0 b b g j j j j j j j d f c W U ",
"Y [ } ' Y ] u 9 0 z N v l v l v z l v l v m C R < ",
"< Q K , G y 9 0 k Z M M M N m M M M M N Z M C ! [ ",
"2 E < D y 9 0 k m M M M M M M M M M M A S M C W R ",
"2 E ] t 3 6 w b M M M M M M M M M M M A S M C R _ ",
"_ E ` H e   3 h m M M M M M M M M M M Z A M C ! X.",
"U ' [ Q T O   3 h V v l l l k k k l l k V M n ! X.",
", | O.' > P +   3 x z 9 7 7 7 7 7 7 7 7 9 l B R E ",
"E E Q Y Y ) G o   5 v k 3 X 4 4 . X . . X 5 i  .| ",
"E L > L ' _ < L +   q M u 1 { K % : - : K Q Q [ 2 ",
"; < 2 _ 2 U ; _ { e 3 b ^ 2 ) ) 1 ) 2 [ } [ E < 2 ",
"< 2 2 # ; U | ' ) I e d ^ > 2 X.[ o.) _ R | E L E ",
"< R > & 2 | | | Y K P 8 ^ U 2 [ ) X.K Y _ R < ; ) ",
"L L = = _ _ _ _ 2 2 ..` I ) 2 _ L > E E 2 E L [ +.",
"2 ) 2 _ X._ E E 1 ) _ [ .._ U ..E E E E 2 | E [ | ",
"< _ | | | U E E U U _ { X.Y 2 _ L U > E 2 E  .[ L ",
"& E U | 2 > [ ) _ _ ..+.X.U ) 2 X.O.E E E < < ! 2 ",
"& E _ | $ # U _ _ L E | | _ _ [ X.[ X.2 2 ; 2 2 > "
};
