/* XPM */
static char *vo_[] = {
/* columns rows colors chars-per-pixel */
"25 25 116 2",
"   c #015271",
".  c #005A7D",
"X  c #2B5A66",
"o  c #2D5D69",
"O  c #315E69",
"+  c #35616B",
"@  c #39646F",
"#  c #296172",
"$  c #386774",
"%  c #376976",
"&  c #3E6973",
"*  c #326C7B",
"=  c #446F76",
"-  c #6C7364",
";  c #6E786A",
":  c #747B6D",
">  c #9A6136",
",  c #9C653A",
"<  c #A26E3F",
"1  c #9C7A55",
"2  c #A56D42",
"3  c #A67143",
"4  c #AB7345",
"5  c #A4734A",
"6  c #AC7649",
"7  c #AF794B",
"8  c #B0774A",
"9  c #B27B4D",
"0  c #AC7B52",
"q  c #B47E51",
"w  c #7B8375",
"e  c #7E897C",
"r  c #B6804F",
"t  c #A2805B",
"y  c #B78153",
"u  c #BA8355",
"i  c #BF8857",
"p  c #B78358",
"a  c #BC8659",
"s  c #BE895B",
"d  c #9E896C",
"f  c #82897A",
"g  c #A68363",
"h  c #AC8965",
"j  c #BB9066",
"k  c #A79070",
"l  c #AB9374",
"z  c #AB987A",
"x  c #B99372",
"c  c #C08957",
"v  c #C0875C",
"b  c #C38C5D",
"n  c #C6905F",
"m  c #C48E61",
"M  c #C88F64",
"N  c #C69163",
"B  c #CB9465",
"V  c #C19368",
"C  c #CD9569",
"Z  c #CE996B",
"A  c #D29B6D",
"S  c #D39D71",
"D  c #D6A172",
"F  c #D9A375",
"G  c #D4A279",
"H  c #DDAA7C",
"J  c #E2AC7D",
"K  c #066183",
"L  c #00678F",
"P  c #066A8D",
"I  c #006D95",
"U  c #006F98",
"Y  c #00739E",
"T  c #147597",
"R  c #157799",
"E  c #18799B",
"W  c #0177A3",
"Q  c #477D87",
"!  c #0185B6",
"~  c #0886B5",
"^  c #0A88B6",
"/  c #0089BB",
"(  c #0D8DB8",
")  c #2A9ABE",
"_  c #708D8A",
"`  c #70908D",
"'  c #48A1B5",
"]  c #4CA5B9",
"[  c #4EA8BD",
"{  c #54A6B7",
"}  c #028FC2",
"|  c #0293C4",
" . c #009ED6",
".. c #009ED8",
"X. c #13A3C8",
"o. c #03A5DB",
"O. c #10A5D7",
"+. c #04A7E0",
"@. c #04AAE4",
"#. c #13ADE0",
"$. c #02B1EF",
"%. c #0EB4EB",
"&. c #15BCE3",
"*. c #14B5EA",
"=. c #03B5F4",
"-. c #05BDF5",
";. c #05BCFD",
":. c #08BFFE",
">. c #00C1FF",
",. c #0BC2FD",
"<. c #11C7F9",
"1. c #1CD2F6",
"2. c #15D2FD",
"3. c #1BDAFF",
"4. c #24E1FF",
"5. c #899183",
/* pixels */
"i N u N S < 8 b n u a a s s a S D N N H A < y Z Z ",
"b u b B n 4 q n c b m 5.g V S C V n N D Z s A A D ",
"n b b A A c A n u p _ ) z b p 0 s y 4 b n i V n n ",
"B Z b c b B M q u 1 E O.d C 2 2 n r 7 y r s s y r ",
"u n n n c b b n w R } *.l B u u 4 b b 8 4 i n N r ",
"A A n A M b b f R W @.%._ f 5.f : w f : - e z C V ",
"B S n n c B 5.R Y | -.o.} } | } } } } } |  .{ q i ",
"b B B b c 5.E Y ~ <.@...................+.-.[ i i ",
"s s 9 9 w T W ! o.,.;.;.=.;.=.;.;.;.=.<.2.>.] n B ",
"y b q ; R Y ! o.=.-.:.:.:.:.:.;.;.;.,.4.3.>.] u c ",
"u b V = . K ~ +.=.;.;.;.;.;.;.;.;.;.,.4.3.>.] b B ",
"N B s h &   K ^ @.=.$.$.$.$.$.$.$.$.=.1.3.>.] C D ",
"r A B n t O   K ( &.| / / / / / / / / / #.>.' n S ",
"u A F u r h +   K X.O.I L L L L L I L L U  .' c A ",
"b u i i N b 1 O   P =. .# # $ o o o X X + * ` F B ",
"r y 7 a C v 8 h @   | *.d s S 0 5 0 6 y m Z M c 4 ",
"4 u y a 4 q q C x & U #.k q m m a M b A B N c 8 v ",
"8 b 4 > 9 M S M M 1 % } k 2 j C Z S u b c A c u v ",
"r u > 3 B B S M M q 1 Q k q a C m C y m n r 8 q B ",
"u u 3 9 B v M m q q S x m q q Z p q N y u b b A J ",
"u v v A S M m q q C C Z S m C M a b a u u A M B B ",
"8 M A C m q m M q m M C S 0 a q M a 9 b c c A n 9 ",
"8 M M M 2 8 C m M C S H V m a C G F b b q 8 8 c 6 ",
"8 M C M , 2 v m M q q m V M v M B S A v q 6 u u q ",
"b u M v v 8 u C u u A q 4 M v 6 p a 0 m p y M j i "
};
