/* XPM */
static char *vp[] = {
/* columns rows colors chars-per-pixel */
"25 25 155 2",
"   c #0B0F57",
".  c #151857",
"X  c #2B2756",
"o  c #1C236B",
"O  c #3C3A6F",
"+  c #212970",
"@  c #232C7B",
"#  c #2C337D",
"$  c #3B3B72",
"%  c #544A6F",
"&  c #705C73",
"*  c #9E653B",
"=  c #A1683D",
"-  c #A57142",
";  c #A97445",
":  c #AC7649",
">  c #AD794B",
",  c #B0774C",
"<  c #B27B4D",
"1  c #A57856",
"2  c #A97C5F",
"3  c #B47E51",
"4  c #8B6D70",
"5  c #917170",
"6  c #90747E",
"7  c #B68254",
"8  c #BA8455",
"9  c #B2815B",
"0  c #BC8659",
"q  c #BE895B",
"w  c #B58460",
"e  c #BC8C63",
"r  c #B28568",
"t  c #B98C6F",
"y  c #A3827A",
"u  c #B48D7A",
"i  c #B88F78",
"p  c #BE987D",
"a  c #C08757",
"s  c #C0875C",
"d  c #C28C5D",
"f  c #C5915F",
"g  c #C48E61",
"h  c #C88F64",
"j  c #C69163",
"k  c #CA9365",
"l  c #C3936B",
"z  c #CC9569",
"x  c #CD986A",
"c  c #D29B6C",
"v  c #C39572",
"b  c #C59877",
"n  c #CF9C74",
"m  c #D49E70",
"M  c #D6A073",
"N  c #D9A374",
"B  c #D9A478",
"V  c #162782",
"C  c #232D81",
"Z  c #283087",
"A  c #2D328E",
"S  c #363D8B",
"D  c #2B3597",
"F  c #2A369F",
"G  c #313C94",
"H  c #3A4584",
"J  c #37448E",
"K  c #344396",
"L  c #374DA9",
"P  c #2647BB",
"I  c #364AB5",
"U  c #3752B6",
"Y  c #3B55B2",
"T  c #434C8B",
"R  c #4C4C8F",
"E  c #45548E",
"W  c #54568E",
"Q  c #4A5693",
"!  c #595C9A",
"~  c #65618C",
"^  c #6D6C9A",
"/  c #404FAD",
"(  c #4D5AA5",
")  c #4457AD",
"_  c #4B5FB7",
"`  c #485CBB",
"'  c #4D61A2",
"]  c #5E6DA4",
"[  c #5465AA",
"{  c #4A67BD",
"}  c #5361B1",
"|  c #5C6AB1",
" . c #5163B9",
".. c #546ABD",
"X. c #646AA4",
"o. c #7071A5",
"O. c #7478A4",
"+. c #6273B4",
"@. c #6473BB",
"#. c #747DB7",
"$. c #2B4AC4",
"%. c #3451C3",
"&. c #3A55C5",
"*. c #3656CC",
"=. c #3B5ACB",
"-. c #3055D1",
";. c #3559D2",
":. c #3F60CF",
">. c #405DD0",
",. c #4662C6",
"<. c #4D64CA",
"1. c #5F73C3",
"2. c #4163D4",
"3. c #4F6FD4",
"4. c #5068D1",
"5. c #5E7ED5",
"6. c #5376D9",
"7. c #657ED5",
"8. c #647EDD",
"9. c #4A71E0",
"0. c #557AE0",
"q. c #817186",
"w. c #8E7787",
"e. c #947E8A",
"r. c #7F8BB7",
"t. c #7384BB",
"y. c #5C80DE",
"u. c #7283C7",
"i. c #658ADE",
"p. c #668AE5",
"a. c #7396E4",
"s. c #7297EF",
"d. c #78A0F0",
"f. c #9F878A",
"g. c #968392",
"h. c #AF9588",
"j. c #B89986",
"k. c #8992BB",
"l. c #B8A5A1",
"z. c #B0A0AA",
"x. c #CBA488",
"c. c #8394CD",
"v. c #859CD8",
"b. c #8AA0D2",
"n. c #99A7D6",
"m. c #8BA4E4",
"M. c #95A9E3",
"N. c #9EB6E9",
"B. c #A4B3E3",
"V. c #A7BCE6",
"C. c #B3C8F1",
"Z. c #BBD3F4",
"A. c #CAD9EC",
"S. c #CFDFF5",
"D. c #E4F0FB",
/* pixels */
"d z a 8 0 7 7 7 x q - > l 7 8 ; ; f 0 > q q < a x ",
"8 j f 7 > 7 q q z q e ; 3 d 8 - 7 j x f k k 7 7 c ",
"a f a a f f x f q 8 j 7 8 f q > 8 q c d c q > 7 f ",
"h m f 8 7 > > e e 7 7 q e q 8 f q 8 d : x 7 a = > ",
"j k 7 = ; = 7 7 e > 0 8 j q m a d x d d d 8 c d k ",
"7 ; 7 8 8 8 q q k c l p j.h.x.v N k d f 8 d z N a ",
"d d 8 q q 7 7 q t g.O.] E ' +.r.e.e.0 a d a j a a ",
"k N c 0 8 q f y X.y...E . o [ +.@.( ^ b k f M a f ",
"q q x 8 8 k 5 S b.Z.S.V.' J v.N.n.Q ( o.t d 3 < f ",
"7 q q j x b R G A.D.C.a.i.3.6.p.M.T O X.w.a < 8 f ",
"f f q f f 4 @ G @.1.3.=.;.;.;.2.<.` / t.e.l m 8 f ",
"k 7 8 0 0 & C F I %.%.%.*.-.;.;.>.4.<.Q X.n h 8 N ",
"k > 8 z f 6 # A D I I &.$.9.s.p.0.8.1.H % 3 a 3 c ",
"> q d z c 6 H $ Z F =.i.{ U 5.a.d.7. .c.f.3 a k f ",
"h c N g 8 r & & # P :.) C V Y 1._ G K ! 2 f 3 a N ",
"c g h 0 8 q q 1 o.u.,.@.# o L .. .#.#.e.h z f a < ",
"k g h 0 3 h z e k.u.} | +   K m.B.z.n m c d k d = ",
"z d s < s h z m u q.^ W $ X ~ l.x.c z d h 3 a < > ",
", g g h d h l m q 3 9 r i 2 w d 7 a c 8 , a f a f ",
"* s h h g l B B d l g B m M 0 8 ; < < < < c c a d ",
"- < 0 h 3 8 3 g j j 9 q n x j e , 9 e 7 a d k x N ",
"3 0 z h < z l : > l > > 3 3 3 7 < q d g h g a z x ",
"3 s d s 3 3 s g 0 x > < 7 9 j 8 8 q g 7 d d a 8 < ",
"h g 3 z g 3 q d j c 8 0 0 ; 0 x j 0 0 q 7 a a - 8 ",
"m m g g g s 0 0 8 , g k q q 8 d 3 0 j j q 7 > < j "
};
