/* XPM */
static char *vs[] = {
/* columns rows colors chars-per-pixel */
"25 25 140 2",
"   c #4B0A05",
".  c #570704",
"X  c #5B0704",
"o  c #510B06",
"O  c #530D09",
"+  c #5C0D0A",
"@  c #49170D",
"#  c #48180D",
"$  c #52150F",
"%  c #5C1311",
"&  c #501B11",
"*  c #5A1E15",
"=  c #5E1E18",
"-  c #600907",
";  c #620709",
":  c #6C0F0B",
">  c #710708",
",  c #740F0D",
"<  c #7A0809",
"1  c #68100B",
"2  c #631C14",
"3  c #6C1B16",
"4  c #751610",
"5  c #7E1113",
"6  c #751C14",
"7  c #791C1B",
"8  c #552618",
"9  c #5F2418",
"0  c #5B2A1B",
"q  c #612519",
"w  c #6A261A",
"e  c #632A1A",
"r  c #7C221A",
"t  c #74281B",
"y  c #7A281D",
"u  c #752C22",
"i  c #792921",
"p  c #6E3521",
"a  c #6F3A28",
"s  c #723C27",
"d  c #7D3C26",
"f  c #793C35",
"g  c #8C090B",
"h  c #880B11",
"j  c #850D18",
"k  c #811415",
"l  c #8B1815",
"z  c #83131C",
"x  c #8B101E",
"c  c #8C1B1C",
"v  c #9E101A",
"b  c #A2101D",
"n  c #8B1323",
"m  c #961224",
"M  c #9B1425",
"N  c #961A23",
"B  c #9D1529",
"V  c #A51122",
"C  c #A81526",
"Z  c #A41827",
"A  c #A41C2C",
"S  c #8C2522",
"D  c #8E2C24",
"F  c #912522",
"G  c #9B2929",
"H  c #82392A",
"J  c #91392B",
"K  c #8B3631",
"L  c #963530",
"P  c #A12028",
"I  c #A12C2B",
"U  c #81463F",
"Y  c #8B443D",
"T  c #86493A",
"R  c #945B36",
"E  c #9C5B3C",
"W  c #A54130",
"Q  c #A25538",
"!  c #9F6A3D",
"~  c #A36D3F",
"^  c #B63D42",
"/  c #835045",
"(  c #9B5F44",
")  c #9A544B",
"_  c #905A4F",
"`  c #9A5A4F",
"'  c #8F5D51",
"]  c #955750",
"[  c #A44641",
"{  c #A9504F",
"}  c #B4594C",
"|  c #9B6343",
" . c #9E674D",
".. c #8E615B",
"X. c #9D6756",
"o. c #A66443",
"O. c #A46E41",
"+. c #A96E4E",
"@. c #A77144",
"#. c #AA7445",
"$. c #AC764A",
"%. c #AE7A4C",
"&. c #B27549",
"*. c #B37C4E",
"=. c #B37E52",
"-. c #9E6B63",
";. c #A46A67",
":. c #C67A58",
">. c #B68154",
",. c #BB8455",
"<. c #BC865A",
"1. c #BE895B",
"2. c #BC8F6F",
"3. c #AA857F",
"4. c #B88C73",
"5. c #B8937A",
"6. c #C28C5D",
"7. c #C48E61",
"8. c #C69163",
"9. c #CB9465",
"0. c #C69369",
"q. c #CC9669",
"w. c #CE996B",
"e. c #D29B6D",
"r. c #D29D70",
"t. c #D3A06F",
"y. c #D5A273",
"u. c #DAA374",
"i. c #D5A47C",
"p. c #DBA979",
"a. c #E1AA7B",
"s. c #B28682",
"d. c #B78B8C",
"f. c #B79285",
"g. c #B9948D",
"h. c #B99791",
"j. c #B29997",
"k. c #B89A94",
"l. c #BAA199",
"z. c #E6B182",
/* pixels */
"*.<.7.=.1.1.O.@.7.8.w.r.q.>.| >.,.>.>.>.>.6.e.*.9.",
"7.e.=.=.w.7.O.=.0.>.7.q.q.>.#.>.>.~ %.0.w.6.6.~ 6.",
"7.r.9.7.1.<.%.>.w.7.2.q.0.1.>.#.6.8.t.9.w.e.9.&.&.",
"o.9.r.7.=.2.=.%.8.0.y.e.1.8.0.1.t.t.9.u.u.8.9.9.~ ",
"6.6.6.>.<.<.8.>.>.r.y.6.w.y.1.%.6.9.u.9.9.6.9.9.6.",
"6.7.6.9.6.<.<.8.w.w.q.6.t.p.1.1.t.e.u.t.6.6.9.9.6.",
"6.6.,.6.6.w.8.q.1.>.<.$.%.>.%.,.9.7.9.6.6.9.~ &.6.",
"6.&.*.,.,.*.8.>.R ( } [ w 8 8 e y J Q ~ 6.6.6.6.*.",
"6.6.,.=.=.6.e.:.I r L ^ 6 @ # % 2 6 r W &.,.e.6.*.",
"6.=.*.,.8.7.7.Q , 4 l m c 3 = 7 Z w 2 t ~ >.e.9.9.",
"6.6.q.6.7.7.,.J - k N A B n n M P S u p R &.,.9.9.",
"6.&.@.~ +.=.2.w O k G C m z j M A G D d ~ &.=.6.6.",
"#.&.*.>.0.1.=.* + k m B m x n V Z S y u ~ 9.9.~ &.",
">.6.1.~ %.,.>.9 O 1 n C V b j j z q e 0 R 9.6.6.9.",
"6.1.6.>.0.w.,.e O : c v h g < X % 8 e s E >.6.6.e.",
"w.>.>.1.1.6.,.y . 2 K z > g g ; $ & e s | ,.6.9.6.",
"8.1.8.t.9.,.1.s 2 ..j.f + - . O = $ 5 7 R =.6.6.6.",
"1.9.9.9.1.,.1.! T s.d.f o o   = U u v F =.,.q.z.9.",
",.1.1.>.1.1.1.1. .{ G H i o & a _ ;.) +.9.6.e.a.9.",
"1.1.6.1.1.,.1.w.y.X.] ` ) Y / ' -.3.4.7.6.*.a.u.9.",
"<.r.t.1.>.>.<.<.q.5.l.k.h.g.g.f.4.7.6.~ :.6.7.9.9.",
"w.6.8.1.@.>.%.$.e.0.i.0.0.1.9.9.>.6.6.6.,.7.e.e.6.",
"r.7.>.1.,.,.1.%.8.0.e.6.=.9.6.>.#.6.6.6.,.6.9.9.7.",
"7.,.>.8.0.>.2.=.6.6.%.6.7.=.6.,.8.u.t.6.6.6.~ 6.6.",
"7.=.6.8.7.e.0.=.w.8.7.<.7.*.8.9.9.e.e.6.9.6.~ *.&."
};
