/* XPM */
static char *vs_[] = {
/* columns rows colors chars-per-pixel */
"25 25 82 1",
"  c #797674",
". c #7B7876",
"X c #7C7C7B",
"o c #965D33",
"O c #9E6A3B",
"+ c #A36B3E",
"@ c #9A7B5F",
"# c #A46D42",
"$ c #A67142",
"% c #AA7446",
"& c #AC7649",
"* c #AE794B",
"= c #B27B4D",
"- c #B47D52",
"; c #B87F54",
": c #86796E",
"> c #8C7E73",
", c #B68153",
"< c #BA8355",
"1 c #B78459",
"2 c #BD8659",
"3 c #B7895F",
"4 c #BE895B",
"5 c #8E8176",
"6 c #A78465",
"7 c #A5866C",
"8 c #A7886C",
"9 c #BD8D64",
"0 c #B5916F",
"q c #AE8E74",
"w c #AF9175",
"e c #B49173",
"r c #BE9B7C",
"t c #C0875C",
"y c #C28C5D",
"u c #C48D61",
"i c #C88F64",
"p c #C69163",
"a c #CA9365",
"s c #C2936A",
"d c #CC9569",
"f c #CD996C",
"g c #D0976C",
"h c #D29B6D",
"j c #CF9E75",
"k c #D49E72",
"l c #CEA27D",
"z c #D5A172",
"x c #D9A375",
"c c #DBA578",
"v c #DCAA7A",
"b c #868584",
"n c #959697",
"m c #AB9C8F",
"M c #AFA093",
"N c #A5A19D",
"B c #B1A295",
"V c #B7A89B",
"C c #A3A4A4",
"Z c #ABACAC",
"A c #B2B2B2",
"S c #BABABA",
"D c #C19E81",
"F c #C6A386",
"G c #C1B4A8",
"H c #D3BAA4",
"J c #DCC3AE",
"K c #DACABC",
"L c #C6C6C6",
"P c #C9C9C8",
"I c #D0CFCF",
"U c #D0D0CF",
"Y c #CFD0D2",
"T c #D4D3D3",
"R c #DBDBDB",
"E c #E7E3DF",
"W c #E4E5E5",
"Q c #ECE9E6",
"! c #EAEAEA",
"~ c #F4F4F4",
"^ c #F9F5F2",
"/ c #FDFDFD",
/* pixels */
"zxp44zf4<4aazvh=t,yza+=ty",
"dfy,4p,,p<yza<h=tyyxayt+t",
"azp2pzllzjlllzvy=,&ahhtty",
"+ayy4lE^^^^~^QMaya=taa+ty",
"<94,*0T~////~S5aaayya<&&,",
"vzp,$6IW////Un54ata*=ty1y",
"zh,,,rUQ///~Kn *at2yy22i<",
"44$*4rUE///~Ln5+ypy4<=fk,",
"fp4p<eTW////Ln:-pcd&4pcfy",
"xd1,$eIW///~Pn #1ppp44kp=",
"uf*O2FUW////Ln5fdfypf944=",
",ju,yDUW////Ln>d,&==1-ppi",
"u1updrTW///~Ln:1-=4pd94u;",
"1DJHJKTW////LnNJJJBpkkcd%",
"9sGY!/~W////LS~~YNqfsic1u",
"<p9mZLW////~WWLn.73paud;d",
"22,2MCAR~//^WCX w4,-4<i;=",
"ii<,4MNAR~/RCX 8kyy<-uiia",
"<tatpsBCATRCX @<<kdittity",
"+&ahayzVCACX 8,*-kayuuu-;",
",,yy2yyamCb ,yaa*tgig;#o;",
"hhzyyhp<3mbw4+yy-#;ugd;;y",
"tya<yayp*,0,ahy<;oo%igggt",
"ytyayahp,4afhz<=tt#=tdtit",
"yttaahhhaytyyay==;ttytyt="
};
