/* XPM */
static char *vs_[] = {
/* columns rows colors chars-per-pixel */
"25 25 100 2",
"   c #767702",
".  c #847E08",
"X  c #847615",
"o  c #8B7D1D",
"O  c #935B2D",
"+  c #955C32",
"@  c #9C643A",
"#  c #9A6E3C",
"$  c #A16B3E",
"%  c #A37734",
"&  c #AB7E3E",
"*  c #A56E41",
"=  c #A67143",
"-  c #AB7346",
";  c #A77844",
":  c #AC754B",
">  c #AD7A4B",
",  c #B27C4D",
"<  c #AB7E50",
"1  c #B47E51",
"2  c #8B8B05",
"3  c #86810A",
"4  c #908C0B",
"5  c #939303",
"6  c #9E9E00",
"7  c #A5A503",
"8  c #B1B202",
"9  c #B9B904",
"0  c #8F8120",
"q  c #908322",
"w  c #AD9E23",
"e  c #A78E32",
"r  c #B0A126",
"t  c #B8A92D",
"y  c #C7B71C",
"u  c #C7B827",
"i  c #C2A337",
"p  c #CAA637",
"a  c #CEA93D",
"s  c #D1B23A",
"d  c #C4C204",
"f  c #CCC707",
"g  c #CFCD04",
"h  c #C1C10B",
"j  c #CAC50A",
"k  c #D7D702",
"l  c #DCDC01",
"z  c #DDDD0C",
"x  c #C9C915",
"c  c #DED01F",
"v  c #E3E302",
"b  c #EEEE03",
"n  c #EDE20F",
"m  c #F1F103",
"M  c #FDFD04",
"N  c #F4F40A",
"B  c #EFE411",
"V  c #ECEC13",
"C  c #F1E613",
"Z  c #F3E915",
"A  c #FBFB13",
"S  c #FFFF1B",
"D  c #FFFF24",
"F  c #B38645",
"G  c #B68B47",
"H  c #B2844B",
"J  c #B5884F",
"K  c #B88B4C",
"L  c #B68254",
"P  c #BA8455",
"I  c #B58953",
"U  c #BB8C53",
"Y  c #BC865A",
"T  c #BE895B",
"R  c #BE9155",
"E  c #C18D52",
"W  c #C28B5D",
"Q  c #C39355",
"!  c #C1925A",
"~  c #CA965A",
"^  c #C69959",
"/  c #C99A5E",
"(  c #CAA641",
")  c #D6B34C",
"_  c #CDA05F",
"`  c #C48E61",
"'  c #C88F64",
"]  c #C69163",
"[  c #CA9465",
"{  c #CB9A62",
"}  c #CD9669",
"|  c #C69A68",
" . c #CE996B",
".. c #D0976B",
"X. c #D19B6C",
"o. c #CE9870",
"O. c #D49E71",
"+. c #D6A274",
"@. c #D9A375",
"#. c #DBA679",
/* pixels */
"X.| X.} 1 > | P , [ E ' O.@.W } 1 1 W W #...P 1 , ",
"+.[ X.| U W  .! E ~ Q E ~ ~ E X.{ , E - [ ....W , ",
"W > ~ } W W _ c Z C C C C n B y W W W , E W .., , ",
"| P L Y U L G f m M M M M M l 5 !  . .W W ..W , $ ",
"[ +.+.| P = % d l A D D D V 7 . H  .Y ] 1 1 1 T 1 ",
"L X.+.T P H G j v M S S A k 6 . ; } ' P ` Y ` T 1 ",
" .! ] > = Y R j l M M M M k 6 . = L ` P ' Y < T @.",
"#.X.] Y Y ] F j l M M M M k 6 . > ' O.O.< T T #...",
"| +.o.T T - & j l M M M M l 6 . # < | ' Y T Y o.O.",
"` Y o.L $ 1 ^ j l M M M M l 6 . L ` o.} ] o.T T ..",
"L 1 ] o.: L ^ j l m M M M k 6 3 | ` 1 1 < Y Y T ' ",
": ` T ] ] o.R j v M M M M l 6 . < Y : 1 ` ` T Y ' ",
"Y T I ) p ( s g l M M M M k 6 2 i a a p U o.O.O...",
"Y T T u k b M m v M M M M k 7 k M b y 7 ~ } o.O...",
"Y Y ] R w 8 g b N M M M M v z v 9 2 q L  .] ' } W ",
" .T T T H w 7 8 z A M M M V x 4   o U 1 < ` Y ..1 ",
" .` W W , E w 7 8 k M M m h 4   o | ' ` 1 1 Y ' ' ",
"- Y W ] P W Q r 7 8 k b y 2     L ' ' } ' ` W ` ' ",
"O > - [ ..[ W { t 7 8 9 2   0 H , - O.O.' ' W ' P ",
"- , - P [ W W W / r 7 5   X K ] [ P P } ' ' Y : + ",
"..#...O.W E ..W W H r 2 q W - E ' , - W ` o...1 @ ",
"..W W ' W W ..W [ , & e J ` ' W 1 ' + + * ' ......",
"..W W W ' W W [  .H , | W  .@.~ : Y 1 - * 1 } ` ' ",
"....P E X.~ X.O.} ] W W W [ ..W P 1 W P Y W W W W ",
"- E ' ' .., W ..E , , 1 ' W - W W - 1 , P 1 , $ $ "
};
