/* XPM */
static char *vs_[] = {
/* columns rows colors chars-per-pixel */
"25 25 122 2",
"   c #015271",
".  c #005A7D",
"X  c #2B5A66",
"o  c #2D5D69",
"O  c #315E69",
"+  c #35616B",
"@  c #39646F",
"#  c #296172",
"$  c #386774",
"%  c #376976",
"&  c #3E6973",
"*  c #356C7B",
"=  c #446F76",
"-  c #6C7364",
";  c #6E786A",
":  c #747B6D",
">  c #9A6136",
",  c #9C653A",
"<  c #A26E3F",
"1  c #9C7A55",
"2  c #A56D42",
"3  c #A67143",
"4  c #AB7345",
"5  c #A4734A",
"6  c #AC7649",
"7  c #AF794B",
"8  c #B0774A",
"9  c #B27B4D",
"0  c #AC7B52",
"q  c #B47E51",
"w  c #7B8375",
"e  c #7F8778",
"r  c #7E897C",
"t  c #B6804F",
"y  c #B78153",
"u  c #BA8355",
"i  c #BF8857",
"p  c #B78358",
"a  c #BC8659",
"s  c #BE895B",
"d  c #9E896C",
"f  c #808779",
"g  c #82897A",
"h  c #8D8F7F",
"j  c #A68363",
"k  c #AC8965",
"l  c #BB9066",
"z  c #A28D71",
"x  c #AB9374",
"c  c #AB987A",
"v  c #B99372",
"b  c #C08957",
"n  c #C0875C",
"m  c #C38C5D",
"M  c #C6905F",
"N  c #C48E61",
"B  c #C88F64",
"V  c #C69163",
"C  c #CB9465",
"Z  c #C19368",
"A  c #CD9569",
"S  c #CE996B",
"D  c #D29B6D",
"F  c #D39D71",
"G  c #D6A172",
"H  c #D4A279",
"J  c #DAA378",
"K  c #DDAA7C",
"L  c #E2AC7D",
"P  c #066183",
"I  c #00678F",
"U  c #066A8E",
"Y  c #006D95",
"T  c #006F98",
"R  c #00739E",
"E  c #147597",
"W  c #157799",
"Q  c #18799B",
"!  c #0177A3",
"~  c #477D87",
"^  c #1380A5",
"/  c #0185B6",
"(  c #0886B5",
")  c #0A88B6",
"_  c #0089BB",
"`  c #0D8DB8",
"'  c #0590BE",
"]  c #299ABE",
"[  c #708D8A",
"{  c #70908D",
"}  c #48A1B6",
"|  c #4BA5B9",
" . c #4EA8BD",
".. c #54A6B7",
"X. c #028FC2",
"o. c #0293C4",
"O. c #019ED6",
"+. c #009ED8",
"@. c #13A3C8",
"#. c #03A5DB",
"$. c #10A5D7",
"%. c #04A7E0",
"&. c #04AAE4",
"*. c #13ADE0",
"=. c #05B0E7",
"-. c #0CB3E0",
";. c #02B1EF",
":. c #15BCE3",
">. c #14B5EA",
",. c #13BFE8",
"<. c #03B5F4",
"1. c #05BDF5",
"2. c #05BCFD",
"3. c #08BFFE",
"4. c #00C1FF",
"5. c #0BC2FD",
"6. c #11C7F9",
"7. c #1CD2F6",
"8. c #15D2FD",
"9. c #1BDAFF",
"0. c #24E1FF",
"q. c #899183",
/* pixels */
"S G C 7 y C s a V i S G G C A 4 b b C L C 9 8 9 u ",
"C S M y Z S t a M i i S M i G b 9 q q D C C b b N ",
"y D C s M c .. .| | | | } | { M b b 8 m C D 8 q B ",
"< s s s i e O.1.4.4.4.4.4.O.* D C S y m D b 8 8 q ",
"G S l t < - ' #.8.9.9.9.-.T O N S b V y u u q p p ",
"K G i t < w _ #.6.0.0.7._ U X p C m M y a N b p N ",
"M M t t i g ' #.<.5.3.;._ I X 6 m a u N u 9 N F 0 ",
"M l t t M w ' #.2.3.2.;._ Y o 0 V F A q m a H F a ",
"H C m m 4 : X.+.<.3.2.;._ I X 5 a S N p a N F A u ",
"S S 7 3 u f X.+.2.3.2.;._ I o 0 N A B A Z p A N 8 ",
"p S i < u q.X.+.<.3.2.;.X.I % H B N a q V a l s N ",
"s A m A A g X.+.2.3.2.;._ I o a q 5 q q s q N C N ",
"s j c d x [ X.+.<.3.2.;._ I # d z z x N F F B B 4 ",
"a q.] $.>.>.+.+.2.3.2.;._ Y O.>.*.X.~ l S S K N 9 ",
"s N r ^ o.&.1.=.2.3.2.;.o.#.;.o.I $ j S Z B F n A ",
"y V p : W ! o.,.5.2.3.;.:.@.U   ~ 1 q q B N A q q ",
"m m u u f E R / %.<.<.&.` P   @ v m n q q n B N u ",
"m m m q m f E R / #.&.) P   O k C B N N q B N B A ",
"9 q D C M m h Q R / ( P   + 1 8 9 L A B n B A u u ",
"< 4 b C m m C q.W ! P   O k m m q B B N B u 8 2 9 ",
"D B A m m M m b w E . & 0 q B A 4 9 B C F B 2 , n ",
"M C D b m D M m t ; = k V u b n n > 2 9 D A B B n ",
"b m m m M M M C 7 t Z s C J b 8 q 4 > 2 B A B A B ",
"C q b D M D D C i M M C D D u t u B u u n B n B u ",
"b m M A b A A m b q b M q u m 9 4 8 q u u 8 8 8 m "
};
