/* XPM */
static char *vt[] = {
/* columns rows colors chars-per-pixel */
"25 25 125 2",
"   c #4B1C66",
".  c #4F2468",
"X  c #582964",
"o  c #50236C",
"O  c #5C2B6D",
"+  c #58376F",
"@  c #552671",
"#  c #552A74",
"$  c #5B2C73",
"%  c #5B2E79",
"&  c #5C3176",
"*  c #5C3B79",
"=  c #653769",
"-  c #643A6D",
";  c #632E7C",
":  c #663B71",
">  c #693D74",
",  c #6A347E",
"<  c #64397C",
"1  c #6C456D",
"2  c #694173",
"3  c #6C427C",
"4  c #6F4D7E",
"5  c #6F5276",
"6  c #7B5478",
"7  c #7E5979",
"8  c #9C6439",
"9  c #9E693C",
"0  c #A0673C",
"q  c #A26B3E",
"w  c #A67044",
"e  c #AA7445",
"r  c #AC7549",
"t  c #AE7A4B",
"y  c #B27C4E",
"u  c #A3745E",
"i  c #A4795D",
"p  c #B47E51",
"a  c #B87F54",
"s  c #895F78",
"d  c #886071",
"f  c #8B647D",
"g  c #97767D",
"h  c #97787D",
"j  c #AA7A61",
"k  c #A07672",
"l  c #A37C70",
"z  c #AB7A74",
"x  c #A3747E",
"c  c #B68153",
"v  c #BA8355",
"b  c #B5835B",
"n  c #BC8659",
"m  c #BE895B",
"M  c #AA826B",
"N  c #B48362",
"B  c #BC8965",
"V  c #B6896A",
"C  c #BD8A6A",
"Z  c #B38C7C",
"A  c #BC9275",
"S  c #C0875C",
"D  c #C28B5C",
"F  c #C48E61",
"G  c #C18D68",
"H  c #C69163",
"J  c #C99364",
"K  c #C2906A",
"L  c #CC9669",
"P  c #CE996B",
"I  c #D0976C",
"U  c #D29B6C",
"Y  c #C79976",
"T  c #C4907A",
"R  c #D59E71",
"E  c #D09C7B",
"W  c #D6A173",
"Q  c #D8A374",
"!  c #DCA779",
"~  c #E4AC7D",
"^  c #673580",
"/  c #6D3C84",
"(  c #703B83",
")  c #664582",
"_  c #6B4082",
"`  c #6E4B80",
"'  c #704681",
"]  c #7A4387",
"[  c #704984",
"{  c #78478D",
"}  c #7B4D8B",
"|  c #73518A",
" . c #7C5A8B",
".. c #7C5295",
"X. c #7A678D",
"o. c #7E6191",
"O. c #835386",
"+. c #81538D",
"@. c #835F8F",
"#. c #845496",
"$. c #845A94",
"%. c #8B5D93",
"&. c #8B5E9B",
"*. c #826081",
"=. c #8D6C82",
"-. c #90678B",
";. c #856195",
":. c #8B6899",
">. c #956492",
",. c #887493",
"<. c #8E7A9F",
"1. c #987F9D",
"2. c #997AA4",
"3. c #968096",
"4. c #A78786",
"5. c #A6848A",
"6. c #A0888E",
"7. c #B88786",
"8. c #BB9483",
"9. c #BB9691",
"0. c #9B81A9",
"q. c #9D86B1",
"w. c #A582AF",
"e. c #AA94A4",
"r. c #B196AA",
/* pixels */
"p D v D D D S D J D y J D y S D m Q m v m c m P m ",
"D H v P y D D D U U D D J S S S m c m B m c v m m ",
"L S n F S J U S S J D S D c S D w w m m B P W m 9 ",
"D q r D D U U D q v J U S e J J w c P b m J J m c ",
"U D q q S U U J S 0 e L R J S F c w P P B P H m m ",
"U J S q D U J U D 0 q D I J a m b c m m ! Q m m P ",
"J U D S D D D U J 0 v D D v m n m b m P Q m P Q P ",
"S S S D D S D J S e v J b C B G b P P P P m J W P ",
"e y D U D D D R J D T x f f f 5.9.Y c c m t c m D ",
"D D p D L L D D D 7.>.O.O.@.:.;.w.r.M t H t c c c ",
"R U y e D D J D z %.+.+.$.&.#...$.2.r.i c B m e w ",
"J U U J U U D E -.+.+.#.#.} _ ..| ;.0.6.t m F e c ",
"y J J D L U F Z @.} ] / ; ( ( / < ` o.0.C H v D H ",
"D y a a J H J 4. .( , %   ^ { @ . & | <.A D J H c ",
"D y S q D v y g [ ' $._ o @ ; o   @ ) X.8.m J H P ",
"J y U a n m y h ' ' q.| $ o @ # @ + * X.Z c D D ! ",
"D J J D S J J A 4 > 3 < O . # # % 1 + ,.A m D U U ",
"J J S D D J v P *.- = O $ $ # & d j 5 6.b L D F J ",
"D U D D v P J m l 2 X O $ % % : M =.3.A 8 c n D e ",
"D ~ R D m W W c m k - O % < < 3 1.e.A p e c v D e ",
"U ~ U D D c v D J m u s 6 6 7 f 4.V J w e c n J y ",
"R U J D c c c m I a p F B C N v m K ! e c c y D J ",
"D U J D q S c c e a p I W H c y b y J m D D J J P ",
"Q U D D c D 0 0 a L ! D D D e c v w L J W L S D D ",
"D D J D S q 0 q R U U D D S S c H t m H J J c J H "
};
